*
*
G04 PADS Layout (Build Number 2007.42.1) generated Gerber (RS-274-X) file*
G04 PC Version=2.1*
*
%IN "1811v4.pcb"*%
*
%MOIN*%
*
%FSLAX35Y35*%
*
*
*
*
G04 PC Standard Apertures*
*
*
G04 Thermal Relief Aperture macro.*
%AMTER*
1,1,$1,0,0*
1,0,$1-$2,0,0*
21,0,$3,$4,0,0,45*
21,0,$3,$4,0,0,135*
%
*
*
G04 Annular Aperture macro.*
%AMANN*
1,1,$1,0,0*
1,0,$2,0,0*
%
*
*
G04 Odd Aperture macro.*
%AMODD*
1,1,$1,0,0*
1,0,$1-0.005,0,0*
%
*
*
G04 PC Custom Aperture Macros*
*
*
*
*
*
*
G04 PC Aperture Table*
*
%ADD010C,0.001*%
%ADD011R,0.05X0.05*%
%ADD012C,0.06299*%
%ADD013C,0.1063*%
%ADD014C,0.177*%
%ADD015C,0.111*%
%ADD016C,0.01575*%
%ADD017C,0.03543*%
%ADD019C,0.00394*%
%ADD037C,0.0315*%
*
*
*
*
G04 PC Circuitry*
G04 Layer Name 1811v4.pcb - circuitry*
%LPD*%
*
*
G04 PC Custom Flashes*
G04 Layer Name 1811v4.pcb - flashes*
%LPD*%
*
*
G04 PC Circuitry*
G04 Layer Name 1811v4.pcb - circuitry*
%LPD*%
*
G54D10*
G01X100187Y218683D02*
G75*
G03X100187Y218683I-197J0D01*
G01X100187Y320927D02*
G03X100187Y320927I-197J0D01*
G54D11*
G01X186014Y345809D02*
X187014Y345809D01*
X195014Y345809D02*
X196014Y345809D01*
X166329Y345809D02*
X167329Y345809D01*
X175329Y345809D02*
X176329Y345809D01*
X146644Y345809D02*
X147644Y345809D01*
X155644Y345809D02*
X156644Y345809D01*
X520659Y345809D02*
X521659Y345809D01*
X529659Y345809D02*
X530659Y345809D01*
X540344Y345809D02*
X541344Y345809D01*
X549344Y345809D02*
X550344Y345809D01*
X560029Y345809D02*
X561029Y345809D01*
X569029Y345809D02*
X570029Y345809D01*
X147825Y361950D02*
X148825Y361950D01*
X156825Y361950D02*
X157825Y361950D01*
X167903Y362344D02*
X168903Y362344D01*
X176903Y362344D02*
X177903Y362344D01*
X187588Y362344D02*
X188588Y362344D01*
X196588Y362344D02*
X197588Y362344D01*
X150581Y378092D02*
X151581Y378092D01*
X159581Y378092D02*
X160581Y378092D01*
X170659Y378092D02*
X171659Y378092D01*
X179659Y378092D02*
X180659Y378092D01*
X190738Y378486D02*
X191738Y378486D01*
X199738Y378486D02*
X200738Y378486D01*
X195463Y394234D02*
X196463Y394234D01*
X204463Y394234D02*
X205463Y394234D01*
X174596Y393840D02*
X175596Y393840D01*
X183596Y393840D02*
X184596Y393840D01*
X154124Y393840D02*
X155124Y393840D01*
X163124Y393840D02*
X164124Y393840D01*
X159242Y409194D02*
X160242Y409194D01*
X168242Y409194D02*
X169242Y409194D01*
X201762Y409194D02*
X202762Y409194D01*
X210762Y409194D02*
X211762Y409194D01*
X165541Y424155D02*
X166541Y424155D01*
X174541Y424155D02*
X175541Y424155D01*
X187195Y424155D02*
X188195Y424155D01*
X196195Y424155D02*
X197195Y424155D01*
X209636Y423761D02*
X210636Y423761D01*
X218636Y423761D02*
X219636Y423761D01*
X218691Y437541D02*
X219691Y437541D01*
X227691Y437541D02*
X228691Y437541D01*
X195463Y438328D02*
X196463Y438328D01*
X204463Y438328D02*
X205463Y438328D01*
X172628Y438722D02*
X173628Y438722D01*
X181628Y438722D02*
X182628Y438722D01*
X229321Y450139D02*
X230321Y450139D01*
X238321Y450139D02*
X239321Y450139D01*
X204911Y451714D02*
X205911Y451714D01*
X213911Y451714D02*
X214911Y451714D01*
X181289Y452502D02*
X182289Y452502D01*
X190289Y452502D02*
X191289Y452502D01*
X190738Y465887D02*
X191738Y465887D01*
X199738Y465887D02*
X200738Y465887D01*
X215148Y464313D02*
X216148Y464313D01*
X224148Y464313D02*
X225148Y464313D01*
X240738Y461950D02*
X241738Y461950D01*
X249738Y461950D02*
X250738Y461950D01*
X258337Y467187D02*
X258337Y468187D01*
X258337Y476187D02*
X258337Y477187D01*
X226959Y475730D02*
X227959Y475730D01*
X235959Y475730D02*
X236959Y475730D01*
X201368Y478092D02*
X202368Y478092D01*
X210368Y478092D02*
X211368Y478092D01*
X212785Y489509D02*
X213785Y489509D01*
X221785Y489509D02*
X222785Y489509D01*
X239163Y486360D02*
X240163Y486360D01*
X248163Y486360D02*
X249163Y486360D01*
X272116Y476242D02*
X272116Y477242D01*
X272116Y485242D02*
X272116Y486242D01*
X225384Y500139D02*
X226384Y500139D01*
X234384Y500139D02*
X235384Y500139D01*
X257549Y500415D02*
X257549Y499415D01*
X257549Y491415D02*
X257549Y490415D01*
X286683Y494116D02*
X286683Y493116D01*
X286683Y485116D02*
X286683Y484116D01*
X271722Y508683D02*
X271722Y507683D01*
X271722Y499683D02*
X271722Y498683D01*
X238376Y509588D02*
X239376Y509588D01*
X247376Y509588D02*
X248376Y509588D01*
X257155Y523250D02*
X257155Y522250D01*
X257155Y514250D02*
X257155Y513250D01*
X271722Y530730D02*
X271722Y529730D01*
X271722Y521730D02*
X271722Y520730D01*
X286683Y515769D02*
X286683Y514769D01*
X286683Y506769D02*
X286683Y505769D01*
X302037Y500415D02*
X302037Y499415D01*
X302037Y491415D02*
X302037Y490415D01*
X302037Y521281D02*
X302037Y520281D01*
X302037Y512281D02*
X302037Y511281D01*
X286683Y536635D02*
X286683Y535635D01*
X286683Y527635D02*
X286683Y526635D01*
X302037Y541754D02*
X302037Y540754D01*
X302037Y532754D02*
X302037Y531754D01*
X317785Y545691D02*
X317785Y544691D01*
X317785Y536691D02*
X317785Y535691D01*
X317785Y525612D02*
X317785Y524612D01*
X317785Y516612D02*
X317785Y515612D01*
X317785Y505139D02*
X317785Y504139D01*
X317785Y496139D02*
X317785Y495139D01*
X333533Y508289D02*
X333533Y507289D01*
X333533Y499289D02*
X333533Y498289D01*
X333927Y528368D02*
X333927Y527368D01*
X333927Y519368D02*
X333927Y518368D01*
X333927Y548053D02*
X333927Y547053D01*
X333927Y539053D02*
X333927Y538053D01*
X350069Y549234D02*
X350069Y548234D01*
X350069Y540234D02*
X350069Y539234D01*
X350069Y529549D02*
X350069Y528549D01*
X350069Y520549D02*
X350069Y519549D01*
X350069Y509864D02*
X350069Y508864D01*
X350069Y500864D02*
X350069Y499864D01*
X366211Y549234D02*
X366211Y548234D01*
X366211Y540234D02*
X366211Y539234D01*
X366604Y529549D02*
X366604Y528549D01*
X366604Y520549D02*
X366604Y519549D01*
X366604Y509864D02*
X366604Y508864D01*
X366604Y500864D02*
X366604Y499864D01*
X382746Y508289D02*
X382746Y507289D01*
X382746Y499289D02*
X382746Y498289D01*
X382746Y528368D02*
X382746Y527368D01*
X382746Y519368D02*
X382746Y518368D01*
X382746Y548053D02*
X382746Y547053D01*
X382746Y539053D02*
X382746Y538053D01*
X398494Y545691D02*
X398494Y544691D01*
X398494Y536691D02*
X398494Y535691D01*
X398888Y525612D02*
X398888Y524612D01*
X398888Y516612D02*
X398888Y515612D01*
X398888Y505139D02*
X398888Y504139D01*
X398888Y496139D02*
X398888Y495139D01*
X414636Y500415D02*
X414636Y499415D01*
X414636Y491415D02*
X414636Y490415D01*
X414636Y521281D02*
X414636Y520281D01*
X414636Y512281D02*
X414636Y511281D01*
X414636Y541754D02*
X414636Y540754D01*
X414636Y532754D02*
X414636Y531754D01*
X558848Y361950D02*
X559848Y361950D01*
X567848Y361950D02*
X568848Y361950D01*
X538770Y361950D02*
X539770Y361950D01*
X547770Y361950D02*
X548770Y361950D01*
X519085Y362344D02*
X520085Y362344D01*
X528085Y362344D02*
X529085Y362344D01*
X515935Y378486D02*
X516935Y378486D01*
X524935Y378486D02*
X525935Y378486D01*
X536014Y378092D02*
X537014Y378092D01*
X545014Y378092D02*
X546014Y378092D01*
X556092Y378092D02*
X557092Y378092D01*
X565092Y378092D02*
X566092Y378092D01*
X552155Y393840D02*
X553155Y393840D01*
X561155Y393840D02*
X562155Y393840D01*
X531683Y393840D02*
X532683Y393840D01*
X540683Y393840D02*
X541683Y393840D01*
X510817Y394234D02*
X511817Y394234D01*
X519817Y394234D02*
X520817Y394234D01*
X504518Y409194D02*
X505518Y409194D01*
X513518Y409194D02*
X514518Y409194D01*
X526171Y409194D02*
X527171Y409194D01*
X535171Y409194D02*
X536171Y409194D01*
X547431Y409194D02*
X548431Y409194D01*
X556431Y409194D02*
X557431Y409194D01*
X541132Y424155D02*
X542132Y424155D01*
X550132Y424155D02*
X551132Y424155D01*
X519478Y424155D02*
X520478Y424155D01*
X528478Y424155D02*
X529478Y424155D01*
X497037Y423761D02*
X498037Y423761D01*
X506037Y423761D02*
X507037Y423761D01*
X487982Y437541D02*
X488982Y437541D01*
X496982Y437541D02*
X497982Y437541D01*
X511211Y438328D02*
X512211Y438328D01*
X520211Y438328D02*
X521211Y438328D01*
X533651Y438722D02*
X534651Y438722D01*
X542651Y438722D02*
X543651Y438722D01*
X525384Y452502D02*
X526384Y452502D01*
X534384Y452502D02*
X535384Y452502D01*
X501762Y451714D02*
X502762Y451714D01*
X510762Y451714D02*
X511762Y451714D01*
X477352Y450139D02*
X478352Y450139D01*
X486352Y450139D02*
X487352Y450139D01*
X465935Y461950D02*
X466935Y461950D01*
X474935Y461950D02*
X475935Y461950D01*
X491132Y464313D02*
X492132Y464313D01*
X500132Y464313D02*
X501132Y464313D01*
X515541Y465887D02*
X516541Y465887D01*
X524541Y465887D02*
X525541Y465887D01*
X505305Y478092D02*
X506305Y478092D01*
X514305Y478092D02*
X515305Y478092D01*
X479714Y475730D02*
X480714Y475730D01*
X488714Y475730D02*
X489714Y475730D01*
X457943Y477187D02*
X457943Y476187D01*
X457943Y468187D02*
X457943Y467187D01*
X444557Y486242D02*
X444557Y485242D01*
X444557Y477242D02*
X444557Y476242D01*
X467116Y486360D02*
X468116Y486360D01*
X476116Y486360D02*
X477116Y486360D01*
X493888Y489509D02*
X494888Y489509D01*
X502888Y489509D02*
X503888Y489509D01*
X429990Y494116D02*
X429990Y493116D01*
X429990Y485116D02*
X429990Y484116D01*
X429990Y515769D02*
X429990Y514769D01*
X429990Y506769D02*
X429990Y505769D01*
X429990Y536635D02*
X429990Y535635D01*
X429990Y527635D02*
X429990Y526635D01*
X444951Y530730D02*
X444951Y529730D01*
X444951Y521730D02*
X444951Y520730D01*
X444951Y508683D02*
X444951Y507683D01*
X444951Y499683D02*
X444951Y498683D01*
X481289Y500139D02*
X482289Y500139D01*
X490289Y500139D02*
X491289Y500139D01*
X459518Y523250D02*
X459518Y522250D01*
X459518Y514250D02*
X459518Y513250D01*
X458730Y500415D02*
X458730Y499415D01*
X458730Y491415D02*
X458730Y490415D01*
X468297Y509588D02*
X469297Y509588D01*
X477297Y509588D02*
X478297Y509588D01*
X422644Y111009D02*
X422644Y112009D01*
X422644Y120009D02*
X422644Y121009D01*
X437644Y111009D02*
X437644Y112009D01*
X437644Y120009D02*
X437644Y121009D01*
X452644Y111009D02*
X452644Y112009D01*
X452644Y120009D02*
X452644Y121009D01*
X467644Y111009D02*
X467644Y112009D01*
X467644Y120009D02*
X467644Y121009D01*
X482644Y111009D02*
X482644Y112009D01*
X482644Y120009D02*
X482644Y121009D01*
X497644Y111009D02*
X497644Y112009D01*
X497644Y120009D02*
X497644Y121009D01*
X512644Y111009D02*
X512644Y112009D01*
X512644Y120009D02*
X512644Y121009D01*
X527644Y111009D02*
X527644Y112009D01*
X527644Y120009D02*
X527644Y121009D01*
X527644Y133509D02*
X527644Y134509D01*
X527644Y142509D02*
X527644Y143509D01*
X512644Y133509D02*
X512644Y134509D01*
X512644Y142509D02*
X512644Y143509D01*
X497644Y133509D02*
X497644Y134509D01*
X497644Y142509D02*
X497644Y143509D01*
X482644Y133509D02*
X482644Y134509D01*
X482644Y142509D02*
X482644Y143509D01*
X467644Y133509D02*
X467644Y134509D01*
X467644Y142509D02*
X467644Y143509D01*
X452644Y133509D02*
X452644Y134509D01*
X452644Y142509D02*
X452644Y143509D01*
X437644Y133509D02*
X437644Y134509D01*
X437644Y142509D02*
X437644Y143509D01*
X422644Y133509D02*
X422644Y134509D01*
X422644Y142509D02*
X422644Y143509D01*
X422644Y156009D02*
X422644Y157009D01*
X422644Y165009D02*
X422644Y166009D01*
X437644Y156009D02*
X437644Y157009D01*
X437644Y165009D02*
X437644Y166009D01*
X452644Y156009D02*
X452644Y157009D01*
X452644Y165009D02*
X452644Y166009D01*
X467644Y156009D02*
X467644Y157009D01*
X467644Y165009D02*
X467644Y166009D01*
X482644Y156009D02*
X482644Y157009D01*
X482644Y165009D02*
X482644Y166009D01*
X497644Y156009D02*
X497644Y157009D01*
X497644Y165009D02*
X497644Y166009D01*
X512644Y156009D02*
X512644Y157009D01*
X512644Y165009D02*
X512644Y166009D01*
X527644Y156009D02*
X527644Y157009D01*
X527644Y165009D02*
X527644Y166009D01*
X108155Y556914D02*
X108155Y557914D01*
X108155Y565914D02*
X108155Y566914D01*
X123155Y556914D02*
X123155Y557914D01*
X123155Y565914D02*
X123155Y566914D01*
X138155Y556914D02*
X138155Y557914D01*
X138155Y565914D02*
X138155Y566914D01*
X153155Y556914D02*
X153155Y557914D01*
X153155Y565914D02*
X153155Y566914D01*
X168155Y556914D02*
X168155Y557914D01*
X168155Y565914D02*
X168155Y566914D01*
X183155Y556914D02*
X183155Y557914D01*
X183155Y565914D02*
X183155Y566914D01*
X198155Y556914D02*
X198155Y557914D01*
X198155Y565914D02*
X198155Y566914D01*
X213155Y556914D02*
X213155Y557914D01*
X213155Y565914D02*
X213155Y566914D01*
X228155Y556914D02*
X228155Y557914D01*
X228155Y565914D02*
X228155Y566914D01*
X243155Y556914D02*
X243155Y557914D01*
X243155Y565914D02*
X243155Y566914D01*
X258155Y556914D02*
X258155Y557914D01*
X258155Y565914D02*
X258155Y566914D01*
X273155Y556914D02*
X273155Y557914D01*
X273155Y565914D02*
X273155Y566914D01*
X288155Y556914D02*
X288155Y557914D01*
X288155Y565914D02*
X288155Y566914D01*
X303155Y556914D02*
X303155Y557914D01*
X303155Y565914D02*
X303155Y566914D01*
X303155Y576914D02*
X303155Y577914D01*
X303155Y585914D02*
X303155Y586914D01*
X288155Y576914D02*
X288155Y577914D01*
X288155Y585914D02*
X288155Y586914D01*
X273155Y576914D02*
X273155Y577914D01*
X273155Y585914D02*
X273155Y586914D01*
X258155Y576914D02*
X258155Y577914D01*
X258155Y585914D02*
X258155Y586914D01*
X243155Y576914D02*
X243155Y577914D01*
X243155Y585914D02*
X243155Y586914D01*
X228155Y576914D02*
X228155Y577914D01*
X228155Y585914D02*
X228155Y586914D01*
X213155Y576914D02*
X213155Y577914D01*
X213155Y585914D02*
X213155Y586914D01*
X198155Y576914D02*
X198155Y577914D01*
X198155Y585914D02*
X198155Y586914D01*
X183155Y576914D02*
X183155Y577914D01*
X183155Y585914D02*
X183155Y586914D01*
X168155Y576914D02*
X168155Y577914D01*
X168155Y585914D02*
X168155Y586914D01*
X153155Y576914D02*
X153155Y577914D01*
X153155Y585914D02*
X153155Y586914D01*
X138155Y576914D02*
X138155Y577914D01*
X138155Y585914D02*
X138155Y586914D01*
X123155Y576914D02*
X123155Y577914D01*
X123155Y585914D02*
X123155Y586914D01*
X108155Y576914D02*
X108155Y577914D01*
X108155Y585914D02*
X108155Y586914D01*
X108155Y596914D02*
X108155Y597914D01*
X108155Y605914D02*
X108155Y606914D01*
X123155Y596914D02*
X123155Y597914D01*
X123155Y605914D02*
X123155Y606914D01*
X138155Y596914D02*
X138155Y597914D01*
X138155Y605914D02*
X138155Y606914D01*
X153155Y596914D02*
X153155Y597914D01*
X153155Y605914D02*
X153155Y606914D01*
X168155Y596914D02*
X168155Y597914D01*
X168155Y605914D02*
X168155Y606914D01*
X183155Y596914D02*
X183155Y597914D01*
X183155Y605914D02*
X183155Y606914D01*
X198155Y596914D02*
X198155Y597914D01*
X198155Y605914D02*
X198155Y606914D01*
X213155Y596914D02*
X213155Y597914D01*
X213155Y605914D02*
X213155Y606914D01*
X228155Y596914D02*
X228155Y597914D01*
X228155Y605914D02*
X228155Y606914D01*
X243155Y596914D02*
X243155Y597914D01*
X243155Y605914D02*
X243155Y606914D01*
X258155Y596914D02*
X258155Y597914D01*
X258155Y605914D02*
X258155Y606914D01*
X273155Y596914D02*
X273155Y597914D01*
X273155Y605914D02*
X273155Y606914D01*
X288155Y596914D02*
X288155Y597914D01*
X288155Y605914D02*
X288155Y606914D01*
X303155Y596914D02*
X303155Y597914D01*
X303155Y605914D02*
X303155Y606914D01*
X182755Y409514D02*
X183755Y409514D01*
X191755Y409514D02*
X192755Y409514D01*
G54D12*
X187755Y134514D03*
X187755Y124514D03*
X197755Y134514D03*
X197755Y124514D03*
X207755Y134514D03*
X207755Y124514D03*
X217755Y134514D03*
X217755Y124514D03*
X227755Y134514D03*
X227755Y124514D03*
X237755Y134514D03*
X237755Y124514D03*
X247755Y134514D03*
X247755Y124514D03*
X257755Y134514D03*
X257755Y124514D03*
X267755Y134514D03*
X267755Y124514D03*
X277755Y134514D03*
X277755Y124514D03*
X287755Y134514D03*
X287755Y124514D03*
X297755Y134514D03*
X297755Y124514D03*
X307755Y134514D03*
X307755Y124514D03*
X317755Y134514D03*
X317755Y124514D03*
X327755Y134514D03*
X327755Y124514D03*
X337755Y134514D03*
X337755Y124514D03*
X347755Y134514D03*
X347755Y124514D03*
G54D13*
X152755Y129514D03*
X382755Y129514D03*
G54D14*
X229689Y317028D03*
X485682Y317032D03*
G54D15*
X122709Y529509D03*
X357706Y584520D03*
X592702Y529512D03*
X592694Y197034D03*
X357693Y197039D03*
X122708Y139515D03*
G54D16*
X452644Y120509D02*
X452644Y134009D01*
X452644Y111509D02*
X452644Y112009D01*
X460144Y119509*
X460144Y157509*
X467644Y165009*
X467644Y165509*
X437644Y120509D02*
X437644Y134009D01*
X422644Y120509D02*
X422644Y134009D01*
X422644Y111509D02*
X422644Y112009D01*
X430144Y119509*
X430144Y157509*
X437644Y165009*
X437644Y165509*
X527644Y120509D02*
X527644Y134009D01*
X512644Y120509D02*
X512644Y134009D01*
X512644Y111509D02*
X512644Y112009D01*
X520144Y119509*
X520144Y157509*
X527644Y165009*
X527644Y165509*
X497644Y120509D02*
X497644Y134009D01*
X482644Y120509D02*
X482644Y134009D01*
X482644Y111509D02*
X482644Y112009D01*
X490144Y119509*
X490144Y157509*
X497644Y165009*
X497644Y165509*
X467644Y120509D02*
X467644Y134009D01*
X452644Y165509D02*
X452644Y171902D01*
X455255Y174514*
X422644Y165509D02*
X422644Y166009D01*
X428649Y172014*
X440255Y172014*
X445255Y167014*
X445255Y152014*
X422644Y143009D02*
X422644Y156509D01*
X437644Y143009D02*
X437644Y156509D01*
X452644Y143009D02*
X452644Y156509D01*
X512644Y165509D02*
X512755Y165509D01*
X512755Y174514*
X482644Y165509D02*
X482755Y165509D01*
X482755Y174514*
X467644Y143009D02*
X467644Y156509D01*
X482644Y143009D02*
X482644Y156509D01*
X497644Y143009D02*
X497644Y156509D01*
X512644Y143009D02*
X512644Y156509D01*
X527644Y143009D02*
X527644Y156509D01*
X137755Y344514D02*
X137755Y345109D01*
X147144Y345109*
X147144Y345809*
X142755Y374514D02*
X146333Y378092D01*
X151081Y378092*
X180159Y378092D02*
X180553Y378486D01*
X191238Y378486*
X160081Y378092D02*
X171159Y378092D01*
X177403Y362344D02*
X188088Y362344D01*
X157325Y361950D02*
X168010Y361950D01*
X168403Y362344*
X148325Y361950D02*
X148825Y361950D01*
X156896Y353880*
X186943Y353880*
X195014Y345809*
X195514Y345809*
X156144Y345809D02*
X166829Y345809D01*
X175829Y345809D02*
X186514Y345809D01*
X500255Y377014D02*
X500255Y390789D01*
X503700Y394234*
X511317Y394234*
X500255Y347014D02*
X500255Y358379D01*
X504220Y362344*
X519585Y362344*
X525435Y378486D02*
X525829Y378092D01*
X536514Y378092*
X516435Y378486D02*
X516935Y378486D01*
X524612Y386163*
X553478Y386163*
X561155Y393840*
X561655Y393840*
X528585Y362344D02*
X538876Y362344D01*
X539270Y361950*
X530159Y345809D02*
X540844Y345809D01*
X521159Y345809D02*
X521659Y345809D01*
X529730Y353880*
X559777Y353880*
X567848Y361950*
X568348Y361950*
X545514Y378092D02*
X556592Y378092D01*
X548270Y361950D02*
X559348Y361950D01*
X549844Y345809D02*
X560529Y345809D01*
X155255Y444514D02*
X161048Y438722D01*
X173128Y438722*
X150255Y404514D02*
X154936Y409194D01*
X159742Y409194*
X192255Y409514D02*
X201942Y409514D01*
X202262Y409194*
X190789Y452502D02*
X204624Y452502D01*
X205411Y451714*
X181789Y452502D02*
X182289Y452502D01*
X189770Y445021*
X220211Y445021*
X227691Y437541*
X228191Y437541*
X214411Y451714D02*
X228246Y451714D01*
X229821Y450139*
X182128Y438722D02*
X195569Y438722D01*
X195963Y438328*
X204963Y438328D02*
X218403Y438328D01*
X219191Y437541*
X196695Y424155D02*
X209742Y424155D01*
X210136Y423761*
X175041Y424155D02*
X187695Y424155D01*
X166041Y424155D02*
X166541Y424155D01*
X173862Y416835*
X203122Y416835*
X210762Y409194*
X211262Y409194*
X168742Y409194D02*
X182936Y409194D01*
X183255Y409514*
X163624Y393840D02*
X175096Y393840D01*
X154624Y393840D02*
X155124Y393840D01*
X162801Y386163*
X192061Y386163*
X199738Y378486*
X200238Y378486*
X184096Y393840D02*
X195569Y393840D01*
X195963Y394234*
X477755Y437014D02*
X477755Y450043D01*
X477852Y450139*
X490255Y409514D02*
X490255Y416980D01*
X497037Y423761*
X497537Y423761*
X486852Y450139D02*
X494888Y450139D01*
X496463Y451714*
X502262Y451714*
X511262Y451714D02*
X512049Y452502D01*
X525884Y452502*
X520711Y438328D02*
X533758Y438328D01*
X534151Y438722*
X497482Y437541D02*
X504203Y437541D01*
X504990Y438328*
X511711Y438328*
X488482Y437541D02*
X488982Y437541D01*
X496463Y445021*
X526903Y445021*
X534384Y452502*
X534884Y452502*
X506537Y423761D02*
X506931Y424155D01*
X519978Y424155*
X528978Y424155D02*
X541632Y424155D01*
X535671Y409194D02*
X547931Y409194D01*
X514018Y409194D02*
X526671Y409194D01*
X505018Y409194D02*
X505518Y409194D01*
X512998Y416675*
X542651Y416675*
X550132Y424155*
X550632Y424155*
X520317Y394234D02*
X520711Y393840D01*
X532183Y393840*
X541183Y393840D02*
X552655Y393840D01*
X190255Y472014D02*
X190255Y465887D01*
X191238Y465887*
X205255Y489514D02*
X213285Y489514D01*
X213285Y489509*
X210868Y478092D02*
X217982Y478092D01*
X220344Y475730*
X227459Y475730*
X201868Y478092D02*
X202368Y478092D01*
X210439Y470021*
X241667Y470021*
X249738Y461950*
X250238Y461950*
X200238Y465887D02*
X207155Y465887D01*
X208730Y464313*
X215648Y464313*
X221770Y496526D02*
X221770Y489509D01*
X222285Y489509*
X234762Y505975D02*
X234762Y500139D01*
X234884Y500139*
X221770Y496526D02*
X225384Y500139D01*
X225884Y500139*
X234762Y505975D02*
X238376Y509588D01*
X238876Y509588*
X286683Y515269D02*
X286683Y527135D01*
X271722Y530230D02*
X271722Y535981D01*
X275255Y539514*
X257155Y513750D02*
X257155Y507029D01*
X257549Y506635*
X257549Y499915*
X247876Y509588D02*
X247876Y518900D01*
X251725Y522750*
X257155Y522750*
X271722Y499183D02*
X271722Y486135D01*
X272116Y485742*
X271722Y508183D02*
X271722Y521230D01*
X286683Y493616D02*
X286683Y506269D01*
X257549Y490915D02*
X257549Y484194D01*
X258337Y483407*
X258337Y476687*
X272116Y476742D02*
X272116Y477242D01*
X279400Y484525*
X279400Y528352*
X286683Y535635*
X286683Y536135*
X236459Y475730D02*
X237183Y475730D01*
X237183Y479805*
X239663Y482285*
X239663Y486360*
X224648Y464313D02*
X231762Y464313D01*
X234124Y461950*
X241238Y461950*
X366604Y500364D02*
X366604Y500864D01*
X374675Y508935*
X374675Y538982*
X382746Y547053*
X382746Y547553*
X366604Y509364D02*
X366604Y520049D01*
X366211Y539734D02*
X366211Y529049D01*
X366604Y529049*
X350069Y509364D02*
X350069Y520049D01*
X350069Y529049D02*
X350069Y539734D01*
X333927Y527868D02*
X333927Y538553D01*
X333533Y498789D02*
X333533Y499289D01*
X341998Y507754*
X341998Y540163*
X350069Y548234*
X350069Y548734*
X333533Y507789D02*
X333927Y507789D01*
X333927Y518868*
X317785Y504639D02*
X317785Y516112D01*
X317785Y525112D02*
X317785Y536191D01*
X302037Y520781D02*
X302037Y532254D01*
X302037Y490915D02*
X302037Y491415D01*
X309911Y499289*
X309911Y536817*
X317785Y544691*
X317785Y545191*
X302037Y499915D02*
X302037Y511781D01*
X458730Y499915D02*
X458730Y512962D01*
X459518Y513750*
X444951Y508183D02*
X444951Y521230D01*
X429990Y515269D02*
X429990Y527135D01*
X429990Y484616D02*
X429990Y485116D01*
X437500Y492626*
X437500Y522279*
X444951Y529730*
X444951Y530230*
X429990Y493616D02*
X429990Y506269D01*
X444557Y476742D02*
X444557Y477242D01*
X451800Y484485*
X451800Y514532*
X459518Y522250*
X459518Y522750*
X444557Y485742D02*
X444557Y498789D01*
X444951Y499183*
X457943Y467687D02*
X457943Y468187D01*
X467616Y477860*
X467616Y486360*
X457943Y476687D02*
X457943Y490128D01*
X458730Y490915*
X414636Y520781D02*
X414636Y532254D01*
X414636Y499915D02*
X414636Y511781D01*
X398888Y495639D02*
X398888Y496139D01*
X406762Y504013*
X406762Y532880*
X414636Y540754*
X414636Y541254*
X398888Y504639D02*
X398888Y516112D01*
X398494Y536191D02*
X398494Y525112D01*
X398888Y525112*
X382746Y527868D02*
X382746Y538553D01*
X382746Y507789D02*
X382746Y518868D01*
X472755Y479514D02*
X472755Y480002D01*
X479815Y480002*
X485351Y485537*
X489916Y485537*
X493888Y489509*
X494388Y489509*
X477797Y509588D02*
X478297Y509588D01*
X481911Y505975*
X481911Y500139*
X468797Y509588D02*
X469297Y509588D01*
X476616Y502269*
X476616Y486360*
X481789Y500139D02*
X481911Y500139D01*
X489214Y475730D02*
X495998Y475730D01*
X498360Y478092*
X505805Y478092*
X480214Y475730D02*
X480714Y475730D01*
X487604Y482620*
X495998Y482620*
X502888Y489509*
X503388Y489509*
X500632Y464313D02*
X507549Y464313D01*
X509124Y465887*
X516041Y465887*
X475435Y461950D02*
X482352Y461950D01*
X484714Y464313*
X491632Y464313*
X466435Y461950D02*
X466935Y461950D01*
X475006Y470021*
X506234Y470021*
X514305Y478092*
X514805Y478092*
X108155Y586414D02*
X108155Y597414D01*
X123155Y586414D02*
X123155Y597414D01*
X138155Y586414D02*
X138155Y597414D01*
X138155Y566414D02*
X138155Y577414D01*
X138155Y557414D02*
X138155Y557914D01*
X145655Y565414*
X145655Y598414*
X153155Y605914*
X153155Y606414*
X123155Y566414D02*
X123155Y577414D01*
X108155Y566414D02*
X108155Y577414D01*
X108155Y557414D02*
X108155Y557914D01*
X115655Y565414*
X115655Y598414*
X123155Y605914*
X123155Y606414*
X153155Y586414D02*
X153155Y597414D01*
X168155Y586414D02*
X168155Y597414D01*
X183155Y586414D02*
X183155Y597414D01*
X198155Y586414D02*
X198155Y597414D01*
X213155Y586414D02*
X213155Y597414D01*
X213155Y566414D02*
X213155Y577414D01*
X198155Y566414D02*
X198155Y577414D01*
X198155Y557414D02*
X198155Y557914D01*
X205655Y565414*
X205655Y598414*
X213155Y605914*
X213155Y606414*
X183155Y566414D02*
X183155Y577414D01*
X168155Y566414D02*
X168155Y577414D01*
X168155Y557414D02*
X168155Y557914D01*
X175655Y565414*
X175655Y598414*
X183155Y605914*
X183155Y606414*
X153155Y566414D02*
X153155Y577414D01*
X228155Y586414D02*
X228155Y597414D01*
X243155Y586414D02*
X243155Y597414D01*
X258155Y586414D02*
X258155Y597414D01*
X273155Y586414D02*
X273155Y597414D01*
X288155Y586414D02*
X288155Y597414D01*
X288155Y566414D02*
X288155Y577414D01*
X288155Y557414D02*
X288155Y557914D01*
X295655Y565414*
X295655Y598414*
X303155Y605914*
X303155Y606414*
X273155Y566414D02*
X273155Y577414D01*
X258155Y566414D02*
X258155Y577414D01*
X258155Y557414D02*
X258155Y557914D01*
X265655Y565414*
X265655Y598414*
X273155Y605914*
X273155Y606414*
X243155Y566414D02*
X243155Y577414D01*
X228155Y566414D02*
X228155Y577414D01*
X228155Y557414D02*
X228155Y557914D01*
X235655Y565414*
X235655Y598414*
X243155Y605914*
X243155Y606414*
X327755Y554514D02*
X327683Y554442D01*
X334000Y548125*
X334000Y547553*
X365255Y557014D02*
X365695Y557014D01*
X365695Y548734*
X366211Y548734*
X303155Y586414D02*
X303155Y597414D01*
X303155Y566414D02*
X303155Y577414D01*
X333927Y547553D02*
X334000Y547553D01*
X302037Y541254D02*
X302037Y541525D01*
X310141Y549629*
X310255Y549514*
X395255Y552014D02*
X395750Y552509D01*
X398494Y549765*
X398494Y545191*
X428300Y545200D02*
X429077Y545200D01*
X429077Y536135*
X429990Y536135*
G54D17*
X142755Y199514D03*
X182755Y199514D03*
X222755Y199514D03*
X262755Y199514D03*
X445255Y152014D03*
X455255Y174514D03*
X482755Y174514D03*
X512755Y174514D03*
X142755Y244514D03*
X182755Y244514D03*
X262755Y244514D03*
X222755Y244514D03*
X137755Y344514D03*
X142755Y374514D03*
X500255Y377014D03*
X500255Y347014D03*
X155255Y444514D03*
X150255Y404514D03*
X477755Y437014D03*
X490255Y409514D03*
X190255Y472014D03*
X205255Y489514D03*
X275255Y539514D03*
X472755Y479514D03*
X310255Y549514D03*
X327755Y554514D03*
X365255Y557014D03*
X395255Y552014D03*
X428300Y545200D03*
G54D19*
X535738Y178722D02*
X615738Y178722D01*
X615738Y614352*
X535738Y100966D02*
X535738Y178722D01*
X99990Y99982D02*
X535738Y99982D01*
X99990Y614352D02*
X99990Y99982D01*
X615738Y614352D02*
X99990Y614352D01*
G54D37*
X187755Y134514D02*
X187755Y140991D01*
X189364Y142600*
X244700Y142600*
X247755Y139545*
X247755Y139400*
X247755Y134514*
X237755Y124514D02*
X247755Y134514D01*
X247755Y139400D02*
X250955Y142600D01*
X270800Y142600*
X347755Y124514D02*
X352514Y124514D01*
X355600Y127600*
X437644Y111509D02*
X443552Y105600D01*
X467900Y105600*
X504900Y105600D02*
X497700Y105600D01*
X467900Y105600*
X504900Y105600D02*
X516503Y105600D01*
X522411Y111509*
X527644Y111509*
X504900Y105600D02*
X504900Y258100D01*
X569529Y322729*
X569529Y336500*
X497644Y111509D02*
X497700Y111509D01*
X497700Y105600*
X467644Y111509D02*
X467900Y111509D01*
X467900Y105600*
X133501Y261611D02*
X133501Y172099D01*
X181086Y124514*
X187755Y124514*
X142755Y199514D02*
X182755Y199514D01*
X222755Y199514*
X270800Y142600D02*
X280000Y142600D01*
X352200Y142600*
X355600Y139200*
X355600Y127600*
X222755Y199514D02*
X262755Y199514D01*
X133501Y261611D02*
X202800Y330910D01*
X202800Y349845*
X142755Y244514D02*
X182755Y244514D01*
X222755Y244514*
X262755Y244514D02*
X270800Y236470D01*
X270800Y142600*
X222755Y244514D02*
X262755Y244514D01*
X197088Y362344D02*
X197088Y355557D01*
X202800Y349845*
X197088Y362344D02*
X197588Y362344D01*
X207200Y371956*
X207200Y384028*
X569529Y336500D02*
X569529Y345809D01*
X578586Y371753D02*
X572247Y378092D01*
X565592Y378092*
X569529Y345809D02*
X570029Y345809D01*
X578586Y354366*
X578586Y371753*
X204963Y394234D02*
X204963Y386265D01*
X207200Y384028*
X219136Y423761D02*
X224877Y423761D01*
X238821Y437705*
X238821Y450139*
X204963Y394234D02*
X205699Y394234D01*
X219136Y407671*
X219136Y423761*
X238821Y450139D02*
X247825Y450139D01*
X258337Y460651*
X258337Y467687*
X566811Y409194D02*
X572247Y403759D01*
X572247Y378092*
X543151Y438722D02*
X559700Y438722D01*
X566811Y431611*
X566811Y409194*
X556931Y409194*
X286683Y484616D02*
X307262Y484616D01*
X317785Y495139*
X317785Y495639*
X248663Y486360D02*
X248663Y476946D01*
X257880Y467730*
X257880Y467687*
X258337Y467687*
X276100Y467687*
X286683Y478270*
X286683Y484616*
X324961Y495639D02*
X329000Y491600D01*
X341805Y491600*
X350069Y499864*
X350069Y500364*
X356069Y500364*
X363133Y493300*
X370666Y493300*
X376155Y498789*
X382746Y498789*
X317785Y495639D02*
X324961Y495639D01*
X414636Y490915D02*
X414636Y485364D01*
X433700Y466300*
X442300Y466300*
X469500Y439100*
X469500Y420900*
X489800Y400600*
X489800Y346200*
X499500Y336500*
X569529Y336500*
X382746Y498789D02*
X382746Y498289D01*
X392635Y488400*
X404152Y488400*
X406667Y490915*
X414636Y490915*
X490789Y500139D02*
X507000Y500139D01*
X525041Y482098*
X525041Y465887*
X537991Y465887*
X543151Y460727*
X543151Y438722*
X123155Y557414D02*
X123155Y551700D01*
X125655Y549200*
X153100Y549200*
X213155Y549585D02*
X213547Y549193D01*
X243000Y549193*
X213155Y549585D02*
X213155Y557414D01*
X183200Y549200D02*
X213155Y549200D01*
X213155Y549585*
X183200Y549200D02*
X153100Y549200D01*
X153100Y557414*
X153155Y557414*
X183155Y557414D02*
X183200Y557414D01*
X183200Y549200*
X273000Y549193D02*
X273000Y557414D01*
X273155Y557414*
X273000Y549193D02*
X295435Y549193D01*
X303155Y556914*
X303155Y557414*
X273000Y549193D02*
X243000Y549193D01*
X243000Y557414*
X243155Y557414*
X303155Y557414D02*
X314959Y557414D01*
X324961Y547413*
X324961Y495639*
G74*
X0Y0D02*
M02*
