*
*
G04 PADS Layout (Build Number 2007.42.1) generated Gerber (RS-274-X) file*
G04 PC Version=2.1*
*
%IN "1811v4.pcb"*%
*
%MOIN*%
*
%FSLAX35Y35*%
*
*
*
*
G04 PC Standard Apertures*
*
*
G04 Thermal Relief Aperture macro.*
%AMTER*
1,1,$1,0,0*
1,0,$1-$2,0,0*
21,0,$3,$4,0,0,45*
21,0,$3,$4,0,0,135*
%
*
*
G04 Annular Aperture macro.*
%AMANN*
1,1,$1,0,0*
1,0,$2,0,0*
%
*
*
G04 Odd Aperture macro.*
%AMODD*
1,1,$1,0,0*
1,0,$1-0.005,0,0*
%
*
*
G04 PC Custom Aperture Macros*
*
*
*
*
*
*
G04 PC Aperture Table*
*
%ADD010C,0.001*%
%ADD018C,0.01*%
%ADD019C,0.00394*%
*
*
*
*
G04 PC Circuitry*
G04 Layer Name 1811v4.pcb - circuitry*
%LPD*%
*
*
G04 PC Custom Flashes*
G04 Layer Name 1811v4.pcb - flashes*
%LPD*%
*
*
G04 PC Circuitry*
G04 Layer Name 1811v4.pcb - circuitry*
%LPD*%
*
G54D10*
G01X100187Y218683D02*
G75*
G03X100187Y218683I-197J0D01*
G01X100187Y320927D02*
G03X100187Y320927I-197J0D01*
G01X99990Y614352D02*
X99993Y614352D01*
X615738Y614352D02*
X615741Y614352D01*
X99990Y99982D02*
X99993Y99982D01*
X535738Y99982D02*
X535741Y99982D01*
X615738Y178722D02*
X615741Y178722D01*
X615738Y614352D02*
X615741Y614352D01*
X99990Y99982D02*
X99993Y99982D01*
X99990Y614352D02*
X99993Y614352D01*
G54D18*
X183755Y130514D02*
X191755Y130514D01*
X191755Y138514*
X183755Y138514*
X183755Y130514*
X187755Y134514D02*
X187755Y138514D01*
X183755Y120514D02*
X191755Y120514D01*
X191755Y128514*
X183755Y128514*
X183755Y120514*
X187755Y124514D02*
X187755Y128514D01*
X193755Y130514D02*
X201755Y130514D01*
X201755Y138514*
X193755Y138514*
X193755Y130514*
X197755Y134514D02*
X197755Y138514D01*
X193755Y120514D02*
X201755Y120514D01*
X201755Y128514*
X193755Y128514*
X193755Y120514*
X197755Y124514D02*
X197755Y128514D01*
X203755Y130514D02*
X211755Y130514D01*
X211755Y138514*
X203755Y138514*
X203755Y130514*
X207755Y134514D02*
X207755Y138514D01*
X203755Y120514D02*
X211755Y120514D01*
X211755Y128514*
X203755Y128514*
X203755Y120514*
X207755Y124514D02*
X207755Y128514D01*
X213755Y130514D02*
X221755Y130514D01*
X221755Y138514*
X213755Y138514*
X213755Y130514*
X217755Y134514D02*
X217755Y138514D01*
X213755Y120514D02*
X221755Y120514D01*
X221755Y128514*
X213755Y128514*
X213755Y120514*
X217755Y124514D02*
X217755Y128514D01*
X223755Y130514D02*
X231755Y130514D01*
X231755Y138514*
X223755Y138514*
X223755Y130514*
X227755Y134514D02*
X227755Y138514D01*
X223755Y120514D02*
X231755Y120514D01*
X231755Y128514*
X223755Y128514*
X223755Y120514*
X227755Y124514D02*
X227755Y128514D01*
X233755Y130514D02*
X241755Y130514D01*
X241755Y138514*
X233755Y138514*
X233755Y130514*
X237755Y134514D02*
X237755Y138514D01*
X233755Y120514D02*
X241755Y120514D01*
X241755Y128514*
X233755Y128514*
X233755Y120514*
X237755Y124514D02*
X237755Y128514D01*
X243755Y130514D02*
X251755Y130514D01*
X251755Y138514*
X243755Y138514*
X243755Y130514*
X247755Y134514D02*
X247755Y138514D01*
X243755Y120514D02*
X251755Y120514D01*
X251755Y128514*
X243755Y128514*
X243755Y120514*
X247755Y124514D02*
X247755Y128514D01*
X253755Y130514D02*
X261755Y130514D01*
X261755Y138514*
X253755Y138514*
X253755Y130514*
X257755Y134514D02*
X257755Y138514D01*
X253755Y120514D02*
X261755Y120514D01*
X261755Y128514*
X253755Y128514*
X253755Y120514*
X257755Y124514D02*
X257755Y128514D01*
X263755Y130514D02*
X271755Y130514D01*
X271755Y138514*
X263755Y138514*
X263755Y130514*
X267755Y134514D02*
X267755Y138514D01*
X263755Y120514D02*
X271755Y120514D01*
X271755Y128514*
X263755Y128514*
X263755Y120514*
X267755Y124514D02*
X267755Y128514D01*
X273755Y130514D02*
X281755Y130514D01*
X281755Y138514*
X273755Y138514*
X273755Y130514*
X277755Y134514D02*
X277755Y138514D01*
X273755Y120514D02*
X281755Y120514D01*
X281755Y128514*
X273755Y128514*
X273755Y120514*
X277755Y124514D02*
X277755Y128514D01*
X283755Y130514D02*
X291755Y130514D01*
X291755Y138514*
X283755Y138514*
X283755Y130514*
X287755Y134514D02*
X287755Y138514D01*
X283755Y120514D02*
X291755Y120514D01*
X291755Y128514*
X283755Y128514*
X283755Y120514*
X287755Y124514D02*
X287755Y128514D01*
X293755Y130514D02*
X301755Y130514D01*
X301755Y138514*
X293755Y138514*
X293755Y130514*
X297755Y134514D02*
X297755Y138514D01*
X293755Y120514D02*
X301755Y120514D01*
X301755Y128514*
X293755Y128514*
X293755Y120514*
X297755Y124514D02*
X297755Y128514D01*
X303755Y130514D02*
X311755Y130514D01*
X311755Y138514*
X303755Y138514*
X303755Y130514*
X307755Y134514D02*
X307755Y138514D01*
X303755Y120514D02*
X311755Y120514D01*
X311755Y128514*
X303755Y128514*
X303755Y120514*
X307755Y124514D02*
X307755Y128514D01*
X313755Y130514D02*
X321755Y130514D01*
X321755Y138514*
X313755Y138514*
X313755Y130514*
X317755Y134514D02*
X317755Y138514D01*
X313755Y120514D02*
X321755Y120514D01*
X321755Y128514*
X313755Y128514*
X313755Y120514*
X317755Y124514D02*
X317755Y128514D01*
X323755Y130514D02*
X331755Y130514D01*
X331755Y138514*
X323755Y138514*
X323755Y130514*
X327755Y134514D02*
X327755Y138514D01*
X323755Y120514D02*
X331755Y120514D01*
X331755Y128514*
X323755Y128514*
X323755Y120514*
X327755Y124514D02*
X327755Y128514D01*
X333755Y130514D02*
X341755Y130514D01*
X341755Y138514*
X333755Y138514*
X333755Y130514*
X337755Y134514D02*
X337755Y138514D01*
X333755Y120514D02*
X341755Y120514D01*
X341755Y128514*
X333755Y128514*
X333755Y120514*
X337755Y124514D02*
X337755Y128514D01*
X343755Y130514D02*
X351755Y130514D01*
X351755Y138514*
X343755Y138514*
X343755Y130514*
X347755Y134514D02*
X347755Y138514D01*
X343755Y120514D02*
X351755Y120514D01*
X351755Y128514*
X343755Y128514*
X343755Y120514*
X347755Y124514D02*
X347755Y128514D01*
X148755Y125514D02*
X156755Y133514D01*
X148755Y133514D02*
X156755Y125514D01*
X382755Y125514D02*
X386755Y129514D01*
X382755Y133514*
X378755Y129514*
X382755Y125514*
X382755Y129514D02*
X382755Y133514D01*
X225689Y313028D02*
X233689Y321028D01*
X233689Y313028*
X225689Y321028*
X225689Y313028*
X481682Y313032D02*
X489682Y321032D01*
X489682Y313032*
X481682Y321032*
X481682Y313032*
X118709Y529509D02*
X126709Y529509D01*
X122709Y525509D02*
X122709Y533509D01*
X353706Y584520D02*
X361706Y584520D01*
X357706Y580520D02*
X357706Y588520D01*
X588702Y529512D02*
X596702Y529512D01*
X592702Y525512D02*
X592702Y533512D01*
X588694Y197034D02*
X596694Y197034D01*
X592694Y193034D02*
X592694Y201034D01*
X353693Y197039D02*
X361693Y197039D01*
X357693Y193039D02*
X357693Y201039D01*
X118708Y139515D02*
X126708Y139515D01*
X122708Y135515D02*
X122708Y143515D01*
X138755Y195514D02*
X146755Y195514D01*
X138755Y203514*
X146755Y203514*
X138755Y195514*
X178755Y195514D02*
X186755Y195514D01*
X178755Y203514*
X186755Y203514*
X178755Y195514*
X218755Y195514D02*
X226755Y195514D01*
X218755Y203514*
X226755Y203514*
X218755Y195514*
X258755Y195514D02*
X266755Y195514D01*
X258755Y203514*
X266755Y203514*
X258755Y195514*
X441255Y148014D02*
X449255Y148014D01*
X441255Y156014*
X449255Y156014*
X441255Y148014*
X451255Y170514D02*
X459255Y170514D01*
X451255Y178514*
X459255Y178514*
X451255Y170514*
X478755Y170514D02*
X486755Y170514D01*
X478755Y178514*
X486755Y178514*
X478755Y170514*
X508755Y170514D02*
X516755Y170514D01*
X508755Y178514*
X516755Y178514*
X508755Y170514*
X138755Y240514D02*
X146755Y240514D01*
X138755Y248514*
X146755Y248514*
X138755Y240514*
X178755Y240514D02*
X186755Y240514D01*
X178755Y248514*
X186755Y248514*
X178755Y240514*
X258755Y240514D02*
X266755Y240514D01*
X258755Y248514*
X266755Y248514*
X258755Y240514*
X218755Y240514D02*
X226755Y240514D01*
X218755Y248514*
X226755Y248514*
X218755Y240514*
X133755Y340514D02*
X141755Y340514D01*
X133755Y348514*
X141755Y348514*
X133755Y340514*
X138755Y370514D02*
X146755Y370514D01*
X138755Y378514*
X146755Y378514*
X138755Y370514*
X496255Y373014D02*
X504255Y373014D01*
X496255Y381014*
X504255Y381014*
X496255Y373014*
X496255Y343014D02*
X504255Y343014D01*
X496255Y351014*
X504255Y351014*
X496255Y343014*
X151255Y440514D02*
X159255Y440514D01*
X151255Y448514*
X159255Y448514*
X151255Y440514*
X146255Y400514D02*
X154255Y400514D01*
X146255Y408514*
X154255Y408514*
X146255Y400514*
X473755Y433014D02*
X481755Y433014D01*
X473755Y441014*
X481755Y441014*
X473755Y433014*
X486255Y405514D02*
X494255Y405514D01*
X486255Y413514*
X494255Y413514*
X486255Y405514*
X186255Y468014D02*
X194255Y468014D01*
X186255Y476014*
X194255Y476014*
X186255Y468014*
X201255Y485514D02*
X209255Y485514D01*
X201255Y493514*
X209255Y493514*
X201255Y485514*
X271255Y535514D02*
X279255Y535514D01*
X271255Y543514*
X279255Y543514*
X271255Y535514*
X468755Y475514D02*
X476755Y475514D01*
X468755Y483514*
X476755Y483514*
X468755Y475514*
X306255Y545514D02*
X314255Y545514D01*
X306255Y553514*
X314255Y553514*
X306255Y545514*
X323755Y550514D02*
X331755Y550514D01*
X323755Y558514*
X331755Y558514*
X323755Y550514*
X361255Y553014D02*
X369255Y553014D01*
X361255Y561014*
X369255Y561014*
X361255Y553014*
X391255Y548014D02*
X399255Y548014D01*
X391255Y556014*
X399255Y556014*
X391255Y548014*
X424300Y541200D02*
X432300Y541200D01*
X424300Y549200*
X432300Y549200*
X424300Y541200*
X100000Y103500D02*
X103500Y100000D01*
X532200Y100000*
X535700Y103500*
X535700Y175200*
X539200Y178700*
X612200Y178700*
X615700Y182200*
X615700Y610800*
X612200Y614300*
X103500Y614300*
X100000Y610800*
X100000Y103500*
X468300Y337700D02*
G03X468300Y337700I-110000J0D01*
G01X99990Y639100D02*
X338728Y639100D01*
X99990Y639100D02*
X109990Y641600D01*
X109990Y636600*
X99990Y639100*
X615738Y639100D02*
X377000Y639100D01*
X615738Y639100D02*
X605738Y636600D01*
X605738Y641600*
X615738Y639100*
X99990Y619352D02*
X99990Y644100D01*
X615738Y619352D02*
X615738Y644100D01*
X341728Y640663D02*
X342182Y640975D01*
X342864Y641913*
X342864Y641913D02*
X342864Y635350D01*
X345364Y641913D02*
X347864Y641913D01*
X347864Y641913D02*
X346500Y639413D01*
X346500Y639413D02*
X347182Y639413D01*
X347182Y639413D02*
X347637Y639100D01*
X347864Y638788*
X347864Y638788D02*
X348091Y637850D01*
X348091Y637225*
X347864Y636288*
X347864Y636288D02*
X347410Y635663D01*
X347410Y635663D02*
X346728Y635350D01*
X346046Y635350*
X345364Y635663*
X345364Y635663D02*
X345137Y635975D01*
X344910Y636600*
X350137Y640663D02*
X350591Y640975D01*
X351273Y641913*
X351273Y641913D02*
X351273Y635350D01*
X353546Y635975D02*
X353319Y635663D01*
X353319Y635663D02*
X353546Y635350D01*
X353773Y635663*
X353773Y635663D02*
X353546Y635975D01*
X357182Y641913D02*
X356500Y641600D01*
X356046Y640663*
X356046Y640663D02*
X355819Y639100D01*
X355819Y638163*
X355819Y638163D02*
X356046Y636600D01*
X356500Y635663*
X356500Y635663D02*
X357182Y635350D01*
X357637Y635350*
X358319Y635663*
X358319Y635663D02*
X358773Y636600D01*
X359000Y638163*
X359000Y638163D02*
X359000Y639100D01*
X358773Y640663*
X358773Y640663D02*
X358319Y641600D01*
X357637Y641913*
X357637Y641913D02*
X357182Y641913D01*
X361046Y639725D02*
X361046Y635350D01*
X361046Y638475D02*
X361728Y639413D01*
X361728Y639413D02*
X362182Y639725D01*
X362864Y639725*
X363319Y639413*
X363319Y639413D02*
X363546Y638475D01*
X363546Y635350*
X363546Y638475D02*
X364228Y639413D01*
X364228Y639413D02*
X364682Y639725D01*
X365364Y639725*
X365819Y639413*
X365819Y639413D02*
X366046Y638475D01*
X366046Y635350*
X368091Y639725D02*
X368091Y635350D01*
X368091Y638475D02*
X368773Y639413D01*
X368773Y639413D02*
X369228Y639725D01*
X369910Y639725*
X370364Y639413*
X370364Y639413D02*
X370591Y638475D01*
X370591Y635350*
X370591Y638475D02*
X371273Y639413D01*
X371273Y639413D02*
X371728Y639725D01*
X372410Y639725*
X372864Y639413*
X372864Y639413D02*
X373091Y638475D01*
X373091Y635350*
X99990Y75800D02*
X298728Y75800D01*
X99990Y75800D02*
X109990Y78300D01*
X109990Y73300*
X99990Y75800*
X535738Y75800D02*
X337000Y75800D01*
X535738Y75800D02*
X525738Y73300D01*
X525738Y78300*
X535738Y75800*
X99990Y94982D02*
X99990Y70800D01*
X535738Y94982D02*
X535738Y70800D01*
X301728Y77363D02*
X302182Y77675D01*
X302864Y78613*
X302864Y78613D02*
X302864Y72050D01*
X304910Y77363D02*
X305364Y77675D01*
X306046Y78613*
X306046Y78613D02*
X306046Y72050D01*
X309455Y78613D02*
X308773Y78300D01*
X308319Y77363*
X308319Y77363D02*
X308091Y75800D01*
X308091Y74863*
X308091Y74863D02*
X308319Y73300D01*
X308773Y72363*
X308773Y72363D02*
X309455Y72050D01*
X309910Y72050*
X310591Y72363*
X310591Y72363D02*
X311046Y73300D01*
X311273Y74863*
X311273Y74863D02*
X311273Y75800D01*
X311046Y77363*
X311046Y77363D02*
X310591Y78300D01*
X309910Y78613*
X309910Y78613D02*
X309455Y78613D01*
X313546Y72675D02*
X313319Y72363D01*
X313319Y72363D02*
X313546Y72050D01*
X313773Y72363*
X313773Y72363D02*
X313546Y72675D01*
X319000Y78613D02*
X316728Y72050D01*
X315819Y78613D02*
X319000Y78613D01*
X321046Y76425D02*
X321046Y72050D01*
X321046Y75175D02*
X321728Y76113D01*
X321728Y76113D02*
X322182Y76425D01*
X322864Y76425*
X323319Y76113*
X323319Y76113D02*
X323546Y75175D01*
X323546Y72050*
X323546Y75175D02*
X324228Y76113D01*
X324228Y76113D02*
X324682Y76425D01*
X325364Y76425*
X325819Y76113*
X325819Y76113D02*
X326046Y75175D01*
X326046Y72050*
X328091Y76425D02*
X328091Y72050D01*
X328091Y75175D02*
X328773Y76113D01*
X328773Y76113D02*
X329228Y76425D01*
X329910Y76425*
X330364Y76113*
X330364Y76113D02*
X330591Y75175D01*
X330591Y72050*
X330591Y75175D02*
X331273Y76113D01*
X331273Y76113D02*
X331728Y76425D01*
X332410Y76425*
X332864Y76113*
X332864Y76113D02*
X333091Y75175D01*
X333091Y72050*
X645200Y178722D02*
X645200Y389787D01*
X645200Y178722D02*
X642700Y188722D01*
X647700Y188722*
X645200Y178722*
X645200Y614352D02*
X645200Y403287D01*
X645200Y614352D02*
X647700Y604352D01*
X642700Y604352*
X645200Y614352*
X620738Y178722D02*
X650200Y178722D01*
X620738Y614352D02*
X650200Y614352D01*
X629064Y398099D02*
X629518Y398412D01*
X630200Y399349*
X630200Y392787*
X632245Y398099D02*
X632700Y398412D01*
X633382Y399349*
X633382Y392787*
X636791Y399349D02*
X636109Y399037D01*
X635655Y398099*
X635427Y396537*
X635427Y395599*
X635655Y394037*
X636109Y393099*
X636791Y392787*
X637245Y392787*
X637927Y393099*
X638382Y394037*
X638609Y395599*
X638609Y396537*
X638382Y398099*
X637927Y399037*
X637245Y399349*
X636791Y399349*
X640882Y393412D02*
X640655Y393099D01*
X640882Y392787*
X641109Y393099*
X640882Y393412*
X646336Y399349D02*
X644064Y392787D01*
X643155Y399349D02*
X646336Y399349D01*
X648382Y397162D02*
X648382Y392787D01*
X648382Y395912D02*
X649064Y396849D01*
X649518Y397162*
X650200Y397162*
X650655Y396849*
X650882Y395912*
X650882Y392787*
X650882Y395912D02*
X651564Y396849D01*
X652018Y397162*
X652700Y397162*
X653155Y396849*
X653382Y395912*
X653382Y392787*
X655427Y397162D02*
X655427Y392787D01*
X655427Y395912D02*
X656109Y396849D01*
X656564Y397162*
X657245Y397162*
X657700Y396849*
X657927Y395912*
X657927Y392787*
X657927Y395912D02*
X658609Y396849D01*
X659064Y397162*
X659745Y397162*
X660200Y396849*
X660427Y395912*
X660427Y392787*
X68700Y99982D02*
X68700Y350417D01*
X68700Y99982D02*
X66200Y109982D01*
X71200Y109982*
X68700Y99982*
X68700Y614352D02*
X68700Y363917D01*
X68700Y614352D02*
X71200Y604352D01*
X66200Y604352*
X68700Y614352*
X94990Y99982D02*
X63700Y99982D01*
X94990Y614352D02*
X63700Y614352D01*
X51541Y358729D02*
X51995Y359042D01*
X52677Y359979*
X52677Y353417*
X55177Y359979D02*
X57677Y359979D01*
X56314Y357479*
X56995Y357479*
X57450Y357167*
X57677Y356854*
X57905Y355917*
X57905Y355292*
X57677Y354354*
X57223Y353729*
X56541Y353417*
X55859Y353417*
X55177Y353729*
X54950Y354042*
X54723Y354667*
X61314Y359979D02*
X60632Y359667D01*
X60177Y358729*
X59950Y357167*
X59950Y356229*
X60177Y354667*
X60632Y353729*
X61314Y353417*
X61768Y353417*
X62450Y353729*
X62905Y354667*
X63132Y356229*
X63132Y357167*
X62905Y358729*
X62450Y359667*
X61768Y359979*
X61314Y359979*
X65405Y354042D02*
X65177Y353729D01*
X65405Y353417*
X65632Y353729*
X65405Y354042*
X70859Y359979D02*
X68586Y353417D01*
X67677Y359979D02*
X70859Y359979D01*
X72905Y357792D02*
X72905Y353417D01*
X72905Y356542D02*
X73586Y357479D01*
X74041Y357792*
X74723Y357792*
X75177Y357479*
X75405Y356542*
X75405Y353417*
X75405Y356542D02*
X76086Y357479D01*
X76541Y357792*
X77223Y357792*
X77677Y357479*
X77905Y356542*
X77905Y353417*
X79950Y357792D02*
X79950Y353417D01*
X79950Y356542D02*
X80632Y357479D01*
X81086Y357792*
X81768Y357792*
X82223Y357479*
X82450Y356542*
X82450Y353417*
X82450Y356542D02*
X83132Y357479D01*
X83586Y357792*
X84268Y357792*
X84723Y357479*
X84950Y356542*
X84950Y353417*
X304800Y433900D02*
X328665Y410035D01*
X368065Y410035*
X304800Y433900D02*
X313639Y428597D01*
X310103Y425061*
X304800Y433900*
X371065Y412848D02*
X371065Y406285D01*
X371065Y412848D02*
X372656Y412848D01*
X373338Y412535*
X373792Y411910*
X374020Y411285*
X374247Y410348*
X374247Y408785*
X374020Y407848*
X373792Y407223*
X373338Y406598*
X372656Y406285*
X371065Y406285*
X379247Y412848D02*
X376974Y412848D01*
X376747Y410035*
X376974Y410348*
X377656Y410660*
X378338Y410660*
X379020Y410348*
X379474Y409723*
X379702Y408785*
X379474Y408160*
X379247Y407223*
X378792Y406598*
X378111Y406285*
X377429Y406285*
X376747Y406598*
X376520Y406910*
X376292Y407535*
X384474Y411910D02*
X384247Y412535D01*
X383565Y412848*
X383111Y412848*
X382429Y412535*
X381974Y411598*
X381747Y410035*
X381747Y408473*
X381974Y407223*
X382429Y406598*
X383111Y406285*
X383338Y406285*
X384020Y406598*
X384474Y407223*
X384702Y408160*
X384702Y408473*
X384474Y409410*
X384020Y410035*
X383338Y410348*
X383111Y410348*
X382429Y410035*
X381974Y409410*
X381747Y408473*
X386974Y406910D02*
X386747Y406598D01*
X386974Y406285*
X387202Y406598*
X386974Y406910*
X390611Y412848D02*
X389929Y412535D01*
X389474Y411598*
X389247Y410035*
X389247Y409098*
X389474Y407535*
X389929Y406598*
X390611Y406285*
X391065Y406285*
X391747Y406598*
X392202Y407535*
X392429Y409098*
X392429Y410035*
X392202Y411598*
X391747Y412535*
X391065Y412848*
X390611Y412848*
X700000Y268000D02*
X958000Y268000D01*
X700000Y244000D02*
X958000Y244000D01*
X700000Y220000D02*
X958000Y220000D01*
X700000Y196000D02*
X958000Y196000D01*
X700000Y172000D02*
X958000Y172000D01*
X700000Y148000D02*
X958000Y148000D01*
X700000Y124000D02*
X958000Y124000D01*
X700000Y100000D02*
X958000Y100000D01*
X700000Y268000D02*
X700000Y100000D01*
X784000Y268000D02*
X784000Y100000D01*
X820000Y268000D02*
X820000Y100000D01*
X856000Y268000D02*
X856000Y100000D01*
X910000Y268000D02*
X910000Y100000D01*
X958000Y268000D02*
X958000Y100000D01*
X735500Y256750D02*
X734955Y257500D01*
X734136Y257875*
X733045Y257875*
X732227Y257500*
X731682Y256750*
X731682Y256000*
X731955Y255250*
X732227Y254875*
X732773Y254500*
X734409Y253750*
X734955Y253375*
X735227Y253000*
X735500Y252250*
X735500Y251125*
X734955Y250375*
X734136Y250000*
X733045Y250000*
X732227Y250375*
X731682Y251125*
X737955Y257875D02*
X737955Y250000D01*
X744227Y257875D02*
X740409Y250000D01*
X740409Y257875D02*
X744227Y257875D01*
X740409Y250000D02*
X744227Y250000D01*
X746682Y257875D02*
X746682Y250000D01*
X746682Y257875D02*
X750227Y257875D01*
X746682Y254125D02*
X748864Y254125D01*
X746682Y250000D02*
X750227Y250000D01*
X793864Y257875D02*
X793318Y257500D01*
X792773Y256750*
X792500Y256000*
X792227Y254875*
X792227Y253000*
X792500Y251875*
X792773Y251125*
X793318Y250375*
X793864Y250000*
X794955Y250000*
X795500Y250375*
X796045Y251125*
X796318Y251875*
X796591Y253000*
X796591Y254875*
X796318Y256000*
X796045Y256750*
X795500Y257500*
X794955Y257875*
X793864Y257875*
X794682Y251500D02*
X796318Y249250D01*
X800955Y257875D02*
X800955Y250000D01*
X799045Y257875D02*
X802864Y257875D01*
X805318Y257875D02*
X807500Y254125D01*
X807500Y250000*
X809682Y257875D02*
X807500Y254125D01*
X832045Y256750D02*
X831500Y257500D01*
X830682Y257875*
X829591Y257875*
X828773Y257500*
X828227Y256750*
X828227Y256000*
X828500Y255250*
X828773Y254875*
X829318Y254500*
X830955Y253750*
X831500Y253375*
X831773Y253000*
X832045Y252250*
X832045Y251125*
X831500Y250375*
X830682Y250000*
X829591Y250000*
X828773Y250375*
X828227Y251125*
X834500Y257875D02*
X836682Y254125D01*
X836682Y250000*
X838864Y257875D02*
X836682Y254125D01*
X841318Y257875D02*
X841318Y250000D01*
X841318Y257875D02*
X843500Y250000D01*
X845682Y257875D02*
X843500Y250000D01*
X845682Y257875D02*
X845682Y250000D01*
X867500Y257875D02*
X867500Y250000D01*
X867500Y257875D02*
X869955Y257875D01*
X870773Y257500*
X871045Y257125*
X871318Y256375*
X871318Y255250*
X871045Y254500*
X870773Y254125*
X869955Y253750*
X867500Y253750*
X873773Y257875D02*
X873773Y250000D01*
X877045Y250000*
X881682Y257875D02*
X879500Y250000D01*
X881682Y257875D02*
X883864Y250000D01*
X880318Y252625D02*
X883045Y252625D01*
X888227Y257875D02*
X888227Y250000D01*
X886318Y257875D02*
X890136Y257875D01*
X892591Y257875D02*
X892591Y250000D01*
X892591Y257875D02*
X896136Y257875D01*
X892591Y254125D02*
X894773Y254125D01*
X892591Y250000D02*
X896136Y250000D01*
X898591Y257875D02*
X898591Y250000D01*
X898591Y257875D02*
X900500Y257875D01*
X901318Y257500*
X901864Y256750*
X902136Y256000*
X902409Y254875*
X902409Y253000*
X902136Y251875*
X901864Y251125*
X901318Y250375*
X900500Y250000*
X898591Y250000*
X926682Y257875D02*
X926682Y250000D01*
X924773Y257875D02*
X928591Y257875D01*
X932682Y257875D02*
X932136Y257500D01*
X931591Y256750*
X931318Y256000*
X931045Y254875*
X931045Y253000*
X931318Y251875*
X931591Y251125*
X932136Y250375*
X932682Y250000*
X933773Y250000*
X934318Y250375*
X934864Y251125*
X935136Y251875*
X935409Y253000*
X935409Y254875*
X935136Y256000*
X934864Y256750*
X934318Y257500*
X933773Y257875*
X932682Y257875*
X937864Y257875D02*
X937864Y250000D01*
X941136Y250000*
X706000Y232375D02*
X706545Y232750D01*
X707364Y233875*
X707364Y226000*
X709818Y232375D02*
X710364Y232750D01*
X711182Y233875*
X711182Y226000*
X713636Y232375D02*
X714182Y232750D01*
X715000Y233875*
X715000Y226000*
X802455Y232750D02*
X802182Y233500D01*
X801364Y233875*
X800818Y233875*
X800000Y233500*
X799455Y232375*
X799182Y230500*
X799182Y228625*
X799455Y227125*
X800000Y226375*
X800818Y226000*
X801091Y226000*
X801909Y226375*
X802455Y227125*
X802727Y228250*
X802727Y228625*
X802455Y229750*
X801909Y230500*
X801091Y230875*
X800818Y230875*
X800000Y230500*
X799455Y229750*
X799182Y228625*
X832000Y232000D02*
X844000Y232000D01*
X838000Y226000D02*
X838000Y238000D01*
X867636Y233875D02*
X867636Y226000D01*
X867636Y233875D02*
X871455Y226000D01*
X871455Y233875D02*
X871455Y226000D01*
X875545Y233875D02*
X875000Y233500D01*
X874455Y232750*
X874182Y232000*
X873909Y230875*
X873909Y229000*
X874182Y227875*
X874455Y227125*
X875000Y226375*
X875545Y226000*
X876636Y226000*
X877182Y226375*
X877727Y227125*
X878000Y227875*
X878273Y229000*
X878273Y230875*
X878000Y232000*
X877727Y232750*
X877182Y233500*
X876636Y233875*
X875545Y233875*
X917818Y232750D02*
X917818Y226000D01*
X915364Y229375D02*
X920273Y229375D01*
X927636Y235375D02*
X922727Y223375D01*
X930091Y229375D02*
X935000Y229375D01*
X939091Y233875D02*
X938273Y233500D01*
X937727Y232375*
X937455Y230500*
X937455Y229375*
X937727Y227500*
X938273Y226375*
X939091Y226000*
X939636Y226000*
X940455Y226375*
X941000Y227500*
X941273Y229375*
X941273Y230500*
X941000Y232375*
X940455Y233500*
X939636Y233875*
X939091Y233875*
X944000Y226750D02*
X943727Y226375D01*
X944000Y226000*
X944273Y226375*
X944000Y226750*
X948364Y233875D02*
X947545Y233500D01*
X947000Y232375*
X946727Y230500*
X946727Y229375*
X947000Y227500*
X947545Y226375*
X948364Y226000*
X948909Y226000*
X949727Y226375*
X950273Y227500*
X950545Y229375*
X950545Y230500*
X950273Y232375*
X949727Y233500*
X948909Y233875*
X948364Y233875*
X706000Y208375D02*
X706545Y208750D01*
X707364Y209875*
X707364Y202000*
X711455Y209875D02*
X710636Y209500D01*
X710091Y208375*
X709818Y206500*
X709818Y205375*
X710091Y203500*
X710636Y202375*
X711455Y202000*
X712000Y202000*
X712818Y202375*
X713364Y203500*
X713636Y205375*
X713636Y206500*
X713364Y208375*
X712818Y209500*
X712000Y209875*
X711455Y209875*
X719364Y208750D02*
X719091Y209500D01*
X718273Y209875*
X717727Y209875*
X716909Y209500*
X716364Y208375*
X716091Y206500*
X716091Y204625*
X716364Y203125*
X716909Y202375*
X717727Y202000*
X718000Y202000*
X718818Y202375*
X719364Y203125*
X719636Y204250*
X719636Y204625*
X719364Y205750*
X718818Y206500*
X718000Y206875*
X717727Y206875*
X716909Y206500*
X716364Y205750*
X716091Y204625*
X722364Y202750D02*
X722091Y202375D01*
X722364Y202000*
X722636Y202375*
X722364Y202750*
X725636Y209875D02*
X728636Y209875D01*
X727000Y206875*
X727818Y206875*
X728364Y206500*
X728636Y206125*
X728909Y205000*
X728909Y204250*
X728636Y203125*
X728091Y202375*
X727273Y202000*
X726455Y202000*
X725636Y202375*
X725364Y202750*
X725091Y203500*
X800273Y208375D02*
X800818Y208750D01*
X801636Y209875*
X801636Y202000*
X832000Y202000D02*
X844000Y214000D01*
X832000Y214000D02*
X844000Y202000D01*
X867636Y209875D02*
X867636Y202000D01*
X867636Y209875D02*
X871455Y202000D01*
X871455Y209875D02*
X871455Y202000D01*
X875545Y209875D02*
X875000Y209500D01*
X874455Y208750*
X874182Y208000*
X873909Y206875*
X873909Y205000*
X874182Y203875*
X874455Y203125*
X875000Y202375*
X875545Y202000*
X876636Y202000*
X877182Y202375*
X877727Y203125*
X878000Y203875*
X878273Y205000*
X878273Y206875*
X878000Y208000*
X877727Y208750*
X877182Y209500*
X876636Y209875*
X875545Y209875*
X917818Y208750D02*
X917818Y202000D01*
X915364Y205375D02*
X920273Y205375D01*
X927636Y211375D02*
X922727Y199375D01*
X930091Y205375D02*
X935000Y205375D01*
X939091Y209875D02*
X938273Y209500D01*
X937727Y208375*
X937455Y206500*
X937455Y205375*
X937727Y203500*
X938273Y202375*
X939091Y202000*
X939636Y202000*
X940455Y202375*
X941000Y203500*
X941273Y205375*
X941273Y206500*
X941000Y208375*
X940455Y209500*
X939636Y209875*
X939091Y209875*
X944000Y202750D02*
X943727Y202375D01*
X944000Y202000*
X944273Y202375*
X944000Y202750*
X948364Y209875D02*
X947545Y209500D01*
X947000Y208375*
X946727Y206500*
X946727Y205375*
X947000Y203500*
X947545Y202375*
X948364Y202000*
X948909Y202000*
X949727Y202375*
X950273Y203500*
X950545Y205375*
X950545Y206500*
X950273Y208375*
X949727Y209500*
X948909Y209875*
X948364Y209875*
X706545Y185875D02*
X709545Y185875D01*
X707909Y182875*
X708727Y182875*
X709273Y182500*
X709545Y182125*
X709818Y181000*
X709818Y180250*
X709545Y179125*
X709000Y178375*
X708182Y178000*
X707364Y178000*
X706545Y178375*
X706273Y178750*
X706000Y179500*
X716091Y185875D02*
X713364Y178000D01*
X712273Y185875D02*
X716091Y185875D01*
X718818Y178750D02*
X718545Y178375D01*
X718818Y178000*
X719091Y178375*
X718818Y178750*
X724273Y185875D02*
X721545Y180625D01*
X725636Y180625*
X724273Y185875D02*
X724273Y178000D01*
X796318Y185875D02*
X799318Y185875D01*
X797682Y182875*
X798500Y182875*
X799045Y182500*
X799318Y182125*
X799591Y181000*
X799591Y180250*
X799318Y179125*
X798773Y178375*
X797955Y178000*
X797136Y178000*
X796318Y178375*
X796045Y178750*
X795773Y179500*
X804773Y185875D02*
X802045Y180625D01*
X806136Y180625*
X804773Y185875D02*
X804773Y178000D01*
X832000Y178000D02*
X844000Y178000D01*
X844000Y190000*
X832000Y190000*
X832000Y178000*
X838000Y184000D02*
X838000Y190000D01*
X864636Y185875D02*
X866818Y182125D01*
X866818Y178000*
X869000Y185875D02*
X866818Y182125D01*
X871455Y185875D02*
X871455Y178000D01*
X871455Y185875D02*
X875000Y185875D01*
X871455Y182125D02*
X873636Y182125D01*
X871455Y178000D02*
X875000Y178000D01*
X881273Y184750D02*
X880727Y185500D01*
X879909Y185875*
X878818Y185875*
X878000Y185500*
X877455Y184750*
X877455Y184000*
X877727Y183250*
X878000Y182875*
X878545Y182500*
X880182Y181750*
X880727Y181375*
X881000Y181000*
X881273Y180250*
X881273Y179125*
X880727Y178375*
X879909Y178000*
X878818Y178000*
X878000Y178375*
X877455Y179125*
X917818Y184750D02*
X917818Y178000D01*
X915364Y181375D02*
X920273Y181375D01*
X927636Y187375D02*
X922727Y175375D01*
X930091Y181375D02*
X935000Y181375D01*
X939091Y185875D02*
X938273Y185500D01*
X937727Y184375*
X937455Y182500*
X937455Y181375*
X937727Y179500*
X938273Y178375*
X939091Y178000*
X939636Y178000*
X940455Y178375*
X941000Y179500*
X941273Y181375*
X941273Y182500*
X941000Y184375*
X940455Y185500*
X939636Y185875*
X939091Y185875*
X944000Y178750D02*
X943727Y178375D01*
X944000Y178000*
X944273Y178375*
X944000Y178750*
X948364Y185875D02*
X947545Y185500D01*
X947000Y184375*
X946727Y182500*
X946727Y181375*
X947000Y179500*
X947545Y178375*
X948364Y178000*
X948909Y178000*
X949727Y178375*
X950273Y179500*
X950545Y181375*
X950545Y182500*
X950273Y184375*
X949727Y185500*
X948909Y185875*
X948364Y185875*
X706000Y160375D02*
X706545Y160750D01*
X707364Y161875*
X707364Y154000*
X711455Y161875D02*
X710636Y161500D01*
X710091Y160375*
X709818Y158500*
X709818Y157375*
X710091Y155500*
X710636Y154375*
X711455Y154000*
X712000Y154000*
X712818Y154375*
X713364Y155500*
X713636Y157375*
X713636Y158500*
X713364Y160375*
X712818Y161500*
X712000Y161875*
X711455Y161875*
X719364Y160750D02*
X719091Y161500D01*
X718273Y161875*
X717727Y161875*
X716909Y161500*
X716364Y160375*
X716091Y158500*
X716091Y156625*
X716364Y155125*
X716909Y154375*
X717727Y154000*
X718000Y154000*
X718818Y154375*
X719364Y155125*
X719636Y156250*
X719636Y156625*
X719364Y157750*
X718818Y158500*
X718000Y158875*
X717727Y158875*
X716909Y158500*
X716364Y157750*
X716091Y156625*
X722364Y154750D02*
X722091Y154375D01*
X722364Y154000*
X722636Y154375*
X722364Y154750*
X725636Y161875D02*
X728636Y161875D01*
X727000Y158875*
X727818Y158875*
X728364Y158500*
X728636Y158125*
X728909Y157000*
X728909Y156250*
X728636Y155125*
X728091Y154375*
X727273Y154000*
X726455Y154000*
X725636Y154375*
X725364Y154750*
X725091Y155500*
X800273Y160375D02*
X800818Y160750D01*
X801636Y161875*
X801636Y154000*
X838000Y154000D02*
X844000Y160000D01*
X838000Y166000*
X832000Y160000*
X838000Y154000*
X838000Y160000D02*
X838000Y166000D01*
X864636Y161875D02*
X866818Y158125D01*
X866818Y154000*
X869000Y161875D02*
X866818Y158125D01*
X871455Y161875D02*
X871455Y154000D01*
X871455Y161875D02*
X875000Y161875D01*
X871455Y158125D02*
X873636Y158125D01*
X871455Y154000D02*
X875000Y154000D01*
X881273Y160750D02*
X880727Y161500D01*
X879909Y161875*
X878818Y161875*
X878000Y161500*
X877455Y160750*
X877455Y160000*
X877727Y159250*
X878000Y158875*
X878545Y158500*
X880182Y157750*
X880727Y157375*
X881000Y157000*
X881273Y156250*
X881273Y155125*
X880727Y154375*
X879909Y154000*
X878818Y154000*
X878000Y154375*
X877455Y155125*
X917818Y160750D02*
X917818Y154000D01*
X915364Y157375D02*
X920273Y157375D01*
X927636Y163375D02*
X922727Y151375D01*
X930091Y157375D02*
X935000Y157375D01*
X939091Y161875D02*
X938273Y161500D01*
X937727Y160375*
X937455Y158500*
X937455Y157375*
X937727Y155500*
X938273Y154375*
X939091Y154000*
X939636Y154000*
X940455Y154375*
X941000Y155500*
X941273Y157375*
X941273Y158500*
X941000Y160375*
X940455Y161500*
X939636Y161875*
X939091Y161875*
X944000Y154750D02*
X943727Y154375D01*
X944000Y154000*
X944273Y154375*
X944000Y154750*
X948364Y161875D02*
X947545Y161500D01*
X947000Y160375*
X946727Y158500*
X946727Y157375*
X947000Y155500*
X947545Y154375*
X948364Y154000*
X948909Y154000*
X949727Y154375*
X950273Y155500*
X950545Y157375*
X950545Y158500*
X950273Y160375*
X949727Y161500*
X948909Y161875*
X948364Y161875*
X706000Y136375D02*
X706545Y136750D01*
X707364Y137875*
X707364Y130000*
X713364Y137875D02*
X710636Y137875D01*
X710364Y134500*
X710636Y134875*
X711455Y135250*
X712273Y135250*
X713091Y134875*
X713636Y134125*
X713909Y133000*
X713636Y132250*
X713364Y131125*
X712818Y130375*
X712000Y130000*
X711182Y130000*
X710364Y130375*
X710091Y130750*
X709818Y131500*
X716636Y130750D02*
X716364Y130375D01*
X716636Y130000*
X716909Y130375*
X716636Y130750*
X723182Y137875D02*
X720455Y130000D01*
X719364Y137875D02*
X723182Y137875D01*
X729182Y137875D02*
X726455Y137875D01*
X726182Y134500*
X726455Y134875*
X727273Y135250*
X728091Y135250*
X728909Y134875*
X729455Y134125*
X729727Y133000*
X729455Y132250*
X729182Y131125*
X728636Y130375*
X727818Y130000*
X727000Y130000*
X726182Y130375*
X725909Y130750*
X725636Y131500*
X796318Y136000D02*
X796318Y136375D01*
X796591Y137125*
X796864Y137500*
X797409Y137875*
X798500Y137875*
X799045Y137500*
X799318Y137125*
X799591Y136375*
X799591Y135625*
X799318Y134875*
X798773Y133750*
X796045Y130000*
X799864Y130000*
X805864Y135250D02*
X805591Y134125D01*
X805045Y133375*
X804227Y133000*
X803955Y133000*
X803136Y133375*
X802591Y134125*
X802318Y135250*
X802318Y135625*
X802591Y136750*
X803136Y137500*
X803955Y137875*
X804227Y137875*
X805045Y137500*
X805591Y136750*
X805864Y135250*
X805864Y133375*
X805591Y131500*
X805045Y130375*
X804227Y130000*
X803682Y130000*
X802864Y130375*
X802591Y131125*
X832000Y130000D02*
X844000Y130000D01*
X832000Y142000*
X844000Y142000*
X832000Y130000*
X864636Y137875D02*
X866818Y134125D01*
X866818Y130000*
X869000Y137875D02*
X866818Y134125D01*
X871455Y137875D02*
X871455Y130000D01*
X871455Y137875D02*
X875000Y137875D01*
X871455Y134125D02*
X873636Y134125D01*
X871455Y130000D02*
X875000Y130000D01*
X881273Y136750D02*
X880727Y137500D01*
X879909Y137875*
X878818Y137875*
X878000Y137500*
X877455Y136750*
X877455Y136000*
X877727Y135250*
X878000Y134875*
X878545Y134500*
X880182Y133750*
X880727Y133375*
X881000Y133000*
X881273Y132250*
X881273Y131125*
X880727Y130375*
X879909Y130000*
X878818Y130000*
X878000Y130375*
X877455Y131125*
X917818Y136750D02*
X917818Y130000D01*
X915364Y133375D02*
X920273Y133375D01*
X927636Y139375D02*
X922727Y127375D01*
X930091Y133375D02*
X935000Y133375D01*
X939091Y137875D02*
X938273Y137500D01*
X937727Y136375*
X937455Y134500*
X937455Y133375*
X937727Y131500*
X938273Y130375*
X939091Y130000*
X939636Y130000*
X940455Y130375*
X941000Y131500*
X941273Y133375*
X941273Y134500*
X941000Y136375*
X940455Y137500*
X939636Y137875*
X939091Y137875*
X944000Y130750D02*
X943727Y130375D01*
X944000Y130000*
X944273Y130375*
X944000Y130750*
X948364Y137875D02*
X947545Y137500D01*
X947000Y136375*
X946727Y134500*
X946727Y133375*
X947000Y131500*
X947545Y130375*
X948364Y130000*
X948909Y130000*
X949727Y130375*
X950273Y131500*
X950545Y133375*
X950545Y134500*
X950273Y136375*
X949727Y137500*
X948909Y137875*
X948364Y137875*
X706000Y112375D02*
X706545Y112750D01*
X707364Y113875*
X707364Y106000*
X713636Y113875D02*
X710909Y106000D01*
X709818Y113875D02*
X713636Y113875D01*
X719909Y113875D02*
X717182Y106000D01*
X716091Y113875D02*
X719909Y113875D01*
X799318Y112000D02*
X799318Y112375D01*
X799591Y113125*
X799864Y113500*
X800409Y113875*
X801500Y113875*
X802045Y113500*
X802318Y113125*
X802591Y112375*
X802591Y111625*
X802318Y110875*
X801773Y109750*
X799045Y106000*
X802864Y106000*
X832000Y106000D02*
X844000Y118000D01*
X844000Y106000*
X832000Y118000*
X832000Y106000*
X867636Y113875D02*
X867636Y106000D01*
X867636Y113875D02*
X871455Y106000D01*
X871455Y113875D02*
X871455Y106000D01*
X875545Y113875D02*
X875000Y113500D01*
X874455Y112750*
X874182Y112000*
X873909Y110875*
X873909Y109000*
X874182Y107875*
X874455Y107125*
X875000Y106375*
X875545Y106000*
X876636Y106000*
X877182Y106375*
X877727Y107125*
X878000Y107875*
X878273Y109000*
X878273Y110875*
X878000Y112000*
X877727Y112750*
X877182Y113500*
X876636Y113875*
X875545Y113875*
X917818Y112750D02*
X917818Y106000D01*
X915364Y109375D02*
X920273Y109375D01*
X927636Y115375D02*
X922727Y103375D01*
X930091Y109375D02*
X935000Y109375D01*
X939091Y113875D02*
X938273Y113500D01*
X937727Y112375*
X937455Y110500*
X937455Y109375*
X937727Y107500*
X938273Y106375*
X939091Y106000*
X939636Y106000*
X940455Y106375*
X941000Y107500*
X941273Y109375*
X941273Y110500*
X941000Y112375*
X940455Y113500*
X939636Y113875*
X939091Y113875*
X944000Y106750D02*
X943727Y106375D01*
X944000Y106000*
X944273Y106375*
X944000Y106750*
X948364Y113875D02*
X947545Y113500D01*
X947000Y112375*
X946727Y110500*
X946727Y109375*
X947000Y107500*
X947545Y106375*
X948364Y106000*
X948909Y106000*
X949727Y106375*
X950273Y107500*
X950545Y109375*
X950545Y110500*
X950273Y112375*
X949727Y113500*
X948909Y113875*
X948364Y113875*
G54D19*
X535738Y178722D02*
X615738Y178722D01*
X615738Y614352*
X535738Y100966D02*
X535738Y178722D01*
X99990Y99982D02*
X535738Y99982D01*
X99990Y614352D02*
X99990Y99982D01*
X615738Y614352D02*
X99990Y614352D01*
G74*
X0Y0D02*
M02*
