%
T1C.01575F095S3
X014276Y019951
X018276Y019951
X014276Y024451
X018276Y024451
X013776Y034451
X014276Y037451
X015026Y040451
X015526Y044451
X019026Y047201
X027526Y053951
X020526Y048951
X026276Y024451
X022276Y024451
X026276Y019951
X022276Y019951
X031026Y054951
X039526Y055201
X032776Y055451
X036526Y055701
X04283Y05452
X047276Y047951
X047776Y043701
X049026Y040951
X045526Y017451
X048276Y017451
X044526Y015201
X051276Y017451
X050026Y034701
X050026Y037701
T2C.0374F197S55
X018776Y012451
X019776Y012451
X020776Y012451
X021776Y012451
X020776Y013451
X019776Y013451
X021776Y013451
X018776Y013451
X022776Y013451
X023776Y013451
X024776Y013451
X025776Y013451
X026776Y013451
X024776Y012451
X023776Y012451
X025776Y012451
X022776Y012451
X026776Y012451
X027776Y012451
X028776Y012451
X029776Y012451
X030776Y012451
X031776Y012451
X028776Y013451
X030776Y013451
X027776Y013451
X031776Y013451
X029776Y013451
X032776Y013451
X033776Y013451
X034776Y013451
X033776Y012451
X032776Y012451
X034776Y012451
T3C.1063F069S658
X015276Y012951
T4C.1063F069S658
X038276Y012951
T5C.111F069S658
X012271Y013952
X035769Y019704
X012271Y052951
X035771Y058452
X05927Y052951
X059269Y019703
T6C.177F035S1033
X022969Y031703
X048568Y031703
M30
