*
*
G04 PADS Layout (Build Number 2007.42.1) generated Gerber (RS-274-X) file*
G04 PC Version=2.1*
*
%IN "1811v4.pcb"*%
*
%MOIN*%
*
%FSLAX35Y35*%
*
*
*
*
G04 PC Standard Apertures*
*
*
G04 Thermal Relief Aperture macro.*
%AMTER*
1,1,$1,0,0*
1,0,$1-$2,0,0*
21,0,$3,$4,0,0,45*
21,0,$3,$4,0,0,135*
%
*
*
G04 Annular Aperture macro.*
%AMANN*
1,1,$1,0,0*
1,0,$2,0,0*
%
*
*
G04 Odd Aperture macro.*
%AMODD*
1,1,$1,0,0*
1,0,$1-0.005,0,0*
%
*
*
G04 PC Custom Aperture Macros*
*
*
*
*
*
*
G04 PC Aperture Table*
*
%ADD010C,0.001*%
%ADD019C,0.00394*%
%ADD028C,0.07299*%
%ADD029C,0.1163*%
%ADD031C,0.121*%
%ADD032R,0.07X0.07*%
%ADD033R,0.07X0.07*%
%ADD034R,0.0474X0.0474*%
%ADD035R,0.10449X0.10449*%
%ADD036C,0.07*%
*
*
*
*
G04 PC Circuitry*
G04 Layer Name 1811v4.pcb - circuitry*
%LPD*%
*
*
G04 PC Custom Flashes*
G04 Layer Name 1811v4.pcb - flashes*
%LPD*%
*
*
G04 PC Circuitry*
G04 Layer Name 1811v4.pcb - circuitry*
%LPD*%
*
G54D10*
G01X100187Y218683D02*
G75*
G03X100187Y218683I-197J0D01*
G01X100187Y320927D02*
G03X100187Y320927I-197J0D01*
G54D19*
G01X535738Y178722D02*
X615738Y178722D01*
X615738Y614352*
X535738Y100966D02*
X535738Y178722D01*
X99990Y99982D02*
X535738Y99982D01*
X99990Y614352D02*
X99990Y99982D01*
X615738Y614352D02*
X99990Y614352D01*
G54D28*
X187755Y134514D03*
X187755Y124514D03*
X197755Y134514D03*
X197755Y124514D03*
X207755Y134514D03*
X207755Y124514D03*
X217755Y134514D03*
X217755Y124514D03*
X227755Y134514D03*
X227755Y124514D03*
X237755Y134514D03*
X237755Y124514D03*
X247755Y134514D03*
X247755Y124514D03*
X257755Y134514D03*
X257755Y124514D03*
X267755Y134514D03*
X267755Y124514D03*
X277755Y134514D03*
X277755Y124514D03*
X287755Y134514D03*
X287755Y124514D03*
X297755Y134514D03*
X297755Y124514D03*
X307755Y134514D03*
X307755Y124514D03*
X317755Y134514D03*
X317755Y124514D03*
X327755Y134514D03*
X327755Y124514D03*
X337755Y134514D03*
X337755Y124514D03*
X347755Y134514D03*
X347755Y124514D03*
G54D29*
X152755Y129514D03*
X382755Y129514D03*
G54D31*
X122709Y529509D03*
X357706Y584520D03*
X592702Y529512D03*
X592694Y197034D03*
X357693Y197039D03*
X122708Y139515D03*
G54D32*
X403155Y505164D03*
X403155Y518664D03*
X388155Y505164D03*
X388155Y518664D03*
X373155Y505164D03*
X373155Y518664D03*
X358155Y505164D03*
X358155Y518664D03*
X343155Y505164D03*
X343155Y518664D03*
X328155Y505164D03*
X328155Y518664D03*
X313155Y505164D03*
X313155Y518664D03*
X298155Y505164D03*
X298155Y518664D03*
X283155Y505164D03*
X283155Y518664D03*
X418155Y505164D03*
X418155Y518664D03*
X433155Y505164D03*
X433155Y518664D03*
X268155Y505164D03*
X268155Y518664D03*
X239905Y501914D03*
X226405Y501914D03*
X239905Y486914D03*
X226405Y486914D03*
X239905Y471914D03*
X226405Y471914D03*
X239905Y456914D03*
X226405Y456914D03*
X479905Y501914D03*
X466405Y501914D03*
X479905Y486914D03*
X466405Y486914D03*
X479905Y471914D03*
X466405Y471914D03*
X479905Y456914D03*
X466405Y456914D03*
X189905Y346914D03*
X176405Y346914D03*
X189905Y361914D03*
X176405Y361914D03*
X189905Y376914D03*
X176405Y376914D03*
X189905Y391914D03*
X176405Y391914D03*
X189905Y406914D03*
X176405Y406914D03*
X189905Y421914D03*
X176405Y421914D03*
X189905Y436914D03*
X176405Y436914D03*
X189905Y451914D03*
X176405Y451914D03*
X524905Y346914D03*
X511405Y346914D03*
X524905Y361914D03*
X511405Y361914D03*
X524905Y376914D03*
X511405Y376914D03*
X524905Y391914D03*
X511405Y391914D03*
X524905Y406914D03*
X511405Y406914D03*
X524905Y421914D03*
X511405Y421914D03*
X524905Y436914D03*
X511405Y436914D03*
X524905Y451914D03*
X511405Y451914D03*
X113155Y575164D03*
X113155Y588664D03*
X128155Y575164D03*
X128155Y588664D03*
X143155Y575164D03*
X143155Y588664D03*
X158155Y575164D03*
X158155Y588664D03*
X173155Y575164D03*
X173155Y588664D03*
X188155Y575164D03*
X188155Y588664D03*
X203155Y575164D03*
X203155Y588664D03*
X218155Y575164D03*
X218155Y588664D03*
X233155Y575164D03*
X233155Y588664D03*
X248155Y575164D03*
X248155Y588664D03*
X263155Y575164D03*
X263155Y588664D03*
X278155Y575164D03*
X278155Y588664D03*
X293155Y575164D03*
X293155Y588664D03*
X308155Y575164D03*
X308155Y588664D03*
X417755Y122764D03*
X417755Y136264D03*
X432755Y122764D03*
X432755Y136264D03*
X447755Y122764D03*
X447755Y136264D03*
X462755Y122764D03*
X462755Y136264D03*
X477755Y122764D03*
X477755Y136264D03*
X492755Y122764D03*
X492755Y136264D03*
X507755Y122764D03*
X507755Y136264D03*
X522755Y122764D03*
X522755Y136264D03*
G54D33*
X140755Y211514D02*
X144755Y211514D01*
X140755Y232514D02*
X144755Y232514D01*
X180755Y211514D02*
X184755Y211514D01*
X180755Y232514D02*
X184755Y232514D01*
X220755Y211514D02*
X224755Y211514D01*
X220755Y232514D02*
X224755Y232514D01*
X260755Y211514D02*
X264755Y211514D01*
X260755Y232514D02*
X264755Y232514D01*
G54D34*
X130255Y172191D02*
X130255Y181837D01*
X130255Y261758D02*
X130255Y271404D01*
X114507Y172191D02*
X114507Y181837D01*
X114507Y261758D02*
X114507Y271404D01*
X170255Y172191D02*
X170255Y181837D01*
X170255Y261758D02*
X170255Y271404D01*
X154507Y172191D02*
X154507Y181837D01*
X154507Y261758D02*
X154507Y271404D01*
X210255Y172191D02*
X210255Y181837D01*
X210255Y261758D02*
X210255Y271404D01*
X194507Y172191D02*
X194507Y181837D01*
X194507Y261758D02*
X194507Y271404D01*
X250255Y172191D02*
X250255Y181837D01*
X250255Y261758D02*
X250255Y271404D01*
X234507Y172191D02*
X234507Y181837D01*
X234507Y261758D02*
X234507Y271404D01*
G54D35*
X300255Y159554D02*
X300255Y189475D01*
X315255Y159554D02*
X315255Y189475D01*
X330255Y159554D02*
X330255Y189475D01*
X385255Y159554D02*
X385255Y189475D01*
X400255Y159554D02*
X400255Y189475D01*
X415255Y159554D02*
X415255Y189475D01*
X570255Y224554D02*
X570255Y254475D01*
X587755Y224554D02*
X587755Y254475D01*
G54D36*
X229689Y317028D03*
X485682Y317032D03*
G74*
X0Y0D02*
M02*
