*
*
G04 PADS Layout (Build Number 2007.42.1) generated Gerber (RS-274-X) file*
G04 PC Version=2.1*
*
%IN "1811v4.pcb"*%
*
%MOIN*%
*
%FSLAX35Y35*%
*
*
*
*
G04 PC Standard Apertures*
*
*
G04 Thermal Relief Aperture macro.*
%AMTER*
1,1,$1,0,0*
1,0,$1-$2,0,0*
21,0,$3,$4,0,0,45*
21,0,$3,$4,0,0,135*
%
*
*
G04 Annular Aperture macro.*
%AMANN*
1,1,$1,0,0*
1,0,$2,0,0*
%
*
*
G04 Odd Aperture macro.*
%AMODD*
1,1,$1,0,0*
1,0,$1-0.005,0,0*
%
*
*
G04 PC Custom Aperture Macros*
*
*
*
*
*
*
G04 PC Aperture Table*
*
%ADD010C,0.001*%
%ADD019C,0.00394*%
%ADD021R,0.06X0.06*%
%ADD028C,0.07299*%
%ADD029C,0.1163*%
%ADD030C,0.187*%
%ADD031C,0.121*%
*
*
*
*
G04 PC Circuitry*
G04 Layer Name 1811v4.pcb - circuitry*
%LPD*%
*
*
G04 PC Custom Flashes*
G04 Layer Name 1811v4.pcb - flashes*
%LPD*%
*
*
G04 PC Circuitry*
G04 Layer Name 1811v4.pcb - circuitry*
%LPD*%
*
G54D10*
G01X100187Y218683D02*
G75*
G03X100187Y218683I-197J0D01*
G01X100187Y320927D02*
G03X100187Y320927I-197J0D01*
G54D19*
G01X535738Y178722D02*
X615738Y178722D01*
X615738Y614352*
X535738Y100966D02*
X535738Y178722D01*
X99990Y99982D02*
X535738Y99982D01*
X99990Y614352D02*
X99990Y99982D01*
X615738Y614352D02*
X99990Y614352D01*
G54D21*
X186014Y345809D02*
X187014Y345809D01*
X195014Y345809D02*
X196014Y345809D01*
X166329Y345809D02*
X167329Y345809D01*
X175329Y345809D02*
X176329Y345809D01*
X146644Y345809D02*
X147644Y345809D01*
X155644Y345809D02*
X156644Y345809D01*
X520659Y345809D02*
X521659Y345809D01*
X529659Y345809D02*
X530659Y345809D01*
X540344Y345809D02*
X541344Y345809D01*
X549344Y345809D02*
X550344Y345809D01*
X560029Y345809D02*
X561029Y345809D01*
X569029Y345809D02*
X570029Y345809D01*
X147825Y361950D02*
X148825Y361950D01*
X156825Y361950D02*
X157825Y361950D01*
X167903Y362344D02*
X168903Y362344D01*
X176903Y362344D02*
X177903Y362344D01*
X187588Y362344D02*
X188588Y362344D01*
X196588Y362344D02*
X197588Y362344D01*
X150581Y378092D02*
X151581Y378092D01*
X159581Y378092D02*
X160581Y378092D01*
X170659Y378092D02*
X171659Y378092D01*
X179659Y378092D02*
X180659Y378092D01*
X190738Y378486D02*
X191738Y378486D01*
X199738Y378486D02*
X200738Y378486D01*
X195463Y394234D02*
X196463Y394234D01*
X204463Y394234D02*
X205463Y394234D01*
X174596Y393840D02*
X175596Y393840D01*
X183596Y393840D02*
X184596Y393840D01*
X154124Y393840D02*
X155124Y393840D01*
X163124Y393840D02*
X164124Y393840D01*
X159242Y409194D02*
X160242Y409194D01*
X168242Y409194D02*
X169242Y409194D01*
X201762Y409194D02*
X202762Y409194D01*
X210762Y409194D02*
X211762Y409194D01*
X165541Y424155D02*
X166541Y424155D01*
X174541Y424155D02*
X175541Y424155D01*
X187195Y424155D02*
X188195Y424155D01*
X196195Y424155D02*
X197195Y424155D01*
X209636Y423761D02*
X210636Y423761D01*
X218636Y423761D02*
X219636Y423761D01*
X218691Y437541D02*
X219691Y437541D01*
X227691Y437541D02*
X228691Y437541D01*
X195463Y438328D02*
X196463Y438328D01*
X204463Y438328D02*
X205463Y438328D01*
X172628Y438722D02*
X173628Y438722D01*
X181628Y438722D02*
X182628Y438722D01*
X229321Y450139D02*
X230321Y450139D01*
X238321Y450139D02*
X239321Y450139D01*
X204911Y451714D02*
X205911Y451714D01*
X213911Y451714D02*
X214911Y451714D01*
X181289Y452502D02*
X182289Y452502D01*
X190289Y452502D02*
X191289Y452502D01*
X190738Y465887D02*
X191738Y465887D01*
X199738Y465887D02*
X200738Y465887D01*
X215148Y464313D02*
X216148Y464313D01*
X224148Y464313D02*
X225148Y464313D01*
X240738Y461950D02*
X241738Y461950D01*
X249738Y461950D02*
X250738Y461950D01*
X258337Y467187D02*
X258337Y468187D01*
X258337Y476187D02*
X258337Y477187D01*
X226959Y475730D02*
X227959Y475730D01*
X235959Y475730D02*
X236959Y475730D01*
X201368Y478092D02*
X202368Y478092D01*
X210368Y478092D02*
X211368Y478092D01*
X212785Y489509D02*
X213785Y489509D01*
X221785Y489509D02*
X222785Y489509D01*
X239163Y486360D02*
X240163Y486360D01*
X248163Y486360D02*
X249163Y486360D01*
X272116Y476242D02*
X272116Y477242D01*
X272116Y485242D02*
X272116Y486242D01*
X225384Y500139D02*
X226384Y500139D01*
X234384Y500139D02*
X235384Y500139D01*
X257549Y500415D02*
X257549Y499415D01*
X257549Y491415D02*
X257549Y490415D01*
X286683Y494116D02*
X286683Y493116D01*
X286683Y485116D02*
X286683Y484116D01*
X271722Y508683D02*
X271722Y507683D01*
X271722Y499683D02*
X271722Y498683D01*
X238376Y509588D02*
X239376Y509588D01*
X247376Y509588D02*
X248376Y509588D01*
X257155Y523250D02*
X257155Y522250D01*
X257155Y514250D02*
X257155Y513250D01*
X271722Y530730D02*
X271722Y529730D01*
X271722Y521730D02*
X271722Y520730D01*
X286683Y515769D02*
X286683Y514769D01*
X286683Y506769D02*
X286683Y505769D01*
X302037Y500415D02*
X302037Y499415D01*
X302037Y491415D02*
X302037Y490415D01*
X302037Y521281D02*
X302037Y520281D01*
X302037Y512281D02*
X302037Y511281D01*
X286683Y536635D02*
X286683Y535635D01*
X286683Y527635D02*
X286683Y526635D01*
X302037Y541754D02*
X302037Y540754D01*
X302037Y532754D02*
X302037Y531754D01*
X317785Y545691D02*
X317785Y544691D01*
X317785Y536691D02*
X317785Y535691D01*
X317785Y525612D02*
X317785Y524612D01*
X317785Y516612D02*
X317785Y515612D01*
X317785Y505139D02*
X317785Y504139D01*
X317785Y496139D02*
X317785Y495139D01*
X333533Y508289D02*
X333533Y507289D01*
X333533Y499289D02*
X333533Y498289D01*
X333927Y528368D02*
X333927Y527368D01*
X333927Y519368D02*
X333927Y518368D01*
X333927Y548053D02*
X333927Y547053D01*
X333927Y539053D02*
X333927Y538053D01*
X350069Y549234D02*
X350069Y548234D01*
X350069Y540234D02*
X350069Y539234D01*
X350069Y529549D02*
X350069Y528549D01*
X350069Y520549D02*
X350069Y519549D01*
X350069Y509864D02*
X350069Y508864D01*
X350069Y500864D02*
X350069Y499864D01*
X366211Y549234D02*
X366211Y548234D01*
X366211Y540234D02*
X366211Y539234D01*
X366604Y529549D02*
X366604Y528549D01*
X366604Y520549D02*
X366604Y519549D01*
X366604Y509864D02*
X366604Y508864D01*
X366604Y500864D02*
X366604Y499864D01*
X382746Y508289D02*
X382746Y507289D01*
X382746Y499289D02*
X382746Y498289D01*
X382746Y528368D02*
X382746Y527368D01*
X382746Y519368D02*
X382746Y518368D01*
X382746Y548053D02*
X382746Y547053D01*
X382746Y539053D02*
X382746Y538053D01*
X398494Y545691D02*
X398494Y544691D01*
X398494Y536691D02*
X398494Y535691D01*
X398888Y525612D02*
X398888Y524612D01*
X398888Y516612D02*
X398888Y515612D01*
X398888Y505139D02*
X398888Y504139D01*
X398888Y496139D02*
X398888Y495139D01*
X414636Y500415D02*
X414636Y499415D01*
X414636Y491415D02*
X414636Y490415D01*
X414636Y521281D02*
X414636Y520281D01*
X414636Y512281D02*
X414636Y511281D01*
X414636Y541754D02*
X414636Y540754D01*
X414636Y532754D02*
X414636Y531754D01*
X558848Y361950D02*
X559848Y361950D01*
X567848Y361950D02*
X568848Y361950D01*
X538770Y361950D02*
X539770Y361950D01*
X547770Y361950D02*
X548770Y361950D01*
X519085Y362344D02*
X520085Y362344D01*
X528085Y362344D02*
X529085Y362344D01*
X515935Y378486D02*
X516935Y378486D01*
X524935Y378486D02*
X525935Y378486D01*
X536014Y378092D02*
X537014Y378092D01*
X545014Y378092D02*
X546014Y378092D01*
X556092Y378092D02*
X557092Y378092D01*
X565092Y378092D02*
X566092Y378092D01*
X552155Y393840D02*
X553155Y393840D01*
X561155Y393840D02*
X562155Y393840D01*
X531683Y393840D02*
X532683Y393840D01*
X540683Y393840D02*
X541683Y393840D01*
X510817Y394234D02*
X511817Y394234D01*
X519817Y394234D02*
X520817Y394234D01*
X504518Y409194D02*
X505518Y409194D01*
X513518Y409194D02*
X514518Y409194D01*
X526171Y409194D02*
X527171Y409194D01*
X535171Y409194D02*
X536171Y409194D01*
X547431Y409194D02*
X548431Y409194D01*
X556431Y409194D02*
X557431Y409194D01*
X541132Y424155D02*
X542132Y424155D01*
X550132Y424155D02*
X551132Y424155D01*
X519478Y424155D02*
X520478Y424155D01*
X528478Y424155D02*
X529478Y424155D01*
X497037Y423761D02*
X498037Y423761D01*
X506037Y423761D02*
X507037Y423761D01*
X487982Y437541D02*
X488982Y437541D01*
X496982Y437541D02*
X497982Y437541D01*
X511211Y438328D02*
X512211Y438328D01*
X520211Y438328D02*
X521211Y438328D01*
X533651Y438722D02*
X534651Y438722D01*
X542651Y438722D02*
X543651Y438722D01*
X525384Y452502D02*
X526384Y452502D01*
X534384Y452502D02*
X535384Y452502D01*
X501762Y451714D02*
X502762Y451714D01*
X510762Y451714D02*
X511762Y451714D01*
X477352Y450139D02*
X478352Y450139D01*
X486352Y450139D02*
X487352Y450139D01*
X465935Y461950D02*
X466935Y461950D01*
X474935Y461950D02*
X475935Y461950D01*
X491132Y464313D02*
X492132Y464313D01*
X500132Y464313D02*
X501132Y464313D01*
X515541Y465887D02*
X516541Y465887D01*
X524541Y465887D02*
X525541Y465887D01*
X505305Y478092D02*
X506305Y478092D01*
X514305Y478092D02*
X515305Y478092D01*
X479714Y475730D02*
X480714Y475730D01*
X488714Y475730D02*
X489714Y475730D01*
X457943Y477187D02*
X457943Y476187D01*
X457943Y468187D02*
X457943Y467187D01*
X444557Y486242D02*
X444557Y485242D01*
X444557Y477242D02*
X444557Y476242D01*
X467116Y486360D02*
X468116Y486360D01*
X476116Y486360D02*
X477116Y486360D01*
X493888Y489509D02*
X494888Y489509D01*
X502888Y489509D02*
X503888Y489509D01*
X429990Y494116D02*
X429990Y493116D01*
X429990Y485116D02*
X429990Y484116D01*
X429990Y515769D02*
X429990Y514769D01*
X429990Y506769D02*
X429990Y505769D01*
X429990Y536635D02*
X429990Y535635D01*
X429990Y527635D02*
X429990Y526635D01*
X444951Y530730D02*
X444951Y529730D01*
X444951Y521730D02*
X444951Y520730D01*
X444951Y508683D02*
X444951Y507683D01*
X444951Y499683D02*
X444951Y498683D01*
X481289Y500139D02*
X482289Y500139D01*
X490289Y500139D02*
X491289Y500139D01*
X459518Y523250D02*
X459518Y522250D01*
X459518Y514250D02*
X459518Y513250D01*
X458730Y500415D02*
X458730Y499415D01*
X458730Y491415D02*
X458730Y490415D01*
X468297Y509588D02*
X469297Y509588D01*
X477297Y509588D02*
X478297Y509588D01*
X422644Y111009D02*
X422644Y112009D01*
X422644Y120009D02*
X422644Y121009D01*
X437644Y111009D02*
X437644Y112009D01*
X437644Y120009D02*
X437644Y121009D01*
X452644Y111009D02*
X452644Y112009D01*
X452644Y120009D02*
X452644Y121009D01*
X467644Y111009D02*
X467644Y112009D01*
X467644Y120009D02*
X467644Y121009D01*
X482644Y111009D02*
X482644Y112009D01*
X482644Y120009D02*
X482644Y121009D01*
X497644Y111009D02*
X497644Y112009D01*
X497644Y120009D02*
X497644Y121009D01*
X512644Y111009D02*
X512644Y112009D01*
X512644Y120009D02*
X512644Y121009D01*
X527644Y111009D02*
X527644Y112009D01*
X527644Y120009D02*
X527644Y121009D01*
X527644Y133509D02*
X527644Y134509D01*
X527644Y142509D02*
X527644Y143509D01*
X512644Y133509D02*
X512644Y134509D01*
X512644Y142509D02*
X512644Y143509D01*
X497644Y133509D02*
X497644Y134509D01*
X497644Y142509D02*
X497644Y143509D01*
X482644Y133509D02*
X482644Y134509D01*
X482644Y142509D02*
X482644Y143509D01*
X467644Y133509D02*
X467644Y134509D01*
X467644Y142509D02*
X467644Y143509D01*
X452644Y133509D02*
X452644Y134509D01*
X452644Y142509D02*
X452644Y143509D01*
X437644Y133509D02*
X437644Y134509D01*
X437644Y142509D02*
X437644Y143509D01*
X422644Y133509D02*
X422644Y134509D01*
X422644Y142509D02*
X422644Y143509D01*
X422644Y156009D02*
X422644Y157009D01*
X422644Y165009D02*
X422644Y166009D01*
X437644Y156009D02*
X437644Y157009D01*
X437644Y165009D02*
X437644Y166009D01*
X452644Y156009D02*
X452644Y157009D01*
X452644Y165009D02*
X452644Y166009D01*
X467644Y156009D02*
X467644Y157009D01*
X467644Y165009D02*
X467644Y166009D01*
X482644Y156009D02*
X482644Y157009D01*
X482644Y165009D02*
X482644Y166009D01*
X497644Y156009D02*
X497644Y157009D01*
X497644Y165009D02*
X497644Y166009D01*
X512644Y156009D02*
X512644Y157009D01*
X512644Y165009D02*
X512644Y166009D01*
X527644Y156009D02*
X527644Y157009D01*
X527644Y165009D02*
X527644Y166009D01*
X108155Y556914D02*
X108155Y557914D01*
X108155Y565914D02*
X108155Y566914D01*
X123155Y556914D02*
X123155Y557914D01*
X123155Y565914D02*
X123155Y566914D01*
X138155Y556914D02*
X138155Y557914D01*
X138155Y565914D02*
X138155Y566914D01*
X153155Y556914D02*
X153155Y557914D01*
X153155Y565914D02*
X153155Y566914D01*
X168155Y556914D02*
X168155Y557914D01*
X168155Y565914D02*
X168155Y566914D01*
X183155Y556914D02*
X183155Y557914D01*
X183155Y565914D02*
X183155Y566914D01*
X198155Y556914D02*
X198155Y557914D01*
X198155Y565914D02*
X198155Y566914D01*
X213155Y556914D02*
X213155Y557914D01*
X213155Y565914D02*
X213155Y566914D01*
X228155Y556914D02*
X228155Y557914D01*
X228155Y565914D02*
X228155Y566914D01*
X243155Y556914D02*
X243155Y557914D01*
X243155Y565914D02*
X243155Y566914D01*
X258155Y556914D02*
X258155Y557914D01*
X258155Y565914D02*
X258155Y566914D01*
X273155Y556914D02*
X273155Y557914D01*
X273155Y565914D02*
X273155Y566914D01*
X288155Y556914D02*
X288155Y557914D01*
X288155Y565914D02*
X288155Y566914D01*
X303155Y556914D02*
X303155Y557914D01*
X303155Y565914D02*
X303155Y566914D01*
X303155Y576914D02*
X303155Y577914D01*
X303155Y585914D02*
X303155Y586914D01*
X288155Y576914D02*
X288155Y577914D01*
X288155Y585914D02*
X288155Y586914D01*
X273155Y576914D02*
X273155Y577914D01*
X273155Y585914D02*
X273155Y586914D01*
X258155Y576914D02*
X258155Y577914D01*
X258155Y585914D02*
X258155Y586914D01*
X243155Y576914D02*
X243155Y577914D01*
X243155Y585914D02*
X243155Y586914D01*
X228155Y576914D02*
X228155Y577914D01*
X228155Y585914D02*
X228155Y586914D01*
X213155Y576914D02*
X213155Y577914D01*
X213155Y585914D02*
X213155Y586914D01*
X198155Y576914D02*
X198155Y577914D01*
X198155Y585914D02*
X198155Y586914D01*
X183155Y576914D02*
X183155Y577914D01*
X183155Y585914D02*
X183155Y586914D01*
X168155Y576914D02*
X168155Y577914D01*
X168155Y585914D02*
X168155Y586914D01*
X153155Y576914D02*
X153155Y577914D01*
X153155Y585914D02*
X153155Y586914D01*
X138155Y576914D02*
X138155Y577914D01*
X138155Y585914D02*
X138155Y586914D01*
X123155Y576914D02*
X123155Y577914D01*
X123155Y585914D02*
X123155Y586914D01*
X108155Y576914D02*
X108155Y577914D01*
X108155Y585914D02*
X108155Y586914D01*
X108155Y596914D02*
X108155Y597914D01*
X108155Y605914D02*
X108155Y606914D01*
X123155Y596914D02*
X123155Y597914D01*
X123155Y605914D02*
X123155Y606914D01*
X138155Y596914D02*
X138155Y597914D01*
X138155Y605914D02*
X138155Y606914D01*
X153155Y596914D02*
X153155Y597914D01*
X153155Y605914D02*
X153155Y606914D01*
X168155Y596914D02*
X168155Y597914D01*
X168155Y605914D02*
X168155Y606914D01*
X183155Y596914D02*
X183155Y597914D01*
X183155Y605914D02*
X183155Y606914D01*
X198155Y596914D02*
X198155Y597914D01*
X198155Y605914D02*
X198155Y606914D01*
X213155Y596914D02*
X213155Y597914D01*
X213155Y605914D02*
X213155Y606914D01*
X228155Y596914D02*
X228155Y597914D01*
X228155Y605914D02*
X228155Y606914D01*
X243155Y596914D02*
X243155Y597914D01*
X243155Y605914D02*
X243155Y606914D01*
X258155Y596914D02*
X258155Y597914D01*
X258155Y605914D02*
X258155Y606914D01*
X273155Y596914D02*
X273155Y597914D01*
X273155Y605914D02*
X273155Y606914D01*
X288155Y596914D02*
X288155Y597914D01*
X288155Y605914D02*
X288155Y606914D01*
X303155Y596914D02*
X303155Y597914D01*
X303155Y605914D02*
X303155Y606914D01*
X182755Y409514D02*
X183755Y409514D01*
X191755Y409514D02*
X192755Y409514D01*
G54D28*
X187755Y134514D03*
X187755Y124514D03*
X197755Y134514D03*
X197755Y124514D03*
X207755Y134514D03*
X207755Y124514D03*
X217755Y134514D03*
X217755Y124514D03*
X227755Y134514D03*
X227755Y124514D03*
X237755Y134514D03*
X237755Y124514D03*
X247755Y134514D03*
X247755Y124514D03*
X257755Y134514D03*
X257755Y124514D03*
X267755Y134514D03*
X267755Y124514D03*
X277755Y134514D03*
X277755Y124514D03*
X287755Y134514D03*
X287755Y124514D03*
X297755Y134514D03*
X297755Y124514D03*
X307755Y134514D03*
X307755Y124514D03*
X317755Y134514D03*
X317755Y124514D03*
X327755Y134514D03*
X327755Y124514D03*
X337755Y134514D03*
X337755Y124514D03*
X347755Y134514D03*
X347755Y124514D03*
G54D29*
X152755Y129514D03*
X382755Y129514D03*
G54D30*
X229689Y317028D03*
X485682Y317032D03*
G54D31*
X122709Y529509D03*
X357706Y584520D03*
X592702Y529512D03*
X592694Y197034D03*
X357693Y197039D03*
X122708Y139515D03*
G74*
X0Y0D02*
M02*
