*
*
G04 PADS Layout (Build Number 2007.42.1) generated Gerber (RS-274-X) file*
G04 PC Version=2.1*
*
%IN "p487c.pcb"*%
*
%MOIN*%
*
%FSLAX35Y35*%
*
*
*
*
G04 PC Standard Apertures*
*
*
G04 Thermal Relief Aperture macro.*
%AMTER*
1,1,$1,0,0*
1,0,$1-$2,0,0*
21,0,$3,$4,0,0,45*
21,0,$3,$4,0,0,135*
%
*
*
G04 Annular Aperture macro.*
%AMANN*
1,1,$1,0,0*
1,0,$2,0,0*
%
*
*
G04 Odd Aperture macro.*
%AMODD*
1,1,$1,0,0*
1,0,$1-0.005,0,0*
%
*
*
G04 PC Custom Aperture Macros*
*
*
*
*
*
*
G04 PC Aperture Table*
*
%ADD011C,0.11811*%
%ADD013C,0.01*%
%ADD014C,0.05512*%
%ADD015C,0.055*%
%ADD020C,0.09449*%
%ADD021C,0.06496*%
*
*
*
*
G04 PC Copper Outlines (0)*
G04 Layer Name p487c.pcb - dark (0)*
%LPD*%
*
*
G04 PC Area=DRW16250187*
G75*
G36*
G01*
X509484Y147785D02*
X509244Y149145D01*
X508553Y150342D01*
X507494Y151230D01*
X506196Y151703D01*
X504814D01*
X503516Y151230D01*
X502458Y150342D01*
X501767Y149145D01*
X501527Y147785D01*
Y128304D01*
X501767Y126944D01*
X502458Y125747D01*
X503516Y124859D01*
X504814Y124386D01*
X506196D01*
X507494Y124859D01*
X508553Y125747D01*
X509244Y126944D01*
X509484Y128304D01*
Y147785D01*
G37*
G74*
*
*
G04 PC Copper Outlines (1)*
G04 Layer Name p487c.pcb - dark (1)*
%LPD*%
*
*
G04 PC Area=DRW34585715*
G75*
G36*
G01*
X509484Y128304D02*
X509244Y129664D01*
X508555Y130859D01*
X507498Y131748D01*
X506201Y132221D01*
X504821Y132223D01*
X503523Y131754D01*
X502464Y130869D01*
X501770Y129675D01*
X501527Y128316D01*
X501524Y127343D01*
X501086Y125447D01*
X500238Y123695D01*
X499022Y122175D01*
X497498Y120963D01*
X495744Y120120D01*
X493846Y119687D01*
X491900D01*
X490002Y120119D01*
X488248Y120961D01*
X486724Y122172D01*
X485507Y123691D01*
X484658Y125443D01*
X484219Y127339D01*
X484216Y128312D01*
X483972Y129671D01*
X483278Y130864D01*
X482218Y131748D01*
X480921Y132218D01*
X479540Y132215D01*
X478244Y131741D01*
X477188Y130853D01*
X476498Y129657D01*
X476259Y128298D01*
Y128284D01*
X476494Y125556D01*
X477174Y122904D01*
X478281Y120400D01*
X479783Y118111D01*
X481642Y116100D01*
X483805Y114422D01*
X486215Y113122D01*
X488805Y112235D01*
X491506Y111786D01*
X494244Y111787D01*
X496945Y112237D01*
X499535Y113125D01*
X501944Y114426D01*
X504107Y116106D01*
X505964Y118117D01*
X507466Y120407D01*
X508571Y122912D01*
X509250Y125564D01*
X509484Y128292D01*
Y128304D01*
G37*
G74*
*
*
G04 PC Copper Outlines (2)*
G04 Layer Name p487c.pcb - dark (2)*
%LPD*%
*
*
G04 PC Area=DRW57827877*
G75*
G36*
G01*
X496568Y138073D02*
X496328Y139434D01*
X495637Y140631D01*
X494579Y141519D01*
X493281Y141991D01*
X491899D01*
X490601Y141519D01*
X489542Y140631D01*
X488851Y139434D01*
X488611Y138073D01*
Y128687D01*
X488851Y127326D01*
X489542Y126129D01*
X490601Y125241D01*
X491899Y124769D01*
X493281D01*
X494579Y125241D01*
X495637Y126129D01*
X496328Y127326D01*
X496568Y128687D01*
Y138073D01*
G37*
G74*
*
*
G04 PC Copper Outlines (3)*
G04 Layer Name p487c.pcb - dark (3)*
%LPD*%
*
*
G04 PC Area=DRW57872796*
G75*
G36*
G01*
X496568Y138073D02*
Y138087D01*
X496333Y140815D01*
X495653Y143467D01*
X494546Y145972D01*
X493044Y148260D01*
X491185Y150271D01*
X489022Y151949D01*
X486612Y153250D01*
X484022Y154136D01*
X481321Y154585D01*
X478583D01*
X475882Y154134D01*
X473292Y153246D01*
X470883Y151945D01*
X468721Y150266D01*
X466863Y148254D01*
X465361Y145965D01*
X464256Y143460D01*
X463577Y140807D01*
X463343Y138079D01*
Y138067D01*
X463583Y136708D01*
X464272Y135512D01*
X465329Y134624D01*
X466626Y134150D01*
X468006Y134148D01*
X469304Y134618D01*
X470363Y135503D01*
X471057Y136696D01*
X471300Y138055D01*
X471303Y139028D01*
X471741Y140925D01*
X472589Y142677D01*
X473806Y144196D01*
X475329Y145408D01*
X477083Y146251D01*
X478981Y146684D01*
X480927D01*
X482825Y146253D01*
X484579Y145410D01*
X486103Y144199D01*
X487320Y142680D01*
X488169Y140929D01*
X488608Y139032D01*
X488611Y138059D01*
X488856Y136701D01*
X489549Y135508D01*
X490609Y134623D01*
X491907Y134154D01*
X493287Y134156D01*
X494583Y134630D01*
X495639Y135518D01*
X496329Y136714D01*
X496568Y138073D01*
G37*
G74*
*
*
G04 PC Copper Outlines (4)*
G04 Layer Name p487c.pcb - dark (4)*
%LPD*%
*
*
G04 PC Area=DRW8277526*
G75*
G36*
G01*
X484216Y137685D02*
X483976Y139046D01*
X483285Y140242D01*
X482227Y141130D01*
X480928Y141603D01*
X479546D01*
X478248Y141130D01*
X477190Y140242D01*
X476499Y139046D01*
X476259Y137685D01*
Y128298D01*
X476499Y126938D01*
X477190Y125741D01*
X478248Y124853D01*
X479546Y124380D01*
X480928D01*
X482227Y124853D01*
X483285Y125741D01*
X483976Y126938D01*
X484216Y128298D01*
Y137685D01*
G37*
G74*
*
*
G04 PC Copper Outlines (5)*
G04 Layer Name p487c.pcb - dark (5)*
%LPD*%
*
*
G04 PC Area=DRW36269473*
G75*
G36*
G01*
X471300Y138067D02*
X471060Y139428D01*
X470370Y140625D01*
X469311Y141513D01*
X468013Y141985D01*
X466631D01*
X465333Y141513D01*
X464274Y140625D01*
X463583Y139428D01*
X463343Y138067D01*
Y118587D01*
X463583Y117226D01*
X464274Y116029D01*
X465333Y115141D01*
X466631Y114669D01*
X468013D01*
X469311Y115141D01*
X470370Y116029D01*
X471060Y117226D01*
X471300Y118587D01*
Y138067D01*
G37*
G74*
*
*
G04 PC Copper Outlines (6)*
G04 Layer Name p487c.pcb - dark (6)*
%LPD*%
*
*
G04 PC Area=Custom_Thermal*
*
G04 PC Custom Flashes*
G04 Layer Name p487c.pcb - flashes*
%LPD*%
*
*
G04 PC Circuitry*
G04 Layer Name p487c.pcb - circuitry*
%LPD*%
*
G54D11*
G01X136378Y170000D03*
X487559D03*
X136378Y260000D03*
X487559D03*
X136378Y350000D03*
X487559D03*
X136378Y440000D03*
X487559D03*
X136378Y530000D03*
X487559D03*
X136378Y620000D03*
X487559D03*
X136378Y710000D03*
X487559D03*
X136378Y800000D03*
X487559D03*
X136378Y890000D03*
X487559D03*
G54D13*
X516143Y159668D02*
X506299D01*
X516143D02*
Y162736D01*
X515674Y163759*
X515205Y164100*
X514268Y164440*
X512862*
X511924Y164100*
X511455Y163759*
X510987Y162736*
Y159668*
X516143Y170918D02*
X509580Y167509D01*
Y172622*
X516143Y170918D02*
X506299D01*
X516143Y177395D02*
X515674Y176372D01*
X514737Y176031*
X513799*
X512862Y176372*
X512393Y177054*
X511924Y178418*
X511455Y179440*
X510518Y180122*
X509580Y180463*
X508174*
X507237Y180122*
X506768Y179781*
X506299Y178759*
Y177395*
X506768Y176372*
X507237Y176031*
X508174Y175690*
X509580*
X510518Y176031*
X511455Y176713*
X511924Y177736*
X512393Y179100*
X512862Y179781*
X513799Y180122*
X514737*
X515674Y179781*
X516143Y178759*
Y177395*
Y188304D02*
X506299Y184895D01*
X516143Y183531D02*
Y188304D01*
Y191372D02*
X506299D01*
Y195463*
X510518Y198531D02*
Y204668D01*
X513799Y208077D02*
X514268D01*
X515205Y208418*
X515674Y208759*
X516143Y209440*
Y210804*
X515674Y211486*
X515205Y211827*
X514268Y212168*
X513330*
X512393Y211827*
X510987Y211145*
X506299Y207736*
Y212509*
X501527Y147785D02*
Y128304D01*
G75*
G03X509484I3978J0D01*
G01Y147785*
G03X501527I-3979J-0*
G01X476259Y128284D02*
G03X509484Y128292I16612J59D01*
X501527Y128316I-3979J12*
G01X484216Y128312D02*
G03X501527Y128316I8655J31D01*
G01X484216Y128312D02*
G03X476259Y128284I-3979J-14D01*
G01X488611Y138073D02*
Y128687D01*
G03X496568I3979J-0*
G01Y138073*
G03X488611I-3978J0*
G01X496568Y138087D02*
G03X463343Y138079I-16612J-58D01*
X471300Y138055I3979J-12*
G01X488611Y138059D02*
G03X471300Y138055I-8655J-30D01*
G01X488611Y138059D02*
G03X496568Y138087I3979J14D01*
G01X484216Y128298D02*
Y137685D01*
G03X476259I-3979J-0*
G01Y128298*
G03X484216I3978J0*
G01X471300Y118587D02*
Y138067D01*
G03X463343I-3978J0*
G01Y118587*
G03X471300I3979J-0*
G01X100000Y100000D02*
X520000D01*
Y930000*
X100000*
Y100000*
G54D14*
X160000Y170000D02*
X150063Y179937D01*
Y880063*
X260000Y170000D02*
Y195000D01*
X220000Y170000D02*
Y195000D01*
X340000Y170000D02*
Y195000D01*
X300000Y170000D02*
Y195000D01*
X420000Y170000D02*
Y195000D01*
X380000Y170000D02*
Y195000D01*
X460000Y170000D02*
Y195000D01*
X180000Y234370D02*
X170063Y244307D01*
Y324461*
X200000Y260000D02*
X190063Y269937D01*
Y880063*
X180000Y260000D02*
Y285000D01*
X260000Y234370D02*
X250063Y244307D01*
Y324261*
X220000Y234370D02*
X210063Y244307D01*
Y324504*
X260000Y260000D02*
Y285000D01*
X220000Y260000D02*
Y285000D01*
X340000Y234370D02*
X330063Y244307D01*
Y324364*
X300000Y234370D02*
X290063Y244307D01*
Y324304*
X340000Y260000D02*
Y285000D01*
X300000Y260000D02*
Y285000D01*
X420000Y234370D02*
X410063Y244307D01*
Y324412*
X380000Y234370D02*
X370063Y244307D01*
Y324461*
X420000Y260000D02*
Y285000D01*
X380000Y260000D02*
Y285000D01*
X460000Y234370D02*
X450063Y244307D01*
Y324396*
X460000Y260000D02*
Y285000D01*
X180000Y324461D02*
X170063D01*
Y414315*
X220000Y324504D02*
X210063D01*
Y414137*
X180000Y324370D02*
Y324461D01*
Y350000D02*
Y375000D01*
X250063Y414143D02*
Y324261D01*
X260000*
Y324370*
X290063Y324304D02*
X300000D01*
Y324370*
X290063Y324304D02*
Y414332D01*
X220000Y324370D02*
Y324504D01*
X260000Y350000D02*
Y375000D01*
X240000Y350000D02*
X230063Y359937D01*
Y880063*
X220000Y350000D02*
Y375000D01*
X330063Y414202D02*
Y324364D01*
X340000*
Y324370*
X380000Y324461D02*
X370063D01*
Y414267*
X340000Y350000D02*
Y375000D01*
X300000Y350000D02*
Y375000D01*
X410063Y414539D02*
Y324412D01*
X420000*
X450063Y414236D02*
Y324396D01*
X460000*
X420000Y324370D02*
Y324412D01*
X380000Y324370D02*
Y324461D01*
X420000Y350000D02*
Y375000D01*
X380000Y350000D02*
Y375000D01*
X460000Y324370D02*
Y324396D01*
Y350000D02*
Y375000D01*
X210063Y414137D02*
X220000D01*
Y414370*
X210063Y414137D02*
Y504346D01*
X170063Y414315D02*
X180000D01*
Y414370*
X170063Y414315D02*
Y504178D01*
X180000Y440000D02*
Y465000D01*
X290063Y414332D02*
X300000D01*
Y414370*
X290063Y414332D02*
Y504368D01*
X250063Y504292D02*
Y414143D01*
X260000*
Y414370*
X280000Y440000D02*
X270063Y449937D01*
Y880063*
X260000Y440000D02*
Y465000D01*
X220000Y440000D02*
Y465000D01*
X370063Y414267D02*
X380000D01*
Y414370*
X370063Y414267D02*
Y504346D01*
X330063Y504325D02*
Y414202D01*
X340000*
Y414370*
Y440000D02*
Y465000D01*
X300000Y440000D02*
Y465000D01*
X450063Y504269D02*
Y414236D01*
X460000*
Y414370*
X410063Y504383D02*
Y414539D01*
X420000*
Y414370D02*
Y414539D01*
Y440000D02*
Y465000D01*
X380000Y440000D02*
Y465000D01*
X460000Y440000D02*
Y465000D01*
X170063Y504178D02*
X180000D01*
Y504370*
X170063Y504178D02*
Y594385D01*
X210063Y504346D02*
X220000D01*
Y504370*
X210063Y504346D02*
Y594228D01*
X180000Y530000D02*
Y555000D01*
X250063Y594303D02*
Y504292D01*
X260000*
Y504370*
X290063Y504368D02*
X300000D01*
Y504370*
X290063Y504368D02*
Y594116D01*
X260000Y530000D02*
Y555000D01*
X220000Y530000D02*
Y555000D01*
X330063Y594049D02*
Y504325D01*
X340000*
Y504370*
X370063Y504346D02*
X380000D01*
Y504370*
X370063Y504346D02*
Y594049D01*
X340000Y530000D02*
Y555000D01*
X320000Y530000D02*
X310063Y539937D01*
Y880063*
X300000Y530000D02*
Y555000D01*
X410063Y593990D02*
Y504383D01*
X420000*
X450063Y594142D02*
Y504269D01*
X460000*
Y504370*
X420000D02*
Y504383D01*
Y530000D02*
Y555000D01*
X380000Y530000D02*
Y555000D01*
X460000Y530000D02*
Y555000D01*
X210063Y594228D02*
X220000D01*
Y594370*
X210063Y594228D02*
Y684136D01*
X180000Y594385D02*
X170063D01*
Y684310*
X180000Y594370D02*
Y594385D01*
X290063Y594116D02*
X300000D01*
Y594370*
X290063Y594116D02*
Y684573D01*
X250063Y684390D02*
Y594303D01*
X260000*
Y594370*
X370063Y684355D02*
Y594049D01*
X380000*
Y594370*
X330063Y684114D02*
Y594049D01*
X340000*
Y594370*
X450063Y684431D02*
Y594142D01*
X460000*
Y594370*
X410063Y684431D02*
Y593990D01*
X420000*
Y594370*
X170063Y684310D02*
X180000D01*
Y684370*
X170063Y684310D02*
Y774123D01*
X210063Y684136D02*
X220000D01*
Y684370*
X210063Y684136D02*
Y774123D01*
X180000Y620000D02*
Y645000D01*
X250063Y774174D02*
Y684390D01*
X260000*
X290063Y774174D02*
Y684573D01*
X300000*
X260000Y684370D02*
Y684390D01*
Y620000D02*
Y645000D01*
X220000Y620000D02*
Y645000D01*
X330063Y774560D02*
Y684114D01*
X340000*
Y684370*
X370063Y684355D02*
X380000D01*
Y684370*
X370063Y684355D02*
Y774467D01*
X300000Y684370D02*
Y684573D01*
X360000Y620000D02*
X350063Y629937D01*
Y880063*
X340000Y620000D02*
Y645000D01*
X300000Y620000D02*
Y645000D01*
X410063Y774360D02*
Y684431D01*
X420000*
X450063Y774360D02*
Y684431D01*
X460000*
X420000Y684370D02*
Y684431D01*
Y620000D02*
Y645000D01*
X380000Y620000D02*
Y645000D01*
X460000Y684370D02*
Y684431D01*
Y620000D02*
Y645000D01*
X210063Y774123D02*
X220000D01*
Y774370*
X210063Y774123D02*
Y854433D01*
X220000Y864370*
X170063Y774123D02*
X180000D01*
Y774370*
X170063Y774123D02*
Y854433D01*
X180000Y864370*
Y710000D02*
Y735000D01*
X250063Y774174D02*
Y854433D01*
X260000Y864370*
X250063Y774174D02*
X260000D01*
Y774370*
X290063Y774174D02*
X300000D01*
Y774370*
X290063Y774174D02*
Y854433D01*
X300000Y864370*
X260000Y710000D02*
Y735000D01*
X220000Y710000D02*
Y735000D01*
X330063Y774560D02*
Y854433D01*
X340000Y864370*
X330063Y774560D02*
X340000D01*
X380000Y774467D02*
X370063D01*
Y854433*
X380000Y864370*
X340000Y774370D02*
Y774560D01*
Y710000D02*
Y735000D01*
X300000Y710000D02*
Y735000D01*
X410063Y774360D02*
Y854433D01*
X420000Y864370*
X410063Y774360D02*
X420000D01*
X420000D02*
Y774370D01*
X450063Y774360D02*
X460000D01*
X460000D02*
Y774370D01*
X450063Y774360D02*
Y854433D01*
X460000Y864370*
X380000Y774370D02*
Y774467D01*
X420000Y710000D02*
Y735000D01*
X400000Y710000D02*
X390063Y719937D01*
Y880063*
X380000Y710000D02*
Y735000D01*
X460000Y710000D02*
Y735000D01*
X180000Y800000D02*
Y825000D01*
X260000Y800000D02*
Y825000D01*
X220000Y800000D02*
Y825000D01*
X340000Y800000D02*
Y825000D01*
X300000Y800000D02*
Y825000D01*
X440000Y800000D02*
Y890000D01*
X420000Y800000D02*
Y825000D01*
X380000Y800000D02*
Y825000D01*
X460000Y800000D02*
Y825000D01*
X150063Y880063D02*
X160000Y890000D01*
X190063Y880063D02*
X200000Y890000D01*
X180000Y864370D02*
Y890000D01*
X230063Y880063D02*
X240000Y890000D01*
X270063Y880063D02*
X280000Y890000D01*
X260000Y864370D02*
Y890000D01*
X220000Y864370D02*
Y890000D01*
X310063Y880063D02*
X320000Y890000D01*
X350063Y880063D02*
X360000Y890000D01*
X340000Y864370D02*
Y890000D01*
X300000Y864370D02*
Y890000D01*
X390063Y880063D02*
X400000Y890000D01*
X420000Y864370D02*
Y890000D01*
X380000Y864370D02*
Y890000D01*
X460000Y864370D02*
Y890000D01*
G54D15*
X180000Y170000D02*
Y195000D01*
G54D20*
X160000Y170000D03*
X180000D03*
X200000D03*
X220000D03*
X240000D03*
X260000D03*
X280000D03*
X300000D03*
X320000D03*
X340000D03*
X360000D03*
X380000D03*
X400000D03*
X420000D03*
X440000D03*
X460000D03*
X160000Y260000D03*
X180000D03*
X200000D03*
X220000D03*
X240000D03*
X260000D03*
X280000D03*
X300000D03*
X320000D03*
X340000D03*
X360000D03*
X380000D03*
X400000D03*
X420000D03*
X440000D03*
X460000D03*
X160000Y350000D03*
X180000D03*
X200000D03*
X220000D03*
X240000D03*
X260000D03*
X280000D03*
X300000D03*
X320000D03*
X340000D03*
X360000D03*
X380000D03*
X400000D03*
X420000D03*
X440000D03*
X460000D03*
X160000Y440000D03*
X180000D03*
X200000D03*
X220000D03*
X240000D03*
X260000D03*
X280000D03*
X300000D03*
X320000D03*
X340000D03*
X360000D03*
X380000D03*
X400000D03*
X420000D03*
X440000D03*
X460000D03*
X160000Y530000D03*
X180000D03*
X200000D03*
X220000D03*
X240000D03*
X260000D03*
X280000D03*
X300000D03*
X320000D03*
X340000D03*
X360000D03*
X380000D03*
X400000D03*
X420000D03*
X440000D03*
X460000D03*
X160000Y620000D03*
X180000D03*
X200000D03*
X220000D03*
X240000D03*
X260000D03*
X280000D03*
X300000D03*
X320000D03*
X340000D03*
X360000D03*
X380000D03*
X400000D03*
X420000D03*
X440000D03*
X460000D03*
X160000Y710000D03*
X180000D03*
X200000D03*
X220000D03*
X240000D03*
X260000D03*
X280000D03*
X300000D03*
X320000D03*
X340000D03*
X360000D03*
X380000D03*
X400000D03*
X420000D03*
X440000D03*
X460000D03*
X160000Y800000D03*
X180000D03*
X200000D03*
X220000D03*
X240000D03*
X260000D03*
X280000D03*
X300000D03*
X320000D03*
X340000D03*
X360000D03*
X380000D03*
X400000D03*
X420000D03*
X440000D03*
X460000D03*
X160000Y890000D03*
X180000D03*
X200000D03*
X220000D03*
X240000D03*
X260000D03*
X280000D03*
X300000D03*
X320000D03*
X340000D03*
X360000D03*
X380000D03*
X400000D03*
X420000D03*
X440000D03*
X460000D03*
G54D21*
X180000Y195000D03*
Y234370D03*
X220000Y195000D03*
Y234370D03*
X260000Y195000D03*
Y234370D03*
X300000Y195000D03*
Y234370D03*
X340000Y195000D03*
Y234370D03*
X380000Y195000D03*
Y234370D03*
X420000Y195000D03*
Y234370D03*
X180000Y285000D03*
Y324370D03*
X220000Y285000D03*
Y324370D03*
X260000Y285000D03*
Y324370D03*
X300000Y285000D03*
Y324370D03*
X340000Y285000D03*
Y324370D03*
X380000Y285000D03*
Y324370D03*
X420000Y285000D03*
Y324370D03*
X460000Y285000D03*
Y324370D03*
Y375000D03*
Y414370D03*
X420000Y375000D03*
Y414370D03*
X380000Y375000D03*
Y414370D03*
X340000Y375000D03*
Y414370D03*
X300000Y375000D03*
Y414370D03*
X260000Y375000D03*
Y414370D03*
X220000Y375000D03*
Y414370D03*
X180000Y375000D03*
Y414370D03*
Y465000D03*
Y504370D03*
X220000Y465000D03*
Y504370D03*
X260000Y465000D03*
Y504370D03*
X300000Y465000D03*
Y504370D03*
X340000Y465000D03*
Y504370D03*
X380000Y465000D03*
Y504370D03*
X420000Y465000D03*
Y504370D03*
X460000Y465000D03*
Y504370D03*
Y555000D03*
Y594370D03*
X420000Y555000D03*
Y594370D03*
X380000Y555000D03*
Y594370D03*
X340000Y555000D03*
Y594370D03*
X300000Y555000D03*
Y594370D03*
X260000Y555000D03*
Y594370D03*
X220000Y555000D03*
Y594370D03*
X180000Y555000D03*
Y594370D03*
Y645000D03*
Y684370D03*
X220000Y645000D03*
Y684370D03*
X260000Y645000D03*
Y684370D03*
X300000Y645000D03*
Y684370D03*
X340000Y645000D03*
Y684370D03*
X380000Y645000D03*
Y684370D03*
X420000Y645000D03*
Y684370D03*
X460000Y645000D03*
Y684370D03*
Y735000D03*
Y774370D03*
X420000Y735000D03*
Y774370D03*
X380000Y735000D03*
Y774370D03*
X340000Y735000D03*
Y774370D03*
X300000Y735000D03*
Y774370D03*
X260000Y735000D03*
Y774370D03*
X220000Y735000D03*
Y774370D03*
X180000Y735000D03*
Y774370D03*
Y825000D03*
Y864370D03*
X220000Y825000D03*
Y864370D03*
X260000Y825000D03*
Y864370D03*
X300000Y825000D03*
Y864370D03*
X340000Y825000D03*
Y864370D03*
X380000Y825000D03*
Y864370D03*
X420000Y825000D03*
Y864370D03*
X460000Y825000D03*
Y864370D03*
Y195000D03*
Y234370D03*
G74*
X0Y0D02*
M02*
