*
*
G04 PADS Layout (Build Number 2007.42.1) generated Gerber (RS-274-X) file*
G04 PC Version=2.1*
*
%IN "p487c.pcb"*%
*
%MOIN*%
*
%FSLAX35Y35*%
*
*
*
*
G04 PC Standard Apertures*
*
*
G04 Thermal Relief Aperture macro.*
%AMTER*
1,1,$1,0,0*
1,0,$1-$2,0,0*
21,0,$3,$4,0,0,45*
21,0,$3,$4,0,0,135*
%
*
*
G04 Annular Aperture macro.*
%AMANN*
1,1,$1,0,0*
1,0,$2,0,0*
%
*
*
G04 Odd Aperture macro.*
%AMODD*
1,1,$1,0,0*
1,0,$1-0.005,0,0*
%
*
*
G04 PC Custom Aperture Macros*
*
*
*
*
*
*
G04 PC Aperture Table*
*
%ADD011C,0.11811*%
%ADD013C,0.01*%
%ADD014C,0.05512*%
%ADD020C,0.09449*%
%ADD021C,0.06496*%
*
*
*
*
G04 PC Copper Outlines (0)*
G04 Layer Name p487c.pcb - dark (0)*
%LPD*%
*
*
G04 PC Area=Custom_Thermal*
*
G04 PC Custom Flashes*
G04 Layer Name p487c.pcb - flashes*
%LPD*%
*
*
G04 PC Circuitry*
G04 Layer Name p487c.pcb - circuitry*
%LPD*%
*
G54D11*
G01X136378Y170000D03*
X487559D03*
X136378Y260000D03*
X487559D03*
X136378Y350000D03*
X487559D03*
X136378Y440000D03*
X487559D03*
X136378Y530000D03*
X487559D03*
X136378Y620000D03*
X487559D03*
X136378Y710000D03*
X487559D03*
X136378Y800000D03*
X487559D03*
X136378Y890000D03*
X487559D03*
G54D13*
X515498Y711820D02*
X505654D01*
X515498D02*
Y708752D01*
X515029Y707729*
X514560Y707388*
X513623Y707048*
X512217*
X511279Y707388*
X510810Y707729*
X510342Y708752*
Y711820*
X515498Y700570D02*
X508935Y703979D01*
Y698866*
X515498Y700570D02*
X505654D01*
X515498Y694093D02*
X515029Y695116D01*
X514092Y695457*
X513154*
X512217Y695116*
X511748Y694434*
X511279Y693070*
X510810Y692048*
X509873Y691366*
X508935Y691025*
X507529*
X506592Y691366*
X506123Y691707*
X505654Y692729*
Y694093*
X506123Y695116*
X506592Y695457*
X507529Y695798*
X508935*
X509873Y695457*
X510810Y694775*
X511279Y693752*
X511748Y692388*
X512217Y691707*
X513154Y691366*
X514092*
X515029Y691707*
X515498Y692729*
Y694093*
Y683184D02*
X505654Y686593D01*
X515498Y687957D02*
Y683184D01*
Y680116D02*
X505654D01*
X515498Y675343D02*
X508935Y680116D01*
X511279Y678411D02*
X505654Y675343D01*
X509873Y672275D02*
Y666138D01*
X513623Y663070D02*
X514092Y662388D01*
X515498Y661366*
X505654*
X100000Y100000D02*
X520000D01*
Y930000*
X100000*
Y100000*
G54D14*
X200000Y170000D02*
X210724Y159276D01*
X229276*
X240000Y170000*
X160000D02*
X170724Y159276D01*
X189276*
X200000Y170000*
X280000D02*
X290724Y159276D01*
X309276*
X320000Y170000*
X240000D02*
X250724Y159276D01*
X269276*
X280000Y170000*
X360000D02*
X370724Y159276D01*
X389276*
X400000Y170000*
X320000D02*
X330724Y159276D01*
X349276*
X360000Y170000*
X400000D02*
X410724Y159276D01*
X429276*
X440000Y170000*
X200000Y260000D02*
X210724Y249276D01*
X229276*
X240000Y260000*
X160000D02*
X170724Y249276D01*
X189276*
X200000Y260000*
X280000D02*
X290724Y249276D01*
X309276*
X320000Y260000*
X240000D02*
X250724Y249276D01*
X269276*
X280000Y260000*
X360000D02*
X370724Y249276D01*
X389276*
X400000Y260000*
X320000D02*
X330724Y249276D01*
X349276*
X360000Y260000*
X400000D02*
X410724Y249276D01*
X429276*
X440000Y260000*
X200000Y350000D02*
X210724Y339276D01*
X229276*
X240000Y350000*
X160000D02*
X170724Y339276D01*
X189276*
X200000Y350000*
X280000D02*
X290724Y339276D01*
X309276*
X320000Y350000*
X240000D02*
X250724Y339276D01*
X269276*
X280000Y350000*
X360000D02*
X370724Y339276D01*
X389276*
X400000Y350000*
X320000D02*
X330724Y339276D01*
X349276*
X360000Y350000*
X400000D02*
X410724Y339276D01*
X429276*
X440000Y350000*
X200000Y440000D02*
X210724Y429276D01*
X229276*
X240000Y440000*
X160000D02*
X170724Y429276D01*
X189276*
X200000Y440000*
X280000D02*
X290724Y429276D01*
X309276*
X320000Y440000*
X240000D02*
X250724Y429276D01*
X269276*
X280000Y440000*
X360000D02*
X370724Y429276D01*
X389276*
X400000Y440000*
X320000D02*
X330724Y429276D01*
X349276*
X360000Y440000*
X400000D02*
X410724Y429276D01*
X429276*
X440000Y440000*
X200000Y530000D02*
X210724Y519276D01*
X229276*
X240000Y530000*
X160000D02*
X170724Y519276D01*
X189276*
X200000Y530000*
X280000D02*
X290724Y519276D01*
X309276*
X320000Y530000*
X240000D02*
X250724Y519276D01*
X269276*
X280000Y530000*
X360000D02*
X370724Y519276D01*
X389276*
X400000Y530000*
X320000D02*
X330724Y519276D01*
X349276*
X360000Y530000*
X400000D02*
X410724Y519276D01*
X429276*
X440000Y530000*
X200000Y620000D02*
X210724Y609276D01*
X229276*
X240000Y620000*
X160000D02*
X170724Y609276D01*
X189276*
X200000Y620000*
X280000D02*
X290724Y609276D01*
X309276*
X320000Y620000*
X240000D02*
X250724Y609276D01*
X269276*
X280000Y620000*
X360000D02*
X370724Y609276D01*
X389276*
X400000Y620000*
X320000D02*
X330724Y609276D01*
X349276*
X360000Y620000*
X400000D02*
X410724Y609276D01*
X429276*
X440000Y620000*
X200000Y710000D02*
X210724Y699276D01*
X229276*
X240000Y710000*
X160000D02*
X170724Y699276D01*
X189276*
X200000Y710000*
X280000D02*
X290724Y699276D01*
X309276*
X320000Y710000*
X240000D02*
X250724Y699276D01*
X269276*
X280000Y710000*
X360000D02*
X370724Y699276D01*
X389276*
X400000Y710000*
X320000D02*
X330724Y699276D01*
X349276*
X360000Y710000*
X400000D02*
X410724Y699276D01*
X429276*
X440000Y710000*
X200000Y800000D02*
X210724Y789276D01*
X229276*
X240000Y800000*
X160000D02*
X170724Y789276D01*
X189276*
X200000Y800000*
X280000D02*
X290724Y789276D01*
X309276*
X320000Y800000*
X240000D02*
X250724Y789276D01*
X269276*
X280000Y800000*
X360000D02*
X370724Y789276D01*
X389276*
X400000Y800000*
X320000D02*
X330724Y789276D01*
X349276*
X360000Y800000*
X400000D02*
X410724Y789276D01*
X429276*
X440000Y800000*
G54D20*
X160000Y170000D03*
X180000D03*
X200000D03*
X220000D03*
X240000D03*
X260000D03*
X280000D03*
X300000D03*
X320000D03*
X340000D03*
X360000D03*
X380000D03*
X400000D03*
X420000D03*
X440000D03*
X460000D03*
X160000Y260000D03*
X180000D03*
X200000D03*
X220000D03*
X240000D03*
X260000D03*
X280000D03*
X300000D03*
X320000D03*
X340000D03*
X360000D03*
X380000D03*
X400000D03*
X420000D03*
X440000D03*
X460000D03*
X160000Y350000D03*
X180000D03*
X200000D03*
X220000D03*
X240000D03*
X260000D03*
X280000D03*
X300000D03*
X320000D03*
X340000D03*
X360000D03*
X380000D03*
X400000D03*
X420000D03*
X440000D03*
X460000D03*
X160000Y440000D03*
X180000D03*
X200000D03*
X220000D03*
X240000D03*
X260000D03*
X280000D03*
X300000D03*
X320000D03*
X340000D03*
X360000D03*
X380000D03*
X400000D03*
X420000D03*
X440000D03*
X460000D03*
X160000Y530000D03*
X180000D03*
X200000D03*
X220000D03*
X240000D03*
X260000D03*
X280000D03*
X300000D03*
X320000D03*
X340000D03*
X360000D03*
X380000D03*
X400000D03*
X420000D03*
X440000D03*
X460000D03*
X160000Y620000D03*
X180000D03*
X200000D03*
X220000D03*
X240000D03*
X260000D03*
X280000D03*
X300000D03*
X320000D03*
X340000D03*
X360000D03*
X380000D03*
X400000D03*
X420000D03*
X440000D03*
X460000D03*
X160000Y710000D03*
X180000D03*
X200000D03*
X220000D03*
X240000D03*
X260000D03*
X280000D03*
X300000D03*
X320000D03*
X340000D03*
X360000D03*
X380000D03*
X400000D03*
X420000D03*
X440000D03*
X460000D03*
X160000Y800000D03*
X180000D03*
X200000D03*
X220000D03*
X240000D03*
X260000D03*
X280000D03*
X300000D03*
X320000D03*
X340000D03*
X360000D03*
X380000D03*
X400000D03*
X420000D03*
X440000D03*
X460000D03*
X160000Y890000D03*
X180000D03*
X200000D03*
X220000D03*
X240000D03*
X260000D03*
X280000D03*
X300000D03*
X320000D03*
X340000D03*
X360000D03*
X380000D03*
X400000D03*
X420000D03*
X440000D03*
X460000D03*
G54D21*
X180000Y195000D03*
Y234370D03*
X220000Y195000D03*
Y234370D03*
X260000Y195000D03*
Y234370D03*
X300000Y195000D03*
Y234370D03*
X340000Y195000D03*
Y234370D03*
X380000Y195000D03*
Y234370D03*
X420000Y195000D03*
Y234370D03*
X180000Y285000D03*
Y324370D03*
X220000Y285000D03*
Y324370D03*
X260000Y285000D03*
Y324370D03*
X300000Y285000D03*
Y324370D03*
X340000Y285000D03*
Y324370D03*
X380000Y285000D03*
Y324370D03*
X420000Y285000D03*
Y324370D03*
X460000Y285000D03*
Y324370D03*
Y375000D03*
Y414370D03*
X420000Y375000D03*
Y414370D03*
X380000Y375000D03*
Y414370D03*
X340000Y375000D03*
Y414370D03*
X300000Y375000D03*
Y414370D03*
X260000Y375000D03*
Y414370D03*
X220000Y375000D03*
Y414370D03*
X180000Y375000D03*
Y414370D03*
Y465000D03*
Y504370D03*
X220000Y465000D03*
Y504370D03*
X260000Y465000D03*
Y504370D03*
X300000Y465000D03*
Y504370D03*
X340000Y465000D03*
Y504370D03*
X380000Y465000D03*
Y504370D03*
X420000Y465000D03*
Y504370D03*
X460000Y465000D03*
Y504370D03*
Y555000D03*
Y594370D03*
X420000Y555000D03*
Y594370D03*
X380000Y555000D03*
Y594370D03*
X340000Y555000D03*
Y594370D03*
X300000Y555000D03*
Y594370D03*
X260000Y555000D03*
Y594370D03*
X220000Y555000D03*
Y594370D03*
X180000Y555000D03*
Y594370D03*
Y645000D03*
Y684370D03*
X220000Y645000D03*
Y684370D03*
X260000Y645000D03*
Y684370D03*
X300000Y645000D03*
Y684370D03*
X340000Y645000D03*
Y684370D03*
X380000Y645000D03*
Y684370D03*
X420000Y645000D03*
Y684370D03*
X460000Y645000D03*
Y684370D03*
Y735000D03*
Y774370D03*
X420000Y735000D03*
Y774370D03*
X380000Y735000D03*
Y774370D03*
X340000Y735000D03*
Y774370D03*
X300000Y735000D03*
Y774370D03*
X260000Y735000D03*
Y774370D03*
X220000Y735000D03*
Y774370D03*
X180000Y735000D03*
Y774370D03*
Y825000D03*
Y864370D03*
X220000Y825000D03*
Y864370D03*
X260000Y825000D03*
Y864370D03*
X300000Y825000D03*
Y864370D03*
X340000Y825000D03*
Y864370D03*
X380000Y825000D03*
Y864370D03*
X420000Y825000D03*
Y864370D03*
X460000Y825000D03*
Y864370D03*
Y195000D03*
Y234370D03*
X0Y0D02*
M02*
