%
T1C.03346F197S55
X018Y0195
X018Y023437
X018Y0285
X018Y032437
X018Y0375
X018Y041437
X018Y0465
X018Y050437
X018Y0555
X018Y059437
X018Y0645
X018Y068437
X018Y0735
X018Y077437
X018Y0825
X018Y086437
X022Y086437
X022Y0825
X022Y077437
X022Y0735
X022Y068437
X022Y0645
X022Y059437
X022Y0555
X022Y050437
X022Y0465
X022Y041437
X022Y0375
X022Y032437
X022Y0285
X022Y023437
X022Y0195
X026Y0195
X026Y023437
X026Y0285
X026Y032437
X026Y0375
X026Y041437
X026Y0465
X026Y050437
X026Y0555
X026Y059437
X026Y0645
X026Y068437
X026Y0735
X026Y077437
X026Y0825
X026Y086437
X03Y086437
X03Y0825
X03Y077437
X03Y0735
X03Y068437
X03Y0645
X03Y059437
X03Y0555
X03Y050437
X03Y0465
X03Y041437
X03Y0375
X03Y032437
X03Y0285
X03Y023437
X03Y0195
X034Y0195
X038Y0195
X034Y023437
X038Y023437
X034Y0285
X038Y0285
X034Y032437
X038Y032437
X034Y0375
X038Y0375
X034Y041437
X038Y041437
X034Y0465
X038Y0465
X038Y050437
X034Y050437
X034Y0555
X038Y0555
X038Y059437
X034Y059437
X038Y0645
X034Y0645
X038Y068437
X034Y068437
X038Y0735
X034Y0735
X038Y077437
X034Y077437
X034Y0825
X038Y0825
X034Y086437
X038Y086437
X042Y086437
X042Y0825
X042Y077437
X042Y0735
X042Y068437
X042Y0645
X042Y059437
X042Y0555
X042Y050437
X042Y0465
X042Y041437
X042Y0375
X042Y032437
X042Y0285
X042Y023437
X042Y0195
X046Y0195
X046Y023437
X046Y0285
X046Y032437
X046Y0375
X046Y041437
X046Y0465
X046Y050437
X046Y0555
X046Y059437
X046Y0645
X046Y068437
X046Y0735
X046Y077437
X046Y0825
X046Y086437
T2C.05512F107S55
X016Y017
X018Y017
X016Y026
X018Y026
X016Y035
X018Y035
X016Y044
X018Y044
X016Y053
X018Y053
X016Y062
X018Y062
X016Y071
X018Y071
X016Y08
X018Y08
X016Y089
X018Y089
X02Y089
X022Y089
X02Y08
X022Y08
X02Y071
X022Y071
X022Y062
X02Y062
X022Y053
X02Y053
X022Y044
X02Y044
X022Y035
X02Y035
X022Y026
X02Y026
X022Y017
X02Y017
X024Y017
X026Y017
X028Y017
X024Y026
X028Y026
X026Y026
X026Y035
X024Y035
X028Y035
X024Y044
X028Y044
X026Y044
X028Y053
X026Y053
X024Y053
X026Y062
X028Y062
X024Y062
X024Y071
X026Y071
X028Y071
X026Y08
X024Y08
X028Y08
X026Y089
X024Y089
X028Y089
X03Y089
X032Y089
X03Y08
X032Y08
X03Y071
X032Y071
X032Y062
X03Y062
X032Y053
X03Y053
X032Y044
X03Y044
X03Y035
X032Y035
X03Y026
X032Y026
X03Y017
X032Y017
X034Y017
X036Y017
X038Y017
X034Y026
X036Y026
X038Y026
X036Y035
X034Y035
X038Y035
X034Y044
X036Y044
X038Y044
X034Y053
X038Y053
X036Y053
X034Y062
X036Y062
X038Y062
X036Y071
X038Y071
X034Y071
X034Y08
X036Y08
X038Y08
X034Y089
X036Y089
X038Y089
X04Y089
X042Y089
X04Y08
X042Y08
X04Y071
X042Y071
X04Y062
X042Y062
X04Y053
X042Y053
X042Y044
X04Y044
X042Y035
X04Y035
X04Y026
X042Y026
X042Y017
X04Y017
X046Y017
X044Y017
X044Y026
X046Y026
X044Y035
X046Y035
X044Y044
X046Y044
X044Y053
X046Y053
X046Y062
X044Y062
X046Y071
X044Y071
X046Y08
X044Y08
X044Y089
X046Y089
T3C.11811F069S658
X013638Y017
X013638Y026
X013638Y035
X013638Y044
X013638Y053
X013638Y062
X013638Y071
X013638Y08
X013638Y089
X048756Y089
X048756Y08
X048756Y071
X048756Y062
X048756Y053
X048756Y044
X048756Y035
X048756Y026
X048756Y017
M30
