*
*
G04 PADS Layout (Build Number 2007.42.1) generated Gerber (RS-274-X) file*
G04 PC Version=2.1*
*
%IN "tca-i_v6.pcb"*%
*
%MOIN*%
*
%FSLAX35Y35*%
*
*
*
*
G04 PC Standard Apertures*
*
*
G04 Thermal Relief Aperture macro.*
%AMTER*
1,1,$1,0,0*
1,0,$1-$2,0,0*
21,0,$3,$4,0,0,45*
21,0,$3,$4,0,0,135*
%
*
*
G04 Annular Aperture macro.*
%AMANN*
1,1,$1,0,0*
1,0,$2,0,0*
%
*
*
G04 Odd Aperture macro.*
%AMODD*
1,1,$1,0,0*
1,0,$1-0.005,0,0*
%
*
*
G04 PC Custom Aperture Macros*
*
*
*
*
*
*
G04 PC Aperture Table*
*
%ADD010C,0.06299*%
%ADD011C,0.1378*%
%ADD012C,0.11811*%
%ADD013C,0.15748*%
%ADD014C,0.06*%
%ADD015C,0.09843*%
%ADD016C,0.14961*%
%ADD017C,0.07874*%
%ADD018C,0.16142*%
%ADD019C,0.03543*%
%ADD020C,0.01*%
*
*
*
*
G04 PC Copper Outlines (0)*
G04 Layer Name tca-i_v6.pcb - dark (0)*
%LPD*%
*
*
G04 PC Area=Custom_Thermal*
*
G04 PC Custom Flashes*
G04 Layer Name tca-i_v6.pcb - flashes*
%LPD*%
*
*
G04 PC Circuitry*
G04 Layer Name tca-i_v6.pcb - circuitry*
%LPD*%
*
G54D10*
G01X361350Y130000D02*
X367650D01*
X361350Y140000D02*
X367650D01*
X361350Y150000D02*
X367650D01*
X115750Y129500D02*
X122050D01*
X115750Y139500D02*
X122050D01*
X115750Y149500D02*
X122050D01*
X251650Y259800D02*
X257950D01*
X251650Y269800D02*
X257950D01*
X251650Y279800D02*
X257950D01*
G54D11*
X359500Y297200D03*
X280760Y277515D03*
Y238145D03*
X359500Y218460D03*
G54D12*
X227030Y139800D03*
X246715D03*
X266400D03*
X286085D03*
X305770D03*
X177400Y282400D03*
X207400D03*
X365000Y355800D03*
Y444383D03*
X188000Y358200D03*
Y456625D03*
X246800Y358200D03*
Y456625D03*
X290700Y356000D03*
X320500Y355800D03*
Y420800D03*
X290700Y434800D03*
X320500Y448300D03*
X138082Y191100D03*
X153830D03*
X169578D03*
X185326D03*
X201074D03*
X216822D03*
X232570D03*
X248318D03*
X150161Y233205D03*
X233823D03*
X127200Y229400D03*
Y249400D03*
X276200Y176800D03*
X325413D03*
X129400Y309200D03*
Y407625D03*
G54D13*
X128575Y486100D03*
X167945D03*
X207315D03*
X246685D03*
X286055D03*
X325425D03*
G54D14*
X331200Y120700D03*
X341200D03*
G54D15*
X348200Y469400D03*
Y489400D03*
X374500Y469300D03*
Y489300D03*
X276206Y191643D03*
X296206D03*
X158105Y129783D03*
X207318D03*
X158105Y148783D03*
X207318D03*
G54D16*
X188000Y368200D03*
X246800D03*
X129400Y319200D03*
G54D17*
X344383Y321300D03*
X379383D03*
X129400Y319200D02*
X155871Y345671D01*
Y385072*
X188000Y417201*
Y456625*
X128242Y452527D02*
Y407625D01*
X129400*
X128242Y452527D02*
X128575Y452859D01*
Y486100*
X188000Y456625D02*
X246800D01*
X167945Y486100D02*
Y464080D01*
X175399Y456625*
X188000*
G54D18*
X142900Y142800D03*
X339400Y143700D03*
X339800Y426600D03*
X143400Y426000D03*
G54D19*
X103349Y109717D02*
Y143220D01*
X109629Y149500*
X118900*
X103349Y109717D02*
X109360Y103707D01*
X373578*
X380051Y110180*
Y144471*
X108861Y132610D02*
Y114256D01*
X113898Y109218*
X369337*
X374539Y114421*
X108861Y132610D02*
X115750Y139500D01*
X118900*
Y149500D02*
X126717D01*
X130014Y146203*
Y134270*
X134502Y129783*
X158105*
X118900Y129500D02*
Y128338D01*
X127053Y120185*
X305770*
Y139800*
X118900Y129500D02*
Y128338D01*
X127053Y120185*
X324632*
X325147Y120700*
X331200*
X158105Y129783D02*
X185326Y157003D01*
Y191100*
X207318Y148783D02*
X218047D01*
X227030Y139800*
X207318Y129783D02*
X236698D01*
X246715Y139800*
X266400D02*
X303400Y176800D01*
X325413*
X266400Y139800D02*
X276046Y130154D01*
X290080*
X295928Y136001*
Y143599*
X301775Y149446*
X312454*
X341200Y120700*
X286085Y139800D02*
X285210Y140675D01*
X301125Y156591*
X344759*
X361350Y140000*
X364500*
X341200Y120700D02*
X350500Y130000D01*
X364500*
Y150000D02*
X374522D01*
X380051Y144471*
X364500Y140000D02*
X367650D01*
X374539Y133110*
Y114421*
X169578Y191100D02*
X211683Y233205D01*
X233823*
X153830Y191100D02*
X177400Y214670D01*
Y282400*
X153830Y191100D02*
Y171587D01*
X158105Y167311*
Y148783*
X201074Y191100D02*
X213667Y203693D01*
X231016*
X291390Y264067*
Y314185*
X185326Y191100D02*
X206378Y212153D01*
X227758*
X254800Y239194*
Y259800*
X248318Y191100D02*
X257523Y200305D01*
X287544*
X296206Y191643*
X232570Y191100D02*
X279615Y238145D01*
X280760*
X216822Y191100D02*
X231122Y176800D01*
X276200*
X276206Y176806*
Y191643*
X296206D02*
X324210D01*
X344759Y171094*
Y156591*
X361350Y140000*
X364500*
X296206Y191643D02*
X324210D01*
Y269800*
X127200Y229400D02*
X138082Y218518D01*
Y191100*
X127200Y249400D02*
X143844D01*
X150161Y243082*
X150161D02*
Y233205D01*
X254800Y269800D02*
X273045D01*
X280760Y277515*
X207400Y282400D02*
X220000Y269800D01*
X254800*
X177400Y282400D02*
X187046Y292046D01*
X239405*
X251650Y279800*
X254800*
X280760Y277515D02*
Y359701D01*
X286705Y365646*
X310654*
X320500Y355800*
X359500Y297200D02*
Y301417D01*
X379383Y321300*
X290700Y356000D02*
Y314875D01*
X291390Y314185*
X320500Y355800D02*
Y273510D01*
X324210Y269800*
X344383Y321300D02*
X354909D01*
X365000Y331391*
Y355800*
X344383Y321300D02*
Y233576D01*
X359500Y218460*
X188000Y368200D02*
X246800D01*
X276291Y397691*
X365000*
Y355800*
Y397691D02*
Y355800D01*
X320500Y448300D02*
X344360D01*
X365000Y427660*
Y397691*
X348200Y469400D02*
X365000Y452600D01*
Y444383*
X374500Y469300D02*
X379383Y464417D01*
Y321300*
X207315Y486100D02*
X231200Y509985D01*
X353815*
X374500Y489300*
X246685Y486100D02*
X290700Y442085D01*
Y434800*
X286055Y486100D02*
X303974Y468182D01*
Y464826*
X320500Y448300*
X325425Y486100D02*
Y487750D01*
X348200*
Y489400*
G54D20*
X100000Y100000D02*
X385000D01*
Y514600*
X100000*
Y100000*
X0Y0D02*
M02*
