*
*
G04 PADS Layout (Build Number 2007.42.1) generated Gerber (RS-274-X) file*
G04 PC Version=2.1*
*
%IN "tca-i_v6.pcb"*%
*
%MOIN*%
*
%FSLAX35Y35*%
*
*
*
*
G04 PC Standard Apertures*
*
*
G04 Thermal Relief Aperture macro.*
%AMTER*
1,1,$1,0,0*
1,0,$1-$2,0,0*
21,0,$3,$4,0,0,45*
21,0,$3,$4,0,0,135*
%
*
*
G04 Annular Aperture macro.*
%AMANN*
1,1,$1,0,0*
1,0,$2,0,0*
%
*
*
G04 Odd Aperture macro.*
%AMODD*
1,1,$1,0,0*
1,0,$1-0.005,0,0*
%
*
*
G04 PC Custom Aperture Macros*
*
*
*
*
*
*
G04 PC Aperture Table*
*
%ADD020C,0.01*%
%ADD030C,0.001*%
*
*
*
*
G04 PC Copper Outlines (0)*
G04 Layer Name tca-i_v6.pcb - dark (0)*
%LPD*%
*
*
G04 PC Area=Custom_Thermal*
*
G04 PC Custom Flashes*
G04 Layer Name tca-i_v6.pcb - flashes*
%LPD*%
*
*
G04 PC Circuitry*
G04 Layer Name tca-i_v6.pcb - circuitry*
%LPD*%
*
G54D20*
G01X440430Y490917D02*
X439066Y492792D01*
X437021Y493730*
X434293*
X432248Y492792*
X430884Y490917*
Y489042*
X431566Y487167*
X432248Y486230*
X433612Y485292*
X437703Y483417*
X439066Y482480*
X439748Y481542*
X440430Y479667*
Y476855*
X439066Y474980*
X437021Y474042*
X434293*
X432248Y474980*
X430884Y476855*
X446566Y493730D02*
X447248Y492792D01*
X447930Y493730*
X447248Y494667*
X446566Y493730*
X447248Y487167D02*
Y474042D01*
X454066Y487167D02*
Y474042D01*
Y483417D02*
X456112Y486230D01*
X457475Y487167*
X459521*
X460884Y486230*
X461566Y483417*
Y474042*
X475884Y487167D02*
Y472167D01*
X475203Y469355*
X474521Y468417*
X473157Y467480*
X471112*
X469748Y468417*
X475884Y484355D02*
X474521Y486230D01*
X473157Y487167*
X471112*
X469748Y486230*
X468384Y484355*
X467703Y481542*
Y479667*
X468384Y476855*
X469748Y474980*
X471112Y474042*
X473157*
X474521Y474980*
X475884Y476855*
X482021Y493730D02*
Y474042D01*
X488157Y481542D02*
X496339D01*
Y483417*
X495657Y485292*
X494975Y486230*
X493612Y487167*
X491566*
X490203Y486230*
X488839Y484355*
X488157Y481542*
Y479667*
X488839Y476855*
X490203Y474980*
X491566Y474042*
X493612*
X494975Y474980*
X496339Y476855*
X525657Y484355D02*
X524975Y486230D01*
X522930Y487167*
X520884*
X518839Y486230*
X518157Y484355*
X518839Y482480*
X520203Y481542*
X523612Y480605*
X524975Y479667*
X525657Y477792*
Y476855*
X524975Y474980*
X522930Y474042*
X520884*
X518839Y474980*
X518157Y476855*
X531793Y493730D02*
X532475Y492792D01*
X533157Y493730*
X532475Y494667*
X531793Y493730*
X532475Y487167D02*
Y474042D01*
X547475Y493730D02*
Y474042D01*
Y484355D02*
X546112Y486230D01*
X544748Y487167*
X542703*
X541339Y486230*
X539975Y484355*
X539293Y481542*
Y479667*
X539975Y476855*
X541339Y474980*
X542703Y474042*
X544748*
X546112Y474980*
X547475Y476855*
X553612Y481542D02*
X561793D01*
Y483417*
X561112Y485292*
X560430Y486230*
X559066Y487167*
X557021*
X555657Y486230*
X554293Y484355*
X553612Y481542*
Y479667*
X554293Y476855*
X555657Y474980*
X557021Y474042*
X559066*
X560430Y474980*
X561793Y476855*
X576112Y493730D02*
Y474042D01*
Y484355D02*
X574748Y486230D01*
X573384Y487167*
X571339*
X569975Y486230*
X568612Y484355*
X567930Y481542*
Y479667*
X568612Y476855*
X569975Y474980*
X571339Y474042*
X573384*
X574748Y474980*
X576112Y476855*
X597930Y493730D02*
Y474042D01*
Y484355D02*
X599293Y486230D01*
X600657Y487167*
X602703*
X604066Y486230*
X605430Y484355*
X606112Y481542*
Y479667*
X605430Y476855*
X604066Y474980*
X602703Y474042*
X600657*
X599293Y474980*
X597930Y476855*
X615657Y487167D02*
X614293Y486230D01*
X612930Y484355*
X612248Y481542*
Y479667*
X612930Y476855*
X614293Y474980*
X615657Y474042*
X617703*
X619066Y474980*
X620430Y476855*
X621112Y479667*
Y481542*
X620430Y484355*
X619066Y486230*
X617703Y487167*
X615657*
X635430D02*
Y474042D01*
Y484355D02*
X634066Y486230D01*
X632703Y487167*
X630657*
X629293Y486230*
X627930Y484355*
X627248Y481542*
Y479667*
X627930Y476855*
X629293Y474980*
X630657Y474042*
X632703*
X634066Y474980*
X635430Y476855*
X641566Y487167D02*
Y474042D01*
Y481542D02*
X642248Y484355D01*
X643612Y486230*
X644975Y487167*
X647021*
X661339Y493730D02*
Y474042D01*
Y484355D02*
X659975Y486230D01*
X658612Y487167*
X656566*
X655203Y486230*
X653839Y484355*
X653157Y481542*
Y479667*
X653839Y476855*
X655203Y474980*
X656566Y474042*
X658612*
X659975Y474980*
X661339Y476855*
X437298Y456175D02*
X436844Y457425D01*
X435480Y458050*
X434116*
X432753Y457425*
X432298Y456175*
X432753Y454925*
X433662Y454300*
X435935Y453675*
X436844Y453050*
X437298Y451800*
Y451175*
X436844Y449925*
X435480Y449300*
X434116*
X432753Y449925*
X432298Y451175*
X442753Y462425D02*
Y451800D01*
X443207Y449925*
X444116Y449300*
X445025*
X441389Y458050D02*
X444571D01*
X449116Y454300D02*
X454571D01*
Y455550*
X454116Y456800*
X453662Y457425*
X452753Y458050*
X451389*
X450480Y457425*
X449571Y456175*
X449116Y454300*
Y453050*
X449571Y451175*
X450480Y449925*
X451389Y449300*
X452753*
X453662Y449925*
X454571Y451175*
X458662Y458050D02*
Y444925D01*
Y456175D02*
X459571Y457425D01*
X460480Y458050*
X461844*
X462753Y457425*
X463662Y456175*
X464116Y454300*
Y453050*
X463662Y451175*
X462753Y449925*
X461844Y449300*
X460480*
X459571Y449925*
X458662Y451175*
X468207Y458050D02*
Y444925D01*
Y456175D02*
X469116Y457425D01*
X470025Y458050*
X471389*
X472298Y457425*
X473207Y456175*
X473662Y454300*
Y453050*
X473207Y451175*
X472298Y449925*
X471389Y449300*
X470025*
X469116Y449925*
X468207Y451175*
X477753Y454300D02*
X483207D01*
Y455550*
X482753Y456800*
X482298Y457425*
X481389Y458050*
X480025*
X479116Y457425*
X478207Y456175*
X477753Y454300*
Y453050*
X478207Y451175*
X479116Y449925*
X480025Y449300*
X481389*
X482298Y449925*
X483207Y451175*
X492753Y462425D02*
Y449300D01*
Y456175D02*
X491844Y457425D01*
X490935Y458050*
X489571*
X488662Y457425*
X487753Y456175*
X487298Y454300*
Y453050*
X487753Y451175*
X488662Y449925*
X489571Y449300*
X490935*
X491844Y449925*
X492753Y451175*
X507298Y458050D02*
Y451800D01*
X507753Y449925*
X508662Y449300*
X510025*
X510935Y449925*
X512298Y451800*
Y458050D02*
Y449300D01*
X516389Y458050D02*
Y444925D01*
Y456175D02*
X517298Y457425D01*
X518207Y458050*
X519571*
X520480Y457425*
X521389Y456175*
X521844Y454300*
Y453050*
X521389Y451175*
X520480Y449925*
X519571Y449300*
X518207*
X517298Y449925*
X516389Y451175*
X537298Y462425D02*
X542298D01*
X539571Y457425*
X540935*
X541844Y456800*
X542298Y456175*
X542753Y454300*
Y453050*
X542298Y451175*
X541389Y449925*
X540025Y449300*
X538662*
X537298Y449925*
X536844Y450550*
X536389Y451800*
X546844Y458050D02*
X551844Y449300D01*
Y458050D02*
X546844Y449300D01*
X555935Y459925D02*
X556844Y460550D01*
X558207Y462425*
Y449300*
X360500Y130000D02*
X368500D01*
X364500Y126000D02*
Y134000D01*
X360500Y140000D02*
X368500D01*
X364500Y136000D02*
Y144000D01*
X360500Y150000D02*
X368500D01*
X364500Y146000D02*
Y154000D01*
X114900Y129500D02*
X122900D01*
X118900Y125500D02*
Y133500D01*
X114900Y139500D02*
X122900D01*
X118900Y135500D02*
Y143500D01*
X114900Y149500D02*
X122900D01*
X118900Y145500D02*
Y153500D01*
X250800Y259800D02*
X258800D01*
X254800Y255800D02*
Y263800D01*
X250800Y269800D02*
X258800D01*
X254800Y265800D02*
Y273800D01*
X250800Y279800D02*
X258800D01*
X254800Y275800D02*
Y283800D01*
X355500Y297200D02*
X363500D01*
X359500Y293200D02*
Y301200D01*
X276760Y277515D02*
X284760D01*
X280760Y273515D02*
Y281515D01*
X276760Y238145D02*
X284760D01*
X280760Y234145D02*
Y242145D01*
X355500Y218460D02*
X363500D01*
X359500Y214460D02*
Y222460D01*
X223030Y139800D02*
X231030D01*
X227030Y135800D02*
Y143800D01*
X242715Y139800D02*
X250715D01*
X246715Y135800D02*
Y143800D01*
X262400Y139800D02*
X270400D01*
X266400Y135800D02*
Y143800D01*
X282085Y139800D02*
X290085D01*
X286085Y135800D02*
Y143800D01*
X301770Y139800D02*
X309770D01*
X305770Y135800D02*
Y143800D01*
X124575Y486100D02*
X132575D01*
X128575Y482100D02*
Y490100D01*
X163945Y486100D02*
X171945D01*
X167945Y482100D02*
Y490100D01*
X203315Y486100D02*
X211315D01*
X207315Y482100D02*
Y490100D01*
X242685Y486100D02*
X250685D01*
X246685Y482100D02*
Y490100D01*
X282055Y486100D02*
X290055D01*
X286055Y482100D02*
Y490100D01*
X321425Y486100D02*
X329425D01*
X325425Y482100D02*
Y490100D01*
X331200Y116700D02*
X335200Y120700D01*
X331200Y124700*
X327200Y120700*
X331200Y116700*
Y120700D02*
Y124700D01*
X341200Y116700D02*
X345200Y120700D01*
X341200Y124700*
X337200Y120700*
X341200Y116700*
Y120700D02*
Y124700D01*
X173400Y282400D02*
X181400D01*
X177400Y278400D02*
Y286400D01*
X203400Y282400D02*
X211400D01*
X207400Y278400D02*
Y286400D01*
X344200Y469400D02*
X352200D01*
X348200Y465400D02*
Y473400D01*
X351109Y474681D02*
X350200Y471400D01*
X351109Y474681D02*
X352018Y471400D01*
X350541Y472494D02*
X351677D01*
X344200Y489400D02*
X352200D01*
X348200Y485400D02*
Y493400D01*
X351109Y494681D02*
X350200Y491400D01*
X351109Y494681D02*
X352018Y491400D01*
X350541Y492494D02*
X351677D01*
X370500Y469300D02*
X378500D01*
X374500Y465300D02*
Y473300D01*
X377409Y474581D02*
X376500Y471300D01*
X377409Y474581D02*
X378318Y471300D01*
X376841Y472394D02*
X377977D01*
X370500Y489300D02*
X378500D01*
X374500Y485300D02*
Y493300D01*
X377409Y494581D02*
X376500Y491300D01*
X377409Y494581D02*
X378318Y491300D01*
X376841Y492394D02*
X377977D01*
X361000Y355800D02*
X369000D01*
X365000Y351800D02*
Y359800D01*
X361000Y444383D02*
X369000D01*
X365000Y440383D02*
Y448383D01*
X184000Y358200D02*
X192000D01*
X188000Y354200D02*
Y362200D01*
X184000Y368200D02*
X192000D01*
X188000Y364200D02*
Y372200D01*
X184000Y456625D02*
X192000D01*
X188000Y452625D02*
Y460625D01*
X242800Y358200D02*
X250800D01*
X246800Y354200D02*
Y362200D01*
X242800Y368200D02*
X250800D01*
X246800Y364200D02*
Y372200D01*
X242800Y456625D02*
X250800D01*
X246800Y452625D02*
Y460625D01*
X272206Y187643D02*
X280206D01*
Y195643*
X272206*
Y187643*
X276206Y191643D02*
Y195643D01*
X292206Y187643D02*
X300206D01*
Y195643*
X292206*
Y187643*
X296206Y191643D02*
Y195643D01*
X286700Y356000D02*
X294700D01*
X290700Y352000D02*
Y360000D01*
X316500Y355800D02*
X324500D01*
X320500Y351800D02*
Y359800D01*
X316500Y420800D02*
X324500D01*
X320500Y416800D02*
Y424800D01*
X286700Y434800D02*
X294700D01*
X290700Y430800D02*
Y438800D01*
X316500Y448300D02*
X324500D01*
X320500Y444300D02*
Y452300D01*
X134082Y187100D02*
X142082Y195100D01*
Y187100*
X134082Y195100*
Y187100*
X149830D02*
X157830Y195100D01*
Y187100*
X149830Y195100*
Y187100*
X165578D02*
X173578Y195100D01*
Y187100*
X165578Y195100*
Y187100*
X181326D02*
X189326Y195100D01*
Y187100*
X181326Y195100*
Y187100*
X197074D02*
X205074Y195100D01*
Y187100*
X197074Y195100*
Y187100*
X212822D02*
X220822Y195100D01*
Y187100*
X212822Y195100*
Y187100*
X228570D02*
X236570Y195100D01*
Y187100*
X228570Y195100*
Y187100*
X244318D02*
X252318Y195100D01*
Y187100*
X244318Y195100*
Y187100*
X146161Y229205D02*
X154161D01*
X146161Y237205*
X154161*
X146161Y229205*
X229823D02*
X237823D01*
X229823Y237205*
X237823*
X229823Y229205*
X123200Y229400D02*
X131200D01*
X127200Y225400D02*
Y233400D01*
X123200Y249400D02*
X131200D01*
X127200Y245400D02*
Y253400D01*
X154105Y129783D02*
X162105D01*
X158105Y125783D02*
Y133783D01*
X203318Y129783D02*
X211318D01*
X207318Y125783D02*
Y133783D01*
X154105Y148783D02*
X162105D01*
X158105Y144783D02*
Y152783D01*
X203318Y148783D02*
X211318D01*
X207318Y144783D02*
Y152783D01*
X272200Y172800D02*
X280200D01*
Y180800*
X272200*
Y172800*
X276200Y176800D02*
Y180800D01*
X321413Y172800D02*
X329413D01*
Y180800*
X321413*
Y172800*
X325413Y176800D02*
Y180800D01*
X340383Y317300D02*
X348383D01*
Y325300*
X340383*
Y317300*
X344383Y321300D02*
Y325300D01*
X375383Y317300D02*
X383383D01*
Y325300*
X375383*
Y317300*
X379383Y321300D02*
Y325300D01*
X138900Y138800D02*
X146900Y146800D01*
X138900D02*
X146900Y138800D01*
X335400Y139700D02*
X343400Y147700D01*
X335400D02*
X343400Y139700D01*
X335800Y422600D02*
X343800Y430600D01*
X335800D02*
X343800Y422600D01*
X139400Y422000D02*
X147400Y430000D01*
X139400D02*
X147400Y422000D01*
X125400Y309200D02*
X133400D01*
X129400Y305200D02*
Y313200D01*
X125400Y319200D02*
X133400D01*
X129400Y315200D02*
Y323200D01*
X125400Y407625D02*
X133400D01*
X129400Y403625D02*
Y411625D01*
X100000Y100000D02*
X385000D01*
Y514600*
X100000*
Y100000*
X239194Y123844D02*
X295960D01*
Y99972*
X239194*
Y123844*
X410000Y392000D02*
X668000D01*
X410000Y368000D02*
X668000D01*
X410000Y344000D02*
X668000D01*
X410000Y320000D02*
X668000D01*
X410000Y296000D02*
X668000D01*
X410000Y272000D02*
X668000D01*
X410000Y248000D02*
X668000D01*
X410000Y224000D02*
X668000D01*
X410000Y200000D02*
X668000D01*
X410000Y392000D02*
Y200000D01*
X494000Y392000D02*
Y200000D01*
X530000Y392000D02*
Y200000D01*
X566000Y392000D02*
Y200000D01*
X620000Y392000D02*
Y200000D01*
X668000Y392000D02*
Y200000D01*
X445500Y380750D02*
X444955Y381500D01*
X444136Y381875*
X443045*
X442227Y381500*
X441682Y380750*
Y380000*
X441955Y379250*
X442227Y378875*
X442773Y378500*
X444409Y377750*
X444955Y377375*
X445227Y377000*
X445500Y376250*
Y375125*
X444955Y374375*
X444136Y374000*
X443045*
X442227Y374375*
X441682Y375125*
X447955Y381875D02*
Y374000D01*
X454227Y381875D02*
X450409Y374000D01*
Y381875D02*
X454227D01*
X450409Y374000D02*
X454227D01*
X456682Y381875D02*
Y374000D01*
Y381875D02*
X460227D01*
X456682Y378125D02*
X458864D01*
X456682Y374000D02*
X460227D01*
X503864Y381875D02*
X503318Y381500D01*
X502773Y380750*
X502500Y380000*
X502227Y378875*
Y377000*
X502500Y375875*
X502773Y375125*
X503318Y374375*
X503864Y374000*
X504955*
X505500Y374375*
X506045Y375125*
X506318Y375875*
X506591Y377000*
Y378875*
X506318Y380000*
X506045Y380750*
X505500Y381500*
X504955Y381875*
X503864*
X504682Y375500D02*
X506318Y373250D01*
X510955Y381875D02*
Y374000D01*
X509045Y381875D02*
X512864D01*
X515318D02*
X517500Y378125D01*
Y374000*
X519682Y381875D02*
X517500Y378125D01*
X542045Y380750D02*
X541500Y381500D01*
X540682Y381875*
X539591*
X538773Y381500*
X538227Y380750*
Y380000*
X538500Y379250*
X538773Y378875*
X539318Y378500*
X540955Y377750*
X541500Y377375*
X541773Y377000*
X542045Y376250*
Y375125*
X541500Y374375*
X540682Y374000*
X539591*
X538773Y374375*
X538227Y375125*
X544500Y381875D02*
X546682Y378125D01*
Y374000*
X548864Y381875D02*
X546682Y378125D01*
X551318Y381875D02*
Y374000D01*
Y381875D02*
X553500Y374000D01*
X555682Y381875D02*
X553500Y374000D01*
X555682Y381875D02*
Y374000D01*
X577500Y381875D02*
Y374000D01*
Y381875D02*
X579955D01*
X580773Y381500*
X581045Y381125*
X581318Y380375*
Y379250*
X581045Y378500*
X580773Y378125*
X579955Y377750*
X577500*
X583773Y381875D02*
Y374000D01*
X587045*
X591682Y381875D02*
X589500Y374000D01*
X591682Y381875D02*
X593864Y374000D01*
X590318Y376625D02*
X593045D01*
X598227Y381875D02*
Y374000D01*
X596318Y381875D02*
X600136D01*
X602591D02*
Y374000D01*
Y381875D02*
X606136D01*
X602591Y378125D02*
X604773D01*
X602591Y374000D02*
X606136D01*
X608591Y381875D02*
Y374000D01*
Y381875D02*
X610500D01*
X611318Y381500*
X611864Y380750*
X612136Y380000*
X612409Y378875*
Y377000*
X612136Y375875*
X611864Y375125*
X611318Y374375*
X610500Y374000*
X608591*
X636682Y381875D02*
Y374000D01*
X634773Y381875D02*
X638591D01*
X642682D02*
X642136Y381500D01*
X641591Y380750*
X641318Y380000*
X641045Y378875*
Y377000*
X641318Y375875*
X641591Y375125*
X642136Y374375*
X642682Y374000*
X643773*
X644318Y374375*
X644864Y375125*
X645136Y375875*
X645409Y377000*
Y378875*
X645136Y380000*
X644864Y380750*
X644318Y381500*
X643773Y381875*
X642682*
X647864D02*
Y374000D01*
X651136*
X416000Y356375D02*
X416545Y356750D01*
X417364Y357875*
Y350000*
X420091Y350750D02*
X419818Y350375D01*
X420091Y350000*
X420364Y350375*
X420091Y350750*
X423091Y356000D02*
Y356375D01*
X423364Y357125*
X423636Y357500*
X424182Y357875*
X425273*
X425818Y357500*
X426091Y357125*
X426364Y356375*
Y355625*
X426091Y354875*
X425545Y353750*
X422818Y350000*
X426636*
X508500Y357875D02*
X505773Y352625D01*
X509864*
X508500Y357875D02*
Y350000D01*
X513682Y357875D02*
X512864Y357500D01*
X512591Y356750*
Y356000*
X512864Y355250*
X513409Y354875*
X514500Y354500*
X515318Y354125*
X515864Y353375*
X516136Y352625*
Y351500*
X515864Y350750*
X515591Y350375*
X514773Y350000*
X513682*
X512864Y350375*
X512591Y350750*
X512318Y351500*
Y352625*
X512591Y353375*
X513136Y354125*
X513955Y354500*
X515045Y354875*
X515591Y355250*
X515864Y356000*
Y356750*
X515591Y357500*
X514773Y357875*
X513682*
X542000Y356000D02*
X554000D01*
X548000Y350000D02*
Y362000D01*
X574636Y357875D02*
X576818Y354125D01*
Y350000*
X579000Y357875D02*
X576818Y354125D01*
X581455Y357875D02*
Y350000D01*
Y357875D02*
X585000D01*
X581455Y354125D02*
X583636D01*
X581455Y350000D02*
X585000D01*
X591273Y356750D02*
X590727Y357500D01*
X589909Y357875*
X588818*
X588000Y357500*
X587455Y356750*
Y356000*
X587727Y355250*
X588000Y354875*
X588545Y354500*
X590182Y353750*
X590727Y353375*
X591000Y353000*
X591273Y352250*
Y351125*
X590727Y350375*
X589909Y350000*
X588818*
X588000Y350375*
X587455Y351125*
X627818Y356750D02*
Y350000D01*
X625364Y353375D02*
X630273D01*
X637636Y359375D02*
X632727Y347375D01*
X640091Y353375D02*
X645000D01*
X649091Y357875D02*
X648273Y357500D01*
X647727Y356375*
X647455Y354500*
Y353375*
X647727Y351500*
X648273Y350375*
X649091Y350000*
X649636*
X650455Y350375*
X651000Y351500*
X651273Y353375*
Y354500*
X651000Y356375*
X650455Y357500*
X649636Y357875*
X649091*
X654000Y350750D02*
X653727Y350375D01*
X654000Y350000*
X654273Y350375*
X654000Y350750*
X658364Y357875D02*
X657545Y357500D01*
X657000Y356375*
X656727Y354500*
Y353375*
X657000Y351500*
X657545Y350375*
X658364Y350000*
X658909*
X659727Y350375*
X660273Y351500*
X660545Y353375*
Y354500*
X660273Y356375*
X659727Y357500*
X658909Y357875*
X658364*
X418727Y333875D02*
X416000Y328625D01*
X420091*
X418727Y333875D02*
Y326000D01*
X422818Y326750D02*
X422545Y326375D01*
X422818Y326000*
X423091Y326375*
X422818Y326750*
X425545Y332375D02*
X426091Y332750D01*
X426909Y333875*
Y326000*
X511636Y333875D02*
X508909Y328625D01*
X513000*
X511636Y333875D02*
Y326000D01*
X542000D02*
X554000Y338000D01*
X542000D02*
X554000Y326000D01*
X577636Y333875D02*
Y326000D01*
Y333875D02*
X581455Y326000D01*
Y333875D02*
Y326000D01*
X585545Y333875D02*
X585000Y333500D01*
X584455Y332750*
X584182Y332000*
X583909Y330875*
Y329000*
X584182Y327875*
X584455Y327125*
X585000Y326375*
X585545Y326000*
X586636*
X587182Y326375*
X587727Y327125*
X588000Y327875*
X588273Y329000*
Y330875*
X588000Y332000*
X587727Y332750*
X587182Y333500*
X586636Y333875*
X585545*
X627818Y332750D02*
Y326000D01*
X625364Y329375D02*
X630273D01*
X637636Y335375D02*
X632727Y323375D01*
X640091Y329375D02*
X645000D01*
X649091Y333875D02*
X648273Y333500D01*
X647727Y332375*
X647455Y330500*
Y329375*
X647727Y327500*
X648273Y326375*
X649091Y326000*
X649636*
X650455Y326375*
X651000Y327500*
X651273Y329375*
Y330500*
X651000Y332375*
X650455Y333500*
X649636Y333875*
X649091*
X654000Y326750D02*
X653727Y326375D01*
X654000Y326000*
X654273Y326375*
X654000Y326750*
X658364Y333875D02*
X657545Y333500D01*
X657000Y332375*
X656727Y330500*
Y329375*
X657000Y327500*
X657545Y326375*
X658364Y326000*
X658909*
X659727Y326375*
X660273Y327500*
X660545Y329375*
Y330500*
X660273Y332375*
X659727Y333500*
X658909Y333875*
X658364*
X417636Y309875D02*
X416818Y309500D01*
X416273Y308375*
X416000Y306500*
Y305375*
X416273Y303500*
X416818Y302375*
X417636Y302000*
X418182*
X419000Y302375*
X419545Y303500*
X419818Y305375*
Y306500*
X419545Y308375*
X419000Y309500*
X418182Y309875*
X417636*
X422545Y302750D02*
X422273Y302375D01*
X422545Y302000*
X422818Y302375*
X422545Y302750*
X426636Y309875D02*
X425818Y309500D01*
X425545Y308750*
Y308000*
X425818Y307250*
X426364Y306875*
X427455Y306500*
X428273Y306125*
X428818Y305375*
X429091Y304625*
Y303500*
X428818Y302750*
X428545Y302375*
X427727Y302000*
X426636*
X425818Y302375*
X425545Y302750*
X425273Y303500*
Y304625*
X425545Y305375*
X426091Y306125*
X426909Y306500*
X428000Y306875*
X428545Y307250*
X428818Y308000*
Y308750*
X428545Y309500*
X427727Y309875*
X426636*
X435091D02*
X432364D01*
X432091Y306500*
X432364Y306875*
X433182Y307250*
X434000*
X434818Y306875*
X435364Y306125*
X435636Y305000*
X435364Y304250*
X435091Y303125*
X434545Y302375*
X433727Y302000*
X432909*
X432091Y302375*
X431818Y302750*
X431545Y303500*
X512455Y308750D02*
X512182Y309500D01*
X511364Y309875*
X510818*
X510000Y309500*
X509455Y308375*
X509182Y306500*
Y304625*
X509455Y303125*
X510000Y302375*
X510818Y302000*
X511091*
X511909Y302375*
X512455Y303125*
X512727Y304250*
Y304625*
X512455Y305750*
X511909Y306500*
X511091Y306875*
X510818*
X510000Y306500*
X509455Y305750*
X509182Y304625*
X542000Y302000D02*
X554000D01*
Y314000*
X542000*
Y302000*
X548000Y308000D02*
Y314000D01*
X574636Y309875D02*
X576818Y306125D01*
Y302000*
X579000Y309875D02*
X576818Y306125D01*
X581455Y309875D02*
Y302000D01*
Y309875D02*
X585000D01*
X581455Y306125D02*
X583636D01*
X581455Y302000D02*
X585000D01*
X591273Y308750D02*
X590727Y309500D01*
X589909Y309875*
X588818*
X588000Y309500*
X587455Y308750*
Y308000*
X587727Y307250*
X588000Y306875*
X588545Y306500*
X590182Y305750*
X590727Y305375*
X591000Y305000*
X591273Y304250*
Y303125*
X590727Y302375*
X589909Y302000*
X588818*
X588000Y302375*
X587455Y303125*
X627818Y308750D02*
Y302000D01*
X625364Y305375D02*
X630273D01*
X637636Y311375D02*
X632727Y299375D01*
X640091Y305375D02*
X645000D01*
X649091Y309875D02*
X648273Y309500D01*
X647727Y308375*
X647455Y306500*
Y305375*
X647727Y303500*
X648273Y302375*
X649091Y302000*
X649636*
X650455Y302375*
X651000Y303500*
X651273Y305375*
Y306500*
X651000Y308375*
X650455Y309500*
X649636Y309875*
X649091*
X654000Y302750D02*
X653727Y302375D01*
X654000Y302000*
X654273Y302375*
X654000Y302750*
X658364Y309875D02*
X657545Y309500D01*
X657000Y308375*
X656727Y306500*
Y305375*
X657000Y303500*
X657545Y302375*
X658364Y302000*
X658909*
X659727Y302375*
X660273Y303500*
X660545Y305375*
Y306500*
X660273Y308375*
X659727Y309500*
X658909Y309875*
X658364*
X417636Y285875D02*
X416818Y285500D01*
X416273Y284375*
X416000Y282500*
Y281375*
X416273Y279500*
X416818Y278375*
X417636Y278000*
X418182*
X419000Y278375*
X419545Y279500*
X419818Y281375*
Y282500*
X419545Y284375*
X419000Y285500*
X418182Y285875*
X417636*
X422545Y278750D02*
X422273Y278375D01*
X422545Y278000*
X422818Y278375*
X422545Y278750*
X426636Y285875D02*
X425818Y285500D01*
X425545Y284750*
Y284000*
X425818Y283250*
X426364Y282875*
X427455Y282500*
X428273Y282125*
X428818Y281375*
X429091Y280625*
Y279500*
X428818Y278750*
X428545Y278375*
X427727Y278000*
X426636*
X425818Y278375*
X425545Y278750*
X425273Y279500*
Y280625*
X425545Y281375*
X426091Y282125*
X426909Y282500*
X428000Y282875*
X428545Y283250*
X428818Y284000*
Y284750*
X428545Y285500*
X427727Y285875*
X426636*
X432909D02*
X432091Y285500D01*
X431818Y284750*
Y284000*
X432091Y283250*
X432636Y282875*
X433727Y282500*
X434545Y282125*
X435091Y281375*
X435364Y280625*
Y279500*
X435091Y278750*
X434818Y278375*
X434000Y278000*
X432909*
X432091Y278375*
X431818Y278750*
X431545Y279500*
Y280625*
X431818Y281375*
X432364Y282125*
X433182Y282500*
X434273Y282875*
X434818Y283250*
X435091Y284000*
Y284750*
X434818Y285500*
X434000Y285875*
X432909*
X441364Y283250D02*
X441091Y282125D01*
X440545Y281375*
X439727Y281000*
X439455*
X438636Y281375*
X438091Y282125*
X437818Y283250*
Y283625*
X438091Y284750*
X438636Y285500*
X439455Y285875*
X439727*
X440545Y285500*
X441091Y284750*
X441364Y283250*
Y281375*
X441091Y279500*
X440545Y278375*
X439727Y278000*
X439182*
X438364Y278375*
X438091Y279125*
X509318Y284000D02*
Y284375D01*
X509591Y285125*
X509864Y285500*
X510409Y285875*
X511500*
X512045Y285500*
X512318Y285125*
X512591Y284375*
Y283625*
X512318Y282875*
X511773Y281750*
X509045Y278000*
X512864*
X548000D02*
X554000Y284000D01*
X548000Y290000*
X542000Y284000*
X548000Y278000*
Y284000D02*
Y290000D01*
X574636Y285875D02*
X576818Y282125D01*
Y278000*
X579000Y285875D02*
X576818Y282125D01*
X581455Y285875D02*
Y278000D01*
Y285875D02*
X585000D01*
X581455Y282125D02*
X583636D01*
X581455Y278000D02*
X585000D01*
X591273Y284750D02*
X590727Y285500D01*
X589909Y285875*
X588818*
X588000Y285500*
X587455Y284750*
Y284000*
X587727Y283250*
X588000Y282875*
X588545Y282500*
X590182Y281750*
X590727Y281375*
X591000Y281000*
X591273Y280250*
Y279125*
X590727Y278375*
X589909Y278000*
X588818*
X588000Y278375*
X587455Y279125*
X627818Y284750D02*
Y278000D01*
X625364Y281375D02*
X630273D01*
X637636Y287375D02*
X632727Y275375D01*
X640091Y281375D02*
X645000D01*
X649091Y285875D02*
X648273Y285500D01*
X647727Y284375*
X647455Y282500*
Y281375*
X647727Y279500*
X648273Y278375*
X649091Y278000*
X649636*
X650455Y278375*
X651000Y279500*
X651273Y281375*
Y282500*
X651000Y284375*
X650455Y285500*
X649636Y285875*
X649091*
X654000Y278750D02*
X653727Y278375D01*
X654000Y278000*
X654273Y278375*
X654000Y278750*
X658364Y285875D02*
X657545Y285500D01*
X657000Y284375*
X656727Y282500*
Y281375*
X657000Y279500*
X657545Y278375*
X658364Y278000*
X658909*
X659727Y278375*
X660273Y279500*
X660545Y281375*
Y282500*
X660273Y284375*
X659727Y285500*
X658909Y285875*
X658364*
X416000Y260375D02*
X416545Y260750D01*
X417364Y261875*
Y254000*
X420091Y254750D02*
X419818Y254375D01*
X420091Y254000*
X420364Y254375*
X420091Y254750*
X426091Y260750D02*
X425818Y261500D01*
X425000Y261875*
X424455*
X423636Y261500*
X423091Y260375*
X422818Y258500*
Y256625*
X423091Y255125*
X423636Y254375*
X424455Y254000*
X424727*
X425545Y254375*
X426091Y255125*
X426364Y256250*
Y256625*
X426091Y257750*
X425545Y258500*
X424727Y258875*
X424455*
X423636Y258500*
X423091Y257750*
X422818Y256625*
X509318Y260000D02*
Y260375D01*
X509591Y261125*
X509864Y261500*
X510409Y261875*
X511500*
X512045Y261500*
X512318Y261125*
X512591Y260375*
Y259625*
X512318Y258875*
X511773Y257750*
X509045Y254000*
X512864*
X542000D02*
X554000D01*
X542000Y266000*
X554000*
X542000Y254000*
X574636Y261875D02*
X576818Y258125D01*
Y254000*
X579000Y261875D02*
X576818Y258125D01*
X581455Y261875D02*
Y254000D01*
Y261875D02*
X585000D01*
X581455Y258125D02*
X583636D01*
X581455Y254000D02*
X585000D01*
X591273Y260750D02*
X590727Y261500D01*
X589909Y261875*
X588818*
X588000Y261500*
X587455Y260750*
Y260000*
X587727Y259250*
X588000Y258875*
X588545Y258500*
X590182Y257750*
X590727Y257375*
X591000Y257000*
X591273Y256250*
Y255125*
X590727Y254375*
X589909Y254000*
X588818*
X588000Y254375*
X587455Y255125*
X627818Y260750D02*
Y254000D01*
X625364Y257375D02*
X630273D01*
X637636Y263375D02*
X632727Y251375D01*
X640091Y257375D02*
X645000D01*
X649091Y261875D02*
X648273Y261500D01*
X647727Y260375*
X647455Y258500*
Y257375*
X647727Y255500*
X648273Y254375*
X649091Y254000*
X649636*
X650455Y254375*
X651000Y255500*
X651273Y257375*
Y258500*
X651000Y260375*
X650455Y261500*
X649636Y261875*
X649091*
X654000Y254750D02*
X653727Y254375D01*
X654000Y254000*
X654273Y254375*
X654000Y254750*
X658364Y261875D02*
X657545Y261500D01*
X657000Y260375*
X656727Y258500*
Y257375*
X657000Y255500*
X657545Y254375*
X658364Y254000*
X658909*
X659727Y254375*
X660273Y255500*
X660545Y257375*
Y258500*
X660273Y260375*
X659727Y261500*
X658909Y261875*
X658364*
X416000Y236375D02*
X416545Y236750D01*
X417364Y237875*
Y230000*
X420091Y230750D02*
X419818Y230375D01*
X420091Y230000*
X420364Y230375*
X420091Y230750*
X425545Y237875D02*
X422818Y232625D01*
X426909*
X425545Y237875D02*
Y230000D01*
X510409Y237875D02*
X509591Y237500D01*
X509318Y236750*
Y236000*
X509591Y235250*
X510136Y234875*
X511227Y234500*
X512045Y234125*
X512591Y233375*
X512864Y232625*
Y231500*
X512591Y230750*
X512318Y230375*
X511500Y230000*
X510409*
X509591Y230375*
X509318Y230750*
X509045Y231500*
Y232625*
X509318Y233375*
X509864Y234125*
X510682Y234500*
X511773Y234875*
X512318Y235250*
X512591Y236000*
Y236750*
X512318Y237500*
X511500Y237875*
X510409*
X542000Y230000D02*
X554000Y242000D01*
Y230000*
X542000Y242000*
Y230000*
X574636Y237875D02*
X576818Y234125D01*
Y230000*
X579000Y237875D02*
X576818Y234125D01*
X581455Y237875D02*
Y230000D01*
Y237875D02*
X585000D01*
X581455Y234125D02*
X583636D01*
X581455Y230000D02*
X585000D01*
X591273Y236750D02*
X590727Y237500D01*
X589909Y237875*
X588818*
X588000Y237500*
X587455Y236750*
Y236000*
X587727Y235250*
X588000Y234875*
X588545Y234500*
X590182Y233750*
X590727Y233375*
X591000Y233000*
X591273Y232250*
Y231125*
X590727Y230375*
X589909Y230000*
X588818*
X588000Y230375*
X587455Y231125*
X627818Y236750D02*
Y230000D01*
X625364Y233375D02*
X630273D01*
X637636Y239375D02*
X632727Y227375D01*
X640091Y233375D02*
X645000D01*
X649091Y237875D02*
X648273Y237500D01*
X647727Y236375*
X647455Y234500*
Y233375*
X647727Y231500*
X648273Y230375*
X649091Y230000*
X649636*
X650455Y230375*
X651000Y231500*
X651273Y233375*
Y234500*
X651000Y236375*
X650455Y237500*
X649636Y237875*
X649091*
X654000Y230750D02*
X653727Y230375D01*
X654000Y230000*
X654273Y230375*
X654000Y230750*
X658364Y237875D02*
X657545Y237500D01*
X657000Y236375*
X656727Y234500*
Y233375*
X657000Y231500*
X657545Y230375*
X658364Y230000*
X658909*
X659727Y230375*
X660273Y231500*
X660545Y233375*
Y234500*
X660273Y236375*
X659727Y237500*
X658909Y237875*
X658364*
X416000Y212375D02*
X416545Y212750D01*
X417364Y213875*
Y206000*
X511636Y213875D02*
X508909Y208625D01*
X513000*
X511636Y213875D02*
Y206000D01*
X542000Y212000D02*
X554000D01*
X548000Y206000D02*
Y218000D01*
X552745Y221300D02*
X551000Y215000D01*
X552745Y221300D02*
X554491Y215000D01*
X551655Y217100D02*
X553836D01*
X574636Y213875D02*
X576818Y210125D01*
Y206000*
X579000Y213875D02*
X576818Y210125D01*
X581455Y213875D02*
Y206000D01*
Y213875D02*
X585000D01*
X581455Y210125D02*
X583636D01*
X581455Y206000D02*
X585000D01*
X591273Y212750D02*
X590727Y213500D01*
X589909Y213875*
X588818*
X588000Y213500*
X587455Y212750*
Y212000*
X587727Y211250*
X588000Y210875*
X588545Y210500*
X590182Y209750*
X590727Y209375*
X591000Y209000*
X591273Y208250*
Y207125*
X590727Y206375*
X589909Y206000*
X588818*
X588000Y206375*
X587455Y207125*
X627818Y212750D02*
Y206000D01*
X625364Y209375D02*
X630273D01*
X637636Y215375D02*
X632727Y203375D01*
X640091Y209375D02*
X645000D01*
X649091Y213875D02*
X648273Y213500D01*
X647727Y212375*
X647455Y210500*
Y209375*
X647727Y207500*
X648273Y206375*
X649091Y206000*
X649636*
X650455Y206375*
X651000Y207500*
X651273Y209375*
Y210500*
X651000Y212375*
X650455Y213500*
X649636Y213875*
X649091*
X654000Y206750D02*
X653727Y206375D01*
X654000Y206000*
X654273Y206375*
X654000Y206750*
X658364Y213875D02*
X657545Y213500D01*
X657000Y212375*
X656727Y210500*
Y209375*
X657000Y207500*
X657545Y206375*
X658364Y206000*
X658909*
X659727Y206375*
X660273Y207500*
X660545Y209375*
Y210500*
X660273Y212375*
X659727Y213500*
X658909Y213875*
X658364*
G54D30*
X934016Y143661D02*
G75*
G03X934016I-4725J0D01*
G01X934291Y426496D02*
G03X934291I-4724J0D01*
G01X738031Y426024D02*
G03X738031I-4724J0D01*
G01X737441Y142874D02*
G03X737441I-4724J0D01*
G01X639134Y143661D02*
G03X639134I-4725J0D01*
G01X639409Y426496D02*
G03X639409I-4724J0D01*
G01X443150Y426024D02*
G03X443150I-4725J0D01*
G01X442559Y142874D02*
G03X442559I-4724J0D01*
G01X1000000Y556102D02*
Y58465D01*
G03X1009449I4724J-0*
G01Y556102*
G03X1000000I-4725J0*
G01X1004724Y63189D02*
X70079D01*
G03Y53740I-0J-4724*
G01X1004724*
G03Y63189I0J4725*
G01X74803Y58465D02*
Y556102D01*
G03X65354I-4724J0*
G01Y58465*
G03X74803I4725J-0*
G01X70079Y551378D02*
X1004724D01*
G03Y560827I0J4724*
G01X70079*
G03Y551378I-0J-4725*
G01X974803Y159055D02*
Y95276D01*
G03X984252I4725J-0*
G01Y159055*
G03X974803I-4724J0*
G01X979528Y100000D02*
X864803D01*
G03Y90551I0J-4724*
G01X979528*
G03Y100000I-0J4725*
G01X845118D02*
X685039D01*
G03Y90551I0J-4724*
G01X845118*
G03Y100000I0J4725*
G01X689764Y95276D02*
Y159055D01*
G03X680315I-4725J0*
G01Y95276*
G03X689764I4724J-0*
G01Y178740D02*
Y471260D01*
G03X680315I-4725J-0*
G01Y178740*
G03X689764I4724J0*
G01Y490945D02*
Y519291D01*
G03X680315I-4725J0*
G01Y490945*
G03X689764I4724J-0*
G01X685039Y514567D02*
X845118D01*
G03Y524016I0J4724*
G01X685039*
G03Y514567I0J-4725*
G01X864803D02*
X979528D01*
G03Y524016I-0J4724*
G01X864803*
G03Y514567I0J-4725*
G01X974803Y519291D02*
Y490945D01*
G03X984252I4725J-0*
G01Y519291*
G03X974803I-4724J0*
G01Y471260D02*
Y178740D01*
G03X984252I4725J0*
G01Y471260*
G03X974803I-4724J-0*
G01X679921Y159055D02*
Y95276D01*
G03X689370I4725J-0*
G01Y159055*
G03X679921I-4724J0*
G01X684646Y100000D02*
X569921D01*
G03Y90551I0J-4724*
G01X684646*
G03Y100000I-0J4725*
G01X550236D02*
X390157D01*
G03Y90551I0J-4724*
G01X550236*
G03Y100000I0J4725*
G01X394882Y95276D02*
Y159055D01*
G03X385433I-4725J0*
G01Y95276*
G03X394882I4724J-0*
G01Y178740D02*
Y471260D01*
G03X385433I-4725J-0*
G01Y178740*
G03X394882I4724J0*
G01Y490945D02*
Y519291D01*
G03X385433I-4725J0*
G01Y490945*
G03X394882I4724J-0*
G01X390157Y514567D02*
X550236D01*
G03Y524016I0J4724*
G01X390157*
G03Y514567I0J-4725*
G01X569921D02*
X684646D01*
G03Y524016I-0J4724*
G01X569921*
G03Y514567I0J-4725*
G01X679921Y519291D02*
Y490945D01*
G03X689370I4725J-0*
G01Y519291*
G03X679921I-4724J0*
G01Y471260D02*
Y178740D01*
G03X689370I4725J0*
G01Y471260*
G03X679921I-4724J-0*
G01X385039Y159055D02*
Y95276D01*
G03X394488I4725J-0*
G01Y159055*
G03X385039I-4724J0*
G01X389764Y100000D02*
X275039D01*
G03Y90551I0J-4724*
G01X389764*
G03Y100000I-0J4725*
G01X255354D02*
X95276D01*
G03Y90551I-0J-4724*
G01X255354*
G03Y100000I0J4725*
G01X100000Y95276D02*
Y159055D01*
G03X90551I-4724J0*
G01Y95276*
G03X100000I4725J-0*
G01Y178740D02*
Y471260D01*
G03X90551I-4724J-0*
G01Y178740*
G03X100000I4725J0*
G01Y490945D02*
Y519291D01*
G03X90551I-4724J0*
G01Y490945*
G03X100000I4725J-0*
G01X95276Y514567D02*
X255354D01*
G03Y524016I0J4724*
G01X95276*
G03Y514567I-0J-4725*
G01X275039D02*
X389764D01*
G03Y524016I-0J4724*
G01X275039*
G03Y514567I0J-4725*
G01X385039Y519291D02*
Y490945D01*
G03X394488I4725J-0*
G01Y519291*
G03X385039I-4724J0*
G01Y471260D02*
Y178740D01*
G03X394488I4725J0*
G01Y471260*
G03X385039I-4724J-0*
G01X866378Y99213D02*
G03X866378I-1575J0D01*
G01X862441D02*
G03X862441I-1575J0D01*
G01X858504D02*
G03X858504I-1575J0D01*
G01X854567D02*
G03X854567I-1575J0D01*
G01X850630D02*
G03X850630I-1575J0D01*
G01X846693D02*
G03X846693I-1575J0D01*
G01X866378Y515354D02*
G03X866378I-1575J0D01*
G01X862441D02*
G03X862441I-1575J0D01*
G01X858504D02*
G03X858504I-1575J0D01*
G01X854567D02*
G03X854567I-1575J0D01*
G01X850630D02*
G03X850630I-1575J0D01*
G01X846693D02*
G03X846693I-1575J0D01*
G01X571496Y99213D02*
G03X571496I-1575J0D01*
G01X567559D02*
G03X567559I-1575J0D01*
G01X563622D02*
G03X563622I-1575J0D01*
G01X559685D02*
G03X559685I-1575J0D01*
G01X555748D02*
G03X555748I-1575J0D01*
G01X551811D02*
G03X551811I-1575J0D01*
G01X571496Y515354D02*
G03X571496I-1575J0D01*
G01X567559D02*
G03X567559I-1575J0D01*
G01X563622D02*
G03X563622I-1575J0D01*
G01X559685D02*
G03X559685I-1575J0D01*
G01X555748D02*
G03X555748I-1575J0D01*
G01X551811D02*
G03X551811I-1575J0D01*
G01X276614Y99213D02*
G03X276614I-1575J0D01*
G01X272677D02*
G03X272677I-1575J0D01*
G01X268740D02*
G03X268740I-1575J0D01*
G01X264803D02*
G03X264803I-1575J0D01*
G01X260866D02*
G03X260866I-1575J0D01*
G01X256929D02*
G03X256929I-1575J0D01*
G01X276614Y515354D02*
G03X276614I-1575J0D01*
G01X272677D02*
G03X272677I-1575J0D01*
G01X268740D02*
G03X268740I-1575J0D01*
G01X264803D02*
G03X264803I-1575J0D01*
G01X260866D02*
G03X260866I-1575J0D01*
G01X256929D02*
G03X256929I-1575J0D01*
G01X983858Y159055D02*
G03X983858I-4330J0D01*
G01X849449Y95276D02*
G03X849449I-4331J0D01*
G01X869134Y519291D02*
G03X869134I-4331J0D01*
G01X983858Y471260D02*
G03X983858I-4330J0D01*
G01X689370Y490945D02*
G03X689370I-4331J0D01*
G01Y178740D02*
G03X689370I-4331J0D01*
G01X688976Y159055D02*
G03X688976I-4330J0D01*
G01X554567Y95276D02*
G03X554567I-4331J0D01*
G01X574252Y519291D02*
G03X574252I-4331J0D01*
G01X688976Y471260D02*
G03X688976I-4330J0D01*
G01X394488Y490945D02*
G03X394488I-4331J0D01*
G01Y178740D02*
G03X394488I-4331J0D01*
G01X394094Y159055D02*
G03X394094I-4330J0D01*
G01X259685Y95276D02*
G03X259685I-4331J0D01*
G01X279370Y519291D02*
G03X279370I-4331J0D01*
G01X394094Y471260D02*
G03X394094I-4330J0D01*
G01X99606Y490945D02*
G03X99606I-4330J0D01*
G01Y178740D02*
G03X99606I-4330J0D01*
G74*
G01X0Y0D02*
M02*
