%
T1C.03346F197S55
X02762Y01768
X027621Y019164
X029621Y019164
X034438Y03213
X037938Y03213
X032541Y01768
T2C.035F197S55
X03312Y01207
X03412Y01207
T3C.03937F197S55
X03482Y04694
X03482Y04894
X03745Y04893
X03745Y04693
T4C.04724F139S55
X01189Y01295
X015811Y012978
X01189Y01395
X015811Y014878
X01189Y01495
X01272Y02294
X01272Y02494
X01294Y03092
X01294Y03192
X01294Y040763
X016794Y04861
X012857Y04861
X020731Y04861
X0188Y045663
X0188Y03682
X0188Y03582
X01774Y02824
X02074Y02824
X020732Y014878
X020732Y012978
X022703Y01398
X024671Y01398
X02664Y01398
X02548Y02598
X02548Y02698
X02548Y02798
X02468Y03582
X02468Y03682
X02468Y045663
X024669Y04861
X028606Y04861
X032543Y04861
X03205Y04483
X02907Y04348
X03205Y04208
X02907Y0356
X03205Y03558
X028076Y027751
X028076Y023814
X028609Y01398
X030577Y01398
X03645Y013
X03645Y014
X03645Y015
X03595Y021846
X03595Y02972
X0365Y03558
X0365Y044438
T5C.05512F107S55
X013808Y01911
X015383Y01911
X016958Y01911
X018533Y01911
X020107Y01911
X021682Y01911
X023257Y01911
X024832Y01911
T6C.06299F089S55
X015016Y023321
X023382Y023321
T7C.16142F035S1033
X01429Y01428
X01434Y0426
X03398Y04266
X03394Y01437
M30
