*
*
G04 PADS Layout (Build Number 2007.42.1) generated Gerber (RS-274-X) file*
G04 PC Version=2.1*
*
%IN "tca-i_v6.pcb"*%
*
%MOIN*%
*
%FSLAX35Y35*%
*
*
*
*
G04 PC Standard Apertures*
*
*
G04 Thermal Relief Aperture macro.*
%AMTER*
1,1,$1,0,0*
1,0,$1-$2,0,0*
21,0,$3,$4,0,0,45*
21,0,$3,$4,0,0,135*
%
*
*
G04 Annular Aperture macro.*
%AMANN*
1,1,$1,0,0*
1,0,$2,0,0*
%
*
*
G04 Odd Aperture macro.*
%AMODD*
1,1,$1,0,0*
1,0,$1-0.005,0,0*
%
*
*
G04 PC Custom Aperture Macros*
*
*
*
*
*
*
G04 PC Aperture Table*
*
%ADD020C,0.01*%
%ADD021C,0.07299*%
%ADD022C,0.1478*%
%ADD023C,0.12811*%
%ADD024C,0.16748*%
%ADD025C,0.07*%
%ADD026C,0.10843*%
%ADD027C,0.15961*%
%ADD028C,0.08874*%
%ADD029C,0.17142*%
*
*
*
*
G04 PC Copper Outlines (0)*
G04 Layer Name tca-i_v6.pcb - dark (0)*
%LPD*%
*
*
G04 PC Area=Custom_Thermal*
*
G04 PC Custom Flashes*
G04 Layer Name tca-i_v6.pcb - flashes*
%LPD*%
*
*
G04 PC Circuitry*
G04 Layer Name tca-i_v6.pcb - circuitry*
%LPD*%
*
G54D20*
G01X100000Y100000D02*
X385000D01*
Y514600*
X100000*
Y100000*
G54D21*
X361350Y130000D02*
X367650D01*
X361350Y140000D02*
X367650D01*
X361350Y150000D02*
X367650D01*
X115750Y129500D02*
X122050D01*
X115750Y139500D02*
X122050D01*
X115750Y149500D02*
X122050D01*
X251650Y259800D02*
X257950D01*
X251650Y269800D02*
X257950D01*
X251650Y279800D02*
X257950D01*
G54D22*
X359500Y297200D03*
X280760Y277515D03*
Y238145D03*
X359500Y218460D03*
G54D23*
X227030Y139800D03*
X246715D03*
X266400D03*
X286085D03*
X305770D03*
X177400Y282400D03*
X207400D03*
X365000Y355800D03*
Y444383D03*
X188000Y358200D03*
Y456625D03*
X246800Y358200D03*
Y456625D03*
X290700Y356000D03*
X320500Y355800D03*
Y420800D03*
X290700Y434800D03*
X320500Y448300D03*
X138082Y191100D03*
X153830D03*
X169578D03*
X185326D03*
X201074D03*
X216822D03*
X232570D03*
X248318D03*
X150161Y233205D03*
X233823D03*
X127200Y229400D03*
Y249400D03*
X276200Y176800D03*
X325413D03*
X129400Y309200D03*
Y407625D03*
G54D24*
X128575Y486100D03*
X167945D03*
X207315D03*
X246685D03*
X286055D03*
X325425D03*
G54D25*
X331200Y120700D03*
X341200D03*
G54D26*
X348200Y469400D03*
Y489400D03*
X374500Y469300D03*
Y489300D03*
X276206Y191643D03*
X296206D03*
X158105Y129783D03*
X207318D03*
X158105Y148783D03*
X207318D03*
G54D27*
X188000Y368200D03*
X246800D03*
X129400Y319200D03*
G54D28*
X344383Y321300D03*
X379383D03*
G54D29*
X142900Y142800D03*
X339400Y143700D03*
X339800Y426600D03*
X143400Y426000D03*
X0Y0D02*
M02*
