*
*
G04 PADS Layout (Build Number 2007.42.1) generated Gerber (RS-274-X) file*
G04 PC Version=2.1*
*
%IN "tca-i_v6.pcb"*%
*
%MOIN*%
*
%FSLAX35Y35*%
*
*
*
*
G04 PC Standard Apertures*
*
*
G04 Thermal Relief Aperture macro.*
%AMTER*
1,1,$1,0,0*
1,0,$1-$2,0,0*
21,0,$3,$4,0,0,45*
21,0,$3,$4,0,0,135*
%
*
*
G04 Annular Aperture macro.*
%AMANN*
1,1,$1,0,0*
1,0,$2,0,0*
%
*
*
G04 Odd Aperture macro.*
%AMODD*
1,1,$1,0,0*
1,0,$1-0.005,0,0*
%
*
*
G04 PC Custom Aperture Macros*
*
*
*
*
*
*
G04 PC Aperture Table*
*
%ADD020C,0.01*%
%ADD030C,0.001*%
%ADD031C,0.005*%
%ADD032C,0.00001*%
%ADD033C,0.004*%
*
*
*
*
G04 PC Copper Outlines (0)*
G04 Layer Name tca-i_v6.pcb - dark (0)*
%LPD*%
*
*
G04 PC Area=Custom_Thermal*
*
G04 PC Custom Flashes*
G04 Layer Name tca-i_v6.pcb - flashes*
%LPD*%
*
*
G04 PC Circuitry*
G04 Layer Name tca-i_v6.pcb - circuitry*
%LPD*%
*
G54D20*
G01X356626Y157559D02*
X372374D01*
Y122126*
X356626*
Y157559*
X111026Y157059D02*
X126774D01*
Y121626*
X111026*
Y157059*
X246926Y287359D02*
X262674D01*
Y251926*
X246926*
Y287359*
X383500Y313200D02*
X267500D01*
Y201200*
X383500*
Y313200*
X215219Y124052D02*
X317581D01*
Y155548*
X215219*
Y124052*
X116764Y501848D02*
X337236D01*
Y470352*
X116764*
Y501848*
X327263Y124637D02*
X346948D01*
Y116763*
X327263*
Y124637*
X222916Y282400D02*
G75*
G03X222916I-30516J0D01*
G01X342294Y495975D02*
X354106D01*
Y462510*
X342294*
Y495975*
X368594Y495875D02*
X380406D01*
Y462410*
X368594*
Y495875*
X349252Y450288D02*
X380748D01*
Y351863*
X349252*
Y450288*
X160441Y354263D02*
X215559D01*
Y464499*
X160441*
Y354263*
X219241D02*
X274359D01*
Y464499*
X219241*
Y354263*
X301621Y197143D02*
X302721Y196043D01*
Y187243*
X301621Y186143*
X270821*
X269721Y187243*
Y196043*
X270821Y197143*
X301621*
X328374Y347926D02*
X283098D01*
Y468005*
X328374*
Y347926*
X128239Y179289D02*
X258161D01*
Y206848*
X128239*
Y179289*
X144256Y220803D02*
X145634Y219425D01*
X237366*
X238744Y220803*
Y245607*
X237366Y246985*
X145634*
X144256Y245607*
Y220803*
X113420Y221526D02*
X140980D01*
Y256959*
X113420*
Y221526*
X194605Y133283D02*
Y126283D01*
X193605Y133283D02*
Y126283D01*
X167948Y125846D02*
X197968D01*
Y133720*
X167948*
Y125846*
Y129783D02*
X164011D01*
X197968D02*
X201412D01*
X194605Y152283D02*
Y145283D01*
X193605Y152283D02*
Y145283D01*
X167948Y144846D02*
X197968D01*
Y152720*
X167948*
Y144846*
Y148783D02*
X164011D01*
X197968D02*
X201412D01*
X281200Y176800D02*
X286200D01*
X321200D02*
X316200D01*
X286200Y181300D02*
X316200D01*
Y172300*
X286200*
Y181300*
X354226Y317363D02*
X369974D01*
Y325237*
X354226*
Y317363*
Y321300D02*
X350289D01*
X369974D02*
X373911D01*
X356588Y325237D02*
Y317363D01*
X357361Y324711D02*
Y317625D01*
X113652Y317074D02*
X145148D01*
Y415499*
X113652*
Y317074*
X113574Y289163D02*
X141133D01*
Y297037*
X113574*
Y289163*
X105700Y293100D02*
X149007D01*
X230091Y337763D02*
Y331200D01*
X228500Y337763D02*
X231682D01*
X233727D02*
X235545Y334638D01*
X235545D02*
Y331200D01*
X237364Y337763D02*
X235545Y334638D01*
X239409Y337763D02*
Y331200D01*
Y337763D02*
X241455D01*
X241455D02*
X242136Y337450D01*
X242364Y337138*
X242364D02*
X242591Y336513D01*
X242591D02*
Y335575D01*
X242364Y334950*
X242136Y334638*
X242136D02*
X241455Y334325D01*
X239409*
X251455Y337763D02*
Y331200D01*
X249864Y337763D02*
X253045D01*
X258500Y336200D02*
X258273Y336825D01*
X257818Y337450*
X257364Y337763*
X257364D02*
X256455D01*
X256455D02*
X256000Y337450D01*
X255545Y336825*
X255318Y336200*
X255091Y335263*
X255091D02*
Y333700D01*
X255318Y332763*
X255318D02*
X255545Y332138D01*
X255545D02*
X256000Y331513D01*
X256000D02*
X256455Y331200D01*
X257364*
X257818Y331513*
X257818D02*
X258273Y332138D01*
X258273D02*
X258500Y332763D01*
X262364Y337763D02*
X260545Y331200D01*
X262364Y337763D02*
X264182Y331200D01*
X261227Y333388D02*
X263500D01*
X266227Y334013D02*
X270318D01*
X272364Y337763D02*
Y331200D01*
X274409Y334013D02*
X278500D01*
X283500Y335575D02*
X283273Y334638D01*
X283273D02*
X282818Y334013D01*
X282818D02*
X282136Y333700D01*
X281909*
X281227Y334013*
X281227D02*
X280773Y334638D01*
X280773D02*
X280545Y335575D01*
Y335888*
X280545D02*
X280773Y336825D01*
X281227Y337450*
X281909Y337763*
X281909D02*
X282136D01*
X282136D02*
X282818Y337450D01*
X283273Y336825*
X283500Y335575*
Y334013*
X283500D02*
X283273Y332450D01*
X282818Y331513*
X282818D02*
X282136Y331200D01*
X281682*
X281000Y331513*
X281000D02*
X280773Y332138D01*
X285545Y336513D02*
X286000Y336825D01*
X286682Y337763*
X286682D02*
Y331200D01*
X288727Y336513D02*
X289182Y336825D01*
X289864Y337763*
X289864D02*
Y331200D01*
X292136Y336200D02*
Y336513D01*
X292136D02*
X292364Y337138D01*
X292364D02*
X292591Y337450D01*
X293045Y337763*
X293045D02*
X293955D01*
X293955D02*
X294409Y337450D01*
X294636Y337138*
X294636D02*
X294864Y336513D01*
X294864D02*
Y335888D01*
X294864D02*
X294636Y335263D01*
X294636D02*
X294182Y334325D01*
X291909Y331200*
X295091*
X114100Y285263D02*
Y278700D01*
Y285263D02*
X117055D01*
X114100Y282138D02*
X115918D01*
X124327Y284013D02*
X124782Y284325D01*
X125464Y285263*
X125464D02*
Y278700D01*
X127736Y279325D02*
X127509Y279013D01*
X127509D02*
X127736Y278700D01*
X127964Y279013*
X127964D02*
X127736Y279325D01*
X130236Y283700D02*
Y284013D01*
X130236D02*
X130464Y284638D01*
X130464D02*
X130691Y284950D01*
X131145Y285263*
X131145D02*
X132055D01*
X132055D02*
X132509Y284950D01*
X132736Y284638*
X132736D02*
X132964Y284013D01*
X132964D02*
Y283388D01*
X132964D02*
X132736Y282763D01*
X132736D02*
X132282Y281825D01*
X130009Y278700*
X133191*
X138191Y285263D02*
X135918D01*
X135918D02*
X135691Y282450D01*
X135918Y282763*
X135918D02*
X136600Y283075D01*
X137282*
X137964Y282763*
X137964D02*
X138418Y282138D01*
X138418D02*
X138645Y281200D01*
X138418Y280575*
X138191Y279638*
X138191D02*
X137736Y279013D01*
X137736D02*
X137055Y278700D01*
X136373*
X135691Y279013*
X135691D02*
X135464Y279325D01*
X135236Y279950*
X142509Y285263D02*
X140691Y278700D01*
X142509Y285263D02*
X144327Y278700D01*
X141373Y280888D02*
X143645D01*
X218745Y116814D02*
Y117126D01*
X218972Y117751*
X219199Y118064*
X219654Y118376*
X220563*
X221017Y118064*
X221245Y117751*
X221472Y117126*
Y116501*
X221245Y115876*
X220790Y114939*
X218517Y111814*
X221699*
X226017Y118376D02*
X223745Y114001D01*
X227154*
X226017Y118376D02*
Y111814D01*
X229199Y118376D02*
X231017Y111814D01*
X232836Y118376D02*
X231017Y111814D01*
X245397Y117126D02*
X245851Y117439D01*
X246533Y118376*
Y111814*
X264421Y116814D02*
Y117126D01*
X264648Y117751*
X264875Y118064*
X265330Y118376*
X266239*
X266694Y118064*
X266921Y117751*
X267148Y117126*
Y116501*
X266921Y115876*
X266466Y114939*
X264194Y111814*
X267375*
X285494Y118374D02*
X287994D01*
X286630Y115874*
X287312*
X287767Y115561*
X287994Y115249*
X288221Y114311*
Y113686*
X287994Y112749*
X287539Y112124*
X286858Y111811*
X286176*
X285494Y112124*
X285267Y112436*
X285039Y113061*
X306691Y118376D02*
X304419Y114001D01*
X307828*
X306691Y118376D02*
Y111814D01*
X248835Y108695D02*
Y102133D01*
Y108695D02*
X250881D01*
X251563Y108383*
X251790Y108070*
X252017Y107445*
Y106508*
X251790Y105883*
X251563Y105570*
X250881Y105258*
X248835*
X255199Y106508D02*
X254744Y106195D01*
X254290Y105570*
X254063Y104633*
Y104008*
X254290Y103070*
X254744Y102445*
X255199Y102133*
X255881*
X256335Y102445*
X256790Y103070*
X257017Y104008*
Y104633*
X256790Y105570*
X256335Y106195*
X255881Y106508*
X255199*
X259744Y108695D02*
Y103383D01*
X259972Y102445*
X260426Y102133*
X260881*
X259063Y106508D02*
X260653D01*
X262926D02*
Y102133D01*
Y105258D02*
X263608Y106195D01*
X264063Y106508*
X264744*
X265199Y106195*
X265426Y105258*
Y102133*
Y105258D02*
X266108Y106195D01*
X266563Y106508*
X267244*
X267699Y106195*
X267926Y105258*
Y102133*
X269972Y104633D02*
X272699D01*
Y105258*
X272472Y105883*
X272244Y106195*
X271790Y106508*
X271108*
X270653Y106195*
X270199Y105570*
X269972Y104633*
Y104008*
X270199Y103070*
X270653Y102445*
X271108Y102133*
X271790*
X272244Y102445*
X272699Y103070*
X275426Y108695D02*
Y103383D01*
X275653Y102445*
X276108Y102133*
X276563*
X274744Y106508D02*
X276335D01*
X278608Y104633D02*
X281335D01*
Y105258*
X281108Y105883*
X280881Y106195*
X280426Y106508*
X279744*
X279290Y106195*
X278835Y105570*
X278608Y104633*
Y104008*
X278835Y103070*
X279290Y102445*
X279744Y102133*
X280426*
X280881Y102445*
X281335Y103070*
X283381Y106508D02*
Y102133D01*
Y104633D02*
X283608Y105570D01*
X284063Y106195*
X284517Y106508*
X285199*
X113008Y265462D02*
X113462Y265775D01*
X114144Y266712*
Y260150*
X119371Y266712D02*
X117099Y260150D01*
X116190Y266712D02*
X119371D01*
X121417D02*
X123235Y260150D01*
X125053Y266712D02*
X123235Y260150D01*
X134144Y266712D02*
X132326Y260150D01*
X134144Y266712D02*
X135962Y260150D01*
X133008Y262337D02*
X135281D01*
X141417Y265150D02*
X141190Y265775D01*
X140735Y266400*
X140281Y266712*
X139371*
X138917Y266400*
X138462Y265775*
X138235Y265150*
X138008Y264212*
Y262650*
X138235Y261712*
X138462Y261087*
X138917Y260462*
X139371Y260150*
X140281*
X140735Y260462*
X141190Y261087*
X141417Y261712*
X237629Y259678D02*
X237004Y259224D01*
X236691Y258542*
Y257633*
X237004Y256951*
X237629Y256496*
X238254*
X238879Y256724*
X239191Y256951*
X239504Y257405*
X240129Y258769*
X240441Y259224*
X240754Y259451*
X241379Y259678*
X242316*
X242941Y259224*
X243254Y258542*
Y257633*
X242941Y256951*
X242316Y256496*
X236691Y263314D02*
X243254D01*
X236691Y261724D02*
Y264905D01*
X237941Y272178D02*
X237629Y272633D01*
X236691Y273314*
X243254*
X236691Y278314D02*
Y276042D01*
X239504Y275814*
X239191Y276042*
X238879Y276724*
Y277405*
X239191Y278087*
X239816Y278542*
X240754Y278769*
X241379Y278542*
X242316Y278314*
X242941Y277860*
X243254Y277178*
Y276496*
X242941Y275814*
X242629Y275587*
X242004Y275360*
X236691Y280814D02*
X243254Y282633D01*
X236691Y284451D02*
X243254Y282633D01*
X126705Y511049D02*
Y504487D01*
X129432*
X162841Y511049D02*
Y504487D01*
Y511049D02*
X166023Y504487D01*
Y511049D02*
Y504487D01*
X202841Y509487D02*
X202614Y510112D01*
X202159Y510737*
X201705Y511049*
X200796*
X200341Y510737*
X199887Y510112*
X199659Y509487*
X199432Y508549*
Y506987*
X199659Y506049*
X199887Y505424*
X200341Y504799*
X200796Y504487*
X201705*
X202159Y504799*
X202614Y505424*
X202841Y506049*
Y506987*
X201705D02*
X202841D01*
X205114Y509487D02*
Y509799D01*
X205341Y510424*
X205568Y510737*
X206023Y511049*
X206932*
X207387Y510737*
X207614Y510424*
X207841Y509799*
Y509174*
X207614Y508549*
X207159Y507612*
X204887Y504487*
X208068*
X244887Y509487D02*
X244659Y510112D01*
X244205Y510737*
X243750Y511049*
X242841*
X242387Y510737*
X241932Y510112*
X241705Y509487*
X241477Y508549*
Y506987*
X241705Y506049*
X241932Y505424*
X242387Y504799*
X242841Y504487*
X243750*
X244205Y504799*
X244659Y505424*
X244887Y506049*
Y506987*
X243750D02*
X244887D01*
X246932Y509799D02*
X247387Y510112D01*
X248068Y511049*
Y504487*
X281477Y511049D02*
Y504487D01*
Y511049D02*
X283296Y504487D01*
X285114Y511049D02*
X283296Y504487D01*
X285114Y511049D02*
Y504487D01*
X287159Y509799D02*
X287614Y510112D01*
X288296Y511049*
Y504487*
X321705Y511049D02*
Y504487D01*
Y511049D02*
X323523Y504487D01*
X325341Y511049D02*
X323523Y504487D01*
X325341Y511049D02*
Y504487D01*
X327614Y509487D02*
Y509799D01*
X327841Y510424*
X328068Y510737*
X328523Y511049*
X329432*
X329887Y510737*
X330114Y510424*
X330341Y509799*
Y509174*
X330114Y508549*
X329659Y507612*
X327387Y504487*
X330568*
X100000Y100000D02*
X385000D01*
Y514600*
X100000*
Y100000*
G54D30*
X206518Y337662D02*
X208638D01*
X210057Y334936*
Y337662*
X212177*
Y331612*
X209952*
X208638Y334360*
Y331612*
X206518*
Y337662*
X172807Y335522D02*
X172877Y336505D01*
X173307Y337135*
X174296Y337607*
X175768Y337781*
X177608Y337515*
X178572Y336847*
X178799Y335598*
X178799D02*
Y335023D01*
X178799D02*
X176259D01*
Y336076*
X176180Y336646*
X175821Y336760*
X175418Y336625*
X175330Y336022*
Y333220*
X175418Y332644*
X175803Y332514*
X176171Y332644*
X176259Y333274*
Y334034*
X178799*
X178799D02*
Y333795D01*
X178799D02*
X178581Y332470D01*
X177634Y331781*
X175838Y331482*
X173999Y331732*
X173044Y332427*
X172807Y333763*
Y335522*
X182128Y332633D02*
X182461Y332514D01*
X182794Y332655*
X182864Y333328*
Y336109*
X182786Y336641*
X182479Y336760*
X182172Y336668*
X182058Y336109*
Y333285*
X179580*
X179535Y334121*
Y335153*
X179606Y336445*
X180035Y337135*
X181016Y337613*
X182461Y337781*
X183872Y337624*
X184871Y337151*
X185326Y336462*
X185405Y335153*
Y334121*
X185335Y332829*
X184897Y332134*
X183907Y331650*
X182461Y331482*
X181051Y331645*
X180052Y332123*
X179606Y332812*
X179580Y333285*
X182058*
X182128Y332633*
X186334Y337662D02*
X188454D01*
X189873Y334936*
Y337662*
X191993*
Y331612*
X189768*
X188454Y334360*
Y331612*
X186334*
Y337662*
X192851Y336087D02*
X193141Y337102D01*
X194060Y337602*
X195602Y337781*
X197284Y337586*
X198213Y337086*
X198441Y336065*
Y335826*
X196075*
Y336272*
X195988Y336673*
X195690Y336760*
X195339Y336646*
X195339D02*
X195217Y336293D01*
X195357Y335837*
X196075Y335468*
X198195Y334447*
X198651Y333155*
X198406Y332204*
X197460Y331688*
X195830Y331482*
X194096Y331721*
X193149Y332329*
X192922Y333383*
Y333774*
X195287*
Y333046*
X195383Y332606*
X195742Y332514*
X196110Y332633*
X196233Y333002*
X196005Y333698*
X194814Y334241*
X193561Y334805*
X193053Y335289*
X192851Y336087*
X202313Y332633D02*
X202646Y332514D01*
X202979Y332655*
X203049Y333328*
Y336109*
X202970Y336641*
X202663Y336760*
X202357Y336668*
X202243Y336109*
Y333285*
X199765*
X199720Y334121*
Y335153*
X199790Y336445*
X200219Y337135*
X201200Y337613*
X202646Y337781*
X204056Y337624*
X205055Y337151*
X205511Y336462*
X205589Y335153*
Y334121*
X205519Y332829*
X205081Y332134*
X204091Y331650*
X202646Y331482*
X201235Y331645*
X200237Y332123*
X199790Y332812*
X199765Y333285*
X202243*
X202313Y332633*
X174621Y338835D02*
X174544Y339010D01*
X177807Y341783*
X177824Y341794*
X181847Y344029*
X181865Y344037*
X186249Y345441*
X186268Y345445*
X190850Y345964*
X190854*
X191491Y346011*
X191496Y346012*
X192134Y346030*
X192138*
X192138D02*
X192749Y346021D01*
X192805Y346037*
X192805*
X192823Y346046*
X192842Y346053*
X192862Y346059*
X192882Y346062*
X192903Y346063*
X197821Y345776*
X197843Y345772*
X202582Y344429*
X202602Y344420*
X206938Y342083*
X206956Y342070*
X210489Y339019*
X210423Y338843*
X210187*
X210122Y338866*
X206565Y341861*
X206547Y341873*
X202419Y344070*
X202399Y344078*
X200505Y344619*
X200443Y344429*
X201817Y343925*
X201817D02*
X201835Y343916D01*
X205381Y341722*
X205397Y341710*
X208255Y339016*
X208186Y338843*
X207954*
X207885Y338871*
X205828Y340860*
X205817Y340869*
X203471Y342564*
X203459Y342572*
X202032Y343320*
X201926Y343152*
X202777Y342521*
X202790Y342509*
X204403Y340813*
X204414Y340799*
X205612Y338998*
X205529Y338843*
X205437*
X205337Y338743*
Y338715*
X203003Y341772*
X202982Y341792*
X199879Y344039*
X199853Y344052*
X196229Y345312*
X196211Y345316*
X195403Y345444*
X195398Y345445*
X194941Y345491*
X195644Y345244*
X195661Y345237*
X198249Y343751*
X198272Y343732*
X200311Y341562*
X200328Y341538*
X201592Y338982*
X201513Y338838*
X201322Y338816*
X201223Y338867*
X199550Y341917*
X199527Y341946*
X196839Y344231*
X196808Y344249*
X193754Y345329*
X193638Y345178*
X194856Y343403*
X194863Y343391*
X195950Y341191*
X195955Y341178*
X196672Y338989*
X196566Y338858*
X196365Y338882*
X196282Y338949*
X195507Y341232*
X195501Y341245*
X194375Y343441*
X194367Y343453*
X193007Y345357*
X192847Y345360*
X191373Y343466*
X191364Y343453*
X190144Y341240*
X190137Y341226*
X189298Y338909*
X189204Y338843*
X189007*
X188913Y338976*
X189684Y341176*
X189690Y341189*
X190842Y343368*
X190850Y343381*
X192132Y345119*
X192021Y345274*
X188790Y344224*
X188760Y344209*
X185833Y341959*
X185810Y341934*
X183828Y338873*
X183733Y338828*
X183542Y338849*
X183468Y339000*
X185163Y341795*
X185183Y341818*
X187743Y344071*
X187768Y344087*
X190899Y345477*
X190406Y345448*
X190403*
X189913Y345406*
X189910*
X189432Y345353*
X189409Y345347*
X185654Y343995*
X185629Y343981*
X182413Y341622*
X182393Y341602*
X179983Y338435*
X179947Y338406*
X179692Y338282*
X179564Y338426*
X181055Y340719*
X181069Y340735*
X183266Y342901*
X183283Y342914*
X184803Y343873*
X184710Y344049*
X182700Y343178*
X182684Y343169*
X179802Y341219*
X179788Y341208*
X177345Y338787*
X177260Y338759*
X177049Y338789*
X176992Y338959*
X179387Y341387*
X179402Y341399*
X182364Y343442*
X182381Y343452*
X183518Y343953*
X183446Y344139*
X181757Y343560*
X181741Y343552*
X178129Y341527*
X178114Y341516*
X174940Y338889*
X174888Y338867*
X174621Y338835*
G54D31*
X359350Y167084D02*
Y163670D01*
X359515Y162987*
X359846Y162532*
X360343Y162304*
X360674*
X361170Y162532*
X361502Y162987*
X361667Y163670*
Y167084*
X363157Y166174D02*
X363488Y166401D01*
X363985Y167084*
Y162304*
X113750Y166584D02*
Y163170D01*
X113915Y162487*
X114246Y162032*
X114743Y161804*
X115074*
X115570Y162032*
X115902Y162487*
X116067Y163170*
Y166584*
X117722Y165446D02*
Y165674D01*
X117888Y166129*
X118053Y166356*
X118385Y166584*
X119047*
X119378Y166356*
X119543Y166129*
X119709Y165674*
Y165218*
X119543Y164763*
X119212Y164080*
X117557Y161804*
X119874*
X249650Y296884D02*
Y293470D01*
X249815Y292787*
X250146Y292332*
X250643Y292104*
X250974*
X251470Y292332*
X251802Y292787*
X251967Y293470*
Y296884*
X253788D02*
X255609D01*
X254616Y295063*
X255112*
X255443Y294836*
X255609Y294608*
X255774Y293925*
Y293470*
X255609Y292787*
X255278Y292332*
X254781Y292104*
X254285*
X253788Y292332*
X253622Y292560*
X253457Y293015*
X337146Y264957D02*
X331979D01*
X337146Y266210D02*
Y263705D01*
Y262094D02*
X331979D01*
X337146D02*
Y260483D01*
X336900Y259947*
X336654Y259768*
X336162Y259589*
X335670*
X335178Y259768*
X334932Y259947*
X334686Y260483*
Y262094*
Y260841D02*
X331979Y259589D01*
X336162Y257978D02*
X336408Y257620D01*
X337146Y257083*
X331979*
X291833Y129721D02*
Y127221D01*
X291719Y126752*
X291606Y126596*
X291378Y126439*
X291151*
X290924Y126596*
X290810Y126752*
X290696Y127221*
Y127533*
X292856Y129096D02*
X293083Y129252D01*
X293424Y129721*
Y126439*
X144155Y489869D02*
Y487369D01*
X144041Y486900*
X143928Y486744*
X143700Y486587*
X143473*
X143246Y486744*
X143132Y486900*
X143019Y487369*
Y487681*
X145291Y489087D02*
Y489244D01*
X145405Y489556*
X145519Y489712*
X145746Y489869*
X146200*
X146428Y489712*
X146541Y489556*
X146655Y489244*
Y488931*
X146541Y488619*
X146314Y488150*
X145178Y486587*
X146769*
X349009Y123621D02*
Y120340D01*
X349168Y119683*
X349486Y119246*
X349964Y119027*
X350282*
X350759Y119246*
X351077Y119683*
X351236Y120340*
Y123621*
X354259D02*
X352668Y120558D01*
X355055*
X354259Y123621D02*
Y119027D01*
X190885Y280928D02*
X190393Y280749D01*
X189901Y280391*
X189655Y280033*
Y279317*
X189901Y278959*
X190393Y278601*
X190885Y278422*
X191623Y278243*
X192854*
X193592Y278422*
X194084Y278601*
X194576Y278959*
X194822Y279317*
Y280033*
X194576Y280391*
X194084Y280749*
X193592Y280928*
X191377Y284865D02*
X192115Y284686D01*
X192607Y284328*
X192854Y283791*
Y283612*
X192607Y283075*
X192115Y282717*
X191377Y282538*
X191131*
X190393Y282717*
X189901Y283075*
X189655Y283612*
Y283791*
X189901Y284328*
X190393Y284686*
X191377Y284865*
X192607*
X193838Y284686*
X194576Y284328*
X194822Y283791*
Y283433*
X194576Y282896*
X194084Y282717*
X346154Y477028D02*
X350933D01*
X346154D02*
Y478518D01*
X346381Y479015*
X346609Y479180*
X347064Y479346*
X347519*
X347974Y479180*
X347974D02*
X348202Y479015D01*
X348430Y478518*
Y477028*
Y478187D02*
X350933Y479346D01*
X347292Y481001D02*
X347064D01*
X346609Y481167*
X346381Y481332*
X346154Y481663*
Y482325*
X346381Y482657*
X346609Y482822*
X347064Y482988*
X347519*
X347974Y482822*
X347974D02*
X348657Y482491D01*
X350933Y480836*
Y483153*
X372454Y476928D02*
X377233D01*
X372454D02*
Y478418D01*
X372681Y478915*
X372909Y479080*
X373364Y479246*
X373819*
X374274Y479080*
X374274D02*
X374502Y478915D01*
X374730Y478418*
Y476928*
Y478087D02*
X377233Y479246D01*
X373364Y480736D02*
X373136Y481067D01*
X372454Y481563*
X377233*
X362037Y398914D02*
X361545Y398735D01*
X361053Y398377*
X360806Y398019*
Y397304*
X361053Y396946*
X361545Y396588*
X362037Y396409*
X362775Y396230*
X364005*
X364743Y396409*
X365236Y396588*
X365728Y396946*
X365974Y397304*
Y398019*
X365728Y398377*
X365236Y398735*
X364743Y398914*
X361791Y400525D02*
X361545Y400883D01*
X360806Y401420*
X365974*
X285874Y192947D02*
X285715Y193385D01*
X285397Y193822*
X285079Y194041*
X284442*
X284124Y193822*
X283806Y193385*
X283647Y192947*
X283488Y192291*
Y191197*
X283647Y190541*
X283806Y190103*
X284124Y189666*
X284442Y189447*
X285079*
X285397Y189666*
X285715Y190103*
X285874Y190541*
X289533Y194041D02*
X287942Y189447D01*
X287306Y194041D02*
X289533D01*
X302433Y390900D02*
X307600D01*
X302433D02*
Y392511D01*
X302679Y393047*
X302925Y393226*
X303417Y393405*
X303909*
X304401Y393226*
X304647Y393047*
X304893Y392511*
Y390900*
Y392153D02*
X307600Y393405D01*
X302433Y395016D02*
X307600D01*
X302433D02*
Y397342D01*
X304893Y395016D02*
Y396448D01*
X307600Y395016D02*
Y397342D01*
X303417Y398953D02*
X303171Y399311D01*
X302433Y399848*
X307600*
X193529Y174139D02*
Y171639D01*
X193416Y171170*
X193302Y171014*
X193075Y170857*
X192847*
X192847D02*
X192620Y171014D01*
X192507Y171170*
X192393Y171639*
Y171951*
X194779Y174139D02*
X196029D01*
X195347Y172889*
X195347D02*
X195688D01*
X195916Y172732*
X196029Y172576*
X196143Y172107*
Y171795*
X196029Y171326*
X195802Y171014*
X195461Y170857*
X195120*
X194779Y171014*
X194666Y171170*
X194552Y171482*
X187925Y236113D02*
X187568Y236606D01*
X187031Y236852*
X186315*
X185778Y236606*
X185420Y236113*
Y235621*
X185599Y235129*
X185778Y234883*
X186136Y234637*
X187210Y234145*
X187568Y233899*
X187747Y233653*
X187925Y233161*
Y232423*
X187568Y231930*
X187031Y231684*
X186315*
X185778Y231930*
X185420Y232423*
X124075Y241168D02*
Y238668D01*
X123961Y238200*
X123847Y238043*
X123620Y237887*
X123393*
X123165Y238043*
X123052Y238200*
X122938Y238668*
Y238981*
X126575Y241168D02*
X125438D01*
X125325Y239762*
X125438Y239918*
X125779Y240075*
X126120*
X126461Y239918*
X126688Y239606*
X126802Y239137*
X126688Y238825*
X126575Y238356*
X126347Y238043*
X126006Y237887*
X125665*
X125325Y238043*
X125211Y238200*
X125097Y238512*
X177985Y132157D02*
Y127378D01*
Y132157D02*
X179143D01*
X179640Y131930*
X179971Y131474*
X180136Y131019*
X180302Y130336*
Y129198*
X180136Y128516*
X179971Y128060*
X179640Y127605*
X179143Y127378*
X177985*
X182123Y132157D02*
X183944D01*
X182951Y130336*
X183447*
X183778Y130109*
X183944Y129881*
X184109Y129198*
Y128743*
X183944Y128060*
X183613Y127605*
X183116Y127378*
X182619*
X182123Y127605*
X181957Y127833*
X181792Y128288*
X177985Y151157D02*
Y146378D01*
Y151157D02*
X179143D01*
X179640Y150930*
X179971Y150474*
X180136Y150019*
X180302Y149336*
Y148198*
X180136Y147516*
X179971Y147060*
X179640Y146605*
X179143Y146378*
X177985*
X183447Y151157D02*
X181792Y147971D01*
X184275*
X183447Y151157D02*
Y146378D01*
X296536Y179309D02*
Y174530D01*
Y179309D02*
X298026D01*
X298522Y179082*
X298688Y178854*
X298854Y178399*
Y177944*
X298688Y177489*
X298522Y177261*
X298026Y177033*
X296536*
X297695D02*
X298854Y174530D01*
X300343Y178399D02*
X300674Y178627D01*
X301171Y179309*
Y174530*
X303654Y179309D02*
X303157Y179082D01*
X302826Y178399*
X302661Y177261*
Y176578*
X302826Y175440*
X303157Y174757*
X303654Y174530*
X303985*
X304482Y174757*
X304813Y175440*
X304978Y176578*
Y177261*
X304813Y178399*
X304482Y179082*
X303985Y179309*
X303654*
X362977Y323485D02*
X360659Y318705D01*
Y323485D02*
X362977D01*
X360659Y318705D02*
X362977D01*
X364632Y322347D02*
Y322574D01*
X364798Y323030*
X364963Y323257*
X365294Y323485*
X365956*
X366287Y323257*
X366453Y323030*
X366619Y322574*
Y322119*
X366453Y321664*
X366122Y320981*
X364467Y318705*
X366784*
X127655Y363195D02*
X127163Y363016D01*
X126671Y362658*
X126425Y362300*
Y361584*
X126671Y361226*
X127163Y360868*
X127655Y360689*
X128394Y360510*
X129624*
X130362Y360689*
X130854Y360868*
X131346Y361226*
X131592Y361584*
Y362300*
X131346Y362658*
X130854Y363016*
X130362Y363195*
X127655Y364984D02*
X127409D01*
X126917Y365163*
X126671Y365342*
X126425Y365700*
Y366416*
X126671Y366774*
X126917Y366953*
X127409Y367132*
X127901*
X128394Y366953*
X129132Y366595*
X131592Y364805*
Y367311*
X113992Y305459D02*
Y300292D01*
Y305459D02*
X116318D01*
X113992Y302998D02*
X115423D01*
X118108Y304229D02*
Y304475D01*
X118287Y304967*
X118466Y305213*
X118824Y305459*
X119539*
X119897Y305213*
X120076Y304967*
X120255Y304475*
Y303983*
X120076Y303491*
X119718Y302752*
X117929Y300292*
X120434*
G54D32*
X174560Y330445D02*
X174568Y330463D01*
X175145Y330384*
X175151Y330382*
X178152Y327737*
X178153Y327736*
X181585Y325677*
X181586Y325676*
X185108Y324356*
X185116Y324374*
X182135Y325783*
X182133Y325784*
X179274Y327868*
X179272Y327870*
X176867Y330440*
X176872Y330457*
X177291Y330526*
X177300Y330523*
X179865Y327878*
X179867Y327877*
X182912Y325794*
X182913Y325793*
X186157Y324424*
X186166Y324442*
X183330Y326054*
X183328Y326055*
X180825Y328401*
X180824Y328403*
X178944Y331262*
X178946Y331275*
X179106Y331392*
X179120Y331389*
X179241Y331203*
X179245Y331200*
X179472Y331091*
X179476Y331088*
X181438Y328298*
X181439Y328296*
X184012Y326054*
X184014Y326053*
X187047Y324492*
X187050Y324491*
X190285Y323720*
X190291Y323738*
X187378Y325189*
X187376Y325191*
X184949Y327485*
X184947Y327487*
X183298Y330376*
X183306Y330391*
X183689Y330436*
X183699Y330431*
X185712Y327188*
X185714Y327185*
X188722Y324827*
X188725Y324825*
X192331Y323652*
X192342Y323667*
X190830Y325711*
X190829Y325713*
X189637Y327992*
Y327994*
X188815Y330418*
X188825Y330431*
X189210*
X189220Y330425*
X190063Y328001*
X190064Y327999*
X191282Y325734*
X191283Y325732*
X192837Y323698*
X192853*
X194324Y325728*
Y325729*
X195483Y327965*
X195484Y327967*
X196297Y330345*
X196305Y330352*
X196703Y330402*
X196714Y330389*
X195919Y327984*
X195918Y327983*
X194772Y325708*
X194771Y325706*
X193323Y323650*
X193335Y323635*
X196679Y324954*
X196682Y324956*
X199435Y327317*
X199438Y327319*
X201265Y330447*
X201274Y330451*
X201656Y330407*
X201664Y330393*
X200228Y327696*
X200227Y327694*
X198111Y325472*
X198109Y325470*
X195562Y323949*
X195570Y323931*
X199279Y325258*
X199282Y325259*
X202636Y327511*
X202638Y327513*
X205319Y330501*
X205337Y330495*
Y330441*
X205347Y330431*
X205732*
X205739Y330415*
X203480Y327749*
X203479Y327747*
X200697Y325599*
X200695Y325598*
X197674Y324151*
X197682Y324132*
X201510Y325430*
X201512Y325431*
X205131Y327578*
X205132Y327579*
X208225Y330429*
X208232Y330431*
X208724*
X208731Y330414*
X206229Y327942*
X206228Y327941*
X203320Y325920*
X203318Y325919*
X200107Y324427*
X200106*
X199223Y324129*
X203292Y325490*
X203294Y325491*
X207019Y327617*
X207020Y327619*
X210257Y330429*
X210264Y330431*
X210771*
X210778Y330414*
X207203Y327266*
X207201Y327264*
X203014Y324940*
X203012Y324939*
X198425Y323562*
X198423*
X193647Y323196*
X193646*
X193624Y323195*
X193624D02*
X193602D01*
X193602*
X193580Y323194*
X193580*
X193358Y323174*
X193358*
X193136Y323156*
X193136*
X192914Y323141*
X192914*
X192902*
X192902*
X192890*
X192890*
X192879Y323142*
X192877*
X192862Y323141*
X192861*
X192845*
X192845*
X192829Y323142*
X192828*
X192804Y323141*
X192802*
X192778Y323143*
X192777*
X192753Y323148*
X192751*
X187689Y323363*
X187687Y323364*
X182802Y324709*
X182800Y324710*
X178342Y327118*
X178340Y327119*
X174560Y330445*
G54D33*
X206017Y326840D02*
G03X179297I-13360J-32095D01*
G01X178736Y342190D02*
G03X206490Y341996I14137J37217D01*
G74*
G01X0Y0D02*
M02*
