*
*
G04 PADS Layout (Build Number 2007.42.1) generated Gerber (RS-274-X) file*
G04 PC Version=2.1*
*
%IN "147-0008_v4.pcb"*%
*
%MOIN*%
*
%FSLAX35Y35*%
*
*
*
*
G04 PC Standard Apertures*
*
*
G04 Thermal Relief Aperture macro.*
%AMTER*
1,1,$1,0,0*
1,0,$1-$2,0,0*
21,0,$3,$4,0,0,45*
21,0,$3,$4,0,0,135*
%
*
*
G04 Annular Aperture macro.*
%AMANN*
1,1,$1,0,0*
1,0,$2,0,0*
%
*
*
G04 Odd Aperture macro.*
%AMODD*
1,1,$1,0,0*
1,0,$1-0.005,0,0*
%
*
*
G04 PC Custom Aperture Macros*
*
*
*
*
*
*
G04 PC Aperture Table*
*
%ADD010C,0.09843*%
%ADD011C,0.177*%
%ADD012C,0.158*%
%ADD013C,0.075*%
%ADD014C,0.07874*%
%ADD015C,0.10236*%
%ADD016C,0.1378*%
%ADD017C,0.15748*%
%ADD018C,0.11811*%
%ADD019C,0.03937*%
%ADD020C,0.01969*%
%ADD021C,0.09449*%
%ADD022C,0.07087*%
%ADD023C,0.01575*%
%ADD024C,0.09055*%
%ADD025C,0.04331*%
%ADD026C,0.06299*%
%ADD027C,0.05512*%
%ADD028C,0.04724*%
%ADD029C,0.05906*%
%ADD030C,0.03346*%
%ADD031C,0.02756*%
%ADD032C,0.001*%
*
*
*
*
G04 PC Copper Outlines (0)*
G04 Layer Name 147-0008_v4.pcb - dark (0)*
%LPD*%
*
*
G04 PC Area=Custom_Thermal*
*
G04 PC Custom Flashes*
G04 Layer Name 147-0008_v4.pcb - flashes*
%LPD*%
*
*
G04 PC Circuitry*
G04 Layer Name 147-0008_v4.pcb - circuitry*
%LPD*%
*
G54D10*
G01X337244Y312717D03*
X337283Y292717D03*
X337205Y275197D03*
X337323Y255236D03*
G54D11*
X147126Y380000D03*
X344528Y380276D03*
X541969Y380551D03*
X620906Y295669D03*
X542323Y118110D03*
X344921Y117756D03*
X147441Y117638D03*
G54D12*
X195827Y380276D03*
X590827Y380669D03*
G54D13*
X132480Y160000D03*
X172480D03*
X234921Y159961D03*
X274921D03*
X319921Y120197D03*
Y160197D03*
X337441Y160079D03*
X377441D03*
X447077Y157262D03*
Y197262D03*
X469803Y270394D03*
Y310394D03*
G54D14*
X132441Y182835D03*
X142441D03*
X182441D03*
X222441D03*
X235039Y182638D03*
X245039D03*
X285039D03*
X325039D03*
X337362D03*
X347362D03*
X387362D03*
X427362D03*
X446998Y212223D03*
Y222223D03*
Y262223D03*
Y302223D03*
X118780Y339881D02*
Y298403D01*
X133757Y283425*
X164913*
X337283Y292717D02*
X337810Y293243D01*
X345273*
X362717Y275799*
Y275315*
X410845Y262815D02*
X418332D01*
X436951Y281435*
X455496*
X464449Y290387*
X541332*
X586142Y335197*
X414685Y250315D02*
X426682D01*
X435483Y259115*
Y267160*
X440702Y272380*
X459247*
X466917Y280049*
X479045*
X118780Y339881D02*
X144674Y365775D01*
X437453*
X468031Y335197*
G54D15*
X414685Y224134D02*
Y226496D01*
Y249134D02*
Y251496D01*
Y274134D02*
Y276496D01*
Y290276D02*
Y292638D01*
X397362Y249134D02*
Y251496D01*
Y274134D02*
Y276496D01*
Y290276D02*
Y292638D01*
X380039Y249134D02*
Y251496D01*
Y274134D02*
Y276496D01*
Y290276D02*
Y292638D01*
X362717Y224134D02*
Y226496D01*
Y249134D02*
Y251496D01*
Y274134D02*
Y276496D01*
Y290276D02*
Y292638D01*
X314882Y224134D02*
Y226496D01*
Y249134D02*
Y251496D01*
Y274134D02*
Y276496D01*
Y290276D02*
Y292638D01*
X297559Y249134D02*
Y251496D01*
Y274134D02*
Y276496D01*
Y290276D02*
Y292638D01*
X280236Y249134D02*
Y251496D01*
Y274134D02*
Y276496D01*
Y290276D02*
Y292638D01*
X262913Y224134D02*
Y226496D01*
Y249134D02*
Y251496D01*
Y274134D02*
Y276496D01*
Y290276D02*
Y292638D01*
X227323Y223976D02*
Y226339D01*
Y248976D02*
Y251339D01*
Y273976D02*
Y276339D01*
Y290118D02*
Y292480D01*
X210000Y248976D02*
Y251339D01*
Y273976D02*
Y276339D01*
Y290118D02*
Y292480D01*
X192677Y248976D02*
Y251339D01*
Y273976D02*
Y276339D01*
Y290118D02*
Y292480D01*
X175354Y223976D02*
Y226339D01*
Y248976D02*
Y251339D01*
Y273976D02*
Y276339D01*
Y290118D02*
Y292480D01*
G54D16*
X494764Y155354D03*
X519764D03*
X544764D03*
X494764Y207323D03*
X519764D03*
X544764D03*
X560906D03*
Y155354D03*
G54D17*
X134843Y224921D03*
Y309921D03*
X494646Y250354D03*
X579646D03*
G54D18*
X129803Y335315D03*
X149488D03*
X169173D03*
X188858D03*
X208543D03*
X228228D03*
X247913D03*
X267598D03*
X287283D03*
X306969D03*
X326654D03*
X346339D03*
X369606Y335197D03*
X389291D03*
X408976D03*
X428661D03*
X448346D03*
X468031D03*
X487717D03*
X507402D03*
X527087D03*
X546772D03*
X566457D03*
X586142D03*
X602205Y150433D03*
Y170118D03*
Y189803D03*
Y209488D03*
Y229173D03*
Y248858D03*
G54D19*
X109145Y127153D02*
X130267Y106032D01*
X305756*
X319921Y120197*
X305433Y229229D02*
Y174685D01*
X319921Y160197*
X494764Y155354D02*
Y124056D01*
X514800Y104020*
X605711*
X654689Y152998*
Y316506*
X109145Y127153D02*
Y249312D01*
X125935Y266102*
X165288*
X305433Y229229D02*
X314019Y237815D01*
X319902*
X337323Y255236*
X296929Y325276D02*
X306969Y335315D01*
X222070Y342798D02*
X223249Y343976D01*
X271186*
X277244Y337918*
Y332548*
X284517Y325276*
X296929*
X537717Y333021D02*
Y338948D01*
X557927Y359158*
X612036*
X654689Y316506*
X507402Y335197D02*
X516457Y326142D01*
X530837*
X537717Y333021*
G54D20*
X122620Y229307D02*
Y169860D01*
X132480Y160000*
X132441Y182835D02*
X142441D01*
X182441*
X172480Y160000D02*
X182441Y169961D01*
Y182835*
X228717Y180278D02*
Y166165D01*
X234921Y159961*
X228740Y185775D02*
Y209394D01*
X244661Y225315*
X262913*
X285039Y182638D02*
X245039D01*
X235039*
X222441Y182835D02*
Y209500D01*
X227323Y214382*
Y225157*
X274921Y159961D02*
X285039Y170079D01*
Y182638*
X331654Y193071D02*
Y165866D01*
X337441Y160079*
X331654Y193071D02*
X362717Y224134D01*
Y225315*
X387362Y182638D02*
X347362D01*
X337362*
X377441Y160079D02*
X388001Y170639D01*
Y182638*
X446998Y212223D02*
X447037D01*
Y197262*
X447077*
X446998Y212223D02*
Y222223D01*
X387362Y182638D02*
X388001D01*
X122620Y229307D02*
X131264Y237950D01*
X166890*
X199961Y302704D02*
Y283253D01*
X202717Y280497*
X203110Y287264D02*
Y297114D01*
X216614Y310618*
X166890Y237950D02*
Y257391D01*
X173310Y263812*
X179496*
X181814Y266129*
X194574*
X199567Y271123*
Y279192*
X200551Y260787D02*
X202717Y262953D01*
Y280497*
X166890Y237950D02*
Y235210D01*
X175354Y226746*
Y225157*
X203110Y287264D02*
X207146Y283228D01*
X212854*
X217148Y278934*
Y270510*
X228833Y258825*
X265885*
X270197Y254513*
Y246117*
X185787Y287264D02*
X189823Y283228D01*
X195531*
X199567Y279192*
X185787Y287264D02*
Y321276D01*
X188858Y324347*
Y335315*
X165288Y266102D02*
X165791Y266606D01*
X178339*
X180658Y268925*
X187626*
X192677Y273976*
Y275157*
X210000Y291299D02*
Y290118D01*
X220162Y279956*
Y271393*
X229240Y262315*
X234935*
X227323Y225157D02*
X237126Y234961D01*
X259041*
X270197Y246117*
X262913Y225315D02*
X283484D01*
X304449Y246280*
X327929Y319579D02*
Y292049D01*
X334397Y285581*
X341297*
X351496Y275382*
Y237717*
X362717Y226496*
X323473Y319659D02*
Y292051D01*
X333167Y282357*
X340066*
X344409Y278014*
X314882Y225315D02*
Y192795D01*
X325039Y182638*
X314882Y225315D02*
X332166D01*
X344409Y237559*
Y278014*
X362717Y225315D02*
Y226496D01*
X446998Y222223D02*
Y262223D01*
X469803Y270394D02*
Y232283D01*
X494764Y207323*
X169173Y335315D02*
X177244Y343386D01*
X211886*
X216614Y338658*
Y310618*
X247913Y335315D02*
X271575Y311654D01*
Y273052*
X280040Y264587*
X294212*
X304449Y254350*
Y246280*
X317656Y354618D02*
Y325475D01*
X323473Y319659*
X327929Y319579D02*
X336287Y327936D01*
Y336677*
X342996Y343386*
X400787*
X408976Y335197*
X326654Y335315D02*
X339067Y347728D01*
X428936*
X438406Y338259*
Y330295*
X446998Y321703*
Y310355*
X447037Y310394*
X469803*
X446998Y302223D02*
Y310355D01*
X469803Y310394D02*
X482117D01*
X487717Y315994*
Y335197*
G54D21*
X193071Y212149D02*
Y155794D01*
X211357Y137507*
X390697*
X410809Y157620*
Y200839*
X296614Y167999D02*
X314190Y150423D01*
X385834*
X398343Y162932*
Y186691*
X296614Y167999D02*
Y213302D01*
X397362Y250315D02*
Y214286D01*
X410809Y200839*
X380039Y250315D02*
Y204994D01*
X398343Y186691*
X427362Y182638D02*
Y163376D01*
X433476Y157262*
X447077*
X468396*
X470304Y155354*
X494764*
X519764D02*
Y172730D01*
X536836Y189803*
X602205*
X560906Y155354D02*
X565827Y150433D01*
X602205*
X560906Y207323D02*
X580965D01*
X583130Y209488*
X602205*
X544764Y207323D02*
Y221405D01*
X552532Y229173*
X602205*
X544764Y155354D02*
Y164994D01*
X549888Y170118*
X602205*
X134843Y224921D02*
X146811Y212953D01*
X192267*
X193071Y212149*
X175354Y250157D02*
X193071Y232441D01*
Y212149*
X192677Y250157D02*
X206490Y236345D01*
Y160063*
X216247Y150305*
X278921*
X296614Y167999*
X227323Y250157D02*
X210000D01*
X236378*
X236535Y250315*
X262913*
X380039D02*
X370850D01*
X362717*
X380039D02*
X392539Y262815D01*
X410845*
X397362Y250315D02*
X414685D01*
Y275315D02*
X415244Y274756D01*
X431766Y291277*
X451252*
X460323Y300348*
X530882*
X546772Y316238*
Y335197*
X414685Y225315D02*
X427362Y212638D01*
Y182638*
X479045Y280049D02*
X549089D01*
X598937Y329897*
Y340497*
X494646Y250354D02*
X519764Y225236D01*
Y207323*
X579646Y250354D02*
Y249606D01*
X602205*
Y248858*
X129803Y335315D02*
X134843Y330276D01*
Y309921*
X149488Y335315D02*
X168791Y354618D01*
X287314*
X317656*
X287283Y335315D02*
X287314D01*
Y354618*
X228228Y335315D02*
X245020Y318524D01*
Y282382*
X252087Y275315*
X262913*
X317656Y354618D02*
X431790D01*
X449779Y336629*
X337244Y312717D02*
X355723D01*
X362717Y305723*
Y291457*
X448346Y335197D02*
X449779Y336629D01*
X566457Y335197D02*
X579252Y347992D01*
X591442*
X598937Y340497*
G54D22*
X296614Y213302D02*
Y230124D01*
X314882Y248391*
Y250315*
G54D23*
X228717Y180278D02*
Y181284D01*
X228740Y181307*
Y185775*
X164913Y283425D02*
X185591D01*
X192677Y276339*
Y275157D02*
Y276339D01*
G54D24*
X107184Y292878D02*
Y374543D01*
X127475Y394834*
X467449*
X527087Y335197*
X107184Y292878D02*
X126282Y273780D01*
X173976*
X175354Y275157*
G54D25*
X219252Y301887D02*
Y286434D01*
X228335Y277351*
X227323Y275157D02*
X228335D01*
Y277351*
X219252Y301887D02*
X220586Y303221D01*
Y328367*
G54D26*
X200551Y260787D02*
X202439D01*
X210000Y253226*
Y250157*
X175354D02*
Y251339D01*
X184803Y260787*
X200551*
X314882Y275315D02*
X315563D01*
Y274815*
X336233Y254146*
X337323Y255236*
G54D27*
X280236Y275315D02*
Y276496D01*
X288898Y285157*
X380039Y275315D02*
Y276496D01*
X388701Y285157*
Y310593*
X389291Y311184*
Y335197*
X397362Y275315D02*
Y276496D01*
X406024Y285157*
Y312559*
X428661Y335197*
X199961Y302704D02*
Y326732D01*
X208543Y335315*
X288898Y302552D02*
Y285157D01*
X267598Y335315D02*
Y323851D01*
X288898Y302552*
X369606Y335197D02*
X389291D01*
X448346D02*
X458189Y325354D01*
X472108*
X477874Y331120*
Y339274*
X483640Y345039*
X497559*
X507402Y335197*
G54D28*
X297559Y275315D02*
Y277283D01*
X305827Y285551*
X370850Y250315D02*
X371378Y250843D01*
X296929Y325276D02*
X305827Y316378D01*
Y285551*
X346339Y335315D02*
X371378Y310276D01*
Y250843*
G54D29*
X227323Y291299D02*
Y290118D01*
X236368Y281073*
Y275649*
X239639Y272379*
X314882Y291457D02*
Y290276D01*
X329961Y275197*
X337205*
G54D30*
X234935Y262315D02*
X269417D01*
X280236Y251496*
Y250315*
X239639Y272379D02*
X245515Y266502D01*
X245515D02*
X272164D01*
X272164D02*
X278558Y260108D01*
X287766*
X297559Y250315*
G54D31*
X220157Y340885D02*
Y328795D01*
X220586Y328367*
X220157Y340885D02*
X222070Y342798D01*
G54D32*
X156299Y117638D02*
G75*
G03X156299I-8858J0D01*
G01X353779Y117756D02*
G03X353779I-8858J0D01*
G01X551181Y118110D02*
G03X551181I-8858J0D01*
G01X629764Y295669D02*
G03X629764I-8859J0D01*
G01X550827Y380551D02*
G03X550827I-8859J0D01*
G01X353386Y380276D02*
G03X353386I-8858J0D01*
G01X155984Y380000D02*
G03X155984I-8858J0D01*
G01X236811Y182638D02*
G03X236811I-1772J0D01*
G01X246614Y182717D02*
G03X246614I-1772J0D01*
G01X236693Y159961D02*
G03X236693I-1772J0D01*
G01X276654Y160157D02*
G03X276654I-1772J0D01*
G01X286732Y182677D02*
G03X286732I-1771J0D01*
G01X326654Y182795D02*
G03X326654I-1772J0D01*
G01X339134Y182638D02*
G03X339134I-1772J0D01*
G01X349134D02*
G03X349134I-1772J0D01*
G01X339213Y160079D02*
G03X339213I-1772J0D01*
G01X321614Y160157D02*
G03X321614I-1772J0D01*
G01X321693Y120197D02*
G03X321693I-1772J0D01*
G01X379252Y160157D02*
G03X379252I-1772J0D01*
G01X389213Y182835D02*
G03X389213I-1772J0D01*
G01X429055Y182638D02*
G03X429055I-1772J0D01*
G01X449094Y270315D02*
G03X449094I-1771J0D01*
G01X471575Y270394D02*
G03X471575I-1772J0D01*
G01Y310315D02*
G03X471575I-1772J0D01*
G01X448740Y310433D02*
G03X448740I-1772J0D01*
G01X417244Y225315D02*
G03X417244I-2559J0D01*
G01X364803D02*
G03X364803I-2559J0D01*
G01X317441D02*
G03X317441I-2559J0D01*
G01X264882Y225118D02*
G03X264882I-2559J0D01*
G01X264724Y250197D02*
G03X264724I-2559J0D01*
G01X282441D02*
G03X282441I-2559J0D01*
G01X299764Y250276D02*
G03X299764I-2559J0D01*
G01X317165Y250197D02*
G03X317165I-2559J0D01*
G01X339921Y255197D02*
G03X339921I-2559J0D01*
G01X364764Y250354D02*
G03X364764I-2559J0D01*
G01X382402D02*
G03X382402I-2560J0D01*
G01X399842D02*
G03X399842I-2559J0D01*
G01X417402Y250472D02*
G03X417402I-2560J0D01*
G01X417244Y275354D02*
G03X417244I-2559J0D01*
G01Y292126D02*
G03X417244I-2559J0D01*
G01X399685Y292283D02*
G03X399685I-2559J0D01*
G01X399882Y275315D02*
G03X399882I-2559J0D01*
G01X382205Y275276D02*
G03X382205I-2559J0D01*
G01X382165Y292205D02*
G03X382165I-2559J0D01*
G01X364724D02*
G03X364724I-2559J0D01*
G01X364961Y275118D02*
G03X364961I-2559J0D01*
G01X339764D02*
G03X339764I-2559J0D01*
G01X339803Y292717D02*
G03X339803I-2559J0D01*
G01Y312717D02*
G03X339803I-2559J0D01*
G01X317283Y292244D02*
G03X317283I-2559J0D01*
G01X317323Y275197D02*
G03X317323I-2559J0D01*
G01X299724D02*
G03X299724I-2559J0D01*
G01X299606Y292087D02*
G03X299606I-2559J0D01*
G01X282205Y292244D02*
G03X282205I-2559J0D01*
G01X282283Y275276D02*
G03X282283I-2559J0D01*
G01X264646Y275315D02*
G03X264646I-2559J0D01*
G01X264764Y292126D02*
G03X264764I-2559J0D01*
G01X497795Y250354D02*
G03X497795I-3149J0D01*
G01X582835Y250669D02*
G03X582835I-3150J0D01*
G01X598701Y380669D02*
G03X598701I-7874J0D01*
G01X203701Y380276D02*
G03X203701I-7874J0D01*
G01X134252Y160000D02*
G03X134252I-1772J0D01*
G01X174252D02*
G03X174252I-1772J0D01*
G01X223583Y182717D02*
G03X223583I-1772J0D01*
G01X134213Y182835D02*
G03X134213I-1772J0D01*
G01X144094Y182638D02*
G03X144094I-1771J0D01*
G01X184094Y182520D02*
G03X184094I-1771J0D01*
G01X132323Y334921D02*
G03X132323I-2559J0D01*
G01X152165Y335118D02*
G03X152165I-2559J0D01*
G01X171693Y335354D02*
G03X171693I-2559J0D01*
G01X191378Y335157D02*
G03X191378I-2559J0D01*
G01X210945Y335039D02*
G03X210945I-2559J0D01*
G01X230669Y335197D02*
G03X230669I-2559J0D01*
G01X250551Y335236D02*
G03X250551I-2559J0D01*
G01X270157Y335000D02*
G03X270157I-2559J0D01*
G01X289606Y335236D02*
G03X289606I-2559J0D01*
G01X309449Y335354D02*
G03X309449I-2559J0D01*
G01X329016Y335197D02*
G03X329016I-2559J0D01*
G01X348858D02*
G03X348858I-2559J0D01*
G01X372165D02*
G03X372165I-2559J0D01*
G01X391850Y335394D02*
G03X391850I-2559J0D01*
G01X411378Y335236D02*
G03X411378I-2559J0D01*
G01X431260D02*
G03X431260I-2559J0D01*
G01X450945Y335433D02*
G03X450945I-2559J0D01*
G01X470472Y335354D02*
G03X470472I-2559J0D01*
G01X490354Y335433D02*
G03X490354I-2559J0D01*
G01X509961Y335394D02*
G03X509961I-2559J0D01*
G01X529528Y335433D02*
G03X529528I-2560J0D01*
G01X549291Y335551D02*
G03X549291I-2559J0D01*
G01X568898Y335591D02*
G03X568898I-2559J0D01*
G01X588465Y335551D02*
G03X588465I-2560J0D01*
G01X604803Y150433D02*
G03X604803I-2559J0D01*
G01Y170236D02*
G03X604803I-2559J0D01*
G01Y189528D02*
G03X604803I-2559J0D01*
G01Y209094D02*
G03X604803I-2559J0D01*
G01X604764Y229291D02*
G03X604764I-2559J0D01*
G01X604724Y248583D02*
G03X604724I-2559J0D01*
G74*
G01X0Y0D02*
M02*
