*
*
G04 PADS Layout (Build Number 2007.42.1) generated Gerber (RS-274-X) file*
G04 PC Version=2.1*
*
%IN "147-0008_v4.pcb"*%
*
%MOIN*%
*
%FSLAX35Y35*%
*
*
*
*
G04 PC Standard Apertures*
*
*
G04 Thermal Relief Aperture macro.*
%AMTER*
1,1,$1,0,0*
1,0,$1-$2,0,0*
21,0,$3,$4,0,0,45*
21,0,$3,$4,0,0,135*
%
*
*
G04 Annular Aperture macro.*
%AMANN*
1,1,$1,0,0*
1,0,$2,0,0*
%
*
*
G04 Odd Aperture macro.*
%AMODD*
1,1,$1,0,0*
1,0,$1-0.005,0,0*
%
*
*
G04 PC Custom Aperture Macros*
*
*
*
*
*
*
G04 PC Aperture Table*
*
%ADD032C,0.001*%
%ADD042C,0.01*%
*
*
*
*
G04 PC Copper Outlines (0)*
G04 Layer Name 147-0008_v4.pcb - dark (0)*
%LPD*%
*
*
G04 PC Area=Custom_Thermal*
*
G04 PC Custom Flashes*
G04 Layer Name 147-0008_v4.pcb - flashes*
%LPD*%
*
*
G04 PC Circuitry*
G04 Layer Name 147-0008_v4.pcb - circuitry*
%LPD*%
*
G54D32*
G01X156299Y117638D02*
G75*
G03X156299I-8858J0D01*
G01X353779Y117756D02*
G03X353779I-8858J0D01*
G01X551181Y118110D02*
G03X551181I-8858J0D01*
G01X629764Y295669D02*
G03X629764I-8859J0D01*
G01X550827Y380551D02*
G03X550827I-8859J0D01*
G01X353386Y380276D02*
G03X353386I-8858J0D01*
G01X155984Y380000D02*
G03X155984I-8858J0D01*
G01X236811Y182638D02*
G03X236811I-1772J0D01*
G01X246614Y182717D02*
G03X246614I-1772J0D01*
G01X236693Y159961D02*
G03X236693I-1772J0D01*
G01X276654Y160157D02*
G03X276654I-1772J0D01*
G01X286732Y182677D02*
G03X286732I-1771J0D01*
G01X326654Y182795D02*
G03X326654I-1772J0D01*
G01X339134Y182638D02*
G03X339134I-1772J0D01*
G01X349134D02*
G03X349134I-1772J0D01*
G01X339213Y160079D02*
G03X339213I-1772J0D01*
G01X321614Y160157D02*
G03X321614I-1772J0D01*
G01X321693Y120197D02*
G03X321693I-1772J0D01*
G01X379252Y160157D02*
G03X379252I-1772J0D01*
G01X389213Y182835D02*
G03X389213I-1772J0D01*
G01X429055Y182638D02*
G03X429055I-1772J0D01*
G01X449094Y270315D02*
G03X449094I-1771J0D01*
G01X471575Y270394D02*
G03X471575I-1772J0D01*
G01Y310315D02*
G03X471575I-1772J0D01*
G01X448740Y310433D02*
G03X448740I-1772J0D01*
G01X417244Y225315D02*
G03X417244I-2559J0D01*
G01X364803D02*
G03X364803I-2559J0D01*
G01X317441D02*
G03X317441I-2559J0D01*
G01X264882Y225118D02*
G03X264882I-2559J0D01*
G01X264724Y250197D02*
G03X264724I-2559J0D01*
G01X282441D02*
G03X282441I-2559J0D01*
G01X299764Y250276D02*
G03X299764I-2559J0D01*
G01X317165Y250197D02*
G03X317165I-2559J0D01*
G01X339921Y255197D02*
G03X339921I-2559J0D01*
G01X364764Y250354D02*
G03X364764I-2559J0D01*
G01X382402D02*
G03X382402I-2560J0D01*
G01X399842D02*
G03X399842I-2559J0D01*
G01X417402Y250472D02*
G03X417402I-2560J0D01*
G01X417244Y275354D02*
G03X417244I-2559J0D01*
G01Y292126D02*
G03X417244I-2559J0D01*
G01X399685Y292283D02*
G03X399685I-2559J0D01*
G01X399882Y275315D02*
G03X399882I-2559J0D01*
G01X382205Y275276D02*
G03X382205I-2559J0D01*
G01X382165Y292205D02*
G03X382165I-2559J0D01*
G01X364724D02*
G03X364724I-2559J0D01*
G01X364961Y275118D02*
G03X364961I-2559J0D01*
G01X339764D02*
G03X339764I-2559J0D01*
G01X339803Y292717D02*
G03X339803I-2559J0D01*
G01Y312717D02*
G03X339803I-2559J0D01*
G01X317283Y292244D02*
G03X317283I-2559J0D01*
G01X317323Y275197D02*
G03X317323I-2559J0D01*
G01X299724D02*
G03X299724I-2559J0D01*
G01X299606Y292087D02*
G03X299606I-2559J0D01*
G01X282205Y292244D02*
G03X282205I-2559J0D01*
G01X282283Y275276D02*
G03X282283I-2559J0D01*
G01X264646Y275315D02*
G03X264646I-2559J0D01*
G01X264764Y292126D02*
G03X264764I-2559J0D01*
G01X497795Y250354D02*
G03X497795I-3149J0D01*
G01X582835Y250669D02*
G03X582835I-3150J0D01*
G01X598701Y380669D02*
G03X598701I-7874J0D01*
G01X203701Y380276D02*
G03X203701I-7874J0D01*
G01X134252Y160000D02*
G03X134252I-1772J0D01*
G01X174252D02*
G03X174252I-1772J0D01*
G01X223583Y182717D02*
G03X223583I-1772J0D01*
G01X134213Y182835D02*
G03X134213I-1772J0D01*
G01X144094Y182638D02*
G03X144094I-1771J0D01*
G01X184094Y182520D02*
G03X184094I-1771J0D01*
G01X132323Y334921D02*
G03X132323I-2559J0D01*
G01X152165Y335118D02*
G03X152165I-2559J0D01*
G01X171693Y335354D02*
G03X171693I-2559J0D01*
G01X191378Y335157D02*
G03X191378I-2559J0D01*
G01X210945Y335039D02*
G03X210945I-2559J0D01*
G01X230669Y335197D02*
G03X230669I-2559J0D01*
G01X250551Y335236D02*
G03X250551I-2559J0D01*
G01X270157Y335000D02*
G03X270157I-2559J0D01*
G01X289606Y335236D02*
G03X289606I-2559J0D01*
G01X309449Y335354D02*
G03X309449I-2559J0D01*
G01X329016Y335197D02*
G03X329016I-2559J0D01*
G01X348858D02*
G03X348858I-2559J0D01*
G01X372165D02*
G03X372165I-2559J0D01*
G01X391850Y335394D02*
G03X391850I-2559J0D01*
G01X411378Y335236D02*
G03X411378I-2559J0D01*
G01X431260D02*
G03X431260I-2559J0D01*
G01X450945Y335433D02*
G03X450945I-2559J0D01*
G01X470472Y335354D02*
G03X470472I-2559J0D01*
G01X490354Y335433D02*
G03X490354I-2559J0D01*
G01X509961Y335394D02*
G03X509961I-2559J0D01*
G01X529528Y335433D02*
G03X529528I-2560J0D01*
G01X549291Y335551D02*
G03X549291I-2559J0D01*
G01X568898Y335591D02*
G03X568898I-2559J0D01*
G01X588465Y335551D02*
G03X588465I-2560J0D01*
G01X604803Y150433D02*
G03X604803I-2559J0D01*
G01Y170236D02*
G03X604803I-2559J0D01*
G01Y189528D02*
G03X604803I-2559J0D01*
G01Y209094D02*
G03X604803I-2559J0D01*
G01X604764Y229291D02*
G03X604764I-2559J0D01*
G01X604724Y248583D02*
G03X604724I-2559J0D01*
G54D42*
G01X333244Y308717D02*
X341244Y316717D01*
Y308717*
X333244Y316717*
Y308717*
X143126Y380000D02*
X151126D01*
X147126Y376000D02*
Y384000D01*
X340528Y380276D02*
X348528D01*
X344528Y376276D02*
Y384276D01*
X537969Y380551D02*
X545969D01*
X541969Y376551D02*
Y384551D01*
X616906Y295669D02*
X624906D01*
X620906Y291669D02*
Y299669D01*
X538323Y118110D02*
X546323D01*
X542323Y114110D02*
Y122110D01*
X340921Y117756D02*
X348921D01*
X344921Y113756D02*
Y121756D01*
X143441Y117638D02*
X151441D01*
X147441Y113638D02*
Y121638D01*
X191827Y380276D02*
X199827D01*
X195827Y376276D02*
Y384276D01*
X198736Y385557D02*
X197827Y382276D01*
X198736Y385557D02*
X199645Y382276D01*
X198168Y383369D02*
X199304D01*
X586827Y380669D02*
X594827D01*
X590827Y376669D02*
Y384669D01*
X593736Y385951D02*
X592827Y382669D01*
X593736Y385951D02*
X594645Y382669D01*
X593168Y383763D02*
X594304D01*
X128480Y156000D02*
X136480Y164000D01*
X128480D02*
X136480Y156000D01*
X168480D02*
X176480Y164000D01*
X168480D02*
X176480Y156000D01*
X230921Y155961D02*
X238921Y163961D01*
X230921D02*
X238921Y155961D01*
X270921D02*
X278921Y163961D01*
X270921D02*
X278921Y155961D01*
X315921Y116197D02*
X323921Y124197D01*
X315921D02*
X323921Y116197D01*
X315921Y156197D02*
X323921Y164197D01*
X315921D02*
X323921Y156197D01*
X333441Y156079D02*
X341441Y164079D01*
X333441D02*
X341441Y156079D01*
X373441D02*
X381441Y164079D01*
X373441D02*
X381441Y156079D01*
X443077Y153262D02*
X451077Y161262D01*
X443077D02*
X451077Y153262D01*
X443077Y193262D02*
X451077Y201262D01*
X443077D02*
X451077Y193262D01*
X128441Y178835D02*
X136441D01*
Y186835*
X128441*
Y178835*
X132441Y182835D02*
Y186835D01*
X138441Y178835D02*
X146441D01*
Y186835*
X138441*
Y178835*
X142441Y182835D02*
Y186835D01*
X178441Y178835D02*
X186441D01*
Y186835*
X178441*
Y178835*
X182441Y182835D02*
Y186835D01*
X218441Y178835D02*
X226441D01*
Y186835*
X218441*
Y178835*
X222441Y182835D02*
Y186835D01*
X231039Y178638D02*
X239039D01*
Y186638*
X231039*
Y178638*
X235039Y182638D02*
Y186638D01*
X241039Y178638D02*
X249039D01*
Y186638*
X241039*
Y178638*
X245039Y182638D02*
Y186638D01*
X281039Y178638D02*
X289039D01*
Y186638*
X281039*
Y178638*
X285039Y182638D02*
Y186638D01*
X321039Y178638D02*
X329039D01*
Y186638*
X321039*
Y178638*
X325039Y182638D02*
Y186638D01*
X333362Y178638D02*
X341362D01*
Y186638*
X333362*
Y178638*
X337362Y182638D02*
Y186638D01*
X343362Y178638D02*
X351362D01*
Y186638*
X343362*
Y178638*
X347362Y182638D02*
Y186638D01*
X383362Y178638D02*
X391362D01*
Y186638*
X383362*
Y178638*
X387362Y182638D02*
Y186638D01*
X423362Y178638D02*
X431362D01*
Y186638*
X423362*
Y178638*
X427362Y182638D02*
Y186638D01*
X442998Y208223D02*
X450998D01*
Y216223*
X442998*
Y208223*
X446998Y212223D02*
Y216223D01*
X442998Y218223D02*
X450998D01*
Y226223*
X442998*
Y218223*
X446998Y222223D02*
Y226223D01*
X442998Y258223D02*
X450998D01*
Y266223*
X442998*
Y258223*
X446998Y262223D02*
Y266223D01*
X442998Y298223D02*
X450998D01*
Y306223*
X442998*
Y298223*
X446998Y302223D02*
Y306223D01*
X465803Y266394D02*
X473803Y274394D01*
X465803D02*
X473803Y266394D01*
X465803Y306394D02*
X473803Y314394D01*
X465803D02*
X473803Y306394D01*
X414685Y221315D02*
X418685Y225315D01*
X414685Y229315*
X410685Y225315*
X414685Y221315*
Y225315D02*
Y229315D01*
Y246315D02*
X418685Y250315D01*
X414685Y254315*
X410685Y250315*
X414685Y246315*
Y250315D02*
Y254315D01*
Y271315D02*
X418685Y275315D01*
X414685Y279315*
X410685Y275315*
X414685Y271315*
Y275315D02*
Y279315D01*
Y287457D02*
X418685Y291457D01*
X414685Y295457*
X410685Y291457*
X414685Y287457*
Y291457D02*
Y295457D01*
X397362Y246315D02*
X401362Y250315D01*
X397362Y254315*
X393362Y250315*
X397362Y246315*
Y250315D02*
Y254315D01*
Y271315D02*
X401362Y275315D01*
X397362Y279315*
X393362Y275315*
X397362Y271315*
Y275315D02*
Y279315D01*
Y287457D02*
X401362Y291457D01*
X397362Y295457*
X393362Y291457*
X397362Y287457*
Y291457D02*
Y295457D01*
X380039Y246315D02*
X384039Y250315D01*
X380039Y254315*
X376039Y250315*
X380039Y246315*
Y250315D02*
Y254315D01*
Y271315D02*
X384039Y275315D01*
X380039Y279315*
X376039Y275315*
X380039Y271315*
Y275315D02*
Y279315D01*
Y287457D02*
X384039Y291457D01*
X380039Y295457*
X376039Y291457*
X380039Y287457*
Y291457D02*
Y295457D01*
X362717Y221315D02*
X366717Y225315D01*
X362717Y229315*
X358717Y225315*
X362717Y221315*
Y225315D02*
Y229315D01*
Y246315D02*
X366717Y250315D01*
X362717Y254315*
X358717Y250315*
X362717Y246315*
Y250315D02*
Y254315D01*
Y271315D02*
X366717Y275315D01*
X362717Y279315*
X358717Y275315*
X362717Y271315*
Y275315D02*
Y279315D01*
Y287457D02*
X366717Y291457D01*
X362717Y295457*
X358717Y291457*
X362717Y287457*
Y291457D02*
Y295457D01*
X314882Y221315D02*
X318882Y225315D01*
X314882Y229315*
X310882Y225315*
X314882Y221315*
Y225315D02*
Y229315D01*
Y246315D02*
X318882Y250315D01*
X314882Y254315*
X310882Y250315*
X314882Y246315*
Y250315D02*
Y254315D01*
Y271315D02*
X318882Y275315D01*
X314882Y279315*
X310882Y275315*
X314882Y271315*
Y275315D02*
Y279315D01*
Y287457D02*
X318882Y291457D01*
X314882Y295457*
X310882Y291457*
X314882Y287457*
Y291457D02*
Y295457D01*
X297559Y246315D02*
X301559Y250315D01*
X297559Y254315*
X293559Y250315*
X297559Y246315*
Y250315D02*
Y254315D01*
Y271315D02*
X301559Y275315D01*
X297559Y279315*
X293559Y275315*
X297559Y271315*
Y275315D02*
Y279315D01*
Y287457D02*
X301559Y291457D01*
X297559Y295457*
X293559Y291457*
X297559Y287457*
Y291457D02*
Y295457D01*
X280236Y246315D02*
X284236Y250315D01*
X280236Y254315*
X276236Y250315*
X280236Y246315*
Y250315D02*
Y254315D01*
Y271315D02*
X284236Y275315D01*
X280236Y279315*
X276236Y275315*
X280236Y271315*
Y275315D02*
Y279315D01*
Y287457D02*
X284236Y291457D01*
X280236Y295457*
X276236Y291457*
X280236Y287457*
Y291457D02*
Y295457D01*
X262913Y221315D02*
X266913Y225315D01*
X262913Y229315*
X258913Y225315*
X262913Y221315*
Y225315D02*
Y229315D01*
Y246315D02*
X266913Y250315D01*
X262913Y254315*
X258913Y250315*
X262913Y246315*
Y250315D02*
Y254315D01*
Y271315D02*
X266913Y275315D01*
X262913Y279315*
X258913Y275315*
X262913Y271315*
Y275315D02*
Y279315D01*
Y287457D02*
X266913Y291457D01*
X262913Y295457*
X258913Y291457*
X262913Y287457*
Y291457D02*
Y295457D01*
X227323Y221157D02*
X231323Y225157D01*
X227323Y229157*
X223323Y225157*
X227323Y221157*
Y225157D02*
Y229157D01*
Y246157D02*
X231323Y250157D01*
X227323Y254157*
X223323Y250157*
X227323Y246157*
Y250157D02*
Y254157D01*
Y271157D02*
X231323Y275157D01*
X227323Y279157*
X223323Y275157*
X227323Y271157*
Y275157D02*
Y279157D01*
Y287299D02*
X231323Y291299D01*
X227323Y295299*
X223323Y291299*
X227323Y287299*
Y291299D02*
Y295299D01*
X210000Y246157D02*
X214000Y250157D01*
X210000Y254157*
X206000Y250157*
X210000Y246157*
Y250157D02*
Y254157D01*
Y271157D02*
X214000Y275157D01*
X210000Y279157*
X206000Y275157*
X210000Y271157*
Y275157D02*
Y279157D01*
Y287299D02*
X214000Y291299D01*
X210000Y295299*
X206000Y291299*
X210000Y287299*
Y291299D02*
Y295299D01*
X192677Y246157D02*
X196677Y250157D01*
X192677Y254157*
X188677Y250157*
X192677Y246157*
Y250157D02*
Y254157D01*
Y271157D02*
X196677Y275157D01*
X192677Y279157*
X188677Y275157*
X192677Y271157*
Y275157D02*
Y279157D01*
Y287299D02*
X196677Y291299D01*
X192677Y295299*
X188677Y291299*
X192677Y287299*
Y291299D02*
Y295299D01*
X175354Y221157D02*
X179354Y225157D01*
X175354Y229157*
X171354Y225157*
X175354Y221157*
Y225157D02*
Y229157D01*
Y246157D02*
X179354Y250157D01*
X175354Y254157*
X171354Y250157*
X175354Y246157*
Y250157D02*
Y254157D01*
Y271157D02*
X179354Y275157D01*
X175354Y279157*
X171354Y275157*
X175354Y271157*
Y275157D02*
Y279157D01*
Y287299D02*
X179354Y291299D01*
X175354Y295299*
X171354Y291299*
X175354Y287299*
Y291299D02*
Y295299D01*
X333283Y288717D02*
X341283Y296717D01*
Y288717*
X333283Y296717*
Y288717*
X333205Y271197D02*
X341205Y279197D01*
Y271197*
X333205Y279197*
Y271197*
X333323Y251236D02*
X341323Y259236D01*
Y251236*
X333323Y259236*
Y251236*
X494764Y151354D02*
X498764Y155354D01*
X494764Y159354*
X490764Y155354*
X494764Y151354*
Y155354D02*
Y159354D01*
X519764Y151354D02*
X523764Y155354D01*
X519764Y159354*
X515764Y155354*
X519764Y151354*
Y155354D02*
Y159354D01*
X544764Y151354D02*
X548764Y155354D01*
X544764Y159354*
X540764Y155354*
X544764Y151354*
Y155354D02*
Y159354D01*
X494764Y203323D02*
X498764Y207323D01*
X494764Y211323*
X490764Y207323*
X494764Y203323*
Y207323D02*
Y211323D01*
X519764Y203323D02*
X523764Y207323D01*
X519764Y211323*
X515764Y207323*
X519764Y203323*
Y207323D02*
Y211323D01*
X544764Y203323D02*
X548764Y207323D01*
X544764Y211323*
X540764Y207323*
X544764Y203323*
Y207323D02*
Y211323D01*
X560906Y203323D02*
X564906Y207323D01*
X560906Y211323*
X556906Y207323*
X560906Y203323*
Y207323D02*
Y211323D01*
Y151354D02*
X564906Y155354D01*
X560906Y159354*
X556906Y155354*
X560906Y151354*
Y155354D02*
Y159354D01*
X130843Y220921D02*
X138843D01*
X130843Y228921*
X138843*
X130843Y220921*
Y305921D02*
X138843D01*
X130843Y313921*
X138843*
X130843Y305921*
X490646Y246354D02*
X498646D01*
X490646Y254354*
X498646*
X490646Y246354*
X575646D02*
X583646D01*
X575646Y254354*
X583646*
X575646Y246354*
X129803Y331315D02*
X133803Y335315D01*
X129803Y339315*
X125803Y335315*
X129803Y331315*
Y335315D02*
Y339315D01*
X149488Y331315D02*
X153488Y335315D01*
X149488Y339315*
X145488Y335315*
X149488Y331315*
Y335315D02*
Y339315D01*
X169173Y331315D02*
X173173Y335315D01*
X169173Y339315*
X165173Y335315*
X169173Y331315*
Y335315D02*
Y339315D01*
X188858Y331315D02*
X192858Y335315D01*
X188858Y339315*
X184858Y335315*
X188858Y331315*
Y335315D02*
Y339315D01*
X208543Y331315D02*
X212543Y335315D01*
X208543Y339315*
X204543Y335315*
X208543Y331315*
Y335315D02*
Y339315D01*
X228228Y331315D02*
X232228Y335315D01*
X228228Y339315*
X224228Y335315*
X228228Y331315*
Y335315D02*
Y339315D01*
X247913Y331315D02*
X251913Y335315D01*
X247913Y339315*
X243913Y335315*
X247913Y331315*
Y335315D02*
Y339315D01*
X267598Y331315D02*
X271598Y335315D01*
X267598Y339315*
X263598Y335315*
X267598Y331315*
Y335315D02*
Y339315D01*
X287283Y331315D02*
X291283Y335315D01*
X287283Y339315*
X283283Y335315*
X287283Y331315*
Y335315D02*
Y339315D01*
X306969Y331315D02*
X310969Y335315D01*
X306969Y339315*
X302969Y335315*
X306969Y331315*
Y335315D02*
Y339315D01*
X326654Y331315D02*
X330654Y335315D01*
X326654Y339315*
X322654Y335315*
X326654Y331315*
Y335315D02*
Y339315D01*
X346339Y331315D02*
X350339Y335315D01*
X346339Y339315*
X342339Y335315*
X346339Y331315*
Y335315D02*
Y339315D01*
X369606Y331197D02*
X373606Y335197D01*
X369606Y339197*
X365606Y335197*
X369606Y331197*
Y335197D02*
Y339197D01*
X389291Y331197D02*
X393291Y335197D01*
X389291Y339197*
X385291Y335197*
X389291Y331197*
Y335197D02*
Y339197D01*
X408976Y331197D02*
X412976Y335197D01*
X408976Y339197*
X404976Y335197*
X408976Y331197*
Y335197D02*
Y339197D01*
X428661Y331197D02*
X432661Y335197D01*
X428661Y339197*
X424661Y335197*
X428661Y331197*
Y335197D02*
Y339197D01*
X448346Y331197D02*
X452346Y335197D01*
X448346Y339197*
X444346Y335197*
X448346Y331197*
Y335197D02*
Y339197D01*
X468031Y331197D02*
X472031Y335197D01*
X468031Y339197*
X464031Y335197*
X468031Y331197*
Y335197D02*
Y339197D01*
X487717Y331197D02*
X491717Y335197D01*
X487717Y339197*
X483717Y335197*
X487717Y331197*
Y335197D02*
Y339197D01*
X507402Y331197D02*
X511402Y335197D01*
X507402Y339197*
X503402Y335197*
X507402Y331197*
Y335197D02*
Y339197D01*
X527087Y331197D02*
X531087Y335197D01*
X527087Y339197*
X523087Y335197*
X527087Y331197*
Y335197D02*
Y339197D01*
X546772Y331197D02*
X550772Y335197D01*
X546772Y339197*
X542772Y335197*
X546772Y331197*
Y335197D02*
Y339197D01*
X566457Y331197D02*
X570457Y335197D01*
X566457Y339197*
X562457Y335197*
X566457Y331197*
Y335197D02*
Y339197D01*
X586142Y331197D02*
X590142Y335197D01*
X586142Y339197*
X582142Y335197*
X586142Y331197*
Y335197D02*
Y339197D01*
X602205Y146433D02*
X606205Y150433D01*
X602205Y154433*
X598205Y150433*
X602205Y146433*
Y150433D02*
Y154433D01*
Y166118D02*
X606205Y170118D01*
X602205Y174118*
X598205Y170118*
X602205Y166118*
Y170118D02*
Y174118D01*
Y185803D02*
X606205Y189803D01*
X602205Y193803*
X598205Y189803*
X602205Y185803*
Y189803D02*
Y193803D01*
Y205488D02*
X606205Y209488D01*
X602205Y213488*
X598205Y209488*
X602205Y205488*
Y209488D02*
Y213488D01*
Y225173D02*
X606205Y229173D01*
X602205Y233173*
X598205Y229173*
X602205Y225173*
Y229173D02*
Y233173D01*
Y244858D02*
X606205Y248858D01*
X602205Y252858*
X598205Y248858*
X602205Y244858*
Y248858D02*
Y252858D01*
X100000Y100000D02*
X608071D01*
X659449Y151969*
X659488Y400591*
X100000*
Y100000*
X414961Y685701D02*
X672961D01*
X414961Y661701D02*
X672961D01*
X414961Y637701D02*
X672961D01*
X414961Y613701D02*
X672961D01*
X414961Y589701D02*
X672961D01*
X414961Y565701D02*
X672961D01*
X414961Y541701D02*
X672961D01*
X414961Y517701D02*
X672961D01*
X414961Y493701D02*
X672961D01*
X414961Y685701D02*
Y493701D01*
X498961Y685701D02*
Y493701D01*
X534961Y685701D02*
Y493701D01*
X570961Y685701D02*
Y493701D01*
X624961Y685701D02*
Y493701D01*
X672961Y685701D02*
Y493701D01*
X450461Y674451D02*
X449915Y675201D01*
X449097Y675576*
X448006*
X447188Y675201*
X446642Y674451*
Y673701*
X446915Y672951*
X447188Y672576*
X447733Y672201*
X449370Y671451*
X449915Y671076*
X450188Y670701*
X450461Y669951*
Y668826*
X449915Y668076*
X449097Y667701*
X448006*
X447188Y668076*
X446642Y668826*
X452915Y675576D02*
Y667701D01*
X459188Y675576D02*
X455370Y667701D01*
Y675576D02*
X459188D01*
X455370Y667701D02*
X459188D01*
X461642Y675576D02*
Y667701D01*
Y675576D02*
X465188D01*
X461642Y671826D02*
X463824D01*
X461642Y667701D02*
X465188D01*
X508824Y675576D02*
X508279Y675201D01*
X507733Y674451*
X507461Y673701*
X507188Y672576*
Y670701*
X507461Y669576*
X507733Y668826*
X508279Y668076*
X508824Y667701*
X509915*
X510461Y668076*
X511006Y668826*
X511279Y669576*
X511552Y670701*
Y672576*
X511279Y673701*
X511006Y674451*
X510461Y675201*
X509915Y675576*
X508824*
X509642Y669201D02*
X511279Y666951D01*
X515915Y675576D02*
Y667701D01*
X514006Y675576D02*
X517824D01*
X520279D02*
X522461Y671826D01*
Y667701*
X524642Y675576D02*
X522461Y671826D01*
X547006Y674451D02*
X546461Y675201D01*
X545642Y675576*
X544552*
X543733Y675201*
X543188Y674451*
Y673701*
X543461Y672951*
X543733Y672576*
X544279Y672201*
X545915Y671451*
X546461Y671076*
X546733Y670701*
X547006Y669951*
Y668826*
X546461Y668076*
X545642Y667701*
X544552*
X543733Y668076*
X543188Y668826*
X549461Y675576D02*
X551642Y671826D01*
Y667701*
X553824Y675576D02*
X551642Y671826D01*
X556279Y675576D02*
Y667701D01*
Y675576D02*
X558461Y667701D01*
X560642Y675576D02*
X558461Y667701D01*
X560642Y675576D02*
Y667701D01*
X582461Y675576D02*
Y667701D01*
Y675576D02*
X584915D01*
X585733Y675201*
X586006Y674826*
X586279Y674076*
Y672951*
X586006Y672201*
X585733Y671826*
X584915Y671451*
X582461*
X588733Y675576D02*
Y667701D01*
X592006*
X596642Y675576D02*
X594461Y667701D01*
X596642Y675576D02*
X598824Y667701D01*
X595279Y670326D02*
X598006D01*
X603188Y675576D02*
Y667701D01*
X601279Y675576D02*
X605097D01*
X607552D02*
Y667701D01*
Y675576D02*
X611097D01*
X607552Y671826D02*
X609733D01*
X607552Y667701D02*
X611097D01*
X613552Y675576D02*
Y667701D01*
Y675576D02*
X615461D01*
X616279Y675201*
X616824Y674451*
X617097Y673701*
X617370Y672576*
Y670701*
X617097Y669576*
X616824Y668826*
X616279Y668076*
X615461Y667701*
X613552*
X641642Y675576D02*
Y667701D01*
X639733Y675576D02*
X643552D01*
X647642D02*
X647097Y675201D01*
X646552Y674451*
X646279Y673701*
X646006Y672576*
Y670701*
X646279Y669576*
X646552Y668826*
X647097Y668076*
X647642Y667701*
X648733*
X649279Y668076*
X649824Y668826*
X650097Y669576*
X650370Y670701*
Y672576*
X650097Y673701*
X649824Y674451*
X649279Y675201*
X648733Y675576*
X647642*
X652824D02*
Y667701D01*
X656097*
X423688Y651576D02*
X420961Y646326D01*
X425052*
X423688Y651576D02*
Y643701D01*
X427779Y644451D02*
X427506Y644076D01*
X427779Y643701*
X428052Y644076*
X427779Y644451*
X433233Y651576D02*
X430506Y646326D01*
X434597*
X433233Y651576D02*
Y643701D01*
X440597Y648951D02*
X440324Y647826D01*
X439779Y647076*
X438961Y646701*
X438688*
X437870Y647076*
X437324Y647826*
X437052Y648951*
Y649326*
X437324Y650451*
X437870Y651201*
X438688Y651576*
X438961*
X439779Y651201*
X440324Y650451*
X440597Y648951*
Y647076*
X440324Y645201*
X439779Y644076*
X438961Y643701*
X438415*
X437597Y644076*
X437324Y644826*
X446597Y651576D02*
X443870D01*
X443597Y648201*
X443870Y648576*
X444688Y648951*
X445506*
X446324Y648576*
X446870Y647826*
X447142Y646701*
X446870Y645951*
X446597Y644826*
X446052Y644076*
X445233Y643701*
X444415*
X443597Y644076*
X443324Y644451*
X443052Y645201*
X450961Y651576D02*
X450142Y651201D01*
X449870Y650451*
Y649701*
X450142Y648951*
X450688Y648576*
X451779Y648201*
X452597Y647826*
X453142Y647076*
X453415Y646326*
Y645201*
X453142Y644451*
X452870Y644076*
X452052Y643701*
X450961*
X450142Y644076*
X449870Y644451*
X449597Y645201*
Y646326*
X449870Y647076*
X450415Y647826*
X451233Y648201*
X452324Y648576*
X452870Y648951*
X453142Y649701*
Y650451*
X452870Y651201*
X452052Y651576*
X450961*
X517824D02*
X515097Y643701D01*
X514006Y651576D02*
X517824D01*
X546961Y649701D02*
X558961D01*
X552961Y643701D02*
Y655701D01*
X582597Y651576D02*
Y643701D01*
Y651576D02*
X586415Y643701D01*
Y651576D02*
Y643701D01*
X590506Y651576D02*
X589961Y651201D01*
X589415Y650451*
X589142Y649701*
X588870Y648576*
Y646701*
X589142Y645576*
X589415Y644826*
X589961Y644076*
X590506Y643701*
X591597*
X592142Y644076*
X592688Y644826*
X592961Y645576*
X593233Y646701*
Y648576*
X592961Y649701*
X592688Y650451*
X592142Y651201*
X591597Y651576*
X590506*
X632779Y650451D02*
Y643701D01*
X630324Y647076D02*
X635233D01*
X642597Y653076D02*
X637688Y641076D01*
X645052Y647076D02*
X649961D01*
X654052Y651576D02*
X653233Y651201D01*
X652688Y650076*
X652415Y648201*
Y647076*
X652688Y645201*
X653233Y644076*
X654052Y643701*
X654597*
X655415Y644076*
X655961Y645201*
X656233Y647076*
Y648201*
X655961Y650076*
X655415Y651201*
X654597Y651576*
X654052*
X658961Y644451D02*
X658688Y644076D01*
X658961Y643701*
X659233Y644076*
X658961Y644451*
X663324Y651576D02*
X662506Y651201D01*
X661961Y650076*
X661688Y648201*
Y647076*
X661961Y645201*
X662506Y644076*
X663324Y643701*
X663870*
X664688Y644076*
X665233Y645201*
X665506Y647076*
Y648201*
X665233Y650076*
X664688Y651201*
X663870Y651576*
X663324*
X420961Y626076D02*
X421506Y626451D01*
X422324Y627576*
Y619701*
X425052Y620451D02*
X424779Y620076D01*
X425052Y619701*
X425324Y620076*
X425052Y620451*
X429415Y627576D02*
X428597Y627201D01*
X428052Y626076*
X427779Y624201*
Y623076*
X428052Y621201*
X428597Y620076*
X429415Y619701*
X429961*
X430779Y620076*
X431324Y621201*
X431597Y623076*
Y624201*
X431324Y626076*
X430779Y627201*
X429961Y627576*
X429415*
X434052Y626076D02*
X434597Y626451D01*
X435415Y627576*
Y619701*
X441142Y626451D02*
X440870Y627201D01*
X440052Y627576*
X439506*
X438688Y627201*
X438142Y626076*
X437870Y624201*
Y622326*
X438142Y620826*
X438688Y620076*
X439506Y619701*
X439779*
X440597Y620076*
X441142Y620826*
X441415Y621951*
Y622326*
X441142Y623451*
X440597Y624201*
X439779Y624576*
X439506*
X438688Y624201*
X438142Y623451*
X437870Y622326*
X512097Y626076D02*
X512642Y626451D01*
X513461Y627576*
Y619701*
X516188Y625701D02*
Y626076D01*
X516461Y626826*
X516733Y627201*
X517279Y627576*
X518370*
X518915Y627201*
X519188Y626826*
X519461Y626076*
Y625326*
X519188Y624576*
X518642Y623451*
X515915Y619701*
X519733*
X546961D02*
X558961Y631701D01*
X546961D02*
X558961Y619701D01*
X579597Y627576D02*
X581779Y623826D01*
Y619701*
X583961Y627576D02*
X581779Y623826D01*
X586415Y627576D02*
Y619701D01*
Y627576D02*
X589961D01*
X586415Y623826D02*
X588597D01*
X586415Y619701D02*
X589961D01*
X596233Y626451D02*
X595688Y627201D01*
X594870Y627576*
X593779*
X592961Y627201*
X592415Y626451*
Y625701*
X592688Y624951*
X592961Y624576*
X593506Y624201*
X595142Y623451*
X595688Y623076*
X595961Y622701*
X596233Y621951*
Y620826*
X595688Y620076*
X594870Y619701*
X593779*
X592961Y620076*
X592415Y620826*
X632779Y626451D02*
Y619701D01*
X630324Y623076D02*
X635233D01*
X642597Y629076D02*
X637688Y617076D01*
X645052Y623076D02*
X649961D01*
X654052Y627576D02*
X653233Y627201D01*
X652688Y626076*
X652415Y624201*
Y623076*
X652688Y621201*
X653233Y620076*
X654052Y619701*
X654597*
X655415Y620076*
X655961Y621201*
X656233Y623076*
Y624201*
X655961Y626076*
X655415Y627201*
X654597Y627576*
X654052*
X658961Y620451D02*
X658688Y620076D01*
X658961Y619701*
X659233Y620076*
X658961Y620451*
X663324Y627576D02*
X662506Y627201D01*
X661961Y626076*
X661688Y624201*
Y623076*
X661961Y621201*
X662506Y620076*
X663324Y619701*
X663870*
X664688Y620076*
X665233Y621201*
X665506Y623076*
Y624201*
X665233Y626076*
X664688Y627201*
X663870Y627576*
X663324*
X422597Y603576D02*
X421779Y603201D01*
X421233Y602076*
X420961Y600201*
Y599076*
X421233Y597201*
X421779Y596076*
X422597Y595701*
X423142*
X423961Y596076*
X424506Y597201*
X424779Y599076*
Y600201*
X424506Y602076*
X423961Y603201*
X423142Y603576*
X422597*
X427506Y596451D02*
X427233Y596076D01*
X427506Y595701*
X427779Y596076*
X427506Y596451*
X433779Y600951D02*
X433506Y599826D01*
X432961Y599076*
X432142Y598701*
X431870*
X431052Y599076*
X430506Y599826*
X430233Y600951*
Y601326*
X430506Y602451*
X431052Y603201*
X431870Y603576*
X432142*
X432961Y603201*
X433506Y602451*
X433779Y600951*
Y599076*
X433506Y597201*
X432961Y596076*
X432142Y595701*
X431597*
X430779Y596076*
X430506Y596826*
X512233Y602076D02*
X512779Y602451D01*
X513597Y603576*
Y595701*
X519324Y602451D02*
X519052Y603201D01*
X518233Y603576*
X517688*
X516870Y603201*
X516324Y602076*
X516052Y600201*
Y598326*
X516324Y596826*
X516870Y596076*
X517688Y595701*
X517961*
X518779Y596076*
X519324Y596826*
X519597Y597951*
Y598326*
X519324Y599451*
X518779Y600201*
X517961Y600576*
X517688*
X516870Y600201*
X516324Y599451*
X516052Y598326*
X546961Y595701D02*
X558961D01*
Y607701*
X546961*
Y595701*
X552961Y601701D02*
Y607701D01*
X579597Y603576D02*
X581779Y599826D01*
Y595701*
X583961Y603576D02*
X581779Y599826D01*
X586415Y603576D02*
Y595701D01*
Y603576D02*
X589961D01*
X586415Y599826D02*
X588597D01*
X586415Y595701D02*
X589961D01*
X596233Y602451D02*
X595688Y603201D01*
X594870Y603576*
X593779*
X592961Y603201*
X592415Y602451*
Y601701*
X592688Y600951*
X592961Y600576*
X593506Y600201*
X595142Y599451*
X595688Y599076*
X595961Y598701*
X596233Y597951*
Y596826*
X595688Y596076*
X594870Y595701*
X593779*
X592961Y596076*
X592415Y596826*
X632779Y602451D02*
Y595701D01*
X630324Y599076D02*
X635233D01*
X642597Y605076D02*
X637688Y593076D01*
X645052Y599076D02*
X649961D01*
X654052Y603576D02*
X653233Y603201D01*
X652688Y602076*
X652415Y600201*
Y599076*
X652688Y597201*
X653233Y596076*
X654052Y595701*
X654597*
X655415Y596076*
X655961Y597201*
X656233Y599076*
Y600201*
X655961Y602076*
X655415Y603201*
X654597Y603576*
X654052*
X658961Y596451D02*
X658688Y596076D01*
X658961Y595701*
X659233Y596076*
X658961Y596451*
X663324Y603576D02*
X662506Y603201D01*
X661961Y602076*
X661688Y600201*
Y599076*
X661961Y597201*
X662506Y596076*
X663324Y595701*
X663870*
X664688Y596076*
X665233Y597201*
X665506Y599076*
Y600201*
X665233Y602076*
X664688Y603201*
X663870Y603576*
X663324*
X420961Y578076D02*
X421506Y578451D01*
X422324Y579576*
Y571701*
X425052Y572451D02*
X424779Y572076D01*
X425052Y571701*
X425324Y572076*
X425052Y572451*
X430506Y579576D02*
X427779Y574326D01*
X431870*
X430506Y579576D02*
Y571701D01*
X512233Y579576D02*
X511415Y579201D01*
X511142Y578451*
Y577701*
X511415Y576951*
X511961Y576576*
X513052Y576201*
X513870Y575826*
X514415Y575076*
X514688Y574326*
Y573201*
X514415Y572451*
X514142Y572076*
X513324Y571701*
X512233*
X511415Y572076*
X511142Y572451*
X510870Y573201*
Y574326*
X511142Y575076*
X511688Y575826*
X512506Y576201*
X513597Y576576*
X514142Y576951*
X514415Y577701*
Y578451*
X514142Y579201*
X513324Y579576*
X512233*
X518779D02*
X517961Y579201D01*
X517415Y578076*
X517142Y576201*
Y575076*
X517415Y573201*
X517961Y572076*
X518779Y571701*
X519324*
X520142Y572076*
X520688Y573201*
X520961Y575076*
Y576201*
X520688Y578076*
X520142Y579201*
X519324Y579576*
X518779*
X552961Y571701D02*
X558961Y577701D01*
X552961Y583701*
X546961Y577701*
X552961Y571701*
Y577701D02*
Y583701D01*
X579597Y579576D02*
X581779Y575826D01*
Y571701*
X583961Y579576D02*
X581779Y575826D01*
X586415Y579576D02*
Y571701D01*
Y579576D02*
X589961D01*
X586415Y575826D02*
X588597D01*
X586415Y571701D02*
X589961D01*
X596233Y578451D02*
X595688Y579201D01*
X594870Y579576*
X593779*
X592961Y579201*
X592415Y578451*
Y577701*
X592688Y576951*
X592961Y576576*
X593506Y576201*
X595142Y575451*
X595688Y575076*
X595961Y574701*
X596233Y573951*
Y572826*
X595688Y572076*
X594870Y571701*
X593779*
X592961Y572076*
X592415Y572826*
X632779Y578451D02*
Y571701D01*
X630324Y575076D02*
X635233D01*
X642597Y581076D02*
X637688Y569076D01*
X645052Y575076D02*
X649961D01*
X654052Y579576D02*
X653233Y579201D01*
X652688Y578076*
X652415Y576201*
Y575076*
X652688Y573201*
X653233Y572076*
X654052Y571701*
X654597*
X655415Y572076*
X655961Y573201*
X656233Y575076*
Y576201*
X655961Y578076*
X655415Y579201*
X654597Y579576*
X654052*
X658961Y572451D02*
X658688Y572076D01*
X658961Y571701*
X659233Y572076*
X658961Y572451*
X663324Y579576D02*
X662506Y579201D01*
X661961Y578076*
X661688Y576201*
Y575076*
X661961Y573201*
X662506Y572076*
X663324Y571701*
X663870*
X664688Y572076*
X665233Y573201*
X665506Y575076*
Y576201*
X665233Y578076*
X664688Y579201*
X663870Y579576*
X663324*
X420961Y554076D02*
X421506Y554451D01*
X422324Y555576*
Y547701*
X425052Y548451D02*
X424779Y548076D01*
X425052Y547701*
X425324Y548076*
X425052Y548451*
X431324Y555576D02*
X428597D01*
X428324Y552201*
X428597Y552576*
X429415Y552951*
X430233*
X431052Y552576*
X431597Y551826*
X431870Y550701*
X431597Y549951*
X431324Y548826*
X430779Y548076*
X429961Y547701*
X429142*
X428324Y548076*
X428052Y548451*
X427779Y549201*
X516597Y555576D02*
X513870Y550326D01*
X517961*
X516597Y555576D02*
Y547701D01*
X546961D02*
X558961D01*
X546961Y559701*
X558961*
X546961Y547701*
X579597Y555576D02*
X581779Y551826D01*
Y547701*
X583961Y555576D02*
X581779Y551826D01*
X586415Y555576D02*
Y547701D01*
Y555576D02*
X589961D01*
X586415Y551826D02*
X588597D01*
X586415Y547701D02*
X589961D01*
X596233Y554451D02*
X595688Y555201D01*
X594870Y555576*
X593779*
X592961Y555201*
X592415Y554451*
Y553701*
X592688Y552951*
X592961Y552576*
X593506Y552201*
X595142Y551451*
X595688Y551076*
X595961Y550701*
X596233Y549951*
Y548826*
X595688Y548076*
X594870Y547701*
X593779*
X592961Y548076*
X592415Y548826*
X632779Y554451D02*
Y547701D01*
X630324Y551076D02*
X635233D01*
X642597Y557076D02*
X637688Y545076D01*
X645052Y551076D02*
X649961D01*
X654052Y555576D02*
X653233Y555201D01*
X652688Y554076*
X652415Y552201*
Y551076*
X652688Y549201*
X653233Y548076*
X654052Y547701*
X654597*
X655415Y548076*
X655961Y549201*
X656233Y551076*
Y552201*
X655961Y554076*
X655415Y555201*
X654597Y555576*
X654052*
X658961Y548451D02*
X658688Y548076D01*
X658961Y547701*
X659233Y548076*
X658961Y548451*
X663324Y555576D02*
X662506Y555201D01*
X661961Y554076*
X661688Y552201*
Y551076*
X661961Y549201*
X662506Y548076*
X663324Y547701*
X663870*
X664688Y548076*
X665233Y549201*
X665506Y551076*
Y552201*
X665233Y554076*
X664688Y555201*
X663870Y555576*
X663324*
X420961Y530076D02*
X421506Y530451D01*
X422324Y531576*
Y523701*
X425052Y524451D02*
X424779Y524076D01*
X425052Y523701*
X425324Y524076*
X425052Y524451*
X428324Y531576D02*
X431324D01*
X429688Y528576*
X430506*
X431052Y528201*
X431324Y527826*
X431597Y526701*
Y525951*
X431324Y524826*
X430779Y524076*
X429961Y523701*
X429142*
X428324Y524076*
X428052Y524451*
X427779Y525201*
X516597Y531576D02*
X513870Y526326D01*
X517961*
X516597Y531576D02*
Y523701D01*
X546961D02*
X558961Y535701D01*
Y523701*
X546961Y535701*
Y523701*
X579597Y531576D02*
X581779Y527826D01*
Y523701*
X583961Y531576D02*
X581779Y527826D01*
X586415Y531576D02*
Y523701D01*
Y531576D02*
X589961D01*
X586415Y527826D02*
X588597D01*
X586415Y523701D02*
X589961D01*
X596233Y530451D02*
X595688Y531201D01*
X594870Y531576*
X593779*
X592961Y531201*
X592415Y530451*
Y529701*
X592688Y528951*
X592961Y528576*
X593506Y528201*
X595142Y527451*
X595688Y527076*
X595961Y526701*
X596233Y525951*
Y524826*
X595688Y524076*
X594870Y523701*
X593779*
X592961Y524076*
X592415Y524826*
X632779Y530451D02*
Y523701D01*
X630324Y527076D02*
X635233D01*
X642597Y533076D02*
X637688Y521076D01*
X645052Y527076D02*
X649961D01*
X654052Y531576D02*
X653233Y531201D01*
X652688Y530076*
X652415Y528201*
Y527076*
X652688Y525201*
X653233Y524076*
X654052Y523701*
X654597*
X655415Y524076*
X655961Y525201*
X656233Y527076*
Y528201*
X655961Y530076*
X655415Y531201*
X654597Y531576*
X654052*
X658961Y524451D02*
X658688Y524076D01*
X658961Y523701*
X659233Y524076*
X658961Y524451*
X663324Y531576D02*
X662506Y531201D01*
X661961Y530076*
X661688Y528201*
Y527076*
X661961Y525201*
X662506Y524076*
X663324Y523701*
X663870*
X664688Y524076*
X665233Y525201*
X665506Y527076*
Y528201*
X665233Y530076*
X664688Y531201*
X663870Y531576*
X663324*
X423688Y507576D02*
X420961Y502326D01*
X425052*
X423688Y507576D02*
Y499701D01*
X427779Y500451D02*
X427506Y500076D01*
X427779Y499701*
X428052Y500076*
X427779Y500451*
X432142Y507576D02*
X431324Y507201D01*
X430779Y506076*
X430506Y504201*
Y503076*
X430779Y501201*
X431324Y500076*
X432142Y499701*
X432688*
X433506Y500076*
X434052Y501201*
X434324Y503076*
Y504201*
X434052Y506076*
X433506Y507201*
X432688Y507576*
X432142*
X436779Y506076D02*
X437324Y506451D01*
X438142Y507576*
Y499701*
X441142Y507576D02*
X444142D01*
X442506Y504576*
X443324*
X443870Y504201*
X444142Y503826*
X444415Y502701*
Y501951*
X444142Y500826*
X443597Y500076*
X442779Y499701*
X441961*
X441142Y500076*
X440870Y500451*
X440597Y501201*
X447142Y505701D02*
Y506076D01*
X447415Y506826*
X447688Y507201*
X448233Y507576*
X449324*
X449870Y507201*
X450142Y506826*
X450415Y506076*
Y505326*
X450142Y504576*
X449597Y503451*
X446870Y499701*
X450688*
X514279Y505701D02*
Y506076D01*
X514552Y506826*
X514824Y507201*
X515370Y507576*
X516461*
X517006Y507201*
X517279Y506826*
X517552Y506076*
Y505326*
X517279Y504576*
X516733Y503451*
X514006Y499701*
X517824*
X546961Y505701D02*
X558961D01*
X552961Y499701D02*
Y511701D01*
X557706Y515001D02*
X555961Y508701D01*
X557706Y515001D02*
X559452Y508701D01*
X556615Y510801D02*
X558797D01*
X582597Y507576D02*
Y499701D01*
Y507576D02*
X586415Y499701D01*
Y507576D02*
Y499701D01*
X590506Y507576D02*
X589961Y507201D01*
X589415Y506451*
X589142Y505701*
X588870Y504576*
Y502701*
X589142Y501576*
X589415Y500826*
X589961Y500076*
X590506Y499701*
X591597*
X592142Y500076*
X592688Y500826*
X592961Y501576*
X593233Y502701*
Y504576*
X592961Y505701*
X592688Y506451*
X592142Y507201*
X591597Y507576*
X590506*
X632779Y506451D02*
Y499701D01*
X630324Y503076D02*
X635233D01*
X642597Y509076D02*
X637688Y497076D01*
X645052Y503076D02*
X649961D01*
X654052Y507576D02*
X653233Y507201D01*
X652688Y506076*
X652415Y504201*
Y503076*
X652688Y501201*
X653233Y500076*
X654052Y499701*
X654597*
X655415Y500076*
X655961Y501201*
X656233Y503076*
Y504201*
X655961Y506076*
X655415Y507201*
X654597Y507576*
X654052*
X658961Y500451D02*
X658688Y500076D01*
X658961Y499701*
X659233Y500076*
X658961Y500451*
X663324Y507576D02*
X662506Y507201D01*
X661961Y506076*
X661688Y504201*
Y503076*
X661961Y501201*
X662506Y500076*
X663324Y499701*
X663870*
X664688Y500076*
X665233Y501201*
X665506Y503076*
Y504201*
X665233Y506076*
X664688Y507201*
X663870Y507576*
X663324*
G74*
X0Y0D02*
M02*
