%
T1C.03543F197S55
X013244Y018283
X014244Y018283
X018244Y018283
X022244Y018283
X023504Y018264
X024504Y018264
X028504Y018264
X032504Y018264
X033736Y018264
X034736Y018264
X038736Y018264
X042736Y018264
X0447Y030222
X0447Y026222
X0447Y022222
X0447Y021222
T2C.04F139S55
X023492Y015996
X017248Y016
X013248Y016
X031992Y01602
X033744Y016008
X027492Y015996
X031992Y01202
X044708Y015726
X037744Y016008
X044708Y019726
X04698Y031039
X04698Y027039
T3C.05118F107S55
X033732Y025524
X03372Y02752
X033728Y029272
X033724Y031272
T4C.05512F107S55
X017535Y022516
X017535Y025016
X017535Y027516
X017535Y02913
X01298Y033531
X014949Y033531
X016917Y033531
X018886Y033531
X020854Y033531
X022823Y033531
X022732Y02913
X021Y02913
X019268Y02913
X022732Y027516
X021Y027516
X019268Y027516
X019268Y025016
X021Y025016
X022732Y025016
X022732Y022516
X026291Y022531
X026291Y025031
X026291Y027531
X026291Y029146
X024791Y033531
X02676Y033531
X028728Y033531
X030697Y033531
X032665Y033531
X029756Y029146
X028024Y029146
X031488Y029146
X029756Y027531
X031488Y027531
X028024Y027531
X031488Y025031
X028024Y025031
X029756Y025031
X031488Y022531
X036272Y022531
X036272Y025031
X036272Y027531
X036272Y029146
X036961Y03352
X034634Y033531
X038929Y03352
X040898Y03352
X042866Y03352
X038004Y029146
X039736Y029146
X041469Y029146
X038004Y027531
X041469Y027531
X039736Y027531
X038004Y025031
X041469Y025031
X039736Y025031
X041469Y022531
X049476Y015535
X049476Y020732
X044835Y03352
X046803Y03352
X048772Y03352
X05074Y03352
X052709Y03352
X054677Y03352
X054476Y020732
X051976Y020732
X054476Y015535
X051976Y015535
X06022Y015043
X056091Y015535
X06022Y017012
X06022Y01898
X056091Y020732
X06022Y020949
X06022Y022917
X06022Y024886
X058614Y03352
X056646Y03352
T5C.05906F107S55
X013484Y022492
X013484Y030992
X049465Y025035
X057965Y025035
T6C.158F035S9
X019583Y038028
X059083Y038067
T7C.177F035S1033
X014744Y011764
X014713Y038
X034453Y038028
X034492Y011776
X054232Y011811
X054197Y038055
X062091Y029567
M30
