*
*
G04 PADS Layout (Build Number 2007.42.1) generated Gerber (RS-274-X) file*
G04 PC Version=2.1*
*
%IN "147-0008_v4.pcb"*%
*
%MOIN*%
*
%FSLAX35Y35*%
*
*
*
*
G04 PC Standard Apertures*
*
*
G04 Thermal Relief Aperture macro.*
%AMTER*
1,1,$1,0,0*
1,0,$1-$2,0,0*
21,0,$3,$4,0,0,45*
21,0,$3,$4,0,0,135*
%
*
*
G04 Annular Aperture macro.*
%AMANN*
1,1,$1,0,0*
1,0,$2,0,0*
%
*
*
G04 Odd Aperture macro.*
%AMODD*
1,1,$1,0,0*
1,0,$1-0.005,0,0*
%
*
*
G04 PC Custom Aperture Macros*
*
*
*
*
*
*
G04 PC Aperture Table*
*
%ADD033C,0.10843*%
%ADD034C,0.187*%
%ADD035C,0.168*%
%ADD036C,0.085*%
%ADD037C,0.08874*%
%ADD038C,0.11236*%
%ADD039C,0.1478*%
%ADD040C,0.16748*%
%ADD041C,0.12811*%
*
*
*
*
G04 PC Copper Outlines (0)*
G04 Layer Name 147-0008_v4.pcb - dark (0)*
%LPD*%
*
*
G04 PC Area=Custom_Thermal*
*
G04 PC Custom Flashes*
G04 Layer Name 147-0008_v4.pcb - flashes*
%LPD*%
*
*
G04 PC Circuitry*
G04 Layer Name 147-0008_v4.pcb - circuitry*
%LPD*%
*
G54D33*
G01X337244Y312717D03*
X337283Y292717D03*
X337205Y275197D03*
X337323Y255236D03*
G54D34*
X147126Y380000D03*
X344528Y380276D03*
X541969Y380551D03*
X620906Y295669D03*
X542323Y118110D03*
X344921Y117756D03*
X147441Y117638D03*
G54D35*
X195827Y380276D03*
X590827Y380669D03*
G54D36*
X132480Y160000D03*
X172480D03*
X234921Y159961D03*
X274921D03*
X319921Y120197D03*
Y160197D03*
X337441Y160079D03*
X377441D03*
X447077Y157262D03*
Y197262D03*
X469803Y270394D03*
Y310394D03*
G54D37*
X132441Y182835D03*
X142441D03*
X182441D03*
X222441D03*
X235039Y182638D03*
X245039D03*
X285039D03*
X325039D03*
X337362D03*
X347362D03*
X387362D03*
X427362D03*
X446998Y212223D03*
Y222223D03*
Y262223D03*
Y302223D03*
G54D38*
X414685Y224134D02*
Y226496D01*
Y249134D02*
Y251496D01*
Y274134D02*
Y276496D01*
Y290276D02*
Y292638D01*
X397362Y249134D02*
Y251496D01*
Y274134D02*
Y276496D01*
Y290276D02*
Y292638D01*
X380039Y249134D02*
Y251496D01*
Y274134D02*
Y276496D01*
Y290276D02*
Y292638D01*
X362717Y224134D02*
Y226496D01*
Y249134D02*
Y251496D01*
Y274134D02*
Y276496D01*
Y290276D02*
Y292638D01*
X314882Y224134D02*
Y226496D01*
Y249134D02*
Y251496D01*
Y274134D02*
Y276496D01*
Y290276D02*
Y292638D01*
X297559Y249134D02*
Y251496D01*
Y274134D02*
Y276496D01*
Y290276D02*
Y292638D01*
X280236Y249134D02*
Y251496D01*
Y274134D02*
Y276496D01*
Y290276D02*
Y292638D01*
X262913Y224134D02*
Y226496D01*
Y249134D02*
Y251496D01*
Y274134D02*
Y276496D01*
Y290276D02*
Y292638D01*
X227323Y223976D02*
Y226339D01*
Y248976D02*
Y251339D01*
Y273976D02*
Y276339D01*
Y290118D02*
Y292480D01*
X210000Y248976D02*
Y251339D01*
Y273976D02*
Y276339D01*
Y290118D02*
Y292480D01*
X192677Y248976D02*
Y251339D01*
Y273976D02*
Y276339D01*
Y290118D02*
Y292480D01*
X175354Y223976D02*
Y226339D01*
Y248976D02*
Y251339D01*
Y273976D02*
Y276339D01*
Y290118D02*
Y292480D01*
G54D39*
X494764Y155354D03*
X519764D03*
X544764D03*
X494764Y207323D03*
X519764D03*
X544764D03*
X560906D03*
Y155354D03*
G54D40*
X134843Y224921D03*
Y309921D03*
X494646Y250354D03*
X579646D03*
G54D41*
X129803Y335315D03*
X149488D03*
X169173D03*
X188858D03*
X208543D03*
X228228D03*
X247913D03*
X267598D03*
X287283D03*
X306969D03*
X326654D03*
X346339D03*
X369606Y335197D03*
X389291D03*
X408976D03*
X428661D03*
X448346D03*
X468031D03*
X487717D03*
X507402D03*
X527087D03*
X546772D03*
X566457D03*
X586142D03*
X602205Y150433D03*
Y170118D03*
Y189803D03*
Y209488D03*
Y229173D03*
Y248858D03*
X0Y0D02*
M02*
