*
*
G04 PADS Layout (Build Number 2007.42.1) generated Gerber (RS-274-X) file*
G04 PC Version=2.1*
*
%IN "3339c.pcb"*%
*
%MOIN*%
*
%FSLAX35Y35*%
*
*
*
*
G04 PC Standard Apertures*
*
*
G04 Thermal Relief Aperture macro.*
%AMTER*
1,1,$1,0,0*
1,0,$1-$2,0,0*
21,0,$3,$4,0,0,45*
21,0,$3,$4,0,0,135*
%
*
*
G04 Annular Aperture macro.*
%AMANN*
1,1,$1,0,0*
1,0,$2,0,0*
%
*
*
G04 Odd Aperture macro.*
%AMODD*
1,1,$1,0,0*
1,0,$1-0.005,0,0*
%
*
*
G04 PC Custom Aperture Macros*
*
*
*
*
*
*
G04 PC Aperture Table*
*
%ADD010C,0.08661*%
%ADD011C,0.06496*%
%ADD012C,0.06*%
*
*
*
*
G04 PC Copper Outlines (0)*
G04 Layer Name 3339c.pcb - dark (0)*
%LPD*%
*
*
G04 PC Area=Custom_Thermal*
*
G04 PC Custom Flashes*
G04 Layer Name 3339c.pcb - flashes*
%LPD*%
*
*
G04 PC Circuitry*
G04 Layer Name 3339c.pcb - circuitry*
%LPD*%
*
G54D10*
G01X411752Y407008D03*
X426752D03*
X441752D03*
X456752D03*
X636252Y408508D03*
X666252D03*
G54D11*
X426752Y432008D03*
X466752D03*
X506752D03*
X446752Y512008D03*
X466752D03*
X486752D03*
X576252Y433508D03*
X616252D03*
X656252D03*
X636252Y513508D03*
X616252D03*
X596252D03*
X596752Y553508D03*
X616752D03*
X631752D03*
X651752D03*
X671752Y533508D03*
Y573508D03*
Y588508D03*
X661752D03*
X651752D03*
X636752D03*
X611752D03*
X586752Y586008D03*
X621752Y608508D03*
X611752Y628508D03*
X594252Y616008D03*
X584252Y636008D03*
X621752Y628508D03*
X636752D03*
X651752D03*
X661752D03*
X671752D03*
X541752Y522008D03*
Y482008D03*
G54D12*
Y442008D03*
Y462008D03*
X410252Y546008D03*
X430252D03*
X440252Y536008D03*
Y546008D03*
X450252Y566008D03*
X430252D03*
X410252D03*
X470252D03*
X481252Y537508D03*
X491252D03*
Y547508D03*
X481252D03*
X491252Y557508D03*
Y567508D03*
Y577508D03*
Y587508D03*
Y597508D03*
Y607508D03*
Y617508D03*
Y627508D03*
X521252D03*
Y617508D03*
Y607508D03*
Y597508D03*
Y587508D03*
Y577508D03*
Y567508D03*
X536252Y572508D03*
Y592508D03*
Y607508D03*
Y627508D03*
X556252D03*
X566252D03*
Y587508D03*
X556252D03*
X531252Y557508D03*
Y547508D03*
Y537508D03*
X556252Y552508D03*
X576252D03*
X566252Y542508D03*
X410752Y587008D03*
X420752D03*
X430752D03*
X440752D03*
X450752D03*
X460752D03*
X470752D03*
X480752Y607008D03*
X440752D03*
X480752Y627008D03*
X470752D03*
X460752D03*
X450752D03*
X440752D03*
X430752D03*
X410752D03*
X420752D03*
X0Y0D02*
M02*
