*
*
G04 PADS Layout (Build Number 2007.42.1) generated Gerber (RS-274-X) file*
G04 PC Version=2.1*
*
%IN "3339c.pcb"*%
*
%MOIN*%
*
%FSLAX35Y35*%
*
*
*
*
G04 PC Standard Apertures*
*
*
G04 Thermal Relief Aperture macro.*
%AMTER*
1,1,$1,0,0*
1,0,$1-$2,0,0*
21,0,$3,$4,0,0,45*
21,0,$3,$4,0,0,135*
%
*
*
G04 Annular Aperture macro.*
%AMANN*
1,1,$1,0,0*
1,0,$2,0,0*
%
*
*
G04 Odd Aperture macro.*
%AMODD*
1,1,$1,0,0*
1,0,$1-0.005,0,0*
%
*
*
G04 PC Custom Aperture Macros*
*
*
*
*
*
*
G04 PC Aperture Table*
*
%ADD010C,0.08661*%
%ADD011C,0.06496*%
%ADD012C,0.06*%
%ADD013C,0.03937*%
%ADD014C,0.012*%
%ADD015C,0.01772*%
%ADD016C,0.001*%
%ADD020C,0.01*%
%ADD021C,0.005*%
*
*
*
*
G04 PC Copper Outlines (0)*
G04 Layer Name 3339c.pcb - dark (0)*
%LPD*%
*
*
G04 PC Area=Custom_Thermal*
*
G04 PC Custom Flashes*
G04 Layer Name 3339c.pcb - flashes*
%LPD*%
*
*
G04 PC Circuitry*
G04 Layer Name 3339c.pcb - circuitry*
%LPD*%
*
G54D10*
G01X411752Y407008D03*
X426752D03*
X441752D03*
X456752D03*
X636252Y408508D03*
X666252D03*
G54D11*
X426752Y432008D03*
X466752D03*
X506752D03*
X446752Y512008D03*
X466752D03*
X486752D03*
X576252Y433508D03*
X616252D03*
X656252D03*
X636252Y513508D03*
X616252D03*
X596252D03*
X596752Y553508D03*
X616752D03*
X631752D03*
X651752D03*
X671752Y533508D03*
Y573508D03*
Y588508D03*
X661752D03*
X651752D03*
X636752D03*
X611752D03*
X586752Y586008D03*
X621752Y608508D03*
X611752Y628508D03*
X594252Y616008D03*
X584252Y636008D03*
X621752Y628508D03*
X636752D03*
X651752D03*
X661752D03*
X671752D03*
X541752Y522008D03*
Y482008D03*
G54D12*
Y442008D03*
Y462008D03*
X410252Y546008D03*
X430252D03*
X440252Y536008D03*
Y546008D03*
X450252Y566008D03*
X430252D03*
X410252D03*
X470252D03*
X481252Y537508D03*
X491252D03*
Y547508D03*
X481252D03*
X491252Y557508D03*
Y567508D03*
Y577508D03*
Y587508D03*
Y597508D03*
Y607508D03*
Y617508D03*
Y627508D03*
X521252D03*
Y617508D03*
Y607508D03*
Y597508D03*
Y587508D03*
Y577508D03*
Y567508D03*
X536252Y572508D03*
Y592508D03*
Y607508D03*
Y627508D03*
X556252D03*
X566252D03*
Y587508D03*
X556252D03*
X531252Y557508D03*
Y547508D03*
Y537508D03*
X556252Y552508D03*
X576252D03*
X566252Y542508D03*
X410752Y587008D03*
X420752D03*
X430752D03*
X440752D03*
X450752D03*
X460752D03*
X470752D03*
X480752Y607008D03*
X440752D03*
X480752Y627008D03*
X470752D03*
X460752D03*
X450752D03*
X440752D03*
X430752D03*
X410752D03*
X420752D03*
G54D13*
X426752Y432008D02*
X466752D01*
X426752Y407008D02*
X444252Y424508D01*
X499252*
X506752Y432008*
X411752Y407008D02*
Y426496D01*
X417264Y432008*
X426752*
X441752Y407008D02*
X451752Y417008D01*
X535846*
X541752Y422913*
Y442008*
X501988Y482008D02*
X531516D01*
X446752Y512008D02*
X476752Y482008D01*
X501988*
X531516D02*
Y452244D01*
X541752Y442008*
X531516Y482008D02*
X541752D01*
X576252Y433508D02*
X616252D01*
X656252D02*
X666252Y423508D01*
Y408508*
X616252Y433508D02*
X627260D01*
X636240Y424528*
Y408508*
X636252*
X401988Y520276D02*
Y537744D01*
X410252Y546008*
X401042Y575218D02*
X410252Y566008D01*
X401988Y520276D02*
X410256Y512008D01*
X446752*
X410252Y546008D02*
Y566008D01*
X471280Y541445D02*
Y552087D01*
X476701Y557508*
X491252*
X471280Y541445D02*
X475217Y537508D01*
X481252*
X501988Y516772*
Y482008*
X576252Y552508D02*
Y504201D01*
X581909Y498543*
X620098*
X626791Y505236*
Y526102*
X641752Y541063*
X576252Y552508D02*
X595752D01*
X596752Y553508*
X531252Y557508D02*
Y567508D01*
X536252Y572508*
Y592508D02*
X550295Y578465D01*
X596476*
X600020Y582008*
Y596776*
X629154Y625909*
Y632795*
X631516Y635157*
X640394*
X643150Y632402*
Y616260*
X536252Y572508D02*
X607370D01*
X611752Y576890*
X521252Y587508D02*
Y577508D01*
X531252*
X536252Y572508*
X611752Y588508D02*
Y576890D01*
X616752Y571890*
Y553508*
X641752Y541063D02*
Y568277D01*
X651752Y578277*
Y588508*
X641752Y541063D02*
X658366D01*
X671752Y554449*
Y573508*
X611752Y588508D02*
Y598508D01*
X621752Y608508*
X636752Y588508D02*
Y602874D01*
X643150Y609272*
Y616260*
X662415Y588508D02*
X661752D01*
X671752*
X651752Y553508D02*
Y566811D01*
X662415Y577475*
Y588508*
X616752Y553508D02*
X631752D01*
X596252Y513508D02*
Y533008D01*
X616752Y553508*
X636252Y513508D02*
X651752D01*
X671752Y533508*
X678366Y540122*
Y603416*
X401042Y575218D02*
Y629705D01*
X409453Y638117*
X497337*
X503131Y632322*
Y619387D02*
Y632322D01*
X480752Y607008D02*
Y607258D01*
X491252*
Y607508*
X503131Y619387*
X491252Y597508D02*
X510342Y616598D01*
Y632424*
X520324Y642406*
X595073*
X598856Y638622*
X611752*
X515102Y601358D02*
Y593657D01*
X521252Y587508*
X515102Y601358D02*
X521252Y607508D01*
Y597508D02*
X531252D01*
X536252Y592508*
X611752Y638622D02*
X615768Y642638D01*
X644272*
X651752Y635157*
Y628508*
X643150Y616260D02*
X657815D01*
X661752Y620197*
Y628508*
X621752D02*
X611752D01*
Y638622*
X621752Y608508D02*
X630850D01*
X636752Y614409*
Y628508*
X671752D02*
Y610030D01*
X678366Y603416*
G54D14*
X456752Y407008D02*
X545492D01*
X551594Y413110*
Y452165*
X541752Y462008D02*
X551201Y471457D01*
Y512559*
X541752Y462008D02*
X551594Y452165D01*
X406552Y582562D02*
X418524Y570591D01*
Y530039*
X426791Y521772*
X476988*
X486752Y512008*
X410752Y587008D02*
Y585508D01*
X430252Y566008*
X470752Y587008D02*
X479565D01*
X485065Y592508*
X496993*
X503418Y598934*
Y603395*
X517531Y617508*
X521252*
X460752Y587008D02*
Y607598D01*
X470752Y617598*
Y627008*
X450752Y587008D02*
Y606811D01*
X430752Y587008D02*
X436146Y581614D01*
X455358*
X460752Y587008*
X491252Y587508D02*
X495639D01*
X506055Y597924*
Y602665*
X515679Y612289*
X523971*
X553533Y582727*
X561471*
X566252Y587508*
X491252Y567508D02*
X491862Y568118D01*
X529547Y530433*
X536764*
X548839Y542508*
X566252*
X481252Y547508D02*
X491252Y537508D01*
X498051*
X513551Y522008*
X541752*
X470252Y566008D02*
X476472D01*
X477972Y567508*
X491252*
X430252Y566008D02*
X443496Y579252D01*
X462996*
X470752Y587008*
X541752Y522008D02*
X551201Y512559D01*
X531252Y537508D02*
Y547508D01*
X541252*
X546252Y552508*
X556252*
Y587508D02*
X556252D01*
X406552Y582562D02*
Y603678D01*
X410752Y607878*
Y627008D02*
Y607878D01*
X413780*
X420752Y600906*
Y587008*
Y627008D02*
X430752D01*
X450752Y606811D02*
X460752Y616811D01*
Y627008*
X430752D02*
X440752D01*
X450752*
X457914Y634170*
X491630*
X496230Y629570*
Y622486*
X460752Y627008D02*
X465336Y631592D01*
X487168*
X491252Y627508*
X480752Y627008D02*
X481002Y627258D01*
X491002Y617258*
X491252Y617508*
X480752Y627008D02*
X481002Y627258D01*
X440752Y607008D02*
X450555D01*
X450752Y606811*
X491252Y617508D02*
X496230Y622486D01*
X520987Y617772D02*
X521252Y617508D01*
X584252Y636008D02*
X568092D01*
X566161*
X566252Y635917*
Y627508*
X565374Y636008D02*
X566161D01*
X584252D02*
X594252Y626008D01*
Y616008*
X556252Y627508D02*
Y622744D01*
X586752Y592244*
Y586008*
X536252Y627508D02*
X544752Y636008D01*
X565374*
X536252Y607508D02*
X556252Y587508D01*
X521252Y617508D02*
X526252D01*
X536252Y607508*
X521252Y627508D02*
X536252D01*
G54D15*
X450252Y559173D02*
X471482D01*
X474883Y562575*
X493351*
X496319Y559607*
X450252Y559173D02*
Y566008D01*
X496319Y559607D02*
Y552575D01*
X491252Y547508*
X450252Y566008D02*
X457248D01*
X464193Y572953*
X481970*
X486526Y577508*
X491252*
X440252Y546008D02*
Y566654D01*
X450094Y576496*
X480240*
X491252Y587508*
X440252Y536008D02*
X450252Y546008D01*
Y559173*
X430252Y546008D02*
X440252D01*
G54D16*
X486669Y472222D02*
Y444422D01*
X519820*
Y447667*
X493555*
Y444857*
X492892*
X486679Y451070*
X492751Y457142*
X493453*
Y454552*
X519731*
Y472410*
X517203*
Y465156*
X519517*
Y464215*
X513262Y457961*
X508695Y462528*
X508295*
X503551Y457784*
X498886Y462448*
X498148*
X493473Y457774*
X487087Y464160*
Y464896*
X489525*
Y472222*
X486669*
X493555Y447420D02*
X519820D01*
X493555Y446420D02*
X519820D01*
X493555Y445420D02*
X519820D01*
X517203Y471420D02*
X519731D01*
X517203Y470420D02*
X519731D01*
X517203Y469420D02*
X519731D01*
X517203Y468420D02*
X519731D01*
X517203Y467420D02*
X519731D01*
X517203Y466420D02*
X519731D01*
X517203Y465420D02*
X519731D01*
X519517Y464420D02*
X519731D01*
X518722Y463420D02*
X519731D01*
X517722Y462420D02*
X519731D01*
X516722Y461420D02*
X519731D01*
X515722Y460420D02*
X519731D01*
X514722Y459420D02*
X519731D01*
X513722Y458420D02*
X519731D01*
X486669Y457420D02*
X519731D01*
X493453Y456420D02*
X519731D01*
X493453Y455420D02*
X519731D01*
X504188Y458420D02*
X512803D01*
X505188Y459420D02*
X511803D01*
X506188Y460420D02*
X510803D01*
X507188Y461420D02*
X509803D01*
X508188Y462420D02*
X508803D01*
X494120Y458420D02*
X502914D01*
X495120Y459420D02*
X501914D01*
X496120Y460420D02*
X500914D01*
X497120Y461420D02*
X499914D01*
X498120Y462420D02*
X498914D01*
X486669Y458420D02*
X492827D01*
X486669Y445420D02*
X492329D01*
X486669Y456420D02*
X492029D01*
X486669Y459420D02*
X491827D01*
X486669Y446420D02*
X491329D01*
X486669Y455420D02*
X491029D01*
X486669Y460420D02*
X490827D01*
X486669Y447420D02*
X490329D01*
X486669Y454420D02*
X490029D01*
X486669Y461420D02*
X489827D01*
X486669Y471420D02*
X489525D01*
X486669Y470420D02*
X489525D01*
X486669Y469420D02*
X489525D01*
X486669Y468420D02*
X489525D01*
X486669Y467420D02*
X489525D01*
X486669Y466420D02*
X489525D01*
X486669Y465420D02*
X489525D01*
X486669Y448420D02*
X489329D01*
X486669Y453420D02*
X489029D01*
X486669Y462420D02*
X488827D01*
X486669Y449420D02*
X488329D01*
X486669Y452420D02*
X488029D01*
X486669Y463420D02*
X487827D01*
X486669Y450420D02*
X487329D01*
X486669Y464420D02*
X487087D01*
X486669Y451420D02*
X487029D01*
X519669Y454552D02*
Y472410D01*
Y444422D02*
Y447667D01*
X518669Y465156D02*
Y472410D01*
Y454552D02*
Y463367D01*
Y444422D02*
Y447667D01*
X517669Y465156D02*
Y472410D01*
Y454552D02*
Y462367D01*
Y444422D02*
Y447667D01*
X516669Y454552D02*
Y461367D01*
Y444422D02*
Y447667D01*
X515669Y454552D02*
Y460367D01*
Y444422D02*
Y447667D01*
X514669Y454552D02*
Y459367D01*
Y444422D02*
Y447667D01*
X513669Y454552D02*
Y458367D01*
Y444422D02*
Y447667D01*
X512669Y454552D02*
Y458554D01*
Y444422D02*
Y447667D01*
X511669Y454552D02*
Y459554D01*
Y444422D02*
Y447667D01*
X510669Y454552D02*
Y460554D01*
Y444422D02*
Y447667D01*
X509669Y454552D02*
Y461554D01*
Y444422D02*
Y447667D01*
X508669Y454552D02*
Y462528D01*
Y444422D02*
Y447667D01*
X507669Y454552D02*
Y461901D01*
Y444422D02*
Y447667D01*
X506669Y454552D02*
Y460901D01*
Y444422D02*
Y447667D01*
X505669Y454552D02*
Y459901D01*
Y444422D02*
Y447667D01*
X504669Y454552D02*
Y458901D01*
Y444422D02*
Y447667D01*
X503669Y454552D02*
Y457901D01*
Y444422D02*
Y447667D01*
X502669Y454552D02*
Y458666D01*
Y444422D02*
Y447667D01*
X501669Y454552D02*
Y459666D01*
Y444422D02*
Y447667D01*
X500669Y454552D02*
Y460666D01*
Y444422D02*
Y447667D01*
X499669Y454552D02*
Y461666D01*
Y444422D02*
Y447667D01*
X498669Y454552D02*
Y462448D01*
Y444422D02*
Y447667D01*
X497669Y454552D02*
Y461969D01*
Y444422D02*
Y447667D01*
X496669Y454552D02*
Y460969D01*
Y444422D02*
Y447667D01*
X495669Y454552D02*
Y459969D01*
Y444422D02*
Y447667D01*
X494669Y454552D02*
Y458969D01*
Y444422D02*
Y447667D01*
X493669Y454552D02*
Y457969D01*
Y444422D02*
Y447667D01*
X492669Y457060D02*
Y458579D01*
Y444422D02*
Y445081D01*
X491669Y456060D02*
Y459579D01*
Y444422D02*
Y446081D01*
X490669Y455060D02*
Y460579D01*
Y444422D02*
Y447081D01*
X489669Y454060D02*
Y461579D01*
Y444422D02*
Y448081D01*
X488669Y464896D02*
Y472222D01*
Y453060D02*
Y462579D01*
Y444422D02*
Y449081D01*
X487669Y464896D02*
Y472222D01*
Y452060D02*
Y463579D01*
Y444422D02*
Y450081D01*
X414173Y407087D02*
G75*
G03X414173I-2362J0D01*
G01X608149Y393720D02*
Y403563D01*
X470354*
Y393720*
X393582*
Y648248*
X684527*
Y393720*
X608149*
G54D20*
X654503Y483164D02*
X654730Y483789D01*
X655185Y484414*
X655639Y484726*
X656548*
X657003Y484414*
X657457Y483789*
X657685Y483164*
X657912Y482226*
Y480664*
X657685Y479726*
X657457Y479101*
X657003Y478476*
X656548Y478164*
X655639*
X655185Y478476*
X654730Y479101*
X654503Y479726*
X652457Y484726D02*
Y480039D01*
X652230Y479101*
X651775Y478476*
X651094Y478164*
X650639*
X649957Y478476*
X649503Y479101*
X649275Y480039*
Y484726*
X647230D02*
Y478164D01*
Y484726D02*
X645185D01*
X644503Y484414*
X644275Y484101*
X644048Y483476*
Y482851*
X644275Y482226*
X644503Y481914*
X645185Y481601*
X647230*
X645639D02*
X644048Y478164D01*
X642003Y484726D02*
Y478164D01*
Y484726D02*
X639957D01*
X639275Y484414*
X639048Y484101*
X638821Y483476*
Y482851*
X639048Y482226*
X639275Y481914*
X639957Y481601*
X642003*
X640412D02*
X638821Y478164D01*
X636775Y484726D02*
Y478164D01*
Y484726D02*
X633821D01*
X636775Y481601D02*
X634957D01*
X636775Y478164D02*
X633821D01*
X631775Y484726D02*
Y478164D01*
Y484726D02*
X628594Y478164D01*
Y484726D02*
Y478164D01*
X624957Y484726D02*
Y478164D01*
X626548Y484726D02*
X623366D01*
X612685Y483164D02*
X612912Y483789D01*
X613366Y484414*
X613821Y484726*
X614730*
X615185Y484414*
X615639Y483789*
X615866Y483164*
X616094Y482226*
Y480664*
X615866Y479726*
X615639Y479101*
X615185Y478476*
X614730Y478164*
X613821*
X613366Y478476*
X612912Y479101*
X612685Y479726*
X609275Y484726D02*
X609730Y484414D01*
X610185Y483789*
X610412Y483164*
X610639Y482226*
Y480664*
X610412Y479726*
X610185Y479101*
X609730Y478476*
X609275Y478164*
X608366*
X607912Y478476*
X607457Y479101*
X607230Y479726*
X607003Y480664*
Y482226*
X607230Y483164*
X607457Y483789*
X607912Y484414*
X608366Y484726*
X609275*
X604957D02*
Y478164D01*
Y484726D02*
X601775Y478164D01*
Y484726D02*
Y478164D01*
X599730Y484726D02*
X597912Y478164D01*
X596094Y484726D02*
X597912Y478164D01*
X594048Y484726D02*
Y478164D01*
Y484726D02*
X591094D01*
X594048Y481601D02*
X592230D01*
X594048Y478164D02*
X591094D01*
X589048Y484726D02*
Y478164D01*
Y484726D02*
X587003D01*
X586321Y484414*
X586094Y484101*
X585866Y483476*
Y482851*
X586094Y482226*
X586321Y481914*
X587003Y481601*
X589048*
X587457D02*
X585866Y478164D01*
X582230Y484726D02*
Y478164D01*
X583821Y484726D02*
X580639D01*
X578594D02*
Y478164D01*
Y484726D02*
X575639D01*
X578594Y481601D02*
X576775D01*
X578594Y478164D02*
X575639D01*
X573594Y484726D02*
Y478164D01*
Y484726D02*
X571548D01*
X570866Y484414*
X570639Y484101*
X570412Y483476*
Y482851*
X570639Y482226*
X570866Y481914*
X571548Y481601*
X573594*
X572003D02*
X570412Y478164D01*
X646372Y473218D02*
X646826Y473843D01*
X647508Y474156*
X648417*
X649099Y473843*
X649553Y473218*
Y472593*
X649326Y471968*
X649099Y471656*
X648644Y471343*
X647281Y470718*
X646826Y470406*
X646599Y470093*
X646372Y469468*
Y468531*
X646826Y467906*
X647508Y467593*
X648417*
X649099Y467906*
X649553Y468531*
X642508Y474156D02*
X644326Y467593D01*
X642508Y474156D02*
X640690Y467593D01*
X643644Y469781D02*
X641372D01*
X635235Y472593D02*
X635463Y473218D01*
X635917Y473843*
X636372Y474156*
X637281*
X637735Y473843*
X638190Y473218*
X638417Y472593*
X638644Y471656*
Y470093*
X638417Y469156*
X638190Y468531*
X637735Y467906*
X637281Y467593*
X636372*
X635917Y467906*
X635463Y468531*
X635235Y469156*
Y470093*
X636372D02*
X635235D01*
X632963Y471968D02*
X633190Y471656D01*
X632963Y471343*
X632735Y471656*
X632963Y471968*
Y468218D02*
X633190Y467906D01*
X632963Y467593*
X632735Y467906*
X632963Y468218*
X625008Y474156D02*
X622508D01*
X623872Y471656*
X623190*
X622735Y471343*
X622508Y471031*
X622281Y470093*
Y469468*
X622508Y468531*
X622963Y467906*
X623644Y467593*
X624326*
X625008Y467906*
X625235Y468218*
X625463Y468843*
X619781Y474156D02*
X617281D01*
X618644Y471656*
X617963*
X617508Y471343*
X617281Y471031*
X617053Y470093*
Y469468*
X617281Y468531*
X617735Y467906*
X618417Y467593*
X619099*
X619781Y467906*
X620008Y468218*
X620235Y468843*
X614553Y474156D02*
X612053D01*
X613417Y471656*
X612735*
X612281Y471343*
X612053Y471031*
X611826Y470093*
Y469468*
X612053Y468531*
X612508Y467906*
X613190Y467593*
X613872*
X614553Y467906*
X614781Y468218*
X615008Y468843*
X606826Y471968D02*
X607053Y471031D01*
X607508Y470406*
X608190Y470093*
X608417*
X609099Y470406*
X609553Y471031*
X609781Y471968*
Y472281*
X609553Y473218*
X609099Y473843*
X608417Y474156*
X608190*
X607508Y473843*
X607053Y473218*
X606826Y471968*
Y470406*
X607053Y468843*
X607508Y467906*
X608190Y467593*
X608644*
X609326Y467906*
X609553Y468531*
X634896Y463339D02*
X635578Y463026D01*
X635805Y462401*
Y461776*
X635578Y461151*
X635123Y460839*
X634214Y460526*
X633533Y460214*
X633078Y459589*
X632851Y458964*
Y458026*
X633078Y457401*
X633305Y457089*
X633987Y456776*
X634896*
X635578Y457089*
X635805Y457401*
X636033Y458026*
Y458964*
X635805Y459589*
X635351Y460214*
X634669Y460526*
X633760Y460839*
X633305Y461151*
X633078Y461776*
Y462401*
X633305Y463026*
X633987Y463339*
X634896*
X627851Y461151D02*
X628078Y460214D01*
X628533Y459589*
X629214Y459276*
X629442*
X630123Y459589*
X630578Y460214*
X630805Y461151*
Y461464*
X630578Y462401*
X630123Y463026*
X629442Y463339*
X629214*
X628533Y463026*
X628078Y462401*
X627851Y461151*
Y459589*
X628078Y458026*
X628533Y457089*
X629214Y456776*
X629669*
X630351Y457089*
X630578Y457714*
X624442Y463339D02*
X625123Y463026D01*
X625578Y462089*
X625805Y460526*
Y459589*
X625578Y458026*
X625123Y457089*
X624442Y456776*
X623987*
X623305Y457089*
X622851Y458026*
X622623Y459589*
Y460526*
X622851Y462089*
X623305Y463026*
X623987Y463339*
X624442*
X620351Y461776D02*
Y462089D01*
X620123Y462714*
X619896Y463026*
X619442Y463339*
X618533*
X618078Y463026*
X617851Y462714*
X617623Y462089*
Y461464*
X617851Y460839*
X618305Y459901*
X620578Y456776*
X617396*
X615123Y461776D02*
Y462089D01*
X614896Y462714*
X614669Y463026*
X614214Y463339*
X613305*
X612851Y463026*
X612623Y462714*
X612396Y462089*
Y461464*
X612623Y460839*
X613078Y459901*
X615351Y456776*
X612169*
X608760Y463339D02*
X609442Y463026D01*
X609896Y462089*
X610123Y460526*
Y459589*
X609896Y458026*
X609442Y457089*
X608760Y456776*
X608305*
X607623Y457089*
X607169Y458026*
X606942Y459589*
Y460526*
X607169Y462089*
X607623Y463026*
X608305Y463339*
X608760*
G54D21*
X468234Y458494D02*
X476439D01*
Y471528*
X479151*
Y456632*
X468234*
Y458494*
X457495Y460302D02*
X458193Y459077D01*
X459278Y458324*
X460651Y458060*
X462024Y458324*
X463126Y459075*
X463842Y460301*
X464081Y461964*
X463842Y463595*
X463145Y464836*
X462040Y465589*
X460687Y465837*
X459298Y465590*
X458192Y464836*
X457495Y463595*
X457293Y462214*
X454597*
X454969Y464244*
X456165Y466010*
X458083Y467137*
X460686Y467538*
X463219Y467138*
X465138Y466009*
X466351Y464243*
X466787Y461963*
X466368Y459653*
X465172Y457888*
X463254Y456760*
X460652Y456359*
X458101Y456760*
X456182Y457888*
X454969Y459654*
X454596Y461714*
X457292*
X457495Y460302*
X442842Y458829D02*
X443523Y458424D01*
X444360Y458130*
X445327Y458028*
X447662Y459037*
X448442Y461827*
X448128Y463803*
X447336Y465045*
X446288Y465698*
X445184Y465898*
X443651Y465623*
X442245Y464874*
Y459669*
X439637*
Y459694*
Y472786*
X442245*
Y466424*
X443264Y466966*
X443986Y467261*
X444822Y467467*
X445730Y467539*
X447779Y467170*
X449508Y466075*
X450707Y464247*
X451145Y461719*
X450708Y459270*
X449565Y457613*
X447960Y456668*
X446047Y456358*
X444882Y456461*
X443921Y456752*
X443129Y457201*
X442414Y457828*
X442028*
X441888Y456632*
X439577*
X439620Y457787*
X439632Y459169*
X442408*
X442842Y458829*
X428210D02*
X428895Y458439D01*
X429728Y458146*
X430659Y458032*
X431444Y458133*
X432118Y458446*
X432614Y458991*
X432809Y459790*
X432046Y461202*
X430083Y461633*
X428866Y461553*
X427650Y461347*
Y459669*
X425042*
Y459692*
Y463868*
X425372Y465331*
X426345Y466484*
X427987Y467256*
X430348Y467540*
X432551Y467345*
X434388Y466834*
Y465234*
X432623Y465707*
X430689Y465896*
X429309Y465718*
X428344Y465227*
X427804Y464488*
X427650Y463643*
Y462892*
X429134Y463157*
X430615Y463247*
X432595Y462994*
X434118Y462282*
X435089Y461158*
X435430Y459662*
X435139Y458286*
X434319Y457255*
X433042Y456593*
X431456Y456358*
X430241Y456490*
X429242Y456826*
X428444Y457279*
X427780Y457828*
X427391*
X427287Y456632*
X424950*
X425007Y457785*
X425032Y459169*
X427808*
X428210Y458829*
X402486Y463278D02*
X402520Y464167D01*
X402605Y464848*
X402735Y465392*
X402931Y465802*
X404260Y467071*
X406440Y467538*
X407733Y467407*
X408865Y467013*
X409831Y466399*
X410688Y465548*
X410964*
X412504Y467087*
X414643Y467538*
X415921Y467393*
X417038Y467012*
X417934Y466458*
X418685Y465732*
X419025*
X419340Y467265*
X421434*
Y456632*
X418827*
Y464163*
X418025Y464867*
X417179Y465352*
X416277Y465659*
X415345Y465776*
X414039Y465399*
X414039D02*
X413418Y464484D01*
X413300Y463865*
X413264Y463167*
Y456632*
X410656*
Y464163*
X409854Y464867*
X409008Y465352*
X408106Y465659*
X407174Y465776*
X405888Y465400*
X405248Y464486*
X405130Y463865*
X405094Y463167*
Y456632*
X402486*
Y463278*
X496997Y471939D02*
Y465094D01*
X499719*
Y471939*
X496997*
X507306Y471965D02*
Y465197D01*
X509821*
Y471965*
X507306*
X476439Y470631D02*
X479151D01*
X476439Y469631D02*
X479151D01*
X476439Y468631D02*
X479151D01*
X476439Y467631D02*
X479151D01*
X476439Y466631D02*
X479151D01*
X476439Y465631D02*
X479151D01*
X476439Y464631D02*
X479151D01*
X476439Y463631D02*
X479151D01*
X476439Y462631D02*
X479151D01*
X476439Y461631D02*
X479151D01*
X476439Y460631D02*
X479151D01*
X476439Y459631D02*
X479151D01*
X476439Y458631D02*
X479151D01*
X468234Y457631D02*
X479151D01*
X464024Y462358D02*
X466711D01*
X463994Y461358D02*
X466677D01*
X463877Y463358D02*
X466520D01*
X463850Y460358D02*
X466496D01*
X463414Y464358D02*
X466272D01*
X463291Y459358D02*
X466168D01*
X462380Y465358D02*
X465585D01*
X462073Y458358D02*
X465491D01*
X456758Y466358D02*
X464545D01*
X457084Y457358D02*
X464271D01*
X459516Y467358D02*
X461825D01*
X455859Y458358D02*
X459229D01*
X455724Y465358D02*
X458958D01*
X455173Y459358D02*
X458032D01*
X455046Y464358D02*
X457924D01*
X454842Y460358D02*
X457487D01*
X454807Y463358D02*
X457460D01*
X454660Y461358D02*
X457343D01*
X454623Y462358D02*
X457314D01*
X448310Y461357D02*
X451080D01*
X448357Y462357D02*
X451034D01*
X448031Y460357D02*
X450902D01*
X448199Y463357D02*
X450861D01*
X447751Y459357D02*
X450723D01*
X447775Y464357D02*
X450635D01*
X446087Y458357D02*
X450078D01*
X446835Y465357D02*
X449979D01*
X442951Y457357D02*
X449131D01*
X439637Y466357D02*
X449064D01*
X444374Y467357D02*
X446744D01*
X439625Y458357D02*
X443715D01*
X439637Y465357D02*
X443152D01*
X439637Y472357D02*
X442245D01*
X439637Y471357D02*
X442245D01*
X439637Y470357D02*
X442245D01*
X439637Y469357D02*
X442245D01*
X439637Y468357D02*
X442245D01*
X439637Y467357D02*
X442245D01*
X439637Y464357D02*
X442245D01*
X439637Y463357D02*
X442245D01*
X439637Y462357D02*
X442245D01*
X439637Y461357D02*
X442245D01*
X439637Y460357D02*
X442245D01*
X439604Y457357D02*
X441973D01*
X432703Y459357D02*
X435366D01*
X432503Y460357D02*
X435272D01*
X431926Y458357D02*
X435154D01*
X431341Y461357D02*
X434917D01*
X428349Y457357D02*
X434400D01*
X426237Y466357D02*
X434388D01*
X433930Y465357D02*
X434388D01*
X425042Y462357D02*
X433956D01*
X428825Y467357D02*
X432413D01*
X425018Y458357D02*
X429128D01*
X425394Y465357D02*
X428600D01*
X425152Y464357D02*
X427780D01*
X425042Y461357D02*
X427708D01*
X425042Y463357D02*
X427650D01*
X425042Y460357D02*
X427650D01*
X424986Y457357D02*
X427350D01*
X419210Y466631D02*
X421434D01*
X416359Y465631D02*
X421434D01*
X418294Y464631D02*
X421434D01*
X418827Y463631D02*
X421434D01*
X418827Y462631D02*
X421434D01*
X418827Y461631D02*
X421434D01*
X418827Y460631D02*
X421434D01*
X418827Y459631D02*
X421434D01*
X418827Y458631D02*
X421434D01*
X418827Y457631D02*
X421434D01*
X412048Y466631D02*
X417654D01*
X411047Y465631D02*
X414842D01*
X410123Y464631D02*
X413517D01*
X410656Y463631D02*
X413288D01*
X410656Y462631D02*
X413264D01*
X410656Y461631D02*
X413264D01*
X410656Y460631D02*
X413264D01*
X410656Y459631D02*
X413264D01*
X410656Y458631D02*
X413264D01*
X410656Y457631D02*
X413264D01*
X408188Y465631D02*
X410604D01*
X403800Y466631D02*
X409465D01*
X402849Y465631D02*
X406678D01*
X402578Y464631D02*
X405349D01*
X402500Y463631D02*
X405118D01*
X402486Y462631D02*
X405094D01*
X402486Y461631D02*
X405094D01*
X402486Y460631D02*
X405094D01*
X402486Y459631D02*
X405094D01*
X402486Y458631D02*
X405094D01*
X402486Y457631D02*
X405094D01*
X496997Y471093D02*
X499719D01*
X496997Y470093D02*
X499719D01*
X496997Y469093D02*
X499719D01*
X496997Y468093D02*
X499719D01*
X496997Y467093D02*
X499719D01*
X496997Y466093D02*
X499719D01*
X507306Y471196D02*
X509821D01*
X507306Y470196D02*
X509821D01*
X507306Y469196D02*
X509821D01*
X507306Y468196D02*
X509821D01*
X507306Y467196D02*
X509821D01*
X507306Y466196D02*
X509821D01*
X478234Y456632D02*
Y471528D01*
X477234Y456632D02*
Y471528D01*
X476234Y456632D02*
Y458494D01*
X475234Y456632D02*
Y458494D01*
X474234Y456632D02*
Y458494D01*
X473234Y456632D02*
Y458494D01*
X472234Y456632D02*
Y458494D01*
X471234Y456632D02*
Y458494D01*
X470234Y456632D02*
Y458494D01*
X469234Y456632D02*
Y458494D01*
X466596Y460910D02*
Y462962D01*
X465596Y458514D02*
Y465342D01*
X464596Y457549D02*
Y466328D01*
X463596Y464034D02*
Y466916D01*
Y456961D02*
Y459879D01*
X462596Y465211D02*
Y467236D01*
Y456659D02*
Y458714D01*
X461596Y465671D02*
Y467394D01*
Y456505D02*
Y458242D01*
X460596Y465821D02*
Y467524D01*
Y456368D02*
Y458071D01*
X459596Y465643D02*
Y467370D01*
Y456525D02*
Y458263D01*
X458596Y465111D02*
Y467216D01*
Y456682D02*
Y458797D01*
X457596Y463774D02*
Y466851D01*
Y457057D02*
Y460125D01*
X456596Y462214D02*
Y466263D01*
Y457645D02*
Y461714D01*
X455596Y462214D02*
Y465169D01*
Y458742D02*
Y461714D01*
X450577Y459080D02*
Y464446D01*
X449577Y457629D02*
Y465971D01*
X448577Y457031D02*
Y466665D01*
X447577Y464668D02*
Y467207D01*
Y456606D02*
Y459000D01*
X446577Y465518D02*
Y467387D01*
Y456444D02*
Y458568D01*
X445577Y465827D02*
Y467527D01*
Y456399D02*
Y458136D01*
X444577Y465789D02*
Y467407D01*
Y456553D02*
Y458107D01*
X443577Y465583D02*
Y467094D01*
Y456947D02*
Y458405D01*
X442577Y465051D02*
Y466601D01*
Y457686D02*
Y459037D01*
X441577Y459669D02*
Y472786D01*
Y456632D02*
Y459169D01*
X440577Y459669D02*
Y472786D01*
Y456632D02*
Y459169D01*
X434950Y458048D02*
Y461319D01*
X433950Y465352D02*
Y466956D01*
Y457063D02*
Y462360D01*
X432950Y465620D02*
Y467234D01*
Y456579D02*
Y462828D01*
X431950Y465773D02*
Y467398D01*
Y461223D02*
Y463076D01*
Y456431D02*
Y458368D01*
X430950Y465870D02*
Y467487D01*
Y461443D02*
Y463204D01*
Y456413D02*
Y458069D01*
X429950Y465801D02*
Y467492D01*
Y461624D02*
Y463206D01*
Y456588D02*
Y458119D01*
X428950Y465535D02*
Y467372D01*
Y461559D02*
Y463124D01*
Y456992D02*
Y458420D01*
X427950Y464688D02*
Y467239D01*
Y461398D02*
Y462946D01*
Y457688D02*
Y459049D01*
X426950Y459669D02*
Y466769D01*
Y456632D02*
Y459169D01*
X425950Y459669D02*
Y466016D01*
Y456632D02*
Y459169D01*
X420486Y456632D02*
Y467265D01*
X419486Y456632D02*
Y467265D01*
X418486Y464462D02*
Y465924D01*
X417486Y465176D02*
Y466735D01*
X416486Y465588D02*
Y467200D01*
X415486Y465758D02*
Y467442D01*
X414486Y465528D02*
Y467505D01*
X413486Y464585D02*
Y467294D01*
X412486Y456632D02*
Y467069D01*
X411486Y456632D02*
Y466070D01*
X410486Y464312D02*
Y465748D01*
X409486Y465078D02*
Y466618D01*
X408486Y465530D02*
Y467145D01*
X407486Y465737D02*
Y467432D01*
X406486Y465575D02*
Y467534D01*
X405486Y464826D02*
Y467334D01*
X404486Y456632D02*
Y467119D01*
X403486Y456632D02*
Y466332D01*
X498997Y465094D02*
Y471939D01*
X497997Y465094D02*
Y471939D01*
X509306Y465197D02*
Y471965D01*
X508306Y465197D02*
Y471965D01*
X442979Y448474D02*
X442996Y448876D01*
X443040Y449189*
X443110Y449448*
X443224Y449659*
X443935Y450258*
X445084Y450476*
X445768Y450415*
X446364Y450231*
X446873Y449945*
X447276Y449591*
X447311*
X448074Y450265*
X449206Y450476*
X449881Y450408*
X450469Y450231*
X450942Y449972*
X451293Y449672*
X451310*
X451468Y450353*
X452749*
Y445410*
X451188*
Y448814*
X450837Y449087*
X450433Y449291*
X450004Y449420*
X449574Y449468*
X448986Y449318*
X448714Y448964*
X448662Y448719*
X448644Y448419*
Y445410*
X447083*
Y448814*
X446732Y449087*
X446329Y449291*
X445899Y449420*
X445469Y449468*
X444891Y449318*
X444610Y448964*
X444557Y448719*
X444540Y448419*
Y445410*
X442979*
Y448474*
X408143Y452246D02*
X409511D01*
X412019Y444143*
X410651*
X408143Y452246*
X462326Y446418D02*
X462835Y446329D01*
X463361Y446295*
X464150Y446540*
X464256Y446962*
Y449359*
X462414*
Y450353*
X464256*
Y451742*
X465817*
Y450353*
X467009*
Y449359*
X465817*
Y446799*
X465676Y446063*
X464957Y445485*
X463642Y445287*
X462957Y445321*
X462326Y445410*
Y446418*
X430893D02*
X431402Y446329D01*
X431928Y446295*
X432717Y446540*
X432823Y446962*
Y449359*
X430981*
Y450353*
X432823*
Y451742*
X434384*
Y450353*
X435576*
Y449359*
X434384*
Y446799*
X434243Y446063*
X433524Y445485*
X432209Y445287*
X431525Y445321*
X430893Y445410*
Y446418*
X468378Y450353D02*
X469939D01*
Y447439*
X470097Y446772*
X470553Y446390*
X471272Y446268*
X471965Y446383*
X472412Y446717*
X472543Y447030*
X472587Y447466*
Y450353*
X474148*
Y447330*
X474070Y446724*
X473815Y446213*
X472850Y445539*
X471272Y445287*
X470351Y445362*
X469614Y445566*
X469044Y445893*
X468658Y446322*
X468378Y447330*
Y450353*
X421211Y446499D02*
X421877Y446336D01*
X422649Y446268*
X423491Y446397*
X424070Y446731*
X424412Y447221*
X424526Y447834*
X424368Y448603*
X423947Y449121*
X423342Y449407*
X422631Y449495*
X421939Y449434*
X421316Y449277*
Y450258*
X422026Y450421*
X422859Y450476*
X424017Y450326*
X425078Y449856*
X425841Y449025*
X426140Y447807*
X425885Y446690*
X425184Y445900*
X424131Y445437*
X422842Y445287*
X421939Y445355*
X421211Y445519*
Y446499*
X402372Y446935D02*
X402539Y447568D01*
X402968Y447977*
X403556Y448215*
X404214Y448365*
X404643Y448447*
X405073Y448556*
X405398Y448733*
X405512Y449005*
X405459Y449189*
X405284Y449346*
X404977Y449454*
X404512Y449495*
X404047Y449475*
X403565Y449420*
X403074Y449339*
X402618Y449237*
Y450217*
X403538Y450408*
X404635Y450476*
X405556Y450381*
X406310Y450088*
X406827Y449584*
X407020Y448869*
X406880Y448297*
X406494Y447916*
X405933Y447670*
X405284Y447493*
X404757Y447398*
X404319Y447276*
X404012Y447105*
X403898Y446840*
X404003Y446581*
X404293Y446404*
X404722Y446302*
X405266Y446268*
X406073Y446322*
X407020Y446513*
Y445546*
X406222Y445362*
X405126Y445287*
X404012Y445383*
X403135Y445689*
X402574Y446206*
X402372Y446935*
X427578Y450353D02*
X429139D01*
Y445410*
X427578*
Y450353*
X427543Y452805D02*
X429174D01*
Y451497*
X427543*
Y452805*
X456266Y447187D02*
X456590Y446683D01*
X457090Y446377*
X457730Y446268*
X458371Y446377*
X458879Y446683*
X459213Y447187*
X459327Y447888*
X459213Y448576*
X458888Y449087*
X458379Y449393*
X457748Y449495*
X457099Y449393*
X456590Y449087*
X456266Y448576*
X456152Y447888*
X454538*
X454757Y448944*
X455389Y449768*
X456397Y450292*
X457748Y450476*
X459063Y450292*
X460072Y449768*
X460712Y448944*
X460940Y447888*
X460721Y446819*
X460090Y445995*
X459081Y445471*
X457730Y445287*
X456406Y445471*
X455397Y445995*
X454757Y446819*
X454538Y447888*
X456152*
X456266Y447187*
X477429Y446588D02*
X477753Y446424D01*
X478148Y446302*
X478586Y446254*
X478946Y446295*
X479244Y446418*
X479455Y446622*
X479533Y446908*
X479200Y447453*
X478288Y447630*
X477700Y447596*
X477201Y447521*
Y446758*
X475637*
X475639Y446881*
Y448746*
X475815Y449434*
X476341Y449986*
X477209Y450347*
X478428Y450476*
X479560Y450387*
X480586Y450135*
Y449196*
X479551Y449441*
X478604Y449523*
X477946Y449448*
X477508Y449250*
X477271Y448964*
X477201Y448624*
Y448433*
X477806Y448528*
X478569Y448569*
X479595Y448454*
X480402Y448120*
X480928Y447582*
X481112Y446867*
X480954Y446206*
X480507Y445709*
X479823Y445396*
X478990Y445287*
X478349Y445348*
X477823Y445505*
X477402Y445716*
X477095Y445941*
X477060*
X477008Y445410*
X475587*
X475622Y446036*
X475637Y446758*
X477201*
X477429Y446588*
X438137D02*
X438462Y446424D01*
X438857Y446302*
X439295Y446254*
X439655Y446295*
X439953Y446418*
X440163Y446622*
X440242Y446908*
X439909Y447453*
X438997Y447630*
X438409Y447596*
X437909Y447521*
Y446758*
X436346*
X436348Y446881*
Y448746*
X436524Y449434*
X437050Y449986*
X437918Y450347*
X439137Y450476*
X440269Y450387*
X441295Y450135*
Y449196*
X440260Y449441*
X439313Y449523*
X438655Y449448*
X438216Y449250*
X437980Y448964*
X437909Y448624*
Y448433*
X438515Y448528*
X439278Y448569*
X440304Y448454*
X441111Y448120*
X441637Y447582*
X441821Y446867*
X441663Y446206*
X441216Y445709*
X440532Y445396*
X439699Y445287*
X439058Y445348*
X438532Y445505*
X438111Y445716*
X437804Y445941*
X437769*
X437716Y445410*
X436296*
X436331Y446036*
X436346Y446758*
X437909*
X438137Y446588*
X414563D02*
X414887Y446424D01*
X415282Y446302*
X415720Y446254*
X416080Y446295*
X416378Y446418*
X416589Y446622*
X416668Y446908*
X416334Y447453*
X415422Y447630*
X414835Y447596*
X414335Y447521*
Y446758*
X412771*
X412774Y446881*
Y448746*
X412949Y449434*
X413475Y449986*
X414343Y450347*
X415563Y450476*
X416694Y450387*
X417720Y450135*
Y449196*
X416685Y449441*
X415738Y449523*
X415080Y449448*
X414642Y449250*
X414405Y448964*
X414335Y448624*
Y448433*
X414940Y448528*
X415703Y448569*
X416729Y448454*
X417536Y448120*
X418062Y447582*
X418246Y446867*
X418088Y446206*
X417641Y445709*
X416957Y445396*
X416124Y445287*
X415484Y445348*
X414957Y445505*
X414536Y445716*
X414229Y445941*
X414194*
X414142Y445410*
X412721*
X412756Y446036*
X412771Y446758*
X414335*
X414563Y446588*
G74*
X0Y0D02*
M02*
