*
*
G04 PADS Layout (Build Number 2007.42.1) generated Gerber (RS-274-X) file*
G04 PC Version=2.1*
*
%IN "3339c.pcb"*%
*
%MOIN*%
*
%FSLAX35Y35*%
*
*
*
*
G04 PC Standard Apertures*
*
*
G04 Thermal Relief Aperture macro.*
%AMTER*
1,1,$1,0,0*
1,0,$1-$2,0,0*
21,0,$3,$4,0,0,45*
21,0,$3,$4,0,0,135*
%
*
*
G04 Annular Aperture macro.*
%AMANN*
1,1,$1,0,0*
1,0,$2,0,0*
%
*
*
G04 Odd Aperture macro.*
%AMODD*
1,1,$1,0,0*
1,0,$1-0.005,0,0*
%
*
*
G04 PC Custom Aperture Macros*
*
*
*
*
*
*
G04 PC Aperture Table*
*
%ADD016C,0.001*%
%ADD020C,0.01*%
%ADD021C,0.005*%
*
*
*
*
G04 PC Copper Outlines (0)*
G04 Layer Name 3339c.pcb - dark (0)*
%LPD*%
*
*
G04 PC Area=Custom_Thermal*
*
G04 PC Custom Flashes*
G04 Layer Name 3339c.pcb - flashes*
%LPD*%
*
*
G04 PC Circuitry*
G04 Layer Name 3339c.pcb - circuitry*
%LPD*%
*
G54D16*
G01X414173Y407087D02*
G75*
G03X414173I-2362J0D01*
G01X608149Y393720D02*
Y403563D01*
X470354*
Y393720*
X393582*
Y648248*
X684527*
Y393720*
X608149*
X684527Y648248D02*
X684530D01*
X393582D02*
X393585D01*
X684527Y393720D02*
X684530D01*
X608149D02*
X608152D01*
X470354D02*
X470356D01*
X393582D02*
X393585D01*
X684527D02*
X684530D01*
X684527Y648248D02*
X684530D01*
G54D20*
X654503Y483164D02*
X654730Y483789D01*
X655185Y484414*
X655639Y484726*
X656548*
X657003Y484414*
X657457Y483789*
X657685Y483164*
X657912Y482226*
Y480664*
X657685Y479726*
X657457Y479101*
X657003Y478476*
X656548Y478164*
X655639*
X655185Y478476*
X654730Y479101*
X654503Y479726*
X652457Y484726D02*
Y480039D01*
X652230Y479101*
X651775Y478476*
X651094Y478164*
X650639*
X649957Y478476*
X649503Y479101*
X649275Y480039*
Y484726*
X647230D02*
Y478164D01*
Y484726D02*
X645185D01*
X644503Y484414*
X644275Y484101*
X644048Y483476*
Y482851*
X644275Y482226*
X644503Y481914*
X645185Y481601*
X647230*
X645639D02*
X644048Y478164D01*
X642003Y484726D02*
Y478164D01*
Y484726D02*
X639957D01*
X639275Y484414*
X639048Y484101*
X638821Y483476*
Y482851*
X639048Y482226*
X639275Y481914*
X639957Y481601*
X642003*
X640412D02*
X638821Y478164D01*
X636775Y484726D02*
Y478164D01*
Y484726D02*
X633821D01*
X636775Y481601D02*
X634957D01*
X636775Y478164D02*
X633821D01*
X631775Y484726D02*
Y478164D01*
Y484726D02*
X628594Y478164D01*
Y484726D02*
Y478164D01*
X624957Y484726D02*
Y478164D01*
X626548Y484726D02*
X623366D01*
X612685Y483164D02*
X612912Y483789D01*
X613366Y484414*
X613821Y484726*
X614730*
X615185Y484414*
X615639Y483789*
X615866Y483164*
X616094Y482226*
Y480664*
X615866Y479726*
X615639Y479101*
X615185Y478476*
X614730Y478164*
X613821*
X613366Y478476*
X612912Y479101*
X612685Y479726*
X609275Y484726D02*
X609730Y484414D01*
X610185Y483789*
X610412Y483164*
X610639Y482226*
Y480664*
X610412Y479726*
X610185Y479101*
X609730Y478476*
X609275Y478164*
X608366*
X607912Y478476*
X607457Y479101*
X607230Y479726*
X607003Y480664*
Y482226*
X607230Y483164*
X607457Y483789*
X607912Y484414*
X608366Y484726*
X609275*
X604957D02*
Y478164D01*
Y484726D02*
X601775Y478164D01*
Y484726D02*
Y478164D01*
X599730Y484726D02*
X597912Y478164D01*
X596094Y484726D02*
X597912Y478164D01*
X594048Y484726D02*
Y478164D01*
Y484726D02*
X591094D01*
X594048Y481601D02*
X592230D01*
X594048Y478164D02*
X591094D01*
X589048Y484726D02*
Y478164D01*
Y484726D02*
X587003D01*
X586321Y484414*
X586094Y484101*
X585866Y483476*
Y482851*
X586094Y482226*
X586321Y481914*
X587003Y481601*
X589048*
X587457D02*
X585866Y478164D01*
X582230Y484726D02*
Y478164D01*
X583821Y484726D02*
X580639D01*
X578594D02*
Y478164D01*
Y484726D02*
X575639D01*
X578594Y481601D02*
X576775D01*
X578594Y478164D02*
X575639D01*
X573594Y484726D02*
Y478164D01*
Y484726D02*
X571548D01*
X570866Y484414*
X570639Y484101*
X570412Y483476*
Y482851*
X570639Y482226*
X570866Y481914*
X571548Y481601*
X573594*
X572003D02*
X570412Y478164D01*
X646372Y473218D02*
X646826Y473843D01*
X647508Y474156*
X648417*
X649099Y473843*
X649553Y473218*
Y472593*
X649326Y471968*
X649099Y471656*
X648644Y471343*
X647281Y470718*
X646826Y470406*
X646599Y470093*
X646372Y469468*
Y468531*
X646826Y467906*
X647508Y467593*
X648417*
X649099Y467906*
X649553Y468531*
X642508Y474156D02*
X644326Y467593D01*
X642508Y474156D02*
X640690Y467593D01*
X643644Y469781D02*
X641372D01*
X635235Y472593D02*
X635463Y473218D01*
X635917Y473843*
X636372Y474156*
X637281*
X637735Y473843*
X638190Y473218*
X638417Y472593*
X638644Y471656*
Y470093*
X638417Y469156*
X638190Y468531*
X637735Y467906*
X637281Y467593*
X636372*
X635917Y467906*
X635463Y468531*
X635235Y469156*
Y470093*
X636372D02*
X635235D01*
X632963Y471968D02*
X633190Y471656D01*
X632963Y471343*
X632735Y471656*
X632963Y471968*
Y468218D02*
X633190Y467906D01*
X632963Y467593*
X632735Y467906*
X632963Y468218*
X625008Y474156D02*
X622508D01*
X623872Y471656*
X623190*
X622735Y471343*
X622508Y471031*
X622281Y470093*
Y469468*
X622508Y468531*
X622963Y467906*
X623644Y467593*
X624326*
X625008Y467906*
X625235Y468218*
X625463Y468843*
X619781Y474156D02*
X617281D01*
X618644Y471656*
X617963*
X617508Y471343*
X617281Y471031*
X617053Y470093*
Y469468*
X617281Y468531*
X617735Y467906*
X618417Y467593*
X619099*
X619781Y467906*
X620008Y468218*
X620235Y468843*
X614553Y474156D02*
X612053D01*
X613417Y471656*
X612735*
X612281Y471343*
X612053Y471031*
X611826Y470093*
Y469468*
X612053Y468531*
X612508Y467906*
X613190Y467593*
X613872*
X614553Y467906*
X614781Y468218*
X615008Y468843*
X606826Y471968D02*
X607053Y471031D01*
X607508Y470406*
X608190Y470093*
X608417*
X609099Y470406*
X609553Y471031*
X609781Y471968*
Y472281*
X609553Y473218*
X609099Y473843*
X608417Y474156*
X608190*
X607508Y473843*
X607053Y473218*
X606826Y471968*
Y470406*
X607053Y468843*
X607508Y467906*
X608190Y467593*
X608644*
X609326Y467906*
X609553Y468531*
X634896Y463339D02*
X635578Y463026D01*
X635805Y462401*
Y461776*
X635578Y461151*
X635123Y460839*
X634214Y460526*
X633533Y460214*
X633078Y459589*
X632851Y458964*
Y458026*
X633078Y457401*
X633305Y457089*
X633987Y456776*
X634896*
X635578Y457089*
X635805Y457401*
X636033Y458026*
Y458964*
X635805Y459589*
X635351Y460214*
X634669Y460526*
X633760Y460839*
X633305Y461151*
X633078Y461776*
Y462401*
X633305Y463026*
X633987Y463339*
X634896*
X627851Y461151D02*
X628078Y460214D01*
X628533Y459589*
X629214Y459276*
X629442*
X630123Y459589*
X630578Y460214*
X630805Y461151*
Y461464*
X630578Y462401*
X630123Y463026*
X629442Y463339*
X629214*
X628533Y463026*
X628078Y462401*
X627851Y461151*
Y459589*
X628078Y458026*
X628533Y457089*
X629214Y456776*
X629669*
X630351Y457089*
X630578Y457714*
X624442Y463339D02*
X625123Y463026D01*
X625578Y462089*
X625805Y460526*
Y459589*
X625578Y458026*
X625123Y457089*
X624442Y456776*
X623987*
X623305Y457089*
X622851Y458026*
X622623Y459589*
Y460526*
X622851Y462089*
X623305Y463026*
X623987Y463339*
X624442*
X620351Y461776D02*
Y462089D01*
X620123Y462714*
X619896Y463026*
X619442Y463339*
X618533*
X618078Y463026*
X617851Y462714*
X617623Y462089*
Y461464*
X617851Y460839*
X618305Y459901*
X620578Y456776*
X617396*
X615123Y461776D02*
Y462089D01*
X614896Y462714*
X614669Y463026*
X614214Y463339*
X613305*
X612851Y463026*
X612623Y462714*
X612396Y462089*
Y461464*
X612623Y460839*
X613078Y459901*
X615351Y456776*
X612169*
X608760Y463339D02*
X609442Y463026D01*
X609896Y462089*
X610123Y460526*
Y459589*
X609896Y458026*
X609442Y457089*
X608760Y456776*
X608305*
X607623Y457089*
X607169Y458026*
X606942Y459589*
Y460526*
X607169Y462089*
X607623Y463026*
X608305Y463339*
X608760*
X407752Y407008D02*
X415752D01*
X411752Y403008D02*
Y411008D01*
X422752Y407008D02*
X430752D01*
X426752Y403008D02*
Y411008D01*
X437752Y407008D02*
X445752D01*
X441752Y403008D02*
Y411008D01*
X452752Y407008D02*
X460752D01*
X456752Y403008D02*
Y411008D01*
X422752Y428008D02*
X430752Y436008D01*
X422752D02*
X430752Y428008D01*
X462752D02*
X470752Y436008D01*
X462752D02*
X470752Y428008D01*
X502752D02*
X510752Y436008D01*
X502752D02*
X510752Y428008D01*
X442752Y508008D02*
X450752Y516008D01*
X442752D02*
X450752Y508008D01*
X462752D02*
X470752Y516008D01*
X462752D02*
X470752Y508008D01*
X482752D02*
X490752Y516008D01*
X482752D02*
X490752Y508008D01*
X537752Y438008D02*
X545752D01*
Y446008*
X537752*
Y438008*
X541752Y442008D02*
Y446008D01*
X537752Y458008D02*
X545752D01*
Y466008*
X537752*
Y458008*
X541752Y462008D02*
Y466008D01*
X572252Y429508D02*
X580252Y437508D01*
X572252D02*
X580252Y429508D01*
X612252D02*
X620252Y437508D01*
X612252D02*
X620252Y429508D01*
X652252D02*
X660252Y437508D01*
X652252D02*
X660252Y429508D01*
X632252Y509508D02*
X640252Y517508D01*
X632252D02*
X640252Y509508D01*
X612252D02*
X620252Y517508D01*
X612252D02*
X620252Y509508D01*
X592252D02*
X600252Y517508D01*
X592252D02*
X600252Y509508D01*
X632252Y408508D02*
X640252D01*
X636252Y404508D02*
Y412508D01*
X662252Y408508D02*
X670252D01*
X666252Y404508D02*
Y412508D01*
X406252Y542008D02*
X414252D01*
Y550008*
X406252*
Y542008*
X410252Y546008D02*
Y550008D01*
X426252Y542008D02*
X434252D01*
Y550008*
X426252*
Y542008*
X430252Y546008D02*
Y550008D01*
X436252Y532008D02*
X444252D01*
Y540008*
X436252*
Y532008*
X440252Y536008D02*
Y540008D01*
X436252Y542008D02*
X444252D01*
Y550008*
X436252*
Y542008*
X440252Y546008D02*
Y550008D01*
X446252Y562008D02*
X454252D01*
Y570008*
X446252*
Y562008*
X450252Y566008D02*
Y570008D01*
X426252Y562008D02*
X434252D01*
Y570008*
X426252*
Y562008*
X430252Y566008D02*
Y570008D01*
X406252Y562008D02*
X414252D01*
Y570008*
X406252*
Y562008*
X410252Y566008D02*
Y570008D01*
X466252Y562008D02*
X474252D01*
Y570008*
X466252*
Y562008*
X470252Y566008D02*
Y570008D01*
X477252Y533508D02*
X485252D01*
Y541508*
X477252*
Y533508*
X481252Y537508D02*
Y541508D01*
X487252Y533508D02*
X495252D01*
Y541508*
X487252*
Y533508*
X491252Y537508D02*
Y541508D01*
X487252Y543508D02*
X495252D01*
Y551508*
X487252*
Y543508*
X491252Y547508D02*
Y551508D01*
X477252Y543508D02*
X485252D01*
Y551508*
X477252*
Y543508*
X481252Y547508D02*
Y551508D01*
X487252Y553508D02*
X495252D01*
Y561508*
X487252*
Y553508*
X491252Y557508D02*
Y561508D01*
X487252Y563508D02*
X495252D01*
Y571508*
X487252*
Y563508*
X491252Y567508D02*
Y571508D01*
X487252Y573508D02*
X495252D01*
Y581508*
X487252*
Y573508*
X491252Y577508D02*
Y581508D01*
X487252Y583508D02*
X495252D01*
Y591508*
X487252*
Y583508*
X491252Y587508D02*
Y591508D01*
X487252Y593508D02*
X495252D01*
Y601508*
X487252*
Y593508*
X491252Y597508D02*
Y601508D01*
X487252Y603508D02*
X495252D01*
Y611508*
X487252*
Y603508*
X491252Y607508D02*
Y611508D01*
X487252Y613508D02*
X495252D01*
Y621508*
X487252*
Y613508*
X491252Y617508D02*
Y621508D01*
X487252Y623508D02*
X495252D01*
Y631508*
X487252*
Y623508*
X491252Y627508D02*
Y631508D01*
X517252Y623508D02*
X525252D01*
Y631508*
X517252*
Y623508*
X521252Y627508D02*
Y631508D01*
X517252Y613508D02*
X525252D01*
Y621508*
X517252*
Y613508*
X521252Y617508D02*
Y621508D01*
X517252Y603508D02*
X525252D01*
Y611508*
X517252*
Y603508*
X521252Y607508D02*
Y611508D01*
X517252Y593508D02*
X525252D01*
Y601508*
X517252*
Y593508*
X521252Y597508D02*
Y601508D01*
X517252Y583508D02*
X525252D01*
Y591508*
X517252*
Y583508*
X521252Y587508D02*
Y591508D01*
X517252Y573508D02*
X525252D01*
Y581508*
X517252*
Y573508*
X521252Y577508D02*
Y581508D01*
X517252Y563508D02*
X525252D01*
Y571508*
X517252*
Y563508*
X521252Y567508D02*
Y571508D01*
X532252Y568508D02*
X540252D01*
Y576508*
X532252*
Y568508*
X536252Y572508D02*
Y576508D01*
X532252Y588508D02*
X540252D01*
Y596508*
X532252*
Y588508*
X536252Y592508D02*
Y596508D01*
X532252Y603508D02*
X540252D01*
Y611508*
X532252*
Y603508*
X536252Y607508D02*
Y611508D01*
X532252Y623508D02*
X540252D01*
Y631508*
X532252*
Y623508*
X536252Y627508D02*
Y631508D01*
X552252Y623508D02*
X560252D01*
Y631508*
X552252*
Y623508*
X556252Y627508D02*
Y631508D01*
X562252Y623508D02*
X570252D01*
Y631508*
X562252*
Y623508*
X566252Y627508D02*
Y631508D01*
X562252Y583508D02*
X570252D01*
Y591508*
X562252*
Y583508*
X566252Y587508D02*
Y591508D01*
X552252Y583508D02*
X560252D01*
Y591508*
X552252*
Y583508*
X556252Y587508D02*
Y591508D01*
X527252Y553508D02*
X535252D01*
Y561508*
X527252*
Y553508*
X531252Y557508D02*
Y561508D01*
X527252Y543508D02*
X535252D01*
Y551508*
X527252*
Y543508*
X531252Y547508D02*
Y551508D01*
X527252Y533508D02*
X535252D01*
Y541508*
X527252*
Y533508*
X531252Y537508D02*
Y541508D01*
X552252Y548508D02*
X560252D01*
Y556508*
X552252*
Y548508*
X556252Y552508D02*
Y556508D01*
X572252Y548508D02*
X580252D01*
Y556508*
X572252*
Y548508*
X576252Y552508D02*
Y556508D01*
X562252Y538508D02*
X570252D01*
Y546508*
X562252*
Y538508*
X566252Y542508D02*
Y546508D01*
X592752Y549508D02*
X600752Y557508D01*
X592752D02*
X600752Y549508D01*
X612752D02*
X620752Y557508D01*
X612752D02*
X620752Y549508D01*
X627752D02*
X635752Y557508D01*
X627752D02*
X635752Y549508D01*
X647752D02*
X655752Y557508D01*
X647752D02*
X655752Y549508D01*
X667752Y529508D02*
X675752Y537508D01*
X667752D02*
X675752Y529508D01*
X667752Y569508D02*
X675752Y577508D01*
X667752D02*
X675752Y569508D01*
X667752Y584508D02*
X675752Y592508D01*
X667752D02*
X675752Y584508D01*
X657752D02*
X665752Y592508D01*
X657752D02*
X665752Y584508D01*
X647752D02*
X655752Y592508D01*
X647752D02*
X655752Y584508D01*
X632752D02*
X640752Y592508D01*
X632752D02*
X640752Y584508D01*
X607752D02*
X615752Y592508D01*
X607752D02*
X615752Y584508D01*
X582752Y582008D02*
X590752Y590008D01*
X582752D02*
X590752Y582008D01*
X617752Y604508D02*
X625752Y612508D01*
X617752D02*
X625752Y604508D01*
X607752Y624508D02*
X615752Y632508D01*
X607752D02*
X615752Y624508D01*
X590252Y612008D02*
X598252Y620008D01*
X590252D02*
X598252Y612008D01*
X580252Y632008D02*
X588252Y640008D01*
X580252D02*
X588252Y632008D01*
X617752Y624508D02*
X625752Y632508D01*
X617752D02*
X625752Y624508D01*
X632752D02*
X640752Y632508D01*
X632752D02*
X640752Y624508D01*
X647752D02*
X655752Y632508D01*
X647752D02*
X655752Y624508D01*
X657752D02*
X665752Y632508D01*
X657752D02*
X665752Y624508D01*
X667752D02*
X675752Y632508D01*
X667752D02*
X675752Y624508D01*
X406752Y583008D02*
X414752D01*
Y591008*
X406752*
Y583008*
X410752Y587008D02*
Y591008D01*
X416752Y583008D02*
X424752D01*
Y591008*
X416752*
Y583008*
X420752Y587008D02*
Y591008D01*
X426752Y583008D02*
X434752D01*
Y591008*
X426752*
Y583008*
X430752Y587008D02*
Y591008D01*
X436752Y583008D02*
X444752D01*
Y591008*
X436752*
Y583008*
X440752Y587008D02*
Y591008D01*
X446752Y583008D02*
X454752D01*
Y591008*
X446752*
Y583008*
X450752Y587008D02*
Y591008D01*
X456752Y583008D02*
X464752D01*
Y591008*
X456752*
Y583008*
X460752Y587008D02*
Y591008D01*
X466752Y583008D02*
X474752D01*
Y591008*
X466752*
Y583008*
X470752Y587008D02*
Y591008D01*
X476752Y603008D02*
X484752D01*
Y611008*
X476752*
Y603008*
X480752Y607008D02*
Y611008D01*
X436752Y603008D02*
X444752D01*
Y611008*
X436752*
Y603008*
X440752Y607008D02*
Y611008D01*
X476752Y623008D02*
X484752D01*
Y631008*
X476752*
Y623008*
X480752Y627008D02*
Y631008D01*
X466752Y623008D02*
X474752D01*
Y631008*
X466752*
Y623008*
X470752Y627008D02*
Y631008D01*
X456752Y623008D02*
X464752D01*
Y631008*
X456752*
Y623008*
X460752Y627008D02*
Y631008D01*
X446752Y623008D02*
X454752D01*
Y631008*
X446752*
Y623008*
X450752Y627008D02*
Y631008D01*
X436752Y623008D02*
X444752D01*
Y631008*
X436752*
Y623008*
X440752Y627008D02*
Y631008D01*
X426752Y623008D02*
X434752D01*
Y631008*
X426752*
Y623008*
X430752Y627008D02*
Y631008D01*
X406752Y623008D02*
X414752D01*
Y631008*
X406752*
Y623008*
X410752Y627008D02*
Y631008D01*
X416752Y623008D02*
X424752D01*
Y631008*
X416752*
Y623008*
X420752Y627008D02*
Y631008D01*
X537752Y518008D02*
X545752Y526008D01*
X537752D02*
X545752Y518008D01*
X537752Y478008D02*
X545752Y486008D01*
X537752D02*
X545752Y478008D01*
X684527Y665354D02*
X557509D01*
X684527D02*
X674527Y662854D01*
Y667854*
X684527Y665354*
X393582D02*
X520600D01*
X393582D02*
X403582Y667854D01*
Y662854*
X393582Y665354*
X684527Y653248D02*
Y670354D01*
X393582Y653248D02*
Y670354D01*
X526782Y668167D02*
X524509Y661604D01*
X523600Y668167D02*
X526782D01*
X529282D02*
X531782D01*
X530418Y665667*
X531100*
X531555Y665354*
X531782Y665042*
X532009Y664104*
Y663479*
X531782Y662542*
X531327Y661917*
X530645Y661604*
X529964*
X529282Y661917*
X529055Y662229*
X528827Y662854*
X534282Y662229D02*
X534055Y661917D01*
X534282Y661604*
X534509Y661917*
X534282Y662229*
X539509Y665979D02*
X539282Y665042D01*
X538827Y664417*
X538145Y664104*
X537918*
X537236Y664417*
X536782Y665042*
X536555Y665979*
Y666292*
X536782Y667229*
X537236Y667854*
X537918Y668167*
X538145*
X538827Y667854*
X539282Y667229*
X539509Y665979*
Y664417*
X539282Y662854*
X538827Y661917*
X538145Y661604*
X537691*
X537009Y661917*
X536782Y662542*
X541555Y665979D02*
Y661604D01*
Y664729D02*
X542236Y665667D01*
X542691Y665979*
X543373*
X543827Y665667*
X544055Y664729*
Y661604*
Y664729D02*
X544736Y665667D01*
X545191Y665979*
X545873*
X546327Y665667*
X546555Y664729*
Y661604*
X548600Y665979D02*
Y661604D01*
Y664729D02*
X549282Y665667D01*
X549736Y665979*
X550418*
X550873Y665667*
X551100Y664729*
Y661604*
Y664729D02*
X551782Y665667D01*
X552236Y665979*
X552918*
X553373Y665667*
X553600Y664729*
Y661604*
X684527Y377953D02*
X663883D01*
X684527D02*
X674527Y375453D01*
Y380453*
X684527Y377953*
X608149D02*
X628793D01*
X608149D02*
X618149Y380453D01*
Y375453*
X608149Y377953*
X684527Y388720D02*
Y372953D01*
X608149Y388720D02*
Y372953D01*
X631793Y379515D02*
X632247Y379828D01*
X632929Y380765*
Y374203*
X637929Y378578D02*
X637702Y377640D01*
X637247Y377015*
X636565Y376703*
X636338*
X635656Y377015*
X635202Y377640*
X634974Y378578*
Y378890*
X635202Y379828*
X635656Y380453*
X636338Y380765*
X636565*
X637247Y380453*
X637702Y379828*
X637929Y378578*
Y377015*
X637702Y375453*
X637247Y374515*
X636565Y374203*
X636111*
X635429Y374515*
X635202Y375140*
X640202Y374828D02*
X639974Y374515D01*
X640202Y374203*
X640429Y374515*
X640202Y374828*
X644747Y380765D02*
X642474Y376390D01*
X645883*
X644747Y380765D02*
Y374203D01*
X647929Y378578D02*
Y374203D01*
Y377328D02*
X648611Y378265D01*
X649065Y378578*
X649747*
X650202Y378265*
X650429Y377328*
Y374203*
Y377328D02*
X651111Y378265D01*
X651565Y378578*
X652247*
X652702Y378265*
X652929Y377328*
Y374203*
X654974Y378578D02*
Y374203D01*
Y377328D02*
X655656Y378265D01*
X656111Y378578*
X656793*
X657247Y378265*
X657474Y377328*
Y374203*
Y377328D02*
X658156Y378265D01*
X658611Y378578*
X659293*
X659747Y378265*
X659974Y377328*
Y374203*
X470354Y377953D02*
X449513D01*
X470354D02*
X460354Y375453D01*
Y380453*
X470354Y377953*
X393582D02*
X414422D01*
X393582D02*
X403582Y380453D01*
Y375453*
X393582Y377953*
X470354Y388720D02*
Y372953D01*
X393582Y388720D02*
Y372953D01*
X417422Y379515D02*
X417877Y379828D01*
X418559Y380765*
Y374203*
X423559Y378578D02*
X423332Y377640D01*
X422877Y377015*
X422195Y376703*
X421968*
X421286Y377015*
X420832Y377640*
X420604Y378578*
Y378890*
X420832Y379828*
X421286Y380453*
X421968Y380765*
X422195*
X422877Y380453*
X423332Y379828*
X423559Y378578*
Y377015*
X423332Y375453*
X422877Y374515*
X422195Y374203*
X421741*
X421059Y374515*
X420832Y375140*
X425832Y374828D02*
X425604Y374515D01*
X425832Y374203*
X426059Y374515*
X425832Y374828*
X431059Y380765D02*
X428786D01*
X428559Y377953*
X428786Y378265*
X429468Y378578*
X430150*
X430832Y378265*
X431286Y377640*
X431513Y376703*
X431286Y376078*
X431059Y375140*
X430604Y374515*
X429922Y374203*
X429922D02*
X429241D01*
X428559Y374515*
X428332Y374828*
X428104Y375453*
X433559Y378578D02*
Y374203D01*
Y377328D02*
X434241Y378265D01*
X434695Y378578*
X435377*
X435832Y378265*
X436059Y377328*
Y374203*
Y377328D02*
X436741Y378265D01*
X437195Y378578*
X437877*
X438332Y378265*
X438559Y377328*
Y374203*
X440604Y378578D02*
Y374203D01*
Y377328D02*
X441286Y378265D01*
X441741Y378578*
X442422*
X442422D02*
X442877Y378265D01*
X443104Y377328*
Y374203*
Y377328D02*
X443786Y378265D01*
X444241Y378578*
X444922*
X444922D02*
X445377Y378265D01*
X445604Y377328*
Y374203*
X708661Y393720D02*
Y514234D01*
Y393720D02*
X706161Y403720D01*
X711161*
X708661Y393720*
Y648248D02*
Y527734D01*
Y648248D02*
X711161Y638248D01*
X706161*
X708661Y648248*
X689527Y393720D02*
X713661D01*
X689527Y648248D02*
X713661D01*
X695821Y522859D02*
X695593Y523484D01*
X694911Y523797*
X694457*
X693775Y523484*
X693321Y522547*
X693093Y520984*
Y519422*
X693321Y518172*
X693775Y517547*
X694457Y517234*
X694684*
X695366Y517547*
X695821Y518172*
X696048Y519109*
Y519422*
X695821Y520359*
X695366Y520984*
X694684Y521297*
X694457*
X693775Y520984*
X693321Y520359*
X693093Y519422*
X700366Y523797D02*
X698093Y519422D01*
X701502*
X700366Y523797D02*
Y517234D01*
X703775Y517859D02*
X703548Y517547D01*
X703775Y517234*
X704002Y517547*
X703775Y517859*
X709230Y523797D02*
X706957Y517234D01*
X706048Y523797D02*
X709230D01*
X711275Y521609D02*
Y517234D01*
Y520359D02*
X711957Y521297D01*
X712411Y521609*
X713093*
X713548Y521297*
X713775Y520359*
Y517234*
Y520359D02*
X714457Y521297D01*
X714911Y521609*
X715593*
X716048Y521297*
X716275Y520359*
Y517234*
X718321Y521609D02*
Y517234D01*
Y520359D02*
X719002Y521297D01*
X719457Y521609*
X720139*
X720593Y521297*
X720821Y520359*
Y517234*
Y520359D02*
X721502Y521297D01*
X721957Y521609*
X722639*
X723093Y521297*
X723321Y520359*
Y517234*
X393701Y332220D02*
X651701D01*
X393701Y308220D02*
X651701D01*
X393701Y284220D02*
X651701D01*
X393701Y260220D02*
X651701D01*
X393701Y236220D02*
X651701D01*
X393701Y332220D02*
Y236220D01*
X477701Y332220D02*
Y236220D01*
X513701Y332220D02*
Y236220D01*
X549701Y332220D02*
Y236220D01*
X603701Y332220D02*
Y236220D01*
X651701Y332220D02*
Y236220D01*
X429201Y320970D02*
X428655Y321720D01*
X427837Y322095*
X426746*
X425928Y321720*
X425383Y320970*
Y320220*
X425655Y319470*
X425928Y319095*
X426474Y318720*
X428110Y317970*
X428655Y317595*
X428928Y317220*
X429201Y316470*
Y315345*
X428655Y314595*
X427837Y314220*
X426746*
X425928Y314595*
X425383Y315345*
X431655Y322095D02*
Y314220D01*
X437928Y322095D02*
X434110Y314220D01*
Y322095D02*
X437928D01*
X434110Y314220D02*
X437928D01*
X440383Y322095D02*
Y314220D01*
Y322095D02*
X443928D01*
X440383Y318345D02*
X442564D01*
X440383Y314220D02*
X443928D01*
X487564Y322095D02*
X487019Y321720D01*
X486474Y320970*
X486201Y320220*
X485928Y319095*
Y317220*
X486201Y316095*
X486474Y315345*
X487019Y314595*
X487564Y314220*
X488655*
X489201Y314595*
X489746Y315345*
X490019Y316095*
X490292Y317220*
Y319095*
X490019Y320220*
X489746Y320970*
X489201Y321720*
X488655Y322095*
X487564*
X488383Y315720D02*
X490019Y313470D01*
X494655Y322095D02*
Y314220D01*
X492746Y322095D02*
X496564D01*
X499019D02*
X501201Y318345D01*
Y314220*
X503383Y322095D02*
X501201Y318345D01*
X525746Y320970D02*
X525201Y321720D01*
X524383Y322095*
X523292*
X522474Y321720*
X521928Y320970*
Y320220*
X522201Y319470*
X522474Y319095*
X523019Y318720*
X524655Y317970*
X525201Y317595*
X525474Y317220*
X525746Y316470*
Y315345*
X525201Y314595*
X524383Y314220*
X523292*
X522474Y314595*
X521928Y315345*
X528201Y322095D02*
X530383Y318345D01*
Y314220*
X532564Y322095D02*
X530383Y318345D01*
X535019Y322095D02*
Y314220D01*
Y322095D02*
X537201Y314220D01*
X539383Y322095D02*
X537201Y314220D01*
X539383Y322095D02*
Y314220D01*
X561201Y322095D02*
Y314220D01*
Y322095D02*
X563655D01*
X564474Y321720*
X564746Y321345*
X565019Y320595*
Y319470*
X564746Y318720*
X564474Y318345*
X563655Y317970*
X561201*
X567474Y322095D02*
Y314220D01*
X570746*
X575383Y322095D02*
X573201Y314220D01*
X575383Y322095D02*
X577564Y314220D01*
X574019Y316845D02*
X576746D01*
X581928Y322095D02*
Y314220D01*
X580019Y322095D02*
X583837D01*
X586292D02*
Y314220D01*
Y322095D02*
X589837D01*
X586292Y318345D02*
X588474D01*
X586292Y314220D02*
X589837D01*
X592292Y322095D02*
Y314220D01*
Y322095D02*
X594201D01*
X595019Y321720*
X595564Y320970*
X595837Y320220*
X596110Y319095*
Y317220*
X595837Y316095*
X595564Y315345*
X595019Y314595*
X594201Y314220*
X592292*
X620383Y322095D02*
Y314220D01*
X618474Y322095D02*
X622292D01*
X626383D02*
X625837Y321720D01*
X625292Y320970*
X625019Y320220*
X624746Y319095*
Y317220*
X625019Y316095*
X625292Y315345*
X625837Y314595*
X626383Y314220*
X627474*
X628019Y314595*
X628564Y315345*
X628837Y316095*
X629110Y317220*
Y319095*
X628837Y320220*
X628564Y320970*
X628019Y321720*
X627474Y322095*
X626383*
X631564D02*
Y314220D01*
X634837*
X399701Y296595D02*
X400246Y296970D01*
X401064Y298095*
Y290220*
X403792Y290970D02*
X403519Y290595D01*
X403792Y290220*
X404064Y290595*
X403792Y290970*
X406519Y296595D02*
X407064Y296970D01*
X407883Y298095*
Y290220*
X413883Y298095D02*
X411155D01*
X410883Y294720*
X411155Y295095*
X411974Y295470*
X412792*
X413610Y295095*
X414155Y294345*
X414428Y293220*
X414155Y292470*
X413883Y291345*
X413337Y290595*
X412519Y290220*
X411701*
X410883Y290595*
X410610Y290970*
X410337Y291720*
X496155Y296970D02*
X495883Y297720D01*
X495064Y298095*
X494519*
X493701Y297720*
X493155Y296595*
X492883Y294720*
Y292845*
X493155Y291345*
X493701Y290595*
X494519Y290220*
X494792*
X495610Y290595*
X496155Y291345*
X496428Y292470*
Y292845*
X496155Y293970*
X495610Y294720*
X494792Y295095*
X494519*
X493701Y294720*
X493155Y293970*
X492883Y292845*
X525701Y296220D02*
X537701D01*
X531701Y290220D02*
Y302220D01*
X558337Y298095D02*
X560519Y294345D01*
Y290220*
X562701Y298095D02*
X560519Y294345D01*
X565155Y298095D02*
Y290220D01*
Y298095D02*
X568701D01*
X565155Y294345D02*
X567337D01*
X565155Y290220D02*
X568701D01*
X574974Y296970D02*
X574428Y297720D01*
X573610Y298095*
X572519*
X571701Y297720*
X571155Y296970*
Y296220*
X571428Y295470*
X571701Y295095*
X572246Y294720*
X573883Y293970*
X574428Y293595*
X574701Y293220*
X574974Y292470*
Y291345*
X574428Y290595*
X573610Y290220*
X572519*
X571701Y290595*
X571155Y291345*
X611519Y296970D02*
Y290220D01*
X609064Y293595D02*
X613974D01*
X621337Y299595D02*
X616428Y287595D01*
X623792Y293595D02*
X628701D01*
X632792Y298095D02*
X631974Y297720D01*
X631428Y296595*
X631155Y294720*
Y293595*
X631428Y291720*
X631974Y290595*
X632792Y290220*
X633337*
X634155Y290595*
X634701Y291720*
X634974Y293595*
Y294720*
X634701Y296595*
X634155Y297720*
X633337Y298095*
X632792*
X637701Y290970D02*
X637428Y290595D01*
X637701Y290220*
X637974Y290595*
X637701Y290970*
X642064Y298095D02*
X641246Y297720D01*
X640701Y296595*
X640428Y294720*
Y293595*
X640701Y291720*
X641246Y290595*
X642064Y290220*
X642610*
X643428Y290595*
X643974Y291720*
X644246Y293595*
Y294720*
X643974Y296595*
X643428Y297720*
X642610Y298095*
X642064*
X401337Y274095D02*
X400519Y273720D01*
X399974Y272595*
X399701Y270720*
Y269595*
X399974Y267720*
X400519Y266595*
X401337Y266220*
X401883*
X402701Y266595*
X403246Y267720*
X403519Y269595*
Y270720*
X403246Y272595*
X402701Y273720*
X401883Y274095*
X401337*
X406246Y266970D02*
X405974Y266595D01*
X406246Y266220*
X406519Y266595*
X406246Y266970*
X412519Y271470D02*
X412246Y270345D01*
X411701Y269595*
X410883Y269220*
X410610*
X409792Y269595*
X409246Y270345*
X408974Y271470*
Y271845*
X409246Y272970*
X409792Y273720*
X410610Y274095*
X410883*
X411701Y273720*
X412246Y272970*
X412519Y271470*
Y269595*
X412246Y267720*
X411701Y266595*
X410883Y266220*
X410337*
X409519Y266595*
X409246Y267345*
X418519Y274095D02*
X415792D01*
X415519Y270720*
X415792Y271095*
X416610Y271470*
X417428*
X418246Y271095*
X418792Y270345*
X419064Y269220*
X418792Y268470*
X418519Y267345*
X417974Y266595*
X417155Y266220*
X416337*
X415519Y266595*
X415246Y266970*
X414974Y267720*
X490019Y274095D02*
X493019D01*
X491383Y271095*
X492201*
X492746Y270720*
X493019Y270345*
X493292Y269220*
Y268470*
X493019Y267345*
X492474Y266595*
X491655Y266220*
X490837*
X490019Y266595*
X489746Y266970*
X489474Y267720*
X499292Y274095D02*
X496564D01*
X496292Y270720*
X496564Y271095*
X497383Y271470*
X498201*
X499019Y271095*
X499564Y270345*
X499837Y269220*
X499564Y268470*
X499292Y267345*
X498746Y266595*
X497928Y266220*
X497110*
X496292Y266595*
X496019Y266970*
X495746Y267720*
X525701Y266220D02*
X537701Y278220D01*
X525701D02*
X537701Y266220D01*
X558337Y274095D02*
X560519Y270345D01*
Y266220*
X562701Y274095D02*
X560519Y270345D01*
X565155Y274095D02*
Y266220D01*
Y274095D02*
X568701D01*
X565155Y270345D02*
X567337D01*
X565155Y266220D02*
X568701D01*
X574974Y272970D02*
X574428Y273720D01*
X573610Y274095*
X572519*
X571701Y273720*
X571155Y272970*
Y272220*
X571428Y271470*
X571701Y271095*
X572246Y270720*
X573883Y269970*
X574428Y269595*
X574701Y269220*
X574974Y268470*
Y267345*
X574428Y266595*
X573610Y266220*
X572519*
X571701Y266595*
X571155Y267345*
X611519Y272970D02*
Y266220D01*
X609064Y269595D02*
X613974D01*
X621337Y275595D02*
X616428Y263595D01*
X623792Y269595D02*
X628701D01*
X632792Y274095D02*
X631974Y273720D01*
X631428Y272595*
X631155Y270720*
Y269595*
X631428Y267720*
X631974Y266595*
X632792Y266220*
X633337*
X634155Y266595*
X634701Y267720*
X634974Y269595*
Y270720*
X634701Y272595*
X634155Y273720*
X633337Y274095*
X632792*
X637701Y266970D02*
X637428Y266595D01*
X637701Y266220*
X637974Y266595*
X637701Y266970*
X642064Y274095D02*
X641246Y273720D01*
X640701Y272595*
X640428Y270720*
Y269595*
X640701Y267720*
X641246Y266595*
X642064Y266220*
X642610*
X643428Y266595*
X643974Y267720*
X644246Y269595*
Y270720*
X643974Y272595*
X643428Y273720*
X642610Y274095*
X642064*
X401337Y250095D02*
X400519Y249720D01*
X399974Y248595*
X399701Y246720*
Y245595*
X399974Y243720*
X400519Y242595*
X401337Y242220*
X401883*
X402701Y242595*
X403246Y243720*
X403519Y245595*
Y246720*
X403246Y248595*
X402701Y249720*
X401883Y250095*
X401337*
X406246Y242970D02*
X405974Y242595D01*
X406246Y242220*
X406519Y242595*
X406246Y242970*
X410337Y250095D02*
X409519Y249720D01*
X409246Y248970*
Y248220*
X409519Y247470*
X410064Y247095*
X411155Y246720*
X411974Y246345*
X412519Y245595*
X412792Y244845*
Y243720*
X412519Y242970*
X412246Y242595*
X411428Y242220*
X410337*
X409519Y242595*
X409246Y242970*
X408974Y243720*
Y244845*
X409246Y245595*
X409792Y246345*
X410610Y246720*
X411701Y247095*
X412246Y247470*
X412519Y248220*
Y248970*
X412246Y249720*
X411428Y250095*
X410337*
X493019Y248970D02*
X492746Y249720D01*
X491928Y250095*
X491383*
X490564Y249720*
X490019Y248595*
X489746Y246720*
Y244845*
X490019Y243345*
X490564Y242595*
X491383Y242220*
X491655*
X492474Y242595*
X493019Y243345*
X493292Y244470*
Y244845*
X493019Y245970*
X492474Y246720*
X491655Y247095*
X491383*
X490564Y246720*
X490019Y245970*
X489746Y244845*
X497383Y250095D02*
X496564Y249720D01*
X496019Y248595*
X495746Y246720*
Y245595*
X496019Y243720*
X496564Y242595*
X497383Y242220*
X497928*
X498746Y242595*
X499292Y243720*
X499564Y245595*
Y246720*
X499292Y248595*
X498746Y249720*
X497928Y250095*
X497383*
X525701Y242220D02*
X537701D01*
Y254220*
X525701*
Y242220*
X531701Y248220D02*
Y254220D01*
X558337Y250095D02*
X560519Y246345D01*
Y242220*
X562701Y250095D02*
X560519Y246345D01*
X565155Y250095D02*
Y242220D01*
Y250095D02*
X568701D01*
X565155Y246345D02*
X567337D01*
X565155Y242220D02*
X568701D01*
X574974Y248970D02*
X574428Y249720D01*
X573610Y250095*
X572519*
X571701Y249720*
X571155Y248970*
Y248220*
X571428Y247470*
X571701Y247095*
X572246Y246720*
X573883Y245970*
X574428Y245595*
X574701Y245220*
X574974Y244470*
Y243345*
X574428Y242595*
X573610Y242220*
X572519*
X571701Y242595*
X571155Y243345*
X611519Y248970D02*
Y242220D01*
X609064Y245595D02*
X613974D01*
X621337Y251595D02*
X616428Y239595D01*
X623792Y245595D02*
X628701D01*
X632792Y250095D02*
X631974Y249720D01*
X631428Y248595*
X631155Y246720*
Y245595*
X631428Y243720*
X631974Y242595*
X632792Y242220*
X633337*
X634155Y242595*
X634701Y243720*
X634974Y245595*
Y246720*
X634701Y248595*
X634155Y249720*
X633337Y250095*
X632792*
X637701Y242970D02*
X637428Y242595D01*
X637701Y242220*
X637974Y242595*
X637701Y242970*
X642064Y250095D02*
X641246Y249720D01*
X640701Y248595*
X640428Y246720*
Y245595*
X640701Y243720*
X641246Y242595*
X642064Y242220*
X642610*
X643428Y242595*
X643974Y243720*
X644246Y245595*
Y246720*
X643974Y248595*
X643428Y249720*
X642610Y250095*
X642064*
G54D21*
X442979Y448474D02*
X442996Y448876D01*
X443040Y449189*
X443110Y449448*
X443224Y449659*
X443935Y450258*
X445084Y450476*
X445768Y450415*
X446364Y450231*
X446873Y449945*
X447276Y449591*
X447311*
X448074Y450265*
X449206Y450476*
X449881Y450408*
X450469Y450231*
X450942Y449972*
X451293Y449672*
X451310*
X451468Y450353*
X452749*
Y445410*
X451188*
Y448814*
X450837Y449087*
X450433Y449291*
X450004Y449420*
X449574Y449468*
X448986Y449318*
X448714Y448964*
X448662Y448719*
X448644Y448419*
Y445410*
X447083*
Y448814*
X446732Y449087*
X446329Y449291*
X445899Y449420*
X445469Y449468*
X444891Y449318*
X444610Y448964*
X444557Y448719*
X444540Y448419*
Y445410*
X442979*
Y448474*
X408143Y452246D02*
X409511D01*
X412019Y444143*
X410651*
X408143Y452246*
X462326Y446418D02*
X462835Y446329D01*
X463361Y446295*
X464150Y446540*
X464256Y446962*
Y449359*
X462414*
Y450353*
X464256*
Y451742*
X465817*
Y450353*
X467009*
Y449359*
X465817*
Y446799*
X465676Y446063*
X464957Y445485*
X463642Y445287*
X462957Y445321*
X462326Y445410*
Y446418*
X430893D02*
X431402Y446329D01*
X431928Y446295*
X432717Y446540*
X432823Y446962*
Y449359*
X430981*
Y450353*
X432823*
Y451742*
X434384*
Y450353*
X435576*
Y449359*
X434384*
Y446799*
X434243Y446063*
X433524Y445485*
X432209Y445287*
X431525Y445321*
X430893Y445410*
Y446418*
X468378Y450353D02*
X469939D01*
Y447439*
X470097Y446772*
X470553Y446390*
X471272Y446268*
X471965Y446383*
X472412Y446717*
X472543Y447030*
X472587Y447466*
Y450353*
X474148*
Y447330*
X474070Y446724*
X473815Y446213*
X472850Y445539*
X471272Y445287*
X470351Y445362*
X469614Y445566*
X469044Y445893*
X468658Y446322*
X468378Y447330*
Y450353*
X421211Y446499D02*
X421877Y446336D01*
X422649Y446268*
X423491Y446397*
X424070Y446731*
X424412Y447221*
X424526Y447834*
X424368Y448603*
X423947Y449121*
X423342Y449407*
X422631Y449495*
X421939Y449434*
X421316Y449277*
Y450258*
X422026Y450421*
X422859Y450476*
X424017Y450326*
X425078Y449856*
X425841Y449025*
X426140Y447807*
X425885Y446690*
X425184Y445900*
X424131Y445437*
X422842Y445287*
X421939Y445355*
X421211Y445519*
Y446499*
X402372Y446935D02*
X402539Y447568D01*
X402968Y447977*
X403556Y448215*
X404214Y448365*
X404643Y448447*
X405073Y448556*
X405398Y448733*
X405512Y449005*
X405459Y449189*
X405284Y449346*
X404977Y449454*
X404512Y449495*
X404047Y449475*
X403565Y449420*
X403074Y449339*
X402618Y449237*
Y450217*
X403538Y450408*
X404635Y450476*
X405556Y450381*
X406310Y450088*
X406827Y449584*
X407020Y448869*
X406880Y448297*
X406494Y447916*
X405933Y447670*
X405284Y447493*
X404757Y447398*
X404319Y447276*
X404012Y447105*
X403898Y446840*
X404003Y446581*
X404293Y446404*
X404722Y446302*
X405266Y446268*
X406073Y446322*
X407020Y446513*
Y445546*
X406222Y445362*
X405126Y445287*
X404012Y445383*
X403135Y445689*
X402574Y446206*
X402372Y446935*
X427578Y450353D02*
X429139D01*
Y445410*
X427578*
Y450353*
X427543Y452805D02*
X429174D01*
Y451497*
X427543*
Y452805*
X456266Y447187D02*
X456590Y446683D01*
X457090Y446377*
X457730Y446268*
X458371Y446377*
X458879Y446683*
X459213Y447187*
X459327Y447888*
X459213Y448576*
X458888Y449087*
X458379Y449393*
X457748Y449495*
X457099Y449393*
X456590Y449087*
X456266Y448576*
X456152Y447888*
X454538*
X454757Y448944*
X455389Y449768*
X456397Y450292*
X457748Y450476*
X459063Y450292*
X460072Y449768*
X460712Y448944*
X460940Y447888*
X460721Y446819*
X460090Y445995*
X459081Y445471*
X457730Y445287*
X456406Y445471*
X455397Y445995*
X454757Y446819*
X454538Y447888*
X456152*
X456266Y447187*
X477429Y446588D02*
X477753Y446424D01*
X478148Y446302*
X478586Y446254*
X478946Y446295*
X479244Y446418*
X479455Y446622*
X479533Y446908*
X479200Y447453*
X478288Y447630*
X477700Y447596*
X477201Y447521*
Y446758*
X475637*
X475639Y446881*
Y448746*
X475815Y449434*
X476341Y449986*
X477209Y450347*
X478428Y450476*
X479560Y450387*
X480586Y450135*
Y449196*
X479551Y449441*
X478604Y449523*
X477946Y449448*
X477508Y449250*
X477271Y448964*
X477201Y448624*
Y448433*
X477806Y448528*
X478569Y448569*
X479595Y448454*
X480402Y448120*
X480928Y447582*
X481112Y446867*
X480954Y446206*
X480507Y445709*
X479823Y445396*
X478990Y445287*
X478349Y445348*
X477823Y445505*
X477402Y445716*
X477095Y445941*
X477060*
X477008Y445410*
X475587*
X475622Y446036*
X475637Y446758*
X477201*
X477429Y446588*
X438137D02*
X438462Y446424D01*
X438857Y446302*
X439295Y446254*
X439655Y446295*
X439953Y446418*
X440163Y446622*
X440242Y446908*
X439909Y447453*
X438997Y447630*
X438409Y447596*
X437909Y447521*
Y446758*
X436346*
X436348Y446881*
Y448746*
X436524Y449434*
X437050Y449986*
X437918Y450347*
X439137Y450476*
X440269Y450387*
X441295Y450135*
Y449196*
X440260Y449441*
X439313Y449523*
X438655Y449448*
X438216Y449250*
X437980Y448964*
X437909Y448624*
Y448433*
X438515Y448528*
X439278Y448569*
X440304Y448454*
X441111Y448120*
X441637Y447582*
X441821Y446867*
X441663Y446206*
X441216Y445709*
X440532Y445396*
X439699Y445287*
X439058Y445348*
X438532Y445505*
X438111Y445716*
X437804Y445941*
X437769*
X437716Y445410*
X436296*
X436331Y446036*
X436346Y446758*
X437909*
X438137Y446588*
X414563D02*
X414887Y446424D01*
X415282Y446302*
X415720Y446254*
X416080Y446295*
X416378Y446418*
X416589Y446622*
X416668Y446908*
X416334Y447453*
X415422Y447630*
X414835Y447596*
X414335Y447521*
Y446758*
X412771*
X412774Y446881*
Y448746*
X412949Y449434*
X413475Y449986*
X414343Y450347*
X415563Y450476*
X416694Y450387*
X417720Y450135*
Y449196*
X416685Y449441*
X415738Y449523*
X415080Y449448*
X414642Y449250*
X414405Y448964*
X414335Y448624*
Y448433*
X414940Y448528*
X415703Y448569*
X416729Y448454*
X417536Y448120*
X418062Y447582*
X418246Y446867*
X418088Y446206*
X417641Y445709*
X416957Y445396*
X416124Y445287*
X415484Y445348*
X414957Y445505*
X414536Y445716*
X414229Y445941*
X414194*
X414142Y445410*
X412721*
X412756Y446036*
X412771Y446758*
X414335*
X414563Y446588*
G74*
X0Y0D02*
M02*
