%
T1C.0315F197S55
X041025Y054601
X043025Y054601
X043025Y056601
X041025Y056601
X041075Y058701
X042075Y058701
X043075Y058701
X043075Y062701
X041075Y062701
X042075Y062701
X045075Y062701
X044075Y062701
X048075Y062701
X047075Y062701
X046075Y062701
X044075Y060701
X048075Y060701
X046075Y058701
X047075Y058701
X044075Y058701
X045075Y058701
X045025Y056601
X047025Y056601
X048125Y054751
X044025Y054601
X048125Y053751
X044025Y053601
X049125Y053751
X049125Y054751
X049125Y055751
X049125Y056751
X049125Y057751
X049125Y058751
X049125Y059751
X049125Y060751
X049125Y061751
X049125Y062751
X052125Y062751
X052125Y061751
X052125Y060751
X052125Y059751
X052125Y058751
X052125Y057751
X052125Y056751
X053125Y055751
X053125Y054751
X053125Y053751
X054175Y044201
X054175Y046201
X056625Y054251
X055625Y055251
X057625Y055251
X053625Y057251
X055625Y058751
X056625Y058751
X053625Y059251
X053625Y060751
X055625Y062751
X056625Y062751
X053625Y062751
T2C.0374F197S55
X042675Y043201
X046675Y043201
X044675Y051201
X046675Y051201
X054175Y052201
X048675Y051201
X054175Y048201
X050675Y043201
X057625Y043351
X059625Y051351
X059675Y055351
X058675Y058601
X059425Y061601
X058425Y063601
X061175Y062851
X062175Y062851
X063675Y062851
X065175Y062851
X062175Y060851
X061175Y058851
X065175Y058851
X063675Y058851
X065175Y055351
X061675Y055351
X063175Y055351
X061625Y051351
X063625Y051351
X065625Y043351
X061625Y043351
X067175Y053351
X067175Y057351
X067175Y058851
X066175Y058851
X066175Y062851
X067175Y062851
T3C.04528F139S55
X041175Y040701
X042675Y040701
X044175Y040701
X045675Y040701
X063625Y040851
X066625Y040851
M30
