*
*
G04 PADS Layout (Build Number 2007.42.1) generated Gerber (RS-274-X) file*
G04 PC Version=2.1*
*
%IN "ms4c.pcb"*%
*
%MOIN*%
*
%FSLAX35Y35*%
*
*
*
*
G04 PC Standard Apertures*
*
*
G04 Thermal Relief Aperture macro.*
%AMTER*
1,1,$1,0,0*
1,0,$1-$2,0,0*
21,0,$3,$4,0,0,45*
21,0,$3,$4,0,0,135*
%
*
*
G04 Annular Aperture macro.*
%AMANN*
1,1,$1,0,0*
1,0,$2,0,0*
%
*
*
G04 Odd Aperture macro.*
%AMODD*
1,1,$1,0,0*
1,0,$1-0.005,0,0*
%
*
*
G04 PC Custom Aperture Macros*
*
*
*
*
*
*
G04 PC Aperture Table*
*
%ADD010R,0.06X0.06*%
%ADD011C,0.06*%
%ADD012ANN,0.17717X0.11811*%
%ADD013C,0.11024*%
%ADD014C,0.035*%
%ADD015C,0.02*%
%ADD016C,0.04*%
%ADD017C,0.04724*%
%ADD023C,0.01*%
%ADD025C,0.0748*%
%ADD026C,0.06299*%
%ADD027R,0.06693X0.06693*%
%ADD028C,0.06693*%
%ADD029C,0.07874*%
%ADD036C,0.03937*%
*
*
*
*
G04 PC Copper Outlines (0)*
G04 Layer Name ms4c.pcb - dark (0)*
%LPD*%
*
*
G04 PC Area=Custom_Thermal*
*
G04 PC Custom Flashes*
G04 Layer Name ms4c.pcb - flashes*
%LPD*%
*
*
G04 PC Circuitry*
G04 Layer Name ms4c.pcb - circuitry*
%LPD*%
*
G54D10*
G01X455812Y305294D03*
X141812Y247594D03*
X111812Y219594D03*
X433112Y220194D03*
X247312Y117294D03*
X470612Y192394D03*
X302412Y149894D03*
X332912Y317994D03*
X533712Y179994D03*
Y230294D03*
X448312Y335494D03*
X521012Y307794D03*
X182712Y327994D03*
X315212Y187194D03*
G54D11*
X455812Y295294D03*
Y285294D03*
Y275294D03*
X485812D03*
Y285294D03*
Y295294D03*
Y305294D03*
X141812Y257594D03*
Y267594D03*
Y277594D03*
Y287594D03*
Y297594D03*
Y307594D03*
Y317594D03*
Y327594D03*
Y337594D03*
X111812D03*
Y327594D03*
Y317594D03*
Y307594D03*
Y297594D03*
Y287594D03*
Y277594D03*
Y267594D03*
Y257594D03*
Y247594D03*
Y209594D03*
Y199594D03*
Y189594D03*
Y179594D03*
Y169594D03*
Y159594D03*
Y149594D03*
X141812D03*
Y159594D03*
Y169594D03*
Y179594D03*
Y189594D03*
Y199594D03*
Y209594D03*
Y219594D03*
X443112Y220194D03*
X453112D03*
X463112D03*
X473112D03*
X483112D03*
X493112D03*
Y250194D03*
X483112D03*
X473112D03*
X463112D03*
X453112D03*
X443112D03*
X433112D03*
X247312Y127294D03*
Y137294D03*
Y147294D03*
Y157294D03*
Y167294D03*
Y177294D03*
Y187294D03*
Y197294D03*
Y207294D03*
Y217294D03*
Y227294D03*
Y237294D03*
Y247294D03*
Y257294D03*
Y267294D03*
Y277294D03*
Y287294D03*
Y297294D03*
Y307294D03*
X187312D03*
Y297294D03*
Y287294D03*
Y277294D03*
Y267294D03*
Y257294D03*
Y247294D03*
Y237294D03*
Y227294D03*
Y217294D03*
Y207294D03*
Y197294D03*
Y187294D03*
Y177294D03*
Y167294D03*
Y157294D03*
Y147294D03*
Y137294D03*
Y127294D03*
Y117294D03*
X470612Y182394D03*
Y172394D03*
Y162394D03*
Y152394D03*
Y142394D03*
Y132394D03*
X500612D03*
Y142394D03*
Y152394D03*
Y162394D03*
Y172394D03*
Y182394D03*
Y192394D03*
X302412Y159894D03*
Y169894D03*
Y179894D03*
Y189894D03*
Y199894D03*
Y209894D03*
Y219894D03*
Y229894D03*
Y239894D03*
X272412D03*
Y229894D03*
Y219894D03*
Y209894D03*
Y199894D03*
Y189894D03*
Y179894D03*
Y169894D03*
Y159894D03*
Y149894D03*
X297712Y114594D03*
X347712D03*
X297712Y129594D03*
X347712D03*
X380312Y124594D03*
X430312D03*
X380312Y139594D03*
X430312D03*
X357712Y152294D03*
Y202294D03*
X370412Y152294D03*
Y202294D03*
X400612Y152394D03*
Y202394D03*
X413112Y152394D03*
Y202394D03*
X443112Y154894D03*
Y204894D03*
X455612Y154894D03*
Y204894D03*
X510912Y124594D03*
X560912D03*
X510912Y139894D03*
X560912D03*
X513412Y154894D03*
Y204894D03*
X280012Y270094D03*
X330012D03*
X332912Y307994D03*
Y297994D03*
Y287994D03*
X362912D03*
Y297994D03*
Y307994D03*
Y317994D03*
X390612Y270294D03*
Y320294D03*
X420812Y270294D03*
Y320294D03*
X433512Y270294D03*
Y320294D03*
X445812Y270294D03*
Y320294D03*
X496012Y270294D03*
Y320294D03*
X413312Y335494D03*
Y385494D03*
X443712Y385694D03*
X493712D03*
X543712Y179994D03*
Y209994D03*
X533712D03*
X543712Y230294D03*
Y260294D03*
X533712D03*
X458312Y335494D03*
Y365494D03*
X448312D03*
X332912Y335494D03*
X382912D03*
X365412Y358194D03*
Y378194D03*
X493712Y342994D03*
Y362994D03*
X538912Y343194D03*
Y363194D03*
X357912Y224994D03*
Y254994D03*
X375412Y224994D03*
Y254994D03*
X385312Y162394D03*
Y192394D03*
X428112Y162394D03*
Y192394D03*
X443112Y122094D03*
Y142094D03*
X335312Y357994D03*
Y377994D03*
X480612Y323394D03*
X460612D03*
X262512Y287694D03*
Y307694D03*
X551212Y383194D03*
X561212D03*
X262512Y260094D03*
Y270094D03*
X521012Y287794D03*
X551012D03*
Y307794D03*
X192712Y327994D03*
X202712D03*
X212712D03*
X222712D03*
X232712D03*
X242712D03*
X252712D03*
X262712D03*
X272712D03*
X282712D03*
X292712D03*
X302712D03*
X312712D03*
Y387994D03*
X302712D03*
X292712D03*
X282712D03*
X272712D03*
X262712D03*
X252712D03*
X242712D03*
X232712D03*
X222712D03*
X212712D03*
X202712D03*
X192712D03*
X182712D03*
X315212Y197194D03*
Y207194D03*
Y217194D03*
Y227194D03*
Y237194D03*
X405612Y272794D03*
Y292794D03*
X403147Y307702D03*
X410647Y312702D03*
X403147Y317702D03*
X395828Y335455D03*
Y385455D03*
G54D12*
X276912Y121294D03*
X155812Y378094D03*
X580612Y378394D03*
X580312Y121294D03*
G54D13*
X603928Y282897D03*
Y336047D03*
G54D14*
X347712Y129594D02*
X355058D01*
X357479Y127173*
X428112Y162394D02*
Y176624D01*
X433882Y182394*
X470612*
X400612Y152394D02*
Y118763D01*
X406712Y112663*
X525581*
X530500Y117582*
Y134880*
X510912Y139894D02*
X525486D01*
X530500Y134880*
X455612Y154894D02*
Y168002D01*
X460004Y172394*
X470612*
X105300Y346900D02*
Y254106D01*
X111812Y247594*
X375412Y224994D02*
Y230672D01*
X379334Y234594*
X456812*
X357912Y224994D02*
Y235693D01*
X363080Y240860*
X439961*
X443112Y244012*
Y250194*
X478312Y204594D02*
X513112D01*
X513412Y204894*
X455612D02*
Y199339D01*
X462557Y192394*
X470612*
Y196894*
X478312Y204594*
X463112Y250194D02*
Y243294D01*
X466812Y239594*
X536812*
X543712Y246494*
Y260294*
X493112Y220194D02*
X523512D01*
X533712Y209994*
X433112Y220194D02*
Y215636D01*
X435974Y212774*
X470132*
X478312Y204594*
X247312Y297294D02*
X252112D01*
X262512Y307694*
X247312Y287294D02*
X262112D01*
X262512Y287694*
X439483Y345388D02*
Y326623D01*
X445812Y320294*
X480612Y323394D02*
X485812Y318194D01*
Y305294*
X455812Y275294D02*
X471591D01*
X476569Y280272*
Y302390*
X479473Y305294*
X485812*
X105300Y346900D02*
X111206Y352806D01*
X128206*
X142500Y367100*
Y388400*
X149644Y395544*
X175162*
X182712Y387994*
X439483Y345388D02*
X442906Y348811D01*
X452276*
X458312Y354848*
Y365494*
G54D15*
X111812Y159594D02*
X125577D01*
X130577Y164594*
X151812*
X160612Y173094*
X150000Y145000D02*
X156906Y138094D01*
X163173*
X166487Y134780*
Y121257*
X178450Y109294*
X197670*
X210826Y122450*
Y131108*
X214312Y134594*
X160612Y163094D02*
X173078Y150628D01*
Y131357*
X182142Y122294*
X192536*
X201635Y131393*
Y273131*
X220327Y291823*
Y305675*
X235166Y320514*
X255232*
X262712Y327994*
X160612Y153094D02*
X169808Y143898D01*
Y125829*
X183344Y112294*
X191588*
X207142Y127847*
Y272063*
X225061Y289983*
Y304797*
X235298Y315034*
X259753*
X272712Y327994*
X187312Y127294D02*
X193293D01*
X196105Y130106*
X240837Y128189D02*
Y119137D01*
X242680Y117294*
X247312*
X224209Y142484D02*
X224399Y142294D01*
X256747*
X264347Y149894*
X272412*
X240837Y128189D02*
X244941Y132294D01*
X253236*
X264347Y143405*
X333269*
X344208Y154345*
Y196597*
X272412Y169894D02*
X260812Y180594D01*
Y225665*
X270041Y234894*
X274483*
X277412Y237823*
Y250663*
X214312Y134594D02*
X219442Y139723D01*
Y265132*
X231603Y277294*
X247312*
Y147294D02*
X254912Y154894D01*
X274483*
X293625Y174035*
Y188477*
X300041Y194894*
X304894*
X312194Y202194*
X317283*
X326187Y211098*
Y231769*
X332612Y238194*
X247312Y127294D02*
X253592D01*
X264476Y138178*
X340167*
X349865Y147876*
Y214380*
X279312Y179594D02*
X290543Y190825D01*
Y195096*
X300341Y204894*
X305162*
X312462Y212194*
X317283*
X321700Y216610*
Y231946*
X325412Y235658*
Y239700*
X331557Y245845*
X366264*
X375412Y254994*
X302412Y179894D02*
X316662D01*
X318362Y178194*
X332612*
X302412Y169894D02*
X305665Y166641D01*
X326459*
X328012Y168194*
X332612*
X302412Y159894D02*
X330912D01*
X332612Y158194*
X500612Y132394D02*
X505612Y137394D01*
X111812Y209594D02*
X127303Y225085D01*
Y280156*
X139741Y292594*
X146130*
X156130Y302594*
X170000*
Y302500*
X111812Y219594D02*
X122511Y230292D01*
Y287743*
X137362Y302594*
X148600*
X156007Y310000*
X165000*
X111812Y257594D02*
X118781Y264563D01*
Y289288*
X136175Y306682*
Y329028*
X139741Y332594*
X152594*
X155000Y335000*
X132500Y232500D02*
Y255353D01*
X139741Y262594*
X147406*
X147500Y262500*
X187312Y227294D02*
X195474Y235455D01*
Y273912*
X217137Y295575*
Y309937*
X227712Y320512*
Y352897*
X242712Y367897*
Y387994*
X270000Y300319D02*
Y251518D01*
X272412Y249106*
X224209Y244828D02*
Y263159D01*
X235005Y273956*
X241099*
X242761Y272294*
X252448*
X254648Y270094*
X262512*
X247312Y197294D02*
X241812Y202094D01*
Y258865*
X245241Y262294*
X260312*
X262512Y260094*
X272412Y179894D02*
X263812Y187594D01*
Y218665*
X270041Y224894*
X274483*
X283883Y234294*
Y246053*
X292712Y254882*
Y327994*
X272412Y189894D02*
X266812Y194594D01*
Y211365*
X270341Y214894*
X274483*
X290449Y230859*
Y242434*
X302712Y254697*
Y327994*
X229312Y257094D02*
Y163368D01*
X235387Y157294*
X247312*
X272412Y199894D02*
X297037Y224518D01*
Y231589*
X300341Y234894*
X304483*
X317712Y248123*
Y354229*
X272412Y209894D02*
X273069Y209237D01*
X293661Y229829*
Y241203*
X307712Y255255*
Y354229*
X272412Y219894D02*
X273069Y219237D01*
X287095Y233263*
Y244173*
X297712Y254789*
Y354229*
X272412Y229894D02*
X273069Y229237D01*
X280648Y236815*
Y249109*
X287712Y256173*
Y354229*
X272412Y239894D02*
Y249106D01*
X273795Y281979D02*
Y254280D01*
X277412Y250663*
X279312Y187094D02*
Y194165D01*
X300041Y214894*
X304483*
X308812Y219223*
Y229996*
X311010Y232194*
X317283*
X320212Y235123*
Y239304*
X332256Y251347*
X354266*
X357912Y254994*
X340000Y235000D02*
X357500Y217500D01*
X392500*
X315212Y197194D02*
X323412D01*
X324412Y198194*
X332612*
Y218194D02*
X346052D01*
X349865Y214380*
X332612Y208194D02*
X344208Y196597D01*
X302412Y189894D02*
X304312D01*
X306612Y192194*
X328612*
X332612Y188194*
X443112Y204894D02*
X460612Y187394D01*
X502683*
X505612Y184465*
Y137394*
X111812Y287594D02*
X132538Y308320D01*
Y335391*
X141354Y344206*
X159206*
X170000Y355000*
X111812Y297594D02*
X127681Y313462D01*
Y334776*
X143077Y350172*
X157672*
X162500Y355000*
X111812Y307594D02*
X122824Y318605D01*
Y334161*
X146160Y357497*
X150759*
X150762Y357500*
X155000*
X111812Y317594D02*
X119200Y324981D01*
Y335662*
X148538Y365000*
X155000*
X182312Y279365D02*
Y272294D01*
X187312Y267294*
X177712Y266894D02*
Y338140D01*
X202712Y363140*
Y387994*
X177712Y266894D02*
X187312Y257294D01*
X182312Y279365D02*
X185241Y282294D01*
X190855*
X207500Y298939*
Y312500*
X152500Y290000D02*
X157930Y284570D01*
Y274697*
X176348Y256279*
Y140638*
X179932Y137054*
X186812*
X187312Y137294*
X165000Y290000D02*
Y274399D01*
X172910Y266489*
Y266483*
X180781Y258613*
Y146754*
X185241Y142294*
X192108*
X196105Y138296*
Y130106*
X187312Y277294D02*
X191912D01*
X212227Y297609*
Y317315*
X217712Y322800*
Y350212*
X238358Y370858*
Y382481*
X187312Y287294D02*
X202406Y302388D01*
Y320617*
X207712Y325923*
Y347712*
X232500Y372500*
X187312Y297294D02*
X197712Y307694D01*
Y345729*
X222712Y370729*
Y387994*
X187312Y307294D02*
Y317829D01*
X187712Y318229*
Y341988*
X212712Y366988*
Y387994*
X141812Y277594D02*
X150580D01*
X153866Y274307*
Y239840*
X160612Y233094*
X270000Y300319D02*
X277712Y308031D01*
Y354229*
X236812Y269594D02*
Y166911D01*
X241430Y162294*
X264166*
X266566Y159894*
X272412*
X273795Y281979D02*
X282712Y290897D01*
Y327994*
X322500Y285000D02*
Y270535D01*
X328035Y265000*
X362500*
X272712Y387994D02*
Y359229D01*
X277712Y354229*
X252500Y372500D02*
X252712Y372712D01*
Y387994*
X232712D02*
X232846D01*
X238358Y382481*
X312712Y387994D02*
Y359229D01*
X317712Y354229*
X282712Y387994D02*
Y359229D01*
X287712Y354229*
X302712Y387994D02*
Y359229D01*
X307712Y354229*
X292712Y387994D02*
Y359229D01*
X297712Y354229*
G54D16*
X111812Y169594D02*
X105812Y163594D01*
Y144800*
X109912Y140700*
X133875*
X147090Y127485*
X111812Y169594D02*
Y179594D01*
Y189594*
X147090Y127485D02*
Y112039D01*
X155095Y104034*
X224209*
X147090Y127485D02*
X152698Y133094D01*
X160612*
X224209Y114412D02*
Y104034D01*
X353991*
X359594Y109638*
X224209Y114412D02*
Y142484D01*
Y244828*
X215000Y115000D02*
Y114412D01*
X224209*
X359594Y109638D02*
Y109523D01*
X364783Y104334*
X379952*
X530282*
X540342Y114394*
X379952Y104334D02*
X380312Y104694D01*
Y124594*
X357479Y127173D02*
X359594Y125058D01*
Y109638*
X443112Y122094D02*
X479520D01*
X486686Y129259*
Y148467*
X500612Y162394*
X540342Y114394D02*
X550084Y104651D01*
X550084D02*
X585300D01*
X594800Y114151*
Y132743*
X631782Y169725*
Y261655*
X513412Y154894D02*
X536032D01*
X540342Y150584*
Y114394*
X111812Y189594D02*
X105812Y195594D01*
Y241094*
X111812Y247594*
X141812D02*
Y229557D01*
X147812Y223557*
X141812Y209594D02*
X147812Y215594D01*
Y223557*
X214312Y227094D02*
Y268771D01*
X230867Y285326*
Y304115*
X234046Y307294*
X247312*
X302412Y239894D02*
X312712Y250194D01*
Y327994*
X433112Y250194D02*
Y256979D01*
X437119Y260986*
X513451*
X520972Y268506*
X624930*
X167500Y330000D02*
Y341900D01*
X182712Y357112*
Y387994*
X332912Y335494D02*
X351212D01*
X362912Y323794*
Y317994*
X390612Y320294D02*
X396833D01*
X404433Y327894*
X420712*
X428312Y335494*
X508712Y320294D02*
Y332994D01*
X538912Y363194*
X485812Y305294D02*
X493712D01*
X508712Y320294*
X631782Y261655D02*
X624930Y268506D01*
X631862Y275438*
X192712Y387994D02*
X199870Y395152D01*
X316558*
X324012Y387697*
Y384112*
X335016Y395116*
X583323*
X593724Y384715*
Y371094*
X607134Y357685*
X623953*
X631862Y349776*
Y275438*
X324012Y384112D02*
Y369294D01*
X335312Y357994*
Y377994D02*
Y378710D01*
X350346*
Y387759*
X531212Y383194D02*
Y374633D01*
X534746Y371099*
X562238*
X571412Y361924*
Y350694*
G54D17*
X150000Y145000D03*
X214312Y134594D03*
X215000Y115000D03*
X279312Y179594D03*
X132500Y232500D03*
X147500Y262500D03*
X229312Y257094D03*
X214312Y227094D03*
X279312Y187094D03*
X340000Y235000D03*
X392500Y217500D03*
X456812Y234594D03*
X152500Y290000D03*
X165000D03*
X170000Y302500D03*
X165000Y310000D03*
X155000Y335000D03*
X167500Y330000D03*
X207500Y312500D03*
X236812Y269594D03*
X322500Y285000D03*
X362500Y265000D03*
X170000Y355000D03*
X162500D03*
X155000Y357500D03*
Y365000D03*
X232500Y372500D03*
X252500D03*
G54D23*
X579600Y197955D02*
X578600Y197591D01*
X577600Y196864*
X577100Y196136*
Y194682*
X577600Y193955*
X578600Y193227*
X579600Y192864*
X581100Y192500*
X583600*
X585100Y192864*
X586100Y193227*
X587100Y193955*
X587600Y194682*
Y196136*
X587100Y196864*
X586100Y197591*
X585100Y197955*
X577100Y201227D02*
X587600D01*
X577100D02*
Y203773D01*
X577600Y204864*
X578600Y205591*
X579600Y205955*
X581100Y206318*
X583600*
X585100Y205955*
X586100Y205591*
X587100Y204864*
X587600Y203773*
Y201227*
X578600Y214682D02*
X577600Y213955D01*
X577100Y212864*
Y211409*
X577600Y210318*
X578600Y209591*
X579600*
X580600Y209955*
X581100Y210318*
X581600Y211045*
X582600Y213227*
X583100Y213955*
X583600Y214318*
X584600Y214682*
X586100*
X587100Y213955*
X587600Y212864*
Y211409*
X587100Y210318*
X586100Y209591*
X593400Y193386D02*
X592962Y193227D01*
X592962D02*
X592525Y192909D01*
X592306Y192591*
Y191955*
X592525Y191636*
X592962Y191318*
X592962D02*
X593400Y191159D01*
X594056Y191000*
X595150*
X595806Y191159*
X596244Y191318*
X596681Y191636*
X596900Y191955*
Y192591*
X596681Y192909*
X596244Y193227*
X595806Y193386*
X593837Y194818D02*
X596900D01*
X595150D02*
X594494Y194977D01*
X594056Y195295*
X593837Y195614*
X593837D02*
Y196091D01*
Y197682D02*
X596900Y198636D01*
X593837Y199591D02*
X596900Y198636D01*
X597775Y198318*
X598213Y198000*
X598213D02*
X598431Y197682D01*
Y197523*
X594494Y202773D02*
X594056Y202614D01*
X593837Y202136*
X593837D02*
Y201659D01*
X593837D02*
X594056Y201182D01*
X594494Y201023*
X594931Y201182*
X595150Y201500*
X595369Y202295*
X595587Y202614*
X595587D02*
X596025Y202773D01*
X596244*
X596681Y202614*
X596900Y202136*
Y201659*
X596681Y201182*
X596244Y201023*
X592306Y204205D02*
X596900D01*
X594494D02*
X594056Y204523D01*
X593837Y204841*
X593837D02*
Y205318D01*
X593837D02*
X594056Y205636D01*
X594494Y205955*
X595150Y206114*
X595587*
X595587D02*
X596244Y205955D01*
X596681Y205636*
X596900Y205318*
Y204841*
X596681Y204523*
X596244Y204205*
X595150Y207545D02*
Y209455D01*
X594712*
X594712D02*
X594275Y209295D01*
X594056Y209136*
X593837Y208818*
X593837D02*
Y208341D01*
X593837D02*
X594056Y208023D01*
X594494Y207705*
X595150Y207545*
X595587*
X595587D02*
X596244Y207705D01*
X596681Y208023*
X596900Y208341*
Y208818*
X596681Y209136*
X596244Y209455*
X593837Y210886D02*
X596900D01*
X595150D02*
X594494Y211045D01*
X594056Y211364*
X593837Y211682*
X593837D02*
Y212159D01*
Y215500D02*
X597338D01*
X597338D02*
X597994Y215341D01*
X598213Y215182*
X598213D02*
X598431Y214864D01*
Y214386*
X598213Y214068*
X594494Y215500D02*
X594056Y215182D01*
X593837Y214864*
X593837D02*
Y214386D01*
X593837D02*
X594056Y214068D01*
X594494Y213750*
X595150Y213591*
X595587*
X595587D02*
X596244Y213750D01*
X596681Y214068*
X596900Y214386*
Y214864*
X596681Y215182*
X596244Y215500*
X601762Y193727D02*
X601325Y193409D01*
X601106Y192932*
Y192295*
X601325Y191818*
X601762Y191500*
X601762D02*
X602200D01*
X602637Y191659*
X602637D02*
X602856Y191818D01*
X603075Y192136*
X603512Y193091*
X603512D02*
X603731Y193409D01*
X603950Y193568*
X604387Y193727*
X604387D02*
X605044D01*
X605481Y193409*
X605700Y192932*
Y192295*
X605481Y191818*
X605044Y191500*
X602637Y195318D02*
X605700Y196273D01*
X602637Y197227D02*
X605700Y196273D01*
X606575Y195955*
X607013Y195636*
X607013D02*
X607231Y195318D01*
Y195159*
X603294Y200409D02*
X602856Y200250D01*
X602637Y199773*
X602637D02*
Y199295D01*
X602637D02*
X602856Y198818D01*
X603294Y198659*
X603731Y198818*
X603950Y199136*
X604169Y199932*
X604387Y200250*
X604387D02*
X604825Y200409D01*
X605044*
X605481Y200250*
X605700Y199773*
Y199295*
X605481Y198818*
X605044Y198659*
X601106Y202318D02*
X604825D01*
X605481Y202477*
X605700Y202795*
Y203114*
X602637Y201841D02*
Y202955D01*
X603950Y204545D02*
Y206455D01*
X603512*
X603512D02*
X603075Y206295D01*
X602856Y206136*
X602637Y205818*
X602637D02*
Y205341D01*
X602637D02*
X602856Y205023D01*
X603294Y204705*
X603950Y204545*
X604387*
X604387D02*
X605044Y204705D01*
X605481Y205023*
X605700Y205341*
Y205818*
X605481Y206136*
X605044Y206455*
X602637Y207886D02*
X605700D01*
X603512D02*
X602856Y208364D01*
X602637Y208682*
X602637D02*
Y209159D01*
X602637D02*
X602856Y209477D01*
X603512Y209636*
X603512D02*
X605700D01*
X603512D02*
X602856Y210114D01*
X602637Y210432*
X602637D02*
Y210909D01*
X602637D02*
X602856Y211227D01*
X603512Y211386*
X603512D02*
X605700D01*
X603294Y214568D02*
X602856Y214409D01*
X602637Y213932*
X602637D02*
Y213455D01*
X602637D02*
X602856Y212977D01*
X603294Y212818*
X603731Y212977*
X603950Y213295*
X604169Y214091*
X604387Y214409*
X604387D02*
X604825Y214568D01*
X605044*
X605481Y214409*
X605700Y213932*
Y213455*
X605481Y212977*
X605044Y212818*
X611706Y190595D02*
X611925Y190118D01*
X612362Y189959*
X612362D02*
X612800D01*
X613237Y190118*
X613237D02*
X613456Y190436D01*
X613675Y191073*
X613894Y191550*
X614331Y191868*
X614769Y192027*
X615425*
X615862Y191868*
X615862D02*
X616081Y191709D01*
X616300Y191232*
Y190595*
X616081Y190118*
X615862Y189959*
X615862D02*
X615425Y189800D01*
X614769*
X614331Y189959*
X613894Y190277*
X613675Y190755*
X613456Y191391*
X613237Y191709*
X613237D02*
X612800Y191868D01*
X612362*
X612362D02*
X611925Y191709D01*
X611706Y191232*
Y190595*
Y195686D02*
X616300Y194095D01*
X611706Y193459D02*
Y195686D01*
X614331Y197118D02*
Y199982D01*
X612581Y201414D02*
X612362Y201732D01*
X612362D02*
X611706Y202209D01*
X616300*
X611706Y204595D02*
X611925Y204118D01*
X612581Y203800*
X613675Y203641*
X614331*
X615425Y203800*
X616081Y204118*
X616300Y204595*
Y204914*
X616081Y205391*
X615425Y205709*
X614331Y205868*
X613675*
X612581Y205709*
X611925Y205391*
X611706Y204914*
Y204595*
X614331Y207300D02*
Y210164D01*
X612800Y211755D02*
X612581D01*
X612144Y211914*
X611925Y212073*
X611706Y212391*
Y213027*
X611925Y213345*
X612144Y213505*
X612581Y213664*
X613019*
X613456Y213505*
X614112Y213186*
X614112D02*
X616300Y211595D01*
Y213823*
X612362Y217164D02*
X611925Y217005D01*
X611706Y216527*
Y216209*
X611925Y215732*
X612581Y215414*
X613675Y215255*
X614769*
X615644Y215414*
X616081Y215732*
X616300Y216209*
Y216368*
X616081Y216845*
X615644Y217164*
X614987Y217323*
X614987D02*
X614769D01*
X614112Y217164*
X614112D02*
X613675Y216845D01*
X613456Y216368*
Y216209*
X613675Y215732*
X614112Y215414*
X614112D02*
X614769Y215255D01*
G54D25*
X280012Y257594D03*
X330012D03*
X508712Y320294D03*
Y270294D03*
X428312Y385494D03*
Y335494D03*
X571412Y350694D03*
X621412D03*
X378112Y320294D03*
Y270294D03*
G54D26*
X511212Y383194D03*
X521212D03*
X531212D03*
G54D27*
X332612Y158194D03*
X160612Y123094D03*
G54D28*
X332612Y168194D03*
Y178194D03*
Y188194D03*
Y198194D03*
Y208194D03*
Y218194D03*
Y228194D03*
Y238194D03*
X160612Y133094D03*
Y143094D03*
Y153094D03*
Y163094D03*
Y173094D03*
Y183094D03*
Y193094D03*
Y203094D03*
Y213094D03*
Y223094D03*
Y233094D03*
Y243094D03*
Y253094D03*
G54D29*
X350346Y387759D03*
X345000Y347500D03*
G54D36*
X615301Y378258D03*
X615562Y121334D03*
X120883Y121056D03*
X121011Y377932D03*
X0Y0D02*
M02*
