*
*
G04 PADS Layout (Build Number 2007.42.1) generated Gerber (RS-274-X) file*
G04 PC Version=2.1*
*
%IN "ms4c.pcb"*%
*
%MOIN*%
*
%FSLAX35Y35*%
*
*
*
*
G04 PC Standard Apertures*
*
*
G04 Thermal Relief Aperture macro.*
%AMTER*
1,1,$1,0,0*
1,0,$1-$2,0,0*
21,0,$3,$4,0,0,45*
21,0,$3,$4,0,0,135*
%
*
*
G04 Annular Aperture macro.*
%AMANN*
1,1,$1,0,0*
1,0,$2,0,0*
%
*
*
G04 Odd Aperture macro.*
%AMODD*
1,1,$1,0,0*
1,0,$1-0.005,0,0*
%
*
*
G04 PC Custom Aperture Macros*
*
*
*
*
*
*
G04 PC Aperture Table*
*
%ADD010R,0.06X0.06*%
%ADD011C,0.06*%
%ADD012ANN,0.17717X0.11811*%
%ADD013C,0.11024*%
%ADD014C,0.035*%
%ADD015C,0.02*%
%ADD016C,0.04*%
%ADD017C,0.04724*%
%ADD023C,0.01*%
%ADD025C,0.0748*%
%ADD026C,0.06299*%
%ADD027R,0.06693X0.06693*%
%ADD028C,0.06693*%
%ADD029C,0.07874*%
%ADD036C,0.03937*%
*
*
*
*
G04 PC Copper Outlines (0)*
G04 Layer Name ms4c.pcb - dark (0)*
%LPD*%
*
*
G04 PC Area=Custom_Thermal*
*
G04 PC Custom Flashes*
G04 Layer Name ms4c.pcb - flashes*
%LPD*%
*
*
G04 PC Circuitry*
G04 Layer Name ms4c.pcb - circuitry*
%LPD*%
*
G54D10*
G01X455812Y305294D03*
X141812Y247594D03*
X111812Y219594D03*
X433112Y220194D03*
X247312Y117294D03*
X470612Y192394D03*
X302412Y149894D03*
X332912Y317994D03*
X533712Y179994D03*
Y230294D03*
X448312Y335494D03*
X521012Y307794D03*
X182712Y327994D03*
X315212Y187194D03*
G54D11*
X455812Y295294D03*
Y285294D03*
Y275294D03*
X485812D03*
Y285294D03*
Y295294D03*
Y305294D03*
X141812Y257594D03*
Y267594D03*
Y277594D03*
Y287594D03*
Y297594D03*
Y307594D03*
Y317594D03*
Y327594D03*
Y337594D03*
X111812D03*
Y327594D03*
Y317594D03*
Y307594D03*
Y297594D03*
Y287594D03*
Y277594D03*
Y267594D03*
Y257594D03*
Y247594D03*
Y209594D03*
Y199594D03*
Y189594D03*
Y179594D03*
Y169594D03*
Y159594D03*
Y149594D03*
X141812D03*
Y159594D03*
Y169594D03*
Y179594D03*
Y189594D03*
Y199594D03*
Y209594D03*
Y219594D03*
X443112Y220194D03*
X453112D03*
X463112D03*
X473112D03*
X483112D03*
X493112D03*
Y250194D03*
X483112D03*
X473112D03*
X463112D03*
X453112D03*
X443112D03*
X433112D03*
X247312Y127294D03*
Y137294D03*
Y147294D03*
Y157294D03*
Y167294D03*
Y177294D03*
Y187294D03*
Y197294D03*
Y207294D03*
Y217294D03*
Y227294D03*
Y237294D03*
Y247294D03*
Y257294D03*
Y267294D03*
Y277294D03*
Y287294D03*
Y297294D03*
Y307294D03*
X187312D03*
Y297294D03*
Y287294D03*
Y277294D03*
Y267294D03*
Y257294D03*
Y247294D03*
Y237294D03*
Y227294D03*
Y217294D03*
Y207294D03*
Y197294D03*
Y187294D03*
Y177294D03*
Y167294D03*
Y157294D03*
Y147294D03*
Y137294D03*
Y127294D03*
Y117294D03*
X470612Y182394D03*
Y172394D03*
Y162394D03*
Y152394D03*
Y142394D03*
Y132394D03*
X500612D03*
Y142394D03*
Y152394D03*
Y162394D03*
Y172394D03*
Y182394D03*
Y192394D03*
X302412Y159894D03*
Y169894D03*
Y179894D03*
Y189894D03*
Y199894D03*
Y209894D03*
Y219894D03*
Y229894D03*
Y239894D03*
X272412D03*
Y229894D03*
Y219894D03*
Y209894D03*
Y199894D03*
Y189894D03*
Y179894D03*
Y169894D03*
Y159894D03*
Y149894D03*
X297712Y114594D03*
X347712D03*
X297712Y129594D03*
X347712D03*
X380312Y124594D03*
X430312D03*
X380312Y139594D03*
X430312D03*
X357712Y152294D03*
Y202294D03*
X370412Y152294D03*
Y202294D03*
X400612Y152394D03*
Y202394D03*
X413112Y152394D03*
Y202394D03*
X443112Y154894D03*
Y204894D03*
X455612Y154894D03*
Y204894D03*
X510912Y124594D03*
X560912D03*
X510912Y139894D03*
X560912D03*
X513412Y154894D03*
Y204894D03*
X280012Y270094D03*
X330012D03*
X332912Y307994D03*
Y297994D03*
Y287994D03*
X362912D03*
Y297994D03*
Y307994D03*
Y317994D03*
X390612Y270294D03*
Y320294D03*
X420812Y270294D03*
Y320294D03*
X433512Y270294D03*
Y320294D03*
X445812Y270294D03*
Y320294D03*
X496012Y270294D03*
Y320294D03*
X413312Y335494D03*
Y385494D03*
X443712Y385694D03*
X493712D03*
X543712Y179994D03*
Y209994D03*
X533712D03*
X543712Y230294D03*
Y260294D03*
X533712D03*
X458312Y335494D03*
Y365494D03*
X448312D03*
X332912Y335494D03*
X382912D03*
X365412Y358194D03*
Y378194D03*
X493712Y342994D03*
Y362994D03*
X538912Y343194D03*
Y363194D03*
X357912Y224994D03*
Y254994D03*
X375412Y224994D03*
Y254994D03*
X385312Y162394D03*
Y192394D03*
X428112Y162394D03*
Y192394D03*
X443112Y122094D03*
Y142094D03*
X335312Y357994D03*
Y377994D03*
X480612Y323394D03*
X460612D03*
X262512Y287694D03*
Y307694D03*
X551212Y383194D03*
X561212D03*
X262512Y260094D03*
Y270094D03*
X521012Y287794D03*
X551012D03*
Y307794D03*
X192712Y327994D03*
X202712D03*
X212712D03*
X222712D03*
X232712D03*
X242712D03*
X252712D03*
X262712D03*
X272712D03*
X282712D03*
X292712D03*
X302712D03*
X312712D03*
Y387994D03*
X302712D03*
X292712D03*
X282712D03*
X272712D03*
X262712D03*
X252712D03*
X242712D03*
X232712D03*
X222712D03*
X212712D03*
X202712D03*
X192712D03*
X182712D03*
X315212Y197194D03*
Y207194D03*
Y217194D03*
Y227194D03*
Y237194D03*
X405612Y272794D03*
Y292794D03*
X403147Y307702D03*
X410647Y312702D03*
X403147Y317702D03*
X395828Y335455D03*
Y385455D03*
G54D12*
X276912Y121294D03*
X155812Y378094D03*
X580612Y378394D03*
X580312Y121294D03*
G54D13*
X603928Y282897D03*
Y336047D03*
G54D14*
X111812Y149594D02*
X106062Y155344D01*
Y193844*
X111812Y199594*
X347712Y129594D02*
X354312D01*
X357712Y132994*
Y152294*
X297712Y114594D02*
Y129594D01*
X385312Y162394D02*
Y155569D01*
X388488Y152394*
X400612*
X413112D02*
Y157809D01*
X417696Y162394*
X428112*
X413112Y152394D02*
Y144082D01*
X417601Y139594*
X430312*
X370412Y152294D02*
Y168194D01*
X379312Y177094*
X451812*
X466812Y162094*
X470612Y162394*
X357712Y152294D02*
X370412D01*
X430312Y124594D02*
Y139594D01*
X494312Y129594D02*
Y147094D01*
X499312Y152094*
X500612Y152394*
X494312Y129594D02*
X499312Y124594D01*
X510912*
Y139894D02*
X511812Y140844D01*
X443112Y154894D02*
X455612D01*
X500612Y162394D02*
X516812Y177094D01*
X500612Y142394D02*
X501812Y140844D01*
X511812*
X525911Y174209D02*
X535609Y164511D01*
Y131641*
X542656Y124594*
X560912*
X543712Y179994D02*
X557212D01*
X564312Y187094*
Y287705*
X543712Y179994D02*
Y145355D01*
X549173Y139894*
X560912*
X533712Y179994D02*
X543712D01*
X103062Y349086D02*
Y208344D01*
X111812Y199594*
X280012Y257594D02*
Y270094D01*
X428112Y192394D02*
X457112D01*
X466812Y202094*
X484312*
X489312Y197094*
Y162094*
X499312Y152094*
X453112Y258399D02*
X479778D01*
X483112Y255064*
Y250194*
X456812Y234594D02*
X467702D01*
X473112Y240004*
Y250194*
X433112D02*
Y255497D01*
X436013Y258399*
X453112*
Y250194*
X493112D02*
X503305D01*
X509312Y244186*
Y219594*
X526812Y202094*
X540530*
X543712Y205276*
Y209994*
X493112Y220194D02*
Y215794D01*
X516812Y192094*
Y177094*
X463112Y220194D02*
X473112D01*
X525911Y174209D02*
Y187775D01*
X529975Y191839*
X548988*
X555572Y198423*
X533712Y209994D02*
X525751Y217955D01*
Y257100*
X528944Y260294*
X533712*
X543712Y230294D02*
X550012D01*
X554312Y234594*
Y269594*
X543712Y230294D02*
Y222443D01*
X546838Y219317*
X551596*
X555572Y215341*
Y198423*
X533712Y230294D02*
X543712D01*
X332912Y335494D02*
Y355594D01*
X335312Y357994*
X332912Y287994D02*
Y297994D01*
X420812Y289726D02*
Y291094D01*
X425012Y295294*
X433414*
X395828Y335455D02*
X413312D01*
Y335494*
X403147Y317702D02*
X405739Y320294D01*
X420812*
X405612Y292794D02*
X417745D01*
X420812Y289726*
X405612Y272794D02*
X413862Y264544D01*
X490262*
X496012Y270294*
X420812D02*
Y289726D01*
X390612Y320294D02*
Y312952D01*
X395862Y307702*
X403147*
X390612Y270294D02*
Y296202D01*
X395410Y301000*
X406211*
X410647Y305436*
Y312702*
X362912Y317994D02*
Y307994D01*
Y297994*
X461812Y314594D02*
X487727D01*
X496012Y306308*
Y270294*
X455812Y295294D02*
X433414D01*
X433512Y295392*
Y320294*
X460612Y323394D02*
Y315794D01*
X461812Y314594*
X493712Y342994D02*
X538912D01*
Y343194*
X448312Y335494D02*
X458312D01*
X445812Y270294D02*
Y280253D01*
X450853Y285294*
X455812*
X433512Y270294D02*
X445812D01*
X455812Y295294D02*
X468612D01*
X478612Y285294*
X485812*
X455812Y305294D02*
Y312094D01*
X458312Y314594*
X461812*
X564223Y287794D02*
X564312Y287705D01*
X554312Y269594D02*
X544312Y279594D01*
Y301094*
X551012Y307800*
Y307794*
Y321094*
X559723Y329804*
X585355*
X591598Y336047*
X603928*
X551012Y287794D02*
X564223D01*
X521012D02*
X539312Y307094D01*
Y319594*
X556812Y337094*
X581812*
X595241Y350523*
X521012Y307794D02*
Y314794D01*
X556912Y350694*
X571412*
X538912Y343194D02*
X551812Y356094D01*
Y362094*
X103062Y349086D02*
X108518Y354541D01*
X130541*
X141600Y365600*
Y389200*
X147887Y395487*
X255219*
X262712Y387994*
X395828Y385455D02*
X413273D01*
X413312Y385494*
X365412Y358194D02*
X373089D01*
X395828Y335455*
X493727Y362909D02*
X493712Y362994D01*
X538912*
Y363194*
X448312Y365494D02*
Y371444D01*
X451462Y374594*
X464800*
X480494Y358900*
X489718*
X493727Y362909*
X493712Y385694D02*
Y389346D01*
X496073Y391707*
X518064*
X521212Y388559*
Y383194*
X443712Y385694D02*
X444312Y382094D01*
X446812Y379594*
X477112*
X493712Y362994*
X443712Y385694D02*
X483047D01*
X490721Y378020*
X506038*
X511212Y383194*
X551812Y362094D02*
X583670D01*
X595241Y350523*
X551812Y362094D02*
X551816Y362098D01*
X531212Y383194D02*
Y387024D01*
X534046Y389857*
X558524*
X561212Y387169*
Y383194*
X551212D02*
X551816Y382589D01*
Y362098*
G54D15*
X154085Y152550D02*
Y180939D01*
X156240Y183094*
X160612*
X154085Y152550D02*
X158541Y148094D01*
X166512*
X187312Y127294*
X160612Y143094D02*
X181412Y122294D01*
X225289*
X235983Y111600*
X253200*
X258200Y116600*
Y126700*
X265700Y134200*
X293106*
X297712Y129594*
X187312Y127294D02*
X195606D01*
X230406Y162094*
X264612*
X272412Y169894*
X187312Y137294D02*
X195606D01*
X230451Y172139*
X237574*
X237619Y172094*
X257611*
X265411Y179894*
X272412*
X187312Y147294D02*
X194894D01*
X229694Y182094*
X255794*
X263594Y189894*
X272412*
X187312Y157294D02*
X196307D01*
X231107Y192094*
X257037*
X264837Y199894*
X272412*
X187312Y167294D02*
X198745D01*
X233545Y202094*
X258791*
X266591Y209894*
X272412*
X187312Y177294D02*
X200391D01*
X235191Y212094*
X258164*
X265964Y219894*
X272412*
X214312Y134594D02*
X232012Y152294D01*
X259022*
X261622Y154894*
X297412*
X302412Y149894*
X272412D02*
X284398D01*
X289698Y144594*
X307674*
X312537Y149457*
Y165605*
X315212Y168279*
Y187194*
X247312Y177294D02*
X257811D01*
X265411Y184894*
X277112*
X279312Y187094*
X247312Y167294D02*
X257811D01*
X265411Y174894*
X274612*
X279312Y179594*
X247312Y137294D02*
X256460D01*
X260436Y141269*
X317317*
X321707Y145659*
Y217288*
X332612Y228194*
X288412Y218353D02*
Y173894D01*
X302412Y159894*
X291412Y215965D02*
Y180894D01*
X302412Y169894*
X106812Y245523D02*
X119835Y232500D01*
X132500*
X136812Y257765D02*
Y262094D01*
X141812Y267594*
X133812Y246765D02*
X139179Y241399D01*
X144487*
X157304Y228582*
Y226402*
X160612Y223094*
X130812Y245523D02*
X139131Y237204D01*
X144439*
X154249Y227394*
Y219457*
X160612Y213094*
X127812Y243674D02*
X138079Y233407D01*
X143993*
X151212Y226188*
Y212494*
X160612Y203094*
X136812Y257765D02*
Y255523D01*
X139741Y252594*
X151112*
X160612Y243094*
X147500Y262500D02*
X147713Y262287D01*
X165531*
X165538Y262294*
X190290*
X193088Y259496*
Y223069*
X160612Y253094D02*
X181573Y232133D01*
Y203033*
X187312Y197294*
X160612Y243094D02*
X177341Y226364D01*
X177341D02*
Y202910D01*
X177341D02*
X181967Y198285D01*
Y192639*
X187312Y187294*
X160612Y233094D02*
X174268Y219438D01*
Y201584*
X178924Y196928*
Y185682*
X187312Y177294*
X160612Y223094D02*
X171157Y212549D01*
Y200296*
X175882Y195571*
Y178724*
X187312Y167294*
X160612Y213094D02*
X167880Y205826D01*
Y198861*
X172755Y193986*
Y171851*
X187312Y157294*
X160612Y203094D02*
X164372Y199333D01*
Y197265*
X169522Y192115*
Y165084*
X187312Y147294*
X160612Y193094D02*
X166067Y187639D01*
Y158539*
X187312Y137294*
Y187294D02*
X195616D01*
X230416Y222094*
X257791*
X265591Y229894*
X272412*
X187312Y197294D02*
X195584D01*
X230384Y232094*
X257760*
X265560Y239894*
X272412*
X187312Y217294D02*
X193088Y223069D01*
X141812Y199594D02*
X150000Y191406D01*
Y145000*
X141812Y257594D02*
X156112D01*
X160612Y253094*
X229312Y257094D02*
X236858D01*
X241658Y252294*
X263289*
X266298Y249284*
X284334*
X309493Y274443*
Y294574*
X332912Y317994*
X247312Y227294D02*
X257760D01*
X265360Y234894*
X274483*
X313977Y274388*
Y281578*
X317399Y285000*
X322500*
X247312Y217294D02*
X257791D01*
X265391Y224894*
X274483*
X285392Y235803*
Y241333*
X327910Y283851*
Y302991*
X332912Y307994*
X247312Y207294D02*
X258991D01*
X266591Y214894*
X274483*
X290016Y230426*
Y241487*
X332912Y284384*
Y287994*
X247312Y187294D02*
X256616D01*
X264216Y194894*
X274483*
X283812Y204223*
Y219141*
X293285Y228613*
Y237837*
X300341Y244894*
X334560*
X340000Y239454*
Y235000*
X297412Y204894D02*
Y194894D01*
X302412Y189894*
X294412Y208965D02*
Y187894D01*
X302412Y179894*
X297412Y204894D02*
X302412Y209894D01*
X294412Y208965D02*
Y211894D01*
X302412Y219894*
X288412Y218353D02*
X296848Y226789D01*
Y231401*
X300341Y234894*
X306398*
X308698Y237194*
X315212*
X291412Y215965D02*
X299760Y224313D01*
Y225864*
X303101Y229205*
X302412Y229894*
X312512*
X315212Y227194*
X302412Y219894D02*
X312512D01*
X315212Y217194*
X302412Y209894D02*
X312512D01*
X315212Y207194*
X302412Y199894D02*
X312512D01*
X315212Y197194*
X392500Y217500D02*
X407920D01*
X410827Y214594*
X439312*
X443112Y220194*
X106812Y245523D02*
Y332594D01*
X111812Y337594*
X111229Y328176D02*
X133512Y350459D01*
X207318*
X227712Y330065*
Y325923*
X230641Y322994*
X267712*
X272712Y327994*
X111229Y328176D02*
X111812D01*
Y267594D02*
X120791Y276572D01*
Y329252*
X135476Y343938*
X196768*
X212712Y327994*
X111812Y277594D02*
X117301Y283083D01*
Y330006*
X134494Y347198*
X203507*
X222712Y327994*
X111812Y327594D02*
Y328176D01*
X133812Y246765D02*
Y279594D01*
X141812Y287594*
X130812Y245523D02*
Y286594D01*
X141812Y297594*
X127812Y243674D02*
Y293594D01*
X141812Y307594*
X169112Y302294D02*
X212312D01*
X247312Y267294*
X169112Y302294D02*
X170000Y302500D01*
X165000Y310000D02*
Y301331D01*
X179037Y287294*
X187312*
X155000Y335000D02*
Y334885D01*
X195821*
X202712Y327994*
X192712D02*
X207500Y313206D01*
Y312500*
X187312Y297294D02*
X209112D01*
X236812Y269594*
X141812Y327594D02*
X159413Y309993D01*
Y295481*
X164947Y289947*
X165000Y290000*
X141812Y317594D02*
X146810D01*
X151812Y312592*
Y290000*
X152500*
X232712Y327994D02*
X233369Y328650D01*
X362500Y265000D02*
Y259478D01*
X384384Y237594*
X435712*
X453112Y220194*
X170000Y355000D02*
X207020D01*
X233369Y328650*
X162500Y355000D02*
X166862Y359362D01*
X211344*
X242712Y327994*
X155000Y357500D02*
X159862Y362362D01*
X218344*
X252712Y327994*
X155000Y365000D02*
X156130Y366130D01*
X224576*
X262712Y327994*
X232500Y372500D02*
X252500D01*
G54D16*
X111812Y149594D02*
Y143400D01*
X114212Y141000*
X132329*
X150236Y123094*
X160612*
X111812Y149594D02*
X124312D01*
X134312Y159594*
X141812*
X160612Y123094D02*
Y112032D01*
X167745Y104899*
X343761*
X346812Y107950*
Y108282*
X187312Y117294D02*
X200328D01*
X202622Y115000*
X215000*
X141812Y189594D02*
Y179594D01*
Y169594*
Y159594D02*
Y169594D01*
X346812Y108282D02*
Y113694D01*
X347712Y114594*
X346812Y108282D02*
X349518Y105576D01*
X368999*
X372358Y108935*
X347712Y119544D02*
X341095Y126161D01*
Y133607*
X348637Y141149*
Y257594*
X347712Y114594D02*
Y119544D01*
X372358Y108935D02*
Y135675D01*
X376277Y139594*
X380312*
X372358Y108935D02*
X375803Y105490D01*
X443112*
X430312Y139594D02*
Y140844D01*
X443112*
Y142094*
Y105490D02*
X585976D01*
X594999Y114512*
Y131903*
X631506Y168410*
Y340600*
X443112Y105490D02*
Y122094D01*
X111812Y189594D02*
X126812Y204594D01*
Y214594*
X131812Y219594*
X141812*
X134312Y192094D02*
X136812Y189594D01*
X141812*
X134312Y192094D02*
Y207094D01*
X136812Y209594*
X141812*
X187312Y207294D02*
X194512D01*
X214312Y227094*
X262512Y260094D02*
X270012D01*
X272512Y257594*
X280012*
X348637D02*
Y282763D01*
X353868Y287994*
X348637Y257594D02*
X330012D01*
Y270094*
X385312Y192394D02*
X390312Y197394D01*
X395612*
X400612Y202394*
X413112D02*
X418112Y197394D01*
X423112*
X428112Y192394*
X400612Y202394D02*
X406619Y208400D01*
X433906*
X437412Y204894*
X443112*
X370412Y202294D02*
Y211144D01*
X375412Y216144*
Y224994*
X357712Y202294D02*
Y213544D01*
X357912Y213744*
Y224994*
X473112Y220194D02*
Y225363D01*
X475303Y227554*
X490788*
X493112Y225229*
Y220194*
X167500Y330000D02*
X173784D01*
X175790Y327994*
X182712*
X141812Y337594D02*
X158228Y321178D01*
X186576*
X200616Y307138*
X225539*
X225695Y307294*
X247312*
X256913Y316894*
X312712*
Y327994*
X345387*
X353868Y319513*
Y287994*
X362912*
X378112Y270294D02*
X390612D01*
X378112Y320294D02*
Y330694D01*
X382912Y335494*
X428312D02*
X434312Y329494D01*
X476813*
X480113Y332794*
X493712*
X496012Y330494*
Y320294*
X493712Y332794D02*
Y342994D01*
X496012Y270294D02*
X508712D01*
X564223Y287794D02*
X599032D01*
X603928Y282897*
X182712Y387994D02*
X192712D01*
X262712D02*
X264312Y389990D01*
X269916Y395594*
X317712*
X335312Y377994*
X345000Y357994D02*
X365212D01*
X365412Y358194*
X345000Y347500D02*
Y357994D01*
X335312Y377994D02*
X335512Y378194D01*
X365412*
X335312Y357994D02*
X345000D01*
X428312Y385494D02*
Y355494D01*
X448312Y335494*
X365412Y378194D02*
X385612D01*
X428312Y335494*
X413312Y385494D02*
X428312D01*
X595241Y350523D02*
X595412Y350694D01*
X621412*
X631506Y340600*
G54D17*
X150000Y145000D03*
X214312Y134594D03*
X215000Y115000D03*
X279312Y179594D03*
X132500Y232500D03*
X147500Y262500D03*
X229312Y257094D03*
X214312Y227094D03*
X279312Y187094D03*
X340000Y235000D03*
X392500Y217500D03*
X456812Y234594D03*
X152500Y290000D03*
X165000D03*
X170000Y302500D03*
X165000Y310000D03*
X155000Y335000D03*
X167500Y330000D03*
X207500Y312500D03*
X236812Y269594D03*
X322500Y285000D03*
X362500Y265000D03*
X170000Y355000D03*
X162500D03*
X155000Y357500D03*
Y365000D03*
X232500Y372500D03*
X252500D03*
G54D23*
X614400Y197855D02*
X615400Y197491D01*
X616400Y196764*
X616900Y196036*
Y194582*
X616400Y193855*
X615400Y193127*
X614400Y192764*
X612900Y192400*
X610400*
X608900Y192764*
X607900Y193127*
X606900Y193855*
X606400Y194582*
Y196036*
X606900Y196764*
X607900Y197491*
X608900Y197855*
X616900Y201127D02*
X606400D01*
X616900D02*
Y203673D01*
X616400Y204764*
X615400Y205491*
X614400Y205855*
X612900Y206218*
X610400*
X608900Y205855*
X607900Y205491*
X606900Y204764*
X606400Y203673*
Y201127*
X615400Y214582D02*
X616400Y213855D01*
X616900Y212764*
Y211309*
X616400Y210218*
X615400Y209491*
X614400*
X613400Y209855*
X612900Y210218*
X612400Y210945*
X611400Y213127*
X610900Y213855*
X610400Y214218*
X609400Y214582*
X607900*
X606900Y213855*
X606400Y212764*
Y211309*
X606900Y210218*
X607900Y209491*
X595000Y192486D02*
X595438Y192327D01*
X595438D02*
X595875Y192009D01*
X596094Y191691*
Y191055*
X595875Y190736*
X595438Y190418*
X595438D02*
X595000Y190259D01*
X594344Y190100*
X593250*
X592594Y190259*
X592156Y190418*
X591719Y190736*
X591500Y191055*
Y191691*
X591719Y192009*
X592156Y192327*
X592594Y192486*
X594563Y193918D02*
X591500D01*
X593250D02*
X593906Y194077D01*
X594344Y194395*
X594563Y194714*
X594563D02*
Y195191D01*
Y196782D02*
X591500Y197736D01*
X594563Y198691D02*
X591500Y197736D01*
X590625Y197418*
X590187Y197100*
X590187D02*
X589969Y196782D01*
Y196623*
X593906Y201873D02*
X594344Y201714D01*
X594563Y201236*
X594563D02*
Y200759D01*
X594563D02*
X594344Y200282D01*
X593906Y200123*
X593469Y200282*
X593250Y200600*
X593031Y201395*
X592813Y201714*
X592813D02*
X592375Y201873D01*
X592156*
X591719Y201714*
X591500Y201236*
Y200759*
X591719Y200282*
X592156Y200123*
X596094Y203305D02*
X591500D01*
X593906D02*
X594344Y203623D01*
X594563Y203941*
X594563D02*
Y204418D01*
X594563D02*
X594344Y204736D01*
X593906Y205055*
X593250Y205214*
X592813*
X592813D02*
X592156Y205055D01*
X591719Y204736*
X591500Y204418*
Y203941*
X591719Y203623*
X592156Y203305*
X593250Y206645D02*
Y208555D01*
X593688*
X593688D02*
X594125Y208395D01*
X594344Y208236*
X594563Y207918*
X594563D02*
Y207441D01*
X594563D02*
X594344Y207123D01*
X593906Y206805*
X593250Y206645*
X592813*
X592813D02*
X592156Y206805D01*
X591719Y207123*
X591500Y207441*
Y207918*
X591719Y208236*
X592156Y208555*
X594563Y209986D02*
X591500D01*
X593250D02*
X593906Y210145D01*
X594344Y210464*
X594563Y210782*
X594563D02*
Y211259D01*
Y214600D02*
X591062D01*
X591062D02*
X590406Y214441D01*
X590187Y214282*
X590187D02*
X589969Y213964D01*
Y213486*
X590187Y213168*
X593906Y214600D02*
X594344Y214282D01*
X594563Y213964*
X594563D02*
Y213486D01*
X594563D02*
X594344Y213168D01*
X593906Y212850*
X593250Y212691*
X592813*
X592813D02*
X592156Y212850D01*
X591719Y213168*
X591500Y213486*
Y213964*
X591719Y214282*
X592156Y214600*
X587538Y193427D02*
X587975Y193109D01*
X588194Y192632*
Y191995*
X587975Y191518*
X587538Y191200*
X587538D02*
X587100D01*
X586663Y191359*
X586663D02*
X586444Y191518D01*
X586225Y191836*
X585788Y192791*
X585788D02*
X585569Y193109D01*
X585350Y193268*
X584913Y193427*
X584913D02*
X584256D01*
X583819Y193109*
X583600Y192632*
Y191995*
X583819Y191518*
X584256Y191200*
X586663Y195018D02*
X583600Y195973D01*
X586663Y196927D02*
X583600Y195973D01*
X582725Y195655*
X582287Y195336*
X582287D02*
X582069Y195018D01*
Y194859*
X586006Y200109D02*
X586444Y199950D01*
X586663Y199473*
X586663D02*
Y198995D01*
X586663D02*
X586444Y198518D01*
X586006Y198359*
X585569Y198518*
X585350Y198836*
X585131Y199632*
X584913Y199950*
X584913D02*
X584475Y200109D01*
X584256*
X583819Y199950*
X583600Y199473*
Y198995*
X583819Y198518*
X584256Y198359*
X588194Y202018D02*
X584475D01*
X583819Y202177*
X583600Y202495*
Y202814*
X586663Y201541D02*
Y202655D01*
X585350Y204245D02*
Y206155D01*
X585788*
X585788D02*
X586225Y205995D01*
X586444Y205836*
X586663Y205518*
X586663D02*
Y205041D01*
X586663D02*
X586444Y204723D01*
X586006Y204405*
X585350Y204245*
X584913*
X584913D02*
X584256Y204405D01*
X583819Y204723*
X583600Y205041*
Y205518*
X583819Y205836*
X584256Y206155*
X586663Y207586D02*
X583600D01*
X585788D02*
X586444Y208064D01*
X586663Y208382*
X586663D02*
Y208859D01*
X586663D02*
X586444Y209177D01*
X585788Y209336*
X585788D02*
X583600D01*
X585788D02*
X586444Y209814D01*
X586663Y210132*
X586663D02*
Y210609D01*
X586663D02*
X586444Y210927D01*
X585788Y211086*
X585788D02*
X583600D01*
X586006Y214268D02*
X586444Y214109D01*
X586663Y213632*
X586663D02*
Y213155D01*
X586663D02*
X586444Y212677D01*
X586006Y212518*
X585569Y212677*
X585350Y212995*
X585131Y213791*
X584913Y214109*
X584913D02*
X584475Y214268D01*
X584256*
X583819Y214109*
X583600Y213632*
Y213155*
X583819Y212677*
X584256Y212518*
X610288Y227400D02*
X601100D01*
X610288D02*
X601100Y229945D01*
X610288Y232491D02*
X601100Y229945D01*
X610288Y232491D02*
X601100D01*
X608975Y239809D02*
X609850Y239173D01*
X610288Y238218*
X610288D02*
Y236945D01*
X610288D02*
X609850Y235991D01*
X608975Y235355*
X608100*
X607225Y235673*
X606788Y235991*
X606788D02*
X606350Y236627D01*
X605475Y238536*
X605038Y239173*
X605038D02*
X604600Y239491D01*
X603725Y239809*
X602413*
X602413D02*
X601538Y239173D01*
X601538D02*
X601100Y238218D01*
Y236945*
X601538Y235991*
X601538D02*
X602413Y235355D01*
X612038Y248400D02*
X598037Y242673D01*
X610288Y251900D02*
Y255400D01*
X610288D02*
X606788Y253491D01*
X606788D02*
Y254445D01*
X606788D02*
X606350Y255082D01*
X605913Y255400*
X605913D02*
X604600Y255718D01*
X603725*
X602413Y255400*
X602413D02*
X601538Y254764D01*
X601538D02*
X601100Y253809D01*
Y252855*
X601538Y251900*
X601538D02*
X601975Y251582D01*
X602850Y251264*
X572436Y304037D02*
X571755Y304350D01*
X571527Y304975*
Y305600*
X571755Y306225*
X572209Y306537*
X572209D02*
X573118Y306850D01*
X573800Y307162*
X573800D02*
X574255Y307787D01*
X574255D02*
X574482Y308412D01*
X574482D02*
Y309350D01*
X574255Y309975*
X574027Y310287*
X574027D02*
X573345Y310600D01*
X572436*
X571755Y310287*
X571755D02*
X571527Y309975D01*
X571300Y309350*
Y308412*
X571300D02*
X571527Y307787D01*
X571527D02*
X571982Y307162D01*
X571982D02*
X572664Y306850D01*
X573573Y306537*
X573573D02*
X574027Y306225D01*
X574255Y305600*
Y304975*
X574027Y304350*
X573345Y304037*
X573345D02*
X572436D01*
X579709D02*
X577436Y310600D01*
X576527Y304037D02*
X579709D01*
X581755Y307787D02*
X585845D01*
X587891Y305287D02*
X588345Y304975D01*
X589027Y304037*
X589027D02*
Y310600D01*
X592436Y304037D02*
X591755Y304350D01*
X591300Y305287*
X591300D02*
X591073Y306850D01*
Y307787*
X591073D02*
X591300Y309350D01*
X591755Y310287*
X591755D02*
X592436Y310600D01*
X592891*
X593573Y310287*
X593573D02*
X594027Y309350D01*
X594255Y307787*
X594255D02*
Y306850D01*
X594027Y305287*
X594027D02*
X593573Y304350D01*
X592891Y304037*
X592891D02*
X592436D01*
X596300Y307787D02*
X600391D01*
X602664Y305600D02*
Y305287D01*
X602664D02*
X602891Y304662D01*
X602891D02*
X603118Y304350D01*
X603573Y304037*
X603573D02*
X604482D01*
X604482D02*
X604936Y304350D01*
X605164Y304662*
X605164D02*
X605391Y305287D01*
X605391D02*
Y305912D01*
X605391D02*
X605164Y306537D01*
X605164D02*
X604709Y307475D01*
X602436Y310600*
X605618*
X610391Y304975D02*
X610164Y304350D01*
X609482Y304037*
X609482D02*
X609027D01*
X609027D02*
X608345Y304350D01*
X607891Y305287*
X607891D02*
X607664Y306850D01*
Y308412*
X607664D02*
X607891Y309662D01*
X607891D02*
X608345Y310287D01*
X608345D02*
X609027Y310600D01*
X609255*
X609936Y310287*
X609936D02*
X610391Y309662D01*
X610391D02*
X610618Y308725D01*
Y308412*
X610618D02*
X610391Y307475D01*
X609936Y306850*
X609255Y306537*
X609255D02*
X609027D01*
X609027D02*
X608345Y306850D01*
X607891Y307475*
X607664Y308412*
G54D25*
X280012Y257594D03*
X330012D03*
X508712Y320294D03*
Y270294D03*
X428312Y385494D03*
Y335494D03*
X571412Y350694D03*
X621412D03*
X378112Y320294D03*
Y270294D03*
G54D26*
X511212Y383194D03*
X521212D03*
X531212D03*
G54D27*
X332612Y158194D03*
X160612Y123094D03*
G54D28*
X332612Y168194D03*
Y178194D03*
Y188194D03*
Y198194D03*
Y208194D03*
Y218194D03*
Y228194D03*
Y238194D03*
X160612Y133094D03*
Y143094D03*
Y153094D03*
Y163094D03*
Y173094D03*
Y183094D03*
Y193094D03*
Y203094D03*
Y213094D03*
Y223094D03*
Y233094D03*
Y243094D03*
Y253094D03*
G54D29*
X350346Y387759D03*
X345000Y347500D03*
G54D36*
X615301Y378258D03*
X615562Y121334D03*
X120883Y121056D03*
X121011Y377932D03*
X0Y0D02*
M02*
