%
T1C.02362F197S55
X01325Y02325
X015Y0145
X021431Y022709
X021431Y013459
X0215Y0115
X027931Y018709
X027931Y017959
X034Y0235
X03925Y02175
X045681Y023459
X03625Y0265
X03225Y0285
X023681Y026959
X022931Y025709
X02075Y03125
X017Y03025
X0165Y029
X0165Y031
X01525Y029
X01475Y02625
X0155Y0335
X0155Y03575
X0155Y0365
X01625Y0355
X01675Y033
X017Y0355
X02325Y03725
X02525Y03725
T2C.035F197S55
X018731Y013729
X018731Y012729
X018731Y011729
X018731Y015729
X018731Y014729
X024731Y013729
X024731Y014729
X024731Y015729
X024731Y011729
X024731Y012729
X029771Y012959
X029771Y011459
X034771Y012959
X034771Y011459
X035771Y015229
X037041Y015229
X038031Y012459
X038031Y013959
X038531Y016239
X040061Y015239
X041311Y015239
X042811Y016239
X043031Y013959
X043031Y012459
X044311Y012209
X044311Y015489
X044311Y014209
X045561Y015489
X047061Y015239
X047061Y014239
X047061Y013239
X047061Y016239
X050061Y015239
X050061Y013239
X050061Y014239
X050061Y016239
X051091Y012459
X051091Y013989
X051341Y015489
X056091Y012459
X056091Y013989
X054371Y017999
X054371Y020999
X053371Y017999
X053371Y020999
X051341Y020489
X050061Y017239
X050061Y018239
X050061Y019239
X047061Y019239
X047061Y017239
X047061Y018239
X045561Y020489
X044311Y020489
X042811Y019239
X041311Y020239
X040061Y020239
X038531Y019239
X037041Y020229
X035771Y020229
X031521Y018719
X031521Y019719
X031521Y020719
X024731Y018729
X024731Y019729
X024731Y017729
X024731Y016729
X024731Y020729
X018731Y018729
X018731Y020729
X018731Y019729
X018731Y017729
X018731Y016729
X018731Y023729
X018731Y022729
X018731Y021729
X018731Y025729
X018731Y024729
X024731Y021729
X024731Y022729
X024731Y023729
X024731Y024729
X024731Y025729
X026251Y026009
X031521Y021719
X031521Y022719
X031521Y023719
X035791Y022499
X035791Y025499
X037541Y022499
X037541Y025499
X043311Y022019
X043311Y025019
X044311Y025019
X044311Y022019
X045311Y022019
X045311Y025019
X046311Y022019
X046311Y025019
X047311Y025019
X047311Y022019
X048311Y025019
X048311Y022019
X049311Y022019
X049311Y025019
X053371Y026029
X053371Y023029
X054371Y023029
X054371Y026029
X055101Y028779
X052101Y028779
X049601Y027029
X048581Y027529
X048581Y028529
X045581Y027529
X045581Y028529
X044581Y027029
X043351Y027029
X042081Y027029
X040561Y027279
X039061Y027029
X036291Y028799
X033291Y028799
X033001Y027009
X028001Y027009
X026251Y027009
X026251Y028769
X024731Y026729
X024731Y027729
X024731Y028729
X018731Y027729
X018731Y028729
X018731Y026729
X018271Y032799
X018731Y029729
X018731Y030729
X019271Y032799
X020271Y032799
X021271Y032799
X022271Y032799
X023271Y032799
X024271Y032799
X024731Y030729
X024731Y029729
X025271Y032799
X026251Y030769
X026271Y032799
X027271Y032799
X028271Y032799
X029271Y032799
X030271Y032799
X031271Y032799
X033291Y031799
X033291Y033549
X033291Y030799
X033291Y029799
X036291Y029799
X036291Y030799
X036291Y031799
X038291Y033549
X039061Y032029
X039583Y033545
X040315Y03077
X040315Y03177
X040561Y029279
X041065Y03127
X041331Y033549
X042081Y032029
X043351Y032029
X044581Y032029
X044831Y033549
X045581Y030529
X045581Y029529
X045831Y033549
X046061Y032339
X048061Y032339
X048581Y030529
X048581Y029529
X049601Y032029
X052101Y030779
X055101Y030779
X056121Y038319
X055121Y038319
X053891Y034319
X053891Y036319
X049371Y036299
X049371Y034299
X049371Y038569
X045831Y036549
X044831Y036549
X044371Y038569
X041331Y038549
X039583Y038545
X036541Y035819
X036541Y037819
X033531Y035799
X033531Y037799
X031271Y038799
X030271Y038799
X029271Y038799
X028271Y038799
X027271Y038799
X026271Y038799
X025271Y038799
X024271Y038799
X023271Y038799
X022271Y038799
X021271Y038799
X020271Y038799
X019271Y038799
X018271Y038799
T3C.03543F197S55
X011181Y015959
X011181Y014959
X011181Y017959
X011181Y016959
X014181Y014959
X014181Y015959
X014181Y016959
X014181Y017959
X027241Y015989
X027241Y014989
X027241Y017989
X027241Y016989
X030241Y016989
X030241Y017989
X030241Y014989
X030241Y015989
X030241Y018989
X030241Y019989
X030241Y020989
X030241Y021989
X030241Y022989
X027241Y020989
X027241Y019989
X027241Y018989
X027241Y022989
X027241Y021989
X014181Y021959
X014181Y018959
X014181Y019959
X014181Y020959
X011181Y019959
X011181Y021959
X011181Y018959
X011181Y020959
X011181Y025759
X011181Y024759
X011181Y026759
X011181Y027759
X011181Y028759
X014181Y025759
X014181Y027759
X014181Y028759
X014181Y026759
X014181Y024759
X027241Y023989
X030241Y023989
X014181Y029759
X014181Y030759
X014181Y032759
X014181Y033759
X014181Y031759
X011181Y033759
X011181Y032759
X011181Y029759
X011181Y030759
X011181Y031759
T4C.03937F197S55
X0345Y03475
X035035Y038776
X051121Y038319
X052121Y038319
X053121Y038319
T5C.04331F139S55
X016061Y012309
X016061Y013309
X016061Y014309
X016061Y015309
X016061Y016309
X016061Y017309
X016061Y018309
X033261Y016819
X033261Y018819
X033261Y015819
X033261Y017819
X033261Y019819
X033261Y020819
X033261Y023819
X033261Y021819
X033261Y022819
X016061Y019309
X016061Y020309
X016061Y021309
X016061Y022309
X016061Y023309
X016061Y024309
X016061Y025309
T6C.05118F107S55
X028001Y025759
X033001Y025759
X037811Y027029
X050871Y027029
X062141Y035069
X057141Y035069
X050871Y032029
X042831Y033549
X042831Y038549
X037811Y032029
T7C.0748F081S55
X060393Y02829
X060393Y033605
T8C.11811F069S658
X015581Y037809
X027691Y012129
X058031Y012129
X058061Y037839
T9C.34646F0S0
X012088Y012106
X012101Y037793
X06153Y037826
X061556Y012133
M30
