*
*
G04 PADS Layout (Build Number 2007.42.1) generated Gerber (RS-274-X) file*
G04 PC Version=2.1*
*
%IN "ms4c.pcb"*%
*
%MOIN*%
*
%FSLAX35Y35*%
*
*
*
*
G04 PC Standard Apertures*
*
*
G04 Thermal Relief Aperture macro.*
%AMTER*
1,1,$1,0,0*
1,0,$1-$2,0,0*
21,0,$3,$4,0,0,45*
21,0,$3,$4,0,0,135*
%
*
*
G04 Annular Aperture macro.*
%AMANN*
1,1,$1,0,0*
1,0,$2,0,0*
%
*
*
G04 Odd Aperture macro.*
%AMODD*
1,1,$1,0,0*
1,0,$1-0.005,0,0*
%
*
*
G04 PC Custom Aperture Macros*
*
*
*
*
*
*
G04 PC Aperture Table*
*
%ADD018C,0.001*%
%ADD023C,0.01*%
%ADD024C,0.005*%
%ADD035C,0.00787*%
*
*
*
*
G04 PC Copper Outlines (0)*
G04 Layer Name ms4c.pcb - dark (0)*
%LPD*%
*
*
G04 PC Area=Custom_Thermal*
*
G04 PC Custom Flashes*
G04 Layer Name ms4c.pcb - flashes*
%LPD*%
*
*
G04 PC Circuitry*
G04 Layer Name ms4c.pcb - circuitry*
%LPD*%
*
G54D18*
G01X396078Y340355D02*
G75*
G03X396078I-250J0D01*
G01X586244Y121252D02*
G03X586244I-5905J0D01*
G01X586559Y378378D02*
G03X586559I-5905J0D01*
G01X161677Y378141D02*
G03X161677I-5905J0D01*
G01X282819Y121291D02*
G03X282819I-5905J0D01*
G54D23*
G01X460812Y310294D02*
X469562D01*
Y307794*
X472062*
Y310294*
X480812*
Y270294*
X460812*
Y310294*
X136812Y242594D02*
X128062D01*
Y248844*
X125562*
Y242594*
X116812*
Y342594*
X136812*
Y242594*
X116812Y224594D02*
X125562D01*
Y219594*
X128062*
Y224594*
X136812*
Y144594*
X116812*
Y224594*
X428112Y225194D02*
Y233944D01*
X432487*
Y236444*
X428112*
Y245194*
X498112*
Y225194*
X428112*
X242312Y112294D02*
X220437D01*
Y124794*
X214187*
Y112294*
X192312*
Y312294*
X242312*
Y112294*
X475612Y197394D02*
X484362D01*
Y193019*
X486862*
Y197394*
X495612*
Y127394*
X475612*
Y197394*
X297412Y144894D02*
X288662D01*
Y151144*
X286162*
Y144894*
X277412*
Y244894*
X297412*
Y144894*
X302712Y119594D02*
X342712D01*
Y109594*
X302712*
Y119594*
Y134594D02*
X342712D01*
Y124594*
X302712*
Y134594*
X385312Y129594D02*
X425312D01*
Y119594*
X385312*
Y129594*
Y144594D02*
X425312D01*
Y134594*
X385312*
Y144594*
X352712Y157294D02*
Y197294D01*
X362712*
Y157294*
X352712*
X365412D02*
Y197294D01*
X375412*
Y157294*
X365412*
X395612Y157394D02*
Y197394D01*
X405612*
Y157394*
X395612*
X408112D02*
Y197394D01*
X418112*
Y157394*
X408112*
X438112Y159894D02*
Y199894D01*
X448112*
Y159894*
X438112*
X450612D02*
Y199894D01*
X460612*
Y159894*
X450612*
X515912Y129594D02*
X555912D01*
Y119594*
X515912*
Y129594*
Y144894D02*
X555912D01*
Y134894*
X515912*
Y144894*
X508412Y159894D02*
Y199894D01*
X518412*
Y159894*
X508412*
X285012Y275094D02*
X325012D01*
Y265094*
X285012*
Y275094*
X337912Y322994D02*
X346662D01*
Y320494*
X349162*
Y322994*
X357912*
Y282994*
X337912*
Y322994*
X385612Y275294D02*
Y315294D01*
X395612*
Y275294*
X385612*
X415812D02*
Y315294D01*
X425812*
Y275294*
X415812*
X428512D02*
Y315294D01*
X438512*
Y275294*
X428512*
X440812D02*
Y315294D01*
X450812*
Y275294*
X440812*
X491012D02*
Y315294D01*
X501012*
Y275294*
X491012*
X408312Y340494D02*
Y380494D01*
X418312*
Y340494*
X408312*
X448712Y390694D02*
X488712D01*
Y380694*
X448712*
Y390694*
X528712Y184994D02*
Y193744D01*
X529962*
Y196244*
X528712*
Y204994*
X548712*
Y184994*
X528712*
Y235294D02*
Y244044D01*
X529962*
Y246544*
X528712*
Y255294*
X548712*
Y235294*
X528712*
X443312Y340494D02*
Y349244D01*
X444562*
Y351744*
X443312*
Y360494*
X463312*
Y340494*
X443312*
X337912D02*
X377912D01*
Y330494*
X337912*
Y340494*
X380412Y368194D02*
G03X380412I-15000J0D01*
G01X508712Y352994D02*
G03X508712I-15000J0D01*
G01X553912Y353194D02*
G03X553912I-15000J0D01*
G01X352912Y229994D02*
Y249994D01*
X362912*
Y229994*
X352912*
X370412D02*
Y249994D01*
X380412*
Y229994*
X370412*
X380312Y167394D02*
Y187394D01*
X390312*
Y167394*
X380312*
X423112D02*
Y187394D01*
X433112*
Y167394*
X423112*
X449112Y118094D02*
Y146094D01*
X437112*
Y118094*
X449112*
X341312Y353994D02*
Y381994D01*
X329312*
Y353994*
X341312*
X484612Y329394D02*
X456612D01*
Y317394*
X484612*
Y329394*
X268512Y283694D02*
Y311694D01*
X256512*
Y283694*
X268512*
X566112Y383194D02*
G03X566112I-9900J0D01*
G01X272412Y265094D02*
G03X272412I-9900J0D01*
G01X526012Y312794D02*
X546012D01*
Y282794*
X526012*
Y312794*
X300512Y255094D02*
Y260094D01*
X306012Y260594D02*
X301012Y257594D01*
X306012Y254594*
Y260594*
X300012Y257594D02*
X290012D01*
X306012D02*
X321012D01*
X506212Y299794D02*
X511212D01*
X511712Y294294D02*
X508712Y299294D01*
X505712Y294294*
X511712*
X508712Y300294D02*
Y310294D01*
Y294294D02*
Y279294D01*
X425812Y364994D02*
X430812D01*
X431312Y359494D02*
X428312Y364494D01*
X425312Y359494*
X431312*
X428312Y365494D02*
Y375494D01*
Y359494D02*
Y344494D01*
X507212Y379194D02*
X535212D01*
Y387194*
X507212*
Y379194*
X327612Y153194D02*
X337612D01*
Y243194*
X327612*
Y153194*
X591912Y348194D02*
Y353194D01*
X597412Y353694D02*
X592412Y350694D01*
X597412Y347694*
Y353694*
X591412Y350694D02*
X581412D01*
X597412D02*
X612412D01*
X177712Y332994D02*
Y354869D01*
X186462*
Y361119*
X177712*
Y382994*
X317712*
Y332994*
X177712*
X311212Y183194D02*
X319212D01*
Y241194*
X311212*
Y183194*
X375612Y299794D02*
X380612D01*
X381112Y294294D02*
X378112Y299294D01*
X375112Y294294*
X381112*
X378112Y300294D02*
Y310294D01*
Y294294D02*
Y279294D01*
X411612Y268794D02*
Y296794D01*
X399612*
Y268794*
X411612*
X155612Y118094D02*
X165612D01*
Y258094*
X155612*
Y118094*
X398195Y306036D02*
G03X412555Y312733I5618J6697D01*
G01X398192Y319427D02*
Y306038D01*
X412555Y312733D02*
G03X398195Y319429I-8742J-0D01*
G01X395828Y335555D02*
X395843Y344955D01*
X395845D02*
G03X400828Y349955I-17J5000D01*
X397231Y354754I-5000J-0*
G01Y354756D02*
G03X400828Y359555I-1403J4799D01*
X397231Y364354I-5000J-0*
G01Y364356D02*
G03X400828Y369155I-1403J4799D01*
G01X395892Y374155D02*
X395912Y385573D01*
X400828Y369155D02*
G03X395889Y374155I-5000J-0D01*
G01X388228Y380455D02*
X403228D01*
Y340455*
X388228*
Y380455*
X100221Y399677D02*
X635575D01*
X100221D02*
Y100700D01*
X635575Y399677D02*
Y100700D01*
X100221*
G54D24*
X470812Y293575D02*
Y290294D01*
X473539Y292794D02*
X473426Y293106D01*
X473199Y293419*
X472971Y293575*
X472517*
X472289Y293419*
X472062Y293106*
X471949Y292794*
X471835Y292325*
Y291544*
X471949Y291075*
X472062Y290762*
X472289Y290450*
X472517Y290294*
X472971*
X473199Y290450*
X473426Y290762*
X473539Y291075*
X476039Y292481D02*
X475926Y292012D01*
X475699Y291700*
X475358Y291544*
X475244*
X474903Y291700*
X474676Y292012*
X474562Y292481*
Y292637*
X474676Y293106*
X474903Y293419*
X475244Y293575*
X475358*
X475699Y293419*
X475926Y293106*
X476039Y292481*
Y291700*
X475926Y290919*
X475699Y290450*
X475358Y290294*
X475130*
X474789Y290450*
X474676Y290762*
X130859Y282155D02*
Y287322D01*
X126564Y283385D02*
X126743Y282893D01*
X127101Y282401*
X127459Y282155*
X128175*
X128533Y282401*
X128891Y282893*
X129070Y283385*
X129249Y284123*
Y285354*
X129070Y286092*
X128891Y286584*
X128533Y287076*
X128175Y287322*
X127459*
X127101Y287076*
X126743Y286584*
X126564Y286092*
X124596Y282155D02*
X122627D01*
X123701Y284123*
X123164*
X122806Y284369*
X122627Y284615*
X122448Y285354*
Y285846*
X122627Y286584*
X122985Y287076*
X123522Y287322*
X124059*
X124596Y287076*
X124775Y286830*
X124954Y286338*
X122365Y186362D02*
Y181768D01*
X126183Y185268D02*
X126024Y185706D01*
X125706Y186143*
X125388Y186362*
X124752*
X124433Y186143*
X124115Y185706*
X123956Y185268*
X123797Y184612*
Y183518*
X123956Y182862*
X124115Y182425*
X124433Y181987*
X124752Y181768*
X125388*
X125706Y181987*
X126024Y182425*
X126183Y182862*
X129524Y185706D02*
X129365Y186143D01*
X128888Y186362*
X128570*
X128092Y186143*
X127774Y185487*
X127615Y184393*
Y183300*
X127774Y182425*
X128092Y181987*
X128570Y181768*
X128729*
X129206Y181987*
X129524Y182425*
X129683Y183081*
Y183300*
X129524Y183956*
X129206Y184393*
X128729Y184612*
X128570*
X128092Y184393*
X127774Y183956*
X127615Y183300*
X459831Y235194D02*
X463112D01*
X460612Y237921D02*
X460300Y237807D01*
X459987Y237580*
X459831Y237353*
Y236898*
X459987Y236671*
X460300Y236444*
X460612Y236330*
X461081Y236216*
X461862*
X462331Y236330*
X462643Y236444*
X462956Y236671*
X463112Y236898*
Y237353*
X462956Y237580*
X462643Y237807*
X462331Y237921*
X459831Y240535D02*
X463112Y239398D01*
X459831Y238944D02*
Y240535D01*
X217312Y209012D02*
Y212294D01*
X214585Y209794D02*
X214699Y209481D01*
X214926Y209169*
X215153Y209012*
X215608*
X215835Y209169*
X216062Y209481*
X216176Y209794*
X216289Y210262*
Y211044*
X216176Y211512*
X216062Y211825*
X215835Y212137*
X215608Y212294*
X215153*
X214926Y212137*
X214699Y211825*
X214585Y211512*
X213562Y209637D02*
X213335Y209481D01*
X212994Y209012*
Y212294*
X485612Y165675D02*
Y162394D01*
X488339Y164894D02*
X488226Y165206D01*
X487999Y165519*
X487771Y165675*
X487317*
X487089Y165519*
X486862Y165206*
X486749Y164894*
X486635Y164425*
Y163644*
X486749Y163175*
X486862Y162862*
X487089Y162550*
X487317Y162394*
X487771*
X487999Y162550*
X488226Y162862*
X488339Y163175*
X489930Y165675D02*
X489589Y165519D01*
X489476Y165206*
Y164894*
X489589Y164581*
X489817Y164425*
X490271Y164269*
X490612Y164112*
X490839Y163800*
X490953Y163487*
Y163019*
X490839Y162706*
X490726Y162550*
X490385Y162394*
X489930*
X489589Y162550*
X489476Y162706*
X489362Y163019*
Y163487*
X489476Y163800*
X489703Y164112*
X490044Y164269*
X490499Y164425*
X490726Y164581*
X490839Y164894*
Y165206*
X490726Y165519*
X490385Y165675*
X489930*
X291459Y184455D02*
Y189622D01*
X287164Y185685D02*
X287343Y185193D01*
X287701Y184701*
X288059Y184455*
X288775*
X289133Y184701*
X289491Y185193*
X289670Y185685*
X289849Y186423*
Y187654*
X289670Y188392*
X289491Y188884*
X289133Y189376*
X288775Y189622*
X288059*
X287701Y189376*
X287343Y188884*
X287164Y188392*
X283227Y184455D02*
X285017D01*
X285196Y186669*
X285017Y186423*
X284480Y186177*
X283943*
X283406Y186423*
X283048Y186915*
X282869Y187654*
X283048Y188146*
X283227Y188884*
X283585Y189376*
X284122Y189622*
X284659*
X285196Y189376*
X285375Y189130*
X285554Y188638*
X318341Y116912D02*
Y112318D01*
Y116912D02*
X319772D01*
X320250Y116693*
X320409Y116474*
X320568Y116037*
Y115599*
X320409Y115162*
X320250Y114943*
X319772Y114724*
X318341*
X319454D02*
X320568Y112318D01*
X322159Y115818D02*
Y116037D01*
X322318Y116474*
X322477Y116693*
X322795Y116912*
X323431*
X323750Y116693*
X323909Y116474*
X324068Y116037*
Y115599*
X323909Y115162*
X323591Y114505*
X322000Y112318*
X324227*
X325659Y116037D02*
X325977Y116255D01*
X326454Y116912*
Y112318*
X318341Y131912D02*
Y127318D01*
Y131912D02*
X319772D01*
X320250Y131693*
X320409Y131474*
X320568Y131037*
Y130599*
X320409Y130162*
X320250Y129943*
X319772Y129724*
X318341*
X319454D02*
X320568Y127318D01*
X322159Y130818D02*
Y131037D01*
X322318Y131474*
X322477Y131693*
X322795Y131912*
X323431*
X323750Y131693*
X323909Y131474*
X324068Y131037*
Y130599*
X323909Y130162*
X323591Y129505*
X322000Y127318*
X324227*
X326613Y131912D02*
X326136Y131693D01*
X325818Y131037*
X325659Y129943*
Y129287*
X325818Y128193*
X326136Y127537*
X326613Y127318*
X326931*
X327409Y127537*
X327727Y128193*
X327886Y129287*
Y129943*
X327727Y131037*
X327409Y131693*
X326931Y131912*
X326613*
X400941Y126912D02*
Y122318D01*
Y126912D02*
X402372D01*
X402850Y126693*
X403009Y126474*
X403168Y126037*
Y125599*
X403009Y125162*
X402850Y124943*
X402372Y124724*
X400941*
X402054D02*
X403168Y122318D01*
X404600Y126037D02*
X404918Y126255D01*
X405395Y126912*
Y122318*
X408418Y126912D02*
X406827Y123849D01*
X409213*
X408418Y126912D02*
Y122318D01*
X400941Y141912D02*
Y137318D01*
Y141912D02*
X402372D01*
X402850Y141693*
X403009Y141474*
X403168Y141037*
Y140599*
X403009Y140162*
X402850Y139943*
X402372Y139724*
X400941*
X402054D02*
X403168Y137318D01*
X404600Y141037D02*
X404918Y141255D01*
X405395Y141912*
Y137318*
X408736Y141255D02*
X408577Y141693D01*
X408100Y141912*
X407781*
X407304Y141693*
X406986Y141037*
X406827Y139943*
Y138849*
X406986Y137974*
X407304Y137537*
X407781Y137318*
X407941*
X408418Y137537*
X408736Y137974*
X408895Y138630*
Y138849*
X408736Y139505*
X408418Y139943*
X407941Y140162*
X407781*
X407304Y139943*
X406986Y139505*
X406827Y138849*
X355394Y172922D02*
X359988D01*
X355394D02*
Y174354D01*
X355613Y174831*
X355832Y174990*
X356269Y175149*
X356707*
X357144Y174990*
X357363Y174831*
X357582Y174354*
Y172922*
Y174036D02*
X359988Y175149D01*
X356269Y176581D02*
X356050Y176899D01*
X355394Y177377*
X359988*
X355394Y179763D02*
X355613Y179286D01*
X356269Y178967*
X357363Y178808*
X358019*
X359113Y178967*
X359769Y179286*
X359988Y179763*
Y180081*
X359769Y180558*
X359113Y180877*
X358019Y181036*
X357363*
X356269Y180877*
X355613Y180558*
X355394Y180081*
Y179763*
X368094Y172922D02*
X372688D01*
X368094D02*
Y174354D01*
X368313Y174831*
X368532Y174990*
X368969Y175149*
X369407*
X369844Y174990*
X370063Y174831*
X370282Y174354*
Y172922*
Y174036D02*
X372688Y175149D01*
X369625Y178649D02*
X370282Y178490D01*
X370719Y178172*
X370938Y177695*
Y177536*
X370719Y177058*
X370282Y176740*
X369625Y176581*
X369407*
X368750Y176740*
X368313Y177058*
X368094Y177536*
Y177695*
X368313Y178172*
X368750Y178490*
X369625Y178649*
X370719*
X371813Y178490*
X372469Y178172*
X372688Y177695*
Y177377*
X372469Y176899*
X372032Y176740*
X398294Y173022D02*
X402888D01*
X398294D02*
Y174454D01*
X398513Y174931*
X398732Y175090*
X399169Y175249*
X399607*
X400044Y175090*
X400263Y174931*
X400482Y174454*
Y173022*
Y174136D02*
X402888Y175249D01*
X399169Y176681D02*
X398950Y176999D01*
X398294Y177477*
X402888*
X398294Y179227D02*
Y180977D01*
X400044Y180022*
Y180499*
X400263Y180817*
X400482Y180977*
X401138Y181136*
X401575*
X402232Y180977*
X402669Y180658*
X402888Y180181*
Y179704*
X402669Y179227*
X402450Y179067*
X402013Y178908*
X410794Y173022D02*
X415388D01*
X410794D02*
Y174454D01*
X411013Y174931*
X411232Y175090*
X411669Y175249*
X412107*
X412544Y175090*
X412763Y174931*
X412982Y174454*
Y173022*
Y174136D02*
X415388Y175249D01*
X411669Y176681D02*
X411450Y176999D01*
X410794Y177477*
X415388*
X410794Y180977D02*
Y179386D01*
X412763Y179227*
X412544Y179386*
X412325Y179863*
Y180340*
X412544Y180817*
X412982Y181136*
X413638Y181295*
X414075Y181136*
X414732Y180977*
X415169Y180658*
X415388Y180181*
Y179704*
X415169Y179227*
X414950Y179067*
X414513Y178908*
X440794Y175522D02*
X445388D01*
X440794D02*
Y176954D01*
X441013Y177431*
X441232Y177590*
X441669Y177749*
X442107*
X442544Y177590*
X442763Y177431*
X442982Y176954*
Y175522*
Y176636D02*
X445388Y177749D01*
X441669Y179181D02*
X441450Y179499D01*
X440794Y179977*
X445388*
X440794Y183636D02*
X445388Y182045D01*
X440794Y181408D02*
Y183636D01*
X453294Y175522D02*
X457888D01*
X453294D02*
Y176954D01*
X453513Y177431*
X453732Y177590*
X454169Y177749*
X454607*
X455044Y177590*
X455263Y177431*
X455482Y176954*
Y175522*
Y176636D02*
X457888Y177749D01*
X454169Y179181D02*
X453950Y179499D01*
X453294Y179977*
X457888*
X453294Y182204D02*
X453513Y181727D01*
X453950Y181567*
X454388*
X454825Y181727*
X455044Y182045*
X455263Y182681*
X455482Y183158*
X455919Y183477*
X456357Y183636*
X457013*
X457450Y183477*
X457669Y183317*
X457888Y182840*
Y182204*
X457669Y181727*
X457450Y181567*
X457013Y181408*
X456357*
X455919Y181567*
X455482Y181886*
X455263Y182363*
X455044Y182999*
X454825Y183317*
X454388Y183477*
X453950*
X453513Y183317*
X453294Y182840*
Y182204*
X531541Y126912D02*
Y122318D01*
Y126912D02*
X532972D01*
X533450Y126693*
X533609Y126474*
X533768Y126037*
Y125599*
X533609Y125162*
X533450Y124943*
X532972Y124724*
X531541*
X532654D02*
X533768Y122318D01*
X535200Y126037D02*
X535518Y126255D01*
X535995Y126912*
Y122318*
X537586Y125818D02*
Y126037D01*
X537745Y126474*
X537904Y126693*
X538222Y126912*
X538859*
X539177Y126693*
X539336Y126474*
X539495Y126037*
Y125599*
X539336Y125162*
X539018Y124505*
X537427Y122318*
X539654*
X531541Y142212D02*
Y137618D01*
Y142212D02*
X532972D01*
X533450Y141993*
X533609Y141774*
X533768Y141337*
Y140899*
X533609Y140462*
X533450Y140243*
X532972Y140024*
X531541*
X532654D02*
X533768Y137618D01*
X535200Y141337D02*
X535518Y141555D01*
X535995Y142212*
Y137618*
X537427Y141337D02*
X537745Y141555D01*
X538222Y142212*
Y137618*
X511094Y175522D02*
X515688D01*
X511094D02*
Y176954D01*
X511313Y177431*
X511532Y177590*
X511969Y177749*
X512407*
X512844Y177590*
X513063Y177431*
X513282Y176954*
Y175522*
Y176636D02*
X515688Y177749D01*
X511969Y179181D02*
X511750Y179499D01*
X511094Y179977*
X515688*
X512625Y183477D02*
X513282Y183317D01*
X513719Y182999*
X513938Y182522*
Y182363*
X513719Y181886*
X513282Y181567*
X512625Y181408*
X512407*
X511750Y181567*
X511313Y181886*
X511094Y182363*
Y182522*
X511313Y182999*
X511750Y183317*
X512625Y183477*
X513719*
X514813Y183317*
X515469Y182999*
X515688Y182522*
Y182204*
X515469Y181727*
X515032Y181567*
X300641Y272412D02*
Y267818D01*
Y272412D02*
X302072D01*
X302550Y272193*
X302709Y271974*
X302868Y271537*
Y271099*
X302709Y270662*
X302550Y270443*
X302072Y270224*
X300641*
X301754D02*
X302868Y267818D01*
X304459Y271318D02*
Y271537D01*
X304618Y271974*
X304777Y272193*
X305095Y272412*
X305731*
X306050Y272193*
X306209Y271974*
X306368Y271537*
Y271099*
X306209Y270662*
X305891Y270005*
X304300Y267818*
X306527*
X308277Y272412D02*
X310027D01*
X309072Y270662*
X309550*
X309868Y270443*
X310027Y270224*
X310186Y269568*
Y269130*
X310027Y268474*
X309709Y268037*
X309231Y267818*
X308754*
X308277Y268037*
X308118Y268255*
X307959Y268693*
X347912Y306275D02*
Y302994D01*
X350639Y305494D02*
X350526Y305806D01*
X350299Y306119*
X350071Y306275*
X349617*
X349389Y306119*
X349162Y305806*
X349049Y305494*
X348935Y305025*
Y304244*
X349049Y303775*
X349162Y303462*
X349389Y303150*
X349617Y302994*
X350071*
X350299Y303150*
X350526Y303462*
X350639Y303775*
X352799Y306275D02*
X351662Y304087D01*
X353367*
X352799Y306275D02*
Y302994D01*
X388294Y290922D02*
X392888D01*
X388294D02*
Y292354D01*
X388513Y292831*
X388732Y292990*
X389169Y293149*
X389607*
X390044Y292990*
X390263Y292831*
X390482Y292354*
Y290922*
Y292036D02*
X392888Y293149D01*
X388294Y295377D02*
X388513Y294899D01*
X388950Y294740*
X389388*
X389825Y294899*
X390044Y295217*
X390263Y295854*
X390482Y296331*
X390919Y296649*
X391357Y296808*
X392013*
X392450Y296649*
X392669Y296490*
X392888Y296013*
Y295377*
X392669Y294899*
X392450Y294740*
X392013Y294581*
X391357*
X390919Y294740*
X390482Y295058*
X390263Y295536*
X390044Y296172*
X389825Y296490*
X389388Y296649*
X388950*
X388513Y296490*
X388294Y296013*
Y295377*
X418494Y290922D02*
X423088D01*
X418494D02*
Y292354D01*
X418713Y292831*
X418932Y292990*
X419369Y293149*
X419807*
X420244Y292990*
X420463Y292831*
X420682Y292354*
Y290922*
Y292036D02*
X423088Y293149D01*
X419150Y296490D02*
X418713Y296331D01*
X418494Y295854*
Y295536*
X418713Y295058*
X419369Y294740*
X420463Y294581*
X421557*
X422432Y294740*
X422869Y295058*
X423088Y295536*
Y295695*
X422869Y296172*
X422432Y296490*
X421775Y296649*
X421557*
X420900Y296490*
X420463Y296172*
X420244Y295695*
Y295536*
X420463Y295058*
X420900Y294740*
X421557Y294581*
X431194Y290922D02*
X435788D01*
X431194D02*
Y292354D01*
X431413Y292831*
X431632Y292990*
X432069Y293149*
X432507*
X432944Y292990*
X433163Y292831*
X433382Y292354*
Y290922*
Y292036D02*
X435788Y293149D01*
X431194Y294899D02*
Y296649D01*
X432944Y295695*
Y296172*
X433163Y296490*
X433382Y296649*
X434038Y296808*
X434475*
X435132Y296649*
X435569Y296331*
X435788Y295854*
Y295377*
X435569Y294899*
X435350Y294740*
X434913Y294581*
X443494Y290922D02*
X448088D01*
X443494D02*
Y292354D01*
X443713Y292831*
X443932Y292990*
X444369Y293149*
X444807*
X445244Y292990*
X445463Y292831*
X445682Y292354*
Y290922*
Y292036D02*
X448088Y293149D01*
X443494Y296172D02*
X446557Y294581D01*
Y296967*
X443494Y296172D02*
X448088D01*
X493694Y290922D02*
X498288D01*
X493694D02*
Y292354D01*
X493913Y292831*
X494132Y292990*
X494569Y293149*
X495007*
X495444Y292990*
X495663Y292831*
X495882Y292354*
Y290922*
Y292036D02*
X498288Y293149D01*
X494788Y294740D02*
X494569D01*
X494132Y294899*
X493913Y295058*
X493694Y295377*
Y296013*
X493913Y296331*
X494132Y296490*
X494569Y296649*
X495007*
X495444Y296490*
X496100Y296172*
X498288Y294581*
Y296808*
X410994Y356122D02*
X415588D01*
X410994D02*
Y357554D01*
X411213Y358031*
X411432Y358190*
X411869Y358349*
X412307*
X412744Y358190*
X412963Y358031*
X413182Y357554*
Y356122*
Y357236D02*
X415588Y358349D01*
X410994Y361849D02*
Y360258D01*
X412963Y360099*
X412744Y360258*
X412525Y360736*
Y361213*
X412744Y361690*
X413182Y362008*
X413838Y362167*
X414275Y362008*
X414932Y361849*
X415369Y361531*
X415588Y361054*
Y360577*
X415369Y360099*
X415150Y359940*
X414713Y359781*
X464341Y388012D02*
Y383418D01*
Y388012D02*
X465772D01*
X466250Y387793*
X466409Y387574*
X466568Y387137*
Y386699*
X466409Y386262*
X466250Y386043*
X465772Y385824*
X464341*
X465454D02*
X466568Y383418D01*
X468000Y387137D02*
X468318Y387355D01*
X468795Y388012*
Y383418*
X534121Y193455D02*
X538714D01*
X534121Y192341D02*
Y194569D01*
Y196319D02*
Y198069D01*
X535871Y197114*
Y197591*
X536089Y197909*
X536308Y198069*
X536964Y198228*
X537402*
X538058Y198069*
X538496Y197750*
X538714Y197273*
Y196796*
X538496Y196319*
X538277Y196159*
X537839Y196000*
X534121Y243755D02*
X538714D01*
X534121Y242641D02*
Y244869D01*
Y247891D02*
X537183Y246300D01*
Y248687*
X534121Y247891D02*
X538714D01*
X448721Y348955D02*
X453314D01*
X448721Y347841D02*
Y350069D01*
X449596Y351500D02*
X449377Y351819D01*
X448721Y352296*
X453314*
X353541Y337812D02*
Y333218D01*
Y337812D02*
X354972D01*
X355450Y337593*
X355609Y337374*
X355768Y336937*
Y336499*
X355609Y336062*
X355450Y335843*
X354972Y335624*
X353541*
X354654D02*
X355768Y333218D01*
X359427Y337812D02*
X357836Y333218D01*
X357200Y337812D02*
X359427D01*
X362922Y367688D02*
X362484Y367529D01*
X362047Y367211*
X361828Y366893*
Y366257*
X362047Y365938*
X362484Y365620*
X362922Y365461*
X363578Y365302*
X364672*
X365328Y365461*
X365766Y365620*
X366203Y365938*
X366422Y366257*
Y366893*
X366203Y367211*
X365766Y367529*
X365328Y367688*
X361828Y371188D02*
Y369597D01*
X363797Y369438*
X363578Y369597*
X363359Y370075*
Y370552*
X363578Y371029*
X364016Y371347*
X364672Y371507*
X365109Y371347*
X365766Y371188*
X366203Y370870*
X366422Y370393*
Y369916*
X366203Y369438*
X365984Y369279*
X365547Y369120*
X491222Y352488D02*
X490784Y352329D01*
X490347Y352011*
X490128Y351693*
Y351057*
X490347Y350738*
X490784Y350420*
X491222Y350261*
X491878Y350102*
X492972*
X493628Y350261*
X494066Y350420*
X494503Y350738*
X494722Y351057*
Y351693*
X494503Y352011*
X494066Y352329*
X493628Y352488*
X491222Y354079D02*
X491003D01*
X490566Y354238*
X490347Y354397*
X490128Y354716*
Y355352*
X490347Y355670*
X490566Y355829*
X491003Y355988*
X491441*
X491878Y355829*
X492534Y355511*
X494722Y353920*
Y356147*
X536422Y352688D02*
X535984Y352529D01*
X535547Y352211*
X535328Y351893*
Y351257*
X535547Y350938*
X535984Y350620*
X536422Y350461*
X537078Y350302*
X538172*
X538828Y350461*
X539266Y350620*
X539703Y350938*
X539922Y351257*
Y351893*
X539703Y352211*
X539266Y352529*
X538828Y352688*
X536203Y354120D02*
X535984Y354438D01*
X535328Y354916*
X539922*
X535328Y356666D02*
Y358416D01*
X537078Y357461*
Y357938*
X537297Y358257*
X537516Y358416*
X538172Y358575*
X538609*
X539266Y358416*
X539703Y358097*
X539922Y357620*
Y357143*
X539703Y356666*
X539484Y356507*
X539047Y356347*
X356743Y239425D02*
X356305Y239266D01*
X355868Y238948*
X355649Y238630*
Y237993*
X355868Y237675*
X356305Y237357*
X356743Y237198*
X357399Y237039*
X358493*
X359149Y237198*
X359586Y237357*
X360024Y237675*
X360243Y237993*
Y238630*
X360024Y238948*
X359586Y239266*
X359149Y239425*
X355649Y243084D02*
X360243Y241493D01*
X355649Y240857D02*
Y243084D01*
X374243Y239425D02*
X373805Y239266D01*
X373368Y238948*
X373149Y238630*
Y237993*
X373368Y237675*
X373805Y237357*
X374243Y237198*
X374899Y237039*
X375993*
X376649Y237198*
X377086Y237357*
X377524Y237675*
X377743Y237993*
Y238630*
X377524Y238948*
X377086Y239266*
X376649Y239425*
X373805Y242766D02*
X373368Y242607D01*
X373149Y242130*
Y241811*
X373368Y241334*
X374024Y241016*
X375118Y240857*
X376211*
X377086Y241016*
X377524Y241334*
X377743Y241811*
Y241971*
X377524Y242448*
X377086Y242766*
X376430Y242925*
X376211*
X375555Y242766*
X375118Y242448*
X374899Y241971*
Y241811*
X375118Y241334*
X375555Y241016*
X376211Y240857*
X384143Y176825D02*
X383705Y176666D01*
X383268Y176348*
X383049Y176030*
Y175393*
X383268Y175075*
X383705Y174757*
X384143Y174598*
X384799Y174439*
X385893*
X386549Y174598*
X386986Y174757*
X387424Y175075*
X387643Y175393*
Y176030*
X387424Y176348*
X386986Y176666*
X386549Y176825*
X383049Y179052D02*
X383268Y178575D01*
X383705Y178416*
X384143*
X384580Y178575*
X384799Y178893*
X385018Y179530*
X385236Y180007*
X385674Y180325*
X386111Y180484*
X386768*
X387205Y180325*
X387424Y180166*
X387643Y179689*
Y179052*
X387424Y178575*
X387205Y178416*
X386768Y178257*
X386111*
X385674Y178416*
X385236Y178734*
X385018Y179211*
X384799Y179848*
X384580Y180166*
X384143Y180325*
X383705*
X383268Y180166*
X383049Y179689*
Y179052*
X426943Y176825D02*
X426505Y176666D01*
X426068Y176348*
X425849Y176030*
Y175393*
X426068Y175075*
X426505Y174757*
X426943Y174598*
X427599Y174439*
X428693*
X429349Y174598*
X429786Y174757*
X430224Y175075*
X430443Y175393*
Y176030*
X430224Y176348*
X429786Y176666*
X429349Y176825*
X427380Y180325D02*
X428036Y180166D01*
X428474Y179848*
X428693Y179371*
Y179211*
X428474Y178734*
X428036Y178416*
X427380Y178257*
X427161*
X426505Y178416*
X426068Y178734*
X425849Y179211*
Y179371*
X426068Y179848*
X426505Y180166*
X427380Y180325*
X428474*
X429568Y180166*
X430224Y179848*
X430443Y179371*
Y179052*
X430224Y178575*
X429786Y178416*
X440914Y132116D02*
X440477Y131957D01*
X440039Y131639*
X439821Y131321*
Y130684*
X440039Y130366*
X440477Y130048*
X440914Y129889*
X441571Y129730*
X442664*
X443321Y129889*
X443758Y130048*
X444196Y130366*
X444414Y130684*
Y131321*
X444196Y131639*
X443758Y131957*
X443321Y132116*
X440696Y133548D02*
X440477Y133866D01*
X439821Y134343*
X444414*
X439821Y136730D02*
X440039Y136252D01*
X440696Y135934*
X441789Y135775*
X442446*
X443539Y135934*
X444196Y136252*
X444414Y136730*
Y137048*
X444196Y137525*
X443539Y137843*
X442446Y138002*
X441789*
X440696Y137843*
X440039Y137525*
X439821Y137048*
Y136730*
X333114Y368016D02*
X332677Y367857D01*
X332239Y367539*
X332021Y367221*
Y366584*
X332239Y366266*
X332677Y365948*
X333114Y365789*
X333771Y365630*
X334864*
X335521Y365789*
X335958Y365948*
X336396Y366266*
X336614Y366584*
Y367221*
X336396Y367539*
X335958Y367857*
X335521Y368016*
X332896Y369448D02*
X332677Y369766D01*
X332021Y370243*
X336614*
X333114Y371834D02*
X332896D01*
X332458Y371993*
X332239Y372152*
X332021Y372471*
Y373107*
X332239Y373425*
X332458Y373584*
X332896Y373743*
X333333*
X333771Y373584*
X334427Y373266*
X336614Y371675*
Y373902*
X470590Y321196D02*
X470749Y320758D01*
X471067Y320321*
X471385Y320102*
X472022*
X472340Y320321*
X472658Y320758*
X472817Y321196*
X472976Y321852*
Y322946*
X472817Y323602*
X472658Y324040*
X472340Y324477*
X472022Y324696*
X471385*
X471067Y324477*
X470749Y324040*
X470590Y323602*
X468840Y320102D02*
X467090D01*
X468044Y321852*
X467567*
X467249Y322071*
X467090Y322290*
X466931Y322946*
Y323383*
X467090Y324040*
X467408Y324477*
X467885Y324696*
X468363*
X468840Y324477*
X468999Y324258*
X469158Y323821*
X259221Y295330D02*
X263814Y297557D01*
X259221D02*
X263814Y295330D01*
X260096Y298989D02*
X259877Y299307D01*
X259221Y299784*
X263814*
X555344Y380140D02*
X555231Y380452D01*
X555003Y380765*
X554776Y380921*
X554322*
X554094Y380765*
X553867Y380452*
X553753Y380140*
X553640Y379671*
Y378890*
X553753Y378421*
X553867Y378109*
X554094Y377796*
X554322Y377640*
X554776*
X555003Y377796*
X555231Y378109*
X555344Y378421*
X556367Y380296D02*
X556594Y380452D01*
X556935Y380921*
Y377640*
X265566Y264226D02*
X265253Y264112D01*
X264941Y263885*
X264785Y263658*
Y263203*
X264941Y262976*
X265253Y262749*
X265566Y262635*
X266035Y262521*
X266816*
X267285Y262635*
X267597Y262749*
X267910Y262976*
X268066Y263203*
Y263658*
X267910Y263885*
X267597Y264112*
X267285Y264226*
X265410Y265249D02*
X265253Y265476D01*
X264785Y265817*
X268066*
X265410Y266839D02*
X265253Y267067D01*
X264785Y267408*
X268066*
X536012Y301075D02*
Y297794D01*
Y301075D02*
X536808D01*
X537149Y300919*
X537376Y300606*
X537489Y300294*
X537603Y299825*
Y299044*
X537489Y298575*
X537376Y298262*
X537149Y297950*
X536808Y297794*
X536012*
X538626Y300450D02*
X538853Y300606D01*
X539194Y301075*
Y297794*
X285557Y254925D02*
Y249758D01*
Y254925D02*
X286809D01*
X287346Y254679*
X287704Y254187*
X287883Y253695*
X288062Y252957*
Y251726*
X287883Y250988*
X287704Y250496*
X287346Y250004*
X286809Y249758*
X285557*
X291820Y254187D02*
X291641Y254679D01*
X291104Y254925*
X290746*
X290209Y254679*
X289852Y253941*
X289673Y252711*
Y251480*
X289852Y250496*
X290209Y250004*
X290746Y249758*
X290925*
X291462Y250004*
X291820Y250496*
X291999Y251234*
Y251480*
X291820Y252218*
X291462Y252711*
X290925Y252957*
X290746*
X290209Y252711*
X289852Y252218*
X289673Y251480*
X506044Y314749D02*
X500876D01*
X506044D02*
Y313496D01*
X505798Y312960*
X505306Y312602*
X504813Y312423*
X504075Y312244*
X502845*
X502107Y312423*
X501615Y312602*
X501122Y312960*
X500876Y313496*
Y314749*
X506044Y310275D02*
Y308307D01*
X504075Y309381*
Y308844*
X503829Y308486*
X503583Y308307*
X502845Y308128*
X502353*
X501615Y308307*
X501122Y308665*
X500876Y309202*
Y309738*
X501122Y310275*
X501369Y310454*
X501861Y310633*
X425644Y379949D02*
X420476D01*
X425644D02*
Y378696D01*
X425398Y378160*
X424906Y377802*
X424413Y377623*
X423675Y377444*
X422445*
X421707Y377623*
X421215Y377802*
X420722Y378160*
X420476Y378696*
Y379949*
X425644Y374044D02*
X422199Y375833D01*
Y373149*
X425644Y374044D02*
X420476D01*
X517529Y376858D02*
Y372264D01*
X521347Y375764D02*
X521188Y376201D01*
X520870Y376639*
X520551Y376858*
X519915*
X519597Y376639*
X519279Y376201*
X519120Y375764*
X518961Y375108*
Y374014*
X519120Y373358*
X519279Y372920*
X519597Y372483*
X519915Y372264*
X520551*
X520870Y372483*
X521188Y372920*
X521347Y373358*
X522779Y375983D02*
X523097Y376201D01*
X523574Y376858*
Y372264*
X525961Y376858D02*
X525483Y376639D01*
X525165Y375983*
X525006Y374889*
Y374233*
X525165Y373139*
X525483Y372483*
X525961Y372264*
X526279*
X526756Y372483*
X527074Y373139*
X527233Y374233*
Y374889*
X527074Y375983*
X526756Y376639*
X526279Y376858*
X525961*
X341340Y155467D02*
X346507D01*
X341340D02*
X346507Y156899D01*
X341340Y158331D02*
X346507Y156899D01*
X341340Y158331D02*
X346507D01*
X341340Y160299D02*
Y162268D01*
X343308Y161194*
Y161731*
X343554Y162089*
X343800Y162268*
X344539Y162447*
X345031*
X345769Y162268*
X346261Y161910*
X346507Y161373*
Y160836*
X346261Y160299*
X346015Y160120*
X345523Y159941*
X576957Y348025D02*
Y342858D01*
Y348025D02*
X578209D01*
X578746Y347779*
X579104Y347287*
X579283Y346795*
X579462Y346057*
Y344826*
X579283Y344088*
X579104Y343596*
X578746Y343104*
X578209Y342858*
X576957*
X581252Y346795D02*
Y347041D01*
X581430Y347533*
X581609Y347779*
X581967Y348025*
X582683*
X583041Y347779*
X583220Y347533*
X583399Y347041*
Y346549*
X583220Y346057*
X582862Y345318*
X581073Y342858*
X583578*
X276912Y124575D02*
Y121294D01*
X278503Y124575D02*
Y121294D01*
X276912Y123012D02*
X278503D01*
X279526Y123950D02*
X279753Y124106D01*
X280094Y124575*
Y121294*
X155812Y381375D02*
Y378094D01*
X157403Y381375D02*
Y378094D01*
X155812Y379812D02*
X157403D01*
X158539Y380594D02*
Y380750D01*
X158653Y381062*
X158767Y381219*
X158994Y381375*
X159449*
X159676Y381219*
X159789Y381062*
X159903Y380750*
Y380437*
X159789Y380125*
X159562Y379656*
X158426Y378094*
X160017*
X580612Y381675D02*
Y378394D01*
X582203Y381675D02*
Y378394D01*
X580612Y380112D02*
X582203D01*
X583453Y381675D02*
X584703D01*
X584021Y380425*
X584362*
X584589Y380269*
X584703Y380112*
X584817Y379644*
Y379331*
X584703Y378862*
X584476Y378550*
X584135Y378394*
X583794*
X583453Y378550*
X583339Y378706*
X583226Y379019*
X580312Y124575D02*
Y121294D01*
X581903Y124575D02*
Y121294D01*
X580312Y123012D02*
X581903D01*
X584062Y124575D02*
X582926Y122387D01*
X584630*
X584062Y124575D02*
Y121294D01*
X244431Y357994D02*
X247712D01*
X245212Y360721D02*
X244900Y360607D01*
X244587Y360380*
X244431Y360153*
Y359698*
X244587Y359471*
X244900Y359244*
X245212Y359130*
X245681Y359016*
X246462*
X246931Y359130*
X247243Y359244*
X247556Y359471*
X247712Y359698*
Y360153*
X247556Y360380*
X247243Y360607*
X246931Y360721*
X245212Y361857D02*
X245056D01*
X244743Y361971*
X244587Y362085*
X244431Y362312*
Y362766*
X244587Y362994*
X244743Y363107*
X245056Y363221*
X245368*
X245681Y363107*
X246150Y362880*
X247712Y361744*
Y363335*
X321307Y185677D02*
X325901D01*
X321307Y187109D02*
X325901D01*
X321307D02*
Y188541D01*
X321526Y189018*
X321744Y189177*
X322182Y189336*
X322619*
X323057Y189177*
X323276Y189018*
X323494Y188541*
Y187109*
Y188223D02*
X325901Y189336D01*
X322401Y190927D02*
X322182D01*
X321744Y191086*
X321526Y191245*
X321307Y191563*
Y192200*
X321526Y192518*
X321744Y192677*
X322182Y192836*
X322619*
X323057Y192677*
X323713Y192359*
X325901Y190768*
Y192995*
X322401Y194586D02*
X322182D01*
X321744Y194745*
X321526Y194904*
X321307Y195223*
Y195859*
X321526Y196177*
X321744Y196336*
X322182Y196495*
X322619*
X323057Y196336*
X323713Y196018*
X325901Y194427*
Y196654*
X375444Y314749D02*
X370276D01*
X375444D02*
Y313496D01*
X375198Y312960*
X374706Y312602*
X374213Y312423*
X373475Y312244*
X372245*
X371507Y312423*
X371015Y312602*
X370522Y312960*
X370276Y313496*
Y314749*
X375444Y308307D02*
Y310096D01*
X373229Y310275*
X373475Y310096*
X373721Y309559*
Y309023*
X373475Y308486*
X372983Y308128*
X372245Y307949*
X371753Y308128*
X371015Y308307*
X370522Y308665*
X370276Y309202*
Y309738*
X370522Y310275*
X370769Y310454*
X371261Y310633*
X403414Y282816D02*
X402977Y282657D01*
X402539Y282339*
X402321Y282021*
Y281384*
X402539Y281066*
X402977Y280748*
X403414Y280589*
X404071Y280430*
X405164*
X405821Y280589*
X406258Y280748*
X406696Y281066*
X406914Y281384*
Y282021*
X406696Y282339*
X406258Y282657*
X405821Y282816*
X402321Y285839D02*
X405383Y284248D01*
Y286634*
X402321Y285839D02*
X406914D01*
X167597Y122269D02*
X171534D01*
X172272Y122090*
X172518Y121911*
X172764Y121553*
Y121195*
X172518Y120837*
X172272Y120658*
X171534Y120479*
X171042*
X167597Y124237D02*
Y126206D01*
X169565Y125132*
Y125669*
X169811Y126027*
X170057Y126206*
X170795Y126385*
X171288*
X172026Y126206*
X172518Y125848*
X172764Y125311*
Y124774*
X172518Y124237*
X172272Y124058*
X171780Y123879*
X399713Y302814D02*
Y300470D01*
X399827Y300001*
X400054Y299689*
X400395Y299533*
X400623*
X400963Y299689*
X401191Y300001*
X401304Y300470*
Y302814*
X402441Y302033D02*
Y302189D01*
X402554Y302501*
X402668Y302658*
X402895Y302814*
X403350*
X403577Y302658*
X403691Y302501*
X403804Y302189*
Y301876*
X403691Y301564*
X403463Y301095*
X402327Y299533*
X403918*
X405728Y363736D02*
Y360455D01*
X407091*
X408114Y363111D02*
X408341Y363267D01*
X408682Y363736*
Y360455*
X589949Y311375D02*
Y308875D01*
X589835Y308406*
X589721Y308250*
X589494Y308094*
X589267*
X589039Y308250*
X588926Y308406*
X588812Y308875*
Y309187*
X592108Y311375D02*
X590971Y309187D01*
X592676*
X592108Y311375D02*
Y308094D01*
X356758Y386842D02*
Y384342D01*
X356644Y383873*
X356530Y383717*
X356303Y383561*
X356076*
X355849Y383717*
X355735Y383873*
X355621Y384342*
Y384655*
X357780Y386217D02*
X358008Y386373D01*
X358349Y386842*
Y383561*
X351412Y346583D02*
Y344083D01*
X351298Y343614*
X351185Y343458*
X350957Y343302*
X350730*
X350503Y343458*
X350389Y343614*
X350276Y344083*
Y344396*
X352548Y345802D02*
Y345958D01*
X352662Y346271*
X352776Y346427*
X353003Y346583*
X353457*
X353685Y346427*
X353798Y346271*
X353912Y345958*
Y345646*
X353798Y345333*
X353571Y344864*
X352435Y343302*
X354026*
X615301Y381539D02*
Y378258D01*
X616892Y381539D02*
Y378258D01*
X615301Y379977D02*
X616892D01*
X619392Y381539D02*
X618256D01*
X618142Y380133*
X618256Y380289*
X618596Y380446*
X618937*
X619278Y380289*
X619506Y379977*
X619619Y379508*
X619506Y379196*
X619392Y378727*
X619165Y378414*
X618824Y378258*
X618483*
X618142Y378414*
X618028Y378571*
X617915Y378883*
X615562Y124616D02*
Y121334D01*
X617153Y124616D02*
Y121334D01*
X615562Y123053D02*
X617153D01*
X619539Y124147D02*
X619425Y124459D01*
X619085Y124616*
X618857*
X618516Y124459*
X618289Y123991*
X618175Y123209*
Y122428*
X618289Y121803*
X618516Y121491*
X618857Y121334*
X618971*
X619312Y121491*
X619539Y121803*
X619653Y122272*
Y122428*
X619539Y122897*
X619312Y123209*
X618971Y123366*
X618857*
X618516Y123209*
X618289Y122897*
X618175Y122428*
X120883Y124337D02*
Y121056D01*
X122474Y124337D02*
Y121056D01*
X120883Y122775D02*
X122474D01*
X125088Y124337D02*
X123952Y121056D01*
X123497Y124337D02*
X125088D01*
X121011Y381213D02*
Y377932D01*
X122601Y381213D02*
Y377932D01*
X121011Y379650D02*
X122601D01*
X124192Y381213D02*
X123851Y381057D01*
X123738Y380744*
Y380432*
X123851Y380119*
X124079Y379963*
X124533Y379807*
X124874Y379650*
X125101Y379338*
X125215Y379025*
Y378557*
X125101Y378244*
X124988Y378088*
X124647Y377932*
X124192*
X123851Y378088*
X123738Y378244*
X123624Y378557*
Y379025*
X123738Y379338*
X123965Y379650*
X124306Y379807*
X124761Y379963*
X124988Y380119*
X125101Y380432*
Y380744*
X124988Y381057*
X124647Y381213*
X124192*
G54D35*
X558652Y292740D02*
Y324236D01*
Y292740D02*
X615739D01*
Y276992*
X639361*
Y339984*
X615739*
Y324236*
X558652*
G74*
X0Y0D02*
M02*
