*
*
G04 PADS Layout (Build Number 2007.42.1) generated Gerber (RS-274-X) file*
G04 PC Version=2.1*
*
%IN "kt011_v5.pcb"*%
*
%MOIN*%
*
%FSLAX35Y35*%
*
*
*
*
G04 PC Standard Apertures*
*
*
G04 Thermal Relief Aperture macro.*
%AMTER*
1,1,$1,0,0*
1,0,$1-$2,0,0*
21,0,$3,$4,0,0,45*
21,0,$3,$4,0,0,135*
%
*
*
G04 Annular Aperture macro.*
%AMANN*
1,1,$1,0,0*
1,0,$2,0,0*
%
*
*
G04 Odd Aperture macro.*
%AMODD*
1,1,$1,0,0*
1,0,$1-0.005,0,0*
%
*
*
G04 PC Custom Aperture Macros*
*
*
*
*
*
*
G04 PC Aperture Table*
*
%ADD010C,0.06*%
%ADD023C,0.001*%
%ADD059O,0.05315X0.09843*%
%ADD060C,0.11*%
%ADD061C,0.03937*%
%ADD062C,0.055*%
%ADD065C,0.01575*%
%ADD076C,0.07087*%
%ADD078C,0.03543*%
%ADD081C,0.03937*%
*
*
*
*
G04 PC Copper Outlines (0)*
G04 Layer Name kt011_v5.pcb - dark (0)*
%LPD*%
*
*
G04 PC Area=Custom_Thermal*
*
G04 PC Custom Flashes*
G04 Layer Name kt011_v5.pcb - flashes*
%LPD*%
*
*
G04 PC Circuitry*
G04 Layer Name kt011_v5.pcb - circuitry*
%LPD*%
*
G54D10*
G01X806701Y547701D03*
X846701D03*
X933701Y443701D03*
Y403701D03*
X756201Y407201D03*
X796201D03*
X673701Y406701D03*
X713701D03*
X537201Y410701D03*
X577201D03*
X836201Y441201D03*
Y401201D03*
X648701Y558701D03*
X688701D03*
X436201Y531201D03*
Y561201D03*
X448701Y531201D03*
Y561201D03*
X463701Y566201D03*
X493701D03*
X496201Y546201D03*
X526201D03*
X541201D03*
X571201D03*
X541201Y533701D03*
X571201D03*
X416201Y493701D03*
X446201D03*
X416201Y481201D03*
X446201D03*
X443701Y438701D03*
Y408701D03*
X471201D03*
X501201D03*
X558701Y426201D03*
X588701D03*
X558701Y438701D03*
X588701D03*
X556201Y448701D03*
Y478701D03*
X563701Y488701D03*
X593701D03*
X538701Y506201D03*
X568701D03*
X688701Y543701D03*
Y513701D03*
X701201Y543701D03*
Y513701D03*
X696201Y496201D03*
X726201D03*
X696201Y483701D03*
X726201D03*
X708701Y446201D03*
X738701D03*
X716201Y433701D03*
X746201D03*
X696201Y473701D03*
Y443701D03*
X683701Y423701D03*
X713701D03*
X931201Y551201D03*
X961201D03*
X931201Y541201D03*
Y511201D03*
X973701Y571201D03*
Y541201D03*
X983701Y561201D03*
X1013701D03*
X1023701D03*
Y531201D03*
X1036201Y561201D03*
Y531201D03*
X1026201Y493701D03*
X1056201D03*
X1026201Y481201D03*
X1056201D03*
X976201Y418701D03*
X1006201D03*
X966201Y406201D03*
X996201D03*
X718701Y546201D03*
X748701D03*
X718701Y533701D03*
X748701D03*
G54D23*
X1044814Y431940D02*
X1044946Y432432D01*
X1045306Y432792*
X1045798Y432924*
X1046290Y432792*
X1046650Y432432*
X1046782Y431940*
Y412255*
X1046650Y411763*
X1046290Y411402*
X1045798Y411270*
X1045306Y411402*
X1044946Y411763*
X1044814Y412255*
Y431940*
Y562747D02*
X1044946Y563239D01*
X1045306Y563599*
X1045798Y563731*
X1046290Y563599*
X1046650Y563239*
X1046782Y562747*
Y543062*
X1046650Y542570*
X1046290Y542209*
X1045798Y542078*
X1045306Y542209*
X1044946Y542570*
X1044814Y543062*
Y562747*
X1009578Y396704D02*
X1009709Y397196D01*
X1010070Y397556*
X1010562Y397688*
X1030247*
X1030739Y397556*
X1031099Y397196*
X1031231Y396704*
X1031099Y396211*
X1030739Y395851*
X1030247Y395719*
X1010562*
X1010070Y395851*
X1009709Y396211*
X1009578Y396704*
Y578298D02*
X1009709Y578790D01*
X1010070Y579150*
X1010562Y579282*
X1030247*
X1030739Y579150*
X1031099Y578790*
X1031231Y578298*
X1031099Y577806*
X1030739Y577446*
X1030247Y577314*
X1010562*
X1010070Y577446*
X1009709Y577806*
X1009578Y578298*
X437770D02*
X437902Y578790D01*
X438263Y579150*
X438755Y579282*
X458440*
X458932Y579150*
X459292Y578790*
X459424Y578298*
X459292Y577806*
X458932Y577446*
X458440Y577314*
X438755*
X438263Y577446*
X437902Y577806*
X437770Y578298*
Y396704D02*
X437902Y397196D01*
X438263Y397556*
X438755Y397688*
X458440*
X458932Y397556*
X459292Y397196*
X459424Y396704*
X459292Y396211*
X458932Y395851*
X458440Y395719*
X438755*
X438263Y395851*
X437902Y396211*
X437770Y396704*
X422219Y562747D02*
X422351Y563239D01*
X422711Y563599*
X423204Y563731*
X423696Y563599*
X424056Y563239*
X424188Y562747*
Y543062*
X424056Y542570*
X423696Y542209*
X423204Y542078*
X422711Y542209*
X422351Y542570*
X422219Y543062*
Y562747*
Y431940D02*
X422351Y432432D01*
X422711Y432792*
X423204Y432924*
X423696Y432792*
X424056Y432432*
X424188Y431940*
Y412255*
X424056Y411763*
X423696Y411402*
X423204Y411270*
X422711Y411402*
X422351Y411763*
X422219Y412255*
Y431940*
X1049213Y580709D02*
X420079D01*
Y520866*
X393701*
X420079Y393701D02*
X1049213D01*
X393701Y454331D02*
X441732D01*
X393701Y520866D02*
Y454331D01*
X420079Y448031D02*
Y393701D01*
X441732Y448031D02*
X420079D01*
X441732Y454331D02*
Y448031D01*
X1049213Y393701D02*
Y448031D01*
X1027559Y454331D02*
X1075197D01*
X1027559Y448031D02*
Y454331D01*
X1049213Y448031D02*
X1027559D01*
X1075197Y454331D02*
Y520866D01*
X1049213*
Y580709*
G54D59*
X632201Y567701D03*
X624327D03*
X616453D03*
X608579D03*
X600705D03*
X592831D03*
X584957D03*
X577083D03*
X569209D03*
X561335D03*
X829701D03*
X821827D03*
X813953D03*
X806079D03*
X798205D03*
X790331D03*
X782457D03*
X774583D03*
X766709D03*
X758835D03*
X750961D03*
G54D60*
X518701Y405201D03*
Y569701D03*
X734701D03*
Y405201D03*
X950201D03*
Y569701D03*
G54D61*
X1029214Y396697D02*
X1011651D01*
X1045839Y430908D02*
Y413345D01*
X1045819Y561683D02*
Y544120D01*
X1011670Y578328D02*
X1029233D01*
X439868Y578317D02*
X457431D01*
X423243Y544107D02*
Y561670D01*
X423264Y413332D02*
Y430895D01*
X457412Y396687D02*
X439849D01*
G54D62*
X488701Y503701D03*
X788201D03*
X982701Y472701D03*
X639213Y503189D03*
G54D65*
X558701Y426201D02*
X563701Y431201D01*
Y488701*
X673701Y406701D02*
X682398Y415398D01*
X714488*
X719641Y420551*
X774461*
X806661Y417823D02*
X777190D01*
X774461Y420551*
X771512Y425174D02*
X781296Y434958D01*
X796053*
X871701Y422201D02*
X904701D01*
X915201*
X966201Y406201D02*
X980155D01*
X987144Y413190*
X1000690*
X1006201Y418701*
X933701Y403701D02*
X915201Y422201D01*
X996201Y406201D02*
X1008715D01*
X1017789Y415275*
Y448458*
X1020362Y451032*
X416201Y481201D02*
X433067D01*
X445266Y469002*
X488701Y503701D02*
X524951Y539951D01*
X551596*
X577083Y565437*
Y567701*
X443701Y438701D02*
Y444591D01*
X445266Y446156*
Y469002*
X556201Y478701D02*
Y493701D01*
X568701Y506201*
X639213Y503189D02*
X600705Y541697D01*
Y567701*
X593701Y488701D02*
Y526805D01*
X592831Y527675*
Y567701*
X726201Y496201D02*
X754455Y524455D01*
Y537871*
X765284Y548701*
X768701*
X788201Y503701D02*
Y523249D01*
X774719Y536731*
X888276Y450675D02*
X876957D01*
X845885Y481748*
Y525631*
X806079Y565437*
Y567701*
X838701Y501201D02*
Y522727D01*
X806273Y555155*
X871701Y501201D02*
X904701D01*
X871701Y478701D02*
X904701D01*
X871701Y444701D02*
Y451876D01*
X843324Y480252*
Y521445*
X806218Y558551*
X871701Y444701D02*
X904701D01*
X982701Y472701D02*
X955421D01*
X942034Y486088*
X1020362Y451032D02*
X1050532Y481201D01*
X1056201*
X1020362Y451032D02*
X1012919Y458475D01*
X468382Y551380D02*
X520570D01*
X545684Y576494*
X636768*
X691080Y548617D02*
X626413D01*
X616453Y558578*
Y567701*
X633848Y551321D02*
X746321D01*
X748701Y553701*
X633848Y551321D02*
X624327Y560842D01*
Y567701*
X640633Y576494D02*
X638701Y574562D01*
X636768Y576494*
X640633D02*
X711011D01*
X638701Y556201D02*
Y574562D01*
X745998Y559075D02*
X728430D01*
X711011Y576494*
X701201Y543701D02*
X695997D01*
X691080Y548617*
X750827Y559075D02*
X745998D01*
Y564069*
X746028Y564099*
Y572873*
X750366Y577212*
X806705*
X780834Y559717D02*
X780303D01*
X774583Y565437*
Y567701*
X806273Y555155D02*
X792738D01*
X782457Y565437*
Y567701*
X806218Y558551D02*
X799982D01*
X798205Y560328*
Y567701*
X758981Y536731D02*
X774719D01*
X783701Y553701D02*
Y556850D01*
X780834Y559717*
X758701Y551201D02*
X750827Y559075D01*
X813953Y567701D02*
Y569965D01*
X821564Y577576*
X828411*
X813953Y567701D02*
Y569965D01*
X806705Y577212*
X934346Y567032D02*
X838955D01*
X828411Y577576*
X904701Y558201D02*
X885573D01*
X871701*
X985841Y556201D02*
X945177D01*
X934346Y567032*
X991613Y550428D02*
X985841Y556201D01*
G54D76*
X851201Y573701D03*
X918701D03*
X851201Y516201D03*
X918701D03*
X851201Y458701D03*
X918701D03*
X851201Y401201D03*
X918701D03*
G54D78*
X641015Y400748D02*
X587154D01*
X577201Y410701*
X641015Y400748D02*
X640846Y400917D01*
Y440686*
X641015Y400748D02*
X707748D01*
X713701Y406701*
X723811Y416811*
X746590*
X836201Y401201D02*
X762201D01*
X756201Y407201*
X746590Y416811*
X836201Y401201D02*
X842154Y407154D01*
Y443666*
X842154D02*
X833479Y452341D01*
Y520922*
X806701Y547701*
X776511*
X758805Y565407*
Y567701*
X758835D02*
X758805D01*
X871701Y535701D02*
X857391D01*
X857210Y535881*
X843097D02*
X857210D01*
X871701Y535701D02*
X904701D01*
X806661Y417823D03*
X771512Y425174D03*
X640846Y440686D03*
X796053Y434958D03*
X888276Y450675D03*
X838701Y501201D03*
X942034Y486088D03*
X1012919Y458475D03*
X468382Y551380D03*
X638701Y556201D03*
X748701Y553701D03*
X758981Y536731D03*
X783701Y553701D03*
X758701Y551201D03*
X768701Y548701D03*
X843097Y535881D03*
X991613Y550428D03*
G54D81*
X904701Y422201D03*
Y444701D03*
X871701Y422201D03*
Y444701D03*
Y478701D03*
Y501201D03*
X904701Y478701D03*
Y501201D03*
X871701Y535701D03*
Y558201D03*
X904701Y535701D03*
Y558201D03*
X0Y0D02*
M02*
