*
*
G04 PADS Layout (Build Number 2007.42.1) generated Gerber (RS-274-X) file*
G04 PC Version=2.1*
*
%IN "kt011_v5.pcb"*%
*
%MOIN*%
*
%FSLAX35Y35*%
*
*
*
*
G04 PC Standard Apertures*
*
*
G04 Thermal Relief Aperture macro.*
%AMTER*
1,1,$1,0,0*
1,0,$1-$2,0,0*
21,0,$3,$4,0,0,45*
21,0,$3,$4,0,0,135*
%
*
*
G04 Annular Aperture macro.*
%AMANN*
1,1,$1,0,0*
1,0,$2,0,0*
%
*
*
G04 Odd Aperture macro.*
%AMODD*
1,1,$1,0,0*
1,0,$1-0.005,0,0*
%
*
*
G04 PC Custom Aperture Macros*
*
*
*
*
*
*
G04 PC Aperture Table*
*
%ADD023C,0.001*%
%ADD024C,0.01*%
%ADD067C,0.01181*%
*
*
*
*
G04 PC Copper Outlines (0)*
G04 Layer Name kt011_v5.pcb - dark (0)*
%LPD*%
*
*
G04 PC Area=Custom_Thermal*
*
G04 PC Custom Flashes*
G04 Layer Name kt011_v5.pcb - flashes*
%LPD*%
*
*
G04 PC Circuitry*
G04 Layer Name kt011_v5.pcb - circuitry*
%LPD*%
*
G54D23*
G01X420079Y393701D02*
X1049213D01*
Y448031*
X1027559*
Y454331*
X1075197*
Y520866*
X1049213*
Y580709*
X420079*
Y520866*
X393701*
Y454331*
X441732*
Y448031*
X420079*
Y393701*
X1044814Y431940D02*
X1044946Y432432D01*
X1045306Y432792*
X1045798Y432924*
X1046290Y432792*
X1046650Y432432*
X1046782Y431940*
Y412255*
X1046650Y411763*
X1046290Y411402*
X1045798Y411270*
X1045306Y411402*
X1044946Y411763*
X1044814Y412255*
Y431940*
Y562747D02*
X1044946Y563239D01*
X1045306Y563599*
X1045798Y563731*
X1046290Y563599*
X1046650Y563239*
X1046782Y562747*
Y543062*
X1046650Y542570*
X1046290Y542209*
X1045798Y542078*
X1045306Y542209*
X1044946Y542570*
X1044814Y543062*
Y562747*
X1009578Y396704D02*
X1009709Y397196D01*
X1010070Y397556*
X1010562Y397688*
X1030247*
X1030739Y397556*
X1031099Y397196*
X1031231Y396704*
X1031099Y396211*
X1030739Y395851*
X1030247Y395719*
X1010562*
X1010070Y395851*
X1009709Y396211*
X1009578Y396704*
Y578298D02*
X1009709Y578790D01*
X1010070Y579150*
X1010562Y579282*
X1030247*
X1030739Y579150*
X1031099Y578790*
X1031231Y578298*
X1031099Y577806*
X1030739Y577446*
X1030247Y577314*
X1010562*
X1010070Y577446*
X1009709Y577806*
X1009578Y578298*
X437770D02*
X437902Y578790D01*
X438263Y579150*
X438755Y579282*
X458440*
X458932Y579150*
X459292Y578790*
X459424Y578298*
X459292Y577806*
X458932Y577446*
X458440Y577314*
X438755*
X438263Y577446*
X437902Y577806*
X437770Y578298*
Y396704D02*
X437902Y397196D01*
X438263Y397556*
X438755Y397688*
X458440*
X458932Y397556*
X459292Y397196*
X459424Y396704*
X459292Y396211*
X458932Y395851*
X458440Y395719*
X438755*
X438263Y395851*
X437902Y396211*
X437770Y396704*
X422219Y562747D02*
X422351Y563239D01*
X422711Y563599*
X423204Y563731*
X423696Y563599*
X424056Y563239*
X424188Y562747*
Y543062*
X424056Y542570*
X423696Y542209*
X423204Y542078*
X422711Y542209*
X422351Y542570*
X422219Y543062*
Y562747*
Y431940D02*
X422351Y432432D01*
X422711Y432792*
X423204Y432924*
X423696Y432792*
X424056Y432432*
X424188Y431940*
Y412255*
X424056Y411763*
X423696Y411402*
X423204Y411270*
X422711Y411402*
X422351Y411763*
X422219Y412255*
Y431940*
X1049213Y580709D02*
X420079D01*
Y520866*
X393701*
X420079Y393701D02*
X1049213D01*
X393701Y454331D02*
X441732D01*
X393701Y520866D02*
Y454331D01*
X420079Y448031D02*
Y393701D01*
X441732Y448031D02*
X420079D01*
X441732Y454331D02*
Y448031D01*
X1049213Y393701D02*
Y448031D01*
X1027559Y454331D02*
X1075197D01*
X1027559Y448031D02*
Y454331D01*
X1049213Y448031D02*
X1027559D01*
X1075197Y454331D02*
Y520866D01*
X1049213*
Y580709*
G54D24*
X1025199Y396697D02*
X1033199D01*
X1029199Y392697D02*
Y400697D01*
X1007667Y396697D02*
X1015667D01*
X1011667Y392697D02*
Y400697D01*
X1029199Y395713D02*
G75*
G03Y397682I-0J984D01*
G01X1011667*
G03Y395713I0J-985*
G01X1029199*
X1041839Y430892D02*
X1049839D01*
X1045839Y426892D02*
Y434892D01*
X1041839Y413361D02*
X1049839D01*
X1045839Y409361D02*
Y417361D01*
X1046824Y430892D02*
G03X1044855I-985J0D01*
G01Y413361*
G03X1046824I984J-0*
G01X1046824D02*
Y430892D01*
X1041819Y561668D02*
X1049819D01*
X1045819Y557668D02*
Y565668D01*
X1041819Y544136D02*
X1049819D01*
X1045819Y540136D02*
Y548136D01*
X1046803Y561668D02*
G03X1044834I-984J-0D01*
G01Y544136*
G03X1046803I985J0*
G01Y561668*
X1007686Y578328D02*
X1015686D01*
X1011686Y574328D02*
Y582328D01*
X1025218Y578328D02*
X1033218D01*
X1029218Y574328D02*
Y582328D01*
X1011686Y579312D02*
G03Y577343I0J-984D01*
G01X1029218*
G03Y579312I-0J985*
G01X1011686*
X435884Y578317D02*
X443884D01*
X439884Y574317D02*
Y582317D01*
X453415Y578317D02*
X461415D01*
X457415Y574317D02*
Y582317D01*
X439884Y579302D02*
G03Y577333I-0J-985D01*
G01X457415*
G03Y579302I0J984*
G01X439884*
X419243Y544123D02*
X427243D01*
X423243Y540123D02*
Y548123D01*
X419243Y561654D02*
X427243D01*
X423243Y557654D02*
Y565654D01*
X422259Y544123D02*
G03X424228I984J-0D01*
G01Y561654*
G03X422259I-985J0*
G01Y544123*
X419264Y413347D02*
X427264D01*
X423264Y409347D02*
Y417347D01*
X419264Y430879D02*
X427264D01*
X423264Y426879D02*
Y434879D01*
X422280Y413347D02*
G03X424248I984J0D01*
G01Y430879*
G03X422280I-984J-0*
G01Y413347*
X453396Y396687D02*
X461396D01*
X457396Y392687D02*
Y400687D01*
X435865Y396687D02*
X443865D01*
X439865Y392687D02*
Y400687D01*
X457396Y395703D02*
G03Y397671I0J984D01*
G01X439865*
G03Y395703I0J-984*
G01X457396*
X802701Y543701D02*
X810701Y551701D01*
X802701D02*
X810701Y543701D01*
X842701D02*
X850701Y551701D01*
X842701D02*
X850701Y543701D01*
X929701Y439701D02*
X937701Y447701D01*
X929701D02*
X937701Y439701D01*
X929701Y399701D02*
X937701Y407701D01*
X929701D02*
X937701Y399701D01*
X752201Y403201D02*
X760201Y411201D01*
X752201D02*
X760201Y403201D01*
X792201D02*
X800201Y411201D01*
X792201D02*
X800201Y403201D01*
X669701Y402701D02*
X677701Y410701D01*
X669701D02*
X677701Y402701D01*
X709701D02*
X717701Y410701D01*
X709701D02*
X717701Y402701D01*
X533201Y406701D02*
X541201Y414701D01*
X533201D02*
X541201Y406701D01*
X573201D02*
X581201Y414701D01*
X573201D02*
X581201Y406701D01*
X832201Y437201D02*
X840201Y445201D01*
X832201D02*
X840201Y437201D01*
X832201Y397201D02*
X840201Y405201D01*
X832201D02*
X840201Y397201D01*
X628201Y567701D02*
X636201D01*
X632201Y563701D02*
Y571701D01*
X635110Y572982D02*
X634201Y569701D01*
X635110Y572982D02*
X636019Y569701D01*
X634542Y570795D02*
X635678D01*
X620327Y567701D02*
X628327D01*
X624327Y563701D02*
Y571701D01*
X627236Y572982D02*
X626327Y569701D01*
X627236Y572982D02*
X628145Y569701D01*
X626668Y570795D02*
X627804D01*
X612453Y567701D02*
X620453D01*
X616453Y563701D02*
Y571701D01*
X619362Y572982D02*
X618453Y569701D01*
X619362Y572982D02*
X620271Y569701D01*
X618794Y570795D02*
X619930D01*
X604579Y567701D02*
X612579D01*
X608579Y563701D02*
Y571701D01*
X611488Y572982D02*
X610579Y569701D01*
X611488Y572982D02*
X612397Y569701D01*
X610920Y570795D02*
X612056D01*
X596705Y567701D02*
X604705D01*
X600705Y563701D02*
Y571701D01*
X603614Y572982D02*
X602705Y569701D01*
X603614Y572982D02*
X604523Y569701D01*
X603046Y570795D02*
X604182D01*
X588831Y567701D02*
X596831D01*
X592831Y563701D02*
Y571701D01*
X595740Y572982D02*
X594831Y569701D01*
X595740Y572982D02*
X596649Y569701D01*
X595172Y570795D02*
X596308D01*
X580957Y567701D02*
X588957D01*
X584957Y563701D02*
Y571701D01*
X587866Y572982D02*
X586957Y569701D01*
X587866Y572982D02*
X588775Y569701D01*
X587298Y570795D02*
X588434D01*
X573083Y567701D02*
X581083D01*
X577083Y563701D02*
Y571701D01*
X579992Y572982D02*
X579083Y569701D01*
X579992Y572982D02*
X580901Y569701D01*
X579424Y570795D02*
X580560D01*
X565209Y567701D02*
X573209D01*
X569209Y563701D02*
Y571701D01*
X572118Y572982D02*
X571209Y569701D01*
X572118Y572982D02*
X573027Y569701D01*
X571550Y570795D02*
X572686D01*
X557335Y567701D02*
X565335D01*
X561335Y563701D02*
Y571701D01*
X564244Y572982D02*
X563335Y569701D01*
X564244Y572982D02*
X565153Y569701D01*
X563676Y570795D02*
X564812D01*
X825701Y567701D02*
X833701D01*
X829701Y563701D02*
Y571701D01*
X832610Y572982D02*
X831701Y569701D01*
X832610Y572982D02*
X833519Y569701D01*
X832042Y570795D02*
X833178D01*
X817827Y567701D02*
X825827D01*
X821827Y563701D02*
Y571701D01*
X824736Y572982D02*
X823827Y569701D01*
X824736Y572982D02*
X825645Y569701D01*
X824168Y570795D02*
X825304D01*
X809953Y567701D02*
X817953D01*
X813953Y563701D02*
Y571701D01*
X816862Y572982D02*
X815953Y569701D01*
X816862Y572982D02*
X817771Y569701D01*
X816294Y570795D02*
X817430D01*
X802079Y567701D02*
X810079D01*
X806079Y563701D02*
Y571701D01*
X808988Y572982D02*
X808079Y569701D01*
X808988Y572982D02*
X809897Y569701D01*
X808420Y570795D02*
X809556D01*
X794205Y567701D02*
X802205D01*
X798205Y563701D02*
Y571701D01*
X801114Y572982D02*
X800205Y569701D01*
X801114Y572982D02*
X802023Y569701D01*
X800546Y570795D02*
X801682D01*
X786331Y567701D02*
X794331D01*
X790331Y563701D02*
Y571701D01*
X793240Y572982D02*
X792331Y569701D01*
X793240Y572982D02*
X794149Y569701D01*
X792672Y570795D02*
X793808D01*
X778457Y567701D02*
X786457D01*
X782457Y563701D02*
Y571701D01*
X785366Y572982D02*
X784457Y569701D01*
X785366Y572982D02*
X786275Y569701D01*
X784798Y570795D02*
X785934D01*
X770583Y567701D02*
X778583D01*
X774583Y563701D02*
Y571701D01*
X777492Y572982D02*
X776583Y569701D01*
X777492Y572982D02*
X778401Y569701D01*
X776924Y570795D02*
X778060D01*
X762709Y567701D02*
X770709D01*
X766709Y563701D02*
Y571701D01*
X769618Y572982D02*
X768709Y569701D01*
X769618Y572982D02*
X770527Y569701D01*
X769050Y570795D02*
X770186D01*
X754835Y567701D02*
X762835D01*
X758835Y563701D02*
Y571701D01*
X761744Y572982D02*
X760835Y569701D01*
X761744Y572982D02*
X762653Y569701D01*
X761176Y570795D02*
X762312D01*
X746961Y567701D02*
X754961D01*
X750961Y563701D02*
Y571701D01*
X753870Y572982D02*
X752961Y569701D01*
X753870Y572982D02*
X754779Y569701D01*
X753302Y570795D02*
X754438D01*
X514701Y401201D02*
X522701D01*
Y409201*
X514701*
Y401201*
X518701Y405201D02*
Y409201D01*
X514701Y565701D02*
X522701D01*
Y573701*
X514701*
Y565701*
X518701Y569701D02*
Y573701D01*
X730701Y565701D02*
X738701D01*
Y573701*
X730701*
Y565701*
X734701Y569701D02*
Y573701D01*
X730701Y401201D02*
X738701D01*
Y409201*
X730701*
Y401201*
X734701Y405201D02*
Y409201D01*
X946201Y401201D02*
X954201D01*
Y409201*
X946201*
Y401201*
X950201Y405201D02*
Y409201D01*
X946201Y565701D02*
X954201D01*
Y573701*
X946201*
Y565701*
X950201Y569701D02*
Y573701D01*
X904701Y418201D02*
X908701Y422201D01*
X904701Y426201*
X900701Y422201*
X904701Y418201*
Y422201D02*
Y426201D01*
Y440701D02*
X908701Y444701D01*
X904701Y448701*
X900701Y444701*
X904701Y440701*
Y444701D02*
Y448701D01*
X871701Y418201D02*
X875701Y422201D01*
X871701Y426201*
X867701Y422201*
X871701Y418201*
Y422201D02*
Y426201D01*
Y440701D02*
X875701Y444701D01*
X871701Y448701*
X867701Y444701*
X871701Y440701*
Y444701D02*
Y448701D01*
Y474701D02*
X875701Y478701D01*
X871701Y482701*
X867701Y478701*
X871701Y474701*
Y478701D02*
Y482701D01*
Y497201D02*
X875701Y501201D01*
X871701Y505201*
X867701Y501201*
X871701Y497201*
Y501201D02*
Y505201D01*
X904701Y474701D02*
X908701Y478701D01*
X904701Y482701*
X900701Y478701*
X904701Y474701*
Y478701D02*
Y482701D01*
Y497201D02*
X908701Y501201D01*
X904701Y505201*
X900701Y501201*
X904701Y497201*
Y501201D02*
Y505201D01*
X871701Y531701D02*
X875701Y535701D01*
X871701Y539701*
X867701Y535701*
X871701Y531701*
Y535701D02*
Y539701D01*
Y554201D02*
X875701Y558201D01*
X871701Y562201*
X867701Y558201*
X871701Y554201*
Y558201D02*
Y562201D01*
X904701Y531701D02*
X908701Y535701D01*
X904701Y539701*
X900701Y535701*
X904701Y531701*
Y535701D02*
Y539701D01*
Y554201D02*
X908701Y558201D01*
X904701Y562201*
X900701Y558201*
X904701Y554201*
Y558201D02*
Y562201D01*
X847201Y569701D02*
X855201D01*
X847201Y577701*
X855201*
X847201Y569701*
X914701D02*
X922701D01*
X914701Y577701*
X922701*
X914701Y569701*
X847201Y512201D02*
X855201D01*
X847201Y520201*
X855201*
X847201Y512201*
X914701D02*
X922701D01*
X914701Y520201*
X922701*
X914701Y512201*
X847201Y454701D02*
X855201D01*
X847201Y462701*
X855201*
X847201Y454701*
X914701D02*
X922701D01*
X914701Y462701*
X922701*
X914701Y454701*
X847201Y397201D02*
X855201D01*
X847201Y405201*
X855201*
X847201Y397201*
X914701D02*
X922701D01*
X914701Y405201*
X922701*
X914701Y397201*
X644701Y554701D02*
X652701Y562701D01*
X644701D02*
X652701Y554701D01*
X684701D02*
X692701Y562701D01*
X684701D02*
X692701Y554701D01*
X432201Y527201D02*
X440201Y535201D01*
X432201D02*
X440201Y527201D01*
X432201Y557201D02*
X440201Y565201D01*
X432201D02*
X440201Y557201D01*
X444701Y527201D02*
X452701Y535201D01*
X444701D02*
X452701Y527201D01*
X444701Y557201D02*
X452701Y565201D01*
X444701D02*
X452701Y557201D01*
X459701Y562201D02*
X467701Y570201D01*
X459701D02*
X467701Y562201D01*
X489701D02*
X497701Y570201D01*
X489701D02*
X497701Y562201D01*
X492201Y542201D02*
X500201Y550201D01*
X492201D02*
X500201Y542201D01*
X522201D02*
X530201Y550201D01*
X522201D02*
X530201Y542201D01*
X537201D02*
X545201Y550201D01*
X537201D02*
X545201Y542201D01*
X567201D02*
X575201Y550201D01*
X567201D02*
X575201Y542201D01*
X537201Y529701D02*
X545201Y537701D01*
X537201D02*
X545201Y529701D01*
X567201D02*
X575201Y537701D01*
X567201D02*
X575201Y529701D01*
X412201Y489701D02*
X420201Y497701D01*
X412201D02*
X420201Y489701D01*
X442201D02*
X450201Y497701D01*
X442201D02*
X450201Y489701D01*
X412201Y477201D02*
X420201Y485201D01*
X412201D02*
X420201Y477201D01*
X442201D02*
X450201Y485201D01*
X442201D02*
X450201Y477201D01*
X439701Y434701D02*
X447701Y442701D01*
X439701D02*
X447701Y434701D01*
X439701Y404701D02*
X447701Y412701D01*
X439701D02*
X447701Y404701D01*
X467201D02*
X475201Y412701D01*
X467201D02*
X475201Y404701D01*
X497201D02*
X505201Y412701D01*
X497201D02*
X505201Y404701D01*
X554701Y422201D02*
X562701Y430201D01*
X554701D02*
X562701Y422201D01*
X584701D02*
X592701Y430201D01*
X584701D02*
X592701Y422201D01*
X554701Y434701D02*
X562701Y442701D01*
X554701D02*
X562701Y434701D01*
X584701D02*
X592701Y442701D01*
X584701D02*
X592701Y434701D01*
X552201Y444701D02*
X560201Y452701D01*
X552201D02*
X560201Y444701D01*
X552201Y474701D02*
X560201Y482701D01*
X552201D02*
X560201Y474701D01*
X559701Y484701D02*
X567701Y492701D01*
X559701D02*
X567701Y484701D01*
X589701D02*
X597701Y492701D01*
X589701D02*
X597701Y484701D01*
X534701Y502201D02*
X542701Y510201D01*
X534701D02*
X542701Y502201D01*
X564701D02*
X572701Y510201D01*
X564701D02*
X572701Y502201D01*
X684701Y539701D02*
X692701Y547701D01*
X684701D02*
X692701Y539701D01*
X684701Y509701D02*
X692701Y517701D01*
X684701D02*
X692701Y509701D01*
X697201Y539701D02*
X705201Y547701D01*
X697201D02*
X705201Y539701D01*
X697201Y509701D02*
X705201Y517701D01*
X697201D02*
X705201Y509701D01*
X692201Y492201D02*
X700201Y500201D01*
X692201D02*
X700201Y492201D01*
X722201D02*
X730201Y500201D01*
X722201D02*
X730201Y492201D01*
X692201Y479701D02*
X700201Y487701D01*
X692201D02*
X700201Y479701D01*
X722201D02*
X730201Y487701D01*
X722201D02*
X730201Y479701D01*
X704701Y442201D02*
X712701Y450201D01*
X704701D02*
X712701Y442201D01*
X734701D02*
X742701Y450201D01*
X734701D02*
X742701Y442201D01*
X712201Y429701D02*
X720201Y437701D01*
X712201D02*
X720201Y429701D01*
X742201D02*
X750201Y437701D01*
X742201D02*
X750201Y429701D01*
X692201Y469701D02*
X700201Y477701D01*
X692201D02*
X700201Y469701D01*
X692201Y439701D02*
X700201Y447701D01*
X692201D02*
X700201Y439701D01*
X679701Y419701D02*
X687701Y427701D01*
X679701D02*
X687701Y419701D01*
X709701D02*
X717701Y427701D01*
X709701D02*
X717701Y419701D01*
X927201Y547201D02*
X935201Y555201D01*
X927201D02*
X935201Y547201D01*
X957201D02*
X965201Y555201D01*
X957201D02*
X965201Y547201D01*
X927201Y537201D02*
X935201Y545201D01*
X927201D02*
X935201Y537201D01*
X927201Y507201D02*
X935201Y515201D01*
X927201D02*
X935201Y507201D01*
X969701Y567201D02*
X977701Y575201D01*
X969701D02*
X977701Y567201D01*
X969701Y537201D02*
X977701Y545201D01*
X969701D02*
X977701Y537201D01*
X979701Y557201D02*
X987701Y565201D01*
X979701D02*
X987701Y557201D01*
X1009701D02*
X1017701Y565201D01*
X1009701D02*
X1017701Y557201D01*
X1019701D02*
X1027701Y565201D01*
X1019701D02*
X1027701Y557201D01*
X1019701Y527201D02*
X1027701Y535201D01*
X1019701D02*
X1027701Y527201D01*
X1032201Y557201D02*
X1040201Y565201D01*
X1032201D02*
X1040201Y557201D01*
X1032201Y527201D02*
X1040201Y535201D01*
X1032201D02*
X1040201Y527201D01*
X1022201Y489701D02*
X1030201Y497701D01*
X1022201D02*
X1030201Y489701D01*
X1052201D02*
X1060201Y497701D01*
X1052201D02*
X1060201Y489701D01*
X1022201Y477201D02*
X1030201Y485201D01*
X1022201D02*
X1030201Y477201D01*
X1052201D02*
X1060201Y485201D01*
X1052201D02*
X1060201Y477201D01*
X972201Y414701D02*
X980201Y422701D01*
X972201D02*
X980201Y414701D01*
X1002201D02*
X1010201Y422701D01*
X1002201D02*
X1010201Y414701D01*
X962201Y402201D02*
X970201Y410201D01*
X962201D02*
X970201Y402201D01*
X992201D02*
X1000201Y410201D01*
X992201D02*
X1000201Y402201D01*
X714701Y542201D02*
X722701Y550201D01*
X714701D02*
X722701Y542201D01*
X744701D02*
X752701Y550201D01*
X744701D02*
X752701Y542201D01*
X714701Y529701D02*
X722701Y537701D01*
X714701D02*
X722701Y529701D01*
X744701D02*
X752701Y537701D01*
X744701D02*
X752701Y529701D01*
X484701Y499701D02*
X492701Y507701D01*
Y499701*
X484701Y507701*
Y499701*
X784201D02*
X792201Y507701D01*
Y499701*
X784201Y507701*
Y499701*
X978701Y468701D02*
X986701Y476701D01*
Y468701*
X978701Y476701*
Y468701*
X635213Y499189D02*
X643213Y507189D01*
Y499189*
X635213Y507189*
Y499189*
X806661Y413823D02*
X810661Y417823D01*
X806661Y421823*
X802661Y417823*
X806661Y413823*
Y417823D02*
Y421823D01*
X771512Y421174D02*
X775512Y425174D01*
X771512Y429174*
X767512Y425174*
X771512Y421174*
Y425174D02*
Y429174D01*
X640846Y436686D02*
X644846Y440686D01*
X640846Y444686*
X636846Y440686*
X640846Y436686*
Y440686D02*
Y444686D01*
X796053Y430958D02*
X800053Y434958D01*
X796053Y438958*
X792053Y434958*
X796053Y430958*
Y434958D02*
Y438958D01*
X888276Y446675D02*
X892276Y450675D01*
X888276Y454675*
X884276Y450675*
X888276Y446675*
Y450675D02*
Y454675D01*
X838701Y497201D02*
X842701Y501201D01*
X838701Y505201*
X834701Y501201*
X838701Y497201*
Y501201D02*
Y505201D01*
X942034Y482088D02*
X946034Y486088D01*
X942034Y490088*
X938034Y486088*
X942034Y482088*
Y486088D02*
Y490088D01*
X1012919Y454475D02*
X1016919Y458475D01*
X1012919Y462475*
X1008919Y458475*
X1012919Y454475*
Y458475D02*
Y462475D01*
X468382Y547380D02*
X472382Y551380D01*
X468382Y555380*
X464382Y551380*
X468382Y547380*
Y551380D02*
Y555380D01*
X638701Y552201D02*
X642701Y556201D01*
X638701Y560201*
X634701Y556201*
X638701Y552201*
Y556201D02*
Y560201D01*
X748701Y549701D02*
X752701Y553701D01*
X748701Y557701*
X744701Y553701*
X748701Y549701*
Y553701D02*
Y557701D01*
X758981Y532731D02*
X762981Y536731D01*
X758981Y540731*
X754981Y536731*
X758981Y532731*
Y536731D02*
Y540731D01*
X783701Y549701D02*
X787701Y553701D01*
X783701Y557701*
X779701Y553701*
X783701Y549701*
Y553701D02*
Y557701D01*
X758701Y547201D02*
X762701Y551201D01*
X758701Y555201*
X754701Y551201*
X758701Y547201*
Y551201D02*
Y555201D01*
X768701Y544701D02*
X772701Y548701D01*
X768701Y552701*
X764701Y548701*
X768701Y544701*
Y548701D02*
Y552701D01*
X843097Y531881D02*
X847097Y535881D01*
X843097Y539881*
X839097Y535881*
X843097Y531881*
Y535881D02*
Y539881D01*
X991613Y546428D02*
X995613Y550428D01*
X991613Y554428*
X987613Y550428*
X991613Y546428*
Y550428D02*
Y554428D01*
X676665Y315945D02*
X675950Y316929D01*
X674876Y317421*
X673444*
X672370Y316929*
X671655Y315945*
Y314961*
X672013Y313976*
X672370Y313484*
X673086Y312992*
X675234Y312008*
X675950Y311516*
X676307Y311024*
X676665Y310039*
Y308563*
X675950Y307579*
X674876Y307087*
X673444*
X672370Y307579*
X671655Y308563*
X679887Y317421D02*
Y307087D01*
X688118Y317421D02*
X683108Y307087D01*
Y317421D02*
X688118D01*
X683108Y307087D02*
X688118D01*
X691340Y317421D02*
Y307087D01*
Y317421D02*
X695992D01*
X691340Y312500D02*
X694203D01*
X691340Y307087D02*
X695992D01*
X753258Y317421D02*
X752542Y316929D01*
X751826Y315945*
X751469Y314961*
X751111Y313484*
Y311024*
X751469Y309547*
X751826Y308563*
X752542Y307579*
X753258Y307087*
X754690*
X755406Y307579*
X756121Y308563*
X756479Y309547*
X756837Y311024*
Y313484*
X756479Y314961*
X756121Y315945*
X755406Y316929*
X754690Y317421*
X753258*
X754332Y309055D02*
X756479Y306102D01*
X762564Y317421D02*
Y307087D01*
X760058Y317421D02*
X765069D01*
X768290D02*
X771154Y312500D01*
Y307087*
X774017Y317421D02*
X771154Y312500D01*
X803365Y315945D02*
X802650Y316929D01*
X801576Y317421*
X800144*
X799071Y316929*
X798355Y315945*
Y314961*
X798713Y313976*
X799071Y313484*
X799786Y312992*
X801934Y312008*
X802650Y311516*
X803008Y311024*
X803365Y310039*
Y308563*
X802650Y307579*
X801576Y307087*
X800144*
X799071Y307579*
X798355Y308563*
X806587Y317421D02*
X809450Y312500D01*
Y307087*
X812313Y317421D02*
X809450Y312500D01*
X815534Y317421D02*
Y307087D01*
Y317421D02*
X818398Y307087D01*
X821261Y317421D02*
X818398Y307087D01*
X821261Y317421D02*
Y307087D01*
X849894Y317421D02*
Y307087D01*
Y317421D02*
X853115D01*
X854189Y316929*
X854547Y316437*
X854904Y315453*
Y313976*
X854547Y312992*
X854189Y312500*
X853115Y312008*
X849894*
X858126Y317421D02*
Y307087D01*
X862421*
X868505Y317421D02*
X865642Y307087D01*
X868505Y317421D02*
X871368Y307087D01*
X866715Y310531D02*
X870295D01*
X877095Y317421D02*
Y307087D01*
X874589Y317421D02*
X879600D01*
X882821D02*
Y307087D01*
Y317421D02*
X887474D01*
X882821Y312500D02*
X885685D01*
X882821Y307087D02*
X887474D01*
X890695Y317421D02*
Y307087D01*
Y317421D02*
X893201D01*
X894275Y316929*
X894990Y315945*
X895348Y314961*
X895706Y313484*
Y311024*
X895348Y309547*
X894990Y308563*
X894275Y307579*
X893201Y307087*
X890695*
X927560Y317421D02*
Y307087D01*
X925055Y317421D02*
X930065D01*
X935434D02*
X934718Y316929D01*
X934003Y315945*
X933645Y314961*
X933287Y313484*
Y311024*
X933645Y309547*
X934003Y308563*
X934718Y307579*
X935434Y307087*
X936866*
X937582Y307579*
X938297Y308563*
X938655Y309547*
X939013Y311024*
Y313484*
X938655Y314961*
X938297Y315945*
X937582Y316929*
X936866Y317421*
X935434*
X942234D02*
Y307087D01*
X946529*
X639943Y285925D02*
X638869Y285433D01*
X638153Y283957*
X637795Y281496*
Y280020*
X638153Y277559*
X638869Y276083*
X639943Y275591*
X640659*
X641732Y276083*
X642448Y277559*
X642806Y280020*
Y281496*
X642448Y283957*
X641732Y285433*
X640659Y285925*
X639943*
X646385Y276575D02*
X646027Y276083D01*
X646385Y275591*
X646743Y276083*
X646385Y276575*
X654617Y285925D02*
X651038D01*
X650680Y281496*
X651038Y281988*
X652112Y282480*
X653185*
X654259Y281988*
X654975Y281004*
X655333Y279528*
X654975Y278543*
X654617Y277067*
X653901Y276083*
X652827Y275591*
X651754*
X650680Y276083*
X650322Y276575*
X649964Y277559*
X666786Y282480D02*
X670723Y275591D01*
Y282480D02*
X666786Y275591D01*
X685755Y285925D02*
X682176Y279035D01*
X687545*
X685755Y285925D02*
Y275591D01*
X691124Y276575D02*
X690766Y276083D01*
X691124Y275591*
X691482Y276083*
X691124Y276575*
X699356Y282480D02*
X698998Y281004D01*
X698282Y280020*
X697208Y279528*
X696850*
X695777Y280020*
X695061Y281004*
X694703Y282480*
Y282972*
X695061Y284449*
X695777Y285433*
X696850Y285925*
X697208*
X698282Y285433*
X698998Y284449*
X699356Y282480*
Y280020*
X698998Y277559*
X698282Y276083*
X697208Y275591*
X696492*
X695419Y276083*
X695061Y277067*
X707230Y285925D02*
X703651D01*
X703293Y281496*
X703651Y281988*
X704724Y282480*
X705798*
X706872Y281988*
X707588Y281004*
X707946Y279528*
X707588Y278543*
X707230Y277067*
X706514Y276083*
X705440Y275591*
X704366*
X704366D02*
X703293Y276083D01*
X702935Y276575*
X702577Y277559*
X711883Y285925D02*
X715820D01*
X713672Y281988*
X714746*
X715462Y281496*
X715820Y281004*
X716178Y279528*
Y278543*
X715820Y277067*
X715104Y276083*
X714030Y275591*
X712956*
X711883Y276083*
X711525Y276575*
X711167Y277559*
X761848Y285925D02*
X760774Y285433D01*
X760416Y284449*
Y283465*
X760774Y282480*
X761490Y281988*
X762922Y281496*
X763995Y281004*
X764711Y280020*
X765069Y279035*
Y277559*
X764711Y276575*
X764353Y276083*
X763280Y275591*
X761848*
X760774Y276083*
X760416Y276575*
X760058Y277559*
Y279035*
X760416Y280020*
X761132Y281004*
X762206Y281496*
X763637Y281988*
X764353Y282480*
X764711Y283465*
Y284449*
X764353Y285433*
X763280Y285925*
X761848*
X803150Y283465D02*
X818898D01*
X811024Y275591D02*
Y291339D01*
X850073Y285925D02*
Y275591D01*
Y285925D02*
X855083Y275591D01*
Y285925D02*
Y275591D01*
X860452Y285925D02*
X859736Y285433D01*
X859020Y284449*
X858662Y283465*
X858305Y281988*
Y279528*
X858662Y278051*
X859020Y277067*
X859736Y276083*
X860452Y275591*
X861884*
X862599Y276083*
X862599D02*
X863315Y277067D01*
X863673Y278051*
X864031Y279528*
Y281988*
X863673Y283465*
X863315Y284449*
X862599Y285433*
X862599D02*
X861884Y285925D01*
X860452*
X915928Y284449D02*
Y275591D01*
X912707Y280020D02*
X919149D01*
X928813Y287894D02*
X922370Y272146D01*
X932034Y280020D02*
X938476D01*
X943845Y285925D02*
X942771Y285433D01*
X942055Y283957*
X941698Y281496*
Y280020*
X942055Y277559*
X942771Y276083*
X943845Y275591*
X944561*
X945635Y276083*
X946350Y277559*
X946708Y280020*
Y281496*
X946350Y283957*
X945635Y285433*
X944561Y285925*
X943845*
X950287Y276575D02*
X949929Y276083D01*
X950287Y275591*
X950645Y276083*
X950287Y276575*
X956014Y285925D02*
X954940Y285433D01*
X954224Y283957*
X953866Y281496*
X953866D02*
Y280020D01*
X953866D02*
X954224Y277559D01*
X954940Y276083*
X956014Y275591*
X956730*
X957804Y276083*
X958519Y277559*
X958877Y280020*
Y281496*
X958519Y283957*
X957804Y285433*
X956730Y285925*
X956014*
X639943Y254429D02*
X638869Y253937D01*
X638153Y252461*
X637795Y250000*
Y248524*
X638153Y246063*
X638869Y244587*
X639943Y244094*
X640659*
X641732Y244587*
X642448Y246063*
X642806Y248524*
Y250000*
X642448Y252461*
X641732Y253937*
X640659Y254429*
X639943*
X646385Y245079D02*
X646027Y244587D01*
X646385Y244094*
X646743Y244587*
X646385Y245079*
X651754Y254429D02*
X650680Y253937D01*
X650322Y252953*
Y251969*
X650680Y250984*
X651396Y250492*
X652827Y250000*
X653901Y249508*
X654617Y248524*
X654975Y247539*
Y246063*
X654617Y245079*
X654259Y244587*
X653185Y244094*
X651754*
X650680Y244587*
X650322Y245079*
X649964Y246063*
Y247539*
X650322Y248524*
X651038Y249508*
X652112Y250000*
X653543Y250492*
X654259Y250984*
X654617Y251969*
Y252953*
X654259Y253937*
X653185Y254429*
X651754*
X659986D02*
X658912Y253937D01*
X658554Y252953*
Y251969*
X658912Y250984*
X659628Y250492*
X661059Y250000*
X662133Y249508*
X662849Y248524*
X663207Y247539*
Y246063*
X662849Y245079*
X662491Y244587*
X661417Y244094*
X659986*
X658912Y244587*
X658554Y245079*
X658196Y246063*
Y247539*
X658554Y248524*
X659270Y249508*
X660344Y250000*
X661775Y250492*
X662491Y250984*
X662849Y251969*
Y252953*
X662491Y253937*
X661417Y254429*
X659986*
X671081Y250984D02*
X670723Y249508D01*
X670007Y248524*
X668933Y248031*
X668576*
X667502Y248524*
X666786Y249508*
X666428Y250984*
Y251476*
X666786Y252953*
X667502Y253937*
X668576Y254429*
X668933*
X670007Y253937*
X670723Y252953*
X671081Y250984*
Y248524*
X670723Y246063*
X670007Y244587*
X668933Y244094*
X668218*
X667144Y244587*
X666786Y245571*
X757553Y254429D02*
X756479Y253937D01*
X756121Y252953*
Y251969*
X756479Y250984*
X757195Y250492*
X758627Y250000*
X759700Y249508*
X760416Y248524*
X760774Y247539*
Y246063*
X760416Y245079*
X760058Y244587*
X758985Y244094*
X757553*
X756479Y244587*
X756121Y245079*
X755763Y246063*
Y247539*
X756121Y248524*
X756837Y249508*
X757911Y250000*
X759343Y250492*
X760058Y250984*
X760416Y251969*
Y252953*
X760058Y253937*
X758985Y254429*
X757553*
X767574D02*
X763995Y247539D01*
X769364*
X767574Y254429D02*
Y244094D01*
X803150D02*
X818898Y259843D01*
X803150D02*
X818898Y244094D01*
X846136Y254429D02*
X848999Y249508D01*
Y244094*
X851862Y254429D02*
X848999Y249508D01*
X855083Y254429D02*
Y244094D01*
Y254429D02*
X859736D01*
X855083Y249508D02*
X857947D01*
X855083Y244094D02*
X859736D01*
X867968Y252953D02*
X867252Y253937D01*
X866179Y254429*
X864747*
X863673Y253937*
X862957Y252953*
Y251969*
X863315Y250984*
X863673Y250492*
X864389Y250000*
X866537Y249016*
X867252Y248524*
X867610Y248031*
X867968Y247047*
Y245571*
X867252Y244587*
X866179Y244094*
X864747*
X863673Y244587*
X862957Y245571*
X915928Y252953D02*
Y244094D01*
X912707Y248524D02*
X919149D01*
X928813Y256398D02*
X922370Y240650D01*
X932034Y248524D02*
X938476D01*
X943845Y254429D02*
X942771Y253937D01*
X942055Y252461*
X941698Y250000*
Y248524*
X942055Y246063*
X942771Y244587*
X943845Y244094*
X944561*
X945635Y244587*
X946350Y246063*
X946708Y248524*
Y250000*
X946350Y252461*
X945635Y253937*
X944561Y254429*
X943845*
X950287Y245079D02*
X949929Y244587D01*
X950287Y244094*
X950645Y244587*
X950287Y245079*
X956014Y254429D02*
X954940Y253937D01*
X954224Y252461*
X953866Y250000*
X953866D02*
Y248524D01*
X953866D02*
X954224Y246063D01*
X954940Y244587*
X956014Y244094*
X956730*
X957804Y244587*
X958519Y246063*
X958877Y248524*
Y250000*
X958519Y252461*
X957804Y253937*
X956730Y254429*
X956014*
X638153Y220472D02*
Y220965D01*
X638511Y221949*
X638869Y222441*
X639585Y222933*
X641016*
X641732Y222441*
X642090Y221949*
X642448Y220965*
Y219980*
X642090Y218996*
X641374Y217520*
X637795Y212598*
X642806*
X646385Y213583D02*
X646027Y213091D01*
X646385Y212598*
X646743Y213091*
X646385Y213583*
X654975Y222933D02*
X651396Y212598D01*
X649964Y222933D02*
X654975D01*
X662849Y219488D02*
X662491Y218012D01*
X661775Y217028*
X660702Y216535*
X660344*
X659270Y217028*
X658554Y218012*
X658196Y219488*
Y219980*
X658554Y221457*
X659270Y222441*
X660344Y222933*
X660702*
X661775Y222441*
X662491Y221457*
X662849Y219488*
Y217028*
X662491Y214567*
X661775Y213091*
X660702Y212598*
X659986*
X658912Y213091*
X658554Y214075*
X669649Y222933D02*
X666070Y216043D01*
X671439*
X669649Y222933D02*
Y212598D01*
X764532Y221457D02*
X764174Y222441D01*
X763101Y222933*
X762385*
X761311Y222441*
X760595Y220965*
X760237Y218504*
Y216043*
X760595Y214075*
X761311Y213091*
X762385Y212598*
X762743*
X763816Y213091*
X764532Y214075*
X764890Y215551*
Y216043*
X764532Y217520*
X763816Y218504*
X762743Y218996*
X762385*
X761311Y218504*
X760595Y217520*
X760237Y216043*
X803150Y212598D02*
X818898D01*
Y228346*
X803150*
Y212598*
X811024Y220472D02*
Y228346D01*
X850073Y222933D02*
Y212598D01*
Y222933D02*
X855083Y212598D01*
Y222933D02*
Y212598D01*
X860452Y222933D02*
X859736Y222441D01*
X859020Y221457*
X858662Y220472*
X858305Y218996*
Y216535*
X858662Y215059*
X859020Y214075*
X859736Y213091*
X860452Y212598*
X861884*
X862599Y213091*
X862599D02*
X863315Y214075D01*
X863673Y215059*
X864031Y216535*
Y218996*
X863673Y220472*
X863315Y221457*
X862599Y222441*
X862599D02*
X861884Y222933D01*
X860452*
X915928Y221457D02*
Y212598D01*
X912707Y217028D02*
X919149D01*
X928813Y224902D02*
X922370Y209154D01*
X932034Y217028D02*
X938476D01*
X943845Y222933D02*
X942771Y222441D01*
X942055Y220965*
X941698Y218504*
Y217028*
X942055Y214567*
X942771Y213091*
X943845Y212598*
X944561*
X945635Y213091*
X946350Y214567*
X946708Y217028*
Y218504*
X946350Y220965*
X945635Y222441*
X944561Y222933*
X943845*
X950287Y213583D02*
X949929Y213091D01*
X950287Y212598*
X950645Y213091*
X950287Y213583*
X956014Y222933D02*
X954940Y222441D01*
X954224Y220965*
X953866Y218504*
X953866D02*
Y217028D01*
X953866D02*
X954224Y214567D01*
X954940Y213091*
X956014Y212598*
X956730*
X957804Y213091*
X958519Y214567*
X958877Y217028*
Y218504*
X958519Y220965*
X957804Y222441*
X956730Y222933*
X956014*
X639943Y191437D02*
X638869Y190945D01*
X638153Y189469*
X637795Y187008*
Y185531*
X638153Y183071*
X638869Y181594*
X639943Y181102*
X640659*
X641732Y181594*
X642448Y183071*
X642806Y185531*
Y187008*
X642448Y189469*
X641732Y190945*
X640659Y191437*
X639943*
X646385Y182087D02*
X646027Y181594D01*
X646385Y181102*
X646743Y181594*
X646385Y182087*
X653543Y191437D02*
X649964Y184547D01*
X655333*
X653543Y191437D02*
Y181102D01*
X756479Y188976D02*
Y189469D01*
X756837Y190453*
X757195Y190945*
X757911Y191437*
X759343*
X760058Y190945*
X760416Y190453*
X760774Y189469*
Y188484*
X760416Y187500*
X759700Y186024*
X756121Y181102*
X761132*
X769006Y187992D02*
X768648Y186516D01*
X767932Y185531*
X766859Y185039*
X766501*
X765427Y185531*
X764711Y186516*
X764353Y187992*
Y188484*
X764711Y189961*
X765427Y190945*
X766501Y191437*
X766859*
X767932Y190945*
X768648Y189961*
X769006Y187992*
Y185531*
X768648Y183071*
X767932Y181594*
X766859Y181102*
X766143*
X765069Y181594*
X764711Y182579*
X811024Y181102D02*
X818898Y188976D01*
X811024Y196850*
X803150Y188976*
X811024Y181102*
Y188976D02*
Y196850D01*
X846136Y191437D02*
X848999Y186516D01*
Y181102*
X851862Y191437D02*
X848999Y186516D01*
X855083Y191437D02*
Y181102D01*
Y191437D02*
X859736D01*
X855083Y186516D02*
X857947D01*
X855083Y181102D02*
X859736D01*
X867968Y189961D02*
X867252Y190945D01*
X866179Y191437*
X864747*
X863673Y190945*
X862957Y189961*
Y188976*
X863315Y187992*
X863673Y187500*
X864389Y187008*
X866537Y186024*
X867252Y185531*
X867610Y185039*
X867968Y184055*
Y182579*
X867252Y181594*
X866179Y181102*
X864747*
X863673Y181594*
X862957Y182579*
X915928Y189961D02*
Y181102D01*
X912707Y185531D02*
X919149D01*
X928813Y193406D02*
X922370Y177657D01*
X932034Y185531D02*
X938476D01*
X943845Y191437D02*
X942771Y190945D01*
X942055Y189469*
X941698Y187008*
Y185531*
X942055Y183071*
X942771Y181594*
X943845Y181102*
X944561*
X945635Y181594*
X946350Y183071*
X946708Y185531*
Y187008*
X946350Y189469*
X945635Y190945*
X944561Y191437*
X943845*
X950287Y182087D02*
X949929Y181594D01*
X950287Y181102*
X950645Y181594*
X950287Y182087*
X956014Y191437D02*
X954940Y190945D01*
X954224Y189469*
X953866Y187008*
X953866D02*
Y185531D01*
X953866D02*
X954224Y183071D01*
X954940Y181594*
X956014Y181102*
X956730*
X957804Y181594*
X958519Y183071*
X958877Y185531*
Y187008*
X958519Y189469*
X957804Y190945*
X956730Y191437*
X956014*
X637795Y157972D02*
X638511Y158465D01*
X639585Y159941*
Y149606*
X643164Y150591D02*
X642806Y150098D01*
X643164Y149606*
X643522Y150098*
X643164Y150591*
X648533Y159941D02*
X647459Y159449D01*
X647101Y158465*
Y157480*
X647459Y156496*
X648175Y156004*
X649606Y155512*
X650680Y155020*
X651396Y154035*
X651754Y153051*
Y151575*
X651396Y150591*
X651038Y150098*
X649964Y149606*
X648533*
X647459Y150098*
X647101Y150591*
X646743Y151575*
Y153051*
X647101Y154035*
X647817Y155020*
X648890Y155512*
X650322Y156004*
X651038Y156496*
X651396Y157480*
Y158465*
X651038Y159449*
X649964Y159941*
X648533*
X761848D02*
X760774Y159449D01*
X760416Y158465*
Y157480*
X760774Y156496*
X761490Y156004*
X762922Y155512*
X763995Y155020*
X764711Y154035*
X765069Y153051*
Y151575*
X764711Y150591*
X764353Y150098*
X763280Y149606*
X761848*
X760774Y150098*
X760416Y150591*
X760058Y151575*
Y153051*
X760416Y154035*
X761132Y155020*
X762206Y155512*
X763637Y156004*
X764353Y156496*
X764711Y157480*
Y158465*
X764353Y159449*
X763280Y159941*
X761848*
X803150Y149606D02*
X818898D01*
X803150Y165354*
X818898*
X803150Y149606*
X850073Y159941D02*
Y149606D01*
Y159941D02*
X855083Y149606D01*
Y159941D02*
Y149606D01*
X860452Y159941D02*
X859736Y159449D01*
X859020Y158465*
X858662Y157480*
X858305Y156004*
Y153543*
X858662Y152067*
X859020Y151083*
X859736Y150098*
X860452Y149606*
X861884*
X862599Y150098*
X862599D02*
X863315Y151083D01*
X863673Y152067*
X864031Y153543*
Y156004*
X863673Y157480*
X863315Y158465*
X862599Y159449*
X862599D02*
X861884Y159941D01*
X860452*
X915928Y158465D02*
Y149606D01*
X912707Y154035D02*
X919149D01*
X928813Y161909D02*
X922370Y146161D01*
X932034Y154035D02*
X938476D01*
X943845Y159941D02*
X942771Y159449D01*
X942055Y157972*
X941698Y155512*
Y154035*
X942055Y151575*
X942771Y150098*
X943845Y149606*
X944561*
X945635Y150098*
X946350Y151575*
X946708Y154035*
Y155512*
X946350Y157972*
X945635Y159449*
X944561Y159941*
X943845*
X950287Y150591D02*
X949929Y150098D01*
X950287Y149606*
X950645Y150098*
X950287Y150591*
X956014Y159941D02*
X954940Y159449D01*
X954224Y157972*
X953866Y155512*
X953866D02*
Y154035D01*
X953866D02*
X954224Y151575D01*
X954940Y150098*
X956014Y149606*
X956730*
X957804Y150098*
X958519Y151575*
X958877Y154035*
Y155512*
X958519Y157972*
X957804Y159449*
X956730Y159941*
X956014*
X639943Y128445D02*
X638869Y127953D01*
X638153Y126476*
X637795Y124016*
Y122539*
X638153Y120079*
X638869Y118602*
X639943Y118110*
X640659*
X641732Y118602*
X642448Y120079*
X642806Y122539*
Y124016*
X642448Y126476*
X641732Y127953*
X640659Y128445*
X639943*
X646385Y119094D02*
X646027Y118602D01*
X646385Y118110*
X646743Y118602*
X646385Y119094*
X651754Y128445D02*
X650680Y127953D01*
X650322Y126969*
Y125984*
X650680Y125000*
X651396Y124508*
X652827Y124016*
X653901Y123524*
X654617Y122539*
X654975Y121555*
Y120079*
X654617Y119094*
X654259Y118602*
X653185Y118110*
X651754*
X650680Y118602*
X650322Y119094*
X649964Y120079*
Y121555*
X650322Y122539*
X651038Y123524*
X652112Y124016*
X653543Y124508*
X654259Y125000*
X654617Y125984*
Y126969*
X654259Y127953*
X653185Y128445*
X651754*
X659986D02*
X658912Y127953D01*
X658554Y126969*
Y125984*
X658912Y125000*
X659628Y124508*
X661059Y124016*
X662133Y123524*
X662849Y122539*
X663207Y121555*
Y120079*
X662849Y119094*
X662491Y118602*
X661417Y118110*
X659986*
X658912Y118602*
X658554Y119094*
X658196Y120079*
Y121555*
X658554Y122539*
X659270Y123524*
X660344Y124016*
X661775Y124508*
X662491Y125000*
X662849Y125984*
Y126969*
X662491Y127953*
X661417Y128445*
X659986*
X671081Y125000D02*
X670723Y123524D01*
X670007Y122539*
X668933Y122047*
X668576*
X667502Y122539*
X666786Y123524*
X666428Y125000*
Y125492*
X666786Y126969*
X667502Y127953*
X668576Y128445*
X668933*
X670007Y127953*
X670723Y126969*
X671081Y125000*
Y122539*
X670723Y120079*
X670007Y118602*
X668933Y118110*
X668218*
X667144Y118602*
X666786Y119587*
X763458Y128445D02*
X759879Y121555D01*
X765248*
X763458Y128445D02*
Y118110D01*
X803150D02*
X818898Y133858D01*
Y118110*
X803150Y133858*
Y118110*
X850073Y128445D02*
Y118110D01*
Y128445D02*
X855083Y118110D01*
Y128445D02*
Y118110D01*
X860452Y128445D02*
X859736Y127953D01*
X859020Y126969*
X858662Y125984*
X858305Y124508*
Y122047*
X858662Y120571*
X859020Y119587*
X859736Y118602*
X860452Y118110*
X861884*
X862599Y118602*
X862599D02*
X863315Y119587D01*
X863673Y120571*
X864031Y122047*
Y124508*
X863673Y125984*
X863315Y126969*
X862599Y127953*
X862599D02*
X861884Y128445D01*
X860452*
X915928Y126969D02*
Y118110D01*
X912707Y122539D02*
X919149D01*
X928813Y130413D02*
X922370Y114665D01*
X932034Y122539D02*
X938476D01*
X943845Y128445D02*
X942771Y127953D01*
X942055Y126476*
X941698Y124016*
Y122539*
X942055Y120079*
X942771Y118602*
X943845Y118110*
X944561*
X945635Y118602*
X946350Y120079*
X946708Y122539*
Y124016*
X946350Y126476*
X945635Y127953*
X944561Y128445*
X943845*
X950287Y119094D02*
X949929Y118602D01*
X950287Y118110*
X950645Y118602*
X950287Y119094*
X956014Y128445D02*
X954940Y127953D01*
X954224Y126476*
X953866Y124016*
X953866D02*
Y122539D01*
X953866D02*
X954224Y120079D01*
X954940Y118602*
X956014Y118110*
X956730*
X957804Y118602*
X958519Y120079*
X958877Y122539*
Y124016*
X958519Y126476*
X957804Y127953*
X956730Y128445*
X956014*
X639943Y96949D02*
X638869Y96457D01*
X638153Y94980*
X637795Y92520*
Y91043*
X638153Y88583*
X638869Y87106*
X639943Y86614*
X640659*
X641732Y87106*
X642448Y88583*
X642806Y91043*
Y92520*
X642448Y94980*
X641732Y96457*
X640659Y96949*
X639943*
X646385Y87598D02*
X646027Y87106D01*
X646385Y86614*
X646743Y87106*
X646385Y87598*
X651754Y96949D02*
X650680Y96457D01*
X650322Y95472*
Y94488*
X650680Y93504*
X651396Y93012*
X652827Y92520*
X653901Y92028*
X654617Y91043*
X654975Y90059*
Y88583*
X654617Y87598*
X654259Y87106*
X653185Y86614*
X651754*
X650680Y87106*
X650322Y87598*
X649964Y88583*
Y90059*
X650322Y91043*
X651038Y92028*
X652112Y92520*
X653543Y93012*
X654259Y93504*
X654617Y94488*
Y95472*
X654259Y96457*
X653185Y96949*
X651754*
X757911Y94488D02*
Y94980D01*
X758269Y95965*
X758627Y96457*
X759343Y96949*
X760774*
X761490Y96457*
X761848Y95965*
X762206Y94980*
Y93996*
X761848Y93012*
X761132Y91535*
X757553Y86614*
X762564*
X765785Y94980D02*
X766501Y95472D01*
X767574Y96949*
Y86614*
X803150Y94488D02*
X818898D01*
X811024Y86614D02*
Y102362D01*
X817251Y106693D02*
X814961Y98425D01*
X817251Y106693D02*
X819542Y98425D01*
X815820Y101181D02*
X818683D01*
X846136Y96949D02*
X848999Y92028D01*
Y86614*
X851862Y96949D02*
X848999Y92028D01*
X855083Y96949D02*
Y86614D01*
Y96949D02*
X859736D01*
X855083Y92028D02*
X857947D01*
X855083Y86614D02*
X859736D01*
X867968Y95472D02*
X867252Y96457D01*
X866179Y96949*
X864747*
X863673Y96457*
X862957Y95472*
Y94488*
X863315Y93504*
X863673Y93012*
X864389Y92520*
X866537Y91535*
X867252Y91043*
X867610Y90551*
X867968Y89567*
Y88091*
X867252Y87106*
X866179Y86614*
X864747*
X863673Y87106*
X862957Y88091*
X915928Y95472D02*
Y86614D01*
X912707Y91043D02*
X919149D01*
X928813Y98917D02*
X922370Y83169D01*
X932034Y91043D02*
X938476D01*
X943845Y96949D02*
X942771Y96457D01*
X942055Y94980*
X941698Y92520*
Y91043*
X942055Y88583*
X942771Y87106*
X943845Y86614*
X944561*
X945635Y87106*
X946350Y88583*
X946708Y91043*
Y92520*
X946350Y94980*
X945635Y96457*
X944561Y96949*
X943845*
X950287Y87598D02*
X949929Y87106D01*
X950287Y86614*
X950645Y87106*
X950287Y87598*
X956014Y96949D02*
X954940Y96457D01*
X954224Y94980*
X953866Y92520*
X953866D02*
Y91043D01*
X953866D02*
X954224Y88583D01*
X954940Y87106*
X956014Y86614*
X956730*
X957804Y87106*
X958519Y88583*
X958877Y91043*
Y92520*
X958519Y94980*
X957804Y96457*
X956730Y96949*
X956014*
G54D67*
X629921Y330709D02*
X968504D01*
X629921Y299213D02*
X968504D01*
X629921Y267717D02*
X968504D01*
X629921Y236220D02*
X968504D01*
X629921Y204724D02*
X968504D01*
X629921Y173228D02*
X968504D01*
X629921Y141732D02*
X968504D01*
X629921Y110236D02*
X968504D01*
X629921Y78740D02*
X968504D01*
X629921Y330709D02*
Y78740D01*
X740157Y330709D02*
Y78740D01*
X787402Y330709D02*
Y78740D01*
X834646Y330709D02*
Y78740D01*
X905512Y330709D02*
Y78740D01*
X968504Y330709D02*
Y78740D01*
G74*
X0Y0D02*
M02*
