%
T1C.01575F095S3
X046838Y055138
X06387Y05562
X064085Y044069
X077151Y042517
X075898Y053673
X07687Y05487
X07587Y05512
X07837Y05537
X07487Y05537
X08431Y053588
X08387Y05012
X079605Y043496
X080666Y041782
X08717Y04222
X09047Y04222
X08717Y04447
X09047Y04447
X088828Y045068
X08717Y04787
X09047Y04787
X08717Y05012
X09047Y05012
X09047Y05357
X08717Y05357
X08717Y05582
X09047Y05582
X099161Y055043
X094203Y048609
X101292Y045848
T2C.01969F095S3
X10292Y03967G85X101167Y03967
X104584Y043089G85X104584Y041336
X104582Y056167G85X104582Y054414
X101169Y057833G85X102922Y057833
X043988Y057832G85X045742Y057832
X042324Y054412G85X042324Y056165
X042326Y041335G85X042326Y043088
X04574Y039669G85X043987Y039669
T3C.0315F197S55
X056133Y05677
X058496Y05677
X057708Y05677
X056921Y05677
X06007Y05677
X059283Y05677
X060858Y05677
X061645Y05677
X062433Y05677
X06322Y05677
X075883Y05677
X075096Y05677
X079033Y05677
X078246Y05677
X077458Y05677
X076671Y05677
X080608Y05677
X07982Y05677
X081395Y05677
X08297Y05677
X082183Y05677
T4C.035F197S55
X04437Y04087
X04437Y04387
X04162Y04812
X04462Y04812
X04462Y04937
X04162Y04937
X04487Y05312
X04362Y05312
X04487Y05612
X04362Y05612
X04637Y05662
X04937Y05662
X04962Y05462
X04712Y04087
X05012Y04087
X05372Y04107
X05587Y04262
X05587Y04387
X05562Y04487
X05562Y04787
X05637Y04887
X05387Y05062
X05412Y05337
X05412Y05462
X05262Y05462
X05712Y05462
X05712Y05337
X05687Y05062
X05937Y04887
X05887Y04387
X05887Y04262
X05772Y04107
X06737Y04067
X06837Y04237
X06887Y05137
X06887Y05437
X06487Y05587
X06887Y05587
X07012Y05437
X07012Y05137
X06962Y04962
X06962Y04837
X06962Y04737
X07087Y04462
X06962Y04437
X07137Y04237
X07137Y04067
X07562Y04072
X07162Y04337
X07462Y04337
X07387Y04462
X07262Y04837
X07262Y04962
X07187Y05337
X07487Y05337
X07487Y05462
X07187Y05462
X08067Y05477
X08362Y04412
X07962Y04072
X08362Y04012
X09337Y04037
X09337Y04437
X09312Y05112
X09312Y05412
X08467Y05477
X09312Y05512
X09737Y05712
X09837Y05612
X09612Y05512
X09737Y05412
X09762Y04187
X09662Y04062
X09962Y04062
X10062Y04187
X10262Y04812
X10262Y04937
X10237Y05312
X10362Y05312
X10362Y05612
X10137Y05612
X10237Y05612
X10562Y04937
X10562Y04812
T5C.035F197S55
X04887Y05037
X07882Y05037
X063921Y050319
X09827Y04727
T6C.07087F081S55
X08512Y04012
X08512Y04587
X08512Y05162
X08512Y05737
X09187Y05737
X09187Y05162
X09187Y04587
X09187Y04012
T7C.11F069S658
X05187Y04052
X05187Y05697
X07347Y05697
X07347Y04052
X09502Y04052
X09502Y05697
M30
