*
*
G04 PADS Layout (Build Number 2007.42.1) generated Gerber (RS-274-X) file*
G04 PC Version=2.1*
*
%IN "kt011_v5.pcb"*%
*
%MOIN*%
*
%FSLAX35Y35*%
*
*
*
*
G04 PC Standard Apertures*
*
*
G04 Thermal Relief Aperture macro.*
%AMTER*
1,1,$1,0,0*
1,0,$1-$2,0,0*
21,0,$3,$4,0,0,45*
21,0,$3,$4,0,0,135*
%
*
*
G04 Annular Aperture macro.*
%AMANN*
1,1,$1,0,0*
1,0,$2,0,0*
%
*
*
G04 Odd Aperture macro.*
%AMODD*
1,1,$1,0,0*
1,0,$1-0.005,0,0*
%
*
*
G04 PC Custom Aperture Macros*
*
*
*
*
*
*
G04 PC Aperture Table*
*
%ADD023C,0.001*%
%ADD068C,0.07*%
%ADD069C,0.06315*%
%ADD070C,0.12*%
%ADD071C,0.04937*%
%ADD072C,0.08087*%
*
*
*
*
G04 PC Copper Outlines (0)*
G04 Layer Name kt011_v5.pcb - dark (0)*
%LPD*%
*
*
G04 PC Area=Custom_Thermal*
*
G04 PC Custom Flashes*
G04 Layer Name kt011_v5.pcb - flashes*
%LPD*%
*
*
G04 PC Circuitry*
G04 Layer Name kt011_v5.pcb - circuitry*
%LPD*%
*
G54D23*
G01X1044814Y431940D02*
X1044946Y432432D01*
X1045306Y432792*
X1045798Y432924*
X1046290Y432792*
X1046650Y432432*
X1046782Y431940*
Y412255*
X1046650Y411763*
X1046290Y411402*
X1045798Y411270*
X1045306Y411402*
X1044946Y411763*
X1044814Y412255*
Y431940*
Y562747D02*
X1044946Y563239D01*
X1045306Y563599*
X1045798Y563731*
X1046290Y563599*
X1046650Y563239*
X1046782Y562747*
Y543062*
X1046650Y542570*
X1046290Y542209*
X1045798Y542078*
X1045306Y542209*
X1044946Y542570*
X1044814Y543062*
Y562747*
X1009578Y396704D02*
X1009709Y397196D01*
X1010070Y397556*
X1010562Y397688*
X1030247*
X1030739Y397556*
X1031099Y397196*
X1031231Y396704*
X1031099Y396211*
X1030739Y395851*
X1030247Y395719*
X1010562*
X1010070Y395851*
X1009709Y396211*
X1009578Y396704*
Y578298D02*
X1009709Y578790D01*
X1010070Y579150*
X1010562Y579282*
X1030247*
X1030739Y579150*
X1031099Y578790*
X1031231Y578298*
X1031099Y577806*
X1030739Y577446*
X1030247Y577314*
X1010562*
X1010070Y577446*
X1009709Y577806*
X1009578Y578298*
X437770D02*
X437902Y578790D01*
X438263Y579150*
X438755Y579282*
X458440*
X458932Y579150*
X459292Y578790*
X459424Y578298*
X459292Y577806*
X458932Y577446*
X458440Y577314*
X438755*
X438263Y577446*
X437902Y577806*
X437770Y578298*
Y396704D02*
X437902Y397196D01*
X438263Y397556*
X438755Y397688*
X458440*
X458932Y397556*
X459292Y397196*
X459424Y396704*
X459292Y396211*
X458932Y395851*
X458440Y395719*
X438755*
X438263Y395851*
X437902Y396211*
X437770Y396704*
X422219Y562747D02*
X422351Y563239D01*
X422711Y563599*
X423204Y563731*
X423696Y563599*
X424056Y563239*
X424188Y562747*
Y543062*
X424056Y542570*
X423696Y542209*
X423204Y542078*
X422711Y542209*
X422351Y542570*
X422219Y543062*
Y562747*
Y431940D02*
X422351Y432432D01*
X422711Y432792*
X423204Y432924*
X423696Y432792*
X424056Y432432*
X424188Y431940*
Y412255*
X424056Y411763*
X423696Y411402*
X423204Y411270*
X422711Y411402*
X422351Y411763*
X422219Y412255*
Y431940*
X1049213Y580709D02*
X420079D01*
Y520866*
X393701*
X420079Y393701D02*
X1049213D01*
X393701Y454331D02*
X441732D01*
X393701Y520866D02*
Y454331D01*
X420079Y448031D02*
Y393701D01*
X441732Y448031D02*
X420079D01*
X441732Y454331D02*
Y448031D01*
X1049213Y393701D02*
Y448031D01*
X1027559Y454331D02*
X1075197D01*
X1027559Y448031D02*
Y454331D01*
X1049213Y448031D02*
X1027559D01*
X1075197Y454331D02*
Y520866D01*
X1049213*
Y580709*
G54D68*
X806701Y547701D03*
X846701D03*
X933701Y443701D03*
Y403701D03*
X756201Y407201D03*
X796201D03*
X673701Y406701D03*
X713701D03*
X537201Y410701D03*
X577201D03*
X836201Y441201D03*
Y401201D03*
X648701Y558701D03*
X688701D03*
X436201Y531201D03*
Y561201D03*
X448701Y531201D03*
Y561201D03*
X463701Y566201D03*
X493701D03*
X496201Y546201D03*
X526201D03*
X541201D03*
X571201D03*
X541201Y533701D03*
X571201D03*
X416201Y493701D03*
X446201D03*
X416201Y481201D03*
X446201D03*
X443701Y438701D03*
Y408701D03*
X471201D03*
X501201D03*
X558701Y426201D03*
X588701D03*
X558701Y438701D03*
X588701D03*
X556201Y448701D03*
Y478701D03*
X563701Y488701D03*
X593701D03*
X538701Y506201D03*
X568701D03*
X688701Y543701D03*
Y513701D03*
X701201Y543701D03*
Y513701D03*
X696201Y496201D03*
X726201D03*
X696201Y483701D03*
X726201D03*
X708701Y446201D03*
X738701D03*
X716201Y433701D03*
X746201D03*
X696201Y473701D03*
Y443701D03*
X683701Y423701D03*
X713701D03*
X931201Y551201D03*
X961201D03*
X931201Y541201D03*
Y511201D03*
X973701Y571201D03*
Y541201D03*
X983701Y561201D03*
X1013701D03*
X1023701D03*
Y531201D03*
X1036201Y561201D03*
Y531201D03*
X1026201Y493701D03*
X1056201D03*
X1026201Y481201D03*
X1056201D03*
X976201Y418701D03*
X1006201D03*
X966201Y406201D03*
X996201D03*
X718701Y546201D03*
X748701D03*
X718701Y533701D03*
X748701D03*
G54D69*
X632201Y565437D02*
Y569965D01*
X624327Y565437D02*
Y569965D01*
X616453Y565437D02*
Y569965D01*
X608579Y565437D02*
Y569965D01*
X600705Y565437D02*
Y569965D01*
X592831Y565437D02*
Y569965D01*
X584957Y565437D02*
Y569965D01*
X577083Y565437D02*
Y569965D01*
X569209Y565437D02*
Y569965D01*
X561335Y565437D02*
Y569965D01*
X829701Y565437D02*
Y569965D01*
X821827Y565437D02*
Y569965D01*
X813953Y565437D02*
Y569965D01*
X806079Y565437D02*
Y569965D01*
X798205Y565437D02*
Y569965D01*
X790331Y565437D02*
Y569965D01*
X782457Y565437D02*
Y569965D01*
X774583Y565437D02*
Y569965D01*
X766709Y565437D02*
Y569965D01*
X758835Y565437D02*
Y569965D01*
X750961Y565437D02*
Y569965D01*
G54D70*
X518701Y405201D03*
Y569701D03*
X734701D03*
Y405201D03*
X950201D03*
Y569701D03*
G54D71*
X1029214Y396697D02*
X1011651D01*
X1045839Y430908D02*
Y413345D01*
X1045819Y561683D02*
Y544120D01*
X1011670Y578328D02*
X1029233D01*
X439868Y578317D02*
X457431D01*
X423243Y544107D02*
Y561670D01*
X423264Y413332D02*
Y430895D01*
X457412Y396687D02*
X439849D01*
G54D72*
X851201Y573701D03*
X918701D03*
X851201Y516201D03*
X918701D03*
X851201Y458701D03*
X918701D03*
X851201Y401201D03*
X918701D03*
X0Y0D02*
M02*
