*
*
G04 PADS Layout (Build Number 2007.42.1) generated Gerber (RS-274-X) file*
G04 PC Version=2.1*
*
%IN "1702-391_v6.pcb"*%
*
%MOIN*%
*
%FSLAX35Y35*%
*
*
*
*
G04 PC Standard Apertures*
*
*
G04 Thermal Relief Aperture macro.*
%AMTER*
1,1,$1,0,0*
1,0,$1-$2,0,0*
21,0,$3,$4,0,0,45*
21,0,$3,$4,0,0,135*
%
*
*
G04 Annular Aperture macro.*
%AMANN*
1,1,$1,0,0*
1,0,$2,0,0*
%
*
*
G04 Odd Aperture macro.*
%AMODD*
1,1,$1,0,0*
1,0,$1-0.005,0,0*
%
*
*
G04 PC Custom Aperture Macros*
*
*
*
*
*
*
G04 PC Aperture Table*
*
%ADD012R,0.06X0.06*%
%ADD013C,0.06*%
%ADD014R,0.06299X0.06299*%
%ADD015C,0.06299*%
%ADD016C,0.06693*%
%ADD017C,0.0689*%
%ADD018C,0.06496*%
%ADD019C,0.11811*%
%ADD020C,0.07874*%
%ADD021C,0.08661*%
%ADD039C,0.01*%
%ADD040C,0.05512*%
%ADD041C,0.01969*%
*
*
*
*
G04 PC Copper Outlines (0)*
G04 Layer Name 1702-391_v6.pcb - dark (0)*
%LPD*%
*
*
G04 PC Area=Custom_Thermal*
*
G04 PC Custom Flashes*
G04 Layer Name 1702-391_v6.pcb - flashes*
%LPD*%
*
*
G04 PC Circuitry*
G04 Layer Name 1702-391_v6.pcb - circuitry*
%LPD*%
*
G54D12*
G01X187500Y267500D03*
Y372500D03*
X282500D03*
Y267500D03*
X317500Y312500D03*
X372500D03*
X507500Y452500D03*
X597500Y497500D03*
G54D13*
X177500Y267500D03*
X167500D03*
X157500D03*
Y237500D03*
X167500D03*
X177500D03*
X187500D03*
X177500Y372500D03*
X167500D03*
X157500D03*
Y342500D03*
X167500D03*
X177500D03*
X187500D03*
X272500Y372500D03*
X262500D03*
X252500D03*
Y342500D03*
X262500D03*
X272500D03*
X282500D03*
X272500Y267500D03*
X262500D03*
X252500D03*
Y237500D03*
X262500D03*
X272500D03*
X282500D03*
X327500Y312500D03*
X337500D03*
X347500D03*
Y342500D03*
X337500D03*
X327500D03*
X317500D03*
X382500Y312500D03*
X392500D03*
X402500D03*
Y342500D03*
X392500D03*
X382500D03*
X372500D03*
X497500Y452500D03*
X487500D03*
X477500D03*
Y422500D03*
X487500D03*
X497500D03*
X507500D03*
X147500Y227500D03*
X197500D03*
X147500Y212500D03*
X197500D03*
X137500D03*
Y262500D03*
X122500Y212500D03*
Y262500D03*
X217500Y212500D03*
Y262500D03*
X232500Y212500D03*
Y262500D03*
X162500Y117500D03*
Y167500D03*
X147500Y117500D03*
Y167500D03*
X242500Y282500D03*
X292500D03*
X242500Y297500D03*
X292500D03*
X242500Y312500D03*
X292500D03*
X242500Y327500D03*
X292500D03*
X147500Y282500D03*
X197500D03*
X147500Y297500D03*
X197500D03*
X147500Y312500D03*
X197500D03*
X127500Y317500D03*
Y367500D03*
X222500Y317500D03*
Y367500D03*
X147500Y427500D03*
X197500D03*
X147500Y442500D03*
X197500D03*
X242500Y427500D03*
X292500D03*
X242500Y442500D03*
X292500D03*
X362500Y377500D03*
Y427500D03*
X417500Y377500D03*
Y427500D03*
X447500D03*
Y477500D03*
X537500Y417500D03*
X587500D03*
X537500Y402500D03*
X587500D03*
X537500Y387500D03*
X587500D03*
X537500Y372500D03*
X587500D03*
X537500Y357500D03*
X587500D03*
X537500Y342500D03*
X587500D03*
X527500Y237500D03*
X577500D03*
X587500D03*
X637500D03*
X577500Y252500D03*
X627500D03*
X577500Y267500D03*
X627500D03*
X537500Y467500D03*
X557500D03*
X607500Y452500D03*
X627500D03*
X537500Y322500D03*
X557500D03*
X547500Y252500D03*
X567500D03*
X487500Y362500D03*
X507500D03*
X437500D03*
X457500D03*
X377500Y357500D03*
X397500D03*
X322500D03*
X342500D03*
X322500Y372500D03*
X342500D03*
X377500D03*
X397500D03*
X437500Y412500D03*
X457500D03*
X487500D03*
X507500D03*
X272500Y487500D03*
X292500D03*
X242500D03*
X262500D03*
X177500D03*
X197500D03*
X147500D03*
X167500D03*
X147500Y412500D03*
X167500D03*
X177500D03*
X197500D03*
X142500Y347500D03*
Y367500D03*
X237500Y347500D03*
Y367500D03*
X242500Y412500D03*
X262500D03*
X272500D03*
X292500D03*
X147500Y327500D03*
X197500D03*
X242500Y212500D03*
X292500D03*
X242500Y227500D03*
X292500D03*
X497500Y287500D03*
Y317500D03*
X477500Y287500D03*
Y317500D03*
X447500Y287500D03*
Y317500D03*
X427500Y287500D03*
Y317500D03*
X437500D03*
Y287500D03*
X457500Y317500D03*
Y287500D03*
X487500Y317500D03*
Y287500D03*
X507500Y317500D03*
Y287500D03*
X617500Y332500D03*
X627500D03*
X612500Y392500D03*
X622500D03*
X497500Y337500D03*
X507500D03*
X447500D03*
X457500D03*
X452500Y387500D03*
X442500D03*
X502500D03*
X492500D03*
X477500Y467500D03*
X527500D03*
X477500Y482500D03*
X527500D03*
X477500Y497500D03*
X527500D03*
X387500Y297500D03*
Y287500D03*
X372500Y297500D03*
Y287500D03*
X332500Y297500D03*
Y287500D03*
X317500Y297500D03*
Y287500D03*
X557500Y487500D03*
X547500D03*
X587500Y497500D03*
X577500D03*
Y467500D03*
X587500D03*
X597500D03*
X312500Y222500D03*
X332500D03*
X352500D03*
Y242500D03*
X332500D03*
X312500D03*
X367500Y222500D03*
X387500D03*
X407500D03*
Y242500D03*
X387500D03*
X367500D03*
Y187500D03*
X387500D03*
X407500D03*
Y207500D03*
X387500D03*
X367500D03*
X312500Y187500D03*
X332500D03*
X352500D03*
Y207500D03*
X332500D03*
X312500D03*
X607500Y422500D03*
X627500D03*
X572500Y322500D03*
X592500D03*
G54D14*
X547500Y277500D03*
G54D15*
X557500D03*
X567500D03*
X577500D03*
X587500D03*
X597500D03*
X607500D03*
X617500D03*
X627500D03*
Y307500D03*
X617500D03*
X607500D03*
X597500D03*
X587500D03*
X577500D03*
X567500D03*
X557500D03*
X547500D03*
G54D16*
X147500Y187500D03*
X157500Y197500D03*
X167500Y187500D03*
X242500D03*
X252500Y197500D03*
X262500Y187500D03*
X197500Y197500D03*
X187500Y187500D03*
X177500Y197500D03*
X292500D03*
X282500Y187500D03*
X272500Y197500D03*
X217500Y302500D03*
X227500Y292500D03*
X217500Y282500D03*
X122500Y302500D03*
X132500Y292500D03*
X122500Y282500D03*
X182500Y397500D03*
X172500Y387500D03*
X162500Y397500D03*
X277500D03*
X267500Y387500D03*
X257500Y397500D03*
X342500D03*
X332500Y387500D03*
X322500Y397500D03*
X397500D03*
X387500Y387500D03*
X377500Y397500D03*
X397500Y422500D03*
X387500Y412500D03*
X377500Y422500D03*
X342500D03*
X332500Y412500D03*
X322500Y422500D03*
X537500Y432500D03*
X547500Y442500D03*
X557500Y432500D03*
X567500D03*
X577500Y442500D03*
X587500Y432500D03*
G54D17*
X312500Y257500D03*
Y272500D03*
X367500Y257500D03*
Y272500D03*
X597500Y112500D03*
Y132500D03*
X157500Y472500D03*
X252500D03*
X242500Y457500D03*
X147500D03*
X462500Y477500D03*
X597500Y357500D03*
X547500Y187500D03*
G54D18*
X351870Y257500D03*
Y272500D03*
X406870Y257500D03*
Y272500D03*
X558130Y112500D03*
Y132500D03*
X196870Y472500D03*
X291870D03*
X281870Y457500D03*
X186870D03*
X462500Y438130D03*
X636870Y357500D03*
X547500Y148130D03*
G54D19*
X182500Y147500D03*
X202500D03*
X222500D03*
X242500D03*
X467500D03*
X487500D03*
X507500D03*
X527500D03*
X307500D03*
X327500D03*
X347500D03*
X367500D03*
X387500D03*
X407500D03*
X327500Y462500D03*
X347500D03*
X367500D03*
X387500D03*
X407500D03*
X427500D03*
X117500Y117500D03*
X632500D03*
Y492500D03*
X117500D03*
G54D20*
X562500Y152500D03*
X592500D03*
X612500D03*
X632500D03*
Y182500D03*
X592500D03*
X612500D03*
X562500D03*
G54D21*
X507500Y272500D03*
X477500D03*
X457500D03*
X427500D03*
X442500Y192500D03*
X492500D03*
Y272500D03*
X442500D03*
G54D39*
X537500Y220701D02*
X529299Y212500D01*
X537500Y204299*
X545701Y212500*
X537500Y220701*
X536799Y205000D02*
X538201D01*
X535799Y206000D02*
X539201D01*
X534799Y207000D02*
X540201D01*
X533799Y208000D02*
X541201D01*
X532799Y209000D02*
X542201D01*
X531799Y210000D02*
X543201D01*
X530799Y211000D02*
X544201D01*
X529799Y212000D02*
X545201D01*
X529799Y213000D02*
X545201D01*
X530799Y214000D02*
X544201D01*
X531799Y215000D02*
X543201D01*
X532799Y216000D02*
X542201D01*
X533799Y217000D02*
X541201D01*
X534799Y218000D02*
X540201D01*
X535799Y219000D02*
X539201D01*
X536799Y220000D02*
X538201D01*
X530000Y211799D02*
Y213201D01*
X531000Y210799D02*
Y214201D01*
X532000Y209799D02*
Y215201D01*
X533000Y208799D02*
Y216201D01*
X534000Y207799D02*
Y217201D01*
X535000Y206799D02*
Y218201D01*
X536000Y205799D02*
Y219201D01*
X537000Y204799D02*
Y220201D01*
X538000Y204799D02*
Y220201D01*
X539000Y205799D02*
Y219201D01*
X540000Y206799D02*
Y218201D01*
X541000Y207799D02*
Y217201D01*
X542000Y208799D02*
Y216201D01*
X543000Y209799D02*
Y215201D01*
X544000Y210799D02*
Y214201D01*
X545000Y211799D02*
Y213201D01*
X627500Y220701D02*
X619299Y212500D01*
X627500Y204299*
X635701Y212500*
X627500Y220701*
X626799Y205000D02*
X628201D01*
X625799Y206000D02*
X629201D01*
X624799Y207000D02*
X630201D01*
X623799Y208000D02*
X631201D01*
X622799Y209000D02*
X632201D01*
X621799Y210000D02*
X633201D01*
X620799Y211000D02*
X634201D01*
X619799Y212000D02*
X635201D01*
X619799Y213000D02*
X635201D01*
X620799Y214000D02*
X634201D01*
X621799Y215000D02*
X633201D01*
X622799Y216000D02*
X632201D01*
X623799Y217000D02*
X631201D01*
X624799Y218000D02*
X630201D01*
X625799Y219000D02*
X629201D01*
X626799Y220000D02*
X628201D01*
X620000Y211799D02*
Y213201D01*
X621000Y210799D02*
Y214201D01*
X622000Y209799D02*
Y215201D01*
X623000Y208799D02*
Y216201D01*
X624000Y207799D02*
Y217201D01*
X625000Y206799D02*
Y218201D01*
X626000Y205799D02*
Y219201D01*
X627000Y204799D02*
Y220201D01*
X628000Y204799D02*
Y220201D01*
X629000Y205799D02*
Y219201D01*
X630000Y206799D02*
Y218201D01*
X631000Y207799D02*
Y217201D01*
X632000Y208799D02*
Y216201D01*
X633000Y209799D02*
Y215201D01*
X634000Y210799D02*
Y214201D01*
X635000Y211799D02*
Y213201D01*
X427500Y199170D02*
X420830Y192500D01*
X427500Y185830*
X434170Y192500*
X427500Y199170*
X427330Y186000D02*
X427670D01*
X426330Y187000D02*
X428670D01*
X425330Y188000D02*
X429670D01*
X424330Y189000D02*
X430670D01*
X423330Y190000D02*
X431670D01*
X422330Y191000D02*
X432670D01*
X421330Y192000D02*
X433670D01*
X421330Y193000D02*
X433670D01*
X422330Y194000D02*
X432670D01*
X423330Y195000D02*
X431670D01*
X424330Y196000D02*
X430670D01*
X425330Y197000D02*
X429670D01*
X426330Y198000D02*
X428670D01*
X427330Y199000D02*
X427670D01*
X421000Y192330D02*
Y192670D01*
X422000Y191330D02*
Y193670D01*
X423000Y190330D02*
Y194670D01*
X424000Y189330D02*
Y195670D01*
X425000Y188330D02*
Y196670D01*
X426000Y187330D02*
Y197670D01*
X427000Y186330D02*
Y198670D01*
X428000Y186330D02*
Y198670D01*
X429000Y187330D02*
Y197670D01*
X430000Y188330D02*
Y196670D01*
X431000Y189330D02*
Y195670D01*
X432000Y190330D02*
Y194670D01*
X433000Y191330D02*
Y193670D01*
X434000Y192330D02*
Y192670D01*
X507500Y199170D02*
X500830Y192500D01*
X507500Y185830*
X514170Y192500*
X507500Y199170*
X507330Y186000D02*
X507670D01*
X506330Y187000D02*
X508670D01*
X505330Y188000D02*
X509670D01*
X504330Y189000D02*
X510670D01*
X503330Y190000D02*
X511670D01*
X502330Y191000D02*
X512670D01*
X501330Y192000D02*
X513670D01*
X501330Y193000D02*
X513670D01*
X502330Y194000D02*
X512670D01*
X503330Y195000D02*
X511670D01*
X504330Y196000D02*
X510670D01*
X505330Y197000D02*
X509670D01*
X506330Y198000D02*
X508670D01*
X507330Y199000D02*
X507670D01*
X501000Y192330D02*
Y192670D01*
X502000Y191330D02*
Y193670D01*
X503000Y190330D02*
Y194670D01*
X504000Y189330D02*
Y195670D01*
X505000Y188330D02*
Y196670D01*
X506000Y187330D02*
Y197670D01*
X507000Y186330D02*
Y198670D01*
X508000Y186330D02*
Y198670D01*
X509000Y187330D02*
Y197670D01*
X510000Y188330D02*
Y196670D01*
X511000Y189330D02*
Y195670D01*
X512000Y190330D02*
Y194670D01*
X513000Y191330D02*
Y193670D01*
X514000Y192330D02*
Y192670D01*
X457500Y199170D02*
X450830Y192500D01*
X457500Y185830*
X464170Y192500*
X457500Y199170*
X457330Y186000D02*
X457670D01*
X456330Y187000D02*
X458670D01*
X455330Y188000D02*
X459670D01*
X454330Y189000D02*
X460670D01*
X453330Y190000D02*
X461670D01*
X452330Y191000D02*
X462670D01*
X451330Y192000D02*
X463670D01*
X451330Y193000D02*
X463670D01*
X452330Y194000D02*
X462670D01*
X453330Y195000D02*
X461670D01*
X454330Y196000D02*
X460670D01*
X455330Y197000D02*
X459670D01*
X456330Y198000D02*
X458670D01*
X457330Y199000D02*
X457670D01*
X451000Y192330D02*
Y192670D01*
X452000Y191330D02*
Y193670D01*
X453000Y190330D02*
Y194670D01*
X454000Y189330D02*
Y195670D01*
X455000Y188330D02*
Y196670D01*
X456000Y187330D02*
Y197670D01*
X457000Y186330D02*
Y198670D01*
X458000Y186330D02*
Y198670D01*
X459000Y187330D02*
Y197670D01*
X460000Y188330D02*
Y196670D01*
X461000Y189330D02*
Y195670D01*
X462000Y190330D02*
Y194670D01*
X463000Y191330D02*
Y193670D01*
X464000Y192330D02*
Y192670D01*
X477500Y199170D02*
X470830Y192500D01*
X477500Y185830*
X484170Y192500*
X477500Y199170*
X477330Y186000D02*
X477670D01*
X476330Y187000D02*
X478670D01*
X475330Y188000D02*
X479670D01*
X474330Y189000D02*
X480670D01*
X473330Y190000D02*
X481670D01*
X472330Y191000D02*
X482670D01*
X471330Y192000D02*
X483670D01*
X471330Y193000D02*
X483670D01*
X472330Y194000D02*
X482670D01*
X473330Y195000D02*
X481670D01*
X474330Y196000D02*
X480670D01*
X475330Y197000D02*
X479670D01*
X476330Y198000D02*
X478670D01*
X477330Y199000D02*
X477670D01*
X471000Y192330D02*
Y192670D01*
X472000Y191330D02*
Y193670D01*
X473000Y190330D02*
Y194670D01*
X474000Y189330D02*
Y195670D01*
X475000Y188330D02*
Y196670D01*
X476000Y187330D02*
Y197670D01*
X477000Y186330D02*
Y198670D01*
X478000Y186330D02*
Y198670D01*
X479000Y187330D02*
Y197670D01*
X480000Y188330D02*
Y196670D01*
X481000Y189330D02*
Y195670D01*
X482000Y190330D02*
Y194670D01*
X483000Y191330D02*
Y193670D01*
X484000Y192330D02*
Y192670D01*
X442909Y132090D02*
X441343Y123047D01*
X439778Y132090D02*
X441343Y123047D01*
X439778Y132090D02*
X438212Y123047D01*
X436646Y132090D02*
X438212Y123047D01*
X433514Y123908D02*
X433827Y123478D01*
X433514Y123047*
X433201Y123478*
X433514Y123908*
X423180Y132090D02*
Y123047D01*
Y132090D02*
X420674Y123047D01*
X418169Y132090D02*
X420674Y123047D01*
X418169Y132090D02*
Y123047D01*
X415350Y132090D02*
Y123047D01*
Y132090D02*
X411279D01*
X415350Y127784D02*
X412845D01*
X415350Y123047D02*
X411279D01*
X408461Y132090D02*
Y123047D01*
X405642Y132090D02*
Y123047D01*
Y132090D02*
X401258Y123047D01*
Y132090D02*
Y123047D01*
X398439Y132090D02*
Y123047D01*
Y132090D02*
X394368D01*
X398439Y127784D02*
X395934D01*
X398439Y123047D02*
X394368D01*
X391549Y132090D02*
Y123047D01*
Y132090D02*
X388731D01*
X387791Y131659*
X387478Y131229*
X387165Y130367*
Y129506*
X387478Y128645*
X387791Y128214*
X388731Y127784*
X391549*
X389357D02*
X387165Y123047D01*
X382154Y132090D02*
Y123047D01*
X384346Y132090D02*
X379962D01*
X372759D02*
X377143Y123047D01*
Y132090D02*
X372759D01*
X377143Y123047D02*
X372759D01*
X360859Y132090D02*
X361485Y131659D01*
X362111Y130798*
X362424Y129937*
X362738Y128645*
Y126492*
X362424Y125200*
X362111Y124339*
X361485Y123478*
X360859Y123047*
X359606*
X358980Y123478*
X358353Y124339*
X358040Y125200*
X357727Y126492*
Y128645*
X358040Y129937*
X358353Y130798*
X358980Y131659*
X359606Y132090*
X360859*
X354908D02*
Y123047D01*
X351150*
X348332Y132090D02*
Y123047D01*
Y132090D02*
X344260D01*
X348332Y127784D02*
X345826D01*
X348332Y123047D02*
X344260D01*
X337058Y130798D02*
X337684Y131659D01*
X338623Y132090*
X339876*
X340816Y131659*
X341442Y130798*
Y129937*
X341129Y129075*
X340816Y128645*
X340189Y128214*
X338310Y127353*
X337684Y126922*
X337371Y126492*
X337058Y125631*
Y124339*
X337684Y123478*
X338623Y123047*
X339876*
X340816Y123478*
X341442Y124339*
X334239Y132090D02*
Y123047D01*
Y132090D02*
X330168D01*
X334239Y127784D02*
X331734D01*
X334239Y123047D02*
X330168D01*
X327349Y132090D02*
Y123047D01*
Y132090D02*
X322965Y123047D01*
Y132090D02*
Y123047D01*
X436365Y114882D02*
Y115312D01*
X436679Y115743*
X436992*
X437305Y115312*
X437618Y114451*
X438244Y112298*
X438871Y111006*
X439497Y110145*
X440123Y109715*
X441376*
X442003Y110145*
X442316Y110576*
X442629Y111437*
Y112298*
X442316Y113159*
X442003Y113590*
X439810Y115312*
X439497Y115743*
X439184Y116604*
Y117466*
X439184D02*
X439497Y118327D01*
X440123Y118757*
X440750Y118327*
X441063Y117466*
X441063D02*
Y116604D01*
X440750Y115312*
X440123Y114021*
X438558Y111006*
X437931Y110145*
X437305Y109715*
X436679*
X436365Y110145*
Y110576*
X421646Y116604D02*
X421960Y117466D01*
X421960D02*
X422586Y118327D01*
X423212Y118757*
X424465*
X425091Y118327*
X425718Y117466*
X425718D02*
X426031Y116604D01*
X426344Y115312*
Y113159*
X426031Y111868*
X425718Y111006*
X425091Y110145*
X424465Y109715*
X423212*
X422586Y110145*
X421960Y111006*
X421646Y111868*
X416949Y118757D02*
X417575Y118327D01*
X418202Y117466*
X418202D02*
X418515Y116604D01*
X418828Y115312*
Y113159*
X418515Y111868*
X418202Y111006*
X417575Y110145*
X416949Y109715*
X415696*
X415070Y110145*
X414443Y111006*
X414130Y111868*
X413817Y113159*
Y115312*
X414130Y116604*
X414443Y117466*
X414443D02*
X415070Y118327D01*
X415696Y118757*
X416949*
X394087D02*
X396593Y109715D01*
X394087Y118757D02*
X391582Y109715D01*
X395653Y112729D02*
X392521D01*
X383126Y120480D02*
X388763Y106700D01*
X375923Y117466D02*
X376550Y118327D01*
X377489Y118757*
X378742*
X379681Y118327*
X380308Y117466*
X380308D02*
Y116604D01*
X379995Y115743*
X379681Y115312*
X379055Y114882*
X377176Y114021*
X376550Y113590*
X376237Y113159*
X375923Y112298*
Y111006*
X376550Y110145*
X377489Y109715*
X378742*
X379681Y110145*
X380308Y111006*
X358699Y117035D02*
X358073Y117466D01*
X358073D02*
X357133Y118757D01*
Y109715*
X349930Y118757D02*
X353062Y109715D01*
X354315Y118757D02*
X349930D01*
X345233D02*
X346172Y118327D01*
X346798Y117035*
X346798D02*
X347112Y114882D01*
Y113590*
X346798Y111437*
X346798D02*
X346172Y110145D01*
X345233Y109715*
X344606*
X343667Y110145*
X343040Y111437*
X342727Y113590*
Y114882*
X343040Y117035*
X343667Y118327*
X344606Y118757*
X345233*
X339596Y116604D02*
Y117035D01*
X339282Y117896*
X338969Y118327*
X338343Y118757*
X337090*
X336464Y118327*
X336151Y117896*
X335838Y117035*
Y116174*
X336151Y115312*
X336777Y114021*
X339909Y109715*
X335524*
X332706Y113590D02*
X327069D01*
X320179Y118757D02*
X323311D01*
X323624Y114882*
X323311Y115312*
X322371Y115743*
X321432*
X320492Y115312*
X319866Y114451*
X319553Y113159*
X319866Y112298*
X320179Y111006*
X320805Y110145*
X321745Y109715*
X322684*
X323624Y110145*
X323937Y110576*
X324250Y111437*
X312663Y115743D02*
X312976Y114451D01*
X313602Y113590*
X314542Y113159*
X314855*
X315795Y113590*
X316421Y114451*
X316734Y115743*
Y116174*
X316421Y117466*
X316421D02*
X315795Y118327D01*
X314855Y118757*
X314542*
X313602Y118327*
X312976Y117466*
X312976D02*
X312663Y115743D01*
Y113590*
X312976Y111437*
X313602Y110145*
X314542Y109715*
X315168*
X316108Y110145*
X316421Y111006*
X309844Y117035D02*
X309218Y117466D01*
X309218D02*
X308278Y118757D01*
Y109715*
X297944Y110576D02*
X298257Y110145D01*
X297944Y109715*
X297631Y110145*
X297944Y110576*
X287609Y118757D02*
Y109715D01*
Y118757D02*
X284791D01*
X283851Y118327*
X283538Y117896*
X283225Y117035*
Y115743*
X283538Y114882*
X283851Y114451*
X284791Y114021*
X287609*
X275709Y116604D02*
X276022Y117466D01*
X276022D02*
X276648Y118327D01*
X277275Y118757*
X278527*
X279154Y118327*
X279780Y117466*
X279780D02*
X280093Y116604D01*
X280406Y115312*
Y113159*
X280093Y111868*
X279780Y111006*
X279154Y110145*
X278527Y109715*
X277275*
X276648Y110145*
X276022Y111006*
X275709Y111868*
X272890Y118757D02*
Y109715D01*
Y118757D02*
X270072D01*
X269132Y118327*
X268819Y117896*
X268506Y117035*
Y116174*
X268819Y115312*
X269132Y114882*
X270072Y114451*
X272890D02*
X270072D01*
X269132Y114021*
X268819Y113590*
X268506Y112729*
Y111437*
X268819Y110576*
X269132Y110145*
X270072Y109715*
X272890*
G54D40*
X597500Y112500D02*
X607776D01*
X632500Y137224*
Y152500*
X147500Y187500D02*
X135964D01*
X136977Y186487*
Y128023*
X147500Y117500*
X162500Y167500D02*
X190903D01*
X197500Y174097*
Y197500*
X202500Y147500D02*
Y128029D01*
X208029Y122500*
X262500*
X347500Y147500D02*
Y166453D01*
X352500Y171453*
Y187500*
X307500Y147500D02*
Y166453D01*
X312500Y171453*
Y187500*
X352500D02*
Y207500D01*
X292500Y197500D02*
X300956Y205956D01*
Y237476*
X427500Y192500D02*
Y206682D01*
X476484Y255666*
X504359*
X518287Y269595*
Y359714*
X526149Y367575*
Y440082*
X535653Y449587*
X556979*
X556979D02*
X564066Y442500D01*
X577500*
X407500Y147500D02*
Y187500D01*
X367500Y147500D02*
Y187500D01*
X407500D02*
Y207500D01*
X477500Y192500D02*
Y181579D01*
X480908Y178172*
X532931*
X538380Y183621*
Y194987*
X541574Y198181*
X556268*
X457500Y192500D02*
X477500D01*
X507500Y147500D02*
Y135189D01*
X510189Y132500*
X558130*
X487500Y147500D02*
Y158895D01*
X491862Y163256*
X542464*
X547500Y168292*
Y181582*
X467500Y147500D02*
Y117410D01*
X472410Y112500*
X558130*
X547500Y181582D02*
X548418Y182500D01*
X562500*
X547500Y181582D02*
Y187500D01*
X556268Y198181D02*
X588697D01*
X592500Y194378*
Y182500*
X588697Y198181D02*
X592499Y201983D01*
Y217121*
X607500Y232122*
Y237492*
X592500Y152500D02*
X602500Y162500D01*
Y205352*
X609648Y212500*
X627500*
X547500Y148130D02*
X552302Y152932D01*
X562500*
Y152500*
X597500Y132500D02*
X603821D01*
X612500Y141179*
Y152500*
X112091Y272185D02*
Y423099D01*
X116492Y427500*
X132625*
X112091Y272185D02*
Y192944D01*
X117535Y187500*
X135964*
X112091Y272185D02*
X152815D01*
X157500Y267500*
X206695Y273450D02*
Y194736D01*
X213931Y187500*
X242500*
X206695Y273450D02*
X235822D01*
X241773Y267500*
X252500*
X206695Y273450D02*
Y422209D01*
X206695D02*
X212057Y427570D01*
X227121*
X300956Y237476D02*
Y342500D01*
X352500Y207500D02*
Y222500D01*
Y242500*
X312500Y222500D02*
X320329Y214671D01*
Y176851*
X327500Y169680*
Y147500*
X282500Y237500D02*
Y237476D01*
X300956*
X427500Y272500D02*
Y287500D01*
X407500Y207500D02*
Y222500D01*
Y242500*
X367500Y222500D02*
X375230Y214770D01*
Y179450*
X387500Y167180*
Y147500*
X442500Y272500D02*
Y266568D01*
X445928Y263140*
X461686*
X466642Y268097*
Y328358*
X457500Y272500D02*
Y287500D01*
X477500Y272500D02*
Y287500D01*
X507500Y272500D02*
Y287500D01*
X547500Y252500D02*
X556268Y243732D01*
Y198181*
X547500Y252500D02*
Y277500D01*
X527500Y237500D02*
Y347500D01*
X537500Y357500*
X527500Y237500D02*
Y222500D01*
X537500Y212500*
X607500Y277500D02*
Y237492D01*
X607508Y237500*
X637500*
X627500Y277500D02*
Y267500D01*
Y252500*
Y277500D02*
Y307500D01*
X607500Y277500D02*
X617500D01*
X300956Y442500D02*
Y342500D01*
X282500*
X427500Y317500D02*
Y310834D01*
X430281Y308054*
X444597*
X447500Y310957*
Y317500*
X427500D02*
Y387437D01*
Y287500D02*
X437500D01*
X457500Y317500D02*
Y324191D01*
X457518Y324209*
X497484Y328043D02*
X503700D01*
X507500Y324242*
Y317500*
X497484Y328043D02*
Y329664D01*
X497500Y329679*
Y337500*
X447545Y327392D02*
X454483D01*
X457518Y324357*
Y324209*
X466642Y328358D02*
X457500Y337500D01*
Y362500*
X447500Y337500D02*
X447545D01*
Y327392*
X507500Y337500D02*
Y362500D01*
X487500Y317500D02*
Y324129D01*
X491414Y328043*
X497484*
X437500Y317500D02*
Y324719D01*
X440173Y327392*
X447545*
X447500Y287500D02*
X457500D01*
X477500Y387500D02*
Y317500D01*
Y310157*
X480679Y306978*
X494488*
X497500Y309990*
Y317500*
X477500Y287500D02*
X487500D01*
X497500D02*
X507500D01*
X437500Y362500D02*
X447500Y352500D01*
Y337500*
X487500Y362500D02*
X497500Y352500D01*
Y337500*
X537500Y342500D02*
Y322500D01*
Y287500*
X547500Y277500*
X537500Y342500D02*
X552113D01*
X552266Y342347*
X566636*
X572500Y336483*
Y322500*
X537500Y357500D02*
X542500D01*
X587500Y402500*
X627500Y332500D02*
X636870Y341870D01*
Y357500*
X627500Y332500D02*
X637500Y322500D01*
Y237500*
X617500Y332500D02*
Y324011D01*
X627500Y314011*
Y307500*
X147500Y427500D02*
X132625D01*
Y377375*
X142500Y367500*
X147500Y372500*
X157500*
X227121Y427570D02*
Y377879D01*
X237500Y367500*
X227121Y427570D02*
X227192Y427500D01*
X242500*
X237500Y367500D02*
X242500Y372500D01*
X252500*
X370600Y442500D02*
X300956D01*
X292500*
X370600D02*
X412504D01*
X417500Y437504*
Y427500*
X427500Y387437D02*
Y409499D01*
X430501Y412500*
X437500*
X427500Y387437D02*
X442500D01*
Y387500*
X477500D02*
X492500D01*
X468946Y412500D02*
Y400057D01*
X477500Y391503*
Y387500*
X468946Y412500D02*
X487500D01*
X502500Y387500D02*
X507500Y382500D01*
Y362500*
X502500Y387500D02*
X507500Y392500D01*
Y412500*
X452500Y387500D02*
Y407500D01*
X457500Y412500*
X452500Y387500D02*
X457500Y382500D01*
Y362500*
X462500Y438130D02*
Y446751D01*
X468249Y452500*
X477500*
X462500Y438130D02*
X468946Y431684D01*
Y412500*
X507500Y422500D02*
X507544Y422544D01*
X515000Y415089*
Y377500*
X507500Y422500D02*
X515870Y430870D01*
Y467564*
X587500Y432500D02*
Y422082D01*
X587918Y422500*
X607500*
X587500Y402500D02*
Y417500D01*
Y422082*
X630793Y392500D02*
X630969D01*
X636870Y386599*
Y357500*
X630793Y392500D02*
X637245Y398952D01*
Y418937*
X637280Y426097D02*
X633683Y422500D01*
X637245Y418937*
X627500Y422500D02*
X633683D01*
X607500D02*
Y410000D01*
X612500Y405000*
Y392500*
X622500D02*
X630793D01*
X177500Y487500D02*
X188349Y498349D01*
X424805*
X435547Y487607*
Y468503*
X445873Y458177*
Y439216*
X457500Y427589*
Y412500*
X477500Y497500D02*
X512786D01*
X515870Y494416*
Y482551*
Y467564D02*
X527500D01*
Y467500*
X515870Y467564D02*
Y482551D01*
X527500*
Y482500*
X577500Y467500D02*
Y460424D01*
X579815Y458109*
X592635*
X595802Y454942*
Y443630*
X600855Y438577*
X634640*
X637280Y435938*
Y426097*
X557500Y467500D02*
X577500D01*
X262500Y122500D03*
X275000Y432500D03*
X515000Y377500D03*
X365000Y487500D03*
X385000D03*
G54D41*
X167500Y187500D02*
X157233D01*
X157531Y187202*
Y151208*
X161239Y147500*
X182500*
X167500Y187500D02*
X177500Y197500D01*
X157500D02*
Y205240D01*
X160860Y208600*
X177500*
X222500Y147500D02*
Y173862D01*
X226285Y177647*
X258963*
X262500Y181184*
Y187500*
X272500Y197500*
X252500D02*
Y206842D01*
X255998Y210339*
X272500*
X182469Y233010D02*
Y262469D01*
X187500Y267500*
X177500Y237500D02*
Y231943D01*
Y208600*
X183138*
X187500Y204237*
Y187500*
X182469Y233010D02*
X188088Y227390D01*
X197500*
Y227500*
X147500Y282500D02*
X171784D01*
X177500Y276784*
Y267500*
X147500Y282500D02*
Y297500D01*
X122500Y262500D02*
X127906Y257094D01*
X139955*
X150073Y246976*
X158384*
X162500Y242860*
Y235473*
X166030Y231943*
X177500*
X122500Y212500D02*
X137500D01*
Y198411*
X141656Y194255*
X150479*
X157233Y187500*
X147500Y212500D02*
Y227500D01*
X157500Y237500*
X187500Y267500D02*
Y272500D01*
X197500Y282500*
X272500Y237500D02*
Y230135D01*
Y210339*
X278183*
X282500Y206023*
Y187500*
X252500Y237500D02*
X242500Y227500D01*
Y212500*
Y297500D02*
Y282500D01*
X268691*
X272500Y278691*
Y267500*
X232500Y212500D02*
X241530Y203470D01*
Y200954*
X254984Y187500*
X262500*
X217500Y262500D02*
X230000Y250000D01*
X247027*
X257500Y239527*
Y235473*
X262839Y230135*
X272500*
X217500Y212500D02*
X232500D01*
X332500Y242500D02*
Y233627D01*
X337469Y228659*
X306272Y282339D02*
Y263728D01*
X312500Y257500*
X277531Y231176D02*
Y262531D01*
X282500Y267500*
X325031Y272500D02*
X332500Y279969D01*
Y287500*
X325031Y272500D02*
Y235831D01*
X332500Y228362*
Y222500*
X277531Y231176D02*
X281207Y227500D01*
X292500*
X306272Y282339D02*
X311433Y287500D01*
X317500*
X332500Y207500D02*
Y213873D01*
X337469Y218841*
Y228659*
X332500Y242500D02*
Y253959D01*
X336041Y257500*
X351870*
X312500Y272500D02*
X325031D01*
X351870Y257500D02*
Y272500D01*
X312500Y257500D02*
X321550Y248450D01*
Y230482*
X325621Y226411*
Y194379*
X332500Y187500*
X282500Y267500D02*
Y272500D01*
X292500Y282500*
X361627Y285734D02*
Y261906D01*
X367500Y257500*
X387500Y242500D02*
Y236165D01*
X392862Y230802*
X380869Y272500D02*
X387500Y279131D01*
Y287500*
X380869Y272500D02*
Y236499D01*
X387500Y229868*
Y222500*
X361627Y285734D02*
X363393Y287500D01*
X372500*
X387500Y207500D02*
X392862Y212862D01*
Y230802*
X387500Y242500D02*
Y253918D01*
X391082Y257500*
X406870*
X367500Y272500D02*
X380869D01*
X406870Y257500D02*
Y272500D01*
X367500Y257500D02*
X373875D01*
X376002Y255373*
Y231306*
X381243Y226065*
Y202351*
X387500Y196094*
Y187500*
X567500Y252500D02*
Y277500D01*
X577500Y267500D02*
Y277500D01*
X587500Y237500D02*
X597500Y247500D01*
Y277500*
X577500Y237500D02*
X587500D01*
Y277500D02*
Y307500D01*
X122500Y302500D02*
Y312500D01*
X127500Y317500*
X147500Y312500D02*
X162936D01*
X167500Y317064*
Y342500*
X177500*
X217500Y302500D02*
Y312500D01*
X222500Y317500*
X197500Y312500D02*
Y327500D01*
X242500Y312500D02*
X258245D01*
X262500Y316755*
Y342500*
X272500*
X337335Y352665D02*
X347500Y342500D01*
X317500Y297500D02*
Y312500D01*
X342500Y357500D02*
Y372500D01*
X322500Y357500D02*
X332500Y367500D01*
Y387500*
X322500Y357500D02*
X322697Y357303D01*
Y327177*
X327500Y322373*
Y312500*
X292500D02*
Y327500D01*
X317500Y342500D02*
Y380954D01*
X322500Y385954*
Y397500*
X327500Y342500D02*
Y331373D01*
X332500Y326373*
Y297500*
X352469Y317469D02*
X347500Y312500D01*
Y276870*
X351870Y272500*
X392335Y352665D02*
X402500Y342500D01*
X372500Y297500D02*
Y312500D01*
X397500Y357500D02*
Y372500D01*
X377500Y357500D02*
Y327373D01*
X382500Y322373*
Y312500*
X377500Y357500D02*
X387500Y367500D01*
Y387500*
X372500Y342500D02*
Y386890D01*
X377500Y391890*
Y397500*
X382500Y342500D02*
Y331373D01*
X387500Y326373*
Y297500*
X407862Y317862D02*
X402500Y312500D01*
Y294809*
X406870Y290439*
Y272500*
X392500Y312500D02*
Y342500D01*
X547500Y307500D02*
Y317329D01*
X552671Y322500*
X557500*
X567500Y307500D02*
X587500Y327500D01*
Y342500*
X577500Y307500D02*
X592500Y322500D01*
X597500Y307500D02*
X602913Y312913D01*
X190897Y434103D02*
X197500Y427500D01*
X147500Y412500D02*
X152746D01*
X155906Y415660*
Y434079*
X159817Y437989*
X168781*
X170936Y440145*
Y471008*
X177645Y477717*
X214947*
X220862Y471802*
Y443095*
X226425Y437531*
X249524*
X263296Y451303*
Y473289*
X267723Y477717*
X297916*
X300598Y475034*
Y458249*
X305419Y453428*
X338428*
X347500Y462500*
X172500Y387500D02*
X189764D01*
X197500Y395236*
Y412500*
X182500Y397500D02*
X186735Y401735D01*
Y424241*
X189994Y427500*
X197500*
X147500Y442500D02*
Y457500D01*
X167500Y372500D02*
Y382500D01*
X172500Y387500*
X187500Y372500D02*
X177500D01*
Y357598*
X182469Y352630*
Y300946*
X185915Y297500*
X197500*
X242500Y412500D02*
X248488D01*
X250908Y414919*
Y423558*
X255799Y428450*
X270950*
X275000Y432500*
X267500Y387500D02*
X287235D01*
X292500Y392765*
Y412500*
X242500Y442500D02*
Y457500D01*
X262500Y372500D02*
Y382500D01*
X267500Y387500*
X282500Y372500D02*
X272500D01*
Y358627*
X277500Y353627*
Y301422*
X281422Y297500*
X292500*
X332416Y392858D02*
Y412416D01*
X332500Y412500*
X337335Y352665D02*
Y379868D01*
X338346Y380879*
X332657Y392618D02*
X335945D01*
X338346Y390217*
Y380879*
X287323Y426912D02*
X292500D01*
Y427500*
X287323Y426912D02*
Y453641D01*
X291870Y458188*
X332416Y392858D02*
X332657Y392618D01*
X342500Y372500D02*
Y397500D01*
X322500Y372500D02*
Y379386D01*
X326516Y383402*
Y389997*
X329137Y392618*
X332657*
X322500Y422500D02*
X330573D01*
X342500Y410573*
Y397500*
Y422500D02*
X352469Y412531D01*
Y317469*
X277500Y397500D02*
Y406590D01*
X280814Y409904*
Y424817*
X282910Y426912*
X287323*
X392335Y352665D02*
Y379868D01*
X393321Y380855*
X387391Y392618D02*
X390580D01*
X393321Y389877*
Y380855*
X387391Y392618D02*
X387500Y392728D01*
Y412500*
X370600Y442500D02*
Y415423D01*
X377500Y408522*
Y397500*
X397500Y372500D02*
Y397500D01*
X377500Y372500D02*
Y387222D01*
X382896Y392618*
X382896D02*
X387391D01*
X377500Y422500D02*
X385573D01*
X397500Y410573*
Y397500*
Y422500D02*
X407862Y412138D01*
Y317862*
X587500Y372500D02*
X594302D01*
X602913Y363889*
Y312913*
X587500Y387500D02*
X607500Y367500D01*
Y307500*
X537500Y387500D02*
Y402500D01*
X556272*
X567500Y413728*
Y432500*
X537500Y417500D02*
Y432500D01*
X190897Y434103D02*
Y448338D01*
X196870Y454311*
X147500Y457500D02*
Y487500D01*
X156233*
X161399Y482335*
X214835*
X225165Y492665*
X321129*
X327500Y486294*
Y462500*
X242500Y457500D02*
Y487500D01*
X196870Y472500D02*
Y454311D01*
X291870Y472500D02*
Y458188D01*
X301207Y448852*
X413852*
X427500Y462500*
X365000Y487500D02*
Y477828D01*
X367500Y475328*
Y462500*
X385000Y487500D02*
Y477828D01*
X387500Y475328*
Y462500*
X477500Y467500D02*
X491483D01*
X497391Y461592*
Y452609*
X497500Y452500*
X557500Y487500D02*
X577500D01*
X587500Y497500*
X527500D02*
X551373D01*
X558046Y504173*
X590318*
X596992Y497500*
X597500*
Y467500D02*
X623300D01*
X627500Y463300*
Y452500*
X0Y0D02*
M02*
