*
*
G04 PADS Layout (Build Number 2007.42.1) generated Gerber (RS-274-X) file*
G04 PC Version=2.1*
*
%IN "1702-391_v6.pcb"*%
*
%MOIN*%
*
%FSLAX35Y35*%
*
*
*
*
G04 PC Standard Apertures*
*
*
G04 Thermal Relief Aperture macro.*
%AMTER*
1,1,$1,0,0*
1,0,$1-$2,0,0*
21,0,$3,$4,0,0,45*
21,0,$3,$4,0,0,135*
%
*
*
G04 Annular Aperture macro.*
%AMANN*
1,1,$1,0,0*
1,0,$2,0,0*
%
*
*
G04 Odd Aperture macro.*
%AMODD*
1,1,$1,0,0*
1,0,$1-0.005,0,0*
%
*
*
G04 PC Custom Aperture Macros*
*
*
*
*
*
*
G04 PC Aperture Table*
*
%ADD039C,0.01*%
*
*
*
*
G04 PC Copper Outlines (0)*
G04 Layer Name 1702-391_v6.pcb - dark (0)*
%LPD*%
*
*
G04 PC Area=Custom_Thermal*
*
G04 PC Custom Flashes*
G04 Layer Name 1702-391_v6.pcb - flashes*
%LPD*%
*
*
G04 PC Circuitry*
G04 Layer Name 1702-391_v6.pcb - circuitry*
%LPD*%
*
G54D39*
G01X103437Y145000D02*
X110000Y146136D01*
X103437Y147273D02*
X110000Y146136D01*
X103437Y147273D02*
X110000Y148409D01*
X103437Y149545D02*
X110000Y148409D01*
X109375Y151818D02*
X109687Y151591D01*
X109687D02*
X110000Y151818D01*
X109687Y152045*
X109687D02*
X109375Y151818D01*
X103437Y159318D02*
X110000D01*
X103437D02*
X110000Y161136D01*
X103437Y162955D02*
X110000Y161136D01*
X103437Y162955D02*
X110000D01*
X109375Y165227D02*
X109687Y165000D01*
X109687D02*
X110000Y165227D01*
X109687Y165455*
X109687D02*
X109375Y165227D01*
X103437Y174091D02*
X103750Y173636D01*
X104375Y173182*
X105000Y172955*
X105937Y172727*
X105937D02*
X107500D01*
X108437Y172955*
X108437D02*
X109062Y173182D01*
X109062D02*
X109687Y173636D01*
X109687D02*
X110000Y174091D01*
Y175000*
X109687Y175455*
X109687D02*
X109062Y175909D01*
X109062D02*
X108437Y176136D01*
X108437D02*
X107500Y176364D01*
X105937*
X105937D02*
X105000Y176136D01*
X104375Y175909*
X103750Y175455*
X103437Y175000*
X103437D02*
Y174091D01*
X114687Y145000D02*
X114375Y145455D01*
X113437Y146136*
X113437D02*
X120000D01*
X113437Y151364D02*
X120000Y149091D01*
X113437Y148182D02*
Y151364D01*
Y154773D02*
X113750Y154091D01*
X114687Y153636*
X114687D02*
X116250Y153409D01*
X117187*
X117187D02*
X118750Y153636D01*
X119687Y154091*
X119687D02*
X120000Y154773D01*
Y155227*
X119687Y155909*
X119687D02*
X118750Y156364D01*
X117187Y156591*
X117187D02*
X116250D01*
X114687Y156364*
X114687D02*
X113750Y155909D01*
X113437Y155227*
X113437D02*
Y154773D01*
X115000Y158864D02*
X114687D01*
X114687D02*
X114062Y159091D01*
X114062D02*
X113750Y159318D01*
X113437Y159773*
X113437D02*
Y160682D01*
X113437D02*
X113750Y161136D01*
X114062Y161364*
X114062D02*
X114687Y161591D01*
X114687D02*
X115312D01*
X115312D02*
X115937Y161364D01*
X115937D02*
X116875Y160909D01*
X120000Y158636*
Y161818*
X117187Y163864D02*
Y167955D01*
X113437Y172955D02*
Y170682D01*
X113437D02*
X116250Y170455D01*
X115937Y170682*
X115937D02*
X115625Y171364D01*
Y172045*
X115937Y172727*
X115937D02*
X116562Y173182D01*
X116562D02*
X117500Y173409D01*
X118125Y173182*
X119062Y172955*
X119062D02*
X119687Y172500D01*
X119687D02*
X120000Y171818D01*
Y171136*
X119687Y170455*
X119687D02*
X119375Y170227D01*
X118750Y170000*
X115625Y178409D02*
X116562Y178182D01*
X116562D02*
X117187Y177727D01*
X117187D02*
X117500Y177045D01*
Y176818*
X117187Y176136*
X117187D02*
X116562Y175682D01*
X116562D02*
X115625Y175455D01*
X115312*
X115312D02*
X114375Y175682D01*
X113750Y176136*
X113437Y176818*
X113437D02*
Y177045D01*
X113437D02*
X113750Y177727D01*
X114375Y178182*
X115625Y178409*
X117187*
X117187D02*
X118750Y178182D01*
X119687Y177727*
X119687D02*
X120000Y177045D01*
Y176591*
X119687Y175909*
X119687D02*
X119062Y175682D01*
X114687Y180455D02*
X114375Y180909D01*
X113437Y181591*
X113437D02*
X120000D01*
X123437Y145000D02*
X130000D01*
X123437D02*
Y147045D01*
X123437D02*
X123750Y147727D01*
X124062Y147955*
X124062D02*
X124687Y148182D01*
X124687D02*
X125625D01*
X126250Y147955*
X126562Y147727*
X126562D02*
X126875Y147045D01*
Y145000*
X125000Y153636D02*
X124375Y153409D01*
X123750Y152955*
X123437Y152500*
X123437D02*
Y151591D01*
X123437D02*
X123750Y151136D01*
X124375Y150682*
X125000Y150455*
X125937Y150227*
X125937D02*
X127500D01*
X128437Y150455*
X128437D02*
X129062Y150682D01*
X129062D02*
X129687Y151136D01*
X129687D02*
X130000Y151591D01*
Y152500*
X129687Y152955*
X129687D02*
X129062Y153409D01*
X129062D02*
X128437Y153636D01*
X123437Y155682D02*
X130000D01*
X123437D02*
Y157727D01*
X123437D02*
X123750Y158409D01*
X124062Y158636*
X124062D02*
X124687Y158864D01*
X124687D02*
X125312D01*
X125312D02*
X125937Y158636D01*
X125937D02*
X126250Y158409D01*
X126562Y157727*
Y155682D02*
Y157727D01*
X126562D02*
X126875Y158409D01*
X127187Y158636*
X127187D02*
X127812Y158864D01*
X127812D02*
X128750D01*
X129375Y158636*
X129687Y158409*
X129687D02*
X130000Y157727D01*
Y155682*
X183500Y263500D02*
X191500Y271500D01*
X183500D02*
X191500Y263500D01*
X173500D02*
X181500Y271500D01*
X173500D02*
X181500Y263500D01*
X163500D02*
X171500Y271500D01*
X163500D02*
X171500Y263500D01*
X153500D02*
X161500Y271500D01*
X153500D02*
X161500Y263500D01*
X153500Y233500D02*
X161500Y241500D01*
X153500D02*
X161500Y233500D01*
X163500D02*
X171500Y241500D01*
X163500D02*
X171500Y233500D01*
X173500D02*
X181500Y241500D01*
X173500D02*
X181500Y233500D01*
X183500D02*
X191500Y241500D01*
X183500D02*
X191500Y233500D01*
X183500Y368500D02*
X191500Y376500D01*
X183500D02*
X191500Y368500D01*
X173500D02*
X181500Y376500D01*
X173500D02*
X181500Y368500D01*
X163500D02*
X171500Y376500D01*
X163500D02*
X171500Y368500D01*
X153500D02*
X161500Y376500D01*
X153500D02*
X161500Y368500D01*
X153500Y338500D02*
X161500Y346500D01*
X153500D02*
X161500Y338500D01*
X163500D02*
X171500Y346500D01*
X163500D02*
X171500Y338500D01*
X173500D02*
X181500Y346500D01*
X173500D02*
X181500Y338500D01*
X183500D02*
X191500Y346500D01*
X183500D02*
X191500Y338500D01*
X278500Y368500D02*
X286500Y376500D01*
X278500D02*
X286500Y368500D01*
X268500D02*
X276500Y376500D01*
X268500D02*
X276500Y368500D01*
X258500D02*
X266500Y376500D01*
X258500D02*
X266500Y368500D01*
X248500D02*
X256500Y376500D01*
X248500D02*
X256500Y368500D01*
X248500Y338500D02*
X256500Y346500D01*
X248500D02*
X256500Y338500D01*
X258500D02*
X266500Y346500D01*
X258500D02*
X266500Y338500D01*
X268500D02*
X276500Y346500D01*
X268500D02*
X276500Y338500D01*
X278500D02*
X286500Y346500D01*
X278500D02*
X286500Y338500D01*
X278500Y263500D02*
X286500Y271500D01*
X278500D02*
X286500Y263500D01*
X268500D02*
X276500Y271500D01*
X268500D02*
X276500Y263500D01*
X258500D02*
X266500Y271500D01*
X258500D02*
X266500Y263500D01*
X248500D02*
X256500Y271500D01*
X248500D02*
X256500Y263500D01*
X248500Y233500D02*
X256500Y241500D01*
X248500D02*
X256500Y233500D01*
X258500D02*
X266500Y241500D01*
X258500D02*
X266500Y233500D01*
X268500D02*
X276500Y241500D01*
X268500D02*
X276500Y233500D01*
X278500D02*
X286500Y241500D01*
X278500D02*
X286500Y233500D01*
X313500Y308500D02*
X321500Y316500D01*
X313500D02*
X321500Y308500D01*
X323500D02*
X331500Y316500D01*
X323500D02*
X331500Y308500D01*
X333500D02*
X341500Y316500D01*
X333500D02*
X341500Y308500D01*
X343500D02*
X351500Y316500D01*
X343500D02*
X351500Y308500D01*
X343500Y338500D02*
X351500Y346500D01*
X343500D02*
X351500Y338500D01*
X333500D02*
X341500Y346500D01*
X333500D02*
X341500Y338500D01*
X323500D02*
X331500Y346500D01*
X323500D02*
X331500Y338500D01*
X313500D02*
X321500Y346500D01*
X313500D02*
X321500Y338500D01*
X368500Y308500D02*
X376500Y316500D01*
X368500D02*
X376500Y308500D01*
X378500D02*
X386500Y316500D01*
X378500D02*
X386500Y308500D01*
X388500D02*
X396500Y316500D01*
X388500D02*
X396500Y308500D01*
X398500D02*
X406500Y316500D01*
X398500D02*
X406500Y308500D01*
X398500Y338500D02*
X406500Y346500D01*
X398500D02*
X406500Y338500D01*
X388500D02*
X396500Y346500D01*
X388500D02*
X396500Y338500D01*
X378500D02*
X386500Y346500D01*
X378500D02*
X386500Y338500D01*
X368500D02*
X376500Y346500D01*
X368500D02*
X376500Y338500D01*
X503500Y448500D02*
X511500Y456500D01*
X503500D02*
X511500Y448500D01*
X493500D02*
X501500Y456500D01*
X493500D02*
X501500Y448500D01*
X483500D02*
X491500Y456500D01*
X483500D02*
X491500Y448500D01*
X473500D02*
X481500Y456500D01*
X473500D02*
X481500Y448500D01*
X473500Y418500D02*
X481500Y426500D01*
X473500D02*
X481500Y418500D01*
X483500D02*
X491500Y426500D01*
X483500D02*
X491500Y418500D01*
X493500D02*
X501500Y426500D01*
X493500D02*
X501500Y418500D01*
X503500D02*
X511500Y426500D01*
X503500D02*
X511500Y418500D01*
X543500Y277500D02*
X551500D01*
X547500Y273500D02*
Y281500D01*
X550216Y282084D02*
X549500Y279500D01*
X550216Y282084D02*
X550932Y279500D01*
X549768Y280361D02*
X550663D01*
X553500Y277500D02*
X561500D01*
X557500Y273500D02*
Y281500D01*
X560216Y282084D02*
X559500Y279500D01*
X560216Y282084D02*
X560932Y279500D01*
X559768Y280361D02*
X560663D01*
X563500Y277500D02*
X571500D01*
X567500Y273500D02*
Y281500D01*
X570216Y282084D02*
X569500Y279500D01*
X570216Y282084D02*
X570932Y279500D01*
X569768Y280361D02*
X570663D01*
X573500Y277500D02*
X581500D01*
X577500Y273500D02*
Y281500D01*
X580216Y282084D02*
X579500Y279500D01*
X580216Y282084D02*
X580932Y279500D01*
X579768Y280361D02*
X580663D01*
X583500Y277500D02*
X591500D01*
X587500Y273500D02*
Y281500D01*
X590216Y282084D02*
X589500Y279500D01*
X590216Y282084D02*
X590932Y279500D01*
X589768Y280361D02*
X590663D01*
X593500Y277500D02*
X601500D01*
X597500Y273500D02*
Y281500D01*
X600216Y282084D02*
X599500Y279500D01*
X600216Y282084D02*
X600932Y279500D01*
X599768Y280361D02*
X600663D01*
X603500Y277500D02*
X611500D01*
X607500Y273500D02*
Y281500D01*
X610216Y282084D02*
X609500Y279500D01*
X610216Y282084D02*
X610932Y279500D01*
X609768Y280361D02*
X610663D01*
X613500Y277500D02*
X621500D01*
X617500Y273500D02*
Y281500D01*
X620216Y282084D02*
X619500Y279500D01*
X620216Y282084D02*
X620932Y279500D01*
X619768Y280361D02*
X620663D01*
X623500Y277500D02*
X631500D01*
X627500Y273500D02*
Y281500D01*
X630216Y282084D02*
X629500Y279500D01*
X630216Y282084D02*
X630932Y279500D01*
X629768Y280361D02*
X630663D01*
X623500Y307500D02*
X631500D01*
X627500Y303500D02*
Y311500D01*
X630216Y312084D02*
X629500Y309500D01*
X630216Y312084D02*
X630932Y309500D01*
X629768Y310361D02*
X630663D01*
X613500Y307500D02*
X621500D01*
X617500Y303500D02*
Y311500D01*
X620216Y312084D02*
X619500Y309500D01*
X620216Y312084D02*
X620932Y309500D01*
X619768Y310361D02*
X620663D01*
X603500Y307500D02*
X611500D01*
X607500Y303500D02*
Y311500D01*
X610216Y312084D02*
X609500Y309500D01*
X610216Y312084D02*
X610932Y309500D01*
X609768Y310361D02*
X610663D01*
X593500Y307500D02*
X601500D01*
X597500Y303500D02*
Y311500D01*
X600216Y312084D02*
X599500Y309500D01*
X600216Y312084D02*
X600932Y309500D01*
X599768Y310361D02*
X600663D01*
X583500Y307500D02*
X591500D01*
X587500Y303500D02*
Y311500D01*
X590216Y312084D02*
X589500Y309500D01*
X590216Y312084D02*
X590932Y309500D01*
X589768Y310361D02*
X590663D01*
X573500Y307500D02*
X581500D01*
X577500Y303500D02*
Y311500D01*
X580216Y312084D02*
X579500Y309500D01*
X580216Y312084D02*
X580932Y309500D01*
X579768Y310361D02*
X580663D01*
X563500Y307500D02*
X571500D01*
X567500Y303500D02*
Y311500D01*
X570216Y312084D02*
X569500Y309500D01*
X570216Y312084D02*
X570932Y309500D01*
X569768Y310361D02*
X570663D01*
X553500Y307500D02*
X561500D01*
X557500Y303500D02*
Y311500D01*
X560216Y312084D02*
X559500Y309500D01*
X560216Y312084D02*
X560932Y309500D01*
X559768Y310361D02*
X560663D01*
X543500Y307500D02*
X551500D01*
X547500Y303500D02*
Y311500D01*
X550216Y312084D02*
X549500Y309500D01*
X550216Y312084D02*
X550932Y309500D01*
X549768Y310361D02*
X550663D01*
X143500Y223500D02*
X151500Y231500D01*
X143500D02*
X151500Y223500D01*
X193500D02*
X201500Y231500D01*
X193500D02*
X201500Y223500D01*
X143500Y208500D02*
X151500Y216500D01*
X143500D02*
X151500Y208500D01*
X193500D02*
X201500Y216500D01*
X193500D02*
X201500Y208500D01*
X133500D02*
X141500Y216500D01*
X133500D02*
X141500Y208500D01*
X133500Y258500D02*
X141500Y266500D01*
X133500D02*
X141500Y258500D01*
X118500Y208500D02*
X126500Y216500D01*
X118500D02*
X126500Y208500D01*
X118500Y258500D02*
X126500Y266500D01*
X118500D02*
X126500Y258500D01*
X213500Y208500D02*
X221500Y216500D01*
X213500D02*
X221500Y208500D01*
X213500Y258500D02*
X221500Y266500D01*
X213500D02*
X221500Y258500D01*
X228500Y208500D02*
X236500Y216500D01*
X228500D02*
X236500Y208500D01*
X228500Y258500D02*
X236500Y266500D01*
X228500D02*
X236500Y258500D01*
X158500Y113500D02*
X166500Y121500D01*
X158500D02*
X166500Y113500D01*
X158500Y163500D02*
X166500Y171500D01*
X158500D02*
X166500Y163500D01*
X143500Y113500D02*
X151500Y121500D01*
X143500D02*
X151500Y113500D01*
X143500Y163500D02*
X151500Y171500D01*
X143500D02*
X151500Y163500D01*
X238500Y278500D02*
X246500Y286500D01*
X238500D02*
X246500Y278500D01*
X288500D02*
X296500Y286500D01*
X288500D02*
X296500Y278500D01*
X238500Y293500D02*
X246500Y301500D01*
X238500D02*
X246500Y293500D01*
X288500D02*
X296500Y301500D01*
X288500D02*
X296500Y293500D01*
X238500Y308500D02*
X246500Y316500D01*
X238500D02*
X246500Y308500D01*
X288500D02*
X296500Y316500D01*
X288500D02*
X296500Y308500D01*
X238500Y323500D02*
X246500Y331500D01*
X238500D02*
X246500Y323500D01*
X288500D02*
X296500Y331500D01*
X288500D02*
X296500Y323500D01*
X143500Y278500D02*
X151500Y286500D01*
X143500D02*
X151500Y278500D01*
X193500D02*
X201500Y286500D01*
X193500D02*
X201500Y278500D01*
X143500Y293500D02*
X151500Y301500D01*
X143500D02*
X151500Y293500D01*
X193500D02*
X201500Y301500D01*
X193500D02*
X201500Y293500D01*
X143500Y308500D02*
X151500Y316500D01*
X143500D02*
X151500Y308500D01*
X193500D02*
X201500Y316500D01*
X193500D02*
X201500Y308500D01*
X123500Y313500D02*
X131500Y321500D01*
X123500D02*
X131500Y313500D01*
X123500Y363500D02*
X131500Y371500D01*
X123500D02*
X131500Y363500D01*
X218500Y313500D02*
X226500Y321500D01*
X218500D02*
X226500Y313500D01*
X218500Y363500D02*
X226500Y371500D01*
X218500D02*
X226500Y363500D01*
X143500Y423500D02*
X151500Y431500D01*
X143500D02*
X151500Y423500D01*
X193500D02*
X201500Y431500D01*
X193500D02*
X201500Y423500D01*
X143500Y438500D02*
X151500Y446500D01*
X143500D02*
X151500Y438500D01*
X193500D02*
X201500Y446500D01*
X193500D02*
X201500Y438500D01*
X238500Y423500D02*
X246500Y431500D01*
X238500D02*
X246500Y423500D01*
X288500D02*
X296500Y431500D01*
X288500D02*
X296500Y423500D01*
X238500Y438500D02*
X246500Y446500D01*
X238500D02*
X246500Y438500D01*
X288500D02*
X296500Y446500D01*
X288500D02*
X296500Y438500D01*
X358500Y373500D02*
X366500Y381500D01*
X358500D02*
X366500Y373500D01*
X358500Y423500D02*
X366500Y431500D01*
X358500D02*
X366500Y423500D01*
X413500Y373500D02*
X421500Y381500D01*
X413500D02*
X421500Y373500D01*
X413500Y423500D02*
X421500Y431500D01*
X413500D02*
X421500Y423500D01*
X443500D02*
X451500Y431500D01*
X443500D02*
X451500Y423500D01*
X443500Y473500D02*
X451500Y481500D01*
X443500D02*
X451500Y473500D01*
X533500Y413500D02*
X541500Y421500D01*
X533500D02*
X541500Y413500D01*
X583500D02*
X591500Y421500D01*
X583500D02*
X591500Y413500D01*
X533500Y398500D02*
X541500Y406500D01*
X533500D02*
X541500Y398500D01*
X583500D02*
X591500Y406500D01*
X583500D02*
X591500Y398500D01*
X533500Y383500D02*
X541500Y391500D01*
X533500D02*
X541500Y383500D01*
X583500D02*
X591500Y391500D01*
X583500D02*
X591500Y383500D01*
X533500Y368500D02*
X541500Y376500D01*
X533500D02*
X541500Y368500D01*
X583500D02*
X591500Y376500D01*
X583500D02*
X591500Y368500D01*
X533500Y353500D02*
X541500Y361500D01*
X533500D02*
X541500Y353500D01*
X583500D02*
X591500Y361500D01*
X583500D02*
X591500Y353500D01*
X533500Y338500D02*
X541500Y346500D01*
X533500D02*
X541500Y338500D01*
X583500D02*
X591500Y346500D01*
X583500D02*
X591500Y338500D01*
X523500Y233500D02*
X531500Y241500D01*
X523500D02*
X531500Y233500D01*
X573500D02*
X581500Y241500D01*
X573500D02*
X581500Y233500D01*
X583500D02*
X591500Y241500D01*
X583500D02*
X591500Y233500D01*
X633500D02*
X641500Y241500D01*
X633500D02*
X641500Y233500D01*
X573500Y248500D02*
X581500Y256500D01*
X573500D02*
X581500Y248500D01*
X623500D02*
X631500Y256500D01*
X623500D02*
X631500Y248500D01*
X573500Y263500D02*
X581500Y271500D01*
X573500D02*
X581500Y263500D01*
X623500D02*
X631500Y271500D01*
X623500D02*
X631500Y263500D01*
X147500Y183500D02*
X151500Y187500D01*
X147500Y191500*
X143500Y187500*
X147500Y183500*
Y187500D02*
Y191500D01*
X157500Y193500D02*
X161500Y197500D01*
X157500Y201500*
X153500Y197500*
X157500Y193500*
Y197500D02*
Y201500D01*
X167500Y183500D02*
X171500Y187500D01*
X167500Y191500*
X163500Y187500*
X167500Y183500*
Y187500D02*
Y191500D01*
X242500Y183500D02*
X246500Y187500D01*
X242500Y191500*
X238500Y187500*
X242500Y183500*
Y187500D02*
Y191500D01*
X252500Y193500D02*
X256500Y197500D01*
X252500Y201500*
X248500Y197500*
X252500Y193500*
Y197500D02*
Y201500D01*
X262500Y183500D02*
X266500Y187500D01*
X262500Y191500*
X258500Y187500*
X262500Y183500*
Y187500D02*
Y191500D01*
X197500Y193500D02*
X201500Y197500D01*
X197500Y201500*
X193500Y197500*
X197500Y193500*
Y197500D02*
Y201500D01*
X187500Y183500D02*
X191500Y187500D01*
X187500Y191500*
X183500Y187500*
X187500Y183500*
Y187500D02*
Y191500D01*
X177500Y193500D02*
X181500Y197500D01*
X177500Y201500*
X173500Y197500*
X177500Y193500*
Y197500D02*
Y201500D01*
X292500Y193500D02*
X296500Y197500D01*
X292500Y201500*
X288500Y197500*
X292500Y193500*
Y197500D02*
Y201500D01*
X282500Y183500D02*
X286500Y187500D01*
X282500Y191500*
X278500Y187500*
X282500Y183500*
Y187500D02*
Y191500D01*
X272500Y193500D02*
X276500Y197500D01*
X272500Y201500*
X268500Y197500*
X272500Y193500*
Y197500D02*
Y201500D01*
X217500Y298500D02*
X221500Y302500D01*
X217500Y306500*
X213500Y302500*
X217500Y298500*
Y302500D02*
Y306500D01*
X227500Y288500D02*
X231500Y292500D01*
X227500Y296500*
X223500Y292500*
X227500Y288500*
Y292500D02*
Y296500D01*
X217500Y278500D02*
X221500Y282500D01*
X217500Y286500*
X213500Y282500*
X217500Y278500*
Y282500D02*
Y286500D01*
X122500Y298500D02*
X126500Y302500D01*
X122500Y306500*
X118500Y302500*
X122500Y298500*
Y302500D02*
Y306500D01*
X132500Y288500D02*
X136500Y292500D01*
X132500Y296500*
X128500Y292500*
X132500Y288500*
Y292500D02*
Y296500D01*
X122500Y278500D02*
X126500Y282500D01*
X122500Y286500*
X118500Y282500*
X122500Y278500*
Y282500D02*
Y286500D01*
X182500Y393500D02*
X186500Y397500D01*
X182500Y401500*
X178500Y397500*
X182500Y393500*
Y397500D02*
Y401500D01*
X172500Y383500D02*
X176500Y387500D01*
X172500Y391500*
X168500Y387500*
X172500Y383500*
Y387500D02*
Y391500D01*
X162500Y393500D02*
X166500Y397500D01*
X162500Y401500*
X158500Y397500*
X162500Y393500*
Y397500D02*
Y401500D01*
X277500Y393500D02*
X281500Y397500D01*
X277500Y401500*
X273500Y397500*
X277500Y393500*
Y397500D02*
Y401500D01*
X267500Y383500D02*
X271500Y387500D01*
X267500Y391500*
X263500Y387500*
X267500Y383500*
Y387500D02*
Y391500D01*
X257500Y393500D02*
X261500Y397500D01*
X257500Y401500*
X253500Y397500*
X257500Y393500*
Y397500D02*
Y401500D01*
X342500Y393500D02*
X346500Y397500D01*
X342500Y401500*
X338500Y397500*
X342500Y393500*
Y397500D02*
Y401500D01*
X332500Y383500D02*
X336500Y387500D01*
X332500Y391500*
X328500Y387500*
X332500Y383500*
Y387500D02*
Y391500D01*
X322500Y393500D02*
X326500Y397500D01*
X322500Y401500*
X318500Y397500*
X322500Y393500*
Y397500D02*
Y401500D01*
X397500Y393500D02*
X401500Y397500D01*
X397500Y401500*
X393500Y397500*
X397500Y393500*
Y397500D02*
Y401500D01*
X387500Y383500D02*
X391500Y387500D01*
X387500Y391500*
X383500Y387500*
X387500Y383500*
Y387500D02*
Y391500D01*
X377500Y393500D02*
X381500Y397500D01*
X377500Y401500*
X373500Y397500*
X377500Y393500*
Y397500D02*
Y401500D01*
X397500Y418500D02*
X401500Y422500D01*
X397500Y426500*
X393500Y422500*
X397500Y418500*
Y422500D02*
Y426500D01*
X387500Y408500D02*
X391500Y412500D01*
X387500Y416500*
X383500Y412500*
X387500Y408500*
Y412500D02*
Y416500D01*
X377500Y418500D02*
X381500Y422500D01*
X377500Y426500*
X373500Y422500*
X377500Y418500*
Y422500D02*
Y426500D01*
X342500Y418500D02*
X346500Y422500D01*
X342500Y426500*
X338500Y422500*
X342500Y418500*
Y422500D02*
Y426500D01*
X332500Y408500D02*
X336500Y412500D01*
X332500Y416500*
X328500Y412500*
X332500Y408500*
Y412500D02*
Y416500D01*
X322500Y418500D02*
X326500Y422500D01*
X322500Y426500*
X318500Y422500*
X322500Y418500*
Y422500D02*
Y426500D01*
X537500Y428500D02*
X541500Y432500D01*
X537500Y436500*
X533500Y432500*
X537500Y428500*
Y432500D02*
Y436500D01*
X547500Y438500D02*
X551500Y442500D01*
X547500Y446500*
X543500Y442500*
X547500Y438500*
Y442500D02*
Y446500D01*
X557500Y428500D02*
X561500Y432500D01*
X557500Y436500*
X553500Y432500*
X557500Y428500*
Y432500D02*
Y436500D01*
X567500Y428500D02*
X571500Y432500D01*
X567500Y436500*
X563500Y432500*
X567500Y428500*
Y432500D02*
Y436500D01*
X577500Y438500D02*
X581500Y442500D01*
X577500Y446500*
X573500Y442500*
X577500Y438500*
Y442500D02*
Y446500D01*
X587500Y428500D02*
X591500Y432500D01*
X587500Y436500*
X583500Y432500*
X587500Y428500*
Y432500D02*
Y436500D01*
X533500Y463500D02*
X541500Y471500D01*
X533500D02*
X541500Y463500D01*
X553500D02*
X561500Y471500D01*
X553500D02*
X561500Y463500D01*
X603500Y448500D02*
X611500Y456500D01*
X603500D02*
X611500Y448500D01*
X623500D02*
X631500Y456500D01*
X623500D02*
X631500Y448500D01*
X533500Y318500D02*
X541500Y326500D01*
X533500D02*
X541500Y318500D01*
X553500D02*
X561500Y326500D01*
X553500D02*
X561500Y318500D01*
X543500Y248500D02*
X551500Y256500D01*
X543500D02*
X551500Y248500D01*
X563500D02*
X571500Y256500D01*
X563500D02*
X571500Y248500D01*
X483500Y358500D02*
X491500Y366500D01*
X483500D02*
X491500Y358500D01*
X503500D02*
X511500Y366500D01*
X503500D02*
X511500Y358500D01*
X433500D02*
X441500Y366500D01*
X433500D02*
X441500Y358500D01*
X453500D02*
X461500Y366500D01*
X453500D02*
X461500Y358500D01*
X373500Y353500D02*
X381500Y361500D01*
X373500D02*
X381500Y353500D01*
X393500D02*
X401500Y361500D01*
X393500D02*
X401500Y353500D01*
X318500D02*
X326500Y361500D01*
X318500D02*
X326500Y353500D01*
X338500D02*
X346500Y361500D01*
X338500D02*
X346500Y353500D01*
X318500Y368500D02*
X326500Y376500D01*
X318500D02*
X326500Y368500D01*
X338500D02*
X346500Y376500D01*
X338500D02*
X346500Y368500D01*
X373500D02*
X381500Y376500D01*
X373500D02*
X381500Y368500D01*
X393500D02*
X401500Y376500D01*
X393500D02*
X401500Y368500D01*
X433500Y408500D02*
X441500Y416500D01*
X433500D02*
X441500Y408500D01*
X453500D02*
X461500Y416500D01*
X453500D02*
X461500Y408500D01*
X483500D02*
X491500Y416500D01*
X483500D02*
X491500Y408500D01*
X503500D02*
X511500Y416500D01*
X503500D02*
X511500Y408500D01*
X268500Y483500D02*
X276500Y491500D01*
X268500D02*
X276500Y483500D01*
X288500D02*
X296500Y491500D01*
X288500D02*
X296500Y483500D01*
X238500D02*
X246500Y491500D01*
X238500D02*
X246500Y483500D01*
X258500D02*
X266500Y491500D01*
X258500D02*
X266500Y483500D01*
X173500D02*
X181500Y491500D01*
X173500D02*
X181500Y483500D01*
X193500D02*
X201500Y491500D01*
X193500D02*
X201500Y483500D01*
X143500D02*
X151500Y491500D01*
X143500D02*
X151500Y483500D01*
X163500D02*
X171500Y491500D01*
X163500D02*
X171500Y483500D01*
X143500Y408500D02*
X151500Y416500D01*
X143500D02*
X151500Y408500D01*
X163500D02*
X171500Y416500D01*
X163500D02*
X171500Y408500D01*
X173500D02*
X181500Y416500D01*
X173500D02*
X181500Y408500D01*
X193500D02*
X201500Y416500D01*
X193500D02*
X201500Y408500D01*
X138500Y343500D02*
X146500Y351500D01*
X138500D02*
X146500Y343500D01*
X138500Y363500D02*
X146500Y371500D01*
X138500D02*
X146500Y363500D01*
X233500Y343500D02*
X241500Y351500D01*
X233500D02*
X241500Y343500D01*
X233500Y363500D02*
X241500Y371500D01*
X233500D02*
X241500Y363500D01*
X238500Y408500D02*
X246500Y416500D01*
X238500D02*
X246500Y408500D01*
X258500D02*
X266500Y416500D01*
X258500D02*
X266500Y408500D01*
X268500D02*
X276500Y416500D01*
X268500D02*
X276500Y408500D01*
X288500D02*
X296500Y416500D01*
X288500D02*
X296500Y408500D01*
X143500Y323500D02*
X151500Y331500D01*
X143500D02*
X151500Y323500D01*
X193500D02*
X201500Y331500D01*
X193500D02*
X201500Y323500D01*
X238500Y208500D02*
X246500Y216500D01*
X238500D02*
X246500Y208500D01*
X288500D02*
X296500Y216500D01*
X288500D02*
X296500Y208500D01*
X238500Y223500D02*
X246500Y231500D01*
X238500D02*
X246500Y223500D01*
X288500D02*
X296500Y231500D01*
X288500D02*
X296500Y223500D01*
X312500Y253500D02*
X316500Y257500D01*
X312500Y261500*
X308500Y257500*
X312500Y253500*
Y257500D02*
Y261500D01*
X351870Y253500D02*
X355870Y257500D01*
X351870Y261500*
X347870Y257500*
X351870Y253500*
Y257500D02*
Y261500D01*
X312500Y268500D02*
X316500Y272500D01*
X312500Y276500*
X308500Y272500*
X312500Y268500*
Y272500D02*
Y276500D01*
X351870Y268500D02*
X355870Y272500D01*
X351870Y276500*
X347870Y272500*
X351870Y268500*
Y272500D02*
Y276500D01*
X367500Y253500D02*
X371500Y257500D01*
X367500Y261500*
X363500Y257500*
X367500Y253500*
Y257500D02*
Y261500D01*
X406870Y253500D02*
X410870Y257500D01*
X406870Y261500*
X402870Y257500*
X406870Y253500*
Y257500D02*
Y261500D01*
X367500Y268500D02*
X371500Y272500D01*
X367500Y276500*
X363500Y272500*
X367500Y268500*
Y272500D02*
Y276500D01*
X406870Y268500D02*
X410870Y272500D01*
X406870Y276500*
X402870Y272500*
X406870Y268500*
Y272500D02*
Y276500D01*
X597500Y108500D02*
X601500Y112500D01*
X597500Y116500*
X593500Y112500*
X597500Y108500*
Y112500D02*
Y116500D01*
X558130Y108500D02*
X562130Y112500D01*
X558130Y116500*
X554130Y112500*
X558130Y108500*
Y112500D02*
Y116500D01*
X597500Y128500D02*
X601500Y132500D01*
X597500Y136500*
X593500Y132500*
X597500Y128500*
Y132500D02*
Y136500D01*
X558130Y128500D02*
X562130Y132500D01*
X558130Y136500*
X554130Y132500*
X558130Y128500*
Y132500D02*
Y136500D01*
X157500Y468500D02*
X161500Y472500D01*
X157500Y476500*
X153500Y472500*
X157500Y468500*
Y472500D02*
Y476500D01*
X196870Y468500D02*
X200870Y472500D01*
X196870Y476500*
X192870Y472500*
X196870Y468500*
Y472500D02*
Y476500D01*
X252500Y468500D02*
X256500Y472500D01*
X252500Y476500*
X248500Y472500*
X252500Y468500*
Y472500D02*
Y476500D01*
X291870Y468500D02*
X295870Y472500D01*
X291870Y476500*
X287870Y472500*
X291870Y468500*
Y472500D02*
Y476500D01*
X242500Y453500D02*
X246500Y457500D01*
X242500Y461500*
X238500Y457500*
X242500Y453500*
Y457500D02*
Y461500D01*
X281870Y453500D02*
X285870Y457500D01*
X281870Y461500*
X277870Y457500*
X281870Y453500*
Y457500D02*
Y461500D01*
X147500Y453500D02*
X151500Y457500D01*
X147500Y461500*
X143500Y457500*
X147500Y453500*
Y457500D02*
Y461500D01*
X186870Y453500D02*
X190870Y457500D01*
X186870Y461500*
X182870Y457500*
X186870Y453500*
Y457500D02*
Y461500D01*
X462500Y473500D02*
X466500Y477500D01*
X462500Y481500*
X458500Y477500*
X462500Y473500*
Y477500D02*
Y481500D01*
Y434130D02*
X466500Y438130D01*
X462500Y442130*
X458500Y438130*
X462500Y434130*
Y438130D02*
Y442130D01*
X597500Y353500D02*
X601500Y357500D01*
X597500Y361500*
X593500Y357500*
X597500Y353500*
Y357500D02*
Y361500D01*
X636870Y353500D02*
X640870Y357500D01*
X636870Y361500*
X632870Y357500*
X636870Y353500*
Y357500D02*
Y361500D01*
X547500Y183500D02*
X551500Y187500D01*
X547500Y191500*
X543500Y187500*
X547500Y183500*
Y187500D02*
Y191500D01*
Y144130D02*
X551500Y148130D01*
X547500Y152130*
X543500Y148130*
X547500Y144130*
Y148130D02*
Y152130D01*
X493500Y283500D02*
X501500Y291500D01*
X493500D02*
X501500Y283500D01*
X493500Y313500D02*
X501500Y321500D01*
X493500D02*
X501500Y313500D01*
X473500Y283500D02*
X481500Y291500D01*
X473500D02*
X481500Y283500D01*
X473500Y313500D02*
X481500Y321500D01*
X473500D02*
X481500Y313500D01*
X443500Y283500D02*
X451500Y291500D01*
X443500D02*
X451500Y283500D01*
X443500Y313500D02*
X451500Y321500D01*
X443500D02*
X451500Y313500D01*
X423500Y283500D02*
X431500Y291500D01*
X423500D02*
X431500Y283500D01*
X423500Y313500D02*
X431500Y321500D01*
X423500D02*
X431500Y313500D01*
X433500D02*
X441500Y321500D01*
X433500D02*
X441500Y313500D01*
X433500Y283500D02*
X441500Y291500D01*
X433500D02*
X441500Y283500D01*
X453500Y313500D02*
X461500Y321500D01*
X453500D02*
X461500Y313500D01*
X453500Y283500D02*
X461500Y291500D01*
X453500D02*
X461500Y283500D01*
X483500Y313500D02*
X491500Y321500D01*
X483500D02*
X491500Y313500D01*
X483500Y283500D02*
X491500Y291500D01*
X483500D02*
X491500Y283500D01*
X503500Y313500D02*
X511500Y321500D01*
X503500D02*
X511500Y313500D01*
X503500Y283500D02*
X511500Y291500D01*
X503500D02*
X511500Y283500D01*
X613500Y328500D02*
X621500Y336500D01*
X613500D02*
X621500Y328500D01*
X623500D02*
X631500Y336500D01*
X623500D02*
X631500Y328500D01*
X608500Y388500D02*
X616500Y396500D01*
X608500D02*
X616500Y388500D01*
X618500D02*
X626500Y396500D01*
X618500D02*
X626500Y388500D01*
X493500Y333500D02*
X501500Y341500D01*
X493500D02*
X501500Y333500D01*
X503500D02*
X511500Y341500D01*
X503500D02*
X511500Y333500D01*
X443500D02*
X451500Y341500D01*
X443500D02*
X451500Y333500D01*
X453500D02*
X461500Y341500D01*
X453500D02*
X461500Y333500D01*
X448500Y383500D02*
X456500Y391500D01*
X448500D02*
X456500Y383500D01*
X438500D02*
X446500Y391500D01*
X438500D02*
X446500Y383500D01*
X498500D02*
X506500Y391500D01*
X498500D02*
X506500Y383500D01*
X488500D02*
X496500Y391500D01*
X488500D02*
X496500Y383500D01*
X473500Y463500D02*
X481500Y471500D01*
X473500D02*
X481500Y463500D01*
X523500D02*
X531500Y471500D01*
X523500D02*
X531500Y463500D01*
X473500Y478500D02*
X481500Y486500D01*
X473500D02*
X481500Y478500D01*
X523500D02*
X531500Y486500D01*
X523500D02*
X531500Y478500D01*
X473500Y493500D02*
X481500Y501500D01*
X473500D02*
X481500Y493500D01*
X523500D02*
X531500Y501500D01*
X523500D02*
X531500Y493500D01*
X383500Y293500D02*
X391500Y301500D01*
X383500D02*
X391500Y293500D01*
X383500Y283500D02*
X391500Y291500D01*
X383500D02*
X391500Y283500D01*
X368500Y293500D02*
X376500Y301500D01*
X368500D02*
X376500Y293500D01*
X368500Y283500D02*
X376500Y291500D01*
X368500D02*
X376500Y283500D01*
X328500Y293500D02*
X336500Y301500D01*
X328500D02*
X336500Y293500D01*
X328500Y283500D02*
X336500Y291500D01*
X328500D02*
X336500Y283500D01*
X313500Y293500D02*
X321500Y301500D01*
X313500D02*
X321500Y293500D01*
X313500Y283500D02*
X321500Y291500D01*
X313500D02*
X321500Y283500D01*
X553500Y483500D02*
X561500Y491500D01*
X553500D02*
X561500Y483500D01*
X543500D02*
X551500Y491500D01*
X543500D02*
X551500Y483500D01*
X593500Y493500D02*
X601500Y501500D01*
X593500D02*
X601500Y493500D01*
X583500D02*
X591500Y501500D01*
X583500D02*
X591500Y493500D01*
X573500D02*
X581500Y501500D01*
X573500D02*
X581500Y493500D01*
X573500Y463500D02*
X581500Y471500D01*
X573500D02*
X581500Y463500D01*
X583500D02*
X591500Y471500D01*
X583500D02*
X591500Y463500D01*
X593500D02*
X601500Y471500D01*
X593500D02*
X601500Y463500D01*
X308500Y218500D02*
X316500Y226500D01*
X308500D02*
X316500Y218500D01*
X328500D02*
X336500Y226500D01*
X328500D02*
X336500Y218500D01*
X348500D02*
X356500Y226500D01*
X348500D02*
X356500Y218500D01*
X348500Y238500D02*
X356500Y246500D01*
X348500D02*
X356500Y238500D01*
X328500D02*
X336500Y246500D01*
X328500D02*
X336500Y238500D01*
X308500D02*
X316500Y246500D01*
X308500D02*
X316500Y238500D01*
X363500Y218500D02*
X371500Y226500D01*
X363500D02*
X371500Y218500D01*
X383500D02*
X391500Y226500D01*
X383500D02*
X391500Y218500D01*
X403500D02*
X411500Y226500D01*
X403500D02*
X411500Y218500D01*
X403500Y238500D02*
X411500Y246500D01*
X403500D02*
X411500Y238500D01*
X383500D02*
X391500Y246500D01*
X383500D02*
X391500Y238500D01*
X363500D02*
X371500Y246500D01*
X363500D02*
X371500Y238500D01*
X363500Y183500D02*
X371500Y191500D01*
X363500D02*
X371500Y183500D01*
X383500D02*
X391500Y191500D01*
X383500D02*
X391500Y183500D01*
X403500D02*
X411500Y191500D01*
X403500D02*
X411500Y183500D01*
X403500Y203500D02*
X411500Y211500D01*
X403500D02*
X411500Y203500D01*
X383500D02*
X391500Y211500D01*
X383500D02*
X391500Y203500D01*
X363500D02*
X371500Y211500D01*
X363500D02*
X371500Y203500D01*
X308500Y183500D02*
X316500Y191500D01*
X308500D02*
X316500Y183500D01*
X328500D02*
X336500Y191500D01*
X328500D02*
X336500Y183500D01*
X348500D02*
X356500Y191500D01*
X348500D02*
X356500Y183500D01*
X348500Y203500D02*
X356500Y211500D01*
X348500D02*
X356500Y203500D01*
X328500D02*
X336500Y211500D01*
X328500D02*
X336500Y203500D01*
X308500D02*
X316500Y211500D01*
X308500D02*
X316500Y203500D01*
X178500Y143500D02*
X186500D01*
X178500Y151500*
X186500*
X178500Y143500*
X198500D02*
X206500D01*
X198500Y151500*
X206500*
X198500Y143500*
X218500D02*
X226500D01*
X218500Y151500*
X226500*
X218500Y143500*
X238500D02*
X246500D01*
X238500Y151500*
X246500*
X238500Y143500*
X463500D02*
X471500D01*
X463500Y151500*
X471500*
X463500Y143500*
X483500D02*
X491500D01*
X483500Y151500*
X491500*
X483500Y143500*
X503500D02*
X511500D01*
X503500Y151500*
X511500*
X503500Y143500*
X523500D02*
X531500D01*
X523500Y151500*
X531500*
X523500Y143500*
X303500D02*
X311500D01*
X303500Y151500*
X311500*
X303500Y143500*
X323500D02*
X331500D01*
X323500Y151500*
X331500*
X323500Y143500*
X343500D02*
X351500D01*
X343500Y151500*
X351500*
X343500Y143500*
X363500D02*
X371500D01*
X363500Y151500*
X371500*
X363500Y143500*
X383500D02*
X391500D01*
X383500Y151500*
X391500*
X383500Y143500*
X403500D02*
X411500D01*
X403500Y151500*
X411500*
X403500Y143500*
X323500Y458500D02*
X331500D01*
X323500Y466500*
X331500*
X323500Y458500*
X343500D02*
X351500D01*
X343500Y466500*
X351500*
X343500Y458500*
X363500D02*
X371500D01*
X363500Y466500*
X371500*
X363500Y458500*
X383500D02*
X391500D01*
X383500Y466500*
X391500*
X383500Y458500*
X403500D02*
X411500D01*
X403500Y466500*
X411500*
X403500Y458500*
X423500D02*
X431500D01*
X423500Y466500*
X431500*
X423500Y458500*
X562500Y148500D02*
X566500Y152500D01*
X562500Y156500*
X558500Y152500*
X562500Y148500*
Y152500D02*
Y156500D01*
X592500Y148500D02*
X596500Y152500D01*
X592500Y156500*
X588500Y152500*
X592500Y148500*
Y152500D02*
Y156500D01*
X612500Y148500D02*
X616500Y152500D01*
X612500Y156500*
X608500Y152500*
X612500Y148500*
Y152500D02*
Y156500D01*
X632500Y148500D02*
X636500Y152500D01*
X632500Y156500*
X628500Y152500*
X632500Y148500*
Y152500D02*
Y156500D01*
Y178500D02*
X636500Y182500D01*
X632500Y186500*
X628500Y182500*
X632500Y178500*
Y182500D02*
Y186500D01*
X592500Y178500D02*
X596500Y182500D01*
X592500Y186500*
X588500Y182500*
X592500Y178500*
Y182500D02*
Y186500D01*
X612500Y178500D02*
X616500Y182500D01*
X612500Y186500*
X608500Y182500*
X612500Y178500*
Y182500D02*
Y186500D01*
X562500Y178500D02*
X566500Y182500D01*
X562500Y186500*
X558500Y182500*
X562500Y178500*
Y182500D02*
Y186500D01*
X603500Y418500D02*
X611500Y426500D01*
X603500D02*
X611500Y418500D01*
X623500D02*
X631500Y426500D01*
X623500D02*
X631500Y418500D01*
X568500Y318500D02*
X576500Y326500D01*
X568500D02*
X576500Y318500D01*
X588500D02*
X596500Y326500D01*
X588500D02*
X596500Y318500D01*
X533500Y208500D02*
X541500Y216500D01*
Y208500*
X533500Y216500*
Y208500*
X623500D02*
X631500Y216500D01*
Y208500*
X623500Y216500*
Y208500*
X113500Y117500D02*
X121500D01*
X117500Y113500D02*
Y121500D01*
X628500Y117500D02*
X636500D01*
X632500Y113500D02*
Y121500D01*
X628500Y492500D02*
X636500D01*
X632500Y488500D02*
Y496500D01*
X113500Y492500D02*
X121500D01*
X117500Y488500D02*
Y496500D01*
X427500Y188500D02*
X431500Y192500D01*
X427500Y196500*
X423500Y192500*
X427500Y188500*
Y192500D02*
Y196500D01*
X507500Y188500D02*
X511500Y192500D01*
X507500Y196500*
X503500Y192500*
X507500Y188500*
Y192500D02*
Y196500D01*
Y268500D02*
X511500Y272500D01*
X507500Y276500*
X503500Y272500*
X507500Y268500*
Y272500D02*
Y276500D01*
X477500Y268500D02*
X481500Y272500D01*
X477500Y276500*
X473500Y272500*
X477500Y268500*
Y272500D02*
Y276500D01*
X457500Y268500D02*
X461500Y272500D01*
X457500Y276500*
X453500Y272500*
X457500Y268500*
Y272500D02*
Y276500D01*
X427500Y268500D02*
X431500Y272500D01*
X427500Y276500*
X423500Y272500*
X427500Y268500*
Y272500D02*
Y276500D01*
X457500Y188500D02*
X461500Y192500D01*
X457500Y196500*
X453500Y192500*
X457500Y188500*
Y192500D02*
Y196500D01*
X477500Y188500D02*
X481500Y192500D01*
X477500Y196500*
X473500Y192500*
X477500Y188500*
Y192500D02*
Y196500D01*
X442500Y188500D02*
X446500Y192500D01*
X442500Y196500*
X438500Y192500*
X442500Y188500*
Y192500D02*
Y196500D01*
X492500Y188500D02*
X496500Y192500D01*
X492500Y196500*
X488500Y192500*
X492500Y188500*
Y192500D02*
Y196500D01*
Y268500D02*
X496500Y272500D01*
X492500Y276500*
X488500Y272500*
X492500Y268500*
Y272500D02*
Y276500D01*
X442500Y268500D02*
X446500Y272500D01*
X442500Y276500*
X438500Y272500*
X442500Y268500*
Y272500D02*
Y276500D01*
X258500Y122500D02*
X266500D01*
X262500Y118500D02*
Y126500D01*
X264500Y127084D02*
Y124500D01*
Y127084D02*
X265305D01*
X265574Y126961*
X265663Y126838*
X265753Y126592*
Y126345*
X265663Y126099*
X265574Y125976*
X265305Y125853*
X264500D02*
X265305D01*
X265574Y125730*
X265663Y125607*
X265753Y125361*
Y124992*
X265663Y124746*
X265574Y124623*
X265305Y124500*
X264500*
X271000Y432500D02*
X279000D01*
X275000Y428500D02*
Y436500D01*
X277000Y437084D02*
Y434500D01*
Y437084D02*
X277805D01*
X278074Y436961*
X278163Y436838*
X278253Y436592*
Y436345*
X278163Y436099*
X278074Y435976*
X277805Y435853*
X277000D02*
X277805D01*
X278074Y435730*
X278163Y435607*
X278253Y435361*
Y434992*
X278163Y434746*
X278074Y434623*
X277805Y434500*
X277000*
X511000Y377500D02*
X519000D01*
X515000Y373500D02*
Y381500D01*
X517000Y382084D02*
Y379500D01*
Y382084D02*
X517805D01*
X518074Y381961*
X518163Y381838*
X518253Y381592*
Y381345*
X518163Y381099*
X518074Y380976*
X517805Y380853*
X517000D02*
X517805D01*
X518074Y380730*
X518163Y380607*
X518253Y380361*
Y379992*
X518163Y379746*
X518074Y379623*
X517805Y379500*
X517000*
X361000Y487500D02*
X369000D01*
X365000Y483500D02*
Y491500D01*
X367000Y492084D02*
Y489500D01*
Y492084D02*
X367805D01*
X368074Y491961*
X368163Y491838*
X368253Y491592*
Y491345*
X368163Y491099*
X368074Y490976*
X367805Y490853*
X367000D02*
X367805D01*
X368074Y490730*
X368163Y490607*
X368253Y490361*
Y489992*
X368163Y489746*
X368074Y489623*
X367805Y489500*
X367000*
X381000Y487500D02*
X389000D01*
X385000Y483500D02*
Y491500D01*
X387000Y492084D02*
Y489500D01*
Y492084D02*
X387805D01*
X388074Y491961*
X388163Y491838*
X388253Y491592*
Y491345*
X388163Y491099*
X388074Y490976*
X387805Y490853*
X387000D02*
X387805D01*
X388074Y490730*
X388163Y490607*
X388253Y490361*
Y489992*
X388163Y489746*
X388074Y489623*
X387805Y489500*
X387000*
X100000Y100000D02*
X650000D01*
Y510000*
X100000*
Y100000*
X729921Y225984D02*
X899213D01*
X729921Y210236D02*
X899213D01*
X729921Y194488D02*
X899213D01*
X729921Y178740D02*
X899213D01*
X729921Y162992D02*
X899213D01*
X729921Y147244D02*
X899213D01*
X729921Y131496D02*
X899213D01*
X729921Y115748D02*
X899213D01*
X729921Y100000D02*
X899213D01*
X729921Y225984D02*
Y100000D01*
X785039Y225984D02*
Y100000D01*
X808661Y225984D02*
Y100000D01*
X832283Y225984D02*
Y100000D01*
X867717Y225984D02*
Y100000D01*
X899213Y225984D02*
Y100000D01*
X753043Y218602D02*
X752685Y219094D01*
X752149Y219341*
X751433*
X750896Y219094*
X750538Y218602*
Y218110*
X750717Y217618*
X750896Y217372*
X751254Y217126*
X752327Y216634*
X752685Y216388*
X752864Y216142*
X753043Y215650*
Y214911*
X752685Y214419*
X752149Y214173*
X751433*
X750896Y214419*
X750538Y214911*
X754654Y219341D02*
Y214173D01*
X758770Y219341D02*
X756264Y214173D01*
Y219341D02*
X758770D01*
X756264Y214173D02*
X758770D01*
X760380Y219341D02*
Y214173D01*
Y219341D02*
X762707D01*
X760380Y216880D02*
X761812D01*
X760380Y214173D02*
X762707D01*
X791340Y219341D02*
X790982Y219094D01*
X790624Y218602*
X790445Y218110*
X790266Y217372*
Y216142*
X790445Y215404*
X790624Y214911*
X790982Y214419*
X791340Y214173*
X792055*
X792413Y214419*
X792771Y214911*
X792950Y215404*
X793129Y216142*
Y217372*
X792950Y218110*
X792771Y218602*
X792413Y219094*
X792055Y219341*
X791340*
X791877Y215157D02*
X792950Y213681D01*
X795992Y219341D02*
Y214173D01*
X794740Y219341D02*
X797245D01*
X798856D02*
X800287Y216880D01*
Y214173*
X801719Y219341D02*
X800287Y216880D01*
X816393Y218602D02*
X816035Y219094D01*
X815499Y219341*
X814783*
X814246Y219094*
X813888Y218602*
Y218110*
X814067Y217618*
X814246Y217372*
X814604Y217126*
X815678Y216634*
X816035Y216388*
X816214Y216142*
X816393Y215650*
Y214911*
X816035Y214419*
X815499Y214173*
X814783*
X814246Y214419*
X813888Y214911*
X818004Y219341D02*
X819436Y216880D01*
Y214173*
X820867Y219341D02*
X819436Y216880D01*
X822478Y219341D02*
Y214173D01*
Y219341D02*
X823909Y214173D01*
X825341Y219341D02*
X823909Y214173D01*
X825341Y219341D02*
Y214173D01*
X839657Y219341D02*
Y214173D01*
Y219341D02*
X841268D01*
X841805Y219094*
X841984Y218848*
X842163Y218356*
Y217618*
X841984Y217126*
X841805Y216880*
X841268Y216634*
X839657*
X843773Y219341D02*
Y214173D01*
X845921*
X848963Y219341D02*
X847531Y214173D01*
X848963Y219341D02*
X850395Y214173D01*
X848068Y215896D02*
X849858D01*
X853258Y219341D02*
Y214173D01*
X852005Y219341D02*
X854511D01*
X856121D02*
Y214173D01*
Y219341D02*
X858448D01*
X856121Y216880D02*
X857553D01*
X856121Y214173D02*
X858448D01*
X860058Y219341D02*
Y214173D01*
Y219341D02*
X861311D01*
X861848Y219094*
X862206Y218602*
X862385Y218110*
X862564Y217372*
Y216142*
X862385Y215404*
X862206Y214911*
X861848Y214419*
X861311Y214173*
X860058*
X878491Y219341D02*
Y214173D01*
X877238Y219341D02*
X879743D01*
X882428D02*
X882070Y219094D01*
X881712Y218602*
X881533Y218110*
X881354Y217372*
Y216142*
X881533Y215404*
X881712Y214911*
X882070Y214419*
X882428Y214173*
X883144*
X883501Y214419*
X883859Y214911*
X884038Y215404*
X884217Y216142*
Y217372*
X884038Y218110*
X883859Y218602*
X883501Y219094*
X883144Y219341*
X882428*
X885828D02*
Y214173D01*
X887975*
X734216Y203593D02*
X736185D01*
X735111Y201624*
X735648*
X736006Y201378*
X736185Y201132*
X736364Y200394*
Y199902*
X736185Y199163*
X735827Y198671*
X735290Y198425*
X734753*
X734216Y198671*
X734037Y198917*
X733858Y199409*
X796440Y203593D02*
X794650Y200148D01*
X797335*
X796440Y203593D02*
Y198425D01*
X816535Y202362D02*
X824409D01*
X820472Y198425D02*
Y206299D01*
X839747Y203593D02*
Y198425D01*
Y203593D02*
X842252Y198425D01*
Y203593D02*
Y198425D01*
X844937Y203593D02*
X844579Y203346D01*
X844221Y202854*
X844042Y202362*
X843863Y201624*
Y200394*
X844042Y199656*
X844221Y199163*
X844579Y198671*
X844937Y198425*
X845652*
X846010Y198671*
X846368Y199163*
X846547Y199656*
X846726Y200394*
Y201624*
X846547Y202362*
X846368Y202854*
X846010Y203346*
X845652Y203593*
X844937*
X872675Y202854D02*
Y198425D01*
X871064Y200640D02*
X874285D01*
X879117Y204577D02*
X875896Y196703D01*
X880728Y200640D02*
X883949D01*
X886633Y203593D02*
X886096Y203346D01*
X885738Y202608*
X885559Y201378*
Y200640*
X885738Y199409*
X886096Y198671*
X886633Y198425*
X886991*
X887528Y198671*
X887886Y199409*
X888065Y200640*
Y201378*
X887886Y202608*
X887528Y203346*
X886991Y203593*
X886633*
X889854Y198917D02*
X889675Y198671D01*
X889854Y198425*
X890033Y198671*
X889854Y198917*
X892718Y203593D02*
X892181Y203346D01*
X891823Y202608*
X891644Y201378*
Y200640*
X891823Y199409*
X892181Y198671*
X892718Y198425*
X893076*
X893612Y198671*
X893970Y199409*
X894149Y200640*
Y201378*
X893970Y202608*
X893612Y203346*
X893076Y203593*
X892718*
X734932Y187844D02*
X734395Y187598D01*
X734037Y186860*
X733858Y185630*
Y184892*
X734037Y183661*
X734395Y182923*
X734932Y182677*
X735290*
X735827Y182923*
X736185Y183661*
X736364Y184892*
Y185630*
X736185Y186860*
X735827Y187598*
X735290Y187844*
X734932*
X738153Y183169D02*
X737974Y182923D01*
X738153Y182677*
X738332Y182923*
X738153Y183169*
X740838Y187844D02*
X740301Y187598D01*
X740122Y187106*
Y186614*
X740301Y186122*
X740659Y185876*
X741374Y185630*
X741911Y185384*
X742269Y184892*
X742448Y184400*
Y183661*
X742269Y183169*
X742090Y182923*
X741553Y182677*
X740838*
X740301Y182923*
X740122Y183169*
X739943Y183661*
Y184400*
X740122Y184892*
X740480Y185384*
X741016Y185630*
X741732Y185876*
X742090Y186122*
X742269Y186614*
Y187106*
X742090Y187598*
X741553Y187844*
X740838*
X744953D02*
X744417Y187598D01*
X744238Y187106*
Y186614*
X744417Y186122*
X744775Y185876*
X745490Y185630*
X746027Y185384*
X746385Y184892*
X746564Y184400*
Y183661*
X746385Y183169*
X746206Y182923*
X745669Y182677*
X744953*
X744417Y182923*
X744238Y183169*
X744059Y183661*
Y184400*
X744238Y184892*
X744596Y185384*
X745132Y185630*
X745848Y185876*
X746206Y186122*
X746385Y186614*
Y187106*
X746206Y187598*
X745669Y187844*
X744953*
X750501Y186122D02*
X750322Y185384D01*
X749964Y184892*
X749427Y184646*
X749248*
X748712Y184892*
X748354Y185384*
X748175Y186122*
Y186368*
X748354Y187106*
X748712Y187598*
X749248Y187844*
X749427*
X749964Y187598*
X750322Y187106*
X750501Y186122*
Y184892*
X750322Y183661*
X749964Y182923*
X749427Y182677*
X749069*
X748533Y182923*
X748354Y183415*
X790713Y186614D02*
Y186860D01*
X790892Y187352*
X791071Y187598*
X791429Y187844*
X792145*
X792503Y187598*
X792682Y187352*
X792861Y186860*
Y186368*
X792682Y185876*
X792324Y185138*
X790534Y182677*
X793040*
X796977Y187844D02*
X795187D01*
X795008Y185630*
X795187Y185876*
X795724Y186122*
X796261*
X796798Y185876*
X797156Y185384*
X797335Y184646*
X797156Y184154*
X796977Y183415*
X796619Y182923*
X796082Y182677*
X795545*
X795008Y182923*
X794829Y183169*
X794650Y183661*
X799124Y186614D02*
Y186860D01*
X799303Y187352*
X799482Y187598*
X799840Y187844*
X800556*
X800914Y187598*
X801093Y187352*
X801272Y186860*
Y186368*
X801093Y185876*
X800735Y185138*
X798945Y182677*
X801451*
X816535D02*
X824409Y190551D01*
X816535D02*
X824409Y182677D01*
X837778Y187844D02*
X839210Y185384D01*
Y182677*
X840642Y187844D02*
X839210Y185384D01*
X842252Y187844D02*
Y182677D01*
Y187844D02*
X844579D01*
X842252Y185384D02*
X843684D01*
X842252Y182677D02*
X844579D01*
X848695Y187106D02*
X848337Y187598D01*
X847800Y187844*
X847084*
X846547Y187598*
X846189Y187106*
Y186614*
X846368Y186122*
X846547Y185876*
X846905Y185630*
X847979Y185138*
X848337Y184892*
X848516Y184646*
X848695Y184154*
Y183415*
X848337Y182923*
X847800Y182677*
X847084*
X846547Y182923*
X846189Y183415*
X872675Y187106D02*
Y182677D01*
X871064Y184892D02*
X874285D01*
X879117Y188829D02*
X875896Y180955D01*
X880728Y184892D02*
X883949D01*
X886633Y187844D02*
X886096Y187598D01*
X885738Y186860*
X885559Y185630*
Y184892*
X885738Y183661*
X886096Y182923*
X886633Y182677*
X886991*
X887528Y182923*
X887886Y183661*
X888065Y184892*
Y185630*
X887886Y186860*
X887528Y187598*
X886991Y187844*
X886633*
X889854Y183169D02*
X889675Y182923D01*
X889854Y182677*
X890033Y182923*
X889854Y183169*
X892718Y187844D02*
X892181Y187598D01*
X891823Y186860*
X891644Y185630*
Y184892*
X891823Y183661*
X892181Y182923*
X892718Y182677*
X893076*
X893612Y182923*
X893970Y183661*
X894149Y184892*
Y185630*
X893970Y186860*
X893612Y187598*
X893076Y187844*
X892718*
X733858Y171112D02*
X734216Y171358D01*
X734753Y172096*
Y166929*
X736543Y167421D02*
X736364Y167175D01*
X736543Y166929*
X736722Y167175*
X736543Y167421*
X739406Y172096D02*
X738869Y171850D01*
X738511Y171112*
X738332Y169882*
Y169144*
X738511Y167913*
X738869Y167175*
X739406Y166929*
X739764*
X740301Y167175*
X740659Y167913*
X740838Y169144*
Y169882*
X740659Y171112*
X740301Y171850*
X739764Y172096*
X739406*
X744775D02*
X742985D01*
X742806Y169882*
X742985Y170128*
X743522Y170374*
X744059*
X744596Y170128*
X744953Y169636*
X745132Y168898*
X744953Y168406*
X744775Y167667*
X744417Y167175*
X743880Y166929*
X743343*
X742806Y167175*
X742627Y167421*
X742448Y167913*
X793577Y172096D02*
X793040Y171850D01*
X792861Y171358*
Y170866*
X793040Y170374*
X793398Y170128*
X794113Y169882*
X794650Y169636*
X795008Y169144*
X795187Y168652*
Y167913*
X795008Y167421*
X794829Y167175*
X794292Y166929*
X793577*
X793040Y167175*
X792861Y167421*
X792682Y167913*
Y168652*
X792861Y169144*
X793219Y169636*
X793756Y169882*
X794471Y170128*
X794829Y170374*
X795008Y170866*
Y171358*
X794829Y171850*
X794292Y172096*
X793577*
X797693D02*
X797156Y171850D01*
X796977Y171358*
Y170866*
X797156Y170374*
X797514Y170128*
X798229Y169882*
X798766Y169636*
X799124Y169144*
X799303Y168652*
Y167913*
X799124Y167421*
X798945Y167175*
X798408Y166929*
X797693*
X797156Y167175*
X796977Y167421*
X796798Y167913*
Y168652*
X796977Y169144*
X797335Y169636*
X797872Y169882*
X798587Y170128*
X798945Y170374*
X799124Y170866*
Y171358*
X798945Y171850*
X798408Y172096*
X797693*
X820472Y166929D02*
X824409Y170866D01*
X820472Y174803*
X816535Y170866*
X820472Y166929*
Y170866D02*
Y174803D01*
X837778Y172096D02*
X839210Y169636D01*
Y166929*
X840642Y172096D02*
X839210Y169636D01*
X842252Y172096D02*
Y166929D01*
Y172096D02*
X844579D01*
X842252Y169636D02*
X843684D01*
X842252Y166929D02*
X844579D01*
X848695Y171358D02*
X848337Y171850D01*
X847800Y172096*
X847084*
X846547Y171850*
X846189Y171358*
Y170866*
X846368Y170374*
X846547Y170128*
X846905Y169882*
X847979Y169390*
X848337Y169144*
X848516Y168898*
X848695Y168406*
Y167667*
X848337Y167175*
X847800Y166929*
X847084*
X846547Y167175*
X846189Y167667*
X872675Y171358D02*
Y166929D01*
X871064Y169144D02*
X874285D01*
X879117Y173081D02*
X875896Y165207D01*
X880728Y169144D02*
X883949D01*
X886633Y172096D02*
X886096Y171850D01*
X885738Y171112*
X885559Y169882*
Y169144*
X885738Y167913*
X886096Y167175*
X886633Y166929*
X886991*
X887528Y167175*
X887886Y167913*
X888065Y169144*
Y169882*
X887886Y171112*
X887528Y171850*
X886991Y172096*
X886633*
X889854Y167421D02*
X889675Y167175D01*
X889854Y166929*
X890033Y167175*
X889854Y167421*
X892718Y172096D02*
X892181Y171850D01*
X891823Y171112*
X891644Y169882*
Y169144*
X891823Y167913*
X892181Y167175*
X892718Y166929*
X893076*
X893612Y167175*
X893970Y167913*
X894149Y169144*
Y169882*
X893970Y171112*
X893612Y171850*
X893076Y172096*
X892718*
X733858Y155364D02*
X734216Y155610D01*
X734753Y156348*
Y151181*
X736543Y151673D02*
X736364Y151427D01*
X736543Y151181*
X736722Y151427*
X736543Y151673*
X738690Y156348D02*
X740659D01*
X739585Y154380*
X740122*
X740480Y154134*
X740659Y153888*
X740838Y153150*
Y152657*
X740659Y151919*
X740301Y151427*
X739764Y151181*
X739227*
X738690Y151427*
X738511Y151673*
X738332Y152165*
X744775Y156348D02*
X742985D01*
X742806Y154134*
X742985Y154380*
X743522Y154626*
X744059*
X744596Y154380*
X744953Y153888*
X745132Y153150*
X744953Y152657*
X744775Y151919*
X744417Y151427*
X743880Y151181*
X743343*
X742806Y151427*
X742627Y151673*
X742448Y152165*
X792861Y155118D02*
Y155364D01*
X793040Y155856*
X793219Y156102*
X793577Y156348*
X794292*
X794650Y156102*
X794829Y155856*
X795008Y155364*
Y154872*
X794829Y154380*
X794471Y153642*
X792682Y151181*
X795187*
X797872Y156348D02*
X797335Y156102D01*
X796977Y155364*
X796798Y154134*
Y153396*
X796977Y152165*
X797335Y151427*
X797872Y151181*
X798229*
X798766Y151427*
X799124Y152165*
X799303Y153396*
Y154134*
X799124Y155364*
X798766Y156102*
X798229Y156348*
X797872*
X816535Y151181D02*
X824409D01*
X816535Y159055*
X824409*
X816535Y151181*
X837778Y156348D02*
X839210Y153888D01*
Y151181*
X840642Y156348D02*
X839210Y153888D01*
X842252Y156348D02*
Y151181D01*
Y156348D02*
X844579D01*
X842252Y153888D02*
X843684D01*
X842252Y151181D02*
X844579D01*
X848695Y155610D02*
X848337Y156102D01*
X847800Y156348*
X847084*
X846547Y156102*
X846189Y155610*
Y155118*
X846368Y154626*
X846547Y154380*
X846905Y154134*
X847979Y153642*
X848337Y153396*
X848516Y153150*
X848695Y152657*
Y151919*
X848337Y151427*
X847800Y151181*
X847084*
X846547Y151427*
X846189Y151919*
X872675Y155610D02*
Y151181D01*
X871064Y153396D02*
X874285D01*
X879117Y157333D02*
X875896Y149459D01*
X880728Y153396D02*
X883949D01*
X886633Y156348D02*
X886096Y156102D01*
X885738Y155364*
X885559Y154134*
Y153396*
X885738Y152165*
X886096Y151427*
X886633Y151181*
X886991*
X887528Y151427*
X887886Y152165*
X888065Y153396*
Y154134*
X887886Y155364*
X887528Y156102*
X886991Y156348*
X886633*
X889854Y151673D02*
X889675Y151427D01*
X889854Y151181*
X890033Y151427*
X889854Y151673*
X892718Y156348D02*
X892181Y156102D01*
X891823Y155364*
X891644Y154134*
Y153396*
X891823Y152165*
X892181Y151427*
X892718Y151181*
X893076*
X893612Y151427*
X893970Y152165*
X894149Y153396*
Y154134*
X893970Y155364*
X893612Y156102*
X893076Y156348*
X892718*
X733858Y139616D02*
X734216Y139862D01*
X734753Y140600*
Y135433*
X736543Y135925D02*
X736364Y135679D01*
X736543Y135433*
X736722Y135679*
X736543Y135925*
X740480Y139862D02*
X740301Y140354D01*
X739764Y140600*
X739406*
X738869Y140354*
X738511Y139616*
X738332Y138386*
Y137156*
X738511Y136171*
X738869Y135679*
X739406Y135433*
X739585*
X740122Y135679*
X740480Y136171*
X740659Y136909*
Y137156*
X740480Y137894*
X740122Y138386*
X739585Y138632*
X739406*
X738869Y138386*
X738511Y137894*
X738332Y137156*
X744596Y140600D02*
X742806D01*
X742627Y138386*
X742806Y138632*
X743343Y138878*
X743880*
X744417Y138632*
X744775Y138140*
X744953Y137402*
X744775Y136909*
X744596Y136171*
X744238Y135679*
X743701Y135433*
X743164*
X742627Y135679*
X742448Y135925*
X742269Y136417*
X794919Y139370D02*
Y139616D01*
X795098Y140108*
X795277Y140354*
X795635Y140600*
X796350*
X796708Y140354*
X796887Y140108*
X797066Y139616*
Y139124*
X796887Y138632*
X796529Y137894*
X794740Y135433*
X797245*
X816535D02*
X824409Y143307D01*
Y135433*
X816535Y143307*
Y135433*
X837778Y140600D02*
X839210Y138140D01*
Y135433*
X840642Y140600D02*
X839210Y138140D01*
X842252Y140600D02*
Y135433D01*
Y140600D02*
X844579D01*
X842252Y138140D02*
X843684D01*
X842252Y135433D02*
X844579D01*
X848695Y139862D02*
X848337Y140354D01*
X847800Y140600*
X847084*
X846547Y140354*
X846189Y139862*
Y139370*
X846368Y138878*
X846547Y138632*
X846905Y138386*
X847979Y137894*
X848337Y137648*
X848516Y137402*
X848695Y136909*
Y136171*
X848337Y135679*
X847800Y135433*
X847084*
X846547Y135679*
X846189Y136171*
X872675Y139862D02*
Y135433D01*
X871064Y137648D02*
X874285D01*
X879117Y141585D02*
X875896Y133711D01*
X880728Y137648D02*
X883949D01*
X886633Y140600D02*
X886096Y140354D01*
X885738Y139616*
X885559Y138386*
Y137648*
X885738Y136417*
X886096Y135679*
X886633Y135433*
X886991*
X887528Y135679*
X887886Y136417*
X888065Y137648*
Y138386*
X887886Y139616*
X887528Y140354*
X886991Y140600*
X886633*
X889854Y135925D02*
X889675Y135679D01*
X889854Y135433*
X890033Y135679*
X889854Y135925*
X892718Y140600D02*
X892181Y140354D01*
X891823Y139616*
X891644Y138386*
Y137648*
X891823Y136417*
X892181Y135679*
X892718Y135433*
X893076*
X893612Y135679*
X893970Y136417*
X894149Y137648*
Y138386*
X893970Y139616*
X893612Y140354*
X893076Y140600*
X892718*
X734932Y124852D02*
X734395Y124606D01*
X734037Y123868*
X733858Y122638*
Y121900*
X734037Y120669*
X734395Y119931*
X734932Y119685*
X735290*
X735827Y119931*
X736185Y120669*
X736364Y121900*
Y122638*
X736185Y123868*
X735827Y124606*
X735290Y124852*
X734932*
X738153Y120177D02*
X737974Y119931D01*
X738153Y119685*
X738332Y119931*
X738153Y120177*
X742269Y123130D02*
X742090Y122392D01*
X741732Y121900*
X741195Y121654*
X741016*
X740480Y121900*
X740122Y122392*
X739943Y123130*
Y123376*
X740122Y124114*
X740480Y124606*
X741016Y124852*
X741195*
X741732Y124606*
X742090Y124114*
X742269Y123130*
Y121900*
X742090Y120669*
X741732Y119931*
X741195Y119685*
X740838*
X740301Y119931*
X740122Y120423*
X793487Y123868D02*
X793845Y124114D01*
X794382Y124852*
Y119685*
X796887Y124852D02*
X796350Y124606D01*
X796171Y124114*
Y123622*
X796350Y123130*
X796708Y122884*
X797424Y122638*
X797961Y122392*
X798319Y121900*
X798498Y121407*
Y120669*
X798319Y120177*
X798140Y119931*
X797603Y119685*
X796887*
X796350Y119931*
X796171Y120177*
X795992Y120669*
Y121407*
X796171Y121900*
X796529Y122392*
X797066Y122638*
X797782Y122884*
X798140Y123130*
X798319Y123622*
Y124114*
X798140Y124606*
X797603Y124852*
X796887*
X816535Y123622D02*
X824409D01*
X820472Y119685D02*
Y127559D01*
X823586Y129724D02*
X822441Y125591D01*
X823586Y129724D02*
X824732Y125591D01*
X822870Y126969D02*
X824302D01*
X837778Y124852D02*
X839210Y122392D01*
Y119685*
X840642Y124852D02*
X839210Y122392D01*
X842252Y124852D02*
Y119685D01*
Y124852D02*
X844579D01*
X842252Y122392D02*
X843684D01*
X842252Y119685D02*
X844579D01*
X848695Y124114D02*
X848337Y124606D01*
X847800Y124852*
X847084*
X846547Y124606*
X846189Y124114*
Y123622*
X846368Y123130*
X846547Y122884*
X846905Y122638*
X847979Y122146*
X848337Y121900*
X848516Y121654*
X848695Y121161*
Y120423*
X848337Y119931*
X847800Y119685*
X847084*
X846547Y119931*
X846189Y120423*
X872675Y124114D02*
Y119685D01*
X871064Y121900D02*
X874285D01*
X879117Y125837D02*
X875896Y117963D01*
X880728Y121900D02*
X883949D01*
X886633Y124852D02*
X886096Y124606D01*
X885738Y123868*
X885559Y122638*
Y121900*
X885738Y120669*
X886096Y119931*
X886633Y119685*
X886991*
X887528Y119931*
X887886Y120669*
X888065Y121900*
Y122638*
X887886Y123868*
X887528Y124606*
X886991Y124852*
X886633*
X889854Y120177D02*
X889675Y119931D01*
X889854Y119685*
X890033Y119931*
X889854Y120177*
X892718Y124852D02*
X892181Y124606D01*
X891823Y123868*
X891644Y122638*
Y121900*
X891823Y120669*
X892181Y119931*
X892718Y119685*
X893076*
X893612Y119931*
X893970Y120669*
X894149Y121900*
Y122638*
X893970Y123868*
X893612Y124606*
X893076Y124852*
X892718*
X734932Y109104D02*
X734395Y108858D01*
X734037Y108120*
X733858Y106890*
Y106152*
X734037Y104921*
X734395Y104183*
X734932Y103937*
X735290*
X735827Y104183*
X736185Y104921*
X736364Y106152*
Y106890*
X736185Y108120*
X735827Y108858*
X735290Y109104*
X734932*
X738153Y104429D02*
X737974Y104183D01*
X738153Y103937*
X738332Y104183*
X738153Y104429*
X742448Y109104D02*
X740659Y103937D01*
X739943Y109104D02*
X742448D01*
X796977D02*
X795187D01*
X795008Y106890*
X795187Y107136*
X795724Y107382*
X796261*
X796798Y107136*
X797156Y106644*
X797335Y105906*
X797156Y105413*
X796977Y104675*
X796619Y104183*
X796082Y103937*
X795545*
X795008Y104183*
X794829Y104429*
X794650Y104921*
X816535Y107874D02*
X824409D01*
X820472Y103937D02*
Y111811D01*
X822441Y113976D02*
Y109843D01*
Y113976D02*
X823729D01*
X824159Y113780*
X824302Y113583*
X824445Y113189*
Y112795*
X824302Y112402*
X824159Y112205*
X823729Y112008*
X822441D02*
X823729D01*
X824159Y111811*
X824302Y111614*
X824445Y111220*
Y110630*
X824302Y110236*
X824159Y110039*
X823729Y109843*
X822441*
X837778Y109104D02*
X839210Y106644D01*
Y103937*
X840642Y109104D02*
X839210Y106644D01*
X842252Y109104D02*
Y103937D01*
Y109104D02*
X844579D01*
X842252Y106644D02*
X843684D01*
X842252Y103937D02*
X844579D01*
X848695Y108366D02*
X848337Y108858D01*
X847800Y109104*
X847084*
X846547Y108858*
X846189Y108366*
Y107874*
X846368Y107382*
X846547Y107136*
X846905Y106890*
X847979Y106398*
X848337Y106152*
X848516Y105906*
X848695Y105413*
Y104675*
X848337Y104183*
X847800Y103937*
X847084*
X846547Y104183*
X846189Y104675*
X872675Y108366D02*
Y103937D01*
X871064Y106152D02*
X874285D01*
X879117Y110089D02*
X875896Y102215D01*
X880728Y106152D02*
X883949D01*
X886633Y109104D02*
X886096Y108858D01*
X885738Y108120*
X885559Y106890*
Y106152*
X885738Y104921*
X886096Y104183*
X886633Y103937*
X886991*
X887528Y104183*
X887886Y104921*
X888065Y106152*
Y106890*
X887886Y108120*
X887528Y108858*
X886991Y109104*
X886633*
X889854Y104429D02*
X889675Y104183D01*
X889854Y103937*
X890033Y104183*
X889854Y104429*
X892718Y109104D02*
X892181Y108858D01*
X891823Y108120*
X891644Y106890*
Y106152*
X891823Y104921*
X892181Y104183*
X892718Y103937*
X893076*
X893612Y104183*
X893970Y104921*
X894149Y106152*
Y106890*
X893970Y108120*
X893612Y108858*
X893076Y109104*
X892718*
X0Y0D02*
M02*
