%
T1C.02756F197S55
X02625Y01225
X0275Y04325
X0365Y04875
X0385Y04875
X0515Y03775
T2C.035F197S55
X01625Y01175
X01475Y01175
X01625Y01675
X01475Y01675
X01475Y02125
X01375Y02125
X01225Y02125
X01475Y02275
X01575Y02375
X01375Y02625
X01225Y02625
X01575Y02675
X01475Y02825
X01475Y02975
X01475Y03125
X01275Y03175
X01475Y03275
X01575Y03425
X01425Y03475
X01275Y03675
X01425Y03675
X01575Y03725
X01475Y04125
X01475Y04275
X01475Y04425
X01475Y04875
X01775Y04875
X01675Y04875
X01675Y04125
X01775Y04125
X01675Y03725
X01875Y03725
X01775Y03725
X01675Y03425
X01775Y03425
X01875Y03425
X01675Y02675
X01875Y02675
X01775Y02675
X01775Y02375
X01675Y02375
X01875Y02375
X01975Y02125
X02175Y02125
X02325Y02125
X01975Y02275
X02175Y02625
X02325Y02625
X01975Y02825
X01975Y02975
X01975Y03125
X02225Y03175
X01975Y03275
X02375Y03475
X02225Y03675
X02375Y03675
X01975Y04125
X01975Y04275
X01975Y04425
X01975Y04875
X02425Y04875
X02625Y04875
X02425Y04425
X02425Y04275
X02425Y04125
X02625Y04125
X02625Y03725
X02525Y03725
X02525Y03425
X02625Y03425
X02425Y03275
X02425Y03125
X02425Y02975
X02425Y02825
X02625Y02675
X02525Y02675
X02625Y02375
X02525Y02375
X02425Y02275
X02425Y02125
X03125Y01875
X03125Y02075
X02925Y02125
X03125Y02225
X02925Y02275
X02825Y02375
X02725Y02375
X03125Y02425
X02725Y02675
X02825Y02675
X02925Y02825
X02925Y02975
X02925Y03125
X02925Y03275
X02725Y03425
X02825Y03425
X02825Y03725
X02725Y03725
X02725Y04125
X02925Y04125
X02925Y04275
X02925Y04425
X02925Y04875
X02725Y04875
X03225Y03725
X03225Y03575
X03275Y03425
X03175Y03425
X03375Y03425
X03275Y03125
X03375Y03125
X03175Y03125
X03325Y02975
X03175Y02975
X03325Y02875
X03175Y02875
X03325Y02425
X03325Y02225
X03325Y02075
X03325Y01875
X03525Y01875
X03675Y01875
X03875Y01875
X03525Y02075
X03875Y02075
X03675Y02075
X03525Y02225
X03675Y02225
X03875Y02225
X03525Y02425
X03875Y02425
X03675Y02425
X03875Y02875
X03725Y02875
X03875Y02975
X03725Y02975
X03825Y03125
X03725Y03125
X03475Y03125
X03825Y03425
X03725Y03425
X03475Y03425
X03775Y03575
X03425Y03575
X03425Y03725
X03775Y03725
X03625Y03775
X03625Y04275
X04175Y04275
X04375Y04125
X04175Y03775
X03975Y03725
X04375Y03625
X03975Y03575
X03925Y03425
X04025Y03425
X04275Y03175
X04375Y03175
X04025Y03125
X03925Y03125
X04375Y02875
X04275Y02875
X04075Y02425
X04075Y02225
X04075Y02075
X04075Y01875
X04475Y02875
X04575Y02875
X04875Y02875
X04775Y02875
X04875Y03175
X04475Y03175
X04575Y03175
X04775Y03175
X04475Y03375
X04575Y03375
X04575Y03625
X04875Y03625
X04425Y03875
X04525Y03875
X04875Y04125
X04575Y04125
X04775Y04225
X04875Y04225
X04475Y04275
X04875Y04525
X04775Y04525
X04775Y04675
X04475Y04775
X04775Y04825
X04775Y04975
X05275Y04975
X05275Y04825
X05275Y04675
X05375Y04675
X05075Y04525
X04975Y04525
X04975Y04225
X05075Y04225
X05375Y04175
X05075Y04125
X05375Y04025
X04925Y03875
X05375Y03875
X05025Y03875
X05375Y03725
X05075Y03625
X05375Y03575
X05375Y03425
X04975Y03375
X05075Y03375
X05375Y03225
X04975Y03175
X05075Y03175
X05075Y02875
X04975Y02875
X05275Y02375
X05775Y02375
X05875Y02375
X05475Y02525
X05775Y02525
X05675Y02525
X05775Y02675
X05575Y03225
X05725Y03225
X05875Y03425
X05875Y03575
X05875Y03725
X05875Y03875
X05875Y04025
X05875Y04175
X05875Y04675
X05575Y04675
X05775Y04675
X05575Y04875
X05475Y04875
X05875Y04975
X05775Y04975
X05975Y04975
X05975Y04675
X06075Y04525
X06275Y04525
X06275Y04225
X06075Y04225
X06225Y03925
X06125Y03925
X06175Y03325
X06275Y03325
X05925Y03225
X06275Y02675
X06275Y02525
X06375Y02375
T3C.03543F197S55
X05475Y02775
X05575Y02775
X05575Y03075
X05475Y03075
X05875Y03075
X05775Y03075
X05675Y03075
X06075Y03075
X05975Y03075
X05775Y02775
X05875Y02775
X05675Y02775
X05975Y02775
X06075Y02775
X06175Y02775
X06275Y02775
X06175Y03075
X06275Y03075
T4C.04134F139S55
X01475Y01875
X01575Y01975
X01225Y02825
X01325Y02925
X01225Y03025
X01625Y03975
X01475Y04575
X01575Y04725
X019687Y04725
X018687Y04575
X01825Y03975
X01725Y03875
X01975Y01975
X01775Y01975
X01875Y01875
X01675Y01875
X02625Y01875
X02425Y01875
X02525Y01975
X02175Y02825
X02275Y02925
X02175Y03025
X02575Y03975
X02425Y04575
X02525Y04725
X029187Y04725
X028187Y04575
X02775Y03975
X02675Y03875
X03125Y02725
X03125Y02575
X02725Y01975
X02925Y01975
X02825Y01875
X035187Y02575
X035187Y02725
X03325Y03875
X03225Y03975
X03425Y03975
X03325Y04125
X03225Y04225
X03425Y04225
X03775Y04225
X03975Y04225
X03875Y04125
X03775Y03975
X03975Y03975
X03875Y03875
X040687Y02725
X03675Y02725
X040687Y02575
X03675Y02575
X04275Y01925
X04575Y01925
X04425Y01925
X04575Y02725
X04275Y02725
X04425Y02725
X04625Y043813
X04625Y04775
X05375Y04325
X05075Y02725
X04925Y02725
X04775Y02725
X04925Y01925
X05075Y01925
X04775Y01925
X055813Y01125
X055813Y01325
X05475Y014813
X05625Y01525
X05625Y01825
X05475Y01875
X05575Y04325
X05875Y04325
X05675Y04325
X05475Y04425
X05775Y04425
X05975Y03575
X063687Y03575
X05925Y01825
X06125Y01825
X06325Y01825
X05925Y01525
X06125Y01525
X06325Y01525
X05975Y01325
X05975Y01125
T5C.05315F107S55
X01825Y01475
X02025Y01475
X02225Y01475
X02425Y01475
X03275Y04625
X03475Y04625
X03075Y01475
X03475Y01475
X03275Y01475
X03675Y01475
X03875Y01475
X04075Y01475
X03875Y04625
X03675Y04625
X04075Y04625
X04275Y04625
X04875Y01475
X04675Y01475
X05075Y01475
X05275Y01475
T6C.06496F089S55
X05375Y02125
X06275Y02125
T7C.11811F069S658
X01175Y01175
X01175Y04925
X06325Y04925
X06325Y01175
M30
