*
*
G04 PADS Layout (Build Number 2007.42.1) generated Gerber (RS-274-X) file*
G04 PC Version=2.1*
*
%IN "1702-391_v6.pcb"*%
*
%MOIN*%
*
%FSLAX35Y35*%
*
*
*
*
G04 PC Standard Apertures*
*
*
G04 Thermal Relief Aperture macro.*
%AMTER*
1,1,$1,0,0*
1,0,$1-$2,0,0*
21,0,$3,$4,0,0,45*
21,0,$3,$4,0,0,135*
%
*
*
G04 Annular Aperture macro.*
%AMANN*
1,1,$1,0,0*
1,0,$2,0,0*
%
*
*
G04 Odd Aperture macro.*
%AMODD*
1,1,$1,0,0*
1,0,$1-0.005,0,0*
%
*
*
G04 PC Custom Aperture Macros*
*
*
*
*
*
*
G04 PC Aperture Table*
*
%ADD029R,0.07X0.07*%
%ADD030C,0.07*%
%ADD031R,0.07299X0.07299*%
%ADD032C,0.07299*%
%ADD033C,0.07693*%
%ADD034C,0.0789*%
%ADD035C,0.07496*%
%ADD036C,0.12811*%
%ADD037C,0.08874*%
%ADD038C,0.09661*%
%ADD039C,0.01*%
*
*
*
*
G04 PC Copper Outlines (0)*
G04 Layer Name 1702-391_v6.pcb - dark (0)*
%LPD*%
*
*
G04 PC Area=Custom_Thermal*
*
G04 PC Custom Flashes*
G04 Layer Name 1702-391_v6.pcb - flashes*
%LPD*%
*
*
G04 PC Circuitry*
G04 Layer Name 1702-391_v6.pcb - circuitry*
%LPD*%
*
G54D29*
G01X187500Y267500D03*
Y372500D03*
X282500D03*
Y267500D03*
X317500Y312500D03*
X372500D03*
X507500Y452500D03*
X597500Y497500D03*
G54D30*
X177500Y267500D03*
X167500D03*
X157500D03*
Y237500D03*
X167500D03*
X177500D03*
X187500D03*
X177500Y372500D03*
X167500D03*
X157500D03*
Y342500D03*
X167500D03*
X177500D03*
X187500D03*
X272500Y372500D03*
X262500D03*
X252500D03*
Y342500D03*
X262500D03*
X272500D03*
X282500D03*
X272500Y267500D03*
X262500D03*
X252500D03*
Y237500D03*
X262500D03*
X272500D03*
X282500D03*
X327500Y312500D03*
X337500D03*
X347500D03*
Y342500D03*
X337500D03*
X327500D03*
X317500D03*
X382500Y312500D03*
X392500D03*
X402500D03*
Y342500D03*
X392500D03*
X382500D03*
X372500D03*
X497500Y452500D03*
X487500D03*
X477500D03*
Y422500D03*
X487500D03*
X497500D03*
X507500D03*
X147500Y227500D03*
X197500D03*
X147500Y212500D03*
X197500D03*
X137500D03*
Y262500D03*
X122500Y212500D03*
Y262500D03*
X217500Y212500D03*
Y262500D03*
X232500Y212500D03*
Y262500D03*
X162500Y117500D03*
Y167500D03*
X147500Y117500D03*
Y167500D03*
X242500Y282500D03*
X292500D03*
X242500Y297500D03*
X292500D03*
X242500Y312500D03*
X292500D03*
X242500Y327500D03*
X292500D03*
X147500Y282500D03*
X197500D03*
X147500Y297500D03*
X197500D03*
X147500Y312500D03*
X197500D03*
X127500Y317500D03*
Y367500D03*
X222500Y317500D03*
Y367500D03*
X147500Y427500D03*
X197500D03*
X147500Y442500D03*
X197500D03*
X242500Y427500D03*
X292500D03*
X242500Y442500D03*
X292500D03*
X362500Y377500D03*
Y427500D03*
X417500Y377500D03*
Y427500D03*
X447500D03*
Y477500D03*
X537500Y417500D03*
X587500D03*
X537500Y402500D03*
X587500D03*
X537500Y387500D03*
X587500D03*
X537500Y372500D03*
X587500D03*
X537500Y357500D03*
X587500D03*
X537500Y342500D03*
X587500D03*
X527500Y237500D03*
X577500D03*
X587500D03*
X637500D03*
X577500Y252500D03*
X627500D03*
X577500Y267500D03*
X627500D03*
X537500Y467500D03*
X557500D03*
X607500Y452500D03*
X627500D03*
X537500Y322500D03*
X557500D03*
X547500Y252500D03*
X567500D03*
X487500Y362500D03*
X507500D03*
X437500D03*
X457500D03*
X377500Y357500D03*
X397500D03*
X322500D03*
X342500D03*
X322500Y372500D03*
X342500D03*
X377500D03*
X397500D03*
X437500Y412500D03*
X457500D03*
X487500D03*
X507500D03*
X272500Y487500D03*
X292500D03*
X242500D03*
X262500D03*
X177500D03*
X197500D03*
X147500D03*
X167500D03*
X147500Y412500D03*
X167500D03*
X177500D03*
X197500D03*
X142500Y347500D03*
Y367500D03*
X237500Y347500D03*
Y367500D03*
X242500Y412500D03*
X262500D03*
X272500D03*
X292500D03*
X147500Y327500D03*
X197500D03*
X242500Y212500D03*
X292500D03*
X242500Y227500D03*
X292500D03*
X497500Y287500D03*
Y317500D03*
X477500Y287500D03*
Y317500D03*
X447500Y287500D03*
Y317500D03*
X427500Y287500D03*
Y317500D03*
X437500D03*
Y287500D03*
X457500Y317500D03*
Y287500D03*
X487500Y317500D03*
Y287500D03*
X507500Y317500D03*
Y287500D03*
X617500Y332500D03*
X627500D03*
X612500Y392500D03*
X622500D03*
X497500Y337500D03*
X507500D03*
X447500D03*
X457500D03*
X452500Y387500D03*
X442500D03*
X502500D03*
X492500D03*
X477500Y467500D03*
X527500D03*
X477500Y482500D03*
X527500D03*
X477500Y497500D03*
X527500D03*
X387500Y297500D03*
Y287500D03*
X372500Y297500D03*
Y287500D03*
X332500Y297500D03*
Y287500D03*
X317500Y297500D03*
Y287500D03*
X557500Y487500D03*
X547500D03*
X587500Y497500D03*
X577500D03*
Y467500D03*
X587500D03*
X597500D03*
X312500Y222500D03*
X332500D03*
X352500D03*
Y242500D03*
X332500D03*
X312500D03*
X367500Y222500D03*
X387500D03*
X407500D03*
Y242500D03*
X387500D03*
X367500D03*
Y187500D03*
X387500D03*
X407500D03*
Y207500D03*
X387500D03*
X367500D03*
X312500Y187500D03*
X332500D03*
X352500D03*
Y207500D03*
X332500D03*
X312500D03*
X607500Y422500D03*
X627500D03*
X572500Y322500D03*
X592500D03*
G54D31*
X547500Y277500D03*
G54D32*
X557500D03*
X567500D03*
X577500D03*
X587500D03*
X597500D03*
X607500D03*
X617500D03*
X627500D03*
Y307500D03*
X617500D03*
X607500D03*
X597500D03*
X587500D03*
X577500D03*
X567500D03*
X557500D03*
X547500D03*
G54D33*
X147500Y187500D03*
X157500Y197500D03*
X167500Y187500D03*
X242500D03*
X252500Y197500D03*
X262500Y187500D03*
X197500Y197500D03*
X187500Y187500D03*
X177500Y197500D03*
X292500D03*
X282500Y187500D03*
X272500Y197500D03*
X217500Y302500D03*
X227500Y292500D03*
X217500Y282500D03*
X122500Y302500D03*
X132500Y292500D03*
X122500Y282500D03*
X182500Y397500D03*
X172500Y387500D03*
X162500Y397500D03*
X277500D03*
X267500Y387500D03*
X257500Y397500D03*
X342500D03*
X332500Y387500D03*
X322500Y397500D03*
X397500D03*
X387500Y387500D03*
X377500Y397500D03*
X397500Y422500D03*
X387500Y412500D03*
X377500Y422500D03*
X342500D03*
X332500Y412500D03*
X322500Y422500D03*
X537500Y432500D03*
X547500Y442500D03*
X557500Y432500D03*
X567500D03*
X577500Y442500D03*
X587500Y432500D03*
G54D34*
X312500Y257500D03*
Y272500D03*
X367500Y257500D03*
Y272500D03*
X597500Y112500D03*
Y132500D03*
X157500Y472500D03*
X252500D03*
X242500Y457500D03*
X147500D03*
X462500Y477500D03*
X597500Y357500D03*
X547500Y187500D03*
G54D35*
X351870Y257500D03*
Y272500D03*
X406870Y257500D03*
Y272500D03*
X558130Y112500D03*
Y132500D03*
X196870Y472500D03*
X291870D03*
X281870Y457500D03*
X186870D03*
X462500Y438130D03*
X636870Y357500D03*
X547500Y148130D03*
G54D36*
X182500Y147500D03*
X202500D03*
X222500D03*
X242500D03*
X467500D03*
X487500D03*
X507500D03*
X527500D03*
X307500D03*
X327500D03*
X347500D03*
X367500D03*
X387500D03*
X407500D03*
X327500Y462500D03*
X347500D03*
X367500D03*
X387500D03*
X407500D03*
X427500D03*
X117500Y117500D03*
X632500D03*
Y492500D03*
X117500D03*
G54D37*
X562500Y152500D03*
X592500D03*
X612500D03*
X632500D03*
Y182500D03*
X592500D03*
X612500D03*
X562500D03*
G54D38*
X507500Y272500D03*
X477500D03*
X457500D03*
X427500D03*
X442500Y192500D03*
X492500D03*
Y272500D03*
X442500D03*
G54D39*
X537500Y221408D02*
X528592Y212500D01*
X537500Y203592*
X546408Y212500*
X537500Y221408*
X537092Y204000D02*
X537908D01*
X536092Y205000D02*
X538908D01*
X535092Y206000D02*
X539908D01*
X534092Y207000D02*
X540908D01*
X533092Y208000D02*
X541908D01*
X532092Y209000D02*
X542908D01*
X531092Y210000D02*
X543908D01*
X530092Y211000D02*
X544908D01*
X529092Y212000D02*
X545908D01*
X529092Y213000D02*
X545908D01*
X530092Y214000D02*
X544908D01*
X531092Y215000D02*
X543908D01*
X532092Y216000D02*
X542908D01*
X533092Y217000D02*
X541908D01*
X534092Y218000D02*
X540908D01*
X535092Y219000D02*
X539908D01*
X536092Y220000D02*
X538908D01*
X537092Y221000D02*
X537908D01*
X529000Y212092D02*
Y212908D01*
X530000Y211092D02*
Y213908D01*
X531000Y210092D02*
Y214908D01*
X532000Y209092D02*
Y215908D01*
X533000Y208092D02*
Y216908D01*
X534000Y207092D02*
Y217908D01*
X535000Y206092D02*
Y218908D01*
X536000Y205092D02*
Y219908D01*
X537000Y204092D02*
Y220908D01*
X538000Y204092D02*
Y220908D01*
X539000Y205092D02*
Y219908D01*
X540000Y206092D02*
Y218908D01*
X541000Y207092D02*
Y217908D01*
X542000Y208092D02*
Y216908D01*
X543000Y209092D02*
Y215908D01*
X544000Y210092D02*
Y214908D01*
X545000Y211092D02*
Y213908D01*
X546000Y212092D02*
Y212908D01*
X627500Y221408D02*
X618592Y212500D01*
X627500Y203592*
X636408Y212500*
X627500Y221408*
X627092Y204000D02*
X627908D01*
X626092Y205000D02*
X628908D01*
X625092Y206000D02*
X629908D01*
X624092Y207000D02*
X630908D01*
X623092Y208000D02*
X631908D01*
X622092Y209000D02*
X632908D01*
X621092Y210000D02*
X633908D01*
X620092Y211000D02*
X634908D01*
X619092Y212000D02*
X635908D01*
X619092Y213000D02*
X635908D01*
X620092Y214000D02*
X634908D01*
X621092Y215000D02*
X633908D01*
X622092Y216000D02*
X632908D01*
X623092Y217000D02*
X631908D01*
X624092Y218000D02*
X630908D01*
X625092Y219000D02*
X629908D01*
X626092Y220000D02*
X628908D01*
X627092Y221000D02*
X627908D01*
X619000Y212092D02*
Y212908D01*
X620000Y211092D02*
Y213908D01*
X621000Y210092D02*
Y214908D01*
X622000Y209092D02*
Y215908D01*
X623000Y208092D02*
Y216908D01*
X624000Y207092D02*
Y217908D01*
X625000Y206092D02*
Y218908D01*
X626000Y205092D02*
Y219908D01*
X627000Y204092D02*
Y220908D01*
X628000Y204092D02*
Y220908D01*
X629000Y205092D02*
Y219908D01*
X630000Y206092D02*
Y218908D01*
X631000Y207092D02*
Y217908D01*
X632000Y208092D02*
Y216908D01*
X633000Y209092D02*
Y215908D01*
X634000Y210092D02*
Y214908D01*
X635000Y211092D02*
Y213908D01*
X636000Y212092D02*
Y212908D01*
X427500Y199877D02*
X420123Y192500D01*
X427500Y185123*
X434877Y192500*
X427500Y199877*
X426623Y186000D02*
X428377D01*
X425623Y187000D02*
X429377D01*
X424623Y188000D02*
X430377D01*
X423623Y189000D02*
X431377D01*
X422623Y190000D02*
X432377D01*
X421623Y191000D02*
X433377D01*
X420623Y192000D02*
X434377D01*
X420623Y193000D02*
X434377D01*
X421623Y194000D02*
X433377D01*
X422623Y195000D02*
X432377D01*
X423623Y196000D02*
X431377D01*
X424623Y197000D02*
X430377D01*
X425623Y198000D02*
X429377D01*
X426623Y199000D02*
X428377D01*
X421000Y191623D02*
Y193377D01*
X422000Y190623D02*
Y194377D01*
X423000Y189623D02*
Y195377D01*
X424000Y188623D02*
Y196377D01*
X425000Y187623D02*
Y197377D01*
X426000Y186623D02*
Y198377D01*
X427000Y185623D02*
Y199377D01*
X428000Y185623D02*
Y199377D01*
X429000Y186623D02*
Y198377D01*
X430000Y187623D02*
Y197377D01*
X431000Y188623D02*
Y196377D01*
X432000Y189623D02*
Y195377D01*
X433000Y190623D02*
Y194377D01*
X434000Y191623D02*
Y193377D01*
X507500Y199877D02*
X500123Y192500D01*
X507500Y185123*
X514877Y192500*
X507500Y199877*
X506623Y186000D02*
X508377D01*
X505623Y187000D02*
X509377D01*
X504623Y188000D02*
X510377D01*
X503623Y189000D02*
X511377D01*
X502623Y190000D02*
X512377D01*
X501623Y191000D02*
X513377D01*
X500623Y192000D02*
X514377D01*
X500623Y193000D02*
X514377D01*
X501623Y194000D02*
X513377D01*
X502623Y195000D02*
X512377D01*
X503623Y196000D02*
X511377D01*
X504623Y197000D02*
X510377D01*
X505623Y198000D02*
X509377D01*
X506623Y199000D02*
X508377D01*
X501000Y191623D02*
Y193377D01*
X502000Y190623D02*
Y194377D01*
X503000Y189623D02*
Y195377D01*
X504000Y188623D02*
Y196377D01*
X505000Y187623D02*
Y197377D01*
X506000Y186623D02*
Y198377D01*
X507000Y185623D02*
Y199377D01*
X508000Y185623D02*
Y199377D01*
X509000Y186623D02*
Y198377D01*
X510000Y187623D02*
Y197377D01*
X511000Y188623D02*
Y196377D01*
X512000Y189623D02*
Y195377D01*
X513000Y190623D02*
Y194377D01*
X514000Y191623D02*
Y193377D01*
X457500Y199877D02*
X450123Y192500D01*
X457500Y185123*
X464877Y192500*
X457500Y199877*
X456623Y186000D02*
X458377D01*
X455623Y187000D02*
X459377D01*
X454623Y188000D02*
X460377D01*
X453623Y189000D02*
X461377D01*
X452623Y190000D02*
X462377D01*
X451623Y191000D02*
X463377D01*
X450623Y192000D02*
X464377D01*
X450623Y193000D02*
X464377D01*
X451623Y194000D02*
X463377D01*
X452623Y195000D02*
X462377D01*
X453623Y196000D02*
X461377D01*
X454623Y197000D02*
X460377D01*
X455623Y198000D02*
X459377D01*
X456623Y199000D02*
X458377D01*
X451000Y191623D02*
Y193377D01*
X452000Y190623D02*
Y194377D01*
X453000Y189623D02*
Y195377D01*
X454000Y188623D02*
Y196377D01*
X455000Y187623D02*
Y197377D01*
X456000Y186623D02*
Y198377D01*
X457000Y185623D02*
Y199377D01*
X458000Y185623D02*
Y199377D01*
X459000Y186623D02*
Y198377D01*
X460000Y187623D02*
Y197377D01*
X461000Y188623D02*
Y196377D01*
X462000Y189623D02*
Y195377D01*
X463000Y190623D02*
Y194377D01*
X464000Y191623D02*
Y193377D01*
X477500Y199877D02*
X470123Y192500D01*
X477500Y185123*
X484877Y192500*
X477500Y199877*
X476623Y186000D02*
X478377D01*
X475623Y187000D02*
X479377D01*
X474623Y188000D02*
X480377D01*
X473623Y189000D02*
X481377D01*
X472623Y190000D02*
X482377D01*
X471623Y191000D02*
X483377D01*
X470623Y192000D02*
X484377D01*
X470623Y193000D02*
X484377D01*
X471623Y194000D02*
X483377D01*
X472623Y195000D02*
X482377D01*
X473623Y196000D02*
X481377D01*
X474623Y197000D02*
X480377D01*
X475623Y198000D02*
X479377D01*
X476623Y199000D02*
X478377D01*
X471000Y191623D02*
Y193377D01*
X472000Y190623D02*
Y194377D01*
X473000Y189623D02*
Y195377D01*
X474000Y188623D02*
Y196377D01*
X475000Y187623D02*
Y197377D01*
X476000Y186623D02*
Y198377D01*
X477000Y185623D02*
Y199377D01*
X478000Y185623D02*
Y199377D01*
X479000Y186623D02*
Y198377D01*
X480000Y187623D02*
Y197377D01*
X481000Y188623D02*
Y196377D01*
X482000Y189623D02*
Y195377D01*
X483000Y190623D02*
Y194377D01*
X484000Y191623D02*
Y193377D01*
X0Y0D02*
M02*
