*
*
G04 PADS Layout (Build Number 2007.42.1) generated Gerber (RS-274-X) file*
G04 PC Version=2.1*
*
%IN "1702-391_v6.pcb"*%
*
%MOIN*%
*
%FSLAX35Y35*%
*
*
*
*
G04 PC Standard Apertures*
*
*
G04 Thermal Relief Aperture macro.*
%AMTER*
1,1,$1,0,0*
1,0,$1-$2,0,0*
21,0,$3,$4,0,0,45*
21,0,$3,$4,0,0,135*
%
*
*
G04 Annular Aperture macro.*
%AMANN*
1,1,$1,0,0*
1,0,$2,0,0*
%
*
*
G04 Odd Aperture macro.*
%AMODD*
1,1,$1,0,0*
1,0,$1-0.005,0,0*
%
*
*
G04 PC Custom Aperture Macros*
*
*
*
*
*
*
G04 PC Aperture Table*
*
%ADD039C,0.01*%
%ADD043C,0.005*%
*
*
*
*
G04 PC Copper Outlines (0)*
G04 Layer Name 1702-391_v6.pcb - dark (0)*
%LPD*%
*
*
G04 PC Area=Custom_Thermal*
*
G04 PC Custom Flashes*
G04 Layer Name 1702-391_v6.pcb - flashes*
%LPD*%
*
*
G04 PC Circuitry*
G04 Layer Name 1702-391_v6.pcb - circuitry*
%LPD*%
*
G54D39*
G01X192500Y262500D02*
X152500D01*
Y242500*
X192500*
Y262500*
Y255000D02*
X192500D01*
G75*
G03Y250000I0J-2500D01*
G01X192500*
Y367500D02*
X152500D01*
Y347500*
X192500*
Y367500*
Y360000D02*
X192500D01*
G03Y355000I0J-2500*
G01X192500*
X287500Y367500D02*
X247500D01*
Y347500*
X287500*
Y367500*
Y360000D02*
X287500D01*
G03Y355000I0J-2500*
G01X287500*
Y262500D02*
X247500D01*
Y242500*
X287500*
Y262500*
Y255000D02*
X287500D01*
G03Y250000I0J-2500*
G01X287500*
X312500Y317500D02*
X352500D01*
Y337500*
X312500*
Y317500*
Y325000D02*
X312500D01*
G03Y330000I0J2500*
G01X312500*
X367500Y317500D02*
X407500D01*
Y337500*
X367500*
Y317500*
Y325000D02*
X367500D01*
G03Y330000I0J2500*
G01X367500*
X512500Y447500D02*
X472500D01*
Y427500*
X512500*
Y447500*
Y440000D02*
X512500D01*
G03Y435000I0J-2500*
G01X512500*
X542500Y282500D02*
X632500D01*
Y302500*
X542500*
Y282500*
Y295000D02*
X542500D01*
Y290000D02*
G03Y295000I0J2500D01*
G01Y290000D02*
X542500D01*
X151831Y230421D02*
X153831Y232421D01*
X191169*
X193169Y230421*
Y224579*
X191169Y222579*
X153831*
X151831Y224579*
Y230421*
Y215421D02*
X153831Y217421D01*
X191169*
X193169Y215421*
Y209579*
X191169Y207579*
X153831*
X151831Y209579*
Y215421*
X134579Y216831D02*
X132579Y218831D01*
Y256169*
X134579Y258169*
X140421*
X142421Y256169*
Y218831*
X140421Y216831*
X134579*
X119579D02*
X117579Y218831D01*
Y256169*
X119579Y258169*
X125421*
X127421Y256169*
Y218831*
X125421Y216831*
X119579*
X214579D02*
X212579Y218831D01*
Y256169*
X214579Y258169*
X220421*
X222421Y256169*
Y218831*
X220421Y216831*
X214579*
X229579D02*
X227579Y218831D01*
Y256169*
X229579Y258169*
X235421*
X237421Y256169*
Y218831*
X235421Y216831*
X229579*
X159579Y121831D02*
X157579Y123831D01*
Y161169*
X159579Y163169*
X165421*
X167421Y161169*
Y123831*
X165421Y121831*
X159579*
X144579D02*
X142579Y123831D01*
Y161169*
X144579Y163169*
X150421*
X152421Y161169*
Y123831*
X150421Y121831*
X144579*
X246831Y285421D02*
X248831Y287421D01*
X286169*
X288169Y285421*
Y279579*
X286169Y277579*
X248831*
X246831Y279579*
Y285421*
Y300421D02*
X248831Y302421D01*
X286169*
X288169Y300421*
Y294579*
X286169Y292579*
X248831*
X246831Y294579*
Y300421*
Y315421D02*
X248831Y317421D01*
X286169*
X288169Y315421*
Y309579*
X286169Y307579*
X248831*
X246831Y309579*
Y315421*
Y330421D02*
X248831Y332421D01*
X286169*
X288169Y330421*
Y324579*
X286169Y322579*
X248831*
X246831Y324579*
Y330421*
X151831Y285421D02*
X153831Y287421D01*
X191169*
X193169Y285421*
Y279579*
X191169Y277579*
X153831*
X151831Y279579*
Y285421*
Y300421D02*
X153831Y302421D01*
X191169*
X193169Y300421*
Y294579*
X191169Y292579*
X153831*
X151831Y294579*
Y300421*
Y315421D02*
X153831Y317421D01*
X191169*
X193169Y315421*
Y309579*
X191169Y307579*
X153831*
X151831Y309579*
Y315421*
X124579Y321831D02*
X122579Y323831D01*
Y361169*
X124579Y363169*
X130421*
X132421Y361169*
Y323831*
X130421Y321831*
X124579*
X219579D02*
X217579Y323831D01*
Y361169*
X219579Y363169*
X225421*
X227421Y361169*
Y323831*
X225421Y321831*
X219579*
X151831Y430421D02*
X153831Y432421D01*
X191169*
X193169Y430421*
Y424579*
X191169Y422579*
X153831*
X151831Y424579*
Y430421*
Y445421D02*
X153831Y447421D01*
X191169*
X193169Y445421*
Y439579*
X191169Y437579*
X153831*
X151831Y439579*
Y445421*
X246831Y430421D02*
X248831Y432421D01*
X286169*
X288169Y430421*
Y424579*
X286169Y422579*
X248831*
X246831Y424579*
Y430421*
Y445421D02*
X248831Y447421D01*
X286169*
X288169Y445421*
Y439579*
X286169Y437579*
X248831*
X246831Y439579*
Y445421*
X359579Y381831D02*
X357579Y383831D01*
Y421169*
X359579Y423169*
X365421*
X367421Y421169*
Y383831*
X365421Y381831*
X359579*
X414579D02*
X412579Y383831D01*
Y421169*
X414579Y423169*
X420421*
X422421Y421169*
Y383831*
X420421Y381831*
X414579*
X444579Y431831D02*
X442579Y433831D01*
Y471169*
X444579Y473169*
X450421*
X452421Y471169*
Y433831*
X450421Y431831*
X444579*
X541831Y420421D02*
X543831Y422421D01*
X581169*
X583169Y420421*
Y414579*
X581169Y412579*
X543831*
X541831Y414579*
Y420421*
Y405421D02*
X543831Y407421D01*
X581169*
X583169Y405421*
Y399579*
X581169Y397579*
X543831*
X541831Y399579*
Y405421*
Y390421D02*
X543831Y392421D01*
X581169*
X583169Y390421*
Y384579*
X581169Y382579*
X543831*
X541831Y384579*
Y390421*
Y375421D02*
X543831Y377421D01*
X581169*
X583169Y375421*
Y369579*
X581169Y367579*
X543831*
X541831Y369579*
Y375421*
Y360421D02*
X543831Y362421D01*
X581169*
X583169Y360421*
Y354579*
X581169Y352579*
X543831*
X541831Y354579*
Y360421*
Y345421D02*
X543831Y347421D01*
X581169*
X583169Y345421*
Y339579*
X581169Y337579*
X543831*
X541831Y339579*
Y345421*
X531831Y240421D02*
X533831Y242421D01*
X571169*
X573169Y240421*
Y234579*
X571169Y232579*
X533831*
X531831Y234579*
Y240421*
X591831D02*
X593831Y242421D01*
X631169*
X633169Y240421*
Y234579*
X631169Y232579*
X593831*
X591831Y234579*
Y240421*
X581831Y255421D02*
X583831Y257421D01*
X621169*
X623169Y255421*
Y249579*
X621169Y247579*
X583831*
X581831Y249579*
Y255421*
Y270421D02*
X583831Y272421D01*
X621169*
X623169Y270421*
Y264579*
X621169Y262579*
X583831*
X581831Y264579*
Y270421*
X144500Y202500D02*
X142500Y200500D01*
Y184500*
X144500Y182500*
X170500*
X172500Y184500*
Y200500*
X170500Y202500*
X144500*
X239500D02*
X237500Y200500D01*
Y184500*
X239500Y182500*
X265500*
X267500Y184500*
Y200500*
X265500Y202500*
X239500*
X200500Y182500D02*
X202500Y184500D01*
Y200500*
X200500Y202500*
X174500*
X172500Y200500*
Y184500*
X174500Y182500*
X200500*
X295500D02*
X297500Y184500D01*
Y200500*
X295500Y202500*
X269500*
X267500Y200500*
Y184500*
X269500Y182500*
X295500*
X232500Y305500D02*
X230500Y307500D01*
X214500*
X212500Y305500*
Y279500*
X214500Y277500*
X230500*
X232500Y279500*
Y305500*
X137500D02*
X135500Y307500D01*
X119500*
X117500Y305500*
Y279500*
X119500Y277500*
X135500*
X137500Y279500*
Y305500*
X185500Y382500D02*
X187500Y384500D01*
Y400500*
X185500Y402500*
X159500*
X157500Y400500*
Y384500*
X159500Y382500*
X185500*
X280500D02*
X282500Y384500D01*
Y400500*
X280500Y402500*
X254500*
X252500Y400500*
Y384500*
X254500Y382500*
X280500*
X345500D02*
X347500Y384500D01*
Y400500*
X345500Y402500*
X319500*
X317500Y400500*
Y384500*
X319500Y382500*
X345500*
X400500D02*
X402500Y384500D01*
Y400500*
X400500Y402500*
X374500*
X372500Y400500*
Y384500*
X374500Y382500*
X400500*
Y407500D02*
X402500Y409500D01*
Y425500*
X400500Y427500*
X374500*
X372500Y425500*
Y409500*
X374500Y407500*
X400500*
X345500D02*
X347500Y409500D01*
Y425500*
X345500Y427500*
X319500*
X317500Y425500*
Y409500*
X319500Y407500*
X345500*
X534500Y447500D02*
X532500Y445500D01*
Y429500*
X534500Y427500*
X560500*
X562500Y429500*
Y445500*
X560500Y447500*
X534500*
X564500D02*
X562500Y445500D01*
Y429500*
X564500Y427500*
X590500*
X592500Y429500*
Y445500*
X590500Y447500*
X564500*
X560500Y472500D02*
X562500Y470500D01*
Y464500*
X560500Y462500*
X534500*
X532500Y464500*
Y470500*
X534500Y472500*
X560500*
X630500Y457500D02*
X632500Y455500D01*
Y449500*
X630500Y447500*
X604500*
X602500Y449500*
Y455500*
X604500Y457500*
X630500*
X560500Y327500D02*
X562500Y325500D01*
Y319500*
X560500Y317500*
X534500*
X532500Y319500*
Y325500*
X534500Y327500*
X560500*
X570500Y257500D02*
X572500Y255500D01*
Y249500*
X570500Y247500*
X544500*
X542500Y249500*
Y255500*
X544500Y257500*
X570500*
X510500Y367500D02*
X512500Y365500D01*
Y359500*
X510500Y357500*
X484500*
X482500Y359500*
Y365500*
X484500Y367500*
X510500*
X460500D02*
X462500Y365500D01*
Y359500*
X460500Y357500*
X434500*
X432500Y359500*
Y365500*
X434500Y367500*
X460500*
X400500Y362500D02*
X402500Y360500D01*
Y354500*
X400500Y352500*
X374500*
X372500Y354500*
Y360500*
X374500Y362500*
X400500*
X345500D02*
X347500Y360500D01*
Y354500*
X345500Y352500*
X319500*
X317500Y354500*
Y360500*
X319500Y362500*
X345500*
Y377500D02*
X347500Y375500D01*
Y369500*
X345500Y367500*
X319500*
X317500Y369500*
Y375500*
X319500Y377500*
X345500*
X400500D02*
X402500Y375500D01*
Y369500*
X400500Y367500*
X374500*
X372500Y369500*
Y375500*
X374500Y377500*
X400500*
X460500Y417500D02*
X462500Y415500D01*
Y409500*
X460500Y407500*
X434500*
X432500Y409500*
Y415500*
X434500Y417500*
X460500*
X510500D02*
X512500Y415500D01*
Y409500*
X510500Y407500*
X484500*
X482500Y409500*
Y415500*
X484500Y417500*
X510500*
X295500Y492500D02*
X297500Y490500D01*
Y484500*
X295500Y482500*
X269500*
X267500Y484500*
Y490500*
X269500Y492500*
X295500*
X265500D02*
X267500Y490500D01*
Y484500*
X265500Y482500*
X239500*
X237500Y484500*
Y490500*
X239500Y492500*
X265500*
X200500D02*
X202500Y490500D01*
Y484500*
X200500Y482500*
X174500*
X172500Y484500*
Y490500*
X174500Y492500*
X200500*
X170500D02*
X172500Y490500D01*
Y484500*
X170500Y482500*
X144500*
X142500Y484500*
Y490500*
X144500Y492500*
X170500*
Y417500D02*
X172500Y415500D01*
Y409500*
X170500Y407500*
X144500*
X142500Y409500*
Y415500*
X144500Y417500*
X170500*
X200500D02*
X202500Y415500D01*
Y409500*
X200500Y407500*
X174500*
X172500Y409500*
Y415500*
X174500Y417500*
X200500*
X137500Y370500D02*
X139500Y372500D01*
X145500*
X147500Y370500*
Y344500*
X145500Y342500*
X139500*
X137500Y344500*
Y370500*
X232500D02*
X234500Y372500D01*
X240500*
X242500Y370500*
Y344500*
X240500Y342500*
X234500*
X232500Y344500*
Y370500*
X265500Y417500D02*
X267500Y415500D01*
Y409500*
X265500Y407500*
X239500*
X237500Y409500*
Y415500*
X239500Y417500*
X265500*
X295500D02*
X297500Y415500D01*
Y409500*
X295500Y407500*
X269500*
X267500Y409500*
Y415500*
X269500Y417500*
X295500*
X151831Y330421D02*
X153831Y332421D01*
X191169*
X193169Y330421*
Y324579*
X191169Y322579*
X153831*
X151831Y324579*
Y330421*
X246831Y215421D02*
X248831Y217421D01*
X286169*
X288169Y215421*
Y209579*
X286169Y207579*
X248831*
X246831Y209579*
Y215421*
Y230421D02*
X248831Y232421D01*
X286169*
X288169Y230421*
Y224579*
X286169Y222579*
X248831*
X246831Y224579*
Y230421*
X344390Y261437D02*
Y253563D01*
X319980Y261437D02*
X344390D01*
Y253563*
X319980*
Y261437*
X320768D02*
Y253563D01*
X321555Y261437D02*
Y253563D01*
X322343Y261437D02*
Y253563D01*
X316437Y257500D02*
X319980D01*
X347933D02*
X344390D01*
Y276437D02*
Y268563D01*
X319980Y276437D02*
X344390D01*
Y268563*
X319980*
Y276437*
X320768D02*
Y268563D01*
X321555Y276437D02*
Y268563D01*
X322343Y276437D02*
Y268563D01*
X316437Y272500D02*
X319980D01*
X347933D02*
X344390D01*
X399390Y261437D02*
Y253563D01*
X374980Y261437D02*
X399390D01*
Y253563*
X374980*
Y261437*
X375768D02*
Y253563D01*
X376555Y261437D02*
Y253563D01*
X377343Y261437D02*
Y253563D01*
X371437Y257500D02*
X374980D01*
X402933D02*
X399390D01*
Y276437D02*
Y268563D01*
X374980Y276437D02*
X399390D01*
Y268563*
X374980*
Y276437*
X375768D02*
Y268563D01*
X376555Y276437D02*
Y268563D01*
X377343Y276437D02*
Y268563D01*
X371437Y272500D02*
X374980D01*
X402933D02*
X399390D01*
X565610Y108563D02*
Y116437D01*
X590020Y108563D02*
X565610D01*
Y116437*
X590020*
Y108563*
X589232D02*
Y116437D01*
X588445Y108563D02*
Y116437D01*
X587657Y108563D02*
Y116437D01*
X593563Y112500D02*
X590020D01*
X562067D02*
X565610D01*
Y128563D02*
Y136437D01*
X590020Y128563D02*
X565610D01*
Y136437*
X590020*
Y128563*
X589232D02*
Y136437D01*
X588445Y128563D02*
Y136437D01*
X587657Y128563D02*
Y136437D01*
X593563Y132500D02*
X590020D01*
X562067D02*
X565610D01*
X189390Y476437D02*
Y468563D01*
X164980Y476437D02*
X189390D01*
Y468563*
X164980*
Y476437*
X165768D02*
Y468563D01*
X166555Y476437D02*
Y468563D01*
X167343Y476437D02*
Y468563D01*
X161437Y472500D02*
X164980D01*
X192933D02*
X189390D01*
X284390Y476437D02*
Y468563D01*
X259980Y476437D02*
X284390D01*
Y468563*
X259980*
Y476437*
X260768D02*
Y468563D01*
X261555Y476437D02*
Y468563D01*
X262343Y476437D02*
Y468563D01*
X256437Y472500D02*
X259980D01*
X287933D02*
X284390D01*
X274390Y461437D02*
Y453563D01*
X249980Y461437D02*
X274390D01*
Y453563*
X249980*
Y461437*
X250768D02*
Y453563D01*
X251555Y461437D02*
Y453563D01*
X252343Y461437D02*
Y453563D01*
X246437Y457500D02*
X249980D01*
X277933D02*
X274390D01*
X179390Y461437D02*
Y453563D01*
X154980Y461437D02*
X179390D01*
Y453563*
X154980*
Y461437*
X155768D02*
Y453563D01*
X156555Y461437D02*
Y453563D01*
X157343Y461437D02*
Y453563D01*
X151437Y457500D02*
X154980D01*
X182933D02*
X179390D01*
X466437Y445610D02*
X458563D01*
X466437Y470020D02*
Y445610D01*
X458563*
Y470020*
X466437*
Y469232D02*
X458563D01*
X466437Y468445D02*
X458563D01*
X466437Y467657D02*
X458563D01*
X462500Y473563D02*
Y470020D01*
Y442067D02*
Y445610D01*
X629390Y361437D02*
Y353563D01*
X604980Y361437D02*
X629390D01*
Y353563*
X604980*
Y361437*
X605768D02*
Y353563D01*
X606555Y361437D02*
Y353563D01*
X607343Y361437D02*
Y353563D01*
X601437Y357500D02*
X604980D01*
X632933D02*
X629390D01*
X551437Y155610D02*
X543563D01*
X551437Y180020D02*
Y155610D01*
X543563*
Y180020*
X551437*
Y179232D02*
X543563D01*
X551437Y178445D02*
X543563D01*
X551437Y177657D02*
X543563D01*
X547500Y183563D02*
Y180020D01*
Y152067D02*
Y155610D01*
X493500Y292500D02*
Y312500D01*
X501500*
Y292500*
X493500*
X473500D02*
Y312500D01*
X481500*
Y292500*
X473500*
X443500D02*
Y312500D01*
X451500*
Y292500*
X443500*
X423500D02*
Y312500D01*
X431500*
Y292500*
X423500*
X441500Y312500D02*
Y292500D01*
X433500*
Y312500*
X441500*
X461500D02*
Y292500D01*
X453500*
Y312500*
X461500*
X491500D02*
Y292500D01*
X483500*
Y312500*
X491500*
X511500D02*
Y292500D01*
X503500*
Y312500*
X511500*
X625682Y347318D02*
X619318D01*
X607682Y335682*
Y329318*
X619318Y317682*
X625682*
X637318Y329318*
Y335682*
X625682Y347318*
X620682Y407318D02*
X614318D01*
X602682Y395682*
Y389318*
X614318Y377682*
X620682*
X632318Y389318*
Y395682*
X620682Y407318*
X505682Y352318D02*
X499318D01*
X487682Y340682*
Y334318*
X499318Y322682*
X505682*
X517318Y334318*
Y340682*
X505682Y352318*
X455682D02*
X449318D01*
X437682Y340682*
Y334318*
X449318Y322682*
X455682*
X467318Y334318*
Y340682*
X455682Y352318*
X444318Y372682D02*
X450682D01*
X462318Y384318*
Y390682*
X450682Y402318*
X444318*
X432682Y390682*
Y384318*
X444318Y372682*
X494318D02*
X500682D01*
X512318Y384318*
Y390682*
X500682Y402318*
X494318*
X482682Y390682*
Y384318*
X494318Y372682*
X481831Y470421D02*
X483831Y472421D01*
X521169*
X523169Y470421*
Y464579*
X521169Y462579*
X483831*
X481831Y464579*
Y470421*
Y485421D02*
X483831Y487421D01*
X521169*
X523169Y485421*
Y479579*
X521169Y477579*
X483831*
X481831Y479579*
Y485421*
Y500421D02*
X483831Y502421D01*
X521169*
X523169Y500421*
Y494579*
X521169Y492579*
X483831*
X481831Y494579*
Y500421*
X390500Y302500D02*
X392500Y300500D01*
Y284500*
X390500Y282500*
X384500*
X382500Y284500*
Y300500*
X384500Y302500*
X390500*
X375500D02*
X377500Y300500D01*
Y284500*
X375500Y282500*
X369500*
X367500Y284500*
Y300500*
X369500Y302500*
X375500*
X335500D02*
X337500Y300500D01*
Y284500*
X335500Y282500*
X329500*
X327500Y284500*
Y300500*
X329500Y302500*
X335500*
X320500D02*
X322500Y300500D01*
Y284500*
X320500Y282500*
X314500*
X312500Y284500*
Y300500*
X314500Y302500*
X320500*
X562500Y484500D02*
X560500Y482500D01*
X544500*
X542500Y484500*
Y490500*
X544500Y492500*
X560500*
X562500Y490500*
Y484500*
X602500Y492500D02*
X572500D01*
Y472500*
X602500*
Y492500*
Y480000D02*
X602500D01*
Y485000D02*
G03Y480000I0J-2500D01*
G01Y485000D02*
X602500D01*
X307500Y245500D02*
X309500Y247500D01*
X355500*
X357500Y245500*
Y219500*
X355500Y217500*
X309500*
X307500Y219500*
Y245500*
X362500D02*
X364500Y247500D01*
X410500*
X412500Y245500*
Y219500*
X410500Y217500*
X364500*
X362500Y219500*
Y245500*
Y210500D02*
X364500Y212500D01*
X410500*
X412500Y210500*
Y184500*
X410500Y182500*
X364500*
X362500Y184500*
Y210500*
X307500D02*
X309500Y212500D01*
X355500*
X357500Y210500*
Y184500*
X355500Y182500*
X309500*
X307500Y184500*
Y210500*
X209000Y127500D02*
X176000D01*
X172500Y131000*
Y164000*
X176000Y167500*
X209000*
X212500Y164000*
Y131000*
X209000Y127500*
X249000D02*
X216000D01*
X212500Y131000*
Y164000*
X216000Y167500*
X249000*
X252500Y164000*
Y131000*
X249000Y127500*
X494000D02*
X461000D01*
X457500Y131000*
Y164000*
X461000Y167500*
X494000*
X497500Y164000*
Y131000*
X494000Y127500*
X534000D02*
X501000D01*
X497500Y131000*
Y164000*
X501000Y167500*
X534000*
X537500Y164000*
Y131000*
X534000Y127500*
X297500Y165531D02*
X299469Y167500D01*
X355531*
X357500Y165531*
Y129469*
X355531Y127500*
X299469*
X297500Y129469*
Y165531*
X357500D02*
X359469Y167500D01*
X415531*
X417500Y165531*
Y129469*
X415531Y127500*
X359469*
X357500Y129469*
Y165531*
X317500Y480531D02*
X319469Y482500D01*
X375531*
X377500Y480531*
Y444469*
X375531Y442500*
X319469*
X317500Y444469*
Y480531*
X377500D02*
X379469Y482500D01*
X435531*
X437500Y480531*
Y444469*
X435531Y442500*
X379469*
X377500Y444469*
Y480531*
X557500Y184744D02*
X560256Y187500D01*
X634744*
X637500Y184744*
Y150256*
X634744Y147500*
X560256*
X557500Y150256*
Y184744*
X607500Y429000D02*
X611000Y432500D01*
X624000*
X627500Y429000*
Y416000*
X624000Y412500*
X611000*
X607500Y416000*
Y429000*
X572500Y329000D02*
X576000Y332500D01*
X589000*
X592500Y329000*
Y316000*
X589000Y312500*
X576000*
X572500Y316000*
Y329000*
X527500Y220531D02*
X529469Y222500D01*
X635531*
X637500Y220531*
Y204469*
X635531Y202500*
X529469*
X527500Y204469*
Y220531*
X417500Y277500D02*
X422500Y282500D01*
X512500*
X517500Y277500*
Y187500*
X512500Y182500*
X422500*
X417500Y187500*
Y277500*
X166695Y255619D02*
Y250931D01*
X166923Y249994*
X167377Y249369*
X168059Y249056*
X168514*
X169195Y249369*
X169650Y249994*
X169877Y250931*
Y255619*
X174195D02*
X171923Y251244D01*
X175332*
X174195Y255619D02*
Y249056D01*
X166695Y360619D02*
Y355931D01*
X166923Y354994*
X167377Y354369*
X168059Y354056*
X168514*
X169195Y354369*
X169650Y354994*
X169877Y355931*
Y360619*
X172150Y359056D02*
Y359369D01*
X172377Y359994*
X172605Y360306*
X173059Y360619*
X173968*
X174423Y360306*
X174650Y359994*
X174877Y359369*
Y358744*
X174650Y358119*
X174195Y357181*
X171923Y354056*
X175105*
X261695Y360619D02*
Y355931D01*
X261923Y354994*
X262377Y354369*
X263059Y354056*
X263514*
X264195Y354369*
X264650Y354994*
X264877Y355931*
Y360619*
X266923Y359369D02*
X267377Y359681D01*
X268059Y360619*
Y354056*
X261695Y255619D02*
Y250931D01*
X261923Y249994*
X262377Y249369*
X263059Y249056*
X263514*
X264195Y249369*
X264650Y249994*
X264877Y250931*
Y255619*
X267377D02*
X269877D01*
X268514Y253119*
X269195*
X269650Y252806*
X269877Y252494*
X270105Y251556*
Y250931*
X269877Y249994*
X269423Y249369*
X268741Y249056*
X268059*
X267377Y249369*
X267150Y249681*
X266923Y250306*
X338305Y324381D02*
Y329069D01*
X338077Y330006*
X337623Y330631*
X336941Y330944*
X336486*
X335805Y330631*
X335350Y330006*
X335123Y329069*
Y324381*
X330350Y325319D02*
X330577Y324694D01*
X331259Y324381*
X331714*
X332395Y324694*
X332850Y325631*
X333077Y327194*
Y328756*
X332850Y330006*
X332395Y330631*
X331714Y330944*
X331486*
X330805Y330631*
X330350Y330006*
X330123Y329069*
Y328756*
X330350Y327819*
X330805Y327194*
X331486Y326881*
X331714*
X332395Y327194*
X332850Y327819*
X333077Y328756*
X393305Y324381D02*
Y329069D01*
X393077Y330006*
X392623Y330631*
X391941Y330944*
X391486*
X390805Y330631*
X390350Y330006*
X390123Y329069*
Y324381*
X385123D02*
X387395D01*
X387623Y327194*
X387395Y326881*
X386714Y326569*
X386032*
X385350Y326881*
X384895Y327506*
X384668Y328444*
X384895Y329069*
X385123Y330006*
X385577Y330631*
X386259Y330944*
X386941*
X387623Y330631*
X387850Y330319*
X388077Y329694*
X486695Y440619D02*
Y435931D01*
X486923Y434994*
X487377Y434369*
X488059Y434056*
X488514*
X489195Y434369*
X489650Y434994*
X489877Y435931*
Y440619*
X493059D02*
X492377Y440306D01*
X492150Y439681*
Y439056*
X492377Y438431*
X492832Y438119*
X493741Y437806*
X494423Y437494*
X494877Y436869*
X495105Y436244*
Y435306*
X494877Y434681*
X494650Y434369*
X493968Y434056*
X493059*
X492377Y434369*
X492150Y434681*
X491923Y435306*
Y436244*
X492150Y436869*
X492605Y437494*
X493286Y437806*
X494195Y438119*
X494650Y438431*
X494877Y439056*
Y439681*
X494650Y440306*
X493968Y440619*
X493059*
X579659Y296250D02*
Y291563D01*
X579659D02*
X579886Y290625D01*
X580341Y290000*
X581023Y289688*
X581023D02*
X581477D01*
X581477D02*
X582159Y290000D01*
X582614Y290625*
X582841Y291563*
X582841D02*
Y296250D01*
X588068D02*
X585795Y289688D01*
X584886Y296250D02*
X588068D01*
X592841Y478750D02*
Y483437D01*
X592841D02*
X592614Y484375D01*
X592159Y485000*
X591477Y485312*
X591477D02*
X591023D01*
X591023D02*
X590341Y485000D01*
X589886Y484375*
X589659Y483437*
X589659D02*
Y478750D01*
X587614Y480000D02*
X587159Y479687D01*
X587159D02*
X586477Y478750D01*
Y485312*
X583068Y478750D02*
X583750Y479062D01*
X583750D02*
X584205Y480000D01*
X584432Y481562*
X584432D02*
Y482500D01*
X584205Y484062*
X584205D02*
X583750Y485000D01*
X583068Y485312*
X583068D02*
X582614D01*
X582614D02*
X581932Y485000D01*
X581477Y484062*
X581477D02*
X581250Y482500D01*
Y481562*
X581250D02*
X581477Y480000D01*
X581932Y479062*
X581932D02*
X582614Y478750D01*
X583068*
X103732Y224780D02*
X110295Y225917D01*
X103732Y227053D02*
X110295Y225917D01*
X103732Y227053D02*
X110295Y228189D01*
X103732Y229326D02*
X110295Y228189D01*
X109670Y231598D02*
X109982Y231371D01*
X110295Y231598*
X109982Y231826*
X109670Y231598*
X103732Y239098D02*
X110295D01*
X103732D02*
X110295Y240917D01*
X103732Y242735D02*
X110295Y240917D01*
X103732Y242735D02*
X110295D01*
X103732Y244780D02*
X110295D01*
X103732D02*
Y247735D01*
X106857Y244780D02*
Y246598D01*
X110295Y244780D02*
Y247735D01*
X103732Y249780D02*
X110295D01*
X103732Y251826D02*
X110295D01*
X103732D02*
X110295Y255008D01*
X103732D02*
X110295D01*
X103732Y257053D02*
X110295D01*
X103732D02*
Y260008D01*
X106857Y257053D02*
Y258871D01*
X110295Y257053D02*
Y260008D01*
X103732Y262053D02*
X110295D01*
X103732D02*
Y264098D01*
X104045Y264780*
X104357Y265008*
X104982Y265235*
X105607*
X106232Y265008*
X106545Y264780*
X106857Y264098*
Y262053*
Y263644D02*
X110295Y265235D01*
X103732Y268871D02*
X110295D01*
X103732Y267280D02*
Y270462D01*
Y275689D02*
X110295Y272508D01*
X103732D02*
Y275689D01*
X110295Y272508D02*
Y275689D01*
X103732Y284326D02*
X104045Y283871D01*
X104670Y283417*
X105295Y283189*
X106232Y282962*
X107795*
X108732Y283189*
X109357Y283417*
X109982Y283871*
X110295Y284326*
Y285235*
X109982Y285689*
X109357Y286144*
X108732Y286371*
X107795Y286598*
X106232*
X105295Y286371*
X104670Y286144*
X104045Y285689*
X103732Y285235*
Y284326*
Y288644D02*
X110295D01*
Y291371*
X103732Y293417D02*
X110295D01*
X103732D02*
Y296371D01*
X106857Y293417D02*
Y295235D01*
X110295Y293417D02*
Y296371D01*
X104670Y301598D02*
X104045Y301144D01*
X103732Y300462*
Y299553*
X104045Y298871*
X104670Y298417*
X105295*
X105920Y298644*
X106232Y298871*
X106545Y299326*
X107170Y300689*
X107482Y301144*
X107795Y301371*
X108420Y301598*
X109357*
X109982Y301144*
X110295Y300462*
Y299553*
X109982Y298871*
X109357Y298417*
X103732Y303644D02*
X110295D01*
X103732D02*
Y306598D01*
X106857Y303644D02*
Y305462D01*
X110295Y303644D02*
Y306598D01*
X103732Y308644D02*
X110295D01*
X103732D02*
X110295Y311826D01*
X103732D02*
X110295D01*
X106545Y323644D02*
X106232D01*
X105920Y323417*
Y323189*
X106232Y322962*
X106857Y322735*
X108420Y322280*
X109357Y321826*
X109982Y321371*
X110295Y320917*
Y320008*
X109982Y319553*
X109670Y319326*
X109045Y319098*
X108420*
X107795Y319326*
X107482Y319553*
X106232Y321144*
X105920Y321371*
X105295Y321598*
X104670*
X104045Y321371*
X103732Y320917*
X104045Y320462*
X104670Y320235*
X105295*
X106232Y320462*
X107170Y320917*
X109357Y322053*
X109982Y322508*
X110295Y322962*
Y323417*
X109982Y323644*
X109670*
X105295Y334326D02*
X104670Y334098D01*
X104045Y333644*
X103732Y333189*
Y332280*
X104045Y331826*
X104670Y331371*
X105295Y331144*
X106232Y330917*
X107795*
X108732Y331144*
X109357Y331371*
X109982Y331826*
X110295Y332280*
Y333189*
X109982Y333644*
X109357Y334098*
X108732Y334326*
X103732Y337735D02*
X104045Y337280D01*
X104670Y336826*
X105295Y336598*
X106232Y336371*
X107795*
X108732Y336598*
X109357Y336826*
X109982Y337280*
X110295Y337735*
Y338644*
X109982Y339098*
X109357Y339553*
X108732Y339780*
X107795Y340008*
X106232*
X105295Y339780*
X104670Y339553*
X104045Y339098*
X103732Y338644*
Y337735*
Y349098D02*
X110295Y347280D01*
X103732Y349098D02*
X110295Y350917D01*
X108107Y347962D02*
Y350235D01*
X102482Y357053D02*
X112482Y352962D01*
X104670Y362280D02*
X104045Y361826D01*
X103732Y361144*
Y360235*
X104045Y359553*
X104670Y359098*
X105295*
X105920Y359326*
X106232Y359553*
X106545Y360008*
X107170Y361371*
X107482Y361826*
X107795Y362053*
X108420Y362280*
X109357*
X109982Y361826*
X110295Y361144*
Y360235*
X109982Y359553*
X109357Y359098*
X104982Y374780D02*
X104670Y375235D01*
X103732Y375917*
X110295*
X103732Y381144D02*
X110295Y378871D01*
X103732Y377962D02*
Y381144D01*
Y384553D02*
X104045Y383871D01*
X104982Y383417*
X106545Y383189*
X107482*
X109045Y383417*
X109982Y383871*
X110295Y384553*
Y385008*
X109982Y385689*
X109045Y386144*
X107482Y386371*
X106545*
X104982Y386144*
X104045Y385689*
X103732Y385008*
Y384553*
X105295Y388644D02*
X104982D01*
X104357Y388871*
X104045Y389098*
X103732Y389553*
Y390462*
X104045Y390917*
X104357Y391144*
X104982Y391371*
X105607*
X106232Y391144*
X107170Y390689*
X110295Y388417*
Y391598*
X107482Y393644D02*
Y397735D01*
X103732Y400235D02*
Y402735D01*
X106232Y401371*
Y402053*
X106545Y402508*
X106857Y402735*
X107795Y402962*
X108420*
X109357Y402735*
X109982Y402280*
X110295Y401598*
Y400917*
X109982Y400235*
X109670Y400008*
X109045Y399780*
X105920Y407962D02*
X106857Y407735D01*
X107482Y407280*
X107795Y406598*
Y406371*
X107482Y405689*
X106857Y405235*
X105920Y405008*
X105607*
X104670Y405235*
X104045Y405689*
X103732Y406371*
Y406598*
X104045Y407280*
X104670Y407735*
X105920Y407962*
X107482*
X109045Y407735*
X109982Y407280*
X110295Y406598*
Y406144*
X109982Y405462*
X109357Y405235*
X104982Y410008D02*
X104670Y410462D01*
X103732Y411144*
X110295*
X103732Y423644D02*
X110295D01*
X103732D02*
Y425689D01*
X104045Y426371*
X104357Y426598*
X104982Y426826*
X105920*
X106545Y426598*
X106857Y426371*
X107170Y425689*
Y423644*
X105295Y432280D02*
X104670Y432053D01*
X104045Y431598*
X103732Y431144*
Y430235*
X104045Y429780*
X104670Y429326*
X105295Y429098*
X106232Y428871*
X107795*
X108732Y429098*
X109357Y429326*
X109982Y429780*
X110295Y430235*
Y431144*
X109982Y431598*
X109357Y432053*
X108732Y432280*
X103732Y434326D02*
X110295D01*
X103732D02*
Y436371D01*
X104045Y437053*
X104357Y437280*
X104982Y437508*
X105607*
X106232Y437280*
X106545Y437053*
X106857Y436371*
Y434326D02*
Y436371D01*
X107170Y437053*
X107482Y437280*
X108107Y437508*
X109045*
X109670Y437280*
X109982Y437053*
X110295Y436371*
Y434326*
X161523Y380752D02*
X159554Y377308D01*
Y380752D02*
X161523D01*
X159554Y377308D02*
X161523D01*
X163133Y379276D02*
X165281D01*
Y379768*
X165102Y380260*
X164923Y380506*
X164565Y380752*
X164028*
X163670Y380506*
X163312Y380014*
X163133Y379276*
Y378784*
X163312Y378046*
X163670Y377554*
X164028Y377308*
X164565*
X164923Y377554*
X165281Y378046*
X166891Y380752D02*
Y377308D01*
Y379276D02*
X167070Y380014D01*
X167428Y380506*
X167786Y380752*
X168323*
X170828D02*
X170471Y380506D01*
X170113Y380014*
X169934Y379276*
Y378784*
X170113Y378046*
X170471Y377554*
X170828Y377308*
X171365*
X171723Y377554*
X172081Y378046*
X172260Y378784*
Y379276*
X172081Y380014*
X171723Y380506*
X171365Y380752*
X170828*
X179955Y380014D02*
X179776Y380506D01*
X179239Y380752*
X178702*
X178166Y380506*
X177987Y380014*
X178166Y379522*
X178524Y379276*
X179418Y379030*
X179776Y378784*
X179955Y378292*
Y378046*
X179776Y377554*
X179239Y377308*
X178702*
X178166Y377554*
X177987Y378046*
X181745Y380752D02*
X182818Y377308D01*
X183892Y380752D02*
X182818Y377308D01*
X182461Y376323*
X182103Y375831*
X181745Y375585*
X181566*
X187471Y380014D02*
X187292Y380506D01*
X186755Y380752*
X186219*
X185682Y380506*
X185503Y380014*
X185682Y379522*
X186040Y379276*
X186934Y379030*
X187292Y378784*
X187471Y378292*
Y378046*
X187292Y377554*
X186755Y377308*
X186219*
X185682Y377554*
X185503Y378046*
X193377Y381245D02*
Y381491D01*
X193556Y381983*
X193735Y382229*
X194093Y382475*
X194808*
X195166Y382229*
X195345Y381983*
X195524Y381491*
Y380999*
X195345Y380506*
X194987Y379768*
X193198Y377308*
X195703*
X255667Y380582D02*
X253698Y377138D01*
Y380582D02*
X255667D01*
X253698Y377138D02*
X255667D01*
X257277Y379106D02*
X259425D01*
Y379598*
X259246Y380090*
X259067Y380336*
X258709Y380582*
X258172*
X257814Y380336*
X257456Y379844*
X257277Y379106*
Y378614*
X257456Y377876*
X257814Y377384*
X258172Y377138*
X258709*
X259067Y377384*
X259425Y377876*
X261035Y380582D02*
Y377138D01*
Y379106D02*
X261214Y379844D01*
X261572Y380336*
X261930Y380582*
X262467*
X264972D02*
X264614Y380336D01*
X264256Y379844*
X264077Y379106*
Y378614*
X264256Y377876*
X264614Y377384*
X264972Y377138*
X265509*
X265867Y377384*
X266225Y377876*
X266404Y378614*
Y379106*
X266225Y379844*
X265867Y380336*
X265509Y380582*
X264972*
X274099Y379844D02*
X273920Y380336D01*
X273383Y380582*
X272846*
X272309Y380336*
X272130Y379844*
X272309Y379352*
X272667Y379106*
X273562Y378860*
X273920Y378614*
X274099Y378122*
Y377876*
X273920Y377384*
X273383Y377138*
X272846*
X272309Y377384*
X272130Y377876*
X275889Y380582D02*
X276962Y377138D01*
X278036Y380582D02*
X276962Y377138D01*
X276604Y376153*
X276246Y375661*
X275889Y375415*
X275710*
X281615Y379844D02*
X281436Y380336D01*
X280899Y380582*
X280362*
X279826Y380336*
X279647Y379844*
X279826Y379352*
X280183Y379106*
X281078Y378860*
X281436Y378614*
X281615Y378122*
Y377876*
X281436Y377384*
X280899Y377138*
X280362*
X279826Y377384*
X279647Y377876*
X287342Y381321D02*
X287700Y381567D01*
X288236Y382305*
Y377138*
X316729Y435344D02*
Y430177D01*
X318340Y435344D02*
X318519Y435098D01*
X318697Y435344*
X318519Y435590*
X318340Y435344*
X318519Y433622D02*
Y430177D01*
X320308Y433622D02*
Y430177D01*
Y432637D02*
X320845Y433376D01*
X321203Y433622*
X321740*
X322098Y433376*
X322277Y432637*
Y430177*
Y432637D02*
X322813Y433376D01*
X323171Y433622*
X323708*
X324066Y433376*
X324245Y432637*
Y430177*
X325856Y435344D02*
X326035Y435098D01*
X326214Y435344*
X326035Y435590*
X325856Y435344*
X326035Y433622D02*
Y430177D01*
X328361Y435344D02*
Y431161D01*
X328540Y430423*
X328898Y430177*
X329256*
X327824Y433622D02*
X329077D01*
X336951Y432883D02*
X336772Y433376D01*
X336235Y433622*
X335698*
X335161Y433376*
X334982Y432883*
X335161Y432391*
X335519Y432145*
X336414Y431899*
X336772Y431653*
X336951Y431161*
Y430915*
X336772Y430423*
X336235Y430177*
X335698*
X335161Y430423*
X334982Y430915*
X338740Y433622D02*
X339814Y430177D01*
X340888Y433622D02*
X339814Y430177D01*
X339456Y429192*
X339098Y428700*
X338740Y428454*
X338561*
X344467Y432883D02*
X344288Y433376D01*
X343751Y433622*
X343214*
X342677Y433376*
X342498Y432883*
X342498D02*
X342677Y432391D01*
X343035Y432145*
X343930Y431899*
X344288Y431653*
X344467Y431161*
Y430915*
X344288Y430423*
X343751Y430177*
X343214*
X342677Y430423*
X342498Y430915*
X350373Y434114D02*
Y434360D01*
X350551Y434852*
X350730Y435098*
X351088Y435344*
X351804*
X352162Y435098*
X352341Y434852*
X352520Y434360*
Y433868*
X352341Y433376*
X351983Y432637*
X350194Y430177*
X352699*
X370812Y435370D02*
Y430203D01*
X372423Y435370D02*
X372602Y435124D01*
X372781Y435370*
X372602Y435616*
X372423Y435370*
X372602Y433648D02*
Y430203D01*
X374391Y433648D02*
Y430203D01*
Y432663D02*
X374928Y433401D01*
X375286Y433648*
X375823*
X376181Y433401*
X376360Y432663*
Y430203*
Y432663D02*
X376896Y433401D01*
X377254Y433648*
X377791*
X378149Y433401*
X378328Y432663*
Y430203*
X379939Y435370D02*
X380118Y435124D01*
X380297Y435370*
X380118Y435616*
X379939Y435370*
X380118Y433648D02*
Y430203D01*
X382444Y435370D02*
Y431187D01*
X382623Y430449*
X382981Y430203*
X383339*
X381907Y433648D02*
X383160D01*
X391034Y432909D02*
X390855Y433401D01*
X390318Y433648*
X389781*
X389244Y433401*
X389065Y432909*
X389244Y432417*
X389602Y432171*
X390497Y431925*
X390855Y431679*
X391034Y431187*
Y430941*
X390855Y430449*
X390318Y430203*
X389781*
X389244Y430449*
X389065Y430941*
X392823Y433648D02*
X393897Y430203D01*
X394971Y433648D02*
X393897Y430203D01*
X393539Y429218*
X393181Y428726*
X392823Y428480*
X392645*
X398550Y432909D02*
X398371Y433401D01*
X397834Y433648*
X397297*
X396760Y433401*
X396582Y432909*
X396760Y432417*
X397118Y432171*
X398013Y431925*
X398371Y431679*
X398550Y431187*
Y430941*
X398371Y430449*
X397834Y430203*
X397297*
X396760Y430449*
X396582Y430941*
X404277Y434386D02*
X404634Y434632D01*
X405171Y435370*
Y430203*
X180240Y122085D02*
Y116460D01*
X178195Y119273D02*
X182285D01*
X198195Y121460D02*
X197967Y122085D01*
X197513Y122710*
X197058Y123023*
X196149*
X195695Y122710*
X195695D02*
X195240Y122085D01*
X195013Y121460*
X194785Y120523*
Y118960*
X195013Y118023*
X195240Y117398*
X195695Y116773*
X195695D02*
X196149Y116460D01*
X197058*
X197513Y116773*
X197967Y117398*
X198195Y118023*
X201604Y123023D02*
X201149Y122710D01*
X200695Y122085*
X200695D02*
X200467Y121460D01*
X200240Y120523*
Y118960*
X200467Y118023*
X200695Y117398*
X200695D02*
X201149Y116773D01*
X201604Y116460*
X202513*
X202967Y116773*
X203422Y117398*
X203649Y118023*
X203876Y118960*
Y120523*
X203649Y121460*
X203422Y122085*
X202967Y122710*
X202513Y123023*
X201604*
X205922D02*
Y116460D01*
Y123023D02*
X207740Y116460D01*
X209558Y123023D02*
X207740Y116460D01*
X209558Y123023D02*
Y116460D01*
X220901Y122249D02*
Y116624D01*
X218855Y119437D02*
X222946D01*
X238855Y121624D02*
X238628Y122249D01*
X238173Y122874*
X237719Y123187*
X236810*
X236355Y122874*
X235901Y122249*
X235673Y121624*
X235446Y120687*
Y119124*
X235673Y118187*
X235901Y117562*
X236355Y116937*
X236810Y116624*
X237719*
X238173Y116937*
X238628Y117562*
X238855Y118187*
X242264Y123187D02*
X241810Y122874D01*
X241355Y122249*
X241128Y121624*
X240901Y120687*
Y119124*
X241128Y118187*
X241355Y117562*
X241810Y116937*
X242264Y116624*
X243173*
X243628Y116937*
X244082Y117562*
X244310Y118187*
X244537Y119124*
Y120687*
X244310Y121624*
X244082Y122249*
X243628Y122874*
X243173Y123187*
X242264*
X246582D02*
Y116624D01*
Y123187D02*
X248401Y116624D01*
X250219Y123187D02*
X248401Y116624D01*
X250219Y123187D02*
Y116624D01*
X308185Y122141D02*
Y116516D01*
X306140Y119329D02*
X310230D01*
X322730D02*
X326821D01*
X342730Y121516D02*
X342503Y122141D01*
X342049Y122766*
X341594Y123079*
X340685*
X340230Y122766*
X339776Y122141*
X339549Y121516*
X339321Y120579*
Y119016*
X339549Y118079*
X339776Y117454*
X340230Y116829*
X340685Y116516*
X341594*
X342049Y116829*
X342503Y117454*
X342730Y118079*
X346140Y123079D02*
X345685Y122766D01*
X345230Y122141*
X345003Y121516*
X344776Y120579*
Y119016*
X345003Y118079*
X345230Y117454*
X345685Y116829*
X346140Y116516*
X347049*
X347503Y116829*
X347958Y117454*
X348185Y118079*
X348412Y119016*
Y120579*
X348185Y121516*
X347958Y122141*
X347503Y122766*
X347049Y123079*
X346140*
X350458D02*
Y116516D01*
Y123079D02*
X352276Y116516D01*
X354094Y123079D02*
X352276Y116516D01*
X354094Y123079D02*
Y116516D01*
X367208Y122141D02*
Y116516D01*
X365163Y119329D02*
X369254D01*
X381754D02*
X385845D01*
X401754Y121516D02*
X401527Y122141D01*
X401072Y122766*
X400617Y123079*
X399708*
X399254Y122766*
X398799Y122141*
X398572Y121516*
X398345Y120579*
Y119016*
X398572Y118079*
X398799Y117454*
X399254Y116829*
X399708Y116516*
X400617*
X401072Y116829*
X401527Y117454*
X401754Y118079*
X405163Y123079D02*
X404708Y122766D01*
X404254Y122141*
X404027Y121516*
X403799Y120579*
Y119016*
X404027Y118079*
X404254Y117454*
X404708Y116829*
X405163Y116516*
X406072*
X406527Y116829*
X406981Y117454*
X407208Y118079*
X407436Y119016*
Y120579*
X407208Y121516*
X406981Y122141*
X406527Y122766*
X406072Y123079*
X405163*
X409481D02*
Y116516D01*
Y123079D02*
X411299Y116516D01*
X413117Y123079D02*
X411299Y116516D01*
X413117Y123079D02*
Y116516D01*
X467700Y126377D02*
Y120752D01*
X465655Y123565D02*
X469746D01*
X487473D02*
X491564D01*
X507213Y126541D02*
Y120916D01*
X505168Y123729D02*
X509259D01*
X526986D02*
X531077D01*
X327071Y490494D02*
X327526Y490807D01*
X328207Y491744*
Y485182*
X346162Y490182D02*
Y490494D01*
X346389Y491119*
X346616Y491432*
X347071Y491744*
X347980*
X348435Y491432*
X348662Y491119*
X348889Y490494*
Y489869*
X348662Y489244*
X348207Y488307*
X345935Y485182*
X349116*
X367298Y491744D02*
X369798D01*
X368435Y489244*
X369116*
X369571Y488932*
X369798Y488619*
X370026Y487682*
Y487057*
X369798Y486119*
X369344Y485494*
X368662Y485182*
X367980*
X367298Y485494*
X367071Y485807*
X366844Y486432*
X386258Y490494D02*
X386713Y490807D01*
X387395Y491744*
Y485182*
X405349Y490182D02*
Y490494D01*
X405576Y491119*
X405576D02*
X405804Y491432D01*
X406258Y491744*
X407167*
X407622Y491432*
X407849Y491119*
X408076Y490494*
X408076D02*
Y489869D01*
X408076D02*
X407849Y489244D01*
X407395Y488307*
X405122Y485182*
X408304*
X426486Y491744D02*
X428986D01*
X427622Y489244*
X428304*
X428758Y488932*
X428986Y488619*
X429213Y487682*
Y487057*
X428986Y486119*
X428531Y485494*
X427849Y485182*
X427167*
X426486Y485494*
X426258Y485807*
X426031Y486432*
X557149Y200391D02*
X556694Y199766D01*
X556240Y198829*
X555785Y197579*
X555558Y196016*
Y194766*
X555785Y193204*
X556240Y191954*
X556694Y191016*
X557149Y190391*
X559194Y199141D02*
Y192579D01*
Y199141D02*
X561013Y192579D01*
X562831Y199141D02*
X561013Y192579D01*
X562831Y199141D02*
Y192579D01*
X566694Y199141D02*
X564876Y192579D01*
X566694Y199141D02*
X568513Y192579D01*
X565558Y194766D02*
X567831D01*
X570558Y199141D02*
X573740Y192579D01*
Y199141D02*
X570558Y192579D01*
X582376Y199141D02*
X581694Y198829D01*
X581240Y197891*
X581013Y196329*
Y195391*
X581240Y193829*
X581694Y192891*
X582376Y192579*
X582831*
X583513Y192891*
X583967Y193829*
X584194Y195391*
Y196329*
X583967Y197891*
X583513Y198829*
X582831Y199141*
X582376*
X586467Y193204D02*
X586240Y192891D01*
X586467Y192579*
X586694Y192891*
X586467Y193204*
X591694Y199141D02*
X589422D01*
X589194Y196329*
X589422Y196641*
X590103Y196954*
X590785*
X591467Y196641*
X591922Y196016*
X592149Y195079*
X591922Y194454*
X591694Y193516*
X591240Y192891*
X590558Y192579*
X589876*
X589194Y192891*
X588967Y193204*
X588740Y193829*
X596013Y199141D02*
X594194Y192579D01*
X596013Y199141D02*
X597831Y192579D01*
X594876Y194766D02*
X597149D01*
X605103Y199141D02*
Y192579D01*
Y199141D02*
X608058D01*
X605103Y196016D02*
X606922D01*
X610103Y200391D02*
X610558Y199766D01*
X611013Y198829*
X611467Y197579*
X611694Y196016*
Y194766*
X611467Y193204*
X611013Y191954*
X610558Y191016*
X610103Y190391*
X122650Y272963D02*
X122422Y273588D01*
X121968Y274213*
X121513Y274526*
X120604*
X120150Y274213*
X119695Y273588*
X119468Y272963*
X119241Y272026*
Y270463*
X119468Y269526*
X119695Y268901*
X120150Y268276*
X120604Y267963*
X121513*
X121968Y268276*
X122422Y268901*
X122650Y269526*
Y270463*
X121513D02*
X122650D01*
X126513Y274526D02*
X124695Y267963D01*
X126513Y274526D02*
X128332Y267963D01*
X125377Y270151D02*
X127650D01*
X130377Y274526D02*
Y267963D01*
X132422Y274526D02*
Y267963D01*
Y274526D02*
X135604Y267963D01*
Y274526D02*
Y267963D01*
X217693Y273538D02*
X217466Y274163D01*
X217011Y274788*
X216557Y275101*
X215647*
X215193Y274788*
X214738Y274163*
X214511Y273538*
X214284Y272601*
Y271038*
X214511Y270101*
X214738Y269476*
X215193Y268851*
X215647Y268538*
X216557*
X217011Y268851*
X217466Y269476*
X217693Y270101*
Y271038*
X216557D02*
X217693D01*
X221557Y275101D02*
X219738Y268538D01*
X221557Y275101D02*
X223375Y268538D01*
X220420Y270726D02*
X222693D01*
X225420Y275101D02*
Y268538D01*
X227466Y275101D02*
Y268538D01*
Y275101D02*
X230647Y268538D01*
Y275101D02*
Y268538D01*
X100000Y100000D02*
X650000D01*
Y510000*
X100000*
Y100000*
G54D43*
X165227Y230500D02*
Y225250D01*
Y230500D02*
X166864D01*
X167409Y230250*
X167591Y230000*
X167773Y229500*
Y229000*
X167591Y228500*
X167409Y228250*
X166864Y228000*
X165227*
X166500D02*
X167773Y225250D01*
X169591Y229250D02*
Y229500D01*
X169773Y230000*
X169955Y230250*
X170318Y230500*
X171045*
X171409Y230250*
X171591Y230000*
X171773Y229500*
Y229000*
X171591Y228500*
X171227Y227750*
X169409Y225250*
X171955*
X174682Y230500D02*
X174136Y230250D01*
X173773Y229500*
X173591Y228250*
Y227500*
X173773Y226250*
X174136Y225500*
X174682Y225250*
X175045*
X175591Y225500*
X175955Y226250*
X176136Y227500*
Y228250*
X175955Y229500*
X175591Y230250*
X175045Y230500*
X174682*
X165227Y215500D02*
Y210250D01*
Y215500D02*
X166864D01*
X167409Y215250*
X167591Y215000*
X167773Y214500*
Y214000*
X167591Y213500*
X167409Y213250*
X166864Y213000*
X165227*
X166500D02*
X167773Y210250D01*
X169591Y214250D02*
Y214500D01*
X169773Y215000*
X169955Y215250*
X170318Y215500*
X171045*
X171409Y215250*
X171591Y215000*
X171773Y214500*
Y214000*
X171591Y213500*
X171227Y212750*
X169409Y210250*
X171955*
X173591Y214500D02*
X173955Y214750D01*
X174500Y215500*
Y210250*
X134500Y230227D02*
X139750D01*
X134500D02*
Y231864D01*
X134750Y232409*
X135000Y232591*
X135500Y232773*
X136000*
X136500Y232591*
X136750Y232409*
X137000Y231864*
Y230227*
Y231500D02*
X139750Y232773D01*
X134500Y236227D02*
X138000Y234409D01*
Y237136*
X134500Y236227D02*
X139750D01*
X119500Y230227D02*
X124750D01*
X119500D02*
Y231864D01*
X119750Y232409*
X120000Y232591*
X120500Y232773*
X121000*
X121500Y232591*
X121750Y232409*
X122000Y231864*
Y230227*
Y231500D02*
X124750Y232773D01*
X119500Y234773D02*
Y236773D01*
X121500Y235682*
Y236227*
X121750Y236591*
X122000Y236773*
X122750Y236955*
X123250*
X124000Y236773*
X124500Y236409*
X124750Y235864*
Y235318*
X124500Y234773*
X124250Y234591*
X123750Y234409*
X214500Y230227D02*
X219750D01*
X214500D02*
Y231864D01*
X214750Y232409*
X215000Y232591*
X215500Y232773*
X216000*
X216500Y232591*
X216750Y232409*
X217000Y231864*
Y230227*
Y231500D02*
X219750Y232773D01*
X215500Y234409D02*
X215250Y234773D01*
X214500Y235318*
X219750*
X215500Y236955D02*
X215250Y237318D01*
X214500Y237864*
X219750*
X229500Y230227D02*
X234750D01*
X229500D02*
Y231864D01*
X229750Y232409*
X230000Y232591*
X230500Y232773*
X231000*
X231500Y232591*
X231750Y232409*
X232000Y231864*
Y230227*
Y231500D02*
X234750Y232773D01*
X230500Y234409D02*
X230250Y234773D01*
X229500Y235318*
X234750*
X230750Y237136D02*
X230500D01*
X230000Y237318*
X229750Y237500*
X229500Y237864*
Y238591*
X229750Y238955*
X230000Y239136*
X230500Y239318*
X231000*
X231500Y239136*
X232250Y238773*
X234750Y236955*
Y239500*
X159500Y135227D02*
X164750D01*
Y137409*
X159500Y139409D02*
Y141409D01*
X161500Y140318*
Y140864*
X161750Y141227*
X162000Y141409*
X162750Y141591*
X163250*
X164000Y141409*
X164500Y141045*
X164750Y140500*
Y139955*
X164500Y139409*
X164250Y139227*
X163750Y139045*
X144500Y135227D02*
X149750D01*
Y137409*
X144500Y140864D02*
X148000Y139045D01*
Y141773*
X144500Y140864D02*
X149750D01*
X260227Y285500D02*
Y280250D01*
Y285500D02*
X261864D01*
X262409Y285250*
X262591Y285000*
X262773Y284500*
Y284000*
X262591Y283500*
X262409Y283250*
X261864Y283000*
X260227*
X261500D02*
X262773Y280250D01*
X264409Y284500D02*
X264773Y284750D01*
X265318Y285500*
Y280250*
X268045Y285500D02*
X267500Y285250D01*
X267136Y284500*
X266955Y283250*
Y282500*
X267136Y281250*
X267500Y280500*
X268045Y280250*
X268409*
X268955Y280500*
X269318Y281250*
X269500Y282500*
Y283250*
X269318Y284500*
X268955Y285250*
X268409Y285500*
X268045*
X260227Y300500D02*
Y295250D01*
Y300500D02*
X261864D01*
X262409Y300250*
X262591Y300000*
X262773Y299500*
Y299000*
X262591Y298500*
X262409Y298250*
X261864Y298000*
X260227*
X261500D02*
X262773Y295250D01*
X266955Y300500D02*
X265136Y295250D01*
X264409Y300500D02*
X266955D01*
X260227Y315500D02*
Y310250D01*
Y315500D02*
X261864D01*
X262409Y315250*
X262591Y315000*
X262773Y314500*
Y314000*
X262591Y313500*
X262409Y313250*
X261864Y313000*
X260227*
X261500D02*
X262773Y310250D01*
X265318Y315500D02*
X264773Y315250D01*
X264591Y314750*
Y314250*
X264773Y313750*
X265136Y313500*
X265864Y313250*
X266409Y313000*
X266773Y312500*
X266955Y312000*
Y311250*
X266773Y310750*
X266591Y310500*
X266045Y310250*
X265318*
X264773Y310500*
X264591Y310750*
X264409Y311250*
Y312000*
X264591Y312500*
X264955Y313000*
X265500Y313250*
X266227Y313500*
X266591Y313750*
X266773Y314250*
Y314750*
X266591Y315250*
X266045Y315500*
X265318*
X260227Y330500D02*
Y325250D01*
Y330500D02*
X261864D01*
X262409Y330250*
X262591Y330000*
X262773Y329500*
Y329000*
X262591Y328500*
X262409Y328250*
X261864Y328000*
X260227*
X261500D02*
X262773Y325250D01*
X266773Y328750D02*
X266591Y328000D01*
X266227Y327500*
X265682Y327250*
X265500*
X264955Y327500*
X264591Y328000*
X264409Y328750*
Y329000*
X264591Y329750*
X264955Y330250*
X265500Y330500*
X265682*
X266227Y330250*
X266591Y329750*
X266773Y328750*
Y327500*
X266591Y326250*
X266227Y325500*
X265682Y325250*
X265318*
X264773Y325500*
X264591Y326000*
X165227Y285500D02*
Y280250D01*
Y285500D02*
X166864D01*
X167409Y285250*
X167591Y285000*
X167773Y284500*
Y284000*
X167591Y283500*
X167409Y283250*
X166864Y283000*
X165227*
X166500D02*
X167773Y280250D01*
X169409Y284500D02*
X169773Y284750D01*
X170318Y285500*
Y280250*
X174318Y283750D02*
X174136Y283000D01*
X173773Y282500*
X173227Y282250*
X173045*
X172500Y282500*
X172136Y283000*
X171955Y283750*
Y284000*
X172136Y284750*
X172500Y285250*
X173045Y285500*
X173227*
X173773Y285250*
X174136Y284750*
X174318Y283750*
Y282500*
X174136Y281250*
X173773Y280500*
X173227Y280250*
X172864*
X172318Y280500*
X172136Y281000*
X165227Y300500D02*
Y295250D01*
Y300500D02*
X166864D01*
X167409Y300250*
X167591Y300000*
X167773Y299500*
Y299000*
X167591Y298500*
X167409Y298250*
X166864Y298000*
X165227*
X166500D02*
X167773Y295250D01*
X169409Y299500D02*
X169773Y299750D01*
X170318Y300500*
Y295250*
X174136Y299750D02*
X173955Y300250D01*
X173409Y300500*
X173045*
X172500Y300250*
X172136Y299500*
X171955Y298250*
Y297000*
X172136Y296000*
X172500Y295500*
X173045Y295250*
X173227*
X173773Y295500*
X174136Y296000*
X174318Y296750*
Y297000*
X174136Y297750*
X173773Y298250*
X173227Y298500*
X173045*
X172500Y298250*
X172136Y297750*
X171955Y297000*
X165227Y315500D02*
Y310250D01*
Y315500D02*
X166864D01*
X167409Y315250*
X167591Y315000*
X167773Y314500*
Y314000*
X167591Y313500*
X167409Y313250*
X166864Y313000*
X165227*
X166500D02*
X167773Y310250D01*
X169409Y314500D02*
X169773Y314750D01*
X170318Y315500*
Y310250*
X174500Y315500D02*
X172682Y310250D01*
X171955Y315500D02*
X174500D01*
X124500Y335227D02*
X129750D01*
X124500D02*
Y336864D01*
X124750Y337409*
X125000Y337591*
X125500Y337773*
X126000*
X126500Y337591*
X126750Y337409*
X127000Y336864*
Y335227*
Y336500D02*
X129750Y337773D01*
X125750Y339591D02*
X125500D01*
X125000Y339773*
X124750Y339955*
X124500Y340318*
Y341045*
X124750Y341409*
X125000Y341591*
X125500Y341773*
X126000*
X126500Y341591*
X127250Y341227*
X129750Y339409*
Y341955*
X125750Y343773D02*
X125500D01*
X125000Y343955*
X124750Y344136*
X124500Y344500*
Y345227*
X124750Y345591*
X125000Y345773*
X125500Y345955*
X126000*
X126500Y345773*
X127250Y345409*
X129750Y343591*
Y346136*
X219500Y335227D02*
X224750D01*
X219500D02*
Y336864D01*
X219750Y337409*
X220000Y337591*
X220500Y337773*
X221000*
X221500Y337591*
X221750Y337409*
X222000Y336864*
Y335227*
Y336500D02*
X224750Y337773D01*
X220500Y339409D02*
X220250Y339773D01*
X219500Y340318*
X224750*
X219500Y342318D02*
Y344318D01*
X221500Y343227*
Y343773*
X221750Y344136*
X222000Y344318*
X222750Y344500*
X223250*
X224000Y344318*
X224500Y343955*
X224750Y343409*
Y342864*
X224500Y342318*
X224250Y342136*
X223750Y341955*
X165227Y430500D02*
Y425250D01*
Y430500D02*
X166864D01*
X167409Y430250*
X167591Y430000*
X167773Y429500*
Y429000*
X167591Y428500*
X167409Y428250*
X166864Y428000*
X165227*
X166500D02*
X167773Y425250D01*
X169409Y429500D02*
X169773Y429750D01*
X170318Y430500*
Y425250*
X174318Y430500D02*
X172500D01*
X172318Y428250*
X172500Y428500*
X173045Y428750*
X173591*
X174136Y428500*
X174500Y428000*
X174682Y427250*
X174500Y426750*
X174318Y426000*
X173955Y425500*
X173409Y425250*
X172864*
X172318Y425500*
X172136Y425750*
X171955Y426250*
X165227Y445500D02*
Y440250D01*
Y445500D02*
X166864D01*
X167409Y445250*
X167591Y445000*
X167773Y444500*
Y444000*
X167591Y443500*
X167409Y443250*
X166864Y443000*
X165227*
X166500D02*
X167773Y440250D01*
X169409Y444500D02*
X169773Y444750D01*
X170318Y445500*
Y440250*
X173773Y445500D02*
X171955Y442000D01*
X174682*
X173773Y445500D02*
Y440250D01*
X260227Y430500D02*
Y425250D01*
Y430500D02*
X261864D01*
X262409Y430250*
X262591Y430000*
X262773Y429500*
Y429000*
X262591Y428500*
X262409Y428250*
X261864Y428000*
X260227*
X261500D02*
X262773Y425250D01*
X266591Y429750D02*
X266409Y430250D01*
X265864Y430500*
X265500*
X264955Y430250*
X264591Y429500*
X264409Y428250*
Y427000*
X264591Y426000*
X264955Y425500*
X265500Y425250*
X265682*
X266227Y425500*
X266591Y426000*
X266773Y426750*
Y427000*
X266591Y427750*
X266227Y428250*
X265682Y428500*
X265500*
X264955Y428250*
X264591Y427750*
X264409Y427000*
X260227Y445500D02*
Y440250D01*
Y445500D02*
X261864D01*
X262409Y445250*
X262591Y445000*
X262773Y444500*
Y444000*
X262591Y443500*
X262409Y443250*
X261864Y443000*
X260227*
X261500D02*
X262773Y440250D01*
X266773Y445500D02*
X264955D01*
X264773Y443250*
X264955Y443500*
X265500Y443750*
X266045*
X266591Y443500*
X266955Y443000*
X267136Y442250*
X266955Y441750*
X266773Y441000*
X266409Y440500*
X265864Y440250*
X265318*
X264773Y440500*
X264591Y440750*
X264409Y441250*
X359500Y395227D02*
X364750D01*
Y397409*
X360750Y399227D02*
X360500D01*
X360000Y399409*
X359750Y399591*
X359500Y399955*
Y400682*
X359750Y401045*
X360000Y401227*
X360500Y401409*
X361000*
X361500Y401227*
X362250Y400864*
X364750Y399045*
Y401591*
X414500Y395227D02*
X419750D01*
Y397409*
X415500Y399045D02*
X415250Y399409D01*
X414500Y399955*
X419750*
X444500Y445227D02*
X449750D01*
X444500D02*
Y446864D01*
X444750Y447409*
X445000Y447591*
X445500Y447773*
X446000*
X446500Y447591*
X446750Y447409*
X447000Y446864*
Y445227*
Y446500D02*
X449750Y447773D01*
X444500Y449773D02*
Y451773D01*
X446500Y450682*
Y451227*
X446750Y451591*
X447000Y451773*
X447750Y451955*
X448250*
X449000Y451773*
X449500Y451409*
X449750Y450864*
Y450318*
X449500Y449773*
X449250Y449591*
X448750Y449409*
X444500Y454682D02*
X444750Y454136D01*
X445500Y453773*
X446750Y453591*
X447500*
X448750Y453773*
X449500Y454136*
X449750Y454682*
Y455045*
X449500Y455591*
X448750Y455955*
X447500Y456136*
X446750*
X445500Y455955*
X444750Y455591*
X444500Y455045*
Y454682*
X555227Y420500D02*
Y415250D01*
Y420500D02*
X556864D01*
X557409Y420250*
X557591Y420000*
X557773Y419500*
Y419000*
X557591Y418500*
X557409Y418250*
X556864Y418000*
X555227*
X556500D02*
X557773Y415250D01*
X559591Y419250D02*
Y419500D01*
X559773Y420000*
X559955Y420250*
X560318Y420500*
X561045*
X561409Y420250*
X561591Y420000*
X561773Y419500*
Y419000*
X561591Y418500*
X561227Y417750*
X559409Y415250*
X561955*
X565773Y419750D02*
X565591Y420250D01*
X565045Y420500*
X564682*
X564136Y420250*
X563773Y419500*
X563591Y418250*
Y417000*
X563773Y416000*
X564136Y415500*
X564682Y415250*
X564864*
X565409Y415500*
X565773Y416000*
X565955Y416750*
Y417000*
X565773Y417750*
X565409Y418250*
X564864Y418500*
X564682*
X564136Y418250*
X563773Y417750*
X563591Y417000*
X555227Y405500D02*
Y400250D01*
Y405500D02*
X556864D01*
X557409Y405250*
X557591Y405000*
X557773Y404500*
Y404000*
X557591Y403500*
X557409Y403250*
X556864Y403000*
X555227*
X556500D02*
X557773Y400250D01*
X559591Y404250D02*
Y404500D01*
X559773Y405000*
X559955Y405250*
X560318Y405500*
X561045*
X561409Y405250*
X561591Y405000*
X561773Y404500*
Y404000*
X561591Y403500*
X561227Y402750*
X559409Y400250*
X561955*
X565955Y405500D02*
X564136D01*
X563955Y403250*
X564136Y403500*
X564682Y403750*
X565227*
X565773Y403500*
X566136Y403000*
X566318Y402250*
X566136Y401750*
X565955Y401000*
X565591Y400500*
X565045Y400250*
X564500*
X563955Y400500*
X563773Y400750*
X563591Y401250*
X555227Y390500D02*
Y385250D01*
Y390500D02*
X556864D01*
X557409Y390250*
X557591Y390000*
X557773Y389500*
Y389000*
X557591Y388500*
X557409Y388250*
X556864Y388000*
X555227*
X556500D02*
X557773Y385250D01*
X559773Y390500D02*
X561773D01*
X560682Y388500*
X561227*
X561591Y388250*
X561773Y388000*
X561955Y387250*
Y386750*
X561773Y386000*
X561409Y385500*
X560864Y385250*
X560318*
X559773Y385500*
X559591Y385750*
X559409Y386250*
X563955Y390500D02*
X565955D01*
X564864Y388500*
X565409*
X565773Y388250*
X565955Y388000*
X566136Y387250*
Y386750*
X565955Y386000*
X565591Y385500*
X565045Y385250*
X564500*
X563955Y385500*
X563773Y385750*
X563591Y386250*
X555227Y375500D02*
Y370250D01*
Y375500D02*
X556864D01*
X557409Y375250*
X557591Y375000*
X557773Y374500*
Y374000*
X557591Y373500*
X557409Y373250*
X556864Y373000*
X555227*
X556500D02*
X557773Y370250D01*
X559773Y375500D02*
X561773D01*
X560682Y373500*
X561227*
X561591Y373250*
X561773Y373000*
X561955Y372250*
Y371750*
X561773Y371000*
X561409Y370500*
X560864Y370250*
X560318*
X559773Y370500*
X559591Y370750*
X559409Y371250*
X563773Y374250D02*
Y374500D01*
X563955Y375000*
X564136Y375250*
X564500Y375500*
X565227*
X565591Y375250*
X565773Y375000*
X565955Y374500*
Y374000*
X565773Y373500*
X565409Y372750*
X563591Y370250*
X566136*
X555227Y360500D02*
Y355250D01*
Y360500D02*
X556864D01*
X557409Y360250*
X557591Y360000*
X557773Y359500*
Y359000*
X557591Y358500*
X557409Y358250*
X556864Y358000*
X555227*
X556500D02*
X557773Y355250D01*
X559773Y360500D02*
X561773D01*
X560682Y358500*
X561227*
X561591Y358250*
X561773Y358000*
X561955Y357250*
Y356750*
X561773Y356000*
X561409Y355500*
X560864Y355250*
X560318*
X559773Y355500*
X559591Y355750*
X559409Y356250*
X565773Y359750D02*
X565591Y360250D01*
X565045Y360500*
X564682*
X564136Y360250*
X563773Y359500*
X563591Y358250*
Y357000*
X563773Y356000*
X564136Y355500*
X564682Y355250*
X564864*
X565409Y355500*
X565773Y356000*
X565955Y356750*
Y357000*
X565773Y357750*
X565409Y358250*
X564864Y358500*
X564682*
X564136Y358250*
X563773Y357750*
X563591Y357000*
X555227Y345500D02*
Y340250D01*
Y345500D02*
X556864D01*
X557409Y345250*
X557591Y345000*
X557773Y344500*
Y344000*
X557591Y343500*
X557409Y343250*
X556864Y343000*
X555227*
X556500D02*
X557773Y340250D01*
X559591Y344250D02*
Y344500D01*
X559773Y345000*
X559955Y345250*
X560318Y345500*
X561045*
X561409Y345250*
X561591Y345000*
X561773Y344500*
Y344000*
X561591Y343500*
X561227Y342750*
X559409Y340250*
X561955*
X565409Y345500D02*
X563591Y342000D01*
X566318*
X565409Y345500D02*
Y340250D01*
X545227Y240500D02*
Y235250D01*
Y240500D02*
X546864D01*
X547409Y240250*
X547591Y240000*
X547773Y239500*
Y239000*
X547591Y238500*
X547409Y238250*
X546864Y238000*
X545227*
X546500D02*
X547773Y235250D01*
X549591Y239250D02*
Y239500D01*
X549773Y240000*
X549955Y240250*
X550318Y240500*
X551045*
X551409Y240250*
X551591Y240000*
X551773Y239500*
Y239000*
X551591Y238500*
X551227Y237750*
X549409Y235250*
X551955*
X553955Y240500D02*
X555955D01*
X554864Y238500*
X555409*
X555773Y238250*
X555955Y238000*
X556136Y237250*
Y236750*
X555955Y236000*
X555591Y235500*
X555045Y235250*
X554500*
X553955Y235500*
X553773Y235750*
X553591Y236250*
X605227Y240500D02*
Y235250D01*
Y240500D02*
X606864D01*
X607409Y240250*
X607591Y240000*
X607773Y239500*
Y239000*
X607591Y238500*
X607409Y238250*
X606864Y238000*
X605227*
X606500D02*
X607773Y235250D01*
X609591Y239250D02*
Y239500D01*
X609773Y240000*
X609955Y240250*
X610318Y240500*
X611045*
X611409Y240250*
X611591Y240000*
X611773Y239500*
Y239000*
X611591Y238500*
X611227Y237750*
X609409Y235250*
X611955*
X616136Y240500D02*
X614318Y235250D01*
X613591Y240500D02*
X616136D01*
X595227Y255500D02*
Y250250D01*
Y255500D02*
X596864D01*
X597409Y255250*
X597591Y255000*
X597773Y254500*
Y254000*
X597591Y253500*
X597409Y253250*
X596864Y253000*
X595227*
X596500D02*
X597773Y250250D01*
X599773Y255500D02*
X601773D01*
X600682Y253500*
X601227*
X601591Y253250*
X601773Y253000*
X601955Y252250*
Y251750*
X601773Y251000*
X601409Y250500*
X600864Y250250*
X600318*
X599773Y250500*
X599591Y250750*
X599409Y251250*
X605409Y255500D02*
X603591Y252000D01*
X606318*
X605409Y255500D02*
Y250250D01*
X595227Y270500D02*
Y265250D01*
Y270500D02*
X596864D01*
X597409Y270250*
X597591Y270000*
X597773Y269500*
Y269000*
X597591Y268500*
X597409Y268250*
X596864Y268000*
X595227*
X596500D02*
X597773Y265250D01*
X599773Y270500D02*
X601773D01*
X600682Y268500*
X601227*
X601591Y268250*
X601773Y268000*
X601955Y267250*
Y266750*
X601773Y266000*
X601409Y265500*
X600864Y265250*
X600318*
X599773Y265500*
X599591Y265750*
X599409Y266250*
X605955Y270500D02*
X604136D01*
X603955Y268250*
X604136Y268500*
X604682Y268750*
X605227*
X605773Y268500*
X606136Y268000*
X606318Y267250*
X606136Y266750*
X605955Y266000*
X605591Y265500*
X605045Y265250*
X604500*
X603955Y265500*
X603773Y265750*
X603591Y266250*
X133544Y197403D02*
X133180Y197153D01*
X132817Y196653*
X132635Y196153*
X132453Y195403*
Y194153*
X132635Y193403*
X132817Y192903*
X133180Y192403*
X133544Y192153*
X134271*
X134635Y192403*
X134999Y192903*
X135180Y193403*
X135362Y194153*
Y195403*
X135180Y196153*
X134999Y196653*
X134635Y197153*
X134271Y197403*
X133544*
X134090Y193153D02*
X135180Y191653D01*
X138817Y197403D02*
X136999Y193903D01*
X139726*
X138817Y197403D02*
Y192153D01*
X228803Y197178D02*
X228439Y196928D01*
X228075Y196428*
X227893Y195928*
X227712Y195178*
Y193928*
X227893Y193178*
X228075Y192678*
X228439Y192178*
X228803Y191928*
X229530*
X229893Y192178*
X230257Y192678*
X230439Y193178*
X230621Y193928*
Y195178*
X230439Y195928*
X230257Y196428*
X229893Y196928*
X229530Y197178*
X228803*
X229348Y192928D02*
X230439Y191428D01*
X232439Y195928D02*
Y196178D01*
X232621Y196678*
X232803Y196928*
X233166Y197178*
X233893*
X234257Y196928*
X234439Y196678*
X234621Y196178*
Y195678*
X234439Y195178*
X234075Y194428*
X232257Y191928*
X234803*
X206310Y196806D02*
X205947Y196556D01*
X205583Y196056*
X205401Y195556*
X205219Y194806*
Y193556*
X205401Y192806*
X205583Y192306*
X205947Y191806*
X206310Y191556*
X207037*
X207401Y191806*
X207765Y192306*
X207947Y192806*
X208128Y193556*
Y194806*
X207947Y195556*
X207765Y196056*
X207401Y196556*
X207037Y196806*
X206310*
X206856Y192556D02*
X207947Y191056D01*
X210128Y196806D02*
X212128D01*
X211037Y194806*
X211583*
X211947Y194556*
X212128Y194306*
X212310Y193556*
Y193056*
X212128Y192306*
X211765Y191806*
X211219Y191556*
X210674*
X210128Y191806*
X209947Y192056*
X209765Y192556*
X294263Y210562D02*
X293900Y210312D01*
X293536Y209812*
X293354Y209312*
X293172Y208562*
Y207312*
X293354Y206562*
X293536Y206062*
X293900Y205562*
X294263Y205312*
X294991*
X295354Y205562*
X295718Y206062*
X295900Y206562*
X296082Y207312*
Y208562*
X295900Y209312*
X295718Y209812*
X295354Y210312*
X294991Y210562*
X294263*
X294809Y206312D02*
X295900Y204812D01*
X297718Y209562D02*
X298082Y209812D01*
X298627Y210562*
Y205312*
X228737Y315217D02*
Y309967D01*
Y315217D02*
X230374D01*
X230919Y314967*
X231101Y314717*
X231283Y314217*
Y313467*
X231101Y312967*
X230919Y312717*
X230374Y312467*
X228737*
X233101Y313967D02*
Y314217D01*
X233283Y314717*
X233464Y314967*
X233828Y315217*
X234555*
X234919Y314967*
X235101Y314717*
X235283Y314217*
Y313717*
X235101Y313217*
X234737Y312467*
X232919Y309967*
X235464*
X133119Y314733D02*
Y309483D01*
Y314733D02*
X134755D01*
X135300Y314483*
X135482Y314233*
X135664Y313733*
Y312983*
X135482Y312483*
X135300Y312233*
X134755Y311983*
X133119*
X139482Y313983D02*
X139300Y314483D01*
X138755Y314733*
X138391*
X137846Y314483*
X137482Y313733*
X137300Y312483*
Y311233*
X137482Y310233*
X137846Y309733*
X138391Y309483*
X138573*
X139119Y309733*
X139482Y310233*
X139664Y310983*
Y311233*
X139482Y311983*
X139119Y312483*
X138573Y312733*
X138391*
X137846Y312483*
X137482Y311983*
X137300Y311233*
X144917Y395960D02*
Y390710D01*
Y395960D02*
X146553D01*
X147098Y395710*
X147280Y395460*
X147462Y394960*
Y394210*
X147280Y393710*
X147098Y393460*
X146553Y393210*
X144917*
X151462Y395960D02*
X149644D01*
X149462Y393710*
X149644Y393960*
X150189Y394210*
X150735*
X151280Y393960*
X151644Y393460*
X151826Y392710*
X151644Y392210*
X151462Y391460*
X151098Y390960*
X150553Y390710*
X150007*
X149462Y390960*
X149280Y391210*
X149098Y391710*
X239917Y395960D02*
Y390710D01*
Y395960D02*
X241553D01*
X242098Y395710*
X242280Y395460*
X242462Y394960*
Y394210*
X242280Y393710*
X242098Y393460*
X241553Y393210*
X239917*
X244098Y394960D02*
X244462Y395210D01*
X245007Y395960*
Y390710*
X304917Y395960D02*
Y390710D01*
Y395960D02*
X306553D01*
X307098Y395710*
X307280Y395460*
X307462Y394960*
Y394210*
X307280Y393710*
X307098Y393460*
X306553Y393210*
X304917*
X311644Y395960D02*
X309826Y390710D01*
X309098Y395960D02*
X311644D01*
X404383Y385525D02*
Y380275D01*
Y385525D02*
X406020D01*
X406565Y385275*
X406747Y385025*
X406929Y384525*
Y383775*
X406747Y383275*
X406565Y383025*
X406020Y382775*
X404383*
X408929Y385525D02*
X410929D01*
X409838Y383525*
X410383*
X410747Y383275*
X410929Y383025*
X411111Y382275*
Y381775*
X410929Y381025*
X410565Y380525*
X410020Y380275*
X409474*
X408929Y380525*
X408747Y380775*
X408565Y381275*
X404473Y427436D02*
Y422186D01*
Y427436D02*
X406109D01*
X406655Y427186*
X406837Y426936*
X407019Y426436*
Y425686*
X406837Y425186*
X406655Y424936*
X406109Y424686*
X404473*
X410473Y427436D02*
X408655Y423936D01*
X411382*
X410473Y427436D02*
Y422186D01*
X304917Y420960D02*
Y415710D01*
Y420960D02*
X306553D01*
X307098Y420710*
X307280Y420460*
X307462Y419960*
Y419210*
X307280Y418710*
X307098Y418460*
X306553Y418210*
X304917*
X310007Y420960D02*
X309462Y420710D01*
X309280Y420210*
Y419710*
X309462Y419210*
X309826Y418960*
X310553Y418710*
X311098Y418460*
X311462Y417960*
X311644Y417460*
Y416710*
X311462Y416210*
X311280Y415960*
X310735Y415710*
X310007*
X309462Y415960*
X309280Y416210*
X309098Y416710*
Y417460*
X309280Y417960*
X309644Y418460*
X310189Y418710*
X310917Y418960*
X311280Y419210*
X311462Y419710*
Y420210*
X311280Y420710*
X310735Y420960*
X310007*
X524022Y439724D02*
X523659Y439474D01*
X523295Y438974*
X523113Y438474*
X522931Y437724*
Y436474*
X523113Y435724*
X523295Y435224*
X523659Y434724*
X524022Y434474*
X524750*
X525113Y434724*
X525477Y435224*
X525659Y435724*
X525840Y436474*
Y437724*
X525659Y438474*
X525477Y438974*
X525113Y439474*
X524750Y439724*
X524022*
X524568Y435474D02*
X525659Y433974D01*
X529659Y438974D02*
X529477Y439474D01*
X528931Y439724*
X528568*
X528022Y439474*
X527659Y438724*
X527477Y437474*
Y436224*
X527659Y435224*
X528022Y434724*
X528568Y434474*
X528750*
X529295Y434724*
X529659Y435224*
X529840Y435974*
Y436224*
X529659Y436974*
X529295Y437474*
X528750Y437724*
X528568*
X528022Y437474*
X527659Y436974*
X527477Y436224*
X596580Y440299D02*
X596216Y440049D01*
X595852Y439549*
X595671Y439049*
X595489Y438299*
Y437049*
X595671Y436299*
X595852Y435799*
X596216Y435299*
X596580Y435049*
X597307*
X597671Y435299*
X598034Y435799*
X598216Y436299*
X598398Y437049*
Y438299*
X598216Y439049*
X598034Y439549*
X597671Y440049*
X597307Y440299*
X596580*
X597125Y436049D02*
X598216Y434549D01*
X602398Y440299D02*
X600580D01*
X600398Y438049*
X600580Y438299*
X601125Y438549*
X601671*
X602216Y438299*
X602580Y437799*
X602761Y437049*
X602580Y436549*
X602398Y435799*
X602034Y435299*
X601489Y435049*
X600943*
X600398Y435299*
X600216Y435549*
X600034Y436049*
X534112Y478964D02*
X533930Y479464D01*
X533566Y479964*
X533202Y480214*
X532475*
X532112Y479964*
X531748Y479464*
X531566Y478964*
X531384Y478214*
Y476964*
X531566Y476214*
X531748Y475714*
X532112Y475214*
X532475Y474964*
X533202*
X533566Y475214*
X533930Y475714*
X534112Y476214*
X536112Y480214D02*
X538112D01*
X537021Y478214*
X537566*
X537930Y477964*
X538112Y477714*
X538293Y476964*
Y476464*
X538112Y475714*
X537748Y475214*
X537202Y474964*
X536657*
X536112Y475214*
X535930Y475464*
X535748Y475964*
X541021Y480214D02*
X540475Y479964D01*
X540112Y479214*
X539930Y477964*
Y477214*
X540112Y475964*
X540475Y475214*
X541021Y474964*
X541384*
X541930Y475214*
X542293Y475964*
X542475Y477214*
Y477964*
X542293Y479214*
X541930Y479964*
X541384Y480214*
X541021*
X592309Y454118D02*
X592127Y454618D01*
X591763Y455118*
X591400Y455368*
X590672*
X590309Y455118*
X589945Y454618*
X589763Y454118*
X589582Y453368*
Y452118*
X589763Y451368*
X589945Y450868*
X590309Y450368*
X590672Y450118*
X591400*
X591763Y450368*
X592127Y450868*
X592309Y451368*
X594127Y454118D02*
Y454368D01*
X594309Y454868*
X594491Y455118*
X594854Y455368*
X595582*
X595945Y455118*
X596127Y454868*
X596309Y454368*
Y453868*
X596127Y453368*
X595763Y452618*
X593945Y450118*
X596491*
X598127Y454368D02*
X598491Y454618D01*
X599036Y455368*
Y450118*
X522309Y324118D02*
X522127Y324618D01*
X521763Y325118*
X521400Y325368*
X520672*
X520309Y325118*
X519945Y324618*
X519763Y324118*
X519582Y323368*
Y322118*
X519763Y321368*
X519945Y320868*
X520309Y320368*
X520672Y320118*
X521400*
X521763Y320368*
X522127Y320868*
X522309Y321368*
X524127Y324118D02*
Y324368D01*
X524309Y324868*
X524491Y325118*
X524854Y325368*
X525582*
X525945Y325118*
X526127Y324868*
X526309Y324368*
Y323868*
X526127Y323368*
X525763Y322618*
X523945Y320118*
X526491*
X528309Y324118D02*
Y324368D01*
X528491Y324868*
X528672Y325118*
X529036Y325368*
X529763*
X530127Y325118*
X530309Y324868*
X530491Y324368*
Y323868*
X530309Y323368*
X529945Y322618*
X528127Y320118*
X530672*
X532309Y254118D02*
X532127Y254618D01*
X531763Y255118*
X531400Y255368*
X530672*
X530309Y255118*
X529945Y254618*
X529763Y254118*
X529582Y253368*
Y252118*
X529763Y251368*
X529945Y250868*
X530309Y250368*
X530672Y250118*
X531400*
X531763Y250368*
X532127Y250868*
X532309Y251368*
X533945Y254368D02*
X534309Y254618D01*
X534854Y255368*
Y250118*
X536854Y255368D02*
X538854D01*
X537763Y253368*
X538309*
X538672Y253118*
X538854Y252868*
X539036Y252118*
Y251618*
X538854Y250868*
X538491Y250368*
X537945Y250118*
X537400*
X536854Y250368*
X536672Y250618*
X536491Y251118*
X472309Y364118D02*
X472127Y364618D01*
X471763Y365118*
X471400Y365368*
X470672*
X470309Y365118*
X469945Y364618*
X469763Y364118*
X469582Y363368*
Y362118*
X469763Y361368*
X469945Y360868*
X470309Y360368*
X470672Y360118*
X471400*
X471763Y360368*
X472127Y360868*
X472309Y361368*
X474127Y364118D02*
Y364368D01*
X474309Y364868*
X474491Y365118*
X474854Y365368*
X475582*
X475945Y365118*
X476127Y364868*
X476309Y364368*
Y363868*
X476127Y363368*
X475763Y362618*
X473945Y360118*
X476491*
X478491Y365368D02*
X480491D01*
X479400Y363368*
X479945*
X480309Y363118*
X480491Y362868*
X480672Y362118*
Y361618*
X480491Y360868*
X480127Y360368*
X479582Y360118*
X479036*
X478491Y360368*
X478309Y360618*
X478127Y361118*
X422309Y364118D02*
X422127Y364618D01*
X421763Y365118*
X421400Y365368*
X420672*
X420309Y365118*
X419945Y364618*
X419763Y364118*
X419582Y363368*
Y362118*
X419763Y361368*
X419945Y360868*
X420309Y360368*
X420672Y360118*
X421400*
X421763Y360368*
X422127Y360868*
X422309Y361368*
X424127Y364118D02*
Y364368D01*
X424309Y364868*
X424491Y365118*
X424854Y365368*
X425582*
X425945Y365118*
X426127Y364868*
X426309Y364368*
Y363868*
X426127Y363368*
X425763Y362618*
X423945Y360118*
X426491*
X430491Y365368D02*
X428672D01*
X428491Y363118*
X428672Y363368*
X429218Y363618*
X429763*
X430309Y363368*
X430672Y362868*
X430854Y362118*
X430672Y361618*
X430491Y360868*
X430127Y360368*
X429582Y360118*
X429036*
X428491Y360368*
X428309Y360618*
X428127Y361118*
X362309Y359118D02*
X362127Y359618D01*
X361763Y360118*
X361400Y360368*
X360672*
X360309Y360118*
X359945Y359618*
X359763Y359118*
X359582Y358368*
Y357118*
X359763Y356368*
X359945Y355868*
X360309Y355368*
X360672Y355118*
X361400*
X361763Y355368*
X362127Y355868*
X362309Y356368*
X364854Y360368D02*
X364309Y360118D01*
X364127Y359618*
Y359118*
X364309Y358618*
X364672Y358368*
X365400Y358118*
X365945Y357868*
X366309Y357368*
X366491Y356868*
Y356118*
X366309Y355618*
X366127Y355368*
X365582Y355118*
X364854*
X364309Y355368*
X364127Y355618*
X363945Y356118*
Y356868*
X364127Y357368*
X364491Y357868*
X365036Y358118*
X365763Y358368*
X366127Y358618*
X366309Y359118*
Y359618*
X366127Y360118*
X365582Y360368*
X364854*
X307309Y359118D02*
X307127Y359618D01*
X306763Y360118*
X306400Y360368*
X305672*
X305309Y360118*
X304945Y359618*
X304763Y359118*
X304582Y358368*
Y357118*
X304763Y356368*
X304945Y355868*
X305309Y355368*
X305672Y355118*
X306400*
X306763Y355368*
X307127Y355868*
X307309Y356368*
X311127Y359618D02*
X310945Y360118D01*
X310400Y360368*
X310036*
X309491Y360118*
X309127Y359368*
X308945Y358118*
Y356868*
X309127Y355868*
X309491Y355368*
X310036Y355118*
X310218*
X310763Y355368*
X311127Y355868*
X311309Y356618*
Y356868*
X311127Y357618*
X310763Y358118*
X310218Y358368*
X310036*
X309491Y358118*
X309127Y357618*
X308945Y356868*
X307309Y374118D02*
X307127Y374618D01*
X306763Y375118*
X306400Y375368*
X305672*
X305309Y375118*
X304945Y374618*
X304763Y374118*
X304582Y373368*
Y372118*
X304763Y371368*
X304945Y370868*
X305309Y370368*
X305672Y370118*
X306400*
X306763Y370368*
X307127Y370868*
X307309Y371368*
X311309Y375368D02*
X309491D01*
X309309Y373118*
X309491Y373368*
X310036Y373618*
X310582*
X311127Y373368*
X311491Y372868*
X311672Y372118*
X311491Y371618*
X311309Y370868*
X310945Y370368*
X310400Y370118*
X309854*
X309309Y370368*
X309127Y370618*
X308945Y371118*
X362309Y374118D02*
X362127Y374618D01*
X361763Y375118*
X361400Y375368*
X360672*
X360309Y375118*
X359945Y374618*
X359763Y374118*
X359582Y373368*
Y372118*
X359763Y371368*
X359945Y370868*
X360309Y370368*
X360672Y370118*
X361400*
X361763Y370368*
X362127Y370868*
X362309Y371368*
X366491Y375368D02*
X364672Y370118D01*
X363945Y375368D02*
X366491D01*
X427962Y423476D02*
X427781Y423976D01*
X427417Y424476*
X427053Y424726*
X426326*
X425962Y424476*
X425599Y423976*
X425417Y423476*
X425235Y422726*
Y421476*
X425417Y420726*
X425599Y420226*
X425962Y419726*
X426326Y419476*
X427053*
X427417Y419726*
X427781Y420226*
X427962Y420726*
X429781Y423476D02*
Y423726D01*
X429962Y424226*
X430144Y424476*
X430508Y424726*
X431235*
X431599Y424476*
X431781Y424226*
X431962Y423726*
Y423226*
X431781Y422726*
X431417Y421976*
X429599Y419476*
X432144*
X435962Y423976D02*
X435781Y424476D01*
X435235Y424726*
X434872*
X434326Y424476*
X433962Y423726*
X433781Y422476*
Y421226*
X433962Y420226*
X434326Y419726*
X434872Y419476*
X435053*
X435599Y419726*
X435962Y420226*
X436144Y420976*
Y421226*
X435962Y421976*
X435599Y422476*
X435053Y422726*
X434872*
X434326Y422476*
X433962Y421976*
X433781Y421226*
X472309Y414118D02*
X472127Y414618D01*
X471763Y415118*
X471400Y415368*
X470672*
X470309Y415118*
X469945Y414618*
X469763Y414118*
X469582Y413368*
Y412118*
X469763Y411368*
X469945Y410868*
X470309Y410368*
X470672Y410118*
X471400*
X471763Y410368*
X472127Y410868*
X472309Y411368*
X474127Y414118D02*
Y414368D01*
X474309Y414868*
X474491Y415118*
X474854Y415368*
X475582*
X475945Y415118*
X476127Y414868*
X476309Y414368*
Y413868*
X476127Y413368*
X475763Y412618*
X473945Y410118*
X476491*
X479945Y415368D02*
X478127Y411868D01*
X480854*
X479945Y415368D02*
Y410118D01*
X303682Y488913D02*
X303500Y489413D01*
X303137Y489913*
X302773Y490163*
X302046*
X301682Y489913*
X301319Y489413*
X301137Y488913*
X300955Y488163*
Y486913*
X301137Y486163*
X301319Y485663*
X301682Y485163*
X302046Y484913*
X302773*
X303137Y485163*
X303500Y485663*
X303682Y486163*
X305319Y489163D02*
X305682Y489413D01*
X306228Y490163*
Y484913*
X307864Y489163D02*
X308228Y489413D01*
X308773Y490163*
Y484913*
X227309Y489118D02*
X227127Y489618D01*
X226763Y490118*
X226400Y490368*
X225672*
X225309Y490118*
X224945Y489618*
X224763Y489118*
X224582Y488368*
Y487118*
X224763Y486368*
X224945Y485868*
X225309Y485368*
X225672Y485118*
X226400*
X226763Y485368*
X227127Y485868*
X227309Y486368*
X228945Y489368D02*
X229309Y489618D01*
X229854Y490368*
Y485118*
X231672Y489118D02*
Y489368D01*
X231854Y489868*
X232036Y490118*
X232400Y490368*
X233127*
X233491Y490118*
X233672Y489868*
X233854Y489368*
Y488868*
X233672Y488368*
X233309Y487618*
X231491Y485118*
X234036*
X208392Y488552D02*
X208210Y489052D01*
X207846Y489552*
X207483Y489802*
X206755*
X206392Y489552*
X206028Y489052*
X205846Y488552*
X205664Y487802*
Y486552*
X205846Y485802*
X206028Y485302*
X206392Y484802*
X206755Y484552*
X207483*
X207846Y484802*
X208210Y485302*
X208392Y485802*
X210210Y488552D02*
Y488802D01*
X210392Y489302*
X210574Y489552*
X210937Y489802*
X211664*
X212028Y489552*
X212210Y489302*
X212392Y488802*
Y488302*
X212210Y487802*
X211846Y487052*
X210028Y484552*
X212574*
X132309Y489118D02*
X132127Y489618D01*
X131763Y490118*
X131400Y490368*
X130672*
X130309Y490118*
X129945Y489618*
X129763Y489118*
X129582Y488368*
Y487118*
X129763Y486368*
X129945Y485868*
X130309Y485368*
X130672Y485118*
X131400*
X131763Y485368*
X132127Y485868*
X132309Y486368*
X133945Y489368D02*
X134309Y489618D01*
X134854Y490368*
Y485118*
X132309Y414118D02*
X132127Y414618D01*
X131763Y415118*
X131400Y415368*
X130672*
X130309Y415118*
X129945Y414618*
X129763Y414118*
X129582Y413368*
Y412118*
X129763Y411368*
X129945Y410868*
X130309Y410368*
X130672Y410118*
X131400*
X131763Y410368*
X132127Y410868*
X132309Y411368*
X134309Y415368D02*
X136309D01*
X135218Y413368*
X135763*
X136127Y413118*
X136309Y412868*
X136491Y412118*
Y411618*
X136309Y410868*
X135945Y410368*
X135400Y410118*
X134854*
X134309Y410368*
X134127Y410618*
X133945Y411118*
X208572Y413865D02*
X208391Y414365D01*
X208027Y414865*
X207663Y415115*
X206936*
X206572Y414865*
X206209Y414365*
X206027Y413865*
X205845Y413115*
Y411865*
X206027Y411115*
X206209Y410615*
X206572Y410115*
X206936Y409865*
X207663*
X208027Y410115*
X208391Y410615*
X208572Y411115*
X212027Y415115D02*
X210209Y411615D01*
X212936*
X212027Y415115D02*
Y409865D01*
X140882Y332309D02*
X140382Y332127D01*
X139882Y331763*
X139632Y331400*
Y330672*
X139882Y330309*
X140382Y329945*
X140882Y329763*
X141632Y329582*
X142882*
X143632Y329763*
X144132Y329945*
X144632Y330309*
X144882Y330672*
Y331400*
X144632Y331763*
X144132Y332127*
X143632Y332309*
X140882Y334127D02*
X140632D01*
X140132Y334309*
X139882Y334491*
X139632Y334854*
Y335582*
X139882Y335945*
X140132Y336127*
X140632Y336309*
X141132*
X141632Y336127*
X142382Y335763*
X144882Y333945*
Y336491*
X139632Y340672D02*
X144882Y338854D01*
X139632Y338127D02*
Y340672D01*
X235882Y332309D02*
X235382Y332127D01*
X234882Y331763*
X234632Y331400*
Y330672*
X234882Y330309*
X235382Y329945*
X235882Y329763*
X236632Y329582*
X237882*
X238632Y329763*
X239132Y329945*
X239632Y330309*
X239882Y330672*
Y331400*
X239632Y331763*
X239132Y332127*
X238632Y332309*
X235882Y334127D02*
X235632D01*
X235132Y334309*
X234882Y334491*
X234632Y334854*
Y335582*
X234882Y335945*
X235132Y336127*
X235632Y336309*
X236132*
X236632Y336127*
X237382Y335763*
X239882Y333945*
Y336491*
X234632Y339036D02*
X234882Y338491D01*
X235382Y338309*
X235882*
X236382Y338491*
X236632Y338854*
X236882Y339582*
X237132Y340127*
X237632Y340491*
X238132Y340672*
X238882*
X239382Y340491*
X239632Y340309*
X239882Y339763*
Y339036*
X239632Y338491*
X239382Y338309*
X238882Y338127*
X238132*
X237632Y338309*
X237132Y338672*
X236882Y339218*
X236632Y339945*
X236382Y340309*
X235882Y340491*
X235382*
X234882Y340309*
X234632Y339763*
Y339036*
X227309Y414118D02*
X227127Y414618D01*
X226763Y415118*
X226400Y415368*
X225672*
X225309Y415118*
X224945Y414618*
X224763Y414118*
X224582Y413368*
Y412118*
X224763Y411368*
X224945Y410868*
X225309Y410368*
X225672Y410118*
X226400*
X226763Y410368*
X227127Y410868*
X227309Y411368*
X228945Y414368D02*
X229309Y414618D01*
X229854Y415368*
Y410118*
X232582Y415368D02*
X232036Y415118D01*
X231672Y414368*
X231491Y413118*
Y412368*
X231672Y411118*
X232036Y410368*
X232582Y410118*
X232945*
X233491Y410368*
X233854Y411118*
X234036Y412368*
Y413118*
X233854Y414368*
X233491Y415118*
X232945Y415368*
X232582*
X303236Y410650D02*
X303054Y411150D01*
X302691Y411650*
X302327Y411900*
X301600*
X301236Y411650*
X300873Y411150*
X300691Y410650*
X300509Y409900*
Y408650*
X300691Y407900*
X300873Y407400*
X301236Y406900*
X301600Y406650*
X302327*
X302691Y406900*
X303054Y407400*
X303236Y407900*
X307236Y410150D02*
X307054Y409400D01*
X306691Y408900*
X306145Y408650*
X305963*
X305418Y408900*
X305054Y409400*
X304873Y410150*
Y410400*
X305054Y411150*
X305418Y411650*
X305963Y411900*
X306145*
X306691Y411650*
X307054Y411150*
X307236Y410150*
Y408900*
X307054Y407650*
X306691Y406900*
X306145Y406650*
X305782*
X305236Y406900*
X305054Y407400*
X165227Y330500D02*
Y325250D01*
Y330500D02*
X166864D01*
X167409Y330250*
X167591Y330000*
X167773Y329500*
Y329000*
X167591Y328500*
X167409Y328250*
X166864Y328000*
X165227*
X166500D02*
X167773Y325250D01*
X169409Y329500D02*
X169773Y329750D01*
X170318Y330500*
Y325250*
X172864Y330500D02*
X172318Y330250D01*
X172136Y329750*
Y329250*
X172318Y328750*
X172682Y328500*
X173409Y328250*
X173955Y328000*
X174318Y327500*
X174500Y327000*
Y326250*
X174318Y325750*
X174136Y325500*
X173591Y325250*
X172864*
X172318Y325500*
X172136Y325750*
X171955Y326250*
Y327000*
X172136Y327500*
X172500Y328000*
X173045Y328250*
X173773Y328500*
X174136Y328750*
X174318Y329250*
Y329750*
X174136Y330250*
X173591Y330500*
X172864*
X260227Y215500D02*
Y210250D01*
Y215500D02*
X261864D01*
X262409Y215250*
X262591Y215000*
X262773Y214500*
Y214000*
X262591Y213500*
X262409Y213250*
X261864Y213000*
X260227*
X261500D02*
X262773Y210250D01*
X264591Y214250D02*
Y214500D01*
X264773Y215000*
X264955Y215250*
X265318Y215500*
X266045*
X266409Y215250*
X266591Y215000*
X266773Y214500*
Y214000*
X266591Y213500*
X266227Y212750*
X264409Y210250*
X266955*
X260227Y230500D02*
Y225250D01*
Y230500D02*
X261864D01*
X262409Y230250*
X262591Y230000*
X262773Y229500*
Y229000*
X262591Y228500*
X262409Y228250*
X261864Y228000*
X260227*
X261500D02*
X262773Y225250D01*
X264409Y229500D02*
X264773Y229750D01*
X265318Y230500*
Y225250*
X338254Y255330D02*
Y259593D01*
Y255330D02*
X337221D01*
X336778Y255533*
X336482Y255939*
X336335Y256345*
X336187Y256954*
Y257969*
X336335Y258578*
X336482Y258984*
X336778Y259390*
X337221Y259593*
X338254*
X332939Y256751D02*
X333087Y257360D01*
X333382Y257766*
X333825Y257969*
X333973*
X334415Y257766*
X334711Y257360*
X334858Y256751*
Y256548*
X334711Y255939*
X334415Y255533*
X333973Y255330*
X333825*
X333382Y255533*
X333087Y255939*
X332939Y256751*
Y257766*
X333087Y258781*
X333382Y259390*
X333825Y259593*
X334120*
X334563Y259390*
X334711Y258984*
X338254Y270330D02*
Y274593D01*
Y270330D02*
X337221D01*
X336778Y270533*
X336482Y270939*
X336335Y271345*
X336187Y271954*
Y272969*
X336335Y273578*
X336482Y273984*
X336778Y274390*
X337221Y274593*
X338254*
X334858Y271142D02*
X334563Y270939D01*
X334120Y270330*
Y274593*
X331906Y270330D02*
X332349Y270533D01*
X332644Y271142*
X332791Y272157*
Y272766*
X332644Y273781*
X332349Y274390*
X331906Y274593*
X331610*
X331167Y274390*
X330872Y273781*
X330725Y272766*
Y272157*
X330872Y271142*
X331167Y270533*
X331610Y270330*
X331906*
X393254Y255330D02*
Y259593D01*
Y255330D02*
X392221D01*
X391778Y255533*
X391482Y255939*
X391335Y256345*
X391187Y256954*
Y257969*
X391335Y258578*
X391482Y258984*
X391778Y259390*
X392221Y259593*
X393254*
X389858Y256142D02*
X389563Y255939D01*
X389120Y255330*
Y259593*
X387791Y256142D02*
X387496Y255939D01*
X387053Y255330*
Y259593*
X393254Y270330D02*
Y274593D01*
Y270330D02*
X392221D01*
X391778Y270533*
X391482Y270939*
X391335Y271345*
X391187Y271954*
Y272969*
X391335Y273578*
X391482Y273984*
X391778Y274390*
X392221Y274593*
X393254*
X389858Y271142D02*
X389563Y270939D01*
X389120Y270330*
Y274593*
X387644Y271345D02*
Y271142D01*
X387496Y270736*
X387349Y270533*
X387053Y270330*
X386463*
X386167Y270533*
X386020Y270736*
X385872Y271142*
Y271548*
X386020Y271954*
X386315Y272563*
X387791Y274593*
X385725*
X571746Y114670D02*
Y110407D01*
Y114670D02*
X572779D01*
X573222Y114467*
X573518Y114061*
X573665Y113655*
X573813Y113046*
Y112031*
X573665Y111422*
X573518Y111016*
X573222Y110610*
X572779Y110407*
X571746*
X575142Y113858D02*
X575437Y114061D01*
X575880Y114670*
Y110407*
X578980Y114061D02*
X578833Y114467D01*
X578390Y114670*
X578094*
X577651Y114467*
X577356Y113858*
X577209Y112843*
Y111828*
X577356Y111016*
X577651Y110610*
X578094Y110407*
X578242*
X578685Y110610*
X578980Y111016*
X579128Y111625*
Y111828*
X578980Y112437*
X578685Y112843*
X578242Y113046*
X578094*
X577651Y112843*
X577356Y112437*
X577209Y111828*
X571746Y134670D02*
Y130407D01*
Y134670D02*
X572779D01*
X573222Y134467*
X573518Y134061*
X573665Y133655*
X573813Y133046*
Y132031*
X573665Y131422*
X573518Y131016*
X573222Y130610*
X572779Y130407*
X571746*
X575142Y133858D02*
X575437Y134061D01*
X575880Y134670*
Y130407*
X577504Y134670D02*
X579128D01*
X578242Y133046*
X578685*
X578980Y132843*
X579128Y132640*
X579275Y132031*
Y131625*
X579128Y131016*
X578833Y130610*
X578390Y130407*
X577947*
X577504Y130610*
X577356Y130813*
X577209Y131219*
X183254Y470330D02*
Y474593D01*
Y470330D02*
X182221D01*
X181778Y470533*
X181482Y470939*
X181335Y471345*
X181187Y471954*
Y472969*
X181335Y473578*
X181482Y473984*
X181778Y474390*
X182221Y474593*
X183254*
X178087Y470939D02*
X178234Y470533D01*
X178677Y470330*
X178973*
X179415Y470533*
X179711Y471142*
X179858Y472157*
Y473172*
X179711Y473984*
X179415Y474390*
X178973Y474593*
X178825*
X178382Y474390*
X178087Y473984*
X177939Y473375*
Y473172*
X178087Y472563*
X178382Y472157*
X178825Y471954*
X178973*
X179415Y472157*
X179711Y472563*
X179858Y473172*
X278254Y470330D02*
Y474593D01*
Y470330D02*
X277221D01*
X276778Y470533*
X276482Y470939*
X276335Y471345*
X276187Y471954*
Y472969*
X276335Y473578*
X276482Y473984*
X276778Y474390*
X277221Y474593*
X278254*
X274711Y471345D02*
Y471142D01*
X274563Y470736*
X274415Y470533*
X274120Y470330*
X273530*
X273234Y470533*
X273087Y470736*
X272939Y471142*
Y471548*
X273087Y471954*
X273382Y472563*
X274858Y474593*
X272791*
X268254Y455330D02*
Y459593D01*
Y455330D02*
X267221D01*
X266778Y455533*
X266482Y455939*
X266335Y456345*
X266187Y456954*
Y457969*
X266335Y458578*
X266482Y458984*
X266778Y459390*
X267221Y459593*
X268254*
X264858Y456142D02*
X264563Y455939D01*
X264120Y455330*
Y459593*
X173254Y455330D02*
Y459593D01*
Y455330D02*
X172221D01*
X171778Y455533*
X171482Y455939*
X171335Y456345*
X171187Y456954*
Y457969*
X171335Y458578*
X171482Y458984*
X171778Y459390*
X172221Y459593*
X173254*
X167939Y455330D02*
X169415D01*
X169563Y457157*
X169415Y456954*
X168973Y456751*
X168530*
X168087Y456954*
X167791Y457360*
X167644Y457969*
X167791Y458375*
X167939Y458984*
X168234Y459390*
X168677Y459593*
X169120*
X169563Y459390*
X169711Y459187*
X169858Y458781*
X460330Y451746D02*
X464593D01*
X460330D02*
Y452779D01*
X460533Y453222*
X460939Y453518*
X461345Y453665*
X461954Y453813*
X462969*
X463578Y453665*
X463984Y453518*
X464390Y453222*
X464593Y452779*
Y451746*
X461142Y455142D02*
X460939Y455437D01*
X460330Y455880*
X464593*
X460330Y459128D02*
Y457651D01*
X462157Y457504*
X461954Y457651*
X461751Y458094*
Y458537*
X461954Y458980*
X462360Y459275*
X462969Y459423*
X463375Y459275*
X463984Y459128*
X464390Y458833*
X464593Y458390*
Y457947*
X464390Y457504*
X464187Y457356*
X463781Y457209*
X623254Y355330D02*
Y359593D01*
Y355330D02*
X622221D01*
X621778Y355533*
X621482Y355939*
X621335Y356345*
X621187Y356954*
Y357969*
X621335Y358578*
X621482Y358984*
X621778Y359390*
X622221Y359593*
X623254*
X619858Y356142D02*
X619563Y355939D01*
X619120Y355330*
Y359593*
X616315Y355330D02*
X617791Y358172D01*
X615577*
X616315Y355330D02*
Y359593D01*
X545330Y161746D02*
X549593D01*
X545330D02*
Y162779D01*
X545533Y163222*
X545939Y163518*
X546345Y163665*
X546954Y163813*
X547969*
X548578Y163665*
X548984Y163518*
X549390Y163222*
X549593Y162779*
Y161746*
X546142Y165142D02*
X545939Y165437D01*
X545330Y165880*
X549593*
X545330Y169275D02*
X549593Y167799D01*
X545330Y167209D02*
Y169275D01*
X495625Y297330D02*
X498906D01*
X495625D02*
Y298125D01*
X495781Y298466*
X496094Y298693*
X496406Y298807*
X496875Y298920*
X497656*
X498125Y298807*
X498437Y298693*
X498437D02*
X498750Y298466D01*
X498906Y298125*
Y297330*
X496406Y300057D02*
X496250D01*
X495937Y300170*
X495937D02*
X495781Y300284D01*
X495625Y300511*
Y300966*
X495781Y301193*
X495937Y301307*
X495937D02*
X496250Y301420D01*
X496562*
X496562D02*
X496875Y301307D01*
X497344Y301080*
X498906Y299943*
Y301534*
X495625Y303239D02*
X495781Y302898D01*
X496250Y302670*
X497031Y302557*
X497500*
X498281Y302670*
X498750Y302898*
X498906Y303239*
Y303466*
X498750Y303807*
X498281Y304034*
X497500Y304148*
X497031*
X496250Y304034*
X495781Y303807*
X495625Y303466*
Y303239*
X475625Y297330D02*
X478906D01*
X475625D02*
Y298125D01*
X475781Y298466*
X476094Y298693*
X476406Y298807*
X476875Y298920*
X477656*
X478125Y298807*
X478437Y298693*
X478437D02*
X478750Y298466D01*
X478906Y298125*
Y297330*
X476406Y300057D02*
X476250D01*
X475937Y300170*
X475937D02*
X475781Y300284D01*
X475625Y300511*
Y300966*
X475781Y301193*
X475937Y301307*
X475937D02*
X476250Y301420D01*
X476562*
X476562D02*
X476875Y301307D01*
X477344Y301080*
X478906Y299943*
Y301534*
X476406Y302670D02*
X476250D01*
X475937Y302784*
X475937D02*
X475781Y302898D01*
X475625Y303125*
Y303580*
X475781Y303807*
X475937Y303920*
X475937D02*
X476250Y304034D01*
X476562*
X476562D02*
X476875Y303920D01*
X477344Y303693*
X478906Y302557*
Y304148*
X445625Y297330D02*
X448906D01*
X445625D02*
Y298125D01*
X445781Y298466*
X446094Y298693*
X446406Y298807*
X446875Y298920*
X447656*
X448125Y298807*
X448437Y298693*
X448437D02*
X448750Y298466D01*
X448906Y298125*
Y297330*
X446406Y300057D02*
X446250D01*
X445937Y300170*
X445937D02*
X445781Y300284D01*
X445625Y300511*
Y300966*
X445781Y301193*
X445937Y301307*
X445937D02*
X446250Y301420D01*
X446562*
X446562D02*
X446875Y301307D01*
X447344Y301080*
X448906Y299943*
Y301534*
X445625Y303693D02*
X447812Y302557D01*
X447812D02*
Y304261D01*
X445625Y303693D02*
X448906D01*
X425625Y297330D02*
X428906D01*
X425625D02*
Y298125D01*
X425781Y298466*
X426094Y298693*
X426406Y298807*
X426875Y298920*
X427656*
X428125Y298807*
X428437Y298693*
X428437D02*
X428750Y298466D01*
X428906Y298125*
Y297330*
X426406Y300057D02*
X426250D01*
X425937Y300170*
X425937D02*
X425781Y300284D01*
X425625Y300511*
Y300966*
X425781Y301193*
X425937Y301307*
X425937D02*
X426250Y301420D01*
X426562*
X426562D02*
X426875Y301307D01*
X427344Y301080*
X428906Y299943*
Y301534*
X426094Y303920D02*
X425781Y303807D01*
X425625Y303466*
Y303239*
X425781Y302898*
X426250Y302670*
X427031Y302557*
X427812*
X427812D02*
X428437Y302670D01*
X428437D02*
X428750Y302898D01*
X428906Y303239*
Y303352*
X428750Y303693*
X428437Y303920*
X428437D02*
X427969Y304034D01*
X427812*
X427812D02*
X427344Y303920D01*
X427031Y303693*
X426875Y303352*
Y303239*
X427031Y302898*
X427344Y302670*
X427812Y302557*
X439375Y307670D02*
X436094D01*
X439375D02*
Y306875D01*
X439219Y306534*
X438906Y306307*
X438594Y306193*
X438125Y306080*
X437344*
X436875Y306193*
X436563Y306307*
X436563D02*
X436250Y306534D01*
X436094Y306875*
Y307670*
X438594Y304943D02*
X438750D01*
X439063Y304830*
X439063D02*
X439219Y304716D01*
X439375Y304489*
Y304034*
X439219Y303807*
X439063Y303693*
X439063D02*
X438750Y303580D01*
X438438*
X438438D02*
X438125Y303693D01*
X437656Y303920*
X436094Y305057*
Y303466*
X439375Y300966D02*
Y302102D01*
X437969Y302216*
X438125Y302102*
X438281Y301761*
Y301420*
X438125Y301080*
X437813Y300852*
X437813D02*
X437344Y300739D01*
X437031Y300852*
X436563Y300966*
X436563D02*
X436250Y301193D01*
X436094Y301534*
Y301875*
X436250Y302216*
X436406Y302330*
X436719Y302443*
X459375Y307670D02*
X456094D01*
X459375D02*
Y306875D01*
X459219Y306534*
X458906Y306307*
X458594Y306193*
X458125Y306080*
X457344*
X456875Y306193*
X456563Y306307*
X456563D02*
X456250Y306534D01*
X456094Y306875*
Y307670*
X458594Y304943D02*
X458750D01*
X459063Y304830*
X459063D02*
X459219Y304716D01*
X459375Y304489*
Y304034*
X459219Y303807*
X459063Y303693*
X459063D02*
X458750Y303580D01*
X458438*
X458438D02*
X458125Y303693D01*
X457656Y303920*
X456094Y305057*
Y303466*
X459375Y302216D02*
Y300966D01*
X458125Y301648*
Y301307*
X457969Y301080*
X457813Y300966*
X457813D02*
X457344Y300852D01*
X457031*
X456563Y300966*
X456563D02*
X456250Y301193D01*
X456094Y301534*
Y301875*
X456250Y302216*
X456406Y302330*
X456719Y302443*
X489375Y307670D02*
X486094D01*
X489375D02*
Y306875D01*
X489219Y306534*
X488906Y306307*
X488594Y306193*
X488125Y306080*
X487344*
X486875Y306193*
X486563Y306307*
X486563D02*
X486250Y306534D01*
X486094Y306875*
Y307670*
X488594Y304943D02*
X488750D01*
X489063Y304830*
X489063D02*
X489219Y304716D01*
X489375Y304489*
Y304034*
X489219Y303807*
X489063Y303693*
X489063D02*
X488750Y303580D01*
X488438*
X488438D02*
X488125Y303693D01*
X487656Y303920*
X486094Y305057*
Y303466*
X488750Y302443D02*
X488906Y302216D01*
X489375Y301875*
X486094*
X509375Y307670D02*
X506094D01*
X509375D02*
Y306875D01*
X509219Y306534*
X508906Y306307*
X508594Y306193*
X508125Y306080*
X507344*
X506875Y306193*
X506563Y306307*
X506563D02*
X506250Y306534D01*
X506094Y306875*
Y307670*
X508750Y305057D02*
X508906Y304830D01*
X509375Y304489*
X506094*
X508281Y301989D02*
X507813Y302102D01*
X507813D02*
X507500Y302330D01*
X507344Y302670*
Y302784*
X507500Y303125*
X507813Y303352*
X507813D02*
X508281Y303466D01*
X508438*
X508438D02*
X508906Y303352D01*
X509219Y303125*
X509375Y302784*
Y302670*
X509219Y302330*
X508906Y302102*
X508281Y301989*
X507500*
X506719Y302102*
X506250Y302330*
X506094Y302670*
Y302898*
X506250Y303239*
X506563Y303352*
X604079Y320789D02*
X603897Y321289D01*
X603534Y321789*
X603170Y322039*
X602443*
X602079Y321789*
X601715Y321289*
X601534Y320789*
X601352Y320039*
Y318789*
X601534Y318039*
X601715Y317539*
X602079Y317039*
X602443Y316789*
X603170*
X603534Y317039*
X603897Y317539*
X604079Y318039*
X605715Y321039D02*
X606079Y321289D01*
X606625Y322039*
Y316789*
X610079Y322039D02*
X608261Y318539D01*
X610988*
X610079Y322039D02*
Y316789D01*
X599742Y381668D02*
X599560Y382168D01*
X599197Y382668*
X598833Y382918*
X598106*
X597742Y382668*
X597379Y382168*
X597197Y381668*
X597015Y380918*
Y379668*
X597197Y378918*
X597379Y378418*
X597742Y377918*
X598106Y377668*
X598833*
X599197Y377918*
X599560Y378418*
X599742Y378918*
X601379Y381918D02*
X601742Y382168D01*
X602288Y382918*
Y377668*
X606288Y381168D02*
X606106Y380418D01*
X605742Y379918*
X605197Y379668*
X605015*
X604469Y379918*
X604106Y380418*
X603924Y381168*
Y381418*
X604106Y382168*
X604469Y382668*
X605015Y382918*
X605197*
X605742Y382668*
X606106Y382168*
X606288Y381168*
Y379918*
X606106Y378668*
X605742Y377918*
X605197Y377668*
X604833*
X604288Y377918*
X604106Y378418*
X483372Y327427D02*
X483190Y327927D01*
X482827Y328427*
X482463Y328677*
X481736*
X481372Y328427*
X481008Y327927*
X480827Y327427*
X480645Y326677*
Y325427*
X480827Y324677*
X481008Y324177*
X481372Y323677*
X481736Y323427*
X482463*
X482827Y323677*
X483190Y324177*
X483372Y324677*
X485008Y327677D02*
X485372Y327927D01*
X485917Y328677*
Y323427*
X490099Y328677D02*
X488281Y323427D01*
X487554Y328677D02*
X490099D01*
X430256Y327657D02*
X430074Y328157D01*
X429711Y328657*
X429347Y328907*
X428620*
X428256Y328657*
X427893Y328157*
X427711Y327657*
X427529Y326907*
Y325657*
X427711Y324907*
X427893Y324407*
X428256Y323907*
X428620Y323657*
X429347*
X429711Y323907*
X430074Y324407*
X430256Y324907*
X431893Y327907D02*
X432256Y328157D01*
X432802Y328907*
Y323657*
X436620Y328157D02*
X436438Y328657D01*
X435893Y328907*
X435529*
X434983Y328657*
X434620Y327907*
X434438Y326657*
Y325407*
X434620Y324407*
X434983Y323907*
X435529Y323657*
X435711*
X436256Y323907*
X436620Y324407*
X436802Y325157*
Y325407*
X436620Y326157*
X436256Y326657*
X435711Y326907*
X435529*
X434983Y326657*
X434620Y326157*
X434438Y325407*
X433759Y403682D02*
X433577Y404182D01*
X433213Y404682*
X432850Y404932*
X432123*
X431759Y404682*
X431395Y404182*
X431213Y403682*
X431032Y402932*
Y401682*
X431213Y400932*
X431395Y400432*
X431759Y399932*
X432123Y399682*
X432850*
X433213Y399932*
X433577Y400432*
X433759Y400932*
X435577Y403682D02*
Y403932D01*
X435759Y404432*
X435941Y404682*
X436304Y404932*
X437032*
X437395Y404682*
X437577Y404432*
X437759Y403932*
Y403432*
X437577Y402932*
X437213Y402182*
X435395Y399682*
X437941*
X440668Y404932D02*
X440123Y404682D01*
X439759Y403932*
X439577Y402682*
Y401932*
X439759Y400682*
X440123Y399932*
X440668Y399682*
X441032*
X441577Y399932*
X441941Y400682*
X442123Y401932*
Y402682*
X441941Y403932*
X441577Y404682*
X441032Y404932*
X440668*
X483759Y403682D02*
X483577Y404182D01*
X483213Y404682*
X482850Y404932*
X482123*
X481759Y404682*
X481395Y404182*
X481213Y403682*
X481032Y402932*
Y401682*
X481213Y400932*
X481395Y400432*
X481759Y399932*
X482123Y399682*
X482850*
X483213Y399932*
X483577Y400432*
X483759Y400932*
X485395Y403932D02*
X485759Y404182D01*
X486304Y404932*
Y399682*
X488850Y404932D02*
X488304Y404682D01*
X488123Y404182*
Y403682*
X488304Y403182*
X488668Y402932*
X489395Y402682*
X489941Y402432*
X490304Y401932*
X490486Y401432*
Y400682*
X490304Y400182*
X490123Y399932*
X489577Y399682*
X488850*
X488304Y399932*
X488123Y400182*
X487941Y400682*
Y401432*
X488123Y401932*
X488486Y402432*
X489032Y402682*
X489759Y402932*
X490123Y403182*
X490304Y403682*
Y404182*
X490123Y404682*
X489577Y404932*
X488850*
X495227Y470500D02*
Y465250D01*
Y470500D02*
X496864D01*
X497409Y470250*
X497591Y470000*
X497773Y469500*
Y469000*
X497591Y468500*
X497409Y468250*
X496864Y468000*
X495227*
X496500D02*
X497773Y465250D01*
X499591Y469250D02*
Y469500D01*
X499773Y470000*
X499955Y470250*
X500318Y470500*
X501045*
X501409Y470250*
X501591Y470000*
X501773Y469500*
Y469000*
X501591Y468500*
X501227Y467750*
X499409Y465250*
X501955*
X504500Y470500D02*
X503955Y470250D01*
X503773Y469750*
Y469250*
X503955Y468750*
X504318Y468500*
X505045Y468250*
X505591Y468000*
X505955Y467500*
X506136Y467000*
Y466250*
X505955Y465750*
X505773Y465500*
X505227Y465250*
X504500*
X503955Y465500*
X503773Y465750*
X503591Y466250*
Y467000*
X503773Y467500*
X504136Y468000*
X504682Y468250*
X505409Y468500*
X505773Y468750*
X505955Y469250*
Y469750*
X505773Y470250*
X505227Y470500*
X504500*
X495227Y485500D02*
Y480250D01*
Y485500D02*
X496864D01*
X497409Y485250*
X497591Y485000*
X497773Y484500*
Y484000*
X497591Y483500*
X497409Y483250*
X496864Y483000*
X495227*
X496500D02*
X497773Y480250D01*
X499591Y484250D02*
Y484500D01*
X499773Y485000*
X499955Y485250*
X500318Y485500*
X501045*
X501409Y485250*
X501591Y485000*
X501773Y484500*
Y484000*
X501591Y483500*
X501227Y482750*
X499409Y480250*
X501955*
X505955Y483750D02*
X505773Y483000D01*
X505409Y482500*
X504864Y482250*
X504682*
X504136Y482500*
X503773Y483000*
X503591Y483750*
Y484000*
X503773Y484750*
X504136Y485250*
X504682Y485500*
X504864*
X505409Y485250*
X505773Y484750*
X505955Y483750*
Y482500*
X505773Y481250*
X505409Y480500*
X504864Y480250*
X504500*
X503955Y480500*
X503773Y481000*
X495227Y500500D02*
Y495250D01*
Y500500D02*
X496864D01*
X497409Y500250*
X497591Y500000*
X497773Y499500*
Y499000*
X497591Y498500*
X497409Y498250*
X496864Y498000*
X495227*
X496500D02*
X497773Y495250D01*
X499773Y500500D02*
X501773D01*
X500682Y498500*
X501227*
X501591Y498250*
X501773Y498000*
X501955Y497250*
Y496750*
X501773Y496000*
X501409Y495500*
X500864Y495250*
X500318*
X499773Y495500*
X499591Y495750*
X499409Y496250*
X503591Y499500D02*
X503955Y499750D01*
X504500Y500500*
Y495250*
X398625Y298327D02*
X395344D01*
X398625D02*
Y297531D01*
X398469Y297190*
X398156Y296963*
X397844Y296850*
X397375Y296736*
X396594*
X396125Y296850*
X395812Y296963*
X395500Y297190*
X395344Y297531*
Y298327*
X398625Y295145D02*
X398469Y295486D01*
X398156Y295600*
X397844*
X397531Y295486*
X397375Y295259*
X397219Y294804*
X397062Y294463*
X396750Y294236*
X396437Y294122*
X395969*
X395656Y294236*
X395500Y294350*
X395344Y294690*
Y295145*
X395500Y295486*
X395656Y295600*
X395969Y295713*
X396437*
X396750Y295600*
X397062Y295372*
X397219Y295031*
X397375Y294577*
X397531Y294350*
X397844Y294236*
X398156*
X398469Y294350*
X398625Y294690*
Y295145*
X364994Y297907D02*
X361713D01*
X364994D02*
Y297112D01*
X364838Y296771*
X364526Y296543*
X364526D02*
X364213Y296430D01*
X363744Y296316*
X362963*
X362494Y296430*
X362182Y296543*
X361869Y296771*
X361713Y297112*
Y297907*
X364994Y293702D02*
X361713Y294839D01*
X364994Y295293D02*
Y293702D01*
X343566Y298464D02*
X340285D01*
X343566D02*
Y297668D01*
X343410Y297327*
X343097Y297100*
X342785Y296986*
X342316Y296873*
X341535*
X341066Y296986*
X340754Y297100*
X340441Y297327*
X340285Y297668*
Y298464*
X343566Y294714D02*
X341379Y295850D01*
Y294145*
X343566Y294714D02*
X340285D01*
X309994Y297907D02*
X306713D01*
X309994D02*
Y297112D01*
X309838Y296771*
X309526Y296543*
X309526D02*
X309213Y296430D01*
X308744Y296316*
X307963*
X307494Y296430*
X307182Y296543*
X306869Y296771*
X306713Y297112*
Y297907*
X309994Y295066D02*
Y293816D01*
X308744Y294498*
Y294157*
X308588Y293930*
X308432Y293816*
X307963Y293702*
X307651*
X307651D02*
X307182Y293816D01*
X306869Y294043*
X306713Y294384*
Y294725*
X306869Y295066*
X307026Y295180*
X307026D02*
X307338Y295293D01*
X557434Y498610D02*
Y495329D01*
Y498610D02*
X558229D01*
X558570Y498454*
X558797Y498142*
X558911Y497829*
X559024Y497360*
Y496579*
X558911Y496110*
X558797Y495798*
X558570Y495485*
X558229Y495329*
X557434*
X560047Y497985D02*
X560274Y498142D01*
X560615Y498610*
Y495329*
X562206Y498610D02*
X561865Y498454D01*
X561752Y498142*
Y497829*
X561865Y497517*
X562093Y497360*
X562547Y497204*
X562888Y497048*
X563115Y496735*
X563229Y496423*
Y495954*
X563115Y495642*
X563002Y495485*
X562661Y495329*
X562206*
X561865Y495485*
X561752Y495642*
X561638Y495954*
Y496423*
X561752Y496735*
X561979Y497048*
X562320Y497204*
X562774Y497360*
X563002Y497517*
X563115Y497829*
Y498142*
X563002Y498454*
X562661Y498610*
X562206*
X324358Y235453D02*
Y230285D01*
X326863Y235453D02*
X324358Y232008D01*
X325252Y233238D02*
X326863Y230285D01*
X328652Y234222D02*
Y234469D01*
X328831Y234961*
X329010Y235207*
X329368Y235453*
X330084*
X330442Y235207*
X330621Y234961*
X330800Y234469*
Y233976*
X330621Y233484*
X330263Y232746*
X328474Y230285*
X330979*
X379358Y235453D02*
Y230285D01*
X381863Y235453D02*
X379358Y232008D01*
X380252Y233238D02*
X381863Y230285D01*
X385263Y235453D02*
X383474Y232008D01*
X386158*
X385263Y235453D02*
Y230285D01*
X379358Y200453D02*
Y195285D01*
X381863Y200453D02*
X379358Y197008D01*
X380252Y198238D02*
X381863Y195285D01*
X383831Y200453D02*
X385800D01*
X384726Y198484*
X385263*
X385621Y198238*
X385800Y197992*
X385979Y197254*
Y196762*
X385800Y196024*
X385442Y195531*
X384905Y195285*
X384368*
X383831Y195531*
X383652Y195778*
X383474Y196270*
X324358Y200453D02*
Y195285D01*
X326863Y200453D02*
X324358Y197008D01*
X325252Y198238D02*
X326863Y195285D01*
X328474Y199469D02*
X328831Y199715D01*
X329368Y200453*
Y195285*
X189839Y135478D02*
X189481Y135970D01*
X188944Y136216*
X188228*
X187692Y135970*
X187334Y135478*
Y134986*
X187513Y134494*
X187692Y134248*
X188050Y134001*
X189123Y133509*
X189481Y133263*
X189660Y133017*
X189839Y132525*
Y131787*
X189481Y131295*
X188944Y131049*
X188228*
X187692Y131295*
X187334Y131787*
X191450Y136216D02*
X192881Y133755D01*
Y131049*
X194313Y136216D02*
X192881Y133755D01*
X198429Y135478D02*
X198071Y135970D01*
X197534Y136216*
X196818*
X196281Y135970*
X195924Y135478*
Y134986*
X196103Y134494*
X196281Y134248*
X196639Y134001*
X197713Y133509*
X198071Y133263*
X198250Y133017*
X198429Y132525*
Y131787*
X198071Y131295*
X197534Y131049*
X196818*
X196281Y131295*
X195924Y131787*
X200040Y135232D02*
X200397Y135478D01*
X200934Y136216*
Y131049*
X229839Y135478D02*
X229481Y135970D01*
X228944Y136216*
X228228*
X227692Y135970*
X227334Y135478*
Y134986*
X227513Y134494*
X227692Y134248*
X228050Y134001*
X229123Y133509*
X229481Y133263*
X229660Y133017*
X229839Y132525*
Y131787*
X229481Y131295*
X228944Y131049*
X228228*
X227692Y131295*
X227334Y131787*
X231450Y136216D02*
X232881Y133755D01*
Y131049*
X234313Y136216D02*
X232881Y133755D01*
X238429Y135478D02*
X238071Y135970D01*
X237534Y136216*
X236818*
X236281Y135970*
X235924Y135478*
Y134986*
X236103Y134494*
X236281Y134248*
X236639Y134001*
X237713Y133509*
X238071Y133263*
X238250Y133017*
X238429Y132525*
Y131787*
X238071Y131295*
X237534Y131049*
X236818*
X236281Y131295*
X235924Y131787*
X240218Y134986D02*
Y135232D01*
X240397Y135724*
X240576Y135970*
X240934Y136216*
X241650*
X242008Y135970*
X242187Y135724*
X242366Y135232*
Y134740*
X242187Y134248*
X241829Y133509*
X240040Y131049*
X242545*
X466402Y135205D02*
X466044Y135697D01*
X465507Y135944*
X464791*
X464254Y135697*
X463896Y135205*
Y134713*
X464075Y134221*
X464254Y133975*
X464612Y133729*
X465686Y133237*
X466044Y132991*
X466223Y132745*
X466402Y132253*
Y131514*
X466044Y131022*
X465507Y130776*
X464791*
X464254Y131022*
X463896Y131514*
X468012Y135944D02*
Y132253D01*
X468191Y131514*
X468549Y131022*
X469086Y130776*
X469444*
X469981Y131022*
X470339Y131514*
X470518Y132253*
Y135944*
X472128D02*
Y130776D01*
Y135944D02*
X473739D01*
X474276Y135697*
X474455Y135451*
X474634Y134959*
Y134221*
X474455Y133729*
X474276Y133483*
X473739Y133237*
X472128*
X476244Y135944D02*
Y130776D01*
Y135944D02*
X477855D01*
X478392Y135697*
X478571Y135451*
X478750Y134959*
Y134221*
X478571Y133729*
X478392Y133483*
X477855Y133237*
X476244*
X480360Y135944D02*
Y130776D01*
X482508*
X484118Y135944D02*
X485550Y133483D01*
Y130776*
X486982Y135944D02*
X485550Y133483D01*
X488771Y134713D02*
Y134959D01*
X488950Y135451*
X489129Y135697*
X489487Y135944*
X490203*
X490561Y135697*
X490740Y135451*
X490919Y134959*
Y134467*
X490740Y133975*
X490382Y133237*
X488592Y130776*
X491098*
X507131Y135205D02*
X506773Y135697D01*
X506236Y135944*
X505520*
X504983Y135697*
X504626Y135205*
Y134713*
X504805Y134221*
X504983Y133975*
X505341Y133729*
X506415Y133237*
X506773Y132991*
X506952Y132745*
X507131Y132253*
Y131514*
X506773Y131022*
X506236Y130776*
X505520*
X504983Y131022*
X504626Y131514*
X508742Y135944D02*
Y132253D01*
X508921Y131514*
X509278Y131022*
X509815Y130776*
X510173*
X510710Y131022*
X511068Y131514*
X511247Y132253*
Y135944*
X512858D02*
Y130776D01*
Y135944D02*
X514468D01*
X515005Y135697*
X515184Y135451*
X515363Y134959*
Y134221*
X515184Y133729*
X515005Y133483*
X514468Y133237*
X512858*
X516973Y135944D02*
Y130776D01*
Y135944D02*
X518584D01*
X519121Y135697*
X519300Y135451*
X519479Y134959*
Y134221*
X519300Y133729*
X519121Y133483*
X518584Y133237*
X516973*
X521089Y135944D02*
Y130776D01*
X523237*
X524847Y135944D02*
X526279Y133483D01*
Y130776*
X527711Y135944D02*
X526279Y133483D01*
X529321Y134959D02*
X529679Y135205D01*
X530216Y135944*
Y130776*
X309061Y136320D02*
X307629Y131153D01*
X309061Y136320D02*
X310493Y131153D01*
X308166Y132875D02*
X309956D01*
X312103Y136320D02*
Y131153D01*
X314251*
X317293Y136320D02*
X315861Y131153D01*
X317293Y136320D02*
X318725Y131153D01*
X316398Y132875D02*
X318188D01*
X320335Y136320D02*
Y131153D01*
Y136320D02*
X321946D01*
X322483Y136074*
X322662Y135828*
X322840Y135336*
Y134844*
X322662Y134352*
X322483Y134106*
X321946Y133860*
X320335*
X321588D02*
X322840Y131153D01*
X324451Y136320D02*
Y131153D01*
Y136320D02*
X325883Y131153D01*
X327314Y136320D02*
X325883Y131153D01*
X327314Y136320D02*
Y131153D01*
X328925Y130169D02*
X332683D01*
X336262Y135582D02*
X335904Y136074D01*
X335367Y136320*
X334651*
X334115Y136074*
X333757Y135582*
Y135090*
X333936Y134598*
X334115Y134352*
X334473Y134106*
X335546Y133613*
X335904Y133367*
X336083Y133121*
X336262Y132629*
Y131891*
X335904Y131399*
X335367Y131153*
X334651*
X334115Y131399*
X333757Y131891*
X337873Y136320D02*
X339304Y133860D01*
Y131153*
X340736Y136320D02*
X339304Y133860D01*
X344852Y135582D02*
X344494Y136074D01*
X343957Y136320*
X343241*
X342704Y136074*
X342347Y135582*
Y135090*
X342526Y134598*
X342704Y134352*
X343062Y134106*
X344136Y133613*
X344494Y133367*
X344673Y133121*
X344852Y132629*
Y131891*
X344494Y131399*
X343957Y131153*
X343241*
X342704Y131399*
X342347Y131891*
X346641Y135090D02*
Y135336D01*
X346820Y135828*
X346999Y136074*
X347357Y136320*
X348073*
X348431Y136074*
X348610Y135828*
X348789Y135336*
Y134844*
X348610Y134352*
X348252Y133613*
X346463Y131153*
X348968*
X368639Y135734D02*
X367207Y130566D01*
X368639Y135734D02*
X370070Y130566D01*
X367744Y132289D02*
X369533D01*
X371681Y135734D02*
Y130566D01*
X373828*
X376870Y135734D02*
X375439Y130566D01*
X376870Y135734D02*
X378302Y130566D01*
X375976Y132289D02*
X377765D01*
X379913Y135734D02*
Y130566D01*
Y135734D02*
X381523D01*
X382060Y135487*
X382239Y135241*
X382418Y134749*
Y134257*
X382239Y133765*
X382060Y133519*
X381523Y133273*
X379913*
X381165D02*
X382418Y130566D01*
X384029Y135734D02*
Y130566D01*
Y135734D02*
X385460Y130566D01*
X386892Y135734D02*
X385460Y130566D01*
X386892Y135734D02*
Y130566D01*
X388503Y129582D02*
X392261D01*
X395840Y134995D02*
X395482Y135487D01*
X394945Y135734*
X394229*
X393692Y135487*
X393334Y134995*
Y134503*
X393513Y134011*
X393692Y133765*
X394050Y133519*
X395124Y133027*
X395482Y132781*
X395661Y132535*
X395840Y132043*
Y131304*
X395482Y130812*
X394945Y130566*
X394229*
X393692Y130812*
X393334Y131304*
X397450Y135734D02*
X398882Y133273D01*
Y130566*
X400314Y135734D02*
X398882Y133273D01*
X404430Y134995D02*
X404072Y135487D01*
X403535Y135734*
X402819*
X402282Y135487*
X401924Y134995*
Y134503*
X402103Y134011*
X402282Y133765*
X402640Y133519*
X403714Y133027*
X404072Y132781*
X404251Y132535*
X404430Y132043*
Y131304*
X404072Y130812*
X403535Y130566*
X402819*
X402282Y130812*
X401924Y131304*
X406040Y134749D02*
X406398Y134995D01*
X406935Y135734*
Y130566*
X331526Y450012D02*
Y444845D01*
Y450012D02*
X333137D01*
X333674Y449766*
X333853Y449520*
X334032Y449028*
Y448289*
X333853Y447797*
X333674Y447551*
X333137Y447305*
X331526*
X336716Y450012D02*
X336358Y449766D01*
X336000Y449274*
X335821Y448782*
X335642Y448043*
Y446813*
X335821Y446075*
X336000Y445583*
X336358Y445091*
X336716Y444845*
X337432*
X337790Y445091*
X338148Y445583*
X338327Y446075*
X338506Y446813*
Y448043*
X338327Y448782*
X338148Y449274*
X337790Y449766*
X337432Y450012*
X336716*
X341369D02*
Y444845D01*
X340116Y450012D02*
X342621D01*
X344232Y443860D02*
X347990D01*
X349064Y450012D02*
Y444845D01*
Y450012D02*
X351569Y444845D01*
Y450012D02*
Y444845D01*
X353180Y450012D02*
Y444845D01*
Y450012D02*
X354790D01*
X355327Y449766*
X355506Y449520*
X355685Y449028*
Y448535*
X355506Y448043*
X355327Y447797*
X354790Y447551*
X353180*
X354433D02*
X355685Y444845D01*
X357475Y448782D02*
Y449028D01*
X357654Y449520*
X357833Y449766*
X358191Y450012*
X358906*
X359264Y449766*
X359443Y449520*
X359622Y449028*
Y448535*
X359443Y448043*
X359085Y447305*
X357296Y444845*
X359801*
X392067Y451350D02*
Y446183D01*
Y451350D02*
X393677D01*
X394214Y451104*
X394393Y450858*
X394572Y450366*
Y449628*
X394393Y449136*
X394214Y448890*
X393677Y448644*
X392067*
X397256Y451350D02*
X396898Y451104D01*
X396540Y450612*
X396362Y450120*
X396183Y449382*
Y448152*
X396362Y447413*
X396540Y446921*
X396898Y446429*
X397256Y446183*
X397972*
X398330Y446429*
X398688Y446921*
X398867Y447413*
X399046Y448152*
Y449382*
X398867Y450120*
X398688Y450612*
X398330Y451104*
X397972Y451350*
X397256*
X401909D02*
Y446183D01*
X400656Y451350D02*
X403162D01*
X404772Y445199D02*
X408530D01*
X409604Y451350D02*
Y446183D01*
Y451350D02*
X412110Y446183D01*
Y451350D02*
Y446183D01*
X413720Y451350D02*
Y446183D01*
Y451350D02*
X415331D01*
X415868Y451104*
X416047Y450858*
X416226Y450366*
Y449874*
X416047Y449382*
X415868Y449136*
X415331Y448890*
X413720*
X414973D02*
X416226Y446183D01*
X417836Y450366D02*
X418194Y450612D01*
X418731Y451350*
Y446183*
X591852Y171285D02*
Y166118D01*
X594357Y171285D02*
X591852Y167840D01*
X592747Y169070D02*
X594357Y166118D01*
X598294Y171285D02*
X596505D01*
X596326Y169070*
X596505Y169316*
X597042Y169563*
X597579*
X598115Y169316*
X598473Y168824*
X598652Y168086*
X598473Y167594*
X598294Y166856*
X597936Y166364*
X597400Y166118*
X596863*
X596326Y166364*
X596147Y166610*
X595968Y167102*
X615429Y425719D02*
X615316Y426031D01*
X615088Y426344*
X614861Y426500*
X614407*
X614179Y426344*
X613952Y426031*
X613838Y425719*
X613725Y425250*
Y424469*
X613838Y424000*
X613952Y423688*
X614179Y423375*
X614407Y423219*
X614861*
X615088Y423375*
X615316Y423688*
X615429Y424000*
X616566Y425719D02*
Y425875D01*
X616679Y426188*
X616793Y426344*
X617020Y426500*
X617475*
X617702Y426344*
X617816Y426188*
X617929Y425875*
Y425563*
X617816Y425250*
X617588Y424781*
X616452Y423219*
X618043*
X620543Y425406D02*
X620429Y424938D01*
X620202Y424625*
X619861Y424469*
X619747*
X619407Y424625*
X619179Y424938*
X619066Y425406*
Y425563*
X619179Y426031*
X619407Y426344*
X619747Y426500*
X619861*
X620202Y426344*
X620429Y426031*
X620543Y425406*
Y424625*
X620429Y423844*
X620202Y423375*
X619861Y423219*
X619634*
X619293Y423375*
X619179Y423688*
X580429Y325719D02*
X580316Y326031D01*
X580088Y326344*
X579861Y326500*
X579407*
X579179Y326344*
X578952Y326031*
X578838Y325719*
X578725Y325250*
Y324469*
X578838Y324000*
X578952Y323688*
X579179Y323375*
X579407Y323219*
X579861*
X580088Y323375*
X580316Y323688*
X580429Y324000*
X581452Y325875D02*
X581679Y326031D01*
X582020Y326500*
Y323219*
X584520Y326500D02*
X583384D01*
X583270Y325094*
X583384Y325250*
X583725Y325406*
X584066*
X584407Y325250*
X584634Y324938*
X584747Y324469*
X584634Y324156*
X584520Y323688*
X584293Y323375*
X583952Y323219*
X583611*
X583270Y323375*
X583157Y323531*
X583043Y323844*
X579358Y215453D02*
Y210285D01*
Y215453D02*
X581684D01*
X579358Y212992D02*
X580789D01*
X583295Y214469D02*
X583652Y214715D01*
X584189Y215453*
Y210285*
G74*
X0Y0D02*
M02*
