*
*
G04 PADS Layout (Build Number 2007.42.1) generated Gerber (RS-274-X) file*
G04 PC Version=2.1*
*
%IN "mhe1296_v4.pcb"*%
*
%MOIN*%
*
%FSLAX35Y35*%
*
*
*
*
G04 PC Standard Apertures*
*
*
G04 Thermal Relief Aperture macro.*
%AMTER*
1,1,$1,0,0*
1,0,$1-$2,0,0*
21,0,$3,$4,0,0,45*
21,0,$3,$4,0,0,135*
%
*
*
G04 Annular Aperture macro.*
%AMANN*
1,1,$1,0,0*
1,0,$2,0,0*
%
*
*
G04 Odd Aperture macro.*
%AMODD*
1,1,$1,0,0*
1,0,$1-0.005,0,0*
%
*
*
G04 PC Custom Aperture Macros*
*
*
*
*
*
*
G04 PC Aperture Table*
*
%ADD019C,0.01*%
%ADD021C,0.001*%
*
*
*
*
G04 PC Copper Outlines (0)*
G04 Layer Name mhe1296_v4.pcb - dark (0)*
%LPD*%
*
*
G04 PC Area=Custom_Thermal*
*
G04 PC Custom Flashes*
G04 Layer Name mhe1296_v4.pcb - flashes*
%LPD*%
*
*
G04 PC Circuitry*
G04 Layer Name mhe1296_v4.pcb - circuitry*
%LPD*%
*
G54D19*
G01X188924Y205524D02*
X196924D01*
X192924Y201524D02*
Y209524D01*
X188924Y215524D02*
X196924D01*
X192924Y211524D02*
Y219524D01*
X188924Y225524D02*
X196924D01*
X192924Y221524D02*
Y229524D01*
X188924Y235524D02*
X196924D01*
X192924Y231524D02*
Y239524D01*
X188924Y245524D02*
X196924D01*
X192924Y241524D02*
Y249524D01*
X188924Y255524D02*
X196924D01*
X192924Y251524D02*
Y259524D01*
X188924Y265524D02*
X196924D01*
X192924Y261524D02*
Y269524D01*
X188924Y275524D02*
X196924D01*
X192924Y271524D02*
Y279524D01*
X188924Y285524D02*
X196924D01*
X192924Y281524D02*
Y289524D01*
X188924Y295524D02*
X196924D01*
X192924Y291524D02*
Y299524D01*
X218924Y295524D02*
X226924D01*
X222924Y291524D02*
Y299524D01*
X218924Y285524D02*
X226924D01*
X222924Y281524D02*
Y289524D01*
X218924Y275524D02*
X226924D01*
X222924Y271524D02*
Y279524D01*
X218924Y265524D02*
X226924D01*
X222924Y261524D02*
Y269524D01*
X218924Y255524D02*
X226924D01*
X222924Y251524D02*
Y259524D01*
X218924Y245524D02*
X226924D01*
X222924Y241524D02*
Y249524D01*
X218924Y235524D02*
X226924D01*
X222924Y231524D02*
Y239524D01*
X218924Y225524D02*
X226924D01*
X222924Y221524D02*
Y229524D01*
X218924Y215524D02*
X226924D01*
X222924Y211524D02*
Y219524D01*
X218924Y205524D02*
X226924D01*
X222924Y201524D02*
Y209524D01*
X348924Y130524D02*
X356924D01*
X352924Y126524D02*
Y134524D01*
X358924Y130524D02*
X366924D01*
X362924Y126524D02*
Y134524D01*
X368924Y130524D02*
X376924D01*
X372924Y126524D02*
Y134524D01*
X348924Y145524D02*
X356924D01*
X352924Y141524D02*
Y149524D01*
X358924Y145524D02*
X366924D01*
X362924Y141524D02*
Y149524D01*
X368924Y145524D02*
X376924D01*
X372924Y141524D02*
Y149524D01*
X328924Y175524D02*
X336924D01*
X332924Y171524D02*
Y179524D01*
X338924Y175524D02*
X346924D01*
X342924Y171524D02*
Y179524D01*
X348924Y175524D02*
X356924D01*
X352924Y171524D02*
Y179524D01*
X278924Y160524D02*
X286924D01*
X282924Y156524D02*
Y164524D01*
X278924Y170524D02*
X286924D01*
X282924Y166524D02*
Y174524D01*
X278924Y180524D02*
X286924D01*
X282924Y176524D02*
Y184524D01*
X258924Y160524D02*
X266924D01*
X262924Y156524D02*
Y164524D01*
X258924Y170524D02*
X266924D01*
X262924Y166524D02*
Y174524D01*
X258924Y180524D02*
X266924D01*
X262924Y176524D02*
Y184524D01*
X298924Y170524D02*
X306924D01*
X302924Y166524D02*
Y174524D01*
X298924Y190524D02*
X306924D01*
X302924Y186524D02*
Y194524D01*
X158924Y165524D02*
X166924D01*
X162924Y161524D02*
Y169524D01*
X158924Y185524D02*
X166924D01*
X162924Y181524D02*
Y189524D01*
X128924Y215524D02*
X136924D01*
X132924Y211524D02*
Y219524D01*
X148924Y215524D02*
X156924D01*
X152924Y211524D02*
Y219524D01*
X128924Y235524D02*
X136924D01*
X132924Y231524D02*
Y239524D01*
X148924Y235524D02*
X156924D01*
X152924Y231524D02*
Y239524D01*
X128924Y255524D02*
X136924D01*
X132924Y251524D02*
Y259524D01*
X148924Y255524D02*
X156924D01*
X152924Y251524D02*
Y259524D01*
X128924Y275524D02*
X136924D01*
X132924Y271524D02*
Y279524D01*
X148924Y275524D02*
X156924D01*
X152924Y271524D02*
Y279524D01*
X128924Y295524D02*
X136924D01*
X132924Y291524D02*
Y299524D01*
X148924Y295524D02*
X156924D01*
X152924Y291524D02*
Y299524D01*
X303924Y265524D02*
X311924D01*
X307924Y261524D02*
Y269524D01*
X303924Y245524D02*
X311924D01*
X307924Y241524D02*
Y249524D01*
X378924Y180524D02*
X386924D01*
X382924Y176524D02*
Y184524D01*
X418924Y180524D02*
X426924D01*
X422924Y176524D02*
Y184524D01*
X378924Y200524D02*
X386924D01*
X382924Y196524D02*
Y204524D01*
X418924Y200524D02*
X426924D01*
X422924Y196524D02*
Y204524D01*
X398924Y255524D02*
X406924D01*
X402924Y251524D02*
Y259524D01*
X398924Y215524D02*
X406924D01*
X402924Y211524D02*
Y219524D01*
X418924Y255524D02*
X426924D01*
X422924Y251524D02*
Y259524D01*
X418924Y215524D02*
X426924D01*
X422924Y211524D02*
Y219524D01*
X357224Y347260D02*
X365224D01*
X361224Y343260D02*
Y351260D01*
X317224Y347260D02*
X325224D01*
X321224Y343260D02*
Y351260D01*
X268924Y340524D02*
X276924D01*
X272924Y336524D02*
Y344524D01*
X228924Y340524D02*
X236924D01*
X232924Y336524D02*
Y344524D01*
X213924Y340524D02*
X221924D01*
X217924Y336524D02*
Y344524D01*
X173924Y340524D02*
X181924D01*
X177924Y336524D02*
Y344524D01*
X293924Y285524D02*
X301924D01*
X297924Y281524D02*
Y289524D01*
X293924Y325524D02*
X301924D01*
X297924Y321524D02*
Y329524D01*
X273924Y265524D02*
X281924D01*
X277924Y261524D02*
Y269524D01*
X273924Y305524D02*
X281924D01*
X277924Y301524D02*
Y309524D01*
X453924Y245524D02*
X461924D01*
X457924Y241524D02*
Y249524D01*
X433924Y245524D02*
X441924D01*
X437924Y241524D02*
Y249524D01*
X453924Y225524D02*
X461924D01*
X457924Y221524D02*
Y229524D01*
X433924Y225524D02*
X441924D01*
X437924Y221524D02*
Y229524D01*
X403924Y270524D02*
X411924D01*
X407924Y266524D02*
Y274524D01*
X423924Y270524D02*
X431924D01*
X427924Y266524D02*
Y274524D01*
X388924Y305524D02*
X396924D01*
X392924Y301524D02*
Y309524D01*
X408924Y305524D02*
X416924D01*
X412924Y301524D02*
Y309524D01*
X373924Y305524D02*
X381924D01*
X377924Y301524D02*
Y309524D01*
X373924Y345524D02*
X381924D01*
X377924Y341524D02*
Y349524D01*
X258924Y225524D02*
X266924D01*
X262924Y221524D02*
Y229524D01*
X298924Y225524D02*
X306924D01*
X302924Y221524D02*
Y229524D01*
X203924Y160524D02*
X211924D01*
X207924Y156524D02*
Y164524D01*
X203924Y120524D02*
X211924D01*
X207924Y116524D02*
Y124524D01*
X173924Y200524D02*
X181924D01*
X177924Y196524D02*
Y204524D01*
X173924Y160524D02*
X181924D01*
X177924Y156524D02*
Y164524D01*
X213924Y190524D02*
X221924D01*
X217924Y186524D02*
Y194524D01*
X193924Y190524D02*
X201924D01*
X197924Y186524D02*
Y194524D01*
X268818Y208883D02*
X276818D01*
X272818Y204883D02*
Y212883D01*
X248818Y208883D02*
X256818D01*
X252818Y204883D02*
Y212883D01*
X205024Y360324D02*
X213024D01*
X209024Y356324D02*
Y364324D01*
X195024Y370324D02*
X203024D01*
X199024Y366324D02*
Y374324D01*
X185024Y360324D02*
X193024D01*
X189024Y356324D02*
Y364324D01*
X377574Y360324D02*
X385574D01*
X381574Y356324D02*
Y364324D01*
X367574Y370324D02*
X375574D01*
X371574Y366324D02*
Y374324D01*
X357574Y360324D02*
X365574D01*
X361574Y356324D02*
Y364324D01*
X262678Y354063D02*
X270678Y362063D01*
X262678D02*
X270678Y354063D01*
X252678D02*
X260678Y362063D01*
X252678D02*
X260678Y354063D01*
X308741Y354075D02*
X316741Y362075D01*
X308741D02*
X316741Y354075D01*
X298741D02*
X306741Y362075D01*
X298741D02*
X306741Y354075D01*
X328946Y141666D02*
X336946Y149666D01*
X328946D02*
X336946Y141666D01*
X319103D02*
X327103Y149666D01*
X319103D02*
X327103Y141666D01*
X309261D02*
X317261Y149666D01*
X309261D02*
X317261Y141666D01*
X299418D02*
X307418Y149666D01*
X299418D02*
X307418Y141666D01*
X289576D02*
X297576Y149666D01*
X289576D02*
X297576Y141666D01*
X279733D02*
X287733Y149666D01*
X279733D02*
X287733Y141666D01*
X269891D02*
X277891Y149666D01*
X269891D02*
X277891Y141666D01*
X260048D02*
X268048Y149666D01*
X260048D02*
X268048Y141666D01*
X250206D02*
X258206Y149666D01*
X250206D02*
X258206Y141666D01*
X240363D02*
X248363Y149666D01*
X240363D02*
X248363Y141666D01*
X230521D02*
X238521Y149666D01*
X230521D02*
X238521Y141666D01*
X332883Y116075D02*
X340883Y124075D01*
X332883D02*
X340883Y116075D01*
X226584D02*
X234584Y124075D01*
X226584D02*
X234584Y116075D01*
X350024Y255324D02*
X358024D01*
X354024Y251324D02*
Y259324D01*
X350024Y245324D02*
X358024D01*
X354024Y241324D02*
Y249324D01*
X320024Y245324D02*
X328024D01*
X324024Y241324D02*
Y249324D01*
X320024Y255324D02*
X328024D01*
X324024Y251324D02*
Y259324D01*
X350024Y225324D02*
X358024D01*
X354024Y221324D02*
Y229324D01*
X350024Y215324D02*
X358024D01*
X354024Y211324D02*
Y219324D01*
X320024Y215324D02*
X328024D01*
X324024Y211324D02*
Y219324D01*
X320024Y225324D02*
X328024D01*
X324024Y221324D02*
Y229324D01*
X365024Y205324D02*
X373024D01*
X369024Y201324D02*
Y209324D01*
X365024Y165324D02*
X373024D01*
X369024Y161324D02*
Y169324D01*
X230024Y285324D02*
X238024D01*
X234024Y281324D02*
Y289324D01*
X230024Y325324D02*
X238024D01*
X234024Y321324D02*
Y329324D01*
X410024Y160324D02*
X418024D01*
X414024Y156324D02*
Y164324D01*
X422622Y160324D02*
X430622D01*
X426622Y156324D02*
Y164324D01*
X416323Y168198D02*
X424323D01*
X420323Y164198D02*
Y172198D01*
X145024Y156324D02*
X153024Y164324D01*
X145024D02*
X153024Y156324D01*
X145024Y196324D02*
X153024Y204324D01*
X145024D02*
X153024Y196324D01*
X240024Y191324D02*
X248024Y199324D01*
X240024D02*
X248024Y191324D01*
X280024D02*
X288024Y199324D01*
X280024D02*
X288024Y191324D01*
X168833Y221528D02*
X176833D01*
X172833Y217528D02*
Y225528D01*
X168833Y241528D02*
X176833D01*
X172833Y237528D02*
Y245528D01*
X173624Y122203D02*
X181624D01*
X177624Y118203D02*
Y126203D01*
X173624Y142203D02*
X181624D01*
X177624Y138203D02*
Y146203D01*
X100000Y472000D02*
X358000D01*
X100000Y448000D02*
X358000D01*
X100000Y424000D02*
X358000D01*
X100000Y400000D02*
X358000D01*
X100000Y472000D02*
Y400000D01*
X184000Y472000D02*
Y400000D01*
X220000Y472000D02*
Y400000D01*
X256000Y472000D02*
Y400000D01*
X310000Y472000D02*
Y400000D01*
X358000Y472000D02*
Y400000D01*
X135500Y460750D02*
X134955Y461500D01*
X134136Y461875*
X133045*
X132227Y461500*
X131682Y460750*
Y460000*
X131955Y459250*
X132227Y458875*
X132773Y458500*
X134409Y457750*
X134955Y457375*
X135227Y457000*
X135500Y456250*
Y455125*
X134955Y454375*
X134136Y454000*
X133045*
X132227Y454375*
X131682Y455125*
X137955Y461875D02*
Y454000D01*
X144227Y461875D02*
X140409Y454000D01*
Y461875D02*
X144227D01*
X140409Y454000D02*
X144227D01*
X146682Y461875D02*
Y454000D01*
Y461875D02*
X150227D01*
X146682Y458125D02*
X148864D01*
X146682Y454000D02*
X150227D01*
X193864Y461875D02*
X193318Y461500D01*
X192773Y460750*
X192500Y460000*
X192227Y458875*
Y457000*
X192500Y455875*
X192773Y455125*
X193318Y454375*
X193864Y454000*
X194955*
X195500Y454375*
X196045Y455125*
X196318Y455875*
X196591Y457000*
Y458875*
X196318Y460000*
X196045Y460750*
X195500Y461500*
X194955Y461875*
X193864*
X194682Y455500D02*
X196318Y453250D01*
X200955Y461875D02*
Y454000D01*
X199045Y461875D02*
X202864D01*
X205318D02*
X207500Y458125D01*
Y454000*
X209682Y461875D02*
X207500Y458125D01*
X232045Y460750D02*
X231500Y461500D01*
X230682Y461875*
X229591*
X228773Y461500*
X228227Y460750*
Y460000*
X228500Y459250*
X228773Y458875*
X229318Y458500*
X230955Y457750*
X231500Y457375*
X231773Y457000*
X232045Y456250*
Y455125*
X231500Y454375*
X230682Y454000*
X229591*
X228773Y454375*
X228227Y455125*
X234500Y461875D02*
X236682Y458125D01*
Y454000*
X238864Y461875D02*
X236682Y458125D01*
X241318Y461875D02*
Y454000D01*
Y461875D02*
X243500Y454000D01*
X245682Y461875D02*
X243500Y454000D01*
X245682Y461875D02*
Y454000D01*
X267500Y461875D02*
Y454000D01*
Y461875D02*
X269955D01*
X270773Y461500*
X271045Y461125*
X271318Y460375*
Y459250*
X271045Y458500*
X270773Y458125*
X269955Y457750*
X267500*
X273773Y461875D02*
Y454000D01*
X277045*
X281682Y461875D02*
X279500Y454000D01*
X281682Y461875D02*
X283864Y454000D01*
X280318Y456625D02*
X283045D01*
X288227Y461875D02*
Y454000D01*
X286318Y461875D02*
X290136D01*
X292591D02*
Y454000D01*
Y461875D02*
X296136D01*
X292591Y458125D02*
X294773D01*
X292591Y454000D02*
X296136D01*
X298591Y461875D02*
Y454000D01*
Y461875D02*
X300500D01*
X301318Y461500*
X301864Y460750*
X302136Y460000*
X302409Y458875*
Y457000*
X302136Y455875*
X301864Y455125*
X301318Y454375*
X300500Y454000*
X298591*
X326682Y461875D02*
Y454000D01*
X324773Y461875D02*
X328591D01*
X332682D02*
X332136Y461500D01*
X331591Y460750*
X331318Y460000*
X331045Y458875*
Y457000*
X331318Y455875*
X331591Y455125*
X332136Y454375*
X332682Y454000*
X333773*
X334318Y454375*
X334864Y455125*
X335136Y455875*
X335409Y457000*
Y458875*
X335136Y460000*
X334864Y460750*
X334318Y461500*
X333773Y461875*
X332682*
X337864D02*
Y454000D01*
X341136*
X106545Y437875D02*
X109545D01*
X107909Y434875*
X108727*
X109273Y434500*
X109545Y434125*
X109818Y433000*
Y432250*
X109545Y431125*
X109000Y430375*
X108182Y430000*
X107364*
X106545Y430375*
X106273Y430750*
X106000Y431500*
X115818Y437875D02*
X113091D01*
X112818Y434500*
X113091Y434875*
X113909Y435250*
X114727*
X115545Y434875*
X116091Y434125*
X116364Y433000*
X116091Y432250*
X115818Y431125*
X115273Y430375*
X114455Y430000*
X113636*
X112818Y430375*
X112545Y430750*
X112273Y431500*
X195091Y436375D02*
X195636Y436750D01*
X196455Y437875*
Y430000*
X198909Y436375D02*
X199455Y436750D01*
X200273Y437875*
Y430000*
X205455Y437875D02*
X202727Y432625D01*
X206818*
X205455Y437875D02*
Y430000D01*
X232000Y436000D02*
X244000D01*
X238000Y430000D02*
Y442000D01*
X264636Y437875D02*
X266818Y434125D01*
Y430000*
X269000Y437875D02*
X266818Y434125D01*
X271455Y437875D02*
Y430000D01*
Y437875D02*
X275000D01*
X271455Y434125D02*
X273636D01*
X271455Y430000D02*
X275000D01*
X281273Y436750D02*
X280727Y437500D01*
X279909Y437875*
X278818*
X278000Y437500*
X277455Y436750*
Y436000*
X277727Y435250*
X278000Y434875*
X278545Y434500*
X280182Y433750*
X280727Y433375*
X281000Y433000*
X281273Y432250*
Y431125*
X280727Y430375*
X279909Y430000*
X278818*
X278000Y430375*
X277455Y431125*
X317818Y436750D02*
Y430000D01*
X315364Y433375D02*
X320273D01*
X327636Y439375D02*
X322727Y427375D01*
X330091Y433375D02*
X335000D01*
X339091Y437875D02*
X338273Y437500D01*
X337727Y436375*
X337455Y434500*
Y433375*
X337727Y431500*
X338273Y430375*
X339091Y430000*
X339636*
X340455Y430375*
X341000Y431500*
X341273Y433375*
Y434500*
X341000Y436375*
X340455Y437500*
X339636Y437875*
X339091*
X344000Y430750D02*
X343727Y430375D01*
X344000Y430000*
X344273Y430375*
X344000Y430750*
X348364Y437875D02*
X347545Y437500D01*
X347000Y436375*
X346727Y434500*
Y433375*
X347000Y431500*
X347545Y430375*
X348364Y430000*
X348909*
X349727Y430375*
X350273Y431500*
X350545Y433375*
Y434500*
X350273Y436375*
X349727Y437500*
X348909Y437875*
X348364*
X106545Y413875D02*
X109545D01*
X107909Y410875*
X108727*
X109273Y410500*
X109545Y410125*
X109818Y409000*
Y408250*
X109545Y407125*
X109000Y406375*
X108182Y406000*
X107364*
X106545Y406375*
X106273Y406750*
X106000Y407500*
X115818Y411250D02*
X115545Y410125D01*
X115000Y409375*
X114182Y409000*
X113909*
X113091Y409375*
X112545Y410125*
X112273Y411250*
Y411625*
X112545Y412750*
X113091Y413500*
X113909Y413875*
X114182*
X115000Y413500*
X115545Y412750*
X115818Y411250*
Y409375*
X115545Y407500*
X115000Y406375*
X114182Y406000*
X113636*
X112818Y406375*
X112545Y407125*
X118545Y406750D02*
X118273Y406375D01*
X118545Y406000*
X118818Y406375*
X118545Y406750*
X121818Y413875D02*
X124818D01*
X123182Y410875*
X124000*
X124545Y410500*
X124818Y410125*
X125091Y409000*
Y408250*
X124818Y407125*
X124273Y406375*
X123455Y406000*
X122636*
X121818Y406375*
X121545Y406750*
X121273Y407500*
X131364Y413875D02*
X128636Y406000D01*
X127545Y413875D02*
X131364D01*
X197409Y412000D02*
Y412375D01*
X197682Y413125*
X197955Y413500*
X198500Y413875*
X199591*
X200136Y413500*
X200409Y413125*
X200682Y412375*
Y411625*
X200409Y410875*
X199864Y409750*
X197136Y406000*
X200955*
X203409Y412375D02*
X203955Y412750D01*
X204773Y413875*
Y406000*
X232000D02*
X244000Y418000D01*
X232000D02*
X244000Y406000D01*
X264636Y413875D02*
X266818Y410125D01*
Y406000*
X269000Y413875D02*
X266818Y410125D01*
X271455Y413875D02*
Y406000D01*
Y413875D02*
X275000D01*
X271455Y410125D02*
X273636D01*
X271455Y406000D02*
X275000D01*
X281273Y412750D02*
X280727Y413500D01*
X279909Y413875*
X278818*
X278000Y413500*
X277455Y412750*
Y412000*
X277727Y411250*
X278000Y410875*
X278545Y410500*
X280182Y409750*
X280727Y409375*
X281000Y409000*
X281273Y408250*
Y407125*
X280727Y406375*
X279909Y406000*
X278818*
X278000Y406375*
X277455Y407125*
X317818Y412750D02*
Y406000D01*
X315364Y409375D02*
X320273D01*
X327636Y415375D02*
X322727Y403375D01*
X330091Y409375D02*
X335000D01*
X339091Y413875D02*
X338273Y413500D01*
X337727Y412375*
X337455Y410500*
Y409375*
X337727Y407500*
X338273Y406375*
X339091Y406000*
X339636*
X340455Y406375*
X341000Y407500*
X341273Y409375*
Y410500*
X341000Y412375*
X340455Y413500*
X339636Y413875*
X339091*
X344000Y406750D02*
X343727Y406375D01*
X344000Y406000*
X344273Y406375*
X344000Y406750*
X348364Y413875D02*
X347545Y413500D01*
X347000Y412375*
X346727Y410500*
Y409375*
X347000Y407500*
X347545Y406375*
X348364Y406000*
X348909*
X349727Y406375*
X350273Y407500*
X350545Y409375*
Y410500*
X350273Y412375*
X349727Y413500*
X348909Y413875*
X348364*
G54D21*
X470079Y100000D02*
Y381102D01*
X450394*
Y375197*
X121654*
X100000Y381102D02*
Y100000D01*
X121654Y375197D02*
Y381102D01*
X100000*
Y100000D02*
X470079D01*
X0Y0D02*
M02*
