%
T1C.035F197S55
X017762Y01222
X017762Y01422
X017792Y016052
X016292Y016552
X016292Y018552
X017792Y020052
X013292Y021552
X015292Y021552
X017283Y022153
X015292Y023552
X013292Y023552
X017283Y024153
X015292Y025552
X013292Y025552
X013292Y027552
X015292Y027552
X015292Y029552
X013292Y029552
X017792Y034052
X019902Y037032
X018902Y036032
X019292Y029552
X019292Y028552
X019292Y027552
X019292Y026552
X019292Y025552
X019292Y024552
X019292Y023552
X019292Y022552
X019292Y021552
X019292Y020552
X019792Y019052
X020792Y012052
X020792Y016052
X021792Y019052
X022292Y020552
X022292Y021552
X022292Y022552
X022292Y023552
X022292Y024552
X022292Y025552
X022292Y026552
X022292Y027552
X022292Y028552
X022292Y029552
X021792Y034052
X020902Y036032
X023292Y034052
X027292Y034052
X023402Y032532
X027792Y030552
X023402Y028532
X027792Y026552
X026292Y022552
X025282Y020888
X027282Y020888
X026292Y018052
X026292Y017052
X026292Y016052
X028292Y016052
X030292Y017052
X028292Y017052
X028292Y018052
X030292Y019052
X032402Y021532
X032402Y022532
X030292Y022552
X032402Y024532
X030792Y024552
X032402Y025532
X030792Y026552
X029792Y028552
X029792Y032552
X032122Y034726
X037157Y037032
X038157Y036032
X036157Y036032
X036122Y034726
X037792Y034552
X037792Y030552
X035402Y025532
X035402Y024532
X035402Y022532
X035402Y021532
X036902Y020532
X035292Y017552
X034292Y017552
X033292Y017552
X036902Y016532
X035292Y014552
X036292Y014552
X037292Y014552
X035292Y013052
X036292Y013052
X037292Y013052
X041402Y016032
X042662Y016032
X042032Y01682
X038292Y018052
X042292Y018052
X038292Y020052
X042292Y020052
X040292Y021552
X042292Y021552
X040292Y025552
X042292Y025552
X042792Y027052
X040792Y027052
X039292Y030552
X041292Y030552
X043792Y024552
X045792Y024552
X043792Y022552
X045792Y022552
T2C.03937F197S55
X023058Y012008
X014902Y016032
X014902Y020032
X025668Y035806
X026668Y035806
X024402Y019532
X025421Y014567
X023452Y014567
X027389Y014567
X026405Y014567
X024436Y014567
X028373Y014567
X029358Y014567
X030342Y014567
X031326Y014567
X03231Y014567
X028402Y019532
X030274Y035808
X031274Y035808
X033295Y014567
X033688Y012008
M30
