  0
SECTION
  2
HEADER
  9
$EXTMIN
 10
0.588805
 20
1.224000
  9
$EXTMAX
 10
98.908800
 20
157.693995
  0
ENDSEC
  0
SECTION
  2
ENTITIES
  0
POLYLINE
  8
0
  66
1
  70
1
  0
VERTEX
  8
0
 10
92.798800
 20
156.294000
 42
1.000000
  0
VERTEX
  8
0
 10
95.598800
 20
156.294000
 42
1.000000
  0
SEQEND
  8
0
  0
POLYLINE
  8
0
  66
1
  70
1
  0
VERTEX
  8
0
 10
92.798800
 20
2.624000
 42
1.000000
  0
VERTEX
  8
0
 10
95.598800
 20
2.624000
 42
1.000000
  0
SEQEND
  8
0
  0
POLYLINE
  8
0
  66
1
  70
1
  0
VERTEX
  8
0
 10
3.898800
 20
156.294000
 42
1.000000
  0
VERTEX
  8
0
 10
6.698800
 20
156.294000
 42
1.000000
  0
SEQEND
  8
0
  0
POLYLINE
  8
0
  66
1
  70
1
  0
VERTEX
  8
0
 10
3.898800
 20
2.624000
 42
1.000000
  0
VERTEX
  8
0
 10
6.698800
 20
2.624000
 42
1.000000
  0
SEQEND
  8
0
  0
POLYLINE
  8
0
  66
1
  70
1
  0
VERTEX
  8
0
 10
97.108800
 20
6.434000
 42
1.000000
  0
VERTEX
  8
0
 10
98.908800
 20
6.434000
 42
1.000000
  0
SEQEND
  8
0
  0
POLYLINE
  8
0
  66
1
  70
1
  0
VERTEX
  8
0
 10
0.588800
 20
6.434000
 42
1.000000
  0
VERTEX
  8
0
 10
2.388800
 20
6.434000
 42
1.000000
  0
SEQEND
  8
0
  0
POLYLINE
  8
0
  66
1
  70
1
  0
VERTEX
  8
0
 10
90.933800
 20
144.864000
 42
1.000000
  0
VERTEX
  8
0
 10
92.383800
 20
144.864000
 42
1.000000
  0
SEQEND
  8
0
  0
POLYLINE
  8
0
  66
1
  70
1
  0
VERTEX
  8
0
 10
90.933800
 20
134.704000
 42
1.000000
  0
VERTEX
  8
0
 10
92.383800
 20
134.704000
 42
1.000000
  0
SEQEND
  8
0
  0
POLYLINE
  8
0
  66
1
  70
1
  0
VERTEX
  8
0
 10
90.933800
 20
99.144000
 42
1.000000
  0
VERTEX
  8
0
 10
92.383800
 20
99.144000
 42
1.000000
  0
SEQEND
  8
0
  0
POLYLINE
  8
0
  66
1
  70
1
  0
VERTEX
  8
0
 10
82.043800
 20
99.144000
 42
1.000000
  0
VERTEX
  8
0
 10
83.493800
 20
99.144000
 42
1.000000
  0
SEQEND
  8
0
  0
POLYLINE
  8
0
  66
1
  70
1
  0
VERTEX
  8
0
 10
82.043800
 20
144.864000
 42
1.000000
  0
VERTEX
  8
0
 10
83.493800
 20
144.864000
 42
1.000000
  0
SEQEND
  8
0
  0
POLYLINE
  8
0
  66
1
  70
1
  0
VERTEX
  8
0
 10
82.043800
 20
134.704000
 42
1.000000
  0
VERTEX
  8
0
 10
83.493800
 20
134.704000
 42
1.000000
  0
SEQEND
  8
0
  0
POLYLINE
  8
0
  66
1
  70
1
  0
VERTEX
  8
0
 10
73.153800
 20
118.194000
 42
1.000000
  0
VERTEX
  8
0
 10
74.603800
 20
118.194000
 42
1.000000
  0
SEQEND
  8
0
  0
POLYLINE
  8
0
  66
1
  70
1
  0
VERTEX
  8
0
 10
73.153800
 20
153.754000
 42
1.000000
  0
VERTEX
  8
0
 10
74.603800
 20
153.754000
 42
1.000000
  0
SEQEND
  8
0
  0
POLYLINE
  8
0
  66
1
  70
1
  0
VERTEX
  8
0
 10
65.533800
 20
81.364000
 42
1.000000
  0
VERTEX
  8
0
 10
66.983800
 20
81.364000
 42
1.000000
  0
SEQEND
  8
0
  0
POLYLINE
  8
0
  66
1
  70
1
  0
VERTEX
  8
0
 10
65.533800
 20
109.304000
 42
1.000000
  0
VERTEX
  8
0
 10
66.983800
 20
109.304000
 42
1.000000
  0
SEQEND
  8
0
  0
POLYLINE
  8
0
  66
1
  70
1
  0
VERTEX
  8
0
 10
64.263800
 20
153.754000
 42
1.000000
  0
VERTEX
  8
0
 10
65.713800
 20
153.754000
 42
1.000000
  0
SEQEND
  8
0
  0
POLYLINE
  8
0
  66
1
  70
1
  0
VERTEX
  8
0
 10
64.263800
 20
118.194000
 42
1.000000
  0
VERTEX
  8
0
 10
65.713800
 20
118.194000
 42
1.000000
  0
SEQEND
  8
0
  0
POLYLINE
  8
0
  66
1
  70
1
  0
VERTEX
  8
0
 10
54.103800
 20
109.304000
 42
1.000000
  0
VERTEX
  8
0
 10
55.553800
 20
109.304000
 42
1.000000
  0
SEQEND
  8
0
  0
POLYLINE
  8
0
  66
1
  70
1
  0
VERTEX
  8
0
 10
54.103800
 20
81.364000
 42
1.000000
  0
VERTEX
  8
0
 10
55.553800
 20
81.364000
 42
1.000000
  0
SEQEND
  8
0
  0
POLYLINE
  8
0
  66
1
  70
1
  0
VERTEX
  8
0
 10
42.673800
 20
109.304000
 42
1.000000
  0
VERTEX
  8
0
 10
44.123800
 20
109.304000
 42
1.000000
  0
SEQEND
  8
0
  0
POLYLINE
  8
0
  66
1
  70
1
  0
VERTEX
  8
0
 10
42.673800
 20
81.364000
 42
1.000000
  0
VERTEX
  8
0
 10
44.123800
 20
81.364000
 42
1.000000
  0
SEQEND
  8
0
  0
POLYLINE
  8
0
  66
1
  70
1
  0
VERTEX
  8
0
 10
31.243800
 20
81.364000
 42
1.000000
  0
VERTEX
  8
0
 10
32.693800
 20
81.364000
 42
1.000000
  0
SEQEND
  8
0
  0
POLYLINE
  8
0
  66
1
  70
1
  0
VERTEX
  8
0
 10
31.243800
 20
109.304000
 42
1.000000
  0
VERTEX
  8
0
 10
32.693800
 20
109.304000
 42
1.000000
  0
SEQEND
  8
0
  0
POLYLINE
  8
0
  66
1
  70
1
  0
VERTEX
  8
0
 10
19.813800
 20
81.364000
 42
1.000000
  0
VERTEX
  8
0
 10
21.263800
 20
81.364000
 42
1.000000
  0
SEQEND
  8
0
  0
POLYLINE
  8
0
  66
1
  70
1
  0
VERTEX
  8
0
 10
19.813800
 20
109.304000
 42
1.000000
  0
VERTEX
  8
0
 10
21.263800
 20
109.304000
 42
1.000000
  0
SEQEND
  8
0
  0
POLYLINE
  8
0
  66
1
  70
1
  0
VERTEX
  8
0
 10
8.383800
 20
81.364000
 42
1.000000
  0
VERTEX
  8
0
 10
9.833800
 20
81.364000
 42
1.000000
  0
SEQEND
  8
0
  0
POLYLINE
  8
0
  66
1
  70
1
  0
VERTEX
  8
0
 10
8.383800
 20
109.304000
 42
1.000000
  0
VERTEX
  8
0
 10
9.833800
 20
109.304000
 42
1.000000
  0
SEQEND
  8
0
  0
POLYLINE
  8
0
  66
1
  70
1
  0
VERTEX
  8
0
 10
85.903800
 20
71.204000
 42
1.000000
  0
VERTEX
  8
0
 10
87.253800
 20
71.204000
 42
1.000000
  0
SEQEND
  8
0
  0
POLYLINE
  8
0
  66
1
  70
1
  0
VERTEX
  8
0
 10
85.903800
 20
58.504000
 42
1.000000
  0
VERTEX
  8
0
 10
87.253800
 20
58.504000
 42
1.000000
  0
SEQEND
  8
0
  0
POLYLINE
  8
0
  66
1
  70
1
  0
VERTEX
  8
0
 10
80.823800
 20
71.204000
 42
1.000000
  0
VERTEX
  8
0
 10
82.173800
 20
71.204000
 42
1.000000
  0
SEQEND
  8
0
  0
POLYLINE
  8
0
  66
1
  70
1
  0
VERTEX
  8
0
 10
80.823800
 20
58.504000
 42
1.000000
  0
VERTEX
  8
0
 10
82.173800
 20
58.504000
 42
1.000000
  0
SEQEND
  8
0
  0
POLYLINE
  8
0
  66
1
  70
1
  0
VERTEX
  8
0
 10
86.028800
 20
10.244000
 42
1.000000
  0
VERTEX
  8
0
 10
87.128800
 20
10.244000
 42
1.000000
  0
SEQEND
  8
0
  0
POLYLINE
  8
0
  66
1
  70
1
  0
VERTEX
  8
0
 10
86.028800
 20
52.154000
 42
1.000000
  0
VERTEX
  8
0
 10
87.128800
 20
52.154000
 42
1.000000
  0
SEQEND
  8
0
  0
POLYLINE
  8
0
  66
1
  70
1
  0
VERTEX
  8
0
 10
86.028800
 20
5.164000
 42
1.000000
  0
VERTEX
  8
0
 10
87.128800
 20
5.164000
 42
1.000000
  0
SEQEND
  8
0
  0
POLYLINE
  8
0
  66
1
  70
1
  0
VERTEX
  8
0
 10
86.028800
 20
24.214000
 42
1.000000
  0
VERTEX
  8
0
 10
87.128800
 20
24.214000
 42
1.000000
  0
SEQEND
  8
0
  0
POLYLINE
  8
0
  66
1
  70
1
  0
VERTEX
  8
0
 10
84.758800
 20
76.284000
 42
1.000000
  0
VERTEX
  8
0
 10
85.858800
 20
76.284000
 42
1.000000
  0
SEQEND
  8
0
  0
POLYLINE
  8
0
  66
1
  70
1
  0
VERTEX
  8
0
 10
84.758800
 20
88.984000
 42
1.000000
  0
VERTEX
  8
0
 10
85.858800
 20
88.984000
 42
1.000000
  0
SEQEND
  8
0
  0
POLYLINE
  8
0
  66
1
  70
1
  0
VERTEX
  8
0
 10
82.218800
 20
88.984000
 42
1.000000
  0
VERTEX
  8
0
 10
83.318800
 20
88.984000
 42
1.000000
  0
SEQEND
  8
0
  0
POLYLINE
  8
0
  66
1
  70
1
  0
VERTEX
  8
0
 10
82.218800
 20
76.284000
 42
1.000000
  0
VERTEX
  8
0
 10
83.318800
 20
76.284000
 42
1.000000
  0
SEQEND
  8
0
  0
POLYLINE
  8
0
  66
1
  70
1
  0
VERTEX
  8
0
 10
80.948800
 20
5.164000
 42
1.000000
  0
VERTEX
  8
0
 10
82.048800
 20
5.164000
 42
1.000000
  0
SEQEND
  8
0
  0
POLYLINE
  8
0
  66
1
  70
1
  0
VERTEX
  8
0
 10
80.948800
 20
10.244000
 42
1.000000
  0
VERTEX
  8
0
 10
82.048800
 20
10.244000
 42
1.000000
  0
SEQEND
  8
0
  0
POLYLINE
  8
0
  66
1
  70
1
  0
VERTEX
  8
0
 10
80.948800
 20
24.214000
 42
1.000000
  0
VERTEX
  8
0
 10
82.048800
 20
24.214000
 42
1.000000
  0
SEQEND
  8
0
  0
POLYLINE
  8
0
  66
1
  70
1
  0
VERTEX
  8
0
 10
80.948800
 20
36.914000
 42
1.000000
  0
VERTEX
  8
0
 10
82.048800
 20
36.914000
 42
1.000000
  0
SEQEND
  8
0
  0
POLYLINE
  8
0
  66
1
  70
1
  0
VERTEX
  8
0
 10
79.678800
 20
41.994000
 42
1.000000
  0
VERTEX
  8
0
 10
80.778800
 20
41.994000
 42
1.000000
  0
SEQEND
  8
0
  0
POLYLINE
  8
0
  66
1
  70
1
  0
VERTEX
  8
0
 10
79.678800
 20
52.154000
 42
1.000000
  0
VERTEX
  8
0
 10
80.778800
 20
52.154000
 42
1.000000
  0
SEQEND
  8
0
  0
POLYLINE
  8
0
  66
1
  70
1
  0
VERTEX
  8
0
 10
79.678800
 20
44.534000
 42
1.000000
  0
VERTEX
  8
0
 10
80.778800
 20
44.534000
 42
1.000000
  0
SEQEND
  8
0
  0
POLYLINE
  8
0
  66
1
  70
1
  0
VERTEX
  8
0
 10
78.408800
 20
36.914000
 42
1.000000
  0
VERTEX
  8
0
 10
79.508800
 20
36.914000
 42
1.000000
  0
SEQEND
  8
0
  0
POLYLINE
  8
0
  66
1
  70
1
  0
VERTEX
  8
0
 10
78.408800
 20
24.214000
 42
1.000000
  0
VERTEX
  8
0
 10
79.508800
 20
24.214000
 42
1.000000
  0
SEQEND
  8
0
  0
POLYLINE
  8
0
  66
1
  70
1
  0
VERTEX
  8
0
 10
75.868800
 20
88.984000
 42
1.000000
  0
VERTEX
  8
0
 10
76.968800
 20
88.984000
 42
1.000000
  0
SEQEND
  8
0
  0
POLYLINE
  8
0
  66
1
  70
1
  0
VERTEX
  8
0
 10
75.868800
 20
58.504000
 42
1.000000
  0
VERTEX
  8
0
 10
76.968800
 20
58.504000
 42
1.000000
  0
SEQEND
  8
0
  0
POLYLINE
  8
0
  66
1
  70
1
  0
VERTEX
  8
0
 10
75.868800
 20
10.244000
 42
1.000000
  0
VERTEX
  8
0
 10
76.968800
 20
10.244000
 42
1.000000
  0
SEQEND
  8
0
  0
POLYLINE
  8
0
  66
1
  70
1
  0
VERTEX
  8
0
 10
75.868800
 20
5.164000
 42
1.000000
  0
VERTEX
  8
0
 10
76.968800
 20
5.164000
 42
1.000000
  0
SEQEND
  8
0
  0
POLYLINE
  8
0
  66
1
  70
1
  0
VERTEX
  8
0
 10
75.868800
 20
71.204000
 42
1.000000
  0
VERTEX
  8
0
 10
76.968800
 20
71.204000
 42
1.000000
  0
SEQEND
  8
0
  0
POLYLINE
  8
0
  66
1
  70
1
  0
VERTEX
  8
0
 10
75.868800
 20
76.284000
 42
1.000000
  0
VERTEX
  8
0
 10
76.968800
 20
76.284000
 42
1.000000
  0
SEQEND
  8
0
  0
POLYLINE
  8
0
  66
1
  70
1
  0
VERTEX
  8
0
 10
73.328800
 20
24.214000
 42
1.000000
  0
VERTEX
  8
0
 10
74.428800
 20
24.214000
 42
1.000000
  0
SEQEND
  8
0
  0
POLYLINE
  8
0
  66
1
  70
1
  0
VERTEX
  8
0
 10
73.328800
 20
115.654000
 42
1.000000
  0
VERTEX
  8
0
 10
74.428800
 20
115.654000
 42
1.000000
  0
SEQEND
  8
0
  0
POLYLINE
  8
0
  66
1
  70
1
  0
VERTEX
  8
0
 10
73.328800
 20
76.284000
 42
1.000000
  0
VERTEX
  8
0
 10
74.428800
 20
76.284000
 42
1.000000
  0
SEQEND
  8
0
  0
POLYLINE
  8
0
  66
1
  70
1
  0
VERTEX
  8
0
 10
73.328800
 20
102.954000
 42
1.000000
  0
VERTEX
  8
0
 10
74.428800
 20
102.954000
 42
1.000000
  0
SEQEND
  8
0
  0
POLYLINE
  8
0
  66
1
  70
1
  0
VERTEX
  8
0
 10
73.328800
 20
52.154000
 42
1.000000
  0
VERTEX
  8
0
 10
74.428800
 20
52.154000
 42
1.000000
  0
SEQEND
  8
0
  0
POLYLINE
  8
0
  66
1
  70
1
  0
VERTEX
  8
0
 10
73.328800
 20
88.984000
 42
1.000000
  0
VERTEX
  8
0
 10
74.428800
 20
88.984000
 42
1.000000
  0
SEQEND
  8
0
  0
POLYLINE
  8
0
  66
1
  70
1
  0
VERTEX
  8
0
 10
70.788800
 20
10.244000
 42
1.000000
  0
VERTEX
  8
0
 10
71.888800
 20
10.244000
 42
1.000000
  0
SEQEND
  8
0
  0
POLYLINE
  8
0
  66
1
  70
1
  0
VERTEX
  8
0
 10
70.788800
 20
58.504000
 42
1.000000
  0
VERTEX
  8
0
 10
71.888800
 20
58.504000
 42
1.000000
  0
SEQEND
  8
0
  0
POLYLINE
  8
0
  66
1
  70
1
  0
VERTEX
  8
0
 10
70.788800
 20
71.204000
 42
1.000000
  0
VERTEX
  8
0
 10
71.888800
 20
71.204000
 42
1.000000
  0
SEQEND
  8
0
  0
POLYLINE
  8
0
  66
1
  70
1
  0
VERTEX
  8
0
 10
70.788800
 20
5.164000
 42
1.000000
  0
VERTEX
  8
0
 10
71.888800
 20
5.164000
 42
1.000000
  0
SEQEND
  8
0
  0
POLYLINE
  8
0
  66
1
  70
1
  0
VERTEX
  8
0
 10
66.978800
 20
24.214000
 42
1.000000
  0
VERTEX
  8
0
 10
68.078800
 20
24.214000
 42
1.000000
  0
SEQEND
  8
0
  0
POLYLINE
  8
0
  66
1
  70
1
  0
VERTEX
  8
0
 10
66.978800
 20
52.154000
 42
1.000000
  0
VERTEX
  8
0
 10
68.078800
 20
52.154000
 42
1.000000
  0
SEQEND
  8
0
  0
POLYLINE
  8
0
  66
1
  70
1
  0
VERTEX
  8
0
 10
66.978800
 20
41.994000
 42
1.000000
  0
VERTEX
  8
0
 10
68.078800
 20
41.994000
 42
1.000000
  0
SEQEND
  8
0
  0
POLYLINE
  8
0
  66
1
  70
1
  0
VERTEX
  8
0
 10
66.978800
 20
36.914000
 42
1.000000
  0
VERTEX
  8
0
 10
68.078800
 20
36.914000
 42
1.000000
  0
SEQEND
  8
0
  0
POLYLINE
  8
0
  66
1
  70
1
  0
VERTEX
  8
0
 10
66.978800
 20
44.534000
 42
1.000000
  0
VERTEX
  8
0
 10
68.078800
 20
44.534000
 42
1.000000
  0
SEQEND
  8
0
  0
POLYLINE
  8
0
  66
1
  70
1
  0
VERTEX
  8
0
 10
65.708800
 20
5.164000
 42
1.000000
  0
VERTEX
  8
0
 10
66.808800
 20
5.164000
 42
1.000000
  0
SEQEND
  8
0
  0
POLYLINE
  8
0
  66
1
  70
1
  0
VERTEX
  8
0
 10
65.708800
 20
10.244000
 42
1.000000
  0
VERTEX
  8
0
 10
66.808800
 20
10.244000
 42
1.000000
  0
SEQEND
  8
0
  0
POLYLINE
  8
0
  66
1
  70
1
  0
VERTEX
  8
0
 10
64.438800
 20
102.954000
 42
1.000000
  0
VERTEX
  8
0
 10
65.538800
 20
102.954000
 42
1.000000
  0
SEQEND
  8
0
  0
POLYLINE
  8
0
  66
1
  70
1
  0
VERTEX
  8
0
 10
64.438800
 20
115.654000
 42
1.000000
  0
VERTEX
  8
0
 10
65.538800
 20
115.654000
 42
1.000000
  0
SEQEND
  8
0
  0
POLYLINE
  8
0
  66
1
  70
1
  0
VERTEX
  8
0
 10
64.438800
 20
24.214000
 42
1.000000
  0
VERTEX
  8
0
 10
65.538800
 20
24.214000
 42
1.000000
  0
SEQEND
  8
0
  0
POLYLINE
  8
0
  66
1
  70
1
  0
VERTEX
  8
0
 10
64.438800
 20
36.914000
 42
1.000000
  0
VERTEX
  8
0
 10
65.538800
 20
36.914000
 42
1.000000
  0
SEQEND
  8
0
  0
POLYLINE
  8
0
  66
1
  70
1
  0
VERTEX
  8
0
 10
60.628800
 20
68.664000
 42
1.000000
  0
VERTEX
  8
0
 10
61.728800
 20
68.664000
 42
1.000000
  0
SEQEND
  8
0
  0
POLYLINE
  8
0
  66
1
  70
1
  0
VERTEX
  8
0
 10
60.628800
 20
53.424000
 42
1.000000
  0
VERTEX
  8
0
 10
61.728800
 20
53.424000
 42
1.000000
  0
SEQEND
  8
0
  0
POLYLINE
  8
0
  66
1
  70
1
  0
VERTEX
  8
0
 10
60.628800
 20
45.804000
 42
1.000000
  0
VERTEX
  8
0
 10
61.728800
 20
45.804000
 42
1.000000
  0
SEQEND
  8
0
  0
POLYLINE
  8
0
  66
1
  70
1
  0
VERTEX
  8
0
 10
60.628800
 20
43.264000
 42
1.000000
  0
VERTEX
  8
0
 10
61.728800
 20
43.264000
 42
1.000000
  0
SEQEND
  8
0
  0
POLYLINE
  8
0
  66
1
  70
1
  0
VERTEX
  8
0
 10
60.628800
 20
38.184000
 42
1.000000
  0
VERTEX
  8
0
 10
61.728800
 20
38.184000
 42
1.000000
  0
SEQEND
  8
0
  0
POLYLINE
  8
0
  66
1
  70
1
  0
VERTEX
  8
0
 10
60.628800
 20
28.024000
 42
1.000000
  0
VERTEX
  8
0
 10
61.728800
 20
28.024000
 42
1.000000
  0
SEQEND
  8
0
  0
POLYLINE
  8
0
  66
1
  70
1
  0
VERTEX
  8
0
 10
60.628800
 20
24.214000
 42
1.000000
  0
VERTEX
  8
0
 10
61.728800
 20
24.214000
 42
1.000000
  0
SEQEND
  8
0
  0
POLYLINE
  8
0
  66
1
  70
1
  0
VERTEX
  8
0
 10
60.628800
 20
14.054000
 42
1.000000
  0
VERTEX
  8
0
 10
61.728800
 20
14.054000
 42
1.000000
  0
SEQEND
  8
0
  0
POLYLINE
  8
0
  66
1
  70
1
  0
VERTEX
  8
0
 10
60.628800
 20
10.244000
 42
1.000000
  0
VERTEX
  8
0
 10
61.728800
 20
10.244000
 42
1.000000
  0
SEQEND
  8
0
  0
POLYLINE
  8
0
  66
1
  70
1
  0
VERTEX
  8
0
 10
60.628800
 20
5.164000
 42
1.000000
  0
VERTEX
  8
0
 10
61.728800
 20
5.164000
 42
1.000000
  0
SEQEND
  8
0
  0
POLYLINE
  8
0
  66
1
  70
1
  0
VERTEX
  8
0
 10
60.628800
 20
76.284000
 42
1.000000
  0
VERTEX
  8
0
 10
61.728800
 20
76.284000
 42
1.000000
  0
SEQEND
  8
0
  0
POLYLINE
  8
0
  66
1
  70
1
  0
VERTEX
  8
0
 10
60.628800
 20
73.744000
 42
1.000000
  0
VERTEX
  8
0
 10
61.728800
 20
73.744000
 42
1.000000
  0
SEQEND
  8
0
  0
POLYLINE
  8
0
  66
1
  70
1
  0
VERTEX
  8
0
 10
60.628800
 20
71.204000
 42
1.000000
  0
VERTEX
  8
0
 10
61.728800
 20
71.204000
 42
1.000000
  0
SEQEND
  8
0
  0
POLYLINE
  8
0
  66
1
  70
1
  0
VERTEX
  8
0
 10
58.088800
 20
133.434000
 42
1.000000
  0
VERTEX
  8
0
 10
59.188800
 20
133.434000
 42
1.000000
  0
SEQEND
  8
0
  0
POLYLINE
  8
0
  66
1
  70
1
  0
VERTEX
  8
0
 10
58.088800
 20
137.244000
 42
1.000000
  0
VERTEX
  8
0
 10
59.188800
 20
137.244000
 42
1.000000
  0
SEQEND
  8
0
  0
POLYLINE
  8
0
  66
1
  70
1
  0
VERTEX
  8
0
 10
58.088800
 20
149.944000
 42
1.000000
  0
VERTEX
  8
0
 10
59.188800
 20
149.944000
 42
1.000000
  0
SEQEND
  8
0
  0
POLYLINE
  8
0
  66
1
  70
1
  0
VERTEX
  8
0
 10
58.088800
 20
120.734000
 42
1.000000
  0
VERTEX
  8
0
 10
59.188800
 20
120.734000
 42
1.000000
  0
SEQEND
  8
0
  0
POLYLINE
  8
0
  66
1
  70
1
  0
VERTEX
  8
0
 10
56.818800
 20
24.214000
 42
1.000000
  0
VERTEX
  8
0
 10
57.918800
 20
24.214000
 42
1.000000
  0
SEQEND
  8
0
  0
POLYLINE
  8
0
  66
1
  70
1
  0
VERTEX
  8
0
 10
56.818800
 20
14.054000
 42
1.000000
  0
VERTEX
  8
0
 10
57.918800
 20
14.054000
 42
1.000000
  0
SEQEND
  8
0
  0
POLYLINE
  8
0
  66
1
  70
1
  0
VERTEX
  8
0
 10
56.818800
 20
28.024000
 42
1.000000
  0
VERTEX
  8
0
 10
57.918800
 20
28.024000
 42
1.000000
  0
SEQEND
  8
0
  0
POLYLINE
  8
0
  66
1
  70
1
  0
VERTEX
  8
0
 10
56.818800
 20
38.184000
 42
1.000000
  0
VERTEX
  8
0
 10
57.918800
 20
38.184000
 42
1.000000
  0
SEQEND
  8
0
  0
POLYLINE
  8
0
  66
1
  70
1
  0
VERTEX
  8
0
 10
55.548800
 20
45.804000
 42
1.000000
  0
VERTEX
  8
0
 10
56.648800
 20
45.804000
 42
1.000000
  0
SEQEND
  8
0
  0
POLYLINE
  8
0
  66
1
  70
1
  0
VERTEX
  8
0
 10
55.548800
 20
43.264000
 42
1.000000
  0
VERTEX
  8
0
 10
56.648800
 20
43.264000
 42
1.000000
  0
SEQEND
  8
0
  0
POLYLINE
  8
0
  66
1
  70
1
  0
VERTEX
  8
0
 10
55.548800
 20
10.244000
 42
1.000000
  0
VERTEX
  8
0
 10
56.648800
 20
10.244000
 42
1.000000
  0
SEQEND
  8
0
  0
POLYLINE
  8
0
  66
1
  70
1
  0
VERTEX
  8
0
 10
55.548800
 20
5.164000
 42
1.000000
  0
VERTEX
  8
0
 10
56.648800
 20
5.164000
 42
1.000000
  0
SEQEND
  8
0
  0
POLYLINE
  8
0
  66
1
  70
1
  0
VERTEX
  8
0
 10
55.548800
 20
53.424000
 42
1.000000
  0
VERTEX
  8
0
 10
56.648800
 20
53.424000
 42
1.000000
  0
SEQEND
  8
0
  0
POLYLINE
  8
0
  66
1
  70
1
  0
VERTEX
  8
0
 10
54.278800
 20
133.434000
 42
1.000000
  0
VERTEX
  8
0
 10
55.378800
 20
133.434000
 42
1.000000
  0
SEQEND
  8
0
  0
POLYLINE
  8
0
  66
1
  70
1
  0
VERTEX
  8
0
 10
54.278800
 20
120.734000
 42
1.000000
  0
VERTEX
  8
0
 10
55.378800
 20
120.734000
 42
1.000000
  0
SEQEND
  8
0
  0
POLYLINE
  8
0
  66
1
  70
1
  0
VERTEX
  8
0
 10
54.278800
 20
149.944000
 42
1.000000
  0
VERTEX
  8
0
 10
55.378800
 20
149.944000
 42
1.000000
  0
SEQEND
  8
0
  0
POLYLINE
  8
0
  66
1
  70
1
  0
VERTEX
  8
0
 10
54.278800
 20
137.244000
 42
1.000000
  0
VERTEX
  8
0
 10
55.378800
 20
137.244000
 42
1.000000
  0
SEQEND
  8
0
  0
POLYLINE
  8
0
  66
1
  70
1
  0
VERTEX
  8
0
 10
53.008800
 20
24.214000
 42
1.000000
  0
VERTEX
  8
0
 10
54.108800
 20
24.214000
 42
1.000000
  0
SEQEND
  8
0
  0
POLYLINE
  8
0
  66
1
  70
1
  0
VERTEX
  8
0
 10
53.008800
 20
38.184000
 42
1.000000
  0
VERTEX
  8
0
 10
54.108800
 20
38.184000
 42
1.000000
  0
SEQEND
  8
0
  0
POLYLINE
  8
0
  66
1
  70
1
  0
VERTEX
  8
0
 10
53.008800
 20
28.024000
 42
1.000000
  0
VERTEX
  8
0
 10
54.108800
 20
28.024000
 42
1.000000
  0
SEQEND
  8
0
  0
POLYLINE
  8
0
  66
1
  70
1
  0
VERTEX
  8
0
 10
53.008800
 20
14.054000
 42
1.000000
  0
VERTEX
  8
0
 10
54.108800
 20
14.054000
 42
1.000000
  0
SEQEND
  8
0
  0
POLYLINE
  8
0
  66
1
  70
1
  0
VERTEX
  8
0
 10
50.468800
 20
10.244000
 42
1.000000
  0
VERTEX
  8
0
 10
51.568800
 20
10.244000
 42
1.000000
  0
SEQEND
  8
0
  0
POLYLINE
  8
0
  66
1
  70
1
  0
VERTEX
  8
0
 10
50.468800
 20
5.164000
 42
1.000000
  0
VERTEX
  8
0
 10
51.568800
 20
5.164000
 42
1.000000
  0
SEQEND
  8
0
  0
POLYLINE
  8
0
  66
1
  70
1
  0
VERTEX
  8
0
 10
50.468800
 20
43.264000
 42
1.000000
  0
VERTEX
  8
0
 10
51.568800
 20
43.264000
 42
1.000000
  0
SEQEND
  8
0
  0
POLYLINE
  8
0
  66
1
  70
1
  0
VERTEX
  8
0
 10
50.468800
 20
55.964000
 42
1.000000
  0
VERTEX
  8
0
 10
51.568800
 20
55.964000
 42
1.000000
  0
SEQEND
  8
0
  0
POLYLINE
  8
0
  66
1
  70
1
  0
VERTEX
  8
0
 10
49.198800
 20
38.184000
 42
1.000000
  0
VERTEX
  8
0
 10
50.298800
 20
38.184000
 42
1.000000
  0
SEQEND
  8
0
  0
POLYLINE
  8
0
  66
1
  70
1
  0
VERTEX
  8
0
 10
49.198800
 20
28.024000
 42
1.000000
  0
VERTEX
  8
0
 10
50.298800
 20
28.024000
 42
1.000000
  0
SEQEND
  8
0
  0
POLYLINE
  8
0
  66
1
  70
1
  0
VERTEX
  8
0
 10
49.198800
 20
14.054000
 42
1.000000
  0
VERTEX
  8
0
 10
50.298800
 20
14.054000
 42
1.000000
  0
SEQEND
  8
0
  0
POLYLINE
  8
0
  66
1
  70
1
  0
VERTEX
  8
0
 10
49.198800
 20
24.214000
 42
1.000000
  0
VERTEX
  8
0
 10
50.298800
 20
24.214000
 42
1.000000
  0
SEQEND
  8
0
  0
POLYLINE
  8
0
  66
1
  70
1
  0
VERTEX
  8
0
 10
47.928800
 20
71.204000
 42
1.000000
  0
VERTEX
  8
0
 10
49.028800
 20
71.204000
 42
1.000000
  0
SEQEND
  8
0
  0
POLYLINE
  8
0
  66
1
  70
1
  0
VERTEX
  8
0
 10
47.928800
 20
68.664000
 42
1.000000
  0
VERTEX
  8
0
 10
49.028800
 20
68.664000
 42
1.000000
  0
SEQEND
  8
0
  0
POLYLINE
  8
0
  66
1
  70
1
  0
VERTEX
  8
0
 10
47.928800
 20
55.964000
 42
1.000000
  0
VERTEX
  8
0
 10
49.028800
 20
55.964000
 42
1.000000
  0
SEQEND
  8
0
  0
POLYLINE
  8
0
  66
1
  70
1
  0
VERTEX
  8
0
 10
47.928800
 20
43.264000
 42
1.000000
  0
VERTEX
  8
0
 10
49.028800
 20
43.264000
 42
1.000000
  0
SEQEND
  8
0
  0
POLYLINE
  8
0
  66
1
  70
1
  0
VERTEX
  8
0
 10
47.928800
 20
73.744000
 42
1.000000
  0
VERTEX
  8
0
 10
49.028800
 20
73.744000
 42
1.000000
  0
SEQEND
  8
0
  0
POLYLINE
  8
0
  66
1
  70
1
  0
VERTEX
  8
0
 10
47.928800
 20
76.284000
 42
1.000000
  0
VERTEX
  8
0
 10
49.028800
 20
76.284000
 42
1.000000
  0
SEQEND
  8
0
  0
POLYLINE
  8
0
  66
1
  70
1
  0
VERTEX
  8
0
 10
45.388800
 20
10.244000
 42
1.000000
  0
VERTEX
  8
0
 10
46.488800
 20
10.244000
 42
1.000000
  0
SEQEND
  8
0
  0
POLYLINE
  8
0
  66
1
  70
1
  0
VERTEX
  8
0
 10
45.388800
 20
14.054000
 42
1.000000
  0
VERTEX
  8
0
 10
46.488800
 20
14.054000
 42
1.000000
  0
SEQEND
  8
0
  0
POLYLINE
  8
0
  66
1
  70
1
  0
VERTEX
  8
0
 10
45.388800
 20
26.754000
 42
1.000000
  0
VERTEX
  8
0
 10
46.488800
 20
26.754000
 42
1.000000
  0
SEQEND
  8
0
  0
POLYLINE
  8
0
  66
1
  70
1
  0
VERTEX
  8
0
 10
45.388800
 20
5.164000
 42
1.000000
  0
VERTEX
  8
0
 10
46.488800
 20
5.164000
 42
1.000000
  0
SEQEND
  8
0
  0
POLYLINE
  8
0
  66
1
  70
1
  0
VERTEX
  8
0
 10
44.118800
 20
76.284000
 42
1.000000
  0
VERTEX
  8
0
 10
45.218800
 20
76.284000
 42
1.000000
  0
SEQEND
  8
0
  0
POLYLINE
  8
0
  66
1
  70
1
  0
VERTEX
  8
0
 10
44.118800
 20
38.184000
 42
1.000000
  0
VERTEX
  8
0
 10
45.218800
 20
38.184000
 42
1.000000
  0
SEQEND
  8
0
  0
POLYLINE
  8
0
  66
1
  70
1
  0
VERTEX
  8
0
 10
44.118800
 20
63.584000
 42
1.000000
  0
VERTEX
  8
0
 10
45.218800
 20
63.584000
 42
1.000000
  0
SEQEND
  8
0
  0
POLYLINE
  8
0
  66
1
  70
1
  0
VERTEX
  8
0
 10
44.118800
 20
33.104000
 42
1.000000
  0
VERTEX
  8
0
 10
45.218800
 20
33.104000
 42
1.000000
  0
SEQEND
  8
0
  0
POLYLINE
  8
0
  66
1
  70
1
  0
VERTEX
  8
0
 10
44.118800
 20
35.644000
 42
1.000000
  0
VERTEX
  8
0
 10
45.218800
 20
35.644000
 42
1.000000
  0
SEQEND
  8
0
  0
POLYLINE
  8
0
  66
1
  70
1
  0
VERTEX
  8
0
 10
42.848800
 20
26.754000
 42
1.000000
  0
VERTEX
  8
0
 10
43.948800
 20
26.754000
 42
1.000000
  0
SEQEND
  8
0
  0
POLYLINE
  8
0
  66
1
  70
1
  0
VERTEX
  8
0
 10
42.848800
 20
14.054000
 42
1.000000
  0
VERTEX
  8
0
 10
43.948800
 20
14.054000
 42
1.000000
  0
SEQEND
  8
0
  0
POLYLINE
  8
0
  66
1
  70
1
  0
VERTEX
  8
0
 10
41.578800
 20
76.284000
 42
1.000000
  0
VERTEX
  8
0
 10
42.678800
 20
76.284000
 42
1.000000
  0
SEQEND
  8
0
  0
POLYLINE
  8
0
  66
1
  70
1
  0
VERTEX
  8
0
 10
41.578800
 20
63.584000
 42
1.000000
  0
VERTEX
  8
0
 10
42.678800
 20
63.584000
 42
1.000000
  0
SEQEND
  8
0
  0
POLYLINE
  8
0
  66
1
  70
1
  0
VERTEX
  8
0
 10
40.308800
 20
5.164000
 42
1.000000
  0
VERTEX
  8
0
 10
41.408800
 20
5.164000
 42
1.000000
  0
SEQEND
  8
0
  0
POLYLINE
  8
0
  66
1
  70
1
  0
VERTEX
  8
0
 10
40.308800
 20
10.244000
 42
1.000000
  0
VERTEX
  8
0
 10
41.408800
 20
10.244000
 42
1.000000
  0
SEQEND
  8
0
  0
POLYLINE
  8
0
  66
1
  70
1
  0
VERTEX
  8
0
 10
39.038800
 20
76.284000
 42
1.000000
  0
VERTEX
  8
0
 10
40.138800
 20
76.284000
 42
1.000000
  0
SEQEND
  8
0
  0
POLYLINE
  8
0
  66
1
  70
1
  0
VERTEX
  8
0
 10
39.038800
 20
14.054000
 42
1.000000
  0
VERTEX
  8
0
 10
40.138800
 20
14.054000
 42
1.000000
  0
SEQEND
  8
0
  0
POLYLINE
  8
0
  66
1
  70
1
  0
VERTEX
  8
0
 10
39.038800
 20
26.754000
 42
1.000000
  0
VERTEX
  8
0
 10
40.138800
 20
26.754000
 42
1.000000
  0
SEQEND
  8
0
  0
POLYLINE
  8
0
  66
1
  70
1
  0
VERTEX
  8
0
 10
39.038800
 20
63.584000
 42
1.000000
  0
VERTEX
  8
0
 10
40.138800
 20
63.584000
 42
1.000000
  0
SEQEND
  8
0
  0
POLYLINE
  8
0
  66
1
  70
1
  0
VERTEX
  8
0
 10
36.498800
 20
63.584000
 42
1.000000
  0
VERTEX
  8
0
 10
37.598800
 20
63.584000
 42
1.000000
  0
SEQEND
  8
0
  0
POLYLINE
  8
0
  66
1
  70
1
  0
VERTEX
  8
0
 10
36.498800
 20
26.754000
 42
1.000000
  0
VERTEX
  8
0
 10
37.598800
 20
26.754000
 42
1.000000
  0
SEQEND
  8
0
  0
POLYLINE
  8
0
  66
1
  70
1
  0
VERTEX
  8
0
 10
36.498800
 20
14.054000
 42
1.000000
  0
VERTEX
  8
0
 10
37.598800
 20
14.054000
 42
1.000000
  0
SEQEND
  8
0
  0
POLYLINE
  8
0
  66
1
  70
1
  0
VERTEX
  8
0
 10
36.498800
 20
76.284000
 42
1.000000
  0
VERTEX
  8
0
 10
37.598800
 20
76.284000
 42
1.000000
  0
SEQEND
  8
0
  0
POLYLINE
  8
0
  66
1
  70
1
  0
VERTEX
  8
0
 10
35.228800
 20
10.244000
 42
1.000000
  0
VERTEX
  8
0
 10
36.328800
 20
10.244000
 42
1.000000
  0
SEQEND
  8
0
  0
POLYLINE
  8
0
  66
1
  70
1
  0
VERTEX
  8
0
 10
35.228800
 20
5.164000
 42
1.000000
  0
VERTEX
  8
0
 10
36.328800
 20
5.164000
 42
1.000000
  0
SEQEND
  8
0
  0
POLYLINE
  8
0
  66
1
  70
1
  0
VERTEX
  8
0
 10
32.688800
 20
52.154000
 42
1.000000
  0
VERTEX
  8
0
 10
33.788800
 20
52.154000
 42
1.000000
  0
SEQEND
  8
0
  0
POLYLINE
  8
0
  66
1
  70
1
  0
VERTEX
  8
0
 10
32.688800
 20
44.534000
 42
1.000000
  0
VERTEX
  8
0
 10
33.788800
 20
44.534000
 42
1.000000
  0
SEQEND
  8
0
  0
POLYLINE
  8
0
  66
1
  70
1
  0
VERTEX
  8
0
 10
32.688800
 20
41.994000
 42
1.000000
  0
VERTEX
  8
0
 10
33.788800
 20
41.994000
 42
1.000000
  0
SEQEND
  8
0
  0
POLYLINE
  8
0
  66
1
  70
1
  0
VERTEX
  8
0
 10
31.418800
 20
35.644000
 42
1.000000
  0
VERTEX
  8
0
 10
32.518800
 20
35.644000
 42
1.000000
  0
SEQEND
  8
0
  0
POLYLINE
  8
0
  66
1
  70
1
  0
VERTEX
  8
0
 10
31.418800
 20
38.184000
 42
1.000000
  0
VERTEX
  8
0
 10
32.518800
 20
38.184000
 42
1.000000
  0
SEQEND
  8
0
  0
POLYLINE
  8
0
  66
1
  70
1
  0
VERTEX
  8
0
 10
31.418800
 20
33.104000
 42
1.000000
  0
VERTEX
  8
0
 10
32.518800
 20
33.104000
 42
1.000000
  0
SEQEND
  8
0
  0
POLYLINE
  8
0
  66
1
  70
1
  0
VERTEX
  8
0
 10
30.148800
 20
5.164000
 42
1.000000
  0
VERTEX
  8
0
 10
31.248800
 20
5.164000
 42
1.000000
  0
SEQEND
  8
0
  0
POLYLINE
  8
0
  66
1
  70
1
  0
VERTEX
  8
0
 10
30.148800
 20
10.244000
 42
1.000000
  0
VERTEX
  8
0
 10
31.248800
 20
10.244000
 42
1.000000
  0
SEQEND
  8
0
  0
POLYLINE
  8
0
  66
1
  70
1
  0
VERTEX
  8
0
 10
28.878800
 20
25.484000
 42
1.000000
  0
VERTEX
  8
0
 10
29.978800
 20
25.484000
 42
1.000000
  0
SEQEND
  8
0
  0
POLYLINE
  8
0
  66
1
  70
1
  0
VERTEX
  8
0
 10
28.878800
 20
38.184000
 42
1.000000
  0
VERTEX
  8
0
 10
29.978800
 20
38.184000
 42
1.000000
  0
SEQEND
  8
0
  0
POLYLINE
  8
0
  66
1
  70
1
  0
VERTEX
  8
0
 10
27.608800
 20
44.534000
 42
1.000000
  0
VERTEX
  8
0
 10
28.708800
 20
44.534000
 42
1.000000
  0
SEQEND
  8
0
  0
POLYLINE
  8
0
  66
1
  70
1
  0
VERTEX
  8
0
 10
27.608800
 20
52.154000
 42
1.000000
  0
VERTEX
  8
0
 10
28.708800
 20
52.154000
 42
1.000000
  0
SEQEND
  8
0
  0
POLYLINE
  8
0
  66
1
  70
1
  0
VERTEX
  8
0
 10
27.608800
 20
41.994000
 42
1.000000
  0
VERTEX
  8
0
 10
28.708800
 20
41.994000
 42
1.000000
  0
SEQEND
  8
0
  0
POLYLINE
  8
0
  66
1
  70
1
  0
VERTEX
  8
0
 10
26.338800
 20
25.484000
 42
1.000000
  0
VERTEX
  8
0
 10
27.438800
 20
25.484000
 42
1.000000
  0
SEQEND
  8
0
  0
POLYLINE
  8
0
  66
1
  70
1
  0
VERTEX
  8
0
 10
26.338800
 20
38.184000
 42
1.000000
  0
VERTEX
  8
0
 10
27.438800
 20
38.184000
 42
1.000000
  0
SEQEND
  8
0
  0
POLYLINE
  8
0
  66
1
  70
1
  0
VERTEX
  8
0
 10
25.068800
 20
5.164000
 42
1.000000
  0
VERTEX
  8
0
 10
26.168800
 20
5.164000
 42
1.000000
  0
SEQEND
  8
0
  0
POLYLINE
  8
0
  66
1
  70
1
  0
VERTEX
  8
0
 10
25.068800
 20
10.244000
 42
1.000000
  0
VERTEX
  8
0
 10
26.168800
 20
10.244000
 42
1.000000
  0
SEQEND
  8
0
  0
POLYLINE
  8
0
  66
1
  70
1
  0
VERTEX
  8
0
 10
25.068800
 20
14.054000
 42
1.000000
  0
VERTEX
  8
0
 10
26.168800
 20
14.054000
 42
1.000000
  0
SEQEND
  8
0
  0
POLYLINE
  8
0
  66
1
  70
1
  0
VERTEX
  8
0
 10
23.798800
 20
41.994000
 42
1.000000
  0
VERTEX
  8
0
 10
24.898800
 20
41.994000
 42
1.000000
  0
SEQEND
  8
0
  0
POLYLINE
  8
0
  66
1
  70
1
  0
VERTEX
  8
0
 10
23.798800
 20
38.184000
 42
1.000000
  0
VERTEX
  8
0
 10
24.898800
 20
38.184000
 42
1.000000
  0
SEQEND
  8
0
  0
POLYLINE
  8
0
  66
1
  70
1
  0
VERTEX
  8
0
 10
23.798800
 20
52.154000
 42
1.000000
  0
VERTEX
  8
0
 10
24.898800
 20
52.154000
 42
1.000000
  0
SEQEND
  8
0
  0
POLYLINE
  8
0
  66
1
  70
1
  0
VERTEX
  8
0
 10
23.798800
 20
25.484000
 42
1.000000
  0
VERTEX
  8
0
 10
24.898800
 20
25.484000
 42
1.000000
  0
SEQEND
  8
0
  0
POLYLINE
  8
0
  66
1
  70
1
  0
VERTEX
  8
0
 10
21.258800
 20
38.184000
 42
1.000000
  0
VERTEX
  8
0
 10
22.358800
 20
38.184000
 42
1.000000
  0
SEQEND
  8
0
  0
POLYLINE
  8
0
  66
1
  70
1
  0
VERTEX
  8
0
 10
21.258800
 20
25.484000
 42
1.000000
  0
VERTEX
  8
0
 10
22.358800
 20
25.484000
 42
1.000000
  0
SEQEND
  8
0
  0
POLYLINE
  8
0
  66
1
  70
1
  0
VERTEX
  8
0
 10
19.988800
 20
41.994000
 42
1.000000
  0
VERTEX
  8
0
 10
21.088800
 20
41.994000
 42
1.000000
  0
SEQEND
  8
0
  0
POLYLINE
  8
0
  66
1
  70
1
  0
VERTEX
  8
0
 10
19.988800
 20
14.054000
 42
1.000000
  0
VERTEX
  8
0
 10
21.088800
 20
14.054000
 42
1.000000
  0
SEQEND
  8
0
  0
POLYLINE
  8
0
  66
1
  70
1
  0
VERTEX
  8
0
 10
19.988800
 20
5.164000
 42
1.000000
  0
VERTEX
  8
0
 10
21.088800
 20
5.164000
 42
1.000000
  0
SEQEND
  8
0
  0
POLYLINE
  8
0
  66
1
  70
1
  0
VERTEX
  8
0
 10
19.988800
 20
59.774000
 42
1.000000
  0
VERTEX
  8
0
 10
21.088800
 20
59.774000
 42
1.000000
  0
SEQEND
  8
0
  0
POLYLINE
  8
0
  66
1
  70
1
  0
VERTEX
  8
0
 10
19.988800
 20
57.234000
 42
1.000000
  0
VERTEX
  8
0
 10
21.088800
 20
57.234000
 42
1.000000
  0
SEQEND
  8
0
  0
POLYLINE
  8
0
  66
1
  70
1
  0
VERTEX
  8
0
 10
19.988800
 20
52.154000
 42
1.000000
  0
VERTEX
  8
0
 10
21.088800
 20
52.154000
 42
1.000000
  0
SEQEND
  8
0
  0
POLYLINE
  8
0
  66
1
  70
1
  0
VERTEX
  8
0
 10
19.988800
 20
10.244000
 42
1.000000
  0
VERTEX
  8
0
 10
21.088800
 20
10.244000
 42
1.000000
  0
SEQEND
  8
0
  0
POLYLINE
  8
0
  66
1
  70
1
  0
VERTEX
  8
0
 10
19.988800
 20
63.584000
 42
1.000000
  0
VERTEX
  8
0
 10
21.088800
 20
63.584000
 42
1.000000
  0
SEQEND
  8
0
  0
POLYLINE
  8
0
  66
1
  70
1
  0
VERTEX
  8
0
 10
19.988800
 20
71.204000
 42
1.000000
  0
VERTEX
  8
0
 10
21.088800
 20
71.204000
 42
1.000000
  0
SEQEND
  8
0
  0
POLYLINE
  8
0
  66
1
  70
1
  0
VERTEX
  8
0
 10
14.908800
 20
5.164000
 42
1.000000
  0
VERTEX
  8
0
 10
16.008800
 20
5.164000
 42
1.000000
  0
SEQEND
  8
0
  0
POLYLINE
  8
0
  66
1
  70
1
  0
VERTEX
  8
0
 10
14.908800
 20
10.244000
 42
1.000000
  0
VERTEX
  8
0
 10
16.008800
 20
10.244000
 42
1.000000
  0
SEQEND
  8
0
  0
POLYLINE
  8
0
  66
1
  70
1
  0
VERTEX
  8
0
 10
13.638800
 20
14.054000
 42
1.000000
  0
VERTEX
  8
0
 10
14.738800
 20
14.054000
 42
1.000000
  0
SEQEND
  8
0
  0
POLYLINE
  8
0
  66
1
  70
1
  0
VERTEX
  8
0
 10
13.638800
 20
20.404000
 42
1.000000
  0
VERTEX
  8
0
 10
14.738800
 20
20.404000
 42
1.000000
  0
SEQEND
  8
0
  0
POLYLINE
  8
0
  66
1
  70
1
  0
VERTEX
  8
0
 10
13.638800
 20
45.804000
 42
1.000000
  0
VERTEX
  8
0
 10
14.738800
 20
45.804000
 42
1.000000
  0
SEQEND
  8
0
  0
POLYLINE
  8
0
  66
1
  70
1
  0
VERTEX
  8
0
 10
12.368800
 20
73.744000
 42
1.000000
  0
VERTEX
  8
0
 10
13.468800
 20
73.744000
 42
1.000000
  0
SEQEND
  8
0
  0
POLYLINE
  8
0
  66
1
  70
1
  0
VERTEX
  8
0
 10
12.368800
 20
66.124000
 42
1.000000
  0
VERTEX
  8
0
 10
13.468800
 20
66.124000
 42
1.000000
  0
SEQEND
  8
0
  0
POLYLINE
  8
0
  66
1
  70
1
  0
VERTEX
  8
0
 10
11.098800
 20
22.944000
 42
1.000000
  0
VERTEX
  8
0
 10
12.198800
 20
22.944000
 42
1.000000
  0
SEQEND
  8
0
  0
POLYLINE
  8
0
  66
1
  70
1
  0
VERTEX
  8
0
 10
11.098800
 20
48.344000
 42
1.000000
  0
VERTEX
  8
0
 10
12.198800
 20
48.344000
 42
1.000000
  0
SEQEND
  8
0
  0
POLYLINE
  8
0
  66
1
  70
1
  0
VERTEX
  8
0
 10
9.828800
 20
10.244000
 42
1.000000
  0
VERTEX
  8
0
 10
10.928800
 20
10.244000
 42
1.000000
  0
SEQEND
  8
0
  0
POLYLINE
  8
0
  66
1
  70
1
  0
VERTEX
  8
0
 10
9.828800
 20
5.164000
 42
1.000000
  0
VERTEX
  8
0
 10
10.928800
 20
5.164000
 42
1.000000
  0
SEQEND
  8
0
  0
POLYLINE
  8
0
  66
1
  70
1
  0
VERTEX
  8
0
 10
8.558800
 20
20.404000
 42
1.000000
  0
VERTEX
  8
0
 10
9.658800
 20
20.404000
 42
1.000000
  0
SEQEND
  8
0
  0
POLYLINE
  8
0
  66
1
  70
1
  0
VERTEX
  8
0
 10
8.558800
 20
14.054000
 42
1.000000
  0
VERTEX
  8
0
 10
9.658800
 20
14.054000
 42
1.000000
  0
SEQEND
  8
0
  0
POLYLINE
  8
0
  66
1
  70
1
  0
VERTEX
  8
0
 10
8.558800
 20
45.804000
 42
1.000000
  0
VERTEX
  8
0
 10
9.658800
 20
45.804000
 42
1.000000
  0
SEQEND
  8
0
  0
POLYLINE
  8
0
  66
1
  70
1
  0
VERTEX
  8
0
 10
7.288800
 20
59.774000
 42
1.000000
  0
VERTEX
  8
0
 10
8.388800
 20
59.774000
 42
1.000000
  0
SEQEND
  8
0
  0
POLYLINE
  8
0
  66
1
  70
1
  0
VERTEX
  8
0
 10
7.288800
 20
57.234000
 42
1.000000
  0
VERTEX
  8
0
 10
8.388800
 20
57.234000
 42
1.000000
  0
SEQEND
  8
0
  0
POLYLINE
  8
0
  66
1
  70
1
  0
VERTEX
  8
0
 10
7.288800
 20
71.204000
 42
1.000000
  0
VERTEX
  8
0
 10
8.388800
 20
71.204000
 42
1.000000
  0
SEQEND
  8
0
  0
POLYLINE
  8
0
  66
1
  70
1
  0
VERTEX
  8
0
 10
7.288800
 20
63.584000
 42
1.000000
  0
VERTEX
  8
0
 10
8.388800
 20
63.584000
 42
1.000000
  0
SEQEND
  8
0
  0
POLYLINE
  8
0
  66
1
  70
1
  0
VERTEX
  8
0
 10
6.018800
 20
48.344000
 42
1.000000
  0
VERTEX
  8
0
 10
7.118800
 20
48.344000
 42
1.000000
  0
SEQEND
  8
0
  0
POLYLINE
  8
0
  66
1
  70
1
  0
VERTEX
  8
0
 10
58.188800
 20
58.504000
 42
1.000000
  0
VERTEX
  8
0
 10
59.088800
 20
58.504000
 42
1.000000
  0
SEQEND
  8
0
  0
POLYLINE
  8
0
  66
1
  70
1
  0
VERTEX
  8
0
 10
58.188800
 20
66.124000
 42
1.000000
  0
VERTEX
  8
0
 10
59.088800
 20
66.124000
 42
1.000000
  0
SEQEND
  8
0
  0
POLYLINE
  8
0
  66
1
  70
1
  0
VERTEX
  8
0
 10
55.648800
 20
58.504000
 42
1.000000
  0
VERTEX
  8
0
 10
56.548800
 20
58.504000
 42
1.000000
  0
SEQEND
  8
0
  0
POLYLINE
  8
0
  66
1
  70
1
  0
VERTEX
  8
0
 10
55.648800
 20
66.124000
 42
1.000000
  0
VERTEX
  8
0
 10
56.548800
 20
66.124000
 42
1.000000
  0
SEQEND
  8
0
  0
POLYLINE
  8
0
  66
1
  70
1
  0
VERTEX
  8
0
 10
53.108800
 20
66.124000
 42
1.000000
  0
VERTEX
  8
0
 10
54.008800
 20
66.124000
 42
1.000000
  0
SEQEND
  8
0
  0
POLYLINE
  8
0
  66
1
  70
1
  0
VERTEX
  8
0
 10
53.108800
 20
58.504000
 42
1.000000
  0
VERTEX
  8
0
 10
54.008800
 20
58.504000
 42
1.000000
  0
SEQEND
  8
0
  0
POLYLINE
  8
0
  66
1
  70
1
  0
VERTEX
  8
0
 10
50.568800
 20
58.504000
 42
1.000000
  0
VERTEX
  8
0
 10
51.468800
 20
58.504000
 42
1.000000
  0
SEQEND
  8
0
  0
POLYLINE
  8
0
  66
1
  70
1
  0
VERTEX
  8
0
 10
50.568800
 20
66.124000
 42
1.000000
  0
VERTEX
  8
0
 10
51.468800
 20
66.124000
 42
1.000000
  0
SEQEND
  8
0
  0
POLYLINE
  8
0
  66
1
  70
1
  0
VERTEX
  8
0
 10
44.218800
 20
47.074000
 42
1.000000
  0
VERTEX
  8
0
 10
45.118800
 20
47.074000
 42
1.000000
  0
SEQEND
  8
0
  0
POLYLINE
  8
0
  66
1
  70
1
  0
VERTEX
  8
0
 10
44.218800
 20
49.614000
 42
1.000000
  0
VERTEX
  8
0
 10
45.118800
 20
49.614000
 42
1.000000
  0
SEQEND
  8
0
  0
POLYLINE
  8
0
  66
1
  70
1
  0
VERTEX
  8
0
 10
44.218800
 20
57.234000
 42
1.000000
  0
VERTEX
  8
0
 10
45.118800
 20
57.234000
 42
1.000000
  0
SEQEND
  8
0
  0
POLYLINE
  8
0
  66
1
  70
1
  0
VERTEX
  8
0
 10
44.218800
 20
44.534000
 42
1.000000
  0
VERTEX
  8
0
 10
45.118800
 20
44.534000
 42
1.000000
  0
SEQEND
  8
0
  0
POLYLINE
  8
0
  66
1
  70
1
  0
VERTEX
  8
0
 10
44.218800
 20
41.994000
 42
1.000000
  0
VERTEX
  8
0
 10
45.118800
 20
41.994000
 42
1.000000
  0
SEQEND
  8
0
  0
POLYLINE
  8
0
  66
1
  70
1
  0
VERTEX
  8
0
 10
44.218800
 20
54.694000
 42
1.000000
  0
VERTEX
  8
0
 10
45.118800
 20
54.694000
 42
1.000000
  0
SEQEND
  8
0
  0
POLYLINE
  8
0
  66
1
  70
1
  0
VERTEX
  8
0
 10
44.218800
 20
52.154000
 42
1.000000
  0
VERTEX
  8
0
 10
45.118800
 20
52.154000
 42
1.000000
  0
SEQEND
  8
0
  0
POLYLINE
  8
0
  66
1
  70
1
  0
VERTEX
  8
0
 10
36.598800
 20
47.074000
 42
1.000000
  0
VERTEX
  8
0
 10
37.498800
 20
47.074000
 42
1.000000
  0
SEQEND
  8
0
  0
POLYLINE
  8
0
  66
1
  70
1
  0
VERTEX
  8
0
 10
36.598800
 20
57.234000
 42
1.000000
  0
VERTEX
  8
0
 10
37.498800
 20
57.234000
 42
1.000000
  0
SEQEND
  8
0
  0
POLYLINE
  8
0
  66
1
  70
1
  0
VERTEX
  8
0
 10
36.598800
 20
54.694000
 42
1.000000
  0
VERTEX
  8
0
 10
37.498800
 20
54.694000
 42
1.000000
  0
SEQEND
  8
0
  0
POLYLINE
  8
0
  66
1
  70
1
  0
VERTEX
  8
0
 10
36.598800
 20
49.614000
 42
1.000000
  0
VERTEX
  8
0
 10
37.498800
 20
49.614000
 42
1.000000
  0
SEQEND
  8
0
  0
POLYLINE
  8
0
  66
1
  70
1
  0
VERTEX
  8
0
 10
36.598800
 20
52.154000
 42
1.000000
  0
VERTEX
  8
0
 10
37.498800
 20
52.154000
 42
1.000000
  0
SEQEND
  8
0
  0
POLYLINE
  8
0
  66
1
  70
1
  0
VERTEX
  8
0
 10
36.598800
 20
41.994000
 42
1.000000
  0
VERTEX
  8
0
 10
37.498800
 20
41.994000
 42
1.000000
  0
SEQEND
  8
0
  0
POLYLINE
  8
0
  66
1
  70
1
  0
VERTEX
  8
0
 10
36.598800
 20
44.534000
 42
1.000000
  0
VERTEX
  8
0
 10
37.498800
 20
44.534000
 42
1.000000
  0
SEQEND
  8
0
  0
POLYLINE
  8
0
  66
1
  70
1
  0
VERTEX
  8
0
 10
32.788800
 20
61.044000
 42
1.000000
  0
VERTEX
  8
0
 10
33.688800
 20
61.044000
 42
1.000000
  0
SEQEND
  8
0
  0
POLYLINE
  8
0
  66
1
  70
1
  0
VERTEX
  8
0
 10
32.788800
 20
72.474000
 42
1.000000
  0
VERTEX
  8
0
 10
33.688800
 20
72.474000
 42
1.000000
  0
SEQEND
  8
0
  0
POLYLINE
  8
0
  66
1
  70
1
  0
VERTEX
  8
0
 10
30.248800
 20
69.934000
 42
1.000000
  0
VERTEX
  8
0
 10
31.148800
 20
69.934000
 42
1.000000
  0
SEQEND
  8
0
  0
POLYLINE
  8
0
  66
1
  70
1
  0
VERTEX
  8
0
 10
30.248800
 20
58.504000
 42
1.000000
  0
VERTEX
  8
0
 10
31.148800
 20
58.504000
 42
1.000000
  0
SEQEND
  8
0
  0
POLYLINE
  8
0
  66
1
  70
1
  0
VERTEX
  8
0
 10
27.708800
 20
61.044000
 42
1.000000
  0
VERTEX
  8
0
 10
28.608800
 20
61.044000
 42
1.000000
  0
SEQEND
  8
0
  0
POLYLINE
  8
0
  66
1
  70
1
  0
VERTEX
  8
0
 10
27.708800
 20
72.474000
 42
1.000000
  0
VERTEX
  8
0
 10
28.608800
 20
72.474000
 42
1.000000
  0
SEQEND
  8
0
  0
POLYLINE
  8
0
  66
1
  70
1
  0
VERTEX
  8
0
 10
17.548800
 20
54.694000
 42
1.000000
  0
VERTEX
  8
0
 10
18.448800
 20
54.694000
 42
1.000000
  0
SEQEND
  8
0
  0
POLYLINE
  8
0
  66
1
  70
1
  0
VERTEX
  8
0
 10
7.388800
 20
54.694000
 42
1.000000
  0
VERTEX
  8
0
 10
8.288800
 20
54.694000
 42
1.000000
  0
SEQEND
  8
0
  0
ENDSEC
  0
EOF
