*
*
G04 PADS Layout (Build Number 2007.42.1) generated Gerber (RS-274-X) file*
G04 PC Version=2.1*
*
%IN "plc_v4.pcb"*%
*
%MOIN*%
*
%FSLAX24Y24*%
*
*
*
*
G04 PC Standard Apertures*
*
*
G04 Thermal Relief Aperture macro.*
%AMTER*
1,1,$1,0,0*
1,0,$1-$2,0,0*
21,0,$3,$4,0,0,45*
21,0,$3,$4,0,0,135*
%
*
*
G04 Annular Aperture macro.*
%AMANN*
1,1,$1,0,0*
1,0,$2,0,0*
%
*
*
G04 Odd Aperture macro.*
%AMODD*
1,1,$1,0,0*
1,0,$1-0.005,0,0*
%
*
*
G04 PC Custom Aperture Macros*
*
*
*
*
*
*
G04 PC Aperture Table*
*
%ADD010C,0.01*%
%ADD022R,0.05906X0.05906*%
%ADD023C,0.05906*%
%ADD024C,0.06693*%
%ADD025C,0.11024*%
%ADD026C,0.06*%
%ADD027C,0.09449*%
%ADD028C,0.11811*%
%ADD029C,0.08661*%
%ADD030C,0.04724*%
%ADD031C,0.04921*%
*
*
*
*
G04 PC Copper Outlines (0)*
G04 Layer Name plc_v4.pcb - dark (0)*
%LPD*%
*
*
G04 PC Area=Custom_Thermal*
*
G04 PC Custom Flashes*
G04 Layer Name plc_v4.pcb - flashes*
%LPD*%
*
*
G04 PC Circuitry*
G04 Layer Name plc_v4.pcb - circuitry*
%LPD*%
*
G54D10*
G01X20016Y13834D02*
Y13178D01*
Y13834D02*
X19811D01*
X19811D02*
X19743Y13803D01*
X19743D02*
X19721Y13772D01*
X19698Y13709*
X19698D02*
Y13615D01*
X19698D02*
X19721Y13553D01*
X19743Y13522*
X19743D02*
X19811Y13490D01*
X19811D02*
X20016D01*
X19493Y13834D02*
Y13178D01*
X19493D02*
X19221D01*
X18675Y13678D02*
X18698Y13740D01*
X18698D02*
X18743Y13803D01*
X18743D02*
X18789Y13834D01*
X18789D02*
X18880D01*
X18880D02*
X18925Y13803D01*
X18925D02*
X18971Y13740D01*
X18971D02*
X18993Y13678D01*
X18993D02*
X19016Y13584D01*
X19016D02*
Y13428D01*
X18993Y13334*
X18993D02*
X18971Y13272D01*
X18925Y13209*
X18925D02*
X18880Y13178D01*
X18789*
X18743Y13209*
X18743D02*
X18698Y13272D01*
X18675Y13334*
X18471Y13459D02*
X18061D01*
X17857Y13834D02*
Y13178D01*
X17652Y13615D02*
Y13178D01*
Y13490D02*
X17584Y13584D01*
X17584D02*
X17539Y13615D01*
X17539D02*
X17471D01*
X17471D02*
X17425Y13584D01*
X17425D02*
X17402Y13490D01*
X17402D02*
Y13178D01*
X17130Y13834D02*
Y13303D01*
X17107Y13209*
X17107D02*
X17061Y13178D01*
X17061D02*
X17016D01*
X17198Y13615D02*
X17039D01*
X16811Y13428D02*
X16539D01*
Y13490*
X16539D02*
X16561Y13553D01*
X16561D02*
X16584Y13584D01*
X16584D02*
X16630Y13615D01*
X16630D02*
X16698D01*
X16698D02*
X16743Y13584D01*
X16743D02*
X16789Y13522D01*
X16811Y13428*
X16811D02*
Y13365D01*
X16811D02*
X16789Y13272D01*
X16743Y13209*
X16743D02*
X16698Y13178D01*
X16630*
X16584Y13209*
X16584D02*
X16539Y13272D01*
X16334Y13615D02*
Y13178D01*
Y13428D02*
X16311Y13522D01*
X16311D02*
X16266Y13584D01*
X16266D02*
X16221Y13615D01*
X16221D02*
X16152D01*
X15766Y13834D02*
X15811D01*
X15811D02*
X15857Y13803D01*
X15880Y13709*
X15880D02*
Y13178D01*
X15948Y13615D02*
X15789D01*
X15289D02*
Y13178D01*
Y13522D02*
X15334Y13584D01*
X15334D02*
X15380Y13615D01*
X15380D02*
X15448D01*
X15448D02*
X15493Y13584D01*
X15493D02*
X15539Y13522D01*
X15561Y13428*
X15561D02*
Y13365D01*
X15561D02*
X15539Y13272D01*
X15493Y13209*
X15493D02*
X15448Y13178D01*
X15380*
X15334Y13209*
X15334D02*
X15289Y13272D01*
X14811Y13522D02*
X14857Y13584D01*
X14857D02*
X14902Y13615D01*
X14902D02*
X14971D01*
X14971D02*
X15016Y13584D01*
X15016D02*
X15061Y13522D01*
X15061D02*
X15084Y13428D01*
X15084D02*
Y13365D01*
X15084D02*
X15061Y13272D01*
X15061D02*
X15016Y13209D01*
X15016D02*
X14971Y13178D01*
X14902*
X14902D02*
X14857Y13209D01*
X14857D02*
X14811Y13272D01*
X14607Y13428D02*
X14334D01*
X14334D02*
Y13490D01*
X14334D02*
X14357Y13553D01*
X14380Y13584*
X14380D02*
X14425Y13615D01*
X14425D02*
X14493D01*
X14493D02*
X14539Y13584D01*
X14539D02*
X14584Y13522D01*
X14584D02*
X14607Y13428D01*
Y13365*
X14607D02*
X14584Y13272D01*
X14584D02*
X14539Y13209D01*
X14539D02*
X14493Y13178D01*
X14493D02*
X14425D01*
X14425D02*
X14380Y13209D01*
X14380D02*
X14334Y13272D01*
X19857Y12574D02*
Y11918D01*
X20016Y12574D02*
X19698D01*
X19493D02*
X19311Y11918D01*
X19130Y12574D02*
X19311Y11918D01*
X18766Y12574D02*
Y11918D01*
X18925Y12574D02*
X18607D01*
X18380Y12418D02*
Y12449D01*
X18380D02*
X18357Y12512D01*
X18334Y12543*
X18334D02*
X18289Y12574D01*
X18289D02*
X18198D01*
X18198D02*
X18152Y12543D01*
X18152D02*
X18130Y12512D01*
X18107Y12449*
X18107D02*
Y12387D01*
X18130Y12324*
X18130D02*
X18175Y12231D01*
X18175D02*
X18402Y11918D01*
X18402D02*
X18084D01*
X17743Y12574D02*
X17811Y12543D01*
X17811D02*
X17857Y12449D01*
X17857D02*
X17880Y12293D01*
X17880D02*
Y12199D01*
X17880D02*
X17857Y12043D01*
X17857D02*
X17811Y11949D01*
X17811D02*
X17743Y11918D01*
X17743D02*
X17698D01*
X17698D02*
X17630Y11949D01*
X17630D02*
X17584Y12043D01*
X17584D02*
X17561Y12199D01*
X17561D02*
Y12293D01*
X17561D02*
X17584Y12449D01*
X17584D02*
X17630Y12543D01*
X17630D02*
X17698Y12574D01*
X17698D02*
X17743D01*
X17221D02*
X17289Y12543D01*
X17289D02*
X17334Y12449D01*
X17334D02*
X17357Y12293D01*
X17357D02*
Y12199D01*
X17357D02*
X17334Y12043D01*
X17334D02*
X17289Y11949D01*
X17289D02*
X17221Y11918D01*
X17221D02*
X17175D01*
X17175D02*
X17107Y11949D01*
X17107D02*
X17061Y12043D01*
X17061D02*
X17039Y12199D01*
X17039D02*
Y12293D01*
X17039D02*
X17061Y12449D01*
X17061D02*
X17107Y12543D01*
X17107D02*
X17175Y12574D01*
X17175D02*
X17221D01*
X16811Y12418D02*
Y12449D01*
X16811D02*
X16789Y12512D01*
X16766Y12543*
X16766D02*
X16721Y12574D01*
X16721D02*
X16630D01*
X16630D02*
X16584Y12543D01*
X16584D02*
X16561Y12512D01*
X16561D02*
X16539Y12449D01*
X16539D02*
Y12387D01*
X16561Y12324*
X16561D02*
X16607Y12231D01*
X16834Y11918*
X16834D02*
X16516D01*
G54D22*
X21750Y38250D03*
X25750Y45500D03*
G54D23*
X21750Y39250D03*
Y40250D03*
X18750D03*
Y39250D03*
Y38250D03*
X25750Y46500D03*
Y47500D03*
X22750D03*
Y46500D03*
Y45500D03*
G54D24*
X25250Y40500D03*
Y44500D03*
X22500Y33500D03*
Y37500D03*
X21500Y44250D03*
Y48250D03*
X17680Y37240D03*
Y41240D03*
G54D25*
X31000Y32750D03*
Y40750D03*
X27250Y30500D03*
Y38500D03*
X29000Y22750D03*
Y30750D03*
X39000Y28250D03*
X31000D03*
X39000Y31000D03*
X31000D03*
X27250Y40000D03*
Y48000D03*
X27000Y21000D03*
X37000D03*
X24160Y39400D03*
Y29400D03*
G54D26*
X33250Y35000D03*
Y37000D03*
X29500Y42000D03*
Y44000D03*
G54D27*
X32750Y26000D03*
X37750D03*
X29000Y35500D03*
Y40500D03*
G54D28*
X35500Y37000D03*
Y39000D03*
Y41000D03*
X16000D03*
Y39000D03*
Y37000D03*
X19750Y48250D03*
Y46250D03*
Y44250D03*
X31750D03*
Y46250D03*
Y48250D03*
G54D29*
X32750Y38750D03*
X33900Y40750D03*
X29000Y46000D03*
X30150Y48000D03*
G54D30*
X39880Y11920D03*
Y13840D03*
X11680D03*
Y11800D03*
G54D31*
X37000Y21000D02*
X37750Y21750D01*
Y26000*
X21823Y26176D02*
X27000Y21000D01*
X24160Y29400D02*
Y33379D01*
X29000Y38219*
Y40500*
X31000Y28250D02*
Y26733D01*
X31733Y26000*
X32750*
X39000Y28250D02*
Y31000D01*
X21823Y26176D02*
Y32823D01*
X22500Y33500*
X17680Y37240D02*
X17695Y37225D01*
X18735Y38265*
X18750Y38250*
X29000Y30750D02*
Y35500D01*
X27250Y30500D02*
X29000Y28750D01*
Y22750*
X22500Y37500D02*
X24910D01*
X24910D02*
X26266Y38855D01*
X26266D02*
Y40835D01*
X26266D02*
X28538Y43106D01*
X28538D02*
X30082D01*
X30082D02*
X30623Y42566D01*
X30623D02*
Y41801D01*
X33250Y37000D02*
X33921Y37671D01*
Y38750*
X33250Y35000D02*
Y30500D01*
X37750Y26000*
X31000Y31000D02*
Y32750D01*
X16000Y39000D02*
X17397D01*
X17397D02*
X17647Y39250D01*
X17647D02*
X18750D01*
X16000Y41000D02*
Y41120D01*
X17680*
Y41240*
X17700Y41260*
X18730Y40230*
X18750Y40250*
X21500Y44250D02*
X22750Y45500D01*
X21750Y39250D02*
X22265D01*
X22265D02*
X22500Y39015D01*
X22500D02*
Y37500D01*
X21750Y38250D02*
Y35566D01*
X21750D02*
X22500Y34816D01*
X22500D02*
Y33500D01*
X29000Y40500D02*
Y41500D01*
X29500Y42000*
X24511Y43065D02*
Y44921D01*
X24511D02*
X25090Y45500D01*
X25090D02*
X25750D01*
X29000Y46000D02*
Y44500D01*
X29500Y44000*
X29984Y39841D02*
Y41161D01*
X29984D02*
X30623Y41801D01*
X25252Y40497D02*
X24157Y39402D01*
X24157D02*
X24160Y39400D01*
X24511Y43065D02*
X25250Y42327D01*
Y40500*
X29984Y39841D02*
X31076Y38750D01*
X32750*
X27250Y38500D02*
Y40000D01*
X25250Y44500D02*
X25911D01*
X26581Y45170*
Y46500*
X25250Y40500D02*
X25252Y40497D01*
X33921Y38750D02*
X34171Y39000D01*
X35500*
X33900Y40750D02*
Y40875D01*
X35500*
Y41000*
X32750Y38750D02*
X33921D01*
X31000Y40750D02*
X33900D01*
X19750Y46250D02*
X21272D01*
X21272D02*
X21522Y46500D01*
X21522D02*
X22750D01*
X19750Y48250D02*
X21500D01*
X22198*
X22198D02*
X22849Y47599D01*
X26581Y46500D02*
X27056D01*
X27556Y46000*
X29000*
X30171*
X30421Y46250*
X31750*
X27250Y48000D02*
X30150D01*
X22750Y47500D02*
X22849Y47599D01*
X25750Y46500D02*
X26581D01*
X30150Y48000D02*
Y48125D01*
X31750*
Y48250*
X0Y0D02*
M02*
