%
T1C.0315F197S55
X0225Y0335
X03325Y035
X0339Y04075
X03325Y037
X03275Y03875
X02525Y0405
X0225Y0375
X02175Y03825
X02175Y03925
X02175Y04025
X01875Y03825
X01875Y04025
X01875Y03925
X01768Y04124
X01768Y03724
X0215Y04425
X02275Y0455
X02275Y0465
X02525Y0445
X02575Y0465
X02575Y0455
X029Y046
X0295Y042
X0295Y044
X03015Y048
X02575Y0475
X02275Y0475
X0215Y04825
T2C.03937F197S55
X027Y021
X029Y02275
X037Y021
X039Y02825
X039Y031
X03775Y026
X03275Y026
X031Y02825
X031Y031
X029Y03075
X02725Y0305
X02416Y0294
X02416Y0394
X02725Y0385
X02725Y04
X029Y0355
X029Y0405
X031Y04075
X031Y03275
X02725Y048
T3C.04724F139S55
X01168Y01384
X01168Y0118
X03988Y01192
X03988Y01384
T4C.05512F107S55
X016Y039
X016Y037
X0355Y037
X0355Y039
X0355Y041
X03175Y04425
X03175Y04625
X01975Y04625
X01975Y04425
X016Y041
X01975Y04825
X03175Y04825
M30
