*
*
G04 PADS Layout (Build Number 2007.42.1) generated Gerber (RS-274-X) file*
G04 PC Version=2.1*
*
%IN "755045-518e_v23.pcb"*%
*
%MOIN*%
*
%FSLAX24Y24*%
*
*
*
*
G04 PC Standard Apertures*
*
*
G04 Thermal Relief Aperture macro.*
%AMTER*
1,1,$1,0,0*
1,0,$1-$2,0,0*
21,0,$3,$4,0,0,45*
21,0,$3,$4,0,0,135*
%
*
*
G04 Annular Aperture macro.*
%AMANN*
1,1,$1,0,0*
1,0,$2,0,0*
%
*
*
G04 Odd Aperture macro.*
%AMODD*
1,1,$1,0,0*
1,0,$1-0.005,0,0*
%
*
*
G04 PC Custom Aperture Macros*
*
*
*
*
*
*
G04 PC Aperture Table*
*
%ADD010C,0.01*%
%ADD013C,0.06102*%
%ADD014C,0.04724*%
%ADD015C,0.05512*%
%ADD016C,0.06299*%
%ADD017C,0.0748*%
%ADD018C,0.11811*%
%ADD019C,0.11024*%
%ADD022C,0.04724*%
%ADD023C,0.01378*%
%ADD032C,0.01378*%
%ADD033C,0.04724*%
%ADD034C,0.012*%
%ADD035C,0.01969*%
%ADD036C,0.01654*%
%ADD040C,0.05906*%
%ADD044C,0.07874*%
%ADD052R,0.23622X0.23622*%
*
*
*
*
G04 PC Copper Outlines (0)*
G04 Layer Name 755045-518e_v23.pcb - dark (0)*
%LPD*%
*
*
G04 PC Area=Custom_Thermal*
*
G04 PC Custom Flashes*
G04 Layer Name 755045-518e_v23.pcb - flashes*
%LPD*%
*
*
G04 PC Circuitry*
G04 Layer Name 755045-518e_v23.pcb - circuitry*
%LPD*%
*
G54D10*
G01X101479Y58876D02*
X100962D01*
X100962D02*
Y59090D01*
X101479Y59359D02*
X101454Y59323D01*
X101454D02*
X101405Y59287D01*
X101405D02*
X101356Y59269D01*
X101356D02*
X101282Y59251D01*
X101282D02*
X101159D01*
X101159D02*
X101085Y59269D01*
X101085D02*
X101036Y59287D01*
X101036D02*
X100987Y59323D01*
X100962Y59359*
X100962D02*
Y59430D01*
X100962D02*
X100987Y59466D01*
X100987D02*
X101036Y59502D01*
X101085Y59520*
X101085D02*
X101159Y59538D01*
X101282*
X101356Y59520*
X101405Y59502*
X101405D02*
X101454Y59466D01*
X101454D02*
X101479Y59430D01*
X101479D02*
Y59359D01*
Y59699D02*
X100962D01*
X101479D02*
Y59824D01*
X101454Y59878*
X101454D02*
X101405Y59913D01*
X101405D02*
X101356Y59931D01*
X101356D02*
X101282Y59949D01*
X101282D02*
X101159D01*
X101159D02*
X101085Y59931D01*
X101085D02*
X101036Y59913D01*
X101036D02*
X100987Y59878D01*
X100962Y59824*
X100962D02*
Y59699D01*
X101479Y60110D02*
X100962D01*
X101479D02*
Y60236D01*
X101454Y60289*
X101454D02*
X101405Y60325D01*
X101405D02*
X101356Y60343D01*
X101282Y60361*
X101159*
X101085Y60343*
X101085D02*
X101036Y60325D01*
X101036D02*
X100987Y60289D01*
X100987D02*
X100962Y60236D01*
X100962D02*
Y60110D01*
X101479Y60522D02*
X100962D01*
X101479D02*
Y60755D01*
X101233Y60522D02*
Y60665D01*
X100962Y60522D02*
Y60755D01*
X101405Y61166D02*
X101454Y61130D01*
X101454D02*
X101479Y61077D01*
Y61005*
X101479D02*
X101454Y60951D01*
X101454D02*
X101405Y60916D01*
X101405D02*
X101356D01*
X101307Y60934*
X101282Y60951*
X101282D02*
X101257Y60987D01*
X101257D02*
X101208Y61095D01*
X101208D02*
X101184Y61130D01*
X101184D02*
X101159Y61148D01*
X101159D02*
X101110Y61166D01*
X101110D02*
X101036D01*
X101036D02*
X100987Y61130D01*
X100987D02*
X100962Y61077D01*
X100962D02*
Y61005D01*
X100962D02*
X100987Y60951D01*
X100987D02*
X101036Y60916D01*
X101479Y61327D02*
X100962D01*
X101479Y61488D02*
X100962D01*
X101479D02*
Y61614D01*
X101454Y61667*
X101454D02*
X101405Y61703D01*
X101405D02*
X101356Y61721D01*
X101282Y61739*
X101159*
X101085Y61721*
X101085D02*
X101036Y61703D01*
X100987Y61667*
X100987D02*
X100962Y61614D01*
X100962D02*
Y61488D01*
X101479Y61900D02*
X100962D01*
X101479D02*
Y62133D01*
X101233Y61900D02*
Y62043D01*
X100962Y61900D02*
Y62133D01*
X101479Y62956D02*
X100962Y62777D01*
X101479Y62705D02*
Y62956D01*
Y63349D02*
Y63170D01*
X101479D02*
X101257Y63153D01*
X101257D02*
X101282Y63170D01*
X101282D02*
X101307Y63224D01*
X101307D02*
Y63278D01*
X101282Y63332*
X101233Y63367*
X101233D02*
X101159Y63385D01*
X101159D02*
X101110Y63367D01*
X101110D02*
X101036Y63349D01*
X101036D02*
X100987Y63314D01*
X100962Y63260*
X100962D02*
Y63206D01*
X100962D02*
X100987Y63153D01*
X101011Y63135*
X101011D02*
X101061Y63117D01*
X101479Y63779D02*
Y63600D01*
X101257Y63582*
X101257D02*
X101282Y63600D01*
X101307Y63654*
Y63707*
X101307D02*
X101282Y63761D01*
X101233Y63797*
X101159Y63815*
X101110Y63797*
X101036Y63779*
X100987Y63743*
X100987D02*
X100962Y63689D01*
X100962D02*
Y63636D01*
X100962D02*
X100987Y63582D01*
X101011Y63564*
X101011D02*
X101061Y63546D01*
X101479Y64083D02*
X101454Y64029D01*
X101454D02*
X101380Y63994D01*
X101380D02*
X101257Y63976D01*
X101257D02*
X101184D01*
X101061Y63994*
X100987Y64029*
X100987D02*
X100962Y64083D01*
X100962D02*
Y64119D01*
X100962D02*
X100987Y64173D01*
X101061Y64208*
X101061D02*
X101184Y64226D01*
X101184D02*
X101257D01*
X101257D02*
X101380Y64208D01*
X101380D02*
X101454Y64173D01*
X101454D02*
X101479Y64119D01*
Y64083*
Y64566D02*
X101134Y64387D01*
X101134D02*
Y64656D01*
X101479Y64566D02*
X100962D01*
X101479Y65049D02*
Y64871D01*
X101257Y64853*
X101257D02*
X101282Y64871D01*
X101307Y64924*
X101307D02*
Y64978D01*
X101282Y65032*
X101233Y65067*
X101233D02*
X101159Y65085D01*
X101159D02*
X101110Y65067D01*
X101110D02*
X101036Y65049D01*
X101036D02*
X100987Y65014D01*
X100962Y64960*
X100962D02*
Y64906D01*
X100962D02*
X100987Y64853D01*
X101011Y64835*
X101011D02*
X101061Y64817D01*
X101184Y65246D02*
Y65568D01*
X101479Y65962D02*
Y65783D01*
X101479D02*
X101257Y65765D01*
X101257D02*
X101282Y65783D01*
X101282D02*
X101307Y65837D01*
Y65891*
X101282Y65944*
X101282D02*
X101233Y65980D01*
X101159Y65998*
X101110Y65980*
X101036Y65962*
X101036D02*
X100987Y65926D01*
X100987D02*
X100962Y65873D01*
X100962D02*
Y65819D01*
X100962D02*
X100987Y65765D01*
X100987D02*
X101011Y65747D01*
X101011D02*
X101061Y65729D01*
X101380Y66159D02*
X101405Y66195D01*
X101405D02*
X101479Y66248D01*
X101479D02*
X100962D01*
X101479Y66499D02*
X101454Y66445D01*
X101454D02*
X101405Y66427D01*
X101405D02*
X101356D01*
X101356D02*
X101307Y66445D01*
X101307D02*
X101282Y66481D01*
X101282D02*
X101257Y66553D01*
X101257D02*
X101233Y66606D01*
X101233D02*
X101184Y66642D01*
X101184D02*
X101134Y66660D01*
X101134D02*
X101061D01*
X101061D02*
X101011Y66642D01*
X101011D02*
X100987Y66624D01*
X100987D02*
X100962Y66571D01*
X100962D02*
Y66499D01*
X100962D02*
X100987Y66445D01*
X100987D02*
X101011Y66427D01*
X101011D02*
X101061Y66410D01*
X101134*
X101134D02*
X101184Y66427D01*
X101184D02*
X101233Y66463D01*
X101233D02*
X101257Y66517D01*
X101257D02*
X101282Y66588D01*
X101282D02*
X101307Y66624D01*
X101307D02*
X101356Y66642D01*
X101356D02*
X101405D01*
X101405D02*
X101454Y66624D01*
X101454D02*
X101479Y66571D01*
Y66499*
Y66821D02*
X100962D01*
X101479D02*
Y67054D01*
X101233Y66821D02*
Y66964D01*
X100962Y66821D02*
Y67054D01*
G54D13*
X50975Y35902D03*
X51975D03*
X18975Y65902D03*
X19975D03*
X18975Y66902D03*
X19975D03*
X21475Y65902D03*
X22475D03*
X21475Y66902D03*
X22475D03*
X96475Y51402D03*
X97475D03*
X96475Y52402D03*
X97475D03*
X48475Y35902D03*
X49475D03*
X48475Y36902D03*
X49475D03*
X53475Y35902D03*
X54475D03*
X53475Y36902D03*
X54475D03*
G54D14*
X76225Y70902D03*
X78225Y68902D03*
X84225Y70902D03*
X86225Y68902D03*
X16225Y17902D03*
X16725Y17402D03*
X17225Y17902D03*
X17725Y17402D03*
X19725Y18652D03*
X20225Y20152D03*
X21975Y17152D03*
X22975Y18152D03*
Y15152D03*
X23725Y15902D03*
X24725Y16152D03*
X25725Y16402D03*
X23725Y19152D03*
X24725D03*
X25725D03*
X57975Y18652D03*
X55975Y18152D03*
X55225Y16152D03*
X54725Y17152D03*
X55475Y19652D03*
X55725Y20652D03*
X56475Y21652D03*
X57475Y19652D03*
X52225Y18902D03*
Y19652D03*
X51725Y21152D03*
X51225Y20652D03*
X51975Y22152D03*
X49975Y19652D03*
X50975Y17402D03*
X50475Y15902D03*
X49725Y17152D03*
X48225Y18652D03*
X48725Y21402D03*
X49975Y22652D03*
X49225Y23152D03*
Y15152D03*
X47225Y14652D03*
X46725Y13652D03*
X55975Y14652D03*
X58725Y15652D03*
X72975D03*
X75975Y16152D03*
X74725Y13652D03*
X72725Y21652D03*
X73725D03*
X62475Y21152D03*
X63975Y22652D03*
X64475Y23152D03*
X65475Y22152D03*
X62975Y23652D03*
X63475Y24152D03*
X30725Y16652D03*
X34725D03*
X37725Y18652D03*
X26975Y18152D03*
X12475Y23152D03*
X21975Y23652D03*
X24975Y22902D03*
X23975D03*
X19475Y26152D03*
X18725Y23152D03*
X20225Y22652D03*
X19975Y26902D03*
X15725Y21652D03*
X13975Y24652D03*
X23225Y22152D03*
X24975Y26152D03*
X25475Y27152D03*
X23475D03*
X23975Y29152D03*
Y29902D03*
X24475Y31152D03*
X26475Y30152D03*
X27475D03*
X26725Y31652D03*
X24725Y35652D03*
X25475D03*
X21475Y34402D03*
X27975Y36652D03*
X28225Y35902D03*
Y35152D03*
X28975D03*
X30225Y35402D03*
X29725Y33152D03*
X29225Y37902D03*
X29475Y30652D03*
X33975Y33152D03*
Y31652D03*
X33475Y31152D03*
X34225Y30402D03*
X34725Y32152D03*
X33975Y27652D03*
X34725D03*
Y26902D03*
X32225Y26152D03*
X30225Y27152D03*
X39725D03*
X39225Y29152D03*
X39475Y31152D03*
X34225Y22152D03*
X35475D03*
X36225D03*
X32725Y21902D03*
X28725Y22402D03*
X27975Y18902D03*
X33475Y19402D03*
X27725Y13152D03*
X32225D03*
X72975Y32152D03*
X67475Y32402D03*
X68475Y35652D03*
X76975Y31902D03*
X70975Y36402D03*
X72975D03*
X73975Y36652D03*
X74975Y39402D03*
X75975D03*
X74475Y40152D03*
X73725Y39902D03*
X69975D03*
X68975Y39652D03*
X68475Y38652D03*
X64225Y37652D03*
X64475Y39152D03*
X64225Y40402D03*
X64475Y41652D03*
X63225Y43152D03*
X61225Y43402D03*
X62225Y43902D03*
X65975Y44152D03*
X67475Y43402D03*
X68475Y43652D03*
X69975D03*
X65475Y45652D03*
X63725Y46652D03*
X73975Y42652D03*
X72225Y43902D03*
X75475Y42652D03*
X76975Y42402D03*
Y43402D03*
X78475Y43652D03*
X79475D03*
X80975Y44652D03*
X77475Y40652D03*
X78475Y40402D03*
X78225Y39402D03*
X79225Y40402D03*
X77725Y38652D03*
X80475Y39402D03*
X81475Y38902D03*
X82725Y40402D03*
X83475Y40902D03*
X84225Y42402D03*
X83975Y43652D03*
X85725Y43152D03*
X84975Y41652D03*
X86475Y45152D03*
X86975Y46152D03*
X88975Y41652D03*
X89975Y40652D03*
X90975Y42152D03*
X91475Y44652D03*
X92475Y46152D03*
X89725Y47152D03*
X89975Y48652D03*
X89225Y51152D03*
X90475Y51652D03*
X91225Y50652D03*
X91975Y52152D03*
X78725Y36652D03*
X79475Y35152D03*
X78725Y35652D03*
X81975D03*
X83975D03*
X85975Y31652D03*
X86475Y32652D03*
X86975Y34152D03*
X87975Y35652D03*
X88975Y34902D03*
X91975Y36152D03*
X92475Y35402D03*
X93975D03*
X96475D03*
X94475Y34152D03*
X94975Y37902D03*
X91975Y39152D03*
X90475Y38402D03*
X66975Y48152D03*
X63975Y47652D03*
X61975Y47902D03*
X59975Y48152D03*
X67725Y48902D03*
X68225Y49902D03*
X69225Y49152D03*
X69475Y48402D03*
X69975Y48902D03*
X70475Y48402D03*
X71725Y47652D03*
X74475Y48152D03*
X73975Y51652D03*
X74975Y51402D03*
X75975Y51152D03*
X78225Y49152D03*
X78475Y51902D03*
X77975Y54652D03*
X78725D03*
X80475Y53902D03*
X81475Y49152D03*
X80475Y47152D03*
X83475Y52152D03*
X84975Y53652D03*
X85975Y54152D03*
X88975Y52652D03*
X86975Y57152D03*
X88975Y57652D03*
X88475Y60152D03*
X65975Y32652D03*
X64475Y33152D03*
X63475Y32402D03*
X62475D03*
X61725Y32902D03*
X60975Y32652D03*
X59975D03*
X59475Y29152D03*
X55725Y29652D03*
X55975Y28902D03*
X56975Y28402D03*
X58475Y27152D03*
X58975Y26152D03*
X56475Y27402D03*
X55725Y27902D03*
X53975Y28402D03*
X54975Y31402D03*
X51475Y24152D03*
X53975D03*
X51975Y26152D03*
X50975Y24652D03*
X50475Y25152D03*
X49725Y24652D03*
X49225Y25402D03*
X61975Y37652D03*
X61225Y37402D03*
X58725D03*
X57475Y37652D03*
X56975Y48652D03*
X58975D03*
X60475Y51152D03*
X58975Y52652D03*
X59975Y53402D03*
X61975Y52652D03*
X63975Y52152D03*
X64975Y51652D03*
X65225Y52652D03*
X66475Y50902D03*
X64725Y49902D03*
X53975Y48152D03*
X52475Y47902D03*
X49975Y48402D03*
Y47152D03*
X53975Y45402D03*
X56225Y45652D03*
X44975Y51152D03*
X44475Y50152D03*
X42975Y50652D03*
X43975Y51652D03*
X43475Y53402D03*
X42475D03*
X41475Y51652D03*
X40975Y51152D03*
X40475Y52152D03*
X39975Y53152D03*
Y50152D03*
X39475Y51152D03*
X38975Y51902D03*
X38475Y50902D03*
Y49902D03*
X77725Y56652D03*
X78725Y57652D03*
X77975Y58652D03*
X78975Y59652D03*
X76475Y59152D03*
X76225Y57902D03*
X78725Y61652D03*
X82225Y61152D03*
X69475Y60152D03*
X70975Y60402D03*
X73975Y62402D03*
X67725D03*
X66725Y59652D03*
X66975Y57902D03*
X65225Y57652D03*
X70975Y55902D03*
X31975Y36402D03*
X33475Y37152D03*
X34725Y38402D03*
X33225Y38902D03*
X26725Y41152D03*
X27975Y42152D03*
X22725Y43652D03*
X22975Y38652D03*
X24725Y46652D03*
X30475D03*
X27725Y50402D03*
X26475Y51652D03*
X26975Y52152D03*
X28475Y52652D03*
X28975Y53152D03*
X30475Y52152D03*
X33475Y51902D03*
X34475Y53652D03*
X32475Y54152D03*
X31475Y55152D03*
X35975Y51152D03*
X36225Y57152D03*
X35475Y57902D03*
X37975Y56902D03*
X47725Y50652D03*
X46725Y47652D03*
X46475Y46652D03*
X48975Y43652D03*
X45725Y40402D03*
X46475Y39402D03*
X50975Y39152D03*
X53725Y40902D03*
X55225Y39652D03*
X56225Y40152D03*
X52975Y33652D03*
X50725Y32152D03*
X50225Y31652D03*
X49225Y32402D03*
X48225Y32152D03*
X47475Y31652D03*
X45475Y31152D03*
X44475Y31902D03*
X45975Y33902D03*
X45475Y35402D03*
X46475Y36652D03*
X45975Y37152D03*
X42225Y33152D03*
X41975Y26652D03*
Y28402D03*
X32225Y30402D03*
X61475Y30152D03*
X66975Y27902D03*
X68225Y29152D03*
X69975Y27652D03*
X68725Y26152D03*
X71975Y27152D03*
X72975Y26152D03*
X78975Y14652D03*
X80225Y16652D03*
X81225Y17652D03*
X82975Y19152D03*
X81975Y20652D03*
X80725Y22652D03*
X81475Y23652D03*
X82475Y25152D03*
X79475Y26652D03*
X83975Y26152D03*
X86975Y25152D03*
X87975Y24152D03*
X88975Y23152D03*
X86475Y14652D03*
X90725Y12902D03*
X38725Y13152D03*
X39725D03*
X41725Y12902D03*
X43725Y13152D03*
X20975Y52652D03*
X20475Y53402D03*
X21975Y55652D03*
X22975Y56152D03*
X24475Y57152D03*
X25975Y57652D03*
X25225Y58652D03*
X23725D03*
X22475Y58152D03*
X21975Y57652D03*
X21475Y60652D03*
X26225Y60402D03*
X24975Y61152D03*
X25975Y61652D03*
X19975Y59902D03*
X18725Y61152D03*
X18225Y58652D03*
X18975Y57152D03*
X16725Y62152D03*
X14725Y62902D03*
X18975Y63152D03*
X13225Y63902D03*
X12475Y64652D03*
X15725Y68902D03*
X16225Y68152D03*
X16725Y68652D03*
X17225Y69652D03*
X19475Y68902D03*
X14725Y70652D03*
X25975Y65902D03*
X27225Y67152D03*
Y68152D03*
X35475D03*
X36225Y65652D03*
X40975D03*
X56975Y53902D03*
X55475Y52652D03*
Y51652D03*
X54475Y56902D03*
X51975Y56402D03*
X50975D03*
Y60652D03*
X55475D03*
X58475Y57402D03*
X59975Y56902D03*
X63725Y55152D03*
Y59402D03*
X60475Y60152D03*
X64725Y62402D03*
X63975Y63652D03*
X62975Y64402D03*
X60475Y65652D03*
X61225Y69152D03*
X59475Y69652D03*
X65975D03*
X56475Y68652D03*
X54725Y67902D03*
X55475Y65652D03*
X52475D03*
X54475Y63652D03*
X46725Y65652D03*
X42975Y60402D03*
X44975D03*
Y59402D03*
X45725Y58652D03*
X43475Y62152D03*
X31475Y60152D03*
X73725Y65402D03*
X74475Y69402D03*
X88225Y66902D03*
X92225Y68152D03*
X97475Y63652D03*
X98475Y64152D03*
X97975Y56652D03*
X92975Y31152D03*
X17725Y32652D03*
X17225Y31652D03*
X16725Y30652D03*
X16225Y30152D03*
X15725Y31902D03*
X22475Y25152D03*
X13225Y19652D03*
X39475Y37402D03*
X38725Y38652D03*
X40475Y39652D03*
X38475Y43402D03*
X36975Y43902D03*
X35225Y44402D03*
X36475Y47402D03*
X84475Y63152D03*
X89225Y58652D03*
X51475Y62152D03*
X37225Y19652D03*
X38225Y20652D03*
X45225Y69652D03*
X14725Y42152D03*
X13975Y43402D03*
Y48152D03*
X58475Y42152D03*
X30225Y69652D03*
X29225Y70652D03*
X86475Y61152D03*
X66725Y16152D03*
X61975D03*
X68725Y21652D03*
X65975Y34902D03*
X42975Y24652D03*
X52975Y57652D03*
X59512Y39126D03*
X33225Y14902D03*
G54D15*
X66475Y35652D03*
Y40652D03*
X67475Y35652D03*
Y40652D03*
X25975Y48652D03*
X26975D03*
X27975D03*
X28975D03*
X29975D03*
X30975D03*
X31975D03*
X32975D03*
X33975D03*
X34975D03*
X35975D03*
X36975D03*
X37975D03*
X38975D03*
X39975D03*
X40975D03*
X41975D03*
X42975D03*
X43975D03*
X44975D03*
Y54652D03*
X43975D03*
X42975D03*
X41975D03*
X40975D03*
X39975D03*
X38975D03*
X37975D03*
X36975D03*
X35975D03*
X34975D03*
X33975D03*
X32975D03*
X31975D03*
X30975D03*
X29975D03*
X28975D03*
X27975D03*
X26975D03*
X25975D03*
X59475Y13652D03*
Y14652D03*
Y15652D03*
Y16652D03*
Y17652D03*
Y18652D03*
Y19652D03*
Y20652D03*
Y21652D03*
Y22652D03*
Y23652D03*
Y24652D03*
Y25652D03*
Y26652D03*
X53475D03*
Y25652D03*
Y24652D03*
Y23652D03*
Y22652D03*
Y21652D03*
Y20652D03*
Y19652D03*
Y18652D03*
Y17652D03*
Y16652D03*
Y15652D03*
Y14652D03*
Y13652D03*
X67475D03*
Y14652D03*
Y15652D03*
Y16652D03*
Y17652D03*
Y18652D03*
Y19652D03*
Y20652D03*
Y21652D03*
Y22652D03*
Y23652D03*
Y24652D03*
Y25652D03*
Y26652D03*
X61475D03*
Y25652D03*
Y24652D03*
Y23652D03*
Y22652D03*
Y21652D03*
Y20652D03*
Y19652D03*
Y18652D03*
Y17652D03*
Y16652D03*
Y15652D03*
Y14652D03*
Y13652D03*
X75475D03*
Y14652D03*
Y15652D03*
Y16652D03*
Y17652D03*
Y18652D03*
Y19652D03*
Y20652D03*
Y21652D03*
Y22652D03*
Y23652D03*
Y24652D03*
Y25652D03*
Y26652D03*
X69475D03*
Y25652D03*
Y24652D03*
Y23652D03*
Y22652D03*
Y21652D03*
Y20652D03*
Y19652D03*
Y18652D03*
Y17652D03*
Y16652D03*
Y15652D03*
Y14652D03*
Y13652D03*
X83475D03*
Y14652D03*
Y15652D03*
Y16652D03*
Y17652D03*
Y18652D03*
Y19652D03*
Y20652D03*
Y21652D03*
Y22652D03*
Y23652D03*
Y24652D03*
Y25652D03*
Y26652D03*
X77475D03*
Y25652D03*
Y24652D03*
Y23652D03*
Y22652D03*
Y21652D03*
Y20652D03*
Y19652D03*
Y18652D03*
Y17652D03*
Y16652D03*
Y15652D03*
Y14652D03*
Y13652D03*
X91475D03*
Y14652D03*
Y15652D03*
Y16652D03*
Y17652D03*
Y18652D03*
Y19652D03*
Y20652D03*
Y21652D03*
Y22652D03*
Y23652D03*
Y24652D03*
Y25652D03*
Y26652D03*
X85475D03*
Y25652D03*
Y24652D03*
Y23652D03*
Y22652D03*
Y21652D03*
Y20652D03*
Y19652D03*
Y18652D03*
Y17652D03*
Y16652D03*
Y15652D03*
Y14652D03*
Y13652D03*
X99475D03*
Y14652D03*
Y15652D03*
Y16652D03*
Y17652D03*
Y18652D03*
Y19652D03*
Y20652D03*
Y21652D03*
Y22652D03*
Y23652D03*
Y24652D03*
Y25652D03*
Y26652D03*
X93475D03*
Y25652D03*
Y24652D03*
Y23652D03*
Y22652D03*
Y21652D03*
Y20652D03*
Y19652D03*
Y18652D03*
Y17652D03*
Y16652D03*
Y15652D03*
Y14652D03*
Y13652D03*
X40975Y24652D03*
Y25652D03*
Y26652D03*
Y27652D03*
Y28652D03*
Y29652D03*
Y30652D03*
Y31652D03*
Y32652D03*
Y33652D03*
X37975D03*
Y32652D03*
Y31652D03*
Y30652D03*
Y29652D03*
Y28652D03*
Y27652D03*
Y26652D03*
Y25652D03*
Y24652D03*
X35975D03*
Y25652D03*
Y26652D03*
Y27652D03*
Y28652D03*
Y29652D03*
Y30652D03*
Y31652D03*
Y32652D03*
Y33652D03*
X32975D03*
Y32652D03*
Y31652D03*
Y30652D03*
Y29652D03*
Y28652D03*
Y27652D03*
Y26652D03*
Y25652D03*
Y24652D03*
X30975D03*
Y25652D03*
Y26652D03*
Y27652D03*
Y28652D03*
Y29652D03*
Y30652D03*
Y31652D03*
Y32652D03*
Y33652D03*
X27975D03*
Y32652D03*
Y31652D03*
Y30652D03*
Y29652D03*
Y28652D03*
Y27652D03*
Y26652D03*
Y25652D03*
Y24652D03*
X25975D03*
Y25652D03*
Y26652D03*
Y27652D03*
Y28652D03*
Y29652D03*
Y30652D03*
Y31652D03*
Y32652D03*
Y33652D03*
X22975D03*
Y32652D03*
Y31652D03*
Y30652D03*
Y29652D03*
Y28652D03*
Y27652D03*
Y26652D03*
Y25652D03*
Y24652D03*
X45975Y25652D03*
Y26652D03*
Y27652D03*
Y28652D03*
Y29652D03*
Y30652D03*
Y31652D03*
X42975D03*
Y30652D03*
Y29652D03*
Y28652D03*
Y27652D03*
Y26652D03*
Y25652D03*
X56975Y30652D03*
X57975D03*
X58975D03*
X59975D03*
X60975D03*
X61975D03*
X62975D03*
X63975D03*
X64975D03*
X65975D03*
Y33652D03*
X64975D03*
X63975D03*
X62975D03*
X61975D03*
X60975D03*
X59975D03*
X58975D03*
X57975D03*
X56975D03*
Y35652D03*
X57975D03*
X58975D03*
X59975D03*
X60975D03*
X61975D03*
X62975D03*
Y38652D03*
X61975D03*
X60975D03*
X59975D03*
X58975D03*
X57975D03*
X56975D03*
X69975Y35652D03*
X70975D03*
X71975D03*
X72975D03*
X73975D03*
X74975D03*
X75975D03*
X76975D03*
Y38652D03*
X75975D03*
X74975D03*
X73975D03*
X72975D03*
X71975D03*
X70975D03*
X69975D03*
X68975Y30652D03*
X69975D03*
X70975D03*
X71975D03*
X72975D03*
X73975D03*
X74975D03*
X75975D03*
X76975D03*
X77975D03*
Y33652D03*
X76975D03*
X75975D03*
X74975D03*
X73975D03*
X72975D03*
X71975D03*
X70975D03*
X69975D03*
X68975D03*
X80475Y30652D03*
X81475D03*
X82475D03*
X83475D03*
X84475D03*
X85475D03*
X86475D03*
X87475D03*
X88475D03*
X89475D03*
X90475D03*
X91475D03*
X92475D03*
X93475D03*
X94475D03*
X95475D03*
X96475D03*
X97475D03*
X98475D03*
X99475D03*
Y36652D03*
X98475D03*
X97475D03*
X96475D03*
X95475D03*
X94475D03*
X93475D03*
X92475D03*
X91475D03*
X90475D03*
X89475D03*
X88475D03*
X87475D03*
X86475D03*
X85475D03*
X84475D03*
X83475D03*
X82475D03*
X81475D03*
X80475D03*
X73975Y41652D03*
X74975D03*
X75975D03*
X76975D03*
X77975D03*
X78975D03*
X79975D03*
Y44652D03*
X78975D03*
X77975D03*
X76975D03*
X75975D03*
X74975D03*
X73975D03*
X65475Y41652D03*
X66475D03*
X67475D03*
X68475D03*
X69475D03*
X70475D03*
X71475D03*
Y44652D03*
X70475D03*
X69475D03*
X68475D03*
X67475D03*
X66475D03*
X65475D03*
X56975Y41652D03*
X57975D03*
X58975D03*
X59975D03*
X60975D03*
X61975D03*
X62975D03*
Y44652D03*
X61975D03*
X60975D03*
X59975D03*
X58975D03*
X57975D03*
X56975D03*
X38975Y41652D03*
X39975D03*
X40975D03*
X41975D03*
X42975D03*
X43975D03*
X44975D03*
Y44652D03*
X43975D03*
X42975D03*
X41975D03*
X40975D03*
X39975D03*
X38975D03*
X65975Y46652D03*
X66975D03*
X67975D03*
X68975D03*
X69975D03*
X70975D03*
X71975D03*
X72975D03*
X73975D03*
X74975D03*
X75975D03*
X76975D03*
X77975D03*
X78975D03*
X79975D03*
X80975D03*
X81975D03*
X82975D03*
X83975D03*
X84975D03*
Y52652D03*
X83975D03*
X82975D03*
X81975D03*
X80975D03*
X79975D03*
X78975D03*
X77975D03*
X76975D03*
X75975D03*
X74975D03*
X73975D03*
X72975D03*
X71975D03*
X70975D03*
X69975D03*
X68975D03*
X67975D03*
X66975D03*
X65975D03*
X93475Y39652D03*
Y40652D03*
Y41652D03*
Y42652D03*
Y43652D03*
Y44652D03*
Y45652D03*
Y46652D03*
Y47652D03*
Y48652D03*
Y49652D03*
Y50652D03*
X87475D03*
Y49652D03*
Y48652D03*
Y47652D03*
Y46652D03*
Y45652D03*
Y44652D03*
Y43652D03*
Y42652D03*
Y41652D03*
Y40652D03*
Y39652D03*
X25475Y37652D03*
X30475D03*
X25475Y38652D03*
X30475D03*
X25475Y39652D03*
X30475D03*
X25475Y40652D03*
X30475D03*
X25475Y41652D03*
X30475D03*
X25475Y42652D03*
X30475D03*
X25475Y43652D03*
X30475D03*
X25475Y44652D03*
X30475D03*
X25475Y45652D03*
X30475D03*
X23975Y39652D03*
Y40652D03*
Y41652D03*
Y42652D03*
Y43652D03*
Y44652D03*
Y45652D03*
X20975D03*
Y44652D03*
Y43652D03*
Y42652D03*
Y41652D03*
Y40652D03*
Y39652D03*
X23975Y48652D03*
Y49652D03*
Y50652D03*
Y51652D03*
X20975D03*
Y50652D03*
Y49652D03*
Y48652D03*
X28975Y58652D03*
X29975D03*
X30975D03*
X31975D03*
X32975D03*
X33975D03*
X34975D03*
Y61652D03*
X33975D03*
X32975D03*
X31975D03*
X30975D03*
X29975D03*
X28975D03*
X37975Y58652D03*
X38975D03*
X39975D03*
X40975D03*
X41975D03*
X42975D03*
X43975D03*
Y61652D03*
X42975D03*
X41975D03*
X40975D03*
X39975D03*
X38975D03*
X37975D03*
Y64152D03*
X38975D03*
X39975D03*
X40975D03*
X41975D03*
X42975D03*
X43975D03*
Y67152D03*
X42975D03*
X41975D03*
X40975D03*
X39975D03*
X38975D03*
X37975D03*
X28975Y64152D03*
X29975D03*
X30975D03*
X31975D03*
X32975D03*
X33975D03*
X34975D03*
Y67152D03*
X33975D03*
X32975D03*
X31975D03*
X30975D03*
X29975D03*
X28975D03*
X48475Y46652D03*
X49475D03*
X50475D03*
X51475D03*
X52475D03*
X53475D03*
X54475D03*
Y49652D03*
X53475D03*
X52475D03*
X51475D03*
X50475D03*
X49475D03*
X48475D03*
X56975Y46652D03*
X57975D03*
X58975D03*
X59975D03*
X60975D03*
X61975D03*
X62975D03*
Y49652D03*
X61975D03*
X60975D03*
X59975D03*
X58975D03*
X57975D03*
X56975D03*
Y51652D03*
X57975D03*
X58975D03*
X59975D03*
X60975D03*
X61975D03*
X62975D03*
Y54652D03*
X61975D03*
X60975D03*
X59975D03*
X58975D03*
X57975D03*
X56975D03*
X48475Y51652D03*
X49475D03*
X50475D03*
X51475D03*
X52475D03*
X53475D03*
X54475D03*
Y54652D03*
X53475D03*
X52475D03*
X51475D03*
X50475D03*
X49475D03*
X48475D03*
X47475Y41652D03*
X48475D03*
X49475D03*
X50475D03*
X51475D03*
X52475D03*
X53475D03*
X54475D03*
Y44652D03*
X53475D03*
X52475D03*
X51475D03*
X50475D03*
X49475D03*
X48475D03*
X47475D03*
X79975Y55652D03*
Y56652D03*
Y57652D03*
Y58652D03*
Y59652D03*
Y60652D03*
Y61652D03*
X76975D03*
Y60652D03*
Y59652D03*
Y58652D03*
Y57652D03*
Y56652D03*
Y55652D03*
X85975D03*
Y56652D03*
Y57652D03*
Y58652D03*
Y59652D03*
Y60652D03*
Y61652D03*
X82975D03*
Y60652D03*
Y59652D03*
Y58652D03*
Y57652D03*
Y56652D03*
Y55652D03*
X90475D03*
Y56652D03*
Y57652D03*
Y58652D03*
Y59652D03*
Y60652D03*
Y61652D03*
X87475D03*
Y60652D03*
Y59652D03*
Y58652D03*
Y57652D03*
Y56652D03*
Y55652D03*
X94975D03*
Y56652D03*
Y57652D03*
Y58652D03*
Y59652D03*
Y60652D03*
Y61652D03*
X91975D03*
Y60652D03*
Y59652D03*
Y58652D03*
Y57652D03*
Y56652D03*
Y55652D03*
X99475D03*
Y56652D03*
Y57652D03*
Y58652D03*
Y59652D03*
Y60652D03*
Y61652D03*
X96475D03*
Y60652D03*
Y59652D03*
Y58652D03*
Y57652D03*
Y56652D03*
Y55652D03*
X50975Y64152D03*
X51975D03*
X52975D03*
X53975D03*
X54975D03*
X55975D03*
X56975D03*
Y67152D03*
X55975D03*
X54975D03*
X53975D03*
X52975D03*
X51975D03*
X50975D03*
X88475Y28652D03*
X89475D03*
X90475D03*
X91475D03*
X92475D03*
X93475D03*
X94475D03*
X95475D03*
X96475D03*
X36975Y46652D03*
X37975D03*
X38975D03*
X39975D03*
X40975D03*
X41975D03*
X42975D03*
X43975D03*
X44975D03*
X38975Y40152D03*
X43975D03*
X49475D03*
X54475D03*
X59975Y58652D03*
X60975D03*
X61975D03*
X62975D03*
Y61652D03*
X61975D03*
X60975D03*
X59975D03*
X50975Y58652D03*
X51975D03*
X52975D03*
X53975D03*
X54975D03*
X55975D03*
X56975D03*
Y61652D03*
X55975D03*
X54975D03*
X53975D03*
X52975D03*
X51975D03*
X50975D03*
X66975Y58652D03*
X67975D03*
X68975D03*
X69975D03*
X70975D03*
X71975D03*
X72975D03*
X73975D03*
X74975D03*
X64975D03*
Y63652D03*
X65975Y65152D03*
X63975Y66152D03*
X65975Y67652D03*
X63975Y68652D03*
X81475Y55652D03*
Y56652D03*
Y57652D03*
Y58652D03*
Y59652D03*
X96975Y42152D03*
X98975D03*
X47475Y40152D03*
X48475D03*
X46475D03*
X31725Y43652D03*
Y44652D03*
Y42652D03*
X28975Y57652D03*
X29975D03*
X27975D03*
X31975D03*
X32975D03*
X30975D03*
X37975D03*
X38975D03*
X36975D03*
X29975Y62652D03*
X30975D03*
X28975D03*
X32975D03*
X33975D03*
X31975D03*
X40975Y57652D03*
X41975D03*
X39975D03*
X38975Y62652D03*
X39975D03*
X37975D03*
X41975D03*
X42975D03*
X40975D03*
X50975Y57652D03*
X51975D03*
X49975D03*
X51975Y62652D03*
X52975D03*
X50975D03*
X54975D03*
X55975D03*
X53975D03*
X96975Y39652D03*
Y40652D03*
Y38652D03*
X98975Y39652D03*
Y40652D03*
Y38652D03*
X22975Y51652D03*
X21975Y50652D03*
X22975Y49652D03*
X32975Y39652D03*
X31975Y38652D03*
X32975Y37652D03*
X74412Y63626D03*
X69412D03*
G54D16*
X22725Y69152D03*
X23725D03*
X24725D03*
X25725D03*
X26725D03*
X27725D03*
X28725D03*
X29725D03*
X30725D03*
X31725D03*
X32725D03*
X33725D03*
X34725D03*
X35725D03*
X36725D03*
X37725D03*
X38725D03*
X39725D03*
X40725D03*
X41725D03*
X42725D03*
X43725D03*
X44725D03*
X45725D03*
X46725D03*
X47725D03*
X48725D03*
X49725D03*
X50725D03*
X51725D03*
X52725D03*
X53725D03*
X22725Y70152D03*
X23725D03*
X24725D03*
X25725D03*
X26725D03*
X27725D03*
X28725D03*
X29725D03*
X30725D03*
X31725D03*
X32725D03*
X33725D03*
X34725D03*
X35725D03*
X36725D03*
X37725D03*
X38725D03*
X39725D03*
X40725D03*
X41725D03*
X42725D03*
X43725D03*
X44725D03*
X45725D03*
X46725D03*
X47725D03*
X48725D03*
X49725D03*
X50725D03*
X51725D03*
X52725D03*
X53725D03*
X22725Y71152D03*
X23725D03*
X24725D03*
X25725D03*
X26725D03*
X27725D03*
X28725D03*
X29725D03*
X30725D03*
X31725D03*
X32725D03*
X33725D03*
X34725D03*
X35725D03*
X36725D03*
X37725D03*
X38725D03*
X39725D03*
X40725D03*
X41725D03*
X42725D03*
X43725D03*
X44725D03*
X45725D03*
X46725D03*
X47725D03*
X48725D03*
X49725D03*
X50725D03*
X51725D03*
X52725D03*
X53725D03*
X17725Y44152D03*
Y45152D03*
Y46152D03*
Y47152D03*
Y48152D03*
Y49152D03*
Y50152D03*
Y51152D03*
Y52152D03*
Y53152D03*
Y54152D03*
Y55152D03*
Y56152D03*
Y57152D03*
Y58152D03*
Y59152D03*
Y60152D03*
Y61152D03*
X16725Y44152D03*
Y45152D03*
Y46152D03*
Y47152D03*
Y48152D03*
Y49152D03*
Y50152D03*
Y51152D03*
Y52152D03*
Y53152D03*
Y54152D03*
Y55152D03*
Y56152D03*
Y57152D03*
Y58152D03*
Y59152D03*
Y60152D03*
Y61152D03*
X21725Y20152D03*
X22725D03*
X23725D03*
X24725D03*
X25725D03*
X26725D03*
X27725D03*
X28725D03*
X29725D03*
X30725D03*
X31725D03*
X32725D03*
X33725D03*
X34725D03*
X35725D03*
X36725D03*
X37725D03*
X38725D03*
X21725Y21152D03*
X22725D03*
X23725D03*
X24725D03*
X25725D03*
X26725D03*
X27725D03*
X28725D03*
X29725D03*
X30725D03*
X31725D03*
X32725D03*
X33725D03*
X34725D03*
X35725D03*
X36725D03*
X37725D03*
X38725D03*
X67725Y67152D03*
X68725D03*
X69725D03*
X70725D03*
X71725D03*
X72725D03*
X73725D03*
Y70152D03*
X72725D03*
X71725D03*
X70725D03*
X69725D03*
X68725D03*
X67725D03*
X27225Y61652D03*
Y60652D03*
Y58652D03*
X76725Y64652D03*
X77725D03*
X78725D03*
X79725D03*
X80725D03*
X81725D03*
X82725D03*
X83725D03*
X84725D03*
X85725D03*
X86725D03*
X87725D03*
X88725D03*
X89725D03*
X90725D03*
X76225Y66902D03*
X77225D03*
X78225D03*
X76225Y67902D03*
X77225D03*
X78225D03*
X75225Y70902D03*
X79225Y68902D03*
X84225Y66902D03*
X85225D03*
X86225D03*
X84225Y67902D03*
X85225D03*
X86225D03*
X83225Y70902D03*
X87225Y68902D03*
X96475Y11902D03*
X95475D03*
X93475D03*
X88475D03*
X87475D03*
X85475D03*
X80475D03*
X79475D03*
X77475D03*
X72475D03*
X71475D03*
X69475D03*
X56475D03*
X55475D03*
X53475D03*
X64475D03*
X63475D03*
X61475D03*
X15225Y29652D03*
Y28652D03*
Y19652D03*
X18725D03*
Y20652D03*
Y29652D03*
X81975Y44902D03*
X82975D03*
X84975D03*
X81975Y39652D03*
X82975D03*
X84975D03*
X99475Y63652D03*
Y64652D03*
Y66652D03*
X67725Y65402D03*
X68725D03*
X70725D03*
X74975Y55652D03*
X73975D03*
X71975D03*
X45975Y23652D03*
X44975D03*
X42975D03*
X58975Y64152D03*
X61975D03*
X58975Y66152D03*
X61975D03*
Y71152D03*
X58975D03*
X90475Y53902D03*
X89475D03*
X87475D03*
X62975Y29152D03*
X63975D03*
X65975D03*
X74975D03*
X75975D03*
X77975D03*
X65225Y38402D03*
Y37402D03*
Y35402D03*
X59975Y40152D03*
X60975D03*
X62975D03*
X40975Y38652D03*
X41975D03*
X43975D03*
X37475Y44652D03*
X36475D03*
X34475D03*
X46725Y51652D03*
Y50652D03*
Y48652D03*
X40975Y35402D03*
X39975D03*
X37975D03*
X21475Y27652D03*
Y26652D03*
Y24652D03*
X100225Y41152D03*
Y40152D03*
Y38152D03*
X20975Y37652D03*
X21975D03*
X23975D03*
X66725Y61152D03*
X68725D03*
X70725D03*
X72725D03*
X74725D03*
X95475Y45402D03*
X97975Y49152D03*
X100475Y45402D03*
X13975Y31652D03*
X20975D03*
X14225Y12152D03*
X15225D03*
X16225D03*
X17225D03*
X18225D03*
X19225D03*
X20225D03*
X21225D03*
X22225D03*
X23225D03*
X24225D03*
X25225D03*
X26225D03*
X27225D03*
X28225D03*
X29225D03*
X30225D03*
X31225D03*
X32225D03*
X33225D03*
X34225D03*
X35225D03*
X36225D03*
X37225D03*
X38225D03*
X39225D03*
X40225D03*
X41225D03*
X42225D03*
X43225D03*
X44225D03*
X45225D03*
X14225Y14152D03*
X15225D03*
X16225D03*
X17225D03*
X18225D03*
X19225D03*
X20225D03*
X21225D03*
X22225D03*
X23225D03*
X24225D03*
X25225D03*
X26225D03*
X27225D03*
X28225D03*
X29225D03*
X30225D03*
X31225D03*
X32225D03*
X33225D03*
X34225D03*
X35225D03*
X36225D03*
X37225D03*
X38225D03*
X39225D03*
X40225D03*
X41225D03*
X42225D03*
X43225D03*
X44225D03*
X45225D03*
X12225Y11152D03*
X47225D03*
G54D17*
X14725Y35152D03*
X19725D03*
G54D18*
X41225Y19652D03*
X35725Y40652D03*
X16725Y39152D03*
X47725Y61152D03*
G54D19*
X55725Y72152D03*
X20725D03*
X64725Y71652D03*
X94225Y71902D03*
X99725Y71652D03*
G54D22*
X16225Y12152D02*
X17225D01*
X15225D02*
X15895Y11481D01*
X15895D02*
X20555D01*
X20555D02*
X21225Y12152D01*
X22225D02*
X22874Y11502D01*
X22874D02*
X26575D01*
X26575D02*
X27225Y12152D01*
X29225D02*
X29875Y11502D01*
X35575*
X36225Y12152*
X28225D02*
X29225D01*
X74725Y13652D02*
Y12720D01*
X74793Y12652*
X77475Y13652D02*
X83475D01*
X91475D02*
X85475D01*
X83475*
X99475D02*
X93475D01*
X91475*
X11975Y17152D02*
X13671D01*
X14225Y16597*
X14225D02*
Y14902D01*
X21975Y17152D02*
X26173D01*
X26173D02*
X26673Y16652D01*
X26673D02*
X30725D01*
X34725*
X13225Y19652D02*
X15225D01*
X20225Y20152D02*
X21725D01*
X13975Y24652D02*
X21475D01*
Y24561*
X22975*
Y24652*
X24980*
X24980D02*
X25730Y23902D01*
X25730D02*
X27225D01*
X27975Y24652*
X28725Y23902*
X32225*
X32975Y24652*
X33725Y23902*
X37225*
X37975Y24652*
X38694Y23932*
X38694D02*
X42337D01*
X42975Y23652*
X55725Y29652D02*
X57924D01*
X58424Y29152*
X63975D02*
X64725Y29902D01*
X66974*
X66974D02*
X67724Y29152D01*
X65975Y30652D02*
X67822D01*
X68572Y29902*
X77225*
X77975Y30652*
X78716Y29910*
X78716D02*
X96190D01*
X96190D02*
X96475Y29626D01*
X96756Y29907*
X98730*
X99475Y30652*
X96475Y28652D02*
Y29626D01*
X32973Y34402D02*
Y33652D01*
X32973D02*
X32975D01*
X35975D02*
X37975D01*
X40975*
X44475Y31902D02*
Y31781D01*
X44475D02*
X45975D01*
X45975D02*
Y31652D01*
X47475*
X20975Y37652D02*
X21975D01*
X23975D02*
X25475D01*
X62975Y35652D02*
X64975D01*
X65225Y35402*
X66475Y35652D02*
X67475D01*
X68475*
X77725Y38652D02*
X78788D01*
X79975Y39839*
Y41652*
X76975Y35652D02*
X78725D01*
X30475Y39652D02*
X32975D01*
X41975Y41652D02*
X42975D01*
X44975D02*
X45736Y42412D01*
X45736D02*
X53714D01*
X53714D02*
X54475Y41652D01*
X42975D02*
X43725Y42402D01*
X44225*
X44975Y41652*
X54475D02*
X54977D01*
X56400Y43075*
X60476*
X60740Y42811*
X62758*
X63225Y43152*
X63225*
X79975Y41652D02*
X84975D01*
Y39652D02*
X87475D01*
X13975Y43402D02*
X19408D01*
X19408D02*
X19700Y43693D01*
X19700D02*
Y46279D01*
X19700D02*
X20073Y46652D01*
X24725*
X30475*
X33731*
X34475Y45908*
Y44652*
X49469Y45402D02*
Y44652D01*
X49469D02*
X49475D01*
X50475Y46652D02*
X51225Y47402D01*
X51725*
X52475Y46652*
Y44652D02*
X53475D01*
X54475*
X52475Y46652D02*
X53225Y47402D01*
X53725*
X54475Y46652*
X84975D02*
X85975Y47652D01*
X87475*
X44975Y48652D02*
X46725D01*
X87475Y49652D02*
X93475D01*
Y50652D02*
X94212D01*
X94212D02*
X95712Y49152D01*
X95712D02*
X97975D01*
X53475Y51652D02*
X54475D01*
X25225Y58652D02*
X27225D01*
X27855Y59281*
X27855D02*
X34345D01*
X34345D02*
X34975Y58652D01*
X35605Y59281*
X35605D02*
X43345D01*
X43345D02*
X43975Y58652D01*
X45725D02*
X49238D01*
X49238D02*
X50212Y59626D01*
X50212D02*
X56001D01*
X56975Y58652*
X43975D02*
X45725D01*
X56975D02*
X57725Y59402D01*
X63725*
Y55152D02*
X71475D01*
X71975Y55652*
X72725Y54902*
X76225*
X76975Y55652*
X73975D02*
X74975D01*
X76975D02*
X78725D01*
X79475Y54902*
X80725*
X81475Y55652*
X82975*
X83725Y54902*
X86725*
X87475Y55652*
X90475*
X91975*
X92725Y54902*
X95725*
X96475Y55652*
X14725Y62902D02*
X17600D01*
X18141Y62360*
X18141D02*
X26516D01*
X26516D02*
X27225Y61652D01*
X28975*
X41975Y62652D02*
X42704Y63381D01*
X42704D02*
X50245D01*
X50245D02*
X50975Y62652D01*
X87475Y59652D02*
X88075D01*
X88325Y59402*
X89725*
X90475Y58652*
X12475Y64652D02*
X26478D01*
X28253Y66427*
X34250*
X34250D02*
X34975Y67152D01*
X13225Y63902D02*
X27211D01*
X28071Y64762*
X28071D02*
X34365D01*
X34975Y64152*
X35585Y64762*
X43365*
X43975Y64152*
X44585Y64762*
X56365*
X56975Y64152*
X62975Y64402D02*
X64225D01*
X64975Y63652*
X69386*
X69386D02*
X69412Y63626D01*
X69412D02*
X70312D01*
X70312D02*
X70725Y64038D01*
X70725D02*
Y65402D01*
X73725*
X90725Y64652D02*
X91756D01*
X91756D02*
X93756Y66652D01*
X93756D02*
X99475D01*
X14725Y70652D02*
X20938D01*
X20938D02*
X22112Y71826D01*
X22112D02*
X26051D01*
X26725Y71152*
X34975Y67152D02*
X35720Y66406D01*
X35720D02*
X43229D01*
X43229D02*
X43975Y67152D01*
G54D23*
X59475Y16652D02*
X59919D01*
X60262Y16309*
X59475Y15652D02*
X59923D01*
X60294Y15280*
X69475Y16652D02*
X73960D01*
X73960D02*
X74403Y17094D01*
X74403D02*
X76423D01*
X76423D02*
X76865Y16652D01*
X76865D02*
X77475D01*
X69475Y17652D02*
X74116D01*
X74590Y18126*
X76365*
X76839Y17652*
X77475*
X69475Y18652D02*
X73905D01*
X74379Y19126*
X76365*
X76839Y18652*
X77475*
X72975Y15652D02*
X73937D01*
X73937D02*
X74437Y16152D01*
X74437D02*
X75975D01*
X83475Y17652D02*
X83885D01*
X83885D02*
X84263Y17274D01*
X83475Y16652D02*
X83877D01*
X84377Y16152*
X84920*
X83475Y15652D02*
X83869D01*
X84369Y15152*
X25242Y20952D02*
Y22245D01*
X25242D02*
X26121Y23124D01*
X26121D02*
X41502D01*
X41502D02*
X41711Y22915D01*
X41711D02*
X46298D01*
X46298D02*
X48034Y24652D01*
X48034D02*
X49725D01*
X25242Y20952D02*
X25725Y20469D01*
X24725Y21152D02*
X24717Y21143D01*
X24717D02*
X25207Y20653D01*
X23975Y22902D02*
Y22041D01*
X24225Y21791*
Y20969*
X24225D02*
X24725Y20469D01*
X24725D02*
Y20152D01*
Y19152D02*
X25207Y19634D01*
Y20653*
X25725Y20152D02*
Y20469D01*
X32725Y21902D02*
X32975D01*
X33725Y21152*
Y20902*
X33975Y20652*
X31725Y21152D02*
X32225Y20652D01*
Y18908*
X32225D02*
X32482Y18652D01*
X36430*
X37634Y17447*
X37634D02*
X43732D01*
X46432Y20147*
X50438*
X50438D02*
X50934Y19652D01*
X52225*
X49944Y21652D02*
X52475D01*
X53475Y20652*
X53975Y21152*
X55458*
X41975Y26652D02*
X42475Y27152D01*
X43885*
X83475Y24652D02*
X83885D01*
X84385Y24152*
X32975Y29652D02*
Y29821D01*
X32975D02*
X35305Y32152D01*
X36975*
X37475Y32652*
X37975*
X39503Y27652D02*
X40184D01*
X40184D02*
X40684Y27152D01*
X40684D02*
X41475D01*
X41975Y26652*
X56975Y28402D02*
X87671D01*
X88173Y27899*
X88173D02*
X90255D01*
X90255D02*
X90475Y28119D01*
Y28652*
X59975Y30652D02*
Y30299D01*
X60122Y30152*
X61475*
X76975Y30652D02*
X77449Y31126D01*
X85412*
X85412D02*
X85438Y31152D01*
X85438D02*
X92975D01*
X15725Y31902D02*
Y33536D01*
X16022Y33833*
X19836*
X19836D02*
X21030Y35027D01*
X25600*
X27628Y37055*
X27628D02*
X28706D01*
X28706D02*
X29075Y36686D01*
X29075D02*
X31516D01*
X31516D02*
X31635Y36805D01*
X31635D02*
X32355D01*
X32355D02*
X32736Y36424D01*
X32736D02*
X35994D01*
X35994D02*
X36463Y36893D01*
X36463D02*
X44726D01*
X46731Y34887*
X46731D02*
X55759D01*
X55759D02*
X55989Y34657D01*
X55989D02*
X60287D01*
X60287D02*
X60577Y34367D01*
X60577D02*
X64231D01*
X64231D02*
X64500Y34098D01*
X64500D02*
X65154D01*
X65154D02*
X65475Y33778D01*
Y33525*
X65475D02*
X65791Y33209D01*
X65791D02*
X69158D01*
X69158D02*
X69475Y33525D01*
X69475D02*
Y33778D01*
X69791Y34094*
X69791D02*
X72532D01*
X72532D02*
X72975Y33652D01*
X32975Y31652D02*
X33975D01*
X40975D02*
Y32152D01*
X57997Y34150D02*
X60103D01*
X60103D02*
X60475Y33778D01*
Y33152*
X60975Y32652*
X25475Y35652D02*
X27224Y37400D01*
X27224D02*
X28966D01*
X28966D02*
X29444Y36922D01*
X29444D02*
X31245D01*
X31245D02*
X31476Y37154D01*
X31476D02*
X32553D01*
X32553D02*
X33047Y36660D01*
X33047D02*
X35729D01*
X35729D02*
X36470Y37402D01*
X39475*
X24725Y35652D02*
X27378Y38305D01*
X27378D02*
X29793D01*
X29793D02*
X29890Y38209D01*
X32209*
X32331Y38331*
X33548*
X34202Y37676*
X34202D02*
X35245D01*
X35245D02*
X35704Y38136D01*
X35704D02*
X37659D01*
X38251Y38728*
Y38748*
X38251D02*
X39558Y40055D01*
X39558D02*
X40904D01*
X40904D02*
X41570Y39390D01*
X45230*
X46225Y38395*
X56224*
X56452Y38166*
X56452D02*
X58185D01*
X58185D02*
X58475Y38456D01*
X58475D02*
Y39380D01*
X58734Y39639*
X58734D02*
X63307D01*
X63307D02*
X63649Y39981D01*
Y40483*
X64049Y40883*
X64049D02*
X65444D01*
X65444D02*
X66194Y40133D01*
X67733*
X67733D02*
X68207Y40607D01*
X68207D02*
X70086D01*
X70086D02*
X70791Y39902D01*
X70791D02*
X73725D01*
X30225Y35402D02*
Y35391D01*
X30446Y35170*
X36184*
X36458Y34896*
X43710*
X43710D02*
X45435Y33172D01*
X51448*
X51968Y32652*
X51968D02*
X59975D01*
X28975Y35152D02*
X29248Y34878D01*
X29248D02*
X35993D01*
X35993D02*
X36222Y34650D01*
X43473*
X43473D02*
X45204Y32919D01*
X45204D02*
X51188D01*
X51188D02*
X51740Y32368D01*
X59500*
X59722Y32146*
X62219*
X62475Y32402*
X28225Y35152D02*
X28969Y35896D01*
X30457*
X30457D02*
X30930Y35423D01*
X30930D02*
X36959D01*
X36959D02*
X37440Y35903D01*
X37440D02*
X43215D01*
X43215D02*
X45703Y33415D01*
X45703D02*
X51725D01*
X51725D02*
X52211Y32929D01*
X52211D02*
X57724D01*
X57975Y33180*
Y33652*
X27975Y36652D02*
X28577D01*
X28811Y36417*
X28811D02*
X31075D01*
X31584Y35907*
X31584D02*
X36455D01*
X36455D02*
X36927Y36380D01*
X36927D02*
X43743D01*
X45479Y34644*
X55485*
X55485D02*
X55725Y34404D01*
X55725D02*
X60195D01*
X60195D02*
X60476Y34123D01*
X60476D02*
X64130D01*
X64475Y33778*
Y33152*
X33225Y38902D02*
X33235Y38911D01*
X33235D02*
X33454D01*
X33454D02*
X34453Y37913D01*
X34453D02*
X34982D01*
X35454Y38385*
X37574*
X37944Y38755*
X37944D02*
Y40421D01*
X37944D02*
X38166Y40643D01*
X40913*
X41888Y39667*
X41888D02*
X45458D01*
X45458D02*
X46477Y38649D01*
X55736*
X56222Y39135*
X56222D02*
X57857D01*
X57983Y39009*
Y38659*
X34725Y38402D02*
X34970Y38647D01*
X37502*
X37680Y38825*
X37680D02*
Y40623D01*
X37966Y40909*
X40312*
X40312D02*
Y40926D01*
X40312D02*
X45201D01*
X45725Y40402*
X31975Y36402D02*
X32233Y36143D01*
X32233D02*
X36216D01*
X39475Y37402D02*
X44726D01*
X45476Y36652*
X46475*
X57975Y38652D02*
X57983Y38659D01*
X59975Y38652D02*
X60418Y38209D01*
X64226*
X64226D02*
X65112Y39094D01*
X65112D02*
X70221D01*
X70221D02*
X70475Y38841D01*
Y38359*
X70475D02*
X70719Y38115D01*
X70719D02*
X90188D01*
X90475Y38402*
X60975Y38652D02*
X61480Y39157D01*
X63679*
X64158Y39636*
X64655*
X64891Y39399*
X64891D02*
X68722D01*
X68722D02*
X68975Y39652D01*
X26725Y41152D02*
X32891D01*
X34123Y42383*
X34123D02*
X37333D01*
X37333D02*
X38527Y41189D01*
X38527D02*
X48012D01*
X48012D02*
X48475Y41652D01*
X23975Y40652D02*
X24041D01*
X25475D02*
X26111Y41288D01*
Y43152*
X48475Y41652D02*
X48971Y41155D01*
X48971D02*
X53471D01*
X53471D02*
X53725Y40902D01*
X53978Y41155*
X53978D02*
X59982D01*
X50975Y39152D02*
X55444D01*
X55444D02*
X55725Y39432D01*
Y40371*
X55725D02*
X56021Y40668D01*
X63264*
X63718Y41122*
X63718D02*
X67765D01*
X67765D02*
X68019Y40868D01*
X70279*
X70279D02*
X70816Y40331D01*
X70816D02*
X73878D01*
X73878D02*
X74058Y40152D01*
X74058D02*
X74475D01*
X55225Y39652D02*
Y40664D01*
X55479Y40918*
X55479D02*
X62988D01*
X62988D02*
X64198Y42128D01*
X67701*
X67975Y41854*
Y41380*
X67975D02*
X68226Y41129D01*
X68226D02*
X69475D01*
X59982Y41155D02*
X62105D01*
X62105D02*
X62512Y41563D01*
X62512D02*
Y41843D01*
X62512D02*
X62801Y42132D01*
X63566*
X63798Y42364*
X63798D02*
X71967D01*
X71967D02*
X72184Y42147D01*
X72184D02*
X76720D01*
X76720D02*
X76975Y42402D01*
X59512Y39126D02*
X59785Y39398D01*
X63493*
X63967Y39872*
X64959*
X65175Y39655*
X65175D02*
X68241D01*
X68241D02*
X68641Y40055D01*
X68641D02*
X69180D01*
X69180D02*
X69872Y39363D01*
X69872D02*
X70382D01*
X70382D02*
X70616Y39130D01*
X73496*
X73496D02*
X73975Y38652D01*
X59975Y41652D02*
X59982D01*
X59982D02*
Y41155D01*
X69475Y41652D02*
Y41129D01*
X70474*
X71009Y40594*
X71009D02*
X74985D01*
X74985D02*
X75581Y39998D01*
X75581D02*
X78821D01*
X78821D02*
X79225Y40402D01*
X70475Y41652D02*
X71251Y40875D01*
X71251D02*
X75072D01*
X75072D02*
X75699Y40248D01*
X75699D02*
X77780D01*
X77933Y40402*
X77933D02*
X78475D01*
X82725D02*
X82973Y40153D01*
X82973D02*
X85460D01*
X85460D02*
X85497Y40117D01*
X46475Y46652D02*
X48475D01*
X48975Y43652D02*
X49225Y43402D01*
X54965*
X54965D02*
X55713Y44149D01*
X55713D02*
X61977D01*
X61977D02*
X62225Y43902D01*
X59975Y46652D02*
Y46985D01*
X60140Y47150*
X62477*
X62975Y46652*
X66475Y44652D02*
Y44328D01*
X66671Y44132*
X70222*
X70222D02*
X70706Y43648D01*
X71971*
X71971D02*
X72225Y43902D01*
X71975Y46652D02*
X72418Y46209D01*
X80158*
X80158D02*
X80475Y46525D01*
X80475D02*
Y47152D01*
X16242Y50634D02*
Y61669D01*
X16242D02*
X16725Y62152D01*
X16242Y50634D02*
X16725Y50152D01*
X22975Y49652D02*
X23011D01*
X23011D02*
Y48652D01*
X38475Y49902D02*
X38685Y49692D01*
X47446*
X47446D02*
X47949Y49189D01*
X47949D02*
X52012D01*
X52012D02*
X52475Y49652D01*
X49475D02*
X49928Y50104D01*
X49928D02*
X53022D01*
X53022D02*
X53475Y49652D01*
X52475D02*
X52954Y49172D01*
X52954D02*
X59259D01*
X59259D02*
X59459Y48972D01*
X59459D02*
X66535D01*
X66535D02*
X67961Y50398D01*
X67961D02*
X69254D01*
X69254D02*
X69503Y50149D01*
X69503D02*
X84893D01*
X84893D02*
X86391Y48652D01*
X86391D02*
X87475D01*
X54475Y49652D02*
X54918Y50094D01*
X54918D02*
X59158D01*
X59158D02*
X59475Y49778D01*
Y49525*
X59475D02*
X59791Y49209D01*
X59791D02*
X64032D01*
X64725Y49902*
X66475Y50902D02*
X66942D01*
X67192Y51152*
X67192D02*
X69963D01*
X69963D02*
X70215Y50900D01*
X70215D02*
X75724D01*
X75724D02*
X75975Y51152D01*
X32475Y54152D02*
X35475D01*
X35975Y54652*
X49081Y52370D02*
X52475D01*
X50475Y51652D02*
X50937Y51189D01*
X50937D02*
X53012D01*
X53012D02*
X53475Y51652D01*
X52475Y52370D02*
X54756D01*
X54756D02*
X55475Y51652D01*
X52475D02*
Y52370D01*
X55475Y51652D02*
X55975Y51152D01*
X60475*
X61975Y52652D02*
X62383D01*
X62383D02*
X62633Y52902D01*
X62633D02*
X64729D01*
X64922Y53094*
X64922D02*
X66158D01*
X66158D02*
X66475Y52778D01*
Y52525*
X66475D02*
X66791Y52209D01*
X66791D02*
X67158D01*
X67158D02*
X67475Y52525D01*
X67475D02*
Y52778D01*
X67791Y53094*
X67791D02*
X70158D01*
X70158D02*
X70475Y52778D01*
Y52525*
X70475D02*
X70868Y52132D01*
X70868D02*
X77062D01*
X77292Y51902*
X78475*
X66975Y52652D02*
X67654Y53331D01*
X70514*
X70514D02*
X70715Y53130D01*
X70715D02*
X79123D01*
X79475Y52778*
Y52525*
X79475D02*
X79848Y52152D01*
X79848D02*
X83475D01*
X51475Y62152D02*
X63753D01*
X64270Y61634*
X64270D02*
X75215D01*
X75215D02*
X76198Y60652D01*
X76975*
X69475Y60152D02*
X69733Y59894D01*
X74509*
X74766Y60152*
X74766D02*
X86316D01*
X86316D02*
X86816Y60652D01*
X86816D02*
X87475D01*
X18975Y63152D02*
X19225Y62901D01*
X19225D02*
X27601D01*
X27601D02*
X28351Y62152D01*
X32852*
X32852D02*
X32975Y62029D01*
Y61652*
X63975Y63652D02*
Y63189D01*
X64259Y62905*
X84228*
X84475Y63152*
X15725Y68902D02*
X15975Y69152D01*
X18148*
X18648Y69652*
X23225*
X23725Y70152*
X19475Y68902D02*
X19707Y68669D01*
X19707D02*
X24011D01*
X24011D02*
X24225Y68883D01*
Y69652*
X24725Y70152*
X30975Y67152D02*
X31975D01*
X39975D02*
X40975D01*
X52975D02*
X53975D01*
G54D32*
X15723Y13152D02*
Y14314D01*
X15723D02*
X15731Y14322D01*
X15723Y13152D02*
X16212Y12664D01*
X22713*
X23225Y12152*
X28225Y14152D02*
X28725Y13652D01*
X32843*
X32843D02*
X33343Y13152D01*
X33343D02*
X38725D01*
X27725D02*
X32225D01*
X33225Y14152D02*
X33725Y13652D01*
X38920*
X38920D02*
X39420Y13152D01*
X39420D02*
X39725D01*
X33225Y14902D02*
X33483Y14643D01*
X33483D02*
X46683D01*
X46683D02*
X46692Y14652D01*
X47225*
X39225Y14152D02*
X39725Y13652D01*
X41947*
X41947D02*
X42447Y13152D01*
X42447D02*
X43725D01*
X43225Y14152D02*
X43725Y13652D01*
X46725*
X47225Y14652D02*
X53475D01*
X54625*
X54625D02*
X55125Y15152D01*
X55125D02*
X59940D01*
X60440Y14652*
X61475*
X55975D02*
X59475D01*
X61475D02*
X65902D01*
X66402Y15152*
X67893*
X67893D02*
X68393Y14652D01*
X68393D02*
X69475D01*
X59475D02*
X59943D01*
X60397Y14197*
X60397D02*
X65977D01*
X66431Y14652*
X66431D02*
X67475D01*
X67910*
X67910D02*
X68365Y14197D01*
X73972*
X73972D02*
X74427Y14652D01*
X75475*
X77475D02*
X78975D01*
X75475D02*
X75892D01*
X76346Y14197*
X76346D02*
X81977D01*
X81977D02*
X82432Y14652D01*
X83475*
X78975D02*
X81989D01*
X82432Y15094*
X82432D02*
X83932D01*
X83932D02*
X84375Y14652D01*
X84375D02*
X85475D01*
X86475D02*
X89923D01*
X89923D02*
X90423Y15152D01*
X90423D02*
X91859D01*
X92359Y14652*
X93475*
X83475D02*
X83892D01*
X84346Y14197*
X84346D02*
X89961D01*
X89961D02*
X90416Y14652D01*
X91475*
X91844*
X91844D02*
X92299Y14197D01*
X97943*
X98397Y14652*
X99475*
X15731Y14322D02*
Y17408D01*
X16225Y17902*
X17725Y17402D02*
Y15879D01*
X18725Y14879*
Y13855*
X19159Y13421*
X25415*
X26225Y12610*
X26225D02*
Y12152D01*
X17225Y17902D02*
Y15129D01*
X17742Y14611*
X17742D02*
Y13574D01*
X17742D02*
X18135Y13181D01*
X18135D02*
X24676D01*
X25225Y12632*
Y12152*
X16725Y17402D02*
Y13431D01*
X16725D02*
X17234Y12922D01*
X17234D02*
X23693D01*
X23693D02*
X24225Y12391D01*
Y12152*
X19725Y18652D02*
X22974D01*
X22975Y18650*
X26420Y17902D02*
X27141Y17181D01*
X27141D02*
X35010D01*
X35010D02*
X36272Y15920D01*
X45181*
X45181D02*
X45915Y16653D01*
X45915D02*
X51639D01*
X51639D02*
X52137Y17152D01*
X52137D02*
X54725D01*
X25725Y16402D02*
X25974Y16152D01*
X25974D02*
X34169D01*
X34169D02*
X34638Y15683D01*
X34638D02*
X45447D01*
X45447D02*
X46180Y16416D01*
X51660*
X51660D02*
X51925Y16152D01*
X55225*
X24725D02*
X24968Y15909D01*
X33939*
X34400Y15447*
X34400D02*
X45713D01*
X45713D02*
X46168Y15902D01*
X50475*
X23725D02*
X23962Y15664D01*
X23962D02*
X33671D01*
X33671D02*
X34172Y15163D01*
X34172D02*
X45932D01*
X46412Y15642*
X46412D02*
X49734D01*
X49734D02*
X50168Y15209D01*
X53974*
X54167Y15402*
X58475*
X58725Y15652*
X22975Y15152D02*
X23237Y15414D01*
X23237D02*
X33438D01*
X33438D02*
X33946Y14906D01*
X33946D02*
X46162D01*
X46408Y15152*
X49225*
X22975Y18152D02*
Y18650D01*
X27438Y17928D02*
X27712Y17654D01*
X27712D02*
X35501D01*
X35501D02*
X36719Y16436D01*
X36719D02*
X44709D01*
X44709D02*
X45917Y17644D01*
X50732*
X50732D02*
X50975Y17402D01*
X27975Y18902D02*
Y18153D01*
X28221Y17906*
X28221D02*
X35729D01*
X36963Y16672*
X36963D02*
X44450D01*
X44450D02*
X45929Y18152D01*
X45929D02*
X55975D01*
X26975D02*
Y17852D01*
X27409Y17417*
X27409D02*
X35256D01*
X35256D02*
X36473Y16200D01*
X36473D02*
X44967D01*
X44967D02*
X45673Y16906D01*
X45673D02*
X49479D01*
X49479D02*
X49725Y17152D01*
X37725Y18652D02*
X38418D01*
X38418D02*
X39150Y17919D01*
X39150D02*
X43203D01*
X43203D02*
X45936Y20652D01*
X51225*
X48225Y18652D02*
X51432D01*
X51682Y18402*
X53225*
X53475Y18652*
Y15652D02*
X56391D01*
X56391D02*
X56891Y16152D01*
X56891D02*
X59896D01*
X59896D02*
X60396Y15652D01*
X60396D02*
X61475D01*
X53475Y16652D02*
X56421D01*
X56863Y17094*
X56863D02*
X59998D01*
X59998D02*
X60441Y16652D01*
X60441D02*
X61475D01*
X53475Y17652D02*
X56402D01*
X56402D02*
X56902Y18152D01*
X56902D02*
X59896D01*
X60396Y17652*
X61475*
X53475Y18652D02*
X56413D01*
X56913Y19152*
X59936*
X60436Y18652*
X61475*
X57975D02*
X59475D01*
X60262Y16309D02*
X60419Y16152D01*
X61975*
X60294Y15280D02*
X60423Y15152D01*
X65893*
X66393Y15652*
X67475*
X61975Y16152D02*
X65900D01*
X65900D02*
X66400Y16652D01*
X66400D02*
X67475D01*
X61475Y15652D02*
X65884D01*
X66384Y16152*
X66725*
X61475Y16652D02*
X65907D01*
X66350Y17094*
X66350D02*
X67976D01*
X67976D02*
X68419Y16652D01*
X68419D02*
X69475D01*
X61475Y17652D02*
X65912D01*
X65912D02*
X66412Y18152D01*
X66412D02*
X67896D01*
X68396Y17652*
X69475*
X61475Y18652D02*
X65945D01*
X66388Y19094*
X66388D02*
X67962D01*
X67962D02*
X68405Y18652D01*
X69475*
X59475D02*
X59993D01*
X60436Y18209*
X65945*
X66388Y18652*
X67475*
X59475Y17652D02*
X59522Y17699D01*
X59591Y17629*
X59591D02*
X59942D01*
X59942D02*
X60420Y17152D01*
X65923*
X66423Y17652*
X67475*
X66725Y16152D02*
X67886D01*
X68386Y15652*
X69475*
X67475Y18652D02*
X67911D01*
X67911D02*
X68411Y18152D01*
X68411D02*
X73879D01*
X74379Y18652*
X75475*
X67475Y17652D02*
X67903D01*
X67903D02*
X68403Y17152D01*
X68403D02*
X74090D01*
X74590Y17652*
X75475*
X67475Y16652D02*
X67931D01*
X68431Y16152*
X73913*
X74413Y16652*
X75475*
X67475Y15652D02*
X67918D01*
X68418Y15152*
X73880*
X74380Y15652*
X75475*
X75975Y16152D02*
X76337D01*
X76337D02*
X76837Y15652D01*
X76837D02*
X77475D01*
X81938*
X81938D02*
X82438Y16152D01*
X82438D02*
X83873D01*
X84373Y15652*
X85475*
X77475Y16652D02*
X80225D01*
X77475Y17652D02*
X81225D01*
X77475Y18652D02*
X81953D01*
X82453Y19152*
X82975*
X75475Y18652D02*
X76365D01*
X76865Y18152*
X81931*
X81931D02*
X82431Y18652D01*
X82431D02*
X83475D01*
X75475Y17652D02*
X76365D01*
X76865Y17152*
X81932*
X82432Y17652*
X83475*
X75475Y16652D02*
X76377D01*
X76877Y16152*
X81922*
X82422Y16652*
X83475*
X75475Y15652D02*
X76365D01*
X76865Y15152*
X81923*
X82423Y15652*
X83475*
X81225Y17652D02*
X81932D01*
X82432Y18152*
X83874*
X84374Y17652*
X85475*
X80225Y16652D02*
X81932D01*
X82375Y17094*
X82375D02*
X83938D01*
X83938D02*
X84380Y16652D01*
X84380D02*
X85475D01*
X84920Y16152D02*
X89962D01*
X89962D02*
X90462Y16652D01*
X90462D02*
X91475D01*
X84263Y17274D02*
X84385Y17152D01*
X84385D02*
X89953D01*
X89953D02*
X90453Y17652D01*
X90453D02*
X91475D01*
X84369Y15152D02*
X89963D01*
X89963D02*
X90463Y15652D01*
X90463D02*
X91475D01*
X85475D02*
X89955D01*
X90455Y16152*
X91846*
X92346Y15652*
X93475*
X85475Y16652D02*
X89962D01*
X90405Y17094*
X90405D02*
X91911D01*
X91911D02*
X92354Y16652D01*
X93475*
X85475Y17652D02*
X89971D01*
X90471Y18152*
X91850*
X92350Y17652*
X93475*
X85475Y18652D02*
X90011D01*
X90011D02*
X90454Y19094D01*
X90454D02*
X91918D01*
X91918D02*
X92361Y18652D01*
X92361D02*
X93475D01*
X83475D02*
X83878D01*
X84378Y18152*
X89954*
X89954D02*
X90454Y18652D01*
X90454D02*
X91475D01*
X91859*
X92359Y18152*
X97968*
X98468Y18652*
X99475*
X91475Y17652D02*
X91862D01*
X92362Y17152*
X97982*
X98482Y17652*
X99475*
X91475Y16652D02*
X91839D01*
X91839D02*
X92339Y16152D01*
X92339D02*
X97958D01*
X98458Y16652*
X99475*
X91475Y15652D02*
X91821D01*
X91821D02*
X92321Y15152D01*
X92321D02*
X97946D01*
X97946D02*
X98446Y15652D01*
X98446D02*
X99475D01*
X15725Y21652D02*
X19475D01*
X20475Y20652*
X22225*
X22725Y20152*
X20225Y22652D02*
X23475D01*
X23725Y22402*
Y21152*
X22725D02*
X22975Y20902D01*
Y20652*
X23225Y20402*
Y19669*
X26420Y17902D02*
Y19138D01*
X27207Y19925*
X22975Y18650D02*
Y19419D01*
X23225Y19669*
X23725Y21152D02*
X23717Y21143D01*
X23717D02*
X24212Y20648D01*
X23225Y22152D02*
Y20902D01*
X23749Y20377*
X23749D02*
Y20176D01*
X24975Y22902D02*
X25433Y23360D01*
X25433D02*
X41774D01*
X41774D02*
X41982Y23152D01*
X41982D02*
X46158D01*
X46158D02*
X48408Y25402D01*
X48408D02*
X49225D01*
X25725Y19152D02*
X26219Y19645D01*
X26219D02*
Y20658D01*
X23725Y19152D02*
X24212Y19639D01*
X24212D02*
Y20648D01*
X26725Y21152D02*
X27207Y20669D01*
X27207D02*
Y19925D01*
X25725Y21152D02*
X26219Y20658D01*
X23725Y20152D02*
X23749Y20176D01*
X29242Y22656D02*
Y20884D01*
X29242D02*
X29702Y20424D01*
X29702D02*
X29725Y20152D01*
X28225Y21902D02*
Y20902D01*
X28725Y20402*
X27438Y17928D02*
Y19103D01*
X27438D02*
X28207Y19872D01*
X29242Y22656D02*
X29474Y22888D01*
X29474D02*
X41230D01*
X41230D02*
X41439Y22679D01*
X41439D02*
X46438D01*
X46438D02*
X47910Y24152D01*
X47910D02*
X51475D01*
X28225Y21902D02*
X28725Y22402D01*
Y21152D02*
X28683Y21109D01*
X28683D02*
X29225Y20567D01*
X29225D02*
Y18424D01*
X29488Y18161*
X35956*
X37206Y16911*
X44182*
X46436Y19165*
X46436D02*
X51961D01*
X51961D02*
X52225Y18902D01*
X27725Y21152D02*
X27683Y21109D01*
X27683D02*
X28207Y20585D01*
X28207D02*
Y19872D01*
X29725Y21152D02*
X30225Y20652D01*
Y18679*
X30225D02*
X30466Y18438D01*
X30466D02*
X32144D01*
X32144D02*
X32167Y18415D01*
X32167D02*
X36183D01*
X36183D02*
X37451Y17147D01*
X37451D02*
X43911D01*
X43911D02*
X46416Y19652D01*
X49975*
X28725Y20152D02*
Y20402D01*
X33975Y20652D02*
X34225Y20402D01*
Y19902*
X34725Y19402*
X36975*
X37225Y19652*
X31225Y20652D02*
Y22443D01*
X31225D02*
X31433Y22652D01*
X31433D02*
X40715D01*
X40715D02*
X40965Y22402D01*
X40965D02*
X46576D01*
X46576D02*
X47826Y23652D01*
X47826D02*
X52415D01*
X52415D02*
X52915Y24152D01*
X52915D02*
X53975D01*
X31225Y20652D02*
X31725Y20152D01*
X34225Y22152D02*
Y20902D01*
X34725Y20402*
Y20152*
Y21152D02*
Y20902D01*
X35225Y20402*
Y19902*
X35475Y19652*
X35975*
X36225Y19902*
Y21402*
X36725Y21902*
X49202*
X49952Y21152*
X51725*
X32725D02*
X33225Y20652D01*
Y19652*
X33475Y19402*
X33725Y20152D02*
Y19902D01*
X34475Y19152*
X38729*
X38729D02*
X41236Y21658D01*
X48468*
X48468D02*
X48725Y21402D01*
X32725Y20152D02*
Y19109D01*
X32946Y18888*
X36745*
X37949Y17683*
X37949D02*
X43489D01*
X43489D02*
X46195Y20389D01*
X46195D02*
X50655D01*
X50655D02*
X50867Y20177D01*
X50867D02*
X55250D01*
X55250D02*
X55725Y20652D01*
X35475Y21652D02*
X35225Y21402D01*
Y20902*
X35475Y20652*
Y20402*
X35725Y20152*
X36225Y22152D02*
X49444D01*
X49944Y21652*
X35475Y22152D02*
Y21652D01*
X36725Y21152D02*
X37225Y20652D01*
X38225*
X49975Y22652D02*
X53475D01*
X51975Y22152D02*
X56446D01*
X56946Y22652*
X59475*
X52225Y19652D02*
X52725Y19152D01*
X55917*
X56917Y20152*
X59915*
X60415Y19652*
X61475*
X53475D02*
X55475D01*
X53475Y21652D02*
X56475D01*
X53475Y22652D02*
X56406D01*
X56406D02*
X56906Y23152D01*
X56906D02*
X59935D01*
X59935D02*
X60435Y22652D01*
X60435D02*
X61475D01*
X55458Y21152D02*
X59917D01*
X60417Y20652*
X61475*
X57475Y19652D02*
X59475D01*
X62475Y21152D02*
X65898D01*
X65898D02*
X66398Y21652D01*
X66398D02*
X67475D01*
X61475Y19652D02*
X65915D01*
X66358Y20094*
X66358D02*
X67975D01*
X67975D02*
X68418Y19652D01*
X69475*
X61475Y20652D02*
X65973D01*
X66416Y21094*
X66416D02*
X67967D01*
X67967D02*
X68410Y20652D01*
X69475*
X61475Y21652D02*
X65861D01*
X65861D02*
X66361Y22152D01*
X66361D02*
X67920D01*
X68420Y21652*
X68725*
X61475Y22652D02*
X63975D01*
X59475D02*
X59937D01*
X59937D02*
X60437Y22152D01*
X60437D02*
X65475D01*
X59475Y21652D02*
X60455D01*
X60455D02*
X60955Y21152D01*
X60955D02*
X62475D01*
X59475Y20652D02*
X59920D01*
X60363Y20209*
X65973*
X66416Y20652*
X67475*
X59475Y19652D02*
X59922D01*
X59922D02*
X60365Y19209D01*
X60365D02*
X65981D01*
X66424Y19652*
X67475*
X65475Y22152D02*
X65861D01*
X65861D02*
X66361Y22652D01*
X66361D02*
X67475D01*
X63975D02*
X65861D01*
X65861D02*
X66361Y23152D01*
X66361D02*
X67912D01*
X67912D02*
X68412Y22652D01*
X68412D02*
X69475D01*
Y19652D02*
X73918D01*
X74418Y20152*
X76392*
X76892Y19652*
X77475*
X69475Y20652D02*
X73892D01*
X73892D02*
X74392Y21152D01*
X74392D02*
X76415D01*
X76915Y20652*
X77475*
X69475Y21652D02*
X72725D01*
X69475Y22652D02*
X73925D01*
X73925D02*
X74425Y23152D01*
X74425D02*
X76392D01*
X76892Y22652*
X77475*
X67475D02*
X67928D01*
X68428Y22152*
X73873*
X73873D02*
X74373Y22652D01*
X74373D02*
X75475D01*
X67475Y21652D02*
Y21632D01*
X67475D02*
X67898D01*
X67898D02*
X68379Y21152D01*
X73873*
X74373Y21652*
X75475*
X67475Y20652D02*
X67906D01*
X67906D02*
X68406Y20152D01*
X68406D02*
X73933D01*
X73933D02*
X74433Y20652D01*
X74433D02*
X75475D01*
X67475Y19652D02*
X67909D01*
X68409Y19152*
X73902*
X73902D02*
X74402Y19652D01*
X74402D02*
X75475D01*
X73725Y21652D02*
X74168Y22094D01*
X74168D02*
X76415D01*
X76415D02*
X76858Y21652D01*
X77475*
Y19652D02*
X80721D01*
X80721D02*
X80971Y19902D01*
X80971D02*
X82745D01*
X82937Y20094*
X82937D02*
X83916D01*
X83916D02*
X84359Y19652D01*
X84359D02*
X85475D01*
X77475Y20652D02*
X81975D01*
X77475Y22652D02*
X80725D01*
X75475D02*
X76383D01*
X76383D02*
X76883Y22152D01*
X76883D02*
X81975D01*
X82475Y22652*
X83475*
X75475Y21652D02*
X76383D01*
X76383D02*
X76883Y21152D01*
X76883D02*
X81700D01*
X81700D02*
X82200Y21652D01*
X82200D02*
X83475D01*
X75475Y20652D02*
X76383D01*
X76383D02*
X76883Y20152D01*
X76883D02*
X82203D01*
X82203D02*
X82703Y20652D01*
X82703D02*
X83475D01*
X75475Y19652D02*
X76388D01*
X76888Y19152*
X81944*
X82444Y19652*
X83475*
X80725Y22652D02*
X81928D01*
X82428Y23152*
X83893*
X84393Y22652*
X85475*
X81975Y20652D02*
X82418Y21094D01*
X82418D02*
X83942D01*
X83942D02*
X84385Y20652D01*
X85475*
X82975Y19152D02*
X83851D01*
X84351Y18652*
X85475*
Y19652D02*
X89953D01*
X90453Y20152*
X91836*
X91836D02*
X92336Y19652D01*
X92336D02*
X93475D01*
X85475Y20652D02*
X90042D01*
X90484Y21094*
X90484D02*
X91913D01*
X91913D02*
X92355Y20652D01*
X92355D02*
X93475D01*
X85475Y22652D02*
X90013D01*
X90013D02*
X90456Y23094D01*
X90456D02*
X91940D01*
X91940D02*
X92383Y22652D01*
X93475*
X83475D02*
X83889D01*
X84389Y22152*
X89956*
X89956D02*
X90456Y22652D01*
X90456D02*
X91475D01*
X83475Y21652D02*
X84383D01*
X84383D02*
X84883Y21152D01*
X84883D02*
X89959D01*
X89959D02*
X90459Y21652D01*
X90459D02*
X91475D01*
X83475Y20652D02*
X83877D01*
X83877D02*
X84377Y20152D01*
X84377D02*
X89984D01*
X89984D02*
X90484Y20652D01*
X90484D02*
X91475D01*
X83475Y19652D02*
X83850D01*
X84350Y19152*
X89977*
X89977D02*
X90477Y19652D01*
X90477D02*
X91475D01*
Y22652D02*
X91864D01*
X91864D02*
X92364Y22152D01*
X92364D02*
X97931D01*
X97931D02*
X98431Y22652D01*
X98431D02*
X99475D01*
X91475Y21652D02*
X91522Y21699D01*
X91623Y21597*
X91623D02*
X92438D01*
X92438D02*
X92883Y21152D01*
X92883D02*
X97964D01*
X97964D02*
X98464Y21652D01*
X98464D02*
X99475D01*
X91475Y20652D02*
X91854D01*
X91854D02*
X92354Y20152D01*
X92354D02*
X97991D01*
X98491Y20652*
X99475*
X91475Y19652D02*
X91865D01*
X92365Y19152*
X97941*
X97941D02*
X98441Y19652D01*
X98441D02*
X99475D01*
X22475Y25152D02*
X24933D01*
X24933D02*
X25433Y25652D01*
X25433D02*
X25975D01*
X19975Y26902D02*
X20225Y27152D01*
X21697*
X22197Y27652*
X22975*
X19475Y26152D02*
X21862D01*
X21862D02*
X22362Y26652D01*
X22362D02*
X22975D01*
X21975Y23652D02*
X24169D01*
X24412Y23408*
X24412D02*
Y22677D01*
X24412D02*
X24725Y22364D01*
X24725D02*
Y21152D01*
X22975Y25652D02*
X24475D01*
X24975Y26152*
X32225D02*
X35062D01*
X35552Y25662*
X35975*
Y25652*
X34725Y26902D02*
X35205D01*
X35205D02*
X35455Y26652D01*
X35455D02*
X35975D01*
X30975Y25652D02*
X32475Y27152D01*
X33703*
X34453Y26402*
X35205*
X35205D02*
X35455Y26152D01*
X35455D02*
X51975D01*
X40975Y25652D02*
X41865D01*
X42365Y25152*
X44085*
X44585Y25652*
X45975*
X50475Y25152D02*
X56388D01*
X56888Y25652*
X59475*
X49225Y23152D02*
X56447D01*
X56947Y23652*
X59475*
X50975Y24652D02*
X53475D01*
Y23652D02*
X56447D01*
X56947Y24152*
X59959*
X59959D02*
X60459Y23652D01*
X60459D02*
X61475D01*
X53475Y24652D02*
X56388D01*
X56888Y25152*
X59962*
X60462Y24652*
X61475*
X53475Y25652D02*
X56435D01*
X56435D02*
X56935Y26152D01*
X56935D02*
X58975D01*
X53475Y26652D02*
X57975D01*
X58475Y27152*
X58975Y26152D02*
X59944D01*
X60444Y25652*
X61475*
Y23652D02*
X62975D01*
X61475Y24652D02*
X65861D01*
X65861D02*
X66361Y25152D01*
X66361D02*
X67929D01*
X67929D02*
X68429Y24652D01*
X68429D02*
X69475D01*
X61475Y25652D02*
X65918D01*
X65918D02*
X66361Y26094D01*
X66361D02*
X68013D01*
X68013D02*
X68456Y25652D01*
X69475*
X61475Y26652D02*
X64430D01*
X64930Y27152*
X67878*
X68378Y26652*
X69475*
X59475Y25652D02*
X59950D01*
X59950D02*
X60450Y25152D01*
X60450D02*
X65861D01*
X65861D02*
X66361Y25652D01*
X66361D02*
X67475D01*
X59475Y24652D02*
X59973D01*
X59973D02*
X60473Y24152D01*
X60473D02*
X63475D01*
X59475Y23652D02*
X59979D01*
X60479Y23152*
X64475*
X63475Y24152D02*
X65861D01*
X65861D02*
X66361Y24652D01*
X66361D02*
X67475D01*
X62975Y23652D02*
X65861D01*
X65861D02*
X66361Y24152D01*
X66361D02*
X67921D01*
X67921D02*
X68421Y23652D01*
X68421D02*
X69475D01*
X64475Y23152D02*
X65861D01*
X65861D02*
X66361Y23652D01*
X66361D02*
X67475D01*
X68725Y26152D02*
X72975D01*
X69475Y23652D02*
X73975D01*
X74475Y24152*
X76405*
X76405D02*
X76905Y23652D01*
X76905D02*
X77475D01*
X69475Y24652D02*
X73881D01*
X73881D02*
X74381Y25152D01*
X74381D02*
X76403D01*
X76903Y24652*
X77475*
X69475Y25652D02*
X73881D01*
X73881D02*
X74381Y26152D01*
X74381D02*
X76381D01*
X76881Y25652*
X77475*
X69475Y26652D02*
X72410D01*
X72410D02*
X72910Y27152D01*
X72910D02*
X76420D01*
X76920Y26652*
X77475*
X67475Y25652D02*
X67928D01*
X68428Y25152*
X73881*
X73881D02*
X74381Y25652D01*
X74381D02*
X75475D01*
X67475Y24652D02*
X67930D01*
X67930D02*
X68430Y24152D01*
X68430D02*
X73975D01*
X74475Y24652*
X75475*
X67475Y23652D02*
X67932D01*
X68432Y23152*
X73932*
X74432Y23652*
X75475*
X77475D02*
X81475D01*
X77475Y24652D02*
X81975D01*
X82475Y25152*
X77475Y25652D02*
X81446D01*
X81946Y26152*
X83975*
X77475Y26652D02*
X78152D01*
X78652Y27152*
X83884*
X84384Y26652*
X85475*
X75475Y25652D02*
X76383D01*
X76383D02*
X76883Y25152D01*
X76883D02*
X81424D01*
X81924Y25652*
X83475*
X75475Y24652D02*
X76383D01*
X76383D02*
X76883Y24152D01*
X76883D02*
X81956D01*
X81956D02*
X82456Y24652D01*
X82456D02*
X83475D01*
X75475Y23652D02*
X76383D01*
X76383D02*
X76883Y23152D01*
X76883D02*
X81934D01*
X81934D02*
X82434Y23652D01*
X82434D02*
X83475D01*
X82475Y25152D02*
X83871D01*
X83871D02*
X84371Y24652D01*
X84371D02*
X85475D01*
X81475Y23652D02*
X81991D01*
X81991D02*
X82434Y24094D01*
X82434D02*
X83952D01*
X83952D02*
X84395Y23652D01*
X84395D02*
X85475D01*
X84385Y24152D02*
X87975D01*
X83975Y26152D02*
X84370D01*
X84870Y25652*
X85475*
Y23652D02*
X89995D01*
X89995D02*
X90438Y24094D01*
X90438D02*
X91912D01*
X91912D02*
X92355Y23652D01*
X93475*
X85475Y24652D02*
X89957D01*
X89957D02*
X90457Y25152D01*
X90457D02*
X91877D01*
X92377Y24652*
X93475*
X85475Y25652D02*
X88455D01*
X88955Y26152*
X92419*
X92419D02*
X92919Y25652D01*
X92919D02*
X93475D01*
X85475Y26652D02*
X88462D01*
X88962Y27152*
X92386*
X92386D02*
X92886Y26652D01*
X92886D02*
X93475D01*
X83475Y25652D02*
X83522Y25699D01*
X83600Y25620*
X83600D02*
X84415D01*
X84415D02*
X84883Y25152D01*
X84883D02*
X86975D01*
X83475Y23652D02*
X83522Y23699D01*
X83850*
X84397Y23152*
X88975*
X89938*
X89938D02*
X90438Y23652D01*
X90438D02*
X91475D01*
X87975Y24152D02*
X89915D01*
X89915D02*
X90415Y24652D01*
X90415D02*
X91475D01*
X86975Y25152D02*
X89957D01*
X90457Y25652*
X91475*
X92383*
X92383D02*
X92883Y25152D01*
X92883D02*
X97967D01*
X97967D02*
X98467Y25652D01*
X98467D02*
X99475D01*
X91475Y24652D02*
X91816D01*
X91816D02*
X92316Y24152D01*
X92316D02*
X97914D01*
X98414Y24652*
X99475*
X91475Y23652D02*
X91861D01*
X91861D02*
X92361Y23152D01*
X92361D02*
X97987D01*
X98487Y23652*
X99475*
X16225Y30152D02*
X20197D01*
X20458Y29891*
Y28421*
X20727Y28152*
X23961*
X23961D02*
X24461Y27652D01*
X24461D02*
X25975D01*
X16725Y30652D02*
X21952D01*
X21952D02*
X22452Y30152D01*
X22452D02*
X23205D01*
X23455Y30402*
X24254*
X25004Y29652*
X25975*
X23975Y29902D02*
X24229D01*
X24229D02*
X24979Y29152D01*
X24979D02*
X26117D01*
X26117D02*
X26429Y28840D01*
X26429D02*
Y27463D01*
X23975Y29152D02*
X24460D01*
X24460D02*
X24960Y28652D01*
X24960D02*
X25975D01*
X23475Y27152D02*
X24478D01*
X24978Y26652*
X25975*
X25475Y27152D02*
X26117D01*
X26117D02*
X26429Y27463D01*
X22975Y29652D02*
X23225Y29902D01*
X23975*
X22975Y30652D02*
X24482D01*
X24482D02*
X24982Y30152D01*
X24982D02*
X26475D01*
X30225Y27152D02*
X31585D01*
X32085Y27652*
X32975*
X27475Y30152D02*
X31975D01*
X32225Y30402*
X27975Y28652D02*
X28965D01*
X29465Y28152*
X41225*
X41475Y28402*
X41975*
X27975Y30652D02*
X29475D01*
X34725Y27652D02*
X35220D01*
X35220D02*
X35720Y27152D01*
X35720D02*
X39725D01*
X34225Y30402D02*
X34975Y31152D01*
X36475*
X37475Y32152*
X40975*
X30975Y29652D02*
X32234D01*
X32234D02*
X32734Y29152D01*
X32734D02*
X33242D01*
X33770Y29680*
X33770D02*
X34725D01*
X34725D02*
X35197Y30152D01*
X41475*
X42475Y31152*
X43975*
X44975Y30152*
X57843*
X57843D02*
X57975Y30283D01*
Y30652*
X32975Y27652D02*
X33975D01*
X35975Y30652D02*
X36475D01*
X36975Y31152*
X39475*
X35975Y29652D02*
X37214D01*
X37714Y29152*
X39225*
X37975Y27652D02*
X39503D01*
X37975Y29652D02*
X39822D01*
X40322Y29152*
X44454*
X44454D02*
X44954Y28652D01*
X44954D02*
X45975D01*
X40975Y29652D02*
X41656D01*
X42156Y30152*
X44199*
X44699Y29652*
X45975*
X40975Y27652D02*
X41907D01*
X42407Y28152*
X44184*
X44684Y27652*
X45975*
X43885Y27152D02*
X44214D01*
X44714Y26652*
X45975*
X53975Y28402D02*
X56975D01*
X55725Y27902D02*
X66975D01*
X56475Y27402D02*
X56725Y27652D01*
X63936*
X63936D02*
X64186Y27402D01*
X64186D02*
X68426D01*
X68426D02*
X68676Y27152D01*
X68676D02*
X71975D01*
X58475D02*
X59936D01*
X59936D02*
X60436Y26652D01*
X60436D02*
X61475D01*
X55975Y28902D02*
X57225D01*
X57475Y28652*
X79484*
X79484D02*
X79984Y29152D01*
X79984D02*
X91975D01*
X92475Y28652*
X69975Y27652D02*
X91175D01*
X91475Y27952*
Y28652*
X75975Y30652D02*
Y31126D01*
X76275Y31426*
X78219*
X78219D02*
X78445Y31652D01*
X78445D02*
X85975D01*
X17225D02*
X19929D01*
X20411Y32134*
X20411D02*
X24627D01*
X25109Y31652*
X25109D02*
X25975D01*
X17725Y32652D02*
X21911D01*
X22354Y33094*
X22354D02*
X24517D01*
X24517D02*
X24960Y32652D01*
X24960D02*
X25975D01*
X26725Y31652D02*
X27225Y31152D01*
X31948*
X32198Y30902*
X32631*
X32928Y30604*
X32928D02*
X32975Y30652D01*
X24475Y31152D02*
X24975Y30652D01*
X25975*
X22975Y31652D02*
X24736D01*
X24736D02*
X25236Y31152D01*
X25236D02*
X26475D01*
X27475Y30152*
X22975Y32652D02*
X24482D01*
X24982Y32152*
X31565*
X32565Y31152*
X33475*
X22975Y33652D02*
X24454D01*
X24954Y33152*
X29725*
X33975*
X30975Y32652D02*
X31022Y32699D01*
X31650*
X31650D02*
X32197Y32152D01*
X32197D02*
X34725D01*
X32975Y32652D02*
X34697D01*
X35197Y33152*
X42225*
X40975Y32152D02*
X42594D01*
X42844Y32402*
X47975*
X48225Y32152*
X45975Y33902D02*
X46225Y33652D01*
X52975*
X45475Y31152D02*
X49211D01*
X49711Y30652*
X56060*
X56060D02*
X56560Y31152D01*
X56560D02*
X58225D01*
X58475Y30902*
Y29900*
X58475D02*
X58723Y29652D01*
X58723D02*
X61725D01*
X61975Y29902*
Y30652*
X49225Y32402D02*
X49490Y32667D01*
X50928*
X50928D02*
X51464Y32131D01*
X51464D02*
X59213D01*
X59213D02*
X59448Y31897D01*
X68456*
X68456D02*
X68722Y32162D01*
X68722D02*
X71412D01*
X71412D02*
X72175Y32926D01*
X72175D02*
X73812D01*
X73812D02*
X73975Y33088D01*
X73975D02*
Y33652D01*
X50225Y31652D02*
Y31202D01*
X50503Y30924*
X55941*
X56405Y31388*
X58490*
X58738Y31140*
X68849*
X68975Y31014*
Y30652*
X50725Y32152D02*
X50986Y31891D01*
X58972*
X59202Y31661*
X68681*
X68681D02*
X68944Y31923D01*
X71712*
X71712D02*
X72415Y32626D01*
X74712*
X74712D02*
X74975Y32888D01*
X74975D02*
Y32926D01*
X54975Y31402D02*
X55908D01*
X56130Y31624*
X56130D02*
X58736D01*
X58935Y31424*
X58935D02*
X68972D01*
X68972D02*
X69224Y31677D01*
X69224D02*
X73750D01*
X73750D02*
X73974Y31902D01*
X73974D02*
X76975D01*
X61725Y32902D02*
X63716D01*
X63966Y32652*
X65975*
X63475Y32402D02*
X63743Y32133D01*
X63743D02*
X66204D01*
X66204D02*
X66997Y32926D01*
X69631*
X69975Y33269*
X69975D02*
Y33652D01*
X67475Y32402D02*
X70670D01*
X70670D02*
X70975Y32706D01*
Y33652*
X72975Y32152D02*
X73149Y32326D01*
X78412*
X78412D02*
X78612Y32126D01*
X78612D02*
X93112D01*
X93112D02*
X93475Y31763D01*
Y30652*
X73975Y33652D02*
X74434Y34111D01*
X86934*
X86975Y34152*
X74975Y33652D02*
Y32926D01*
X75249Y32652*
X86475*
X19725Y35152D02*
X20512Y35938D01*
X20512D02*
X22640D01*
X22640D02*
X22975Y36273D01*
X22975D02*
Y38652D01*
X29225Y37902D02*
X29918Y37209D01*
X30928*
X31400Y37681*
X31400D02*
X32197D01*
X32197D02*
X32610Y38094D01*
X32610D02*
X33304D01*
X33304D02*
X33958Y37440D01*
X33958D02*
X35500D01*
X35500D02*
X35952Y37892D01*
X35952D02*
X38163D01*
X38163D02*
X38395Y38125D01*
X38395D02*
X40220D01*
X40445Y37900*
X45212*
X45212D02*
X45480Y37632D01*
X55363*
X56328Y36667*
X57654*
X57898Y36423*
X60164*
X60376Y36211*
X60376D02*
X66744D01*
X66744D02*
X67358Y36825D01*
X67358D02*
X73274D01*
X73447Y36652*
X73447D02*
X73975D01*
X28225Y35902D02*
X28471Y36148D01*
X30696*
X31184Y35659*
X31184D02*
X36681D01*
X36681D02*
X37166Y36143D01*
X37166D02*
X43462D01*
X43462D02*
X45201Y34404D01*
X45201D02*
X55207D01*
X55207D02*
X55461Y34150D01*
X55461D02*
X57997D01*
X30475Y38652D02*
X31975D01*
X33475Y37152D02*
X35703D01*
X35703D02*
X36200Y37649D01*
X36200D02*
X38667D01*
X38906Y37888*
X38906D02*
X39988D01*
X39988D02*
X40220Y37656D01*
X40220D02*
X44952D01*
X44952D02*
X45457Y37152D01*
X45975*
X36216Y36143D02*
X36729Y36657D01*
X36729D02*
X44481D01*
X44481D02*
X45475Y35663D01*
X45475D02*
Y35402D01*
X38725Y38652D02*
X40161D01*
X40670Y38143*
X45472*
X45472D02*
X45725Y37890D01*
X45725D02*
X55664D01*
X56620Y36934*
X57914*
X57914D02*
X58189Y36659D01*
X58189D02*
X60262D01*
X60262D02*
X60474Y36447D01*
X66482*
X67129Y37094*
X67129D02*
X91032D01*
X91032D02*
X91475Y36652D01*
X49475Y35902D02*
X50947Y37374D01*
X50947D02*
X55062D01*
X56036Y36400*
X57393*
X57675Y36118*
X57675D02*
X60135D01*
X60135D02*
X60475Y35778D01*
Y35525*
X60475D02*
X60886Y35113D01*
X60886D02*
X64546D01*
X64546D02*
X64760Y34900D01*
X64760D02*
X65418D01*
X65418D02*
X65420Y34902D01*
X65420D02*
X65975D01*
X54475Y35902D02*
X56725D01*
X56975Y35652*
X51975Y35902D02*
X52447Y36374D01*
X52447D02*
X55709D01*
X55932Y36151*
X55932D02*
X57102D01*
X57475Y35778*
Y35369*
X57475D02*
X57668Y35176D01*
X57668D02*
X60462D01*
X60800Y34837*
X60800D02*
X64455D01*
X64455D02*
X64737Y34556D01*
X65476*
X65476D02*
X65534Y34498D01*
X65534D02*
X66142D01*
X66781Y35137*
X68729*
X69994Y36402*
X70975*
X57475Y37652D02*
X57725Y37902D01*
X58973*
X58973D02*
X59473Y37402D01*
X59473D02*
X61225D01*
X58725D02*
X58977Y37149D01*
X58977D02*
X60440D01*
X60440D02*
X60670Y36919D01*
X60670D02*
X65979D01*
X65979D02*
X66627Y37567D01*
X92559*
X92559D02*
X93475Y36652D01*
X61225Y37402D02*
X61466Y37160D01*
X61466D02*
X64304D01*
X64685Y37541*
X64685D02*
Y37544D01*
X64685D02*
X65025Y37884D01*
X68103*
X68103D02*
X68109Y37878D01*
X68109D02*
X94952D01*
X94952D02*
X94975Y37902D01*
X61975Y37652D02*
X64225D01*
X62975Y38652D02*
X63975D01*
X64475Y39152*
X72975Y36402D02*
X73225Y36152D01*
X76475*
X76975Y35652*
X72975D02*
Y34870D01*
X73222Y34622*
X73222D02*
X83905D01*
X83905D02*
X84184Y34902D01*
X84184D02*
X88975D01*
X78725Y36652D02*
X79400D01*
X79919Y36132*
X79919D02*
X84948D01*
X85428Y35652*
X87975*
X81975D02*
X83975D01*
X79475Y35152D02*
X88246D01*
X88496Y35402*
X92475*
X81475Y38902D02*
Y39087D01*
X90176*
X90176D02*
X90741Y39652D01*
X93475*
X86475Y36652D02*
Y36285D01*
X86475D02*
X86608Y36152D01*
X86608D02*
X91975D01*
X93975Y35402D02*
X96475D01*
X20975Y40652D02*
X22467D01*
X22467D02*
X22967Y40152D01*
X22967D02*
X28235D01*
X28235D02*
X29735Y38652D01*
X29735D02*
X30475D01*
X20975Y42652D02*
X22474D01*
X22474D02*
X22974Y42152D01*
X22974D02*
X24335D01*
X24835Y41652*
X25475*
X24041Y40652D02*
X25475D01*
X23975Y42652D02*
X25475D01*
X27975Y42152D02*
X32876D01*
X33394Y42670*
X33394D02*
X39987D01*
X39987D02*
X40452Y43136D01*
X40452D02*
X55198D01*
X55198D02*
X55966Y43904D01*
X55966D02*
X61473D01*
X61878Y43498*
X61878D02*
X62668D01*
X62668D02*
X62745Y43575D01*
X65282*
X65966Y42891*
X72973*
X72973D02*
X73221Y43138D01*
X74988*
X74988D02*
X75475Y42652D01*
X40475Y39652D02*
X40926D01*
X41424Y39154*
X44964*
X45975Y38142*
X45975D02*
X55944D01*
X55944D02*
X56877Y37209D01*
X58160*
X58465Y36904*
X58465D02*
X60351D01*
X60351D02*
X60572Y36683D01*
X66201*
X66849Y37331*
X91796*
X92475Y36652*
X40975Y41652D02*
Y42607D01*
X41238Y42870*
X55426*
X55426D02*
X56211Y43655D01*
X60531*
X60531D02*
X60784Y43402D01*
X60784D02*
X61225D01*
X39975Y41652D02*
X40975D01*
X46475Y39402D02*
X46725Y39652D01*
X55225*
X48475Y40152D02*
X49475D01*
X58475Y42152D02*
X60225D01*
X60475Y41902*
X60725*
X60975Y41652*
X57975D02*
Y42396D01*
X57975D02*
X58197Y42619D01*
X58197D02*
X60224D01*
X60699Y42143*
X60699D02*
X61932D01*
X61932D02*
X62174Y42385D01*
X62174D02*
X63184D01*
X63184D02*
X63450Y42652D01*
X63450D02*
X73975D01*
X64475Y41652D02*
X65475D01*
X64225Y40402D02*
X64969D01*
X64969D02*
X65479Y39892D01*
X67977*
X67977D02*
X68456Y40370D01*
X68456D02*
X69506D01*
X69506D02*
X69975Y39902D01*
X70244Y39632*
X70244D02*
X70685D01*
X70685D02*
X70916Y39402D01*
X74975*
X68475Y41652D02*
X68937Y42114D01*
X68937D02*
X71766D01*
X71766D02*
X72723Y41157D01*
X75158*
X75158D02*
X75664Y40652D01*
X77475*
X75975Y39402D02*
X78225D01*
X76975Y41652D02*
Y41361D01*
X77208Y41128*
X77208D02*
X79215D01*
X79215D02*
X79451Y41365D01*
Y42541*
X79475Y42565*
Y43652*
X85497Y40117D02*
X90229D01*
X90764Y40652*
X93475*
X84225Y42402D02*
X85845D01*
X85845D02*
X86095Y42152D01*
X86095D02*
X90210D01*
X90710Y42652*
X93475*
X83475Y40902D02*
X86219D01*
X86219D02*
X86469Y41152D01*
X86469D02*
X90280D01*
X90280D02*
X90780Y41652D01*
X90780D02*
X93475D01*
X88975D02*
X90236D01*
X90736Y42152*
X90975*
X87475Y40652D02*
X89975D01*
X87475Y41652D02*
X88975D01*
X91975Y39152D02*
X94975D01*
X97475Y36652*
X22725Y43652D02*
X23975D01*
X20975D02*
X21974D01*
X21974D02*
X22474Y43152D01*
X22474D02*
X26111D01*
X27975*
X30475Y45652*
X23975Y43652D02*
X25475D01*
X30475Y45652D02*
X31225D01*
X31725Y45152*
Y44652*
X36975Y43902D02*
X37212Y44138D01*
X37212D02*
X40770D01*
X40770D02*
X40950Y44318D01*
X40950D02*
Y44627D01*
X40950D02*
X40975Y44652D01*
X38475Y43402D02*
X38737Y43664D01*
X44300*
X44783Y44146*
X44783D02*
X49246D01*
X49246D02*
X49754Y43638D01*
X49754D02*
X54682D01*
X54682D02*
X56139Y45094D01*
X56139D02*
X62532D01*
X62532D02*
X62975Y44652D01*
X41975Y46652D02*
X42428Y46199D01*
X54957*
X54957D02*
X56426Y47667D01*
X56426D02*
X60229D01*
X60229D02*
X60959Y48398D01*
X60959D02*
X65735D01*
X65735D02*
X66485Y47648D01*
X66485D02*
X70452D01*
X70452D02*
X70970Y47130D01*
X76496*
X76496D02*
X76975Y46652D01*
X40975D02*
X41664Y45963D01*
X55103*
X56546Y47406*
X56546D02*
X62971D01*
X63725Y46652*
X40975Y44652D02*
X41975D01*
X42975Y46652D02*
Y47402D01*
X43975Y44652D02*
X44975D01*
X53975Y45402D02*
X54924D01*
X55674Y46152*
X63725*
X64725Y45152*
X70327*
X70475Y45004*
Y44652*
X62225Y43902D02*
X65449D01*
X65449D02*
X66223Y43128D01*
X66223D02*
X67201D01*
X67201D02*
X67475Y43402D01*
X63725Y46652D02*
X64244Y46132D01*
X64244D02*
X70654D01*
X70654D02*
X70814Y45972D01*
X70814D02*
X85587D01*
X85587D02*
X86267Y46652D01*
X87475*
X62975Y44652D02*
X63475Y44152D01*
X65975*
X69975Y43652D02*
X70250Y43376D01*
X70250D02*
X72434D01*
X72434D02*
X72709Y43652D01*
X76725*
X76975Y43402*
X68475Y43652D02*
X68986Y43140D01*
X68986D02*
X72710D01*
X72710D02*
X72944Y43374D01*
X72944D02*
X75489D01*
X75489D02*
X75962Y42902D01*
X78653*
X78975Y42579*
X78975D02*
Y41652D01*
X70475Y44652D02*
Y44348D01*
X70475D02*
X70671Y44152D01*
X70671D02*
X71719D01*
X71969Y44402*
X72980*
X72980D02*
X73480Y43902D01*
X73480D02*
X77451D01*
X77451D02*
X77701Y43652D01*
X77701D02*
X78475D01*
X77975Y44652D02*
X78475Y44152D01*
X93927*
X93927D02*
X94192Y44417D01*
X94192D02*
Y47969D01*
X94192D02*
X94555Y48332D01*
X94555D02*
X99053D01*
X99053D02*
X99475Y48753D01*
X99475D02*
Y55652D01*
X80975Y44652D02*
X81460D01*
X81460D02*
X81712Y44400D01*
X81712D02*
X86521D01*
X86773Y44652*
X87475*
X86475Y45152D02*
X90230D01*
X90230D02*
X90730Y45652D01*
X90730D02*
X93475D01*
X85725Y43152D02*
X90235D01*
X90735Y43652*
X93475*
X83975D02*
X87475D01*
X86975Y46152D02*
X90226D01*
X90226D02*
X90726Y46652D01*
X90726D02*
X93475D01*
X87475Y45652D02*
X90286D01*
X90286D02*
X90786Y46152D01*
X90786D02*
X92475D01*
X91475Y44652D02*
X93475D01*
X13975Y48152D02*
X16725D01*
X20975Y48652D02*
X23011D01*
X23011D02*
X23975D01*
X25975D02*
Y48148D01*
X26226Y47896*
X26226D02*
X46480D01*
X46480D02*
X46725Y47652D01*
X27725Y50402D02*
X39725D01*
X39975Y50152*
X26975Y48652D02*
Y48331D01*
X27164Y48141*
X27164D02*
X47244D01*
X47244D02*
X47720Y47665D01*
X47720D02*
X50716D01*
X50716D02*
X50952Y47902D01*
X50952D02*
X52475D01*
X31975Y48652D02*
X32713Y49390D01*
X47284*
X47284D02*
X47762Y48912D01*
X56299*
X56299D02*
X56560Y48652D01*
X56975*
X36475Y47402D02*
X42975D01*
X38475Y50902D02*
X38725Y50652D01*
X42975*
X34975Y48652D02*
X35477Y49153D01*
X35477D02*
X47056D01*
X47056D02*
X48293Y47916D01*
X48293D02*
X50490D01*
X50975Y48402*
X50975D02*
X53725D01*
X53975Y48152*
X42975Y47402D02*
X45725D01*
X45975Y47152*
X49975*
X44475Y50152D02*
X49497D01*
X49686Y50340*
X49686D02*
X59354D01*
X59354D02*
X59583Y50111D01*
X59583D02*
X61515D01*
X61515D02*
X61975Y49652D01*
X49975Y48402D02*
X50225Y48652D01*
X56214*
X56214D02*
X56714Y48152D01*
X56714D02*
X59975D01*
X58975Y48652D02*
X67225D01*
X67475Y48402*
X69475*
X61975Y47902D02*
X62225Y48152D01*
X65474*
X66224Y47402*
X69716*
X69975Y47143*
Y46652*
X63975Y47652D02*
X64475Y47152D01*
X67475*
X67975Y46652*
X70475Y48402D02*
X70710Y48637D01*
X70710D02*
X74944D01*
X74944D02*
X75429Y48152D01*
X75429D02*
X80703D01*
X80703D02*
X80975Y47880D01*
Y46652*
X69975Y48902D02*
X75193D01*
X75693Y48402*
X81669*
X81669D02*
X81975Y48096D01*
Y46652*
X69225Y49152D02*
X69475Y49402D01*
X75458*
X75458D02*
X76208Y48652D01*
X76208D02*
X82662D01*
X82662D02*
X82975Y48339D01*
X82975D02*
Y46652D01*
X68225Y49902D02*
X83736D01*
X83736D02*
X85476Y48161D01*
X85476D02*
X88715D01*
X88715D02*
X89725Y47152D01*
X67725Y48902D02*
X68239Y49416D01*
X68239D02*
X68704D01*
X68704D02*
X68940Y49652D01*
X83150*
X83975Y48827*
Y46652*
X66975Y48152D02*
X67225Y47902D01*
X70742*
X70742D02*
X70992Y48152D01*
X70992D02*
X72434D01*
X72934Y47652*
X77975*
X78975Y46652*
X74475Y48152D02*
X74725Y47902D01*
X79737*
X79737D02*
X79975Y47664D01*
X79975D02*
Y46652D01*
X71725Y47652D02*
X71975Y47402D01*
X77225*
X77975Y46652*
X78225Y49152D02*
X81475D01*
X89975Y48652D02*
X90665D01*
X91665Y47652*
X93475*
X87475Y48652D02*
X89975D01*
X16725Y54152D02*
X17225Y54652D01*
X22999*
X22999D02*
X23999Y55651D01*
X23999D02*
X32702D01*
X32702D02*
X32959Y55394D01*
X32959D02*
X48090D01*
X48090D02*
X48363Y55121D01*
X48363D02*
X60266D01*
X60266D02*
X60475Y54912D01*
Y54426*
X60728Y54172*
X60728D02*
X61246D01*
X61246D02*
X61735Y53683D01*
X61735D02*
X63954D01*
X63954D02*
X64406Y54134D01*
X71192*
X71424Y53902*
X80475*
X20475Y53402D02*
X26456D01*
X26456D02*
X26975Y53920D01*
Y54652*
X20975Y52652D02*
X26164D01*
X26164D02*
X27975Y54462D01*
X27975D02*
Y54652D01*
X26475Y51652D02*
Y52411D01*
X28236Y54172*
X28236D02*
X28711D01*
X28711D02*
X28975Y54436D01*
Y54652*
X30475Y52152D02*
X31229D01*
X31229D02*
X31999Y52921D01*
X31999D02*
X37528D01*
X37528D02*
X38286Y53679D01*
X38286D02*
X40616D01*
X40616D02*
X40975Y54038D01*
X40975D02*
Y54652D01*
X28975Y53152D02*
X30676D01*
X30975Y53451*
Y54652*
X28475Y52652D02*
X31346D01*
X31852Y53157*
X31852D02*
X37422D01*
X37422D02*
X38186Y53922D01*
X38186D02*
X39712D01*
X39975Y54185*
Y54652*
X26975Y52152D02*
Y52465D01*
X28430Y53920*
X28430D02*
X29714D01*
X29714D02*
X29975Y54181D01*
X29975D02*
Y54652D01*
X34475Y53652D02*
X37573D01*
X37975Y54053*
X37975D02*
Y54652D01*
X33475Y51902D02*
X33713Y51663D01*
X33713D02*
X38736D01*
X38736D02*
X38975Y51902D01*
X35975Y51152D02*
X36244Y51421D01*
X39206*
X39475Y51152*
X38975Y51902D02*
X39766D01*
X39766D02*
X39920Y51748D01*
X40821*
X40821D02*
X41207Y52134D01*
X49619*
X49965Y51788*
Y51093*
X49965D02*
X50229Y50830D01*
X59992*
X59992D02*
X60173Y50649D01*
X60173D02*
X65245D01*
X65471Y50422*
X65471D02*
X66979D01*
X66979D02*
X67452Y50895D01*
X69727*
X69978Y50644*
X69978D02*
X85158D01*
X85166Y50652*
X87475*
X39975Y53152D02*
X40201Y52926D01*
X55201*
X55475Y52652*
X40475Y52152D02*
X40693Y52370D01*
X40693D02*
X49081D01*
X40975Y51152D02*
X44975D01*
X41475Y51652D02*
X43975D01*
X42475Y53402D02*
Y53803D01*
X42475D02*
X42576Y53904D01*
X42576D02*
X46931D01*
X46931D02*
X47434Y53401D01*
X47434D02*
X57215D01*
X57215D02*
X57710Y53895D01*
X57710D02*
X60979D01*
X60979D02*
X61428Y53447D01*
X64241*
X64241D02*
X64682Y53888D01*
X64682D02*
X70942D01*
X71178Y53652*
X79856*
X79856D02*
X80010Y53498D01*
X82475*
X83128Y54152*
X83128D02*
X85975D01*
X43475Y53402D02*
X43712Y53165D01*
X57483*
X57483D02*
X57720Y53402D01*
X57720D02*
X59975D01*
X44975Y51152D02*
X49170D01*
X49728Y50593*
X49728D02*
X59661D01*
X59661D02*
X59842Y50412D01*
X59842D02*
X64953D01*
X64953D02*
X65186Y50180D01*
X65186D02*
X67254D01*
X67733Y50659*
X69469*
X69469D02*
X69743Y50386D01*
X85539*
X86783Y49142*
X91298*
X91298D02*
X91789Y48652D01*
X93475*
X55475Y52652D02*
X55724Y52901D01*
X57724*
X57975Y53152*
X59225*
X59475Y52902*
X60223*
X60473Y53152*
X64469*
X64469D02*
X64969Y53652D01*
X64969D02*
X70743D01*
X70743D02*
X70993Y53402D01*
X70993D02*
X79475D01*
X79725Y53152*
X82475*
X82975Y53652*
X84975*
X56975Y53902D02*
X57245Y54172D01*
X57245D02*
X58782D01*
X58782D02*
X58975Y54365D01*
X58975D02*
Y54652D01*
Y52652D02*
X60736D01*
X61236Y52152*
X62222*
X62222D02*
X62722Y52652D01*
X62722D02*
X65225D01*
X61975Y51652D02*
X62437Y51189D01*
X62437D02*
X65260D01*
X65459Y51388*
X65459D02*
X70237D01*
X70237D02*
X70473Y51151D01*
X70473D02*
X74725D01*
X74725D02*
X74975Y51402D01*
X60975Y51652D02*
Y51173D01*
X60975D02*
X61247Y50902D01*
X66475*
X64975Y51652D02*
X73975D01*
X63975Y52152D02*
X66214D01*
X66214D02*
X66464Y51902D01*
X66464D02*
X69725D01*
X69975Y52152*
Y52652*
X62975Y54652D02*
Y55414D01*
X63173Y55612*
X70685*
X70685D02*
X70975Y55902D01*
X73975Y51652D02*
X74207Y51884D01*
X74207D02*
X76486D01*
X76486D02*
X76985Y51385D01*
X76985D02*
X82743D01*
X82743D02*
X82989Y51631D01*
X85261*
X85261D02*
X85782Y52152D01*
X85782D02*
X91975D01*
X75975Y51152D02*
X76246Y50880D01*
X76246D02*
X83194D01*
X83465Y51152*
X83465D02*
X89225D01*
X74975Y51402D02*
X75516D01*
X75516D02*
X75670Y51555D01*
X75670D02*
X76312D01*
X76312D02*
X76717Y51149D01*
X76717D02*
X82985D01*
X82985D02*
X83227Y51391D01*
X85788*
X85788D02*
X86049Y51652D01*
X90475*
X88975Y52652D02*
X93801D01*
X94551Y51902*
X96975*
X97475Y51402*
X18225Y58652D02*
X23725D01*
X16725Y58152D02*
X17225Y57652D01*
X21975*
X17725Y58152D02*
X22475D01*
X17725Y55152D02*
X18982D01*
X20482Y56652*
X23549*
X23799Y56402*
X32978*
X33228Y56152*
X50725*
X50975Y56402*
X18975Y57152D02*
X24475D01*
X21975Y55652D02*
X23355D01*
X23355D02*
X23591Y55888D01*
X23591D02*
X32810D01*
X32810D02*
X33057Y55640D01*
X33057D02*
X48196D01*
X48196D02*
X48466Y55370D01*
X48466D02*
X61234D01*
X61234D02*
X61475Y55130D01*
Y54525*
X61475D02*
X62081Y53919D01*
X63706*
X64157Y54370*
X71477*
X71477D02*
X71667Y54180D01*
X71667D02*
X78253D01*
X78253D02*
X78725Y54652D01*
X22975Y56152D02*
X32885D01*
X32885D02*
X33151Y55886D01*
X33151D02*
X48302D01*
X48302D02*
X48542Y55646D01*
X48542D02*
X62265D01*
X62265D02*
X62475Y55437D01*
Y54445*
X62764Y54155*
X62764D02*
X63457D01*
X63457D02*
X63937Y54635D01*
X63937D02*
X71734D01*
X71734D02*
X71953Y54416D01*
X71953D02*
X77740D01*
X77740D02*
X77975Y54652D01*
X31475Y55152D02*
X41475D01*
X41975Y54652*
X33975Y58652D02*
Y58187D01*
X34260Y57902*
X35475*
X31975Y58652D02*
X32475Y58152D01*
X33490*
X33490D02*
X34490Y57152D01*
X34490D02*
X36225D01*
X37975Y56902D02*
X38198Y57125D01*
X38198D02*
X53468D01*
X53468D02*
X53744Y57401D01*
X53744D02*
X57235D01*
X57235D02*
X57734Y56902D01*
X57734D02*
X58967D01*
X58967D02*
X59455Y57389D01*
X59455D02*
X63734D01*
X63734D02*
X64239Y56883D01*
X64239D02*
X68466D01*
X68466D02*
X69450Y57868D01*
X69450D02*
X75077D01*
X75077D02*
X75860Y58652D01*
X75860D02*
X76975D01*
X36225Y57152D02*
Y56739D01*
X36557Y56406*
X36557D02*
X49727D01*
X49727D02*
X50194Y56873D01*
X52760*
X53500Y56133*
X53500D02*
X68751D01*
X68751D02*
X69269Y56652D01*
X76975*
X52975Y57652D02*
X57478D01*
X57478D02*
X57728Y57902D01*
X57728D02*
X64975D01*
X65225Y57652*
X51975Y56402D02*
X52491Y55885D01*
X52491D02*
X68843D01*
X68843D02*
X69331Y56374D01*
X69331D02*
X72517D01*
X72517D02*
X72683Y56209D01*
X80546*
X80546D02*
X80989Y56652D01*
X80989D02*
X81475D01*
X54475Y56902D02*
X56994D01*
X56994D02*
X57526Y56369D01*
X57526D02*
X68647D01*
X68647D02*
X69429Y57152D01*
X80501*
X81001Y57652*
X81475*
X50975Y58652D02*
Y58303D01*
X51126Y58152*
X66725*
X66975Y57902*
X58475Y57402D02*
X58715Y57642D01*
X64197*
X64197D02*
X64702Y57137D01*
X64702D02*
X68370D01*
X68370D02*
X69396Y58163D01*
X69396D02*
X74112D01*
X74112D02*
X74475Y58525D01*
X74475D02*
Y58778D01*
X74848Y59152*
X74848D02*
X76475D01*
X59975Y56902D02*
X60226Y57153D01*
X60226D02*
X63494D01*
X64002Y56645*
X68576*
X69563Y57632*
X75955*
X75955D02*
X76225Y57902D01*
X62975Y58652D02*
X61975D01*
X60975*
X62975D02*
X64975D01*
X76225Y57902D02*
X76496Y58173D01*
X76496D02*
X80522D01*
X81001Y58652*
X81475*
X77975D02*
X79975D01*
X77725Y56652D02*
X79975D01*
X76975Y57652D02*
X78725D01*
X81475Y56652D02*
X82115D01*
X82615Y57152*
X86975*
X82975Y57652D02*
X84365D01*
X84865Y58152*
X87854*
X87854D02*
X88354Y57652D01*
X88354D02*
X88975D01*
X89225Y58652D02*
X89725Y58152D01*
X90977*
X87475Y58652D02*
X89225D01*
X90475Y56652D02*
X90977Y57153D01*
X90977D02*
Y58152D01*
X91520Y59840D02*
Y57106D01*
X91520D02*
X91975Y56652D01*
X97975D02*
X99475D01*
X94975Y55652D02*
X95409D01*
X95681Y55924*
X18725Y61152D02*
X24975D01*
X16725D02*
X17225Y61652D01*
X25975*
X17725Y61152D02*
X18475Y60402D01*
X20277*
X20527Y60152*
X25975*
X26225Y60402*
X19975Y59902D02*
X28558D01*
X28558D02*
X28808Y60152D01*
X28808D02*
X31475D01*
X21475Y60652D02*
X25475D01*
X25975Y61152*
X41790*
X41975Y61336*
X41975D02*
Y61652D01*
X38975D02*
Y62009D01*
X39117Y62152*
X39117D02*
X43475D01*
X44975Y59402D02*
X45488D01*
X45488D02*
X46212Y60126D01*
X46212D02*
X60449D01*
X60475Y60152*
X42975Y60402D02*
X44975D01*
X50975Y60652D02*
X55475D01*
X60975Y61652D02*
Y60116D01*
X60975D02*
X61243Y59848D01*
X65613*
X65613D02*
X66331Y59130D01*
X66331D02*
X71496D01*
X71496D02*
X71975Y58652D01*
X61975Y61652D02*
Y60394D01*
X62261Y60107*
X62261D02*
X66269D01*
X66269D02*
X66725Y59652D01*
X64725Y62402D02*
X65255Y61871D01*
X65255D02*
X75408D01*
X75408D02*
X76128Y61152D01*
X82225*
X66725Y59652D02*
X66975Y59402D01*
X72728*
X72728D02*
X72975Y59155D01*
Y58652*
X62975Y61652D02*
Y60691D01*
X62975D02*
X63296Y60371D01*
X67229*
X67948Y59652*
X73619*
X73975Y59296*
Y58652*
X70975Y60402D02*
X72503D01*
X72503D02*
X72725Y60623D01*
X72725D02*
Y61152D01*
X76475Y59152D02*
X80489D01*
X80489D02*
X80989Y59652D01*
X80989D02*
X81475D01*
X76975D02*
X78975D01*
X76975Y61652D02*
X78725D01*
X82975Y59652D02*
X84365D01*
X84819Y59197*
X84819D02*
X86237D01*
X87193Y60153*
X87193D02*
X87886D01*
X87886D02*
X87888Y60152D01*
X88475*
X82975Y61652D02*
X84319D01*
X84319D02*
X84819Y61152D01*
X84819D02*
X86475D01*
X87475Y60652D02*
X89552D01*
X89552D02*
X90052Y61152D01*
X90052D02*
X95368D01*
X95368D02*
X95681Y60839D01*
Y55924*
X90475Y60652D02*
X90977Y60150D01*
Y58152*
X91520Y59840D02*
X91832Y60152D01*
X92772*
X92772D02*
X93272Y60652D01*
X93272D02*
X94975D01*
X21475Y66902D02*
Y67468D01*
X21475D02*
X21663Y67657D01*
X21663D02*
X25530D01*
X26035Y67152*
X27225*
X22475Y65902D02*
X25975D01*
X18975Y66902D02*
Y67644D01*
X18975D02*
X19223Y67893D01*
X19223D02*
X26034D01*
X26034D02*
X26256Y67671D01*
X26256D02*
X33455D01*
X33455D02*
X33975Y67152D01*
X29975Y64152D02*
X30975D01*
X32975D02*
X33975D01*
X36225Y65652D02*
X40975D01*
X38975Y64152D02*
X39975D01*
X46725Y65652D02*
X52475D01*
X54475Y63652D02*
X63975D01*
X55475Y65652D02*
X56919D01*
X56919D02*
X57921Y66653D01*
X57921D02*
X67848D01*
X67848D02*
X67852Y66650D01*
X74690*
X74690D02*
X74932Y66891D01*
X74932D02*
Y69518D01*
X74932D02*
X75546Y70133D01*
X75546D02*
X90244D01*
X92225Y68152*
X58975Y63152D02*
Y62606D01*
X59179Y62402*
X59179D02*
X64725D01*
X60475Y65652D02*
X61322D01*
X61324Y65650*
X65695*
X65950Y65905*
X74983*
X74983D02*
X75222Y66143D01*
Y69474*
X75644Y69896*
X75644D02*
X87911D01*
X87911D02*
X88225Y69582D01*
X88225D02*
Y66902D01*
X61975Y64152D02*
Y64764D01*
X61975D02*
X62362Y65152D01*
X65975*
X89725Y64652D02*
Y64286D01*
X89930Y64081*
X98404*
X98475Y64152*
X88725Y64652D02*
Y63950D01*
X89023Y63652*
X89023D02*
X97475D01*
X17225Y69652D02*
X17725Y70152D01*
X22725*
X16725Y68652D02*
X16975Y68402D01*
X24446*
X24725Y68681*
Y69152*
X16225Y68152D02*
X26242D01*
X26242D02*
X26725Y68634D01*
X26725D02*
Y69152D01*
X29225Y70652D02*
X31176D01*
X31700Y71176*
X31700D02*
X31725Y71152D01*
X30225Y69652D02*
X31923D01*
X31923D02*
X32225Y69953D01*
X32225D02*
Y70652D01*
X32725Y71152*
X27225Y68152D02*
X34106D01*
X34106D02*
X34606Y67652D01*
X34606D02*
X42475D01*
X42975Y67152*
X30725Y69152D02*
X31208Y68669D01*
X35286*
X35475Y68480*
Y68152*
X38725Y69152D02*
Y68596D01*
X38725D02*
X38920Y68402D01*
X56225*
X56475Y68652*
X39725Y69152D02*
X40225Y69652D01*
X45225*
X51725Y70152D02*
X52225Y69652D01*
X59475*
X51725Y69152D02*
X52225Y68652D01*
X54200*
X54700Y69152*
X61225*
X59475Y69652D02*
X65975D01*
X71725Y70152D02*
Y69630D01*
X71725D02*
X71954Y69402D01*
X74475*
X51725Y71152D02*
X52225Y70652D01*
X61475*
X61975Y71152*
G54D33*
X14225Y14902D02*
Y14152D01*
X15225*
X14225D02*
Y12152D01*
X15225*
X21225D02*
X22225D01*
X27225D02*
X28225D01*
X39225D02*
X38225D01*
X37225*
X36225D02*
X37225D01*
X43225D02*
X42225D01*
X41225*
X40225*
X39225*
X45225D02*
X45699Y12626D01*
X54751*
X55475Y11902*
X45225Y12152D02*
X44225D01*
X43225*
X55475Y11902D02*
X56475D01*
X57199Y12626*
X62751*
X63475Y11902*
X64475*
X65199Y12626*
X70751*
X71475Y11902*
X74793Y12652D02*
X78725D01*
X79475Y11902*
X71475D02*
X72475D01*
X73225Y12652*
X74793*
X79475Y11902D02*
X80475D01*
X81225Y12652*
X86725*
X87475Y11902*
X90725Y12902D02*
X94475D01*
X95475Y11902*
X87475D02*
X88475D01*
X89475Y12902*
X90725*
X95475Y11902D02*
X96475D01*
X11389Y27584D02*
Y17737D01*
X11389D02*
X11975Y17152D01*
X12475Y23152D02*
X18725D01*
X27975Y25652D02*
X28619D01*
X29619Y24652*
X30975*
X31975*
X32975Y25652*
X34975*
X35975Y24652*
X36975Y25652*
X37975*
X39975*
X40975Y24652*
X43975*
X44975Y23652*
X45975*
X79475Y26652D02*
X83475D01*
X99475D02*
X100144Y27321D01*
Y31402*
X11389Y27584D02*
X12385Y28580D01*
X12385D02*
X15153D01*
X15225Y28652*
X18725Y29652D02*
Y28576D01*
Y27995*
X18725D02*
X19069Y27652D01*
X21475*
X15225Y28652D02*
X18649D01*
X18725Y28576*
X58424Y29152D02*
X59475D01*
X62975*
X63975*
X67724D02*
X68225D01*
X74975*
X75975*
X98475Y30652D02*
X99225Y31402D01*
X100144*
X21475Y34402D02*
X25225D01*
X25975Y33652*
X26743Y34420*
X30207*
X30975Y33652*
X32973Y34402D02*
X35225D01*
X35975Y33652*
X30975D02*
X31725Y34402D01*
X32973*
X65975Y33652D02*
X68975D01*
X39975Y35402D02*
Y35459D01*
X40975*
Y35402*
Y38652D02*
X41975D01*
X65225Y38402D02*
X65475Y38652D01*
X68475*
X69975*
X96975D02*
X98975D01*
Y38045*
X98975D02*
X100144Y36876D01*
Y31402*
X14725Y42152D02*
X20475D01*
X20975Y41652*
X46475Y40152D02*
X47475D01*
X56225D02*
X59975D01*
X60975*
X80475Y39402D02*
X80865Y39792D01*
X80865D02*
X81975D01*
X81975D02*
Y39652D01*
X82975*
X98975D02*
X99475Y40152D01*
X100225*
X30475Y43652D02*
X31725D01*
X34475*
X35225Y44402*
X36225*
X36475Y44652*
X37475*
X38975*
X39725Y45402*
X46725*
X47475Y44652*
X49469Y45402D02*
X51725D01*
X52475Y44652*
X47475D02*
X48225Y45402D01*
X49469*
X54475Y44652D02*
X55125D01*
X55125D02*
X56175Y45701D01*
X56175D02*
X56225Y45652D01*
X63475*
X64475Y44652*
X65475*
Y45652D02*
X68305D01*
X68394Y45562*
X68394D02*
X73064D01*
X73064D02*
X73975Y44652D01*
X74725Y45402*
X81048*
X81048D02*
X81344Y45106D01*
X81344D02*
X81975D01*
X81975D02*
Y44902D01*
X82975*
X46725Y50652D02*
X47725D01*
X91225D02*
X93475D01*
X48475Y54652D02*
X49097Y54030D01*
X51853*
X52475Y54652*
X53475*
X54097Y54030*
X55659*
X55659D02*
X56281Y54652D01*
X56975*
X89475Y53902D02*
X90475D01*
X25975Y57652D02*
X27975D01*
X28975*
X29725Y56902*
X30225*
X30975Y57652*
X31975*
X36975D02*
X37975D01*
X39975D02*
X40975D01*
X49975D02*
X50975D01*
X91975D02*
X92975Y56652D01*
X94975*
X96475D02*
X97097Y57273D01*
X97097D02*
Y58030D01*
Y59273D02*
X96475Y58652D01*
X97097Y58030*
X28975Y62652D02*
X29975D01*
X30725Y63402*
X32975*
X31975Y62652D02*
X32975D01*
Y63402*
X37975Y62652D02*
X38975D01*
X40975D02*
X41975D01*
X38975D02*
Y63402D01*
X53975Y62652D02*
X54975D01*
X50975D02*
Y62734D01*
X51975*
Y62652*
X52725Y63402*
X53225*
X53975Y62652*
X67725Y62402D02*
X73975D01*
X79225*
X79975Y61652*
X80725Y62402*
X85225*
X85975Y61652*
X86725Y62402D02*
X89725D01*
X90475Y61652*
X85975D02*
X86725Y62402D01*
X90475Y61652D02*
X91225Y62402D01*
X94225*
X94975Y61652*
X97097Y59273D02*
X97853D01*
X97853D02*
X98853Y60273D01*
X96475Y60652D02*
X97097Y60030D01*
Y59273*
X94975Y61652D02*
X95725Y62402D01*
X98725*
X99475Y61652*
X98853Y60273D02*
Y61030D01*
X99475Y61652*
X98853Y60273D02*
X99475Y59652D01*
X32975Y63402D02*
X38975D01*
X40225*
X40975Y62652*
X67725Y65402D02*
X68725D01*
X43975Y67152D02*
X44725Y66402D01*
X56225*
X56975Y67152*
X54725Y67902D02*
X64725D01*
X65225Y68402*
X67484*
X67725Y68161*
Y67152*
X50975D02*
X51725Y67902D01*
X54725*
X67725Y70152D02*
Y69643D01*
X67725D02*
X67966Y69402D01*
X67966D02*
X69481D01*
X69481D02*
X69725Y69645D01*
X69725D02*
Y70152D01*
X78225Y67902D02*
X80033D01*
X80033D02*
X80783Y68652D01*
X80783D02*
X85475D01*
X86225Y67902*
X26725Y71152D02*
X27375Y71802D01*
X34075*
X34725Y71152*
X35375Y71801*
X35375D02*
X42075D01*
X42075D02*
X42725Y71152D01*
X43378Y71805*
X50072*
X50725Y71152*
G54D34*
X30225Y12152D02*
X30764Y12691D01*
X30764D02*
X41514D01*
X41514D02*
X41725Y12902D01*
X56975Y35652D02*
Y35151D01*
X56975D02*
X57210Y34916D01*
X57210D02*
X60373D01*
X60678Y34610*
X60678D02*
X64328D01*
X64328D02*
X64610Y34329D01*
X65383*
X65440Y34271*
X65440D02*
X68915D01*
X68915D02*
X69011Y34367D01*
X85301*
X85301D02*
X85481Y34546D01*
X85481D02*
X87955D01*
X87955D02*
X88350Y34152D01*
X94475*
G54D35*
X37975Y57652D02*
X38475Y58152D01*
X39475*
X39975Y57652*
G54D36*
X86725Y62402D02*
X86778Y62454D01*
X86778D02*
X87228D01*
X86225Y67902D02*
X86916D01*
X87228Y67589*
X87228D02*
Y62454D01*
G54D40*
X58975Y63152D03*
X62975D03*
G54D44*
X11975Y17152D03*
G54D52*
X12212Y71626D03*
X0Y0D02*
M02*
