*
*
G04 PADS Layout (Build Number 2007.42.1) generated Gerber (RS-274-X) file*
G04 PC Version=2.1*
*
%IN "755045-518e_v23.pcb"*%
*
%MOIN*%
*
%FSLAX24Y24*%
*
*
*
*
G04 PC Standard Apertures*
*
*
G04 Thermal Relief Aperture macro.*
%AMTER*
1,1,$1,0,0*
1,0,$1-$2,0,0*
21,0,$3,$4,0,0,45*
21,0,$3,$4,0,0,135*
%
*
*
G04 Annular Aperture macro.*
%AMANN*
1,1,$1,0,0*
1,0,$2,0,0*
%
*
*
G04 Odd Aperture macro.*
%AMODD*
1,1,$1,0,0*
1,0,$1-0.005,0,0*
%
*
*
G04 PC Custom Aperture Macros*
*
*
*
*
*
*
G04 PC Aperture Table*
*
%ADD010C,0.01*%
%ADD013C,0.06102*%
%ADD014C,0.04724*%
%ADD015C,0.05512*%
%ADD016C,0.06299*%
%ADD017C,0.0748*%
%ADD018C,0.11811*%
%ADD019C,0.11024*%
%ADD022C,0.04724*%
%ADD023C,0.01378*%
%ADD025C,0.01181*%
%ADD032C,0.01378*%
%ADD033C,0.04724*%
%ADD034C,0.012*%
%ADD040C,0.05906*%
%ADD044C,0.07874*%
%ADD052R,0.23622X0.23622*%
*
*
*
*
G04 PC Copper Outlines (0)*
G04 Layer Name 755045-518e_v23.pcb - dark (0)*
%LPD*%
*
*
G04 PC Area=CFC2*
G75*
G36*
G01*
X100675Y49602D02*
X95275D01*
Y42952D01*
X100675D01*
Y49602D01*
G37*
G74*
*
*
G04 PC Copper Outlines (1)*
G04 Layer Name 755045-518e_v23.pcb - dark (1)*
%LPD*%
*
*
G04 PC Area=Custom_Thermal*
*
G04 PC Custom Flashes*
G04 Layer Name 755045-518e_v23.pcb - flashes*
%LPD*%
*
*
G04 PC Circuitry*
G04 Layer Name 755045-518e_v23.pcb - circuitry*
%LPD*%
*
G54D10*
G01X101453Y67203D02*
X100936D01*
X101453Y66952D02*
X101108Y67203D01*
X101231Y67113D02*
X100936Y66952D01*
X101453Y66684D02*
X101428Y66720D01*
X101428D02*
X101379Y66756D01*
X101330Y66773*
X101330D02*
X101256Y66791D01*
X101256D02*
X101133D01*
X101133D02*
X101059Y66773D01*
X101059D02*
X101010Y66756D01*
X100961Y66720*
X100936Y66684*
X100936D02*
Y66612D01*
X100936D02*
X100961Y66577D01*
X101010Y66541*
X101059Y66523*
X101059D02*
X101133Y66505D01*
X101256*
X101330Y66523*
X101379Y66541*
X101428Y66577*
X101428D02*
X101453Y66612D01*
X101453D02*
Y66684D01*
Y66344D02*
X100936D01*
X101453D02*
X100936Y66201D01*
X101453Y66058D02*
X100936Y66201D01*
X101453Y66058D02*
X100936D01*
X101453Y65897D02*
X100936D01*
X101453D02*
Y65736D01*
X101428Y65682*
X101428D02*
X101404Y65664D01*
X101354Y65646*
X101354D02*
X101281D01*
X101231Y65664*
X101231D02*
X101207Y65682D01*
X101182Y65736*
X101182D02*
Y65897D01*
X100985Y65467D02*
X100961Y65485D01*
X100936Y65467*
X100936D02*
X100961Y65449D01*
X100961D02*
X100985Y65467D01*
X101379Y64626D02*
X101428Y64662D01*
X101428D02*
X101453Y64715D01*
X101453D02*
Y64787D01*
X101428Y64841*
X101428D02*
X101379Y64877D01*
X101330*
X101281Y64859*
X101256Y64841*
X101231Y64805*
X101231D02*
X101182Y64698D01*
X101182D02*
X101158Y64662D01*
X101133Y64644*
X101084Y64626*
X101010*
X100961Y64662*
X100936Y64715*
X100936D02*
Y64787D01*
X100936D02*
X100961Y64841D01*
X101010Y64877*
X101453Y64465D02*
X100936D01*
X101453Y64304D02*
X100936D01*
X101453D02*
Y64179D01*
X101428Y64125*
X101428D02*
X101379Y64089D01*
X101379D02*
X101330Y64071D01*
X101330D02*
X101256Y64053D01*
X101256D02*
X101133D01*
X101133D02*
X101059Y64071D01*
X101059D02*
X101010Y64089D01*
X101010D02*
X100961Y64125D01*
X100936Y64179*
X100936D02*
Y64304D01*
X101453Y63892D02*
X100936D01*
X101453D02*
Y63660D01*
X101207Y63892D02*
Y63749D01*
X100936Y63892D02*
Y63660D01*
X101453Y62836D02*
X100936Y63015D01*
X101453Y63087D02*
Y62836D01*
Y62443D02*
Y62622D01*
X101231Y62640*
X101231D02*
X101256Y62622D01*
X101281Y62568*
Y62514*
X101281D02*
X101256Y62461D01*
X101207Y62425*
X101133Y62407*
X101084Y62425*
X101010Y62443*
X100961Y62479*
X100936Y62532*
X100936D02*
Y62586D01*
X100936D02*
X100961Y62640D01*
X100985Y62657*
X100985D02*
X101035Y62675D01*
X101453Y62013D02*
Y62192D01*
X101453D02*
X101231Y62210D01*
X101231D02*
X101256Y62192D01*
X101256D02*
X101281Y62139D01*
Y62085*
X101256Y62031*
X101256D02*
X101207Y61995D01*
X101207D02*
X101133Y61977D01*
X101133D02*
X101084Y61995D01*
X101084D02*
X101010Y62013D01*
X101010D02*
X100961Y62049D01*
X100936Y62103*
X100936D02*
Y62156D01*
X100936D02*
X100961Y62210D01*
X100961D02*
X100985Y62228D01*
X100985D02*
X101035Y62246D01*
X101453Y61709D02*
X101428Y61763D01*
X101428D02*
X101354Y61798D01*
X101354D02*
X101231Y61816D01*
X101231D02*
X101158D01*
X101158D02*
X101035Y61798D01*
X101035D02*
X100961Y61763D01*
X100936Y61709*
X100936D02*
Y61673D01*
X100936D02*
X100961Y61620D01*
X101035Y61584*
X101158Y61566*
X101231*
X101231D02*
X101354Y61584D01*
X101354D02*
X101428Y61620D01*
X101428D02*
X101453Y61673D01*
X101453D02*
Y61709D01*
Y61226D02*
X101108Y61405D01*
X101108D02*
Y61136D01*
X101453Y61226D02*
X100936D01*
X101453Y60743D02*
Y60922D01*
X101231Y60940*
X101231D02*
X101256Y60922D01*
X101281Y60868*
Y60814*
X101281D02*
X101256Y60761D01*
X101207Y60725*
X101133Y60707*
X101084Y60725*
X101010Y60743*
X100961Y60778*
X100961D02*
X100936Y60832D01*
X100936D02*
Y60886D01*
X100936D02*
X100961Y60940D01*
X100985Y60957*
X100985D02*
X101035Y60975D01*
X101158Y60546D02*
Y60224D01*
X101453Y59830D02*
Y60009D01*
X101231Y60027*
X101231D02*
X101256Y60009D01*
X101281Y59955*
X101281D02*
Y59902D01*
X101256Y59848*
X101207Y59812*
X101207D02*
X101133Y59794D01*
X101133D02*
X101084Y59812D01*
X101084D02*
X101010Y59830D01*
X100961Y59866*
X100936Y59919*
X100936D02*
Y59973D01*
X100936D02*
X100961Y60027D01*
X100985Y60045*
X100985D02*
X101035Y60063D01*
X101354Y59633D02*
X101379Y59597D01*
X101379D02*
X101453Y59544D01*
X100936*
X101453Y59293D02*
X101428Y59347D01*
X101428D02*
X101379Y59365D01*
X101330*
X101281Y59347*
X101256Y59311*
X101231Y59239*
X101231D02*
X101207Y59186D01*
X101158Y59150*
X101108Y59132*
X101108D02*
X101035D01*
X101035D02*
X100985Y59150D01*
X100985D02*
X100961Y59168D01*
X100936Y59222*
X100936D02*
Y59293D01*
X100936D02*
X100961Y59347D01*
X100985Y59365*
X100985D02*
X101035Y59383D01*
X101108*
X101108D02*
X101158Y59365D01*
X101207Y59329*
X101231Y59275*
X101231D02*
X101256Y59204D01*
X101281Y59168*
X101330Y59150*
X101379*
X101428Y59168*
X101428D02*
X101453Y59222D01*
Y59293*
Y58971D02*
X100936D01*
X101453D02*
Y58738D01*
X101207Y58971D02*
Y58828D01*
X100936Y58971D02*
Y58738D01*
X95275Y49602D02*
X100675D01*
Y42952*
X95275*
Y49602*
G54D13*
X50975Y35902D03*
X51975D03*
X18975Y65902D03*
X19975D03*
X18975Y66902D03*
X19975D03*
X21475Y65902D03*
X22475D03*
X21475Y66902D03*
X22475D03*
X96475Y51402D03*
X97475D03*
X96475Y52402D03*
X97475D03*
X48475Y35902D03*
X49475D03*
X48475Y36902D03*
X49475D03*
X53475Y35902D03*
X54475D03*
X53475Y36902D03*
X54475D03*
G54D14*
X76225Y70902D03*
X78225Y68902D03*
X84225Y70902D03*
X86225Y68902D03*
X16225Y17902D03*
X16725Y17402D03*
X17225Y17902D03*
X17725Y17402D03*
X19725Y18652D03*
X20225Y20152D03*
X21975Y17152D03*
X22975Y18152D03*
Y15152D03*
X23725Y15902D03*
X24725Y16152D03*
X25725Y16402D03*
X23725Y19152D03*
X24725D03*
X25725D03*
X57975Y18652D03*
X55975Y18152D03*
X55225Y16152D03*
X54725Y17152D03*
X55475Y19652D03*
X55725Y20652D03*
X56475Y21652D03*
X57475Y19652D03*
X52225Y18902D03*
Y19652D03*
X51725Y21152D03*
X51225Y20652D03*
X51975Y22152D03*
X49975Y19652D03*
X50975Y17402D03*
X50475Y15902D03*
X49725Y17152D03*
X48225Y18652D03*
X48725Y21402D03*
X49975Y22652D03*
X49225Y23152D03*
Y15152D03*
X47225Y14652D03*
X46725Y13652D03*
X55975Y14652D03*
X58725Y15652D03*
X72975D03*
X75975Y16152D03*
X74725Y13652D03*
X72725Y21652D03*
X73725D03*
X62475Y21152D03*
X63975Y22652D03*
X64475Y23152D03*
X65475Y22152D03*
X62975Y23652D03*
X63475Y24152D03*
X30725Y16652D03*
X34725D03*
X37725Y18652D03*
X26975Y18152D03*
X12475Y23152D03*
X21975Y23652D03*
X24975Y22902D03*
X23975D03*
X19475Y26152D03*
X18725Y23152D03*
X20225Y22652D03*
X19975Y26902D03*
X15725Y21652D03*
X13975Y24652D03*
X23225Y22152D03*
X24975Y26152D03*
X25475Y27152D03*
X23475D03*
X23975Y29152D03*
Y29902D03*
X24475Y31152D03*
X26475Y30152D03*
X27475D03*
X26725Y31652D03*
X24725Y35652D03*
X25475D03*
X21475Y34402D03*
X27975Y36652D03*
X28225Y35902D03*
Y35152D03*
X28975D03*
X30225Y35402D03*
X29725Y33152D03*
X29225Y37902D03*
X29475Y30652D03*
X33975Y33152D03*
Y31652D03*
X33475Y31152D03*
X34225Y30402D03*
X34725Y32152D03*
X33975Y27652D03*
X34725D03*
Y26902D03*
X32225Y26152D03*
X30225Y27152D03*
X39725D03*
X39225Y29152D03*
X39475Y31152D03*
X34225Y22152D03*
X35475D03*
X36225D03*
X32725Y21902D03*
X28725Y22402D03*
X27975Y18902D03*
X33475Y19402D03*
X27725Y13152D03*
X32225D03*
X72975Y32152D03*
X67475Y32402D03*
X68475Y35652D03*
X76975Y31902D03*
X70975Y36402D03*
X72975D03*
X73975Y36652D03*
X74975Y39402D03*
X75975D03*
X74475Y40152D03*
X73725Y39902D03*
X69975D03*
X68975Y39652D03*
X68475Y38652D03*
X64225Y37652D03*
X64475Y39152D03*
X64225Y40402D03*
X64475Y41652D03*
X63225Y43152D03*
X61225Y43402D03*
X62225Y43902D03*
X65975Y44152D03*
X67475Y43402D03*
X68475Y43652D03*
X69975D03*
X65475Y45652D03*
X63725Y46652D03*
X73975Y42652D03*
X72225Y43902D03*
X75475Y42652D03*
X76975Y42402D03*
Y43402D03*
X78475Y43652D03*
X79475D03*
X80975Y44652D03*
X77475Y40652D03*
X78475Y40402D03*
X78225Y39402D03*
X79225Y40402D03*
X77725Y38652D03*
X80475Y39402D03*
X81475Y38902D03*
X82725Y40402D03*
X83475Y40902D03*
X84225Y42402D03*
X83975Y43652D03*
X85725Y43152D03*
X84975Y41652D03*
X86475Y45152D03*
X86975Y46152D03*
X88975Y41652D03*
X89975Y40652D03*
X90975Y42152D03*
X91475Y44652D03*
X92475Y46152D03*
X89725Y47152D03*
X89975Y48652D03*
X89225Y51152D03*
X90475Y51652D03*
X91225Y50652D03*
X91975Y52152D03*
X78725Y36652D03*
X79475Y35152D03*
X78725Y35652D03*
X81975D03*
X83975D03*
X85975Y31652D03*
X86475Y32652D03*
X86975Y34152D03*
X87975Y35652D03*
X88975Y34902D03*
X91975Y36152D03*
X92475Y35402D03*
X93975D03*
X96475D03*
X94475Y34152D03*
X94975Y37902D03*
X91975Y39152D03*
X90475Y38402D03*
X66975Y48152D03*
X63975Y47652D03*
X61975Y47902D03*
X59975Y48152D03*
X67725Y48902D03*
X68225Y49902D03*
X69225Y49152D03*
X69475Y48402D03*
X69975Y48902D03*
X70475Y48402D03*
X71725Y47652D03*
X74475Y48152D03*
X73975Y51652D03*
X74975Y51402D03*
X75975Y51152D03*
X78225Y49152D03*
X78475Y51902D03*
X77975Y54652D03*
X78725D03*
X80475Y53902D03*
X81475Y49152D03*
X80475Y47152D03*
X83475Y52152D03*
X84975Y53652D03*
X85975Y54152D03*
X88975Y52652D03*
X86975Y57152D03*
X88975Y57652D03*
X88475Y60152D03*
X65975Y32652D03*
X64475Y33152D03*
X63475Y32402D03*
X62475D03*
X61725Y32902D03*
X60975Y32652D03*
X59975D03*
X59475Y29152D03*
X55725Y29652D03*
X55975Y28902D03*
X56975Y28402D03*
X58475Y27152D03*
X58975Y26152D03*
X56475Y27402D03*
X55725Y27902D03*
X53975Y28402D03*
X54975Y31402D03*
X51475Y24152D03*
X53975D03*
X51975Y26152D03*
X50975Y24652D03*
X50475Y25152D03*
X49725Y24652D03*
X49225Y25402D03*
X61975Y37652D03*
X61225Y37402D03*
X58725D03*
X57475Y37652D03*
X56975Y48652D03*
X58975D03*
X60475Y51152D03*
X58975Y52652D03*
X59975Y53402D03*
X61975Y52652D03*
X63975Y52152D03*
X64975Y51652D03*
X65225Y52652D03*
X66475Y50902D03*
X64725Y49902D03*
X53975Y48152D03*
X52475Y47902D03*
X49975Y48402D03*
Y47152D03*
X53975Y45402D03*
X56225Y45652D03*
X44975Y51152D03*
X44475Y50152D03*
X42975Y50652D03*
X43975Y51652D03*
X43475Y53402D03*
X42475D03*
X41475Y51652D03*
X40975Y51152D03*
X40475Y52152D03*
X39975Y53152D03*
Y50152D03*
X39475Y51152D03*
X38975Y51902D03*
X38475Y50902D03*
Y49902D03*
X77725Y56652D03*
X78725Y57652D03*
X77975Y58652D03*
X78975Y59652D03*
X76475Y59152D03*
X76225Y57902D03*
X78725Y61652D03*
X82225Y61152D03*
X69475Y60152D03*
X70975Y60402D03*
X73975Y62402D03*
X67725D03*
X66725Y59652D03*
X66975Y57902D03*
X65225Y57652D03*
X70975Y55902D03*
X31975Y36402D03*
X33475Y37152D03*
X34725Y38402D03*
X33225Y38902D03*
X26725Y41152D03*
X27975Y42152D03*
X22725Y43652D03*
X22975Y38652D03*
X24725Y46652D03*
X30475D03*
X27725Y50402D03*
X26475Y51652D03*
X26975Y52152D03*
X28475Y52652D03*
X28975Y53152D03*
X30475Y52152D03*
X33475Y51902D03*
X34475Y53652D03*
X32475Y54152D03*
X31475Y55152D03*
X35975Y51152D03*
X36225Y57152D03*
X35475Y57902D03*
X37975Y56902D03*
X47725Y50652D03*
X46725Y47652D03*
X46475Y46652D03*
X48975Y43652D03*
X45725Y40402D03*
X46475Y39402D03*
X50975Y39152D03*
X53725Y40902D03*
X55225Y39652D03*
X56225Y40152D03*
X52975Y33652D03*
X50725Y32152D03*
X50225Y31652D03*
X49225Y32402D03*
X48225Y32152D03*
X47475Y31652D03*
X45475Y31152D03*
X44475Y31902D03*
X45975Y33902D03*
X45475Y35402D03*
X46475Y36652D03*
X45975Y37152D03*
X42225Y33152D03*
X41975Y26652D03*
Y28402D03*
X32225Y30402D03*
X61475Y30152D03*
X66975Y27902D03*
X68225Y29152D03*
X69975Y27652D03*
X68725Y26152D03*
X71975Y27152D03*
X72975Y26152D03*
X78975Y14652D03*
X80225Y16652D03*
X81225Y17652D03*
X82975Y19152D03*
X81975Y20652D03*
X80725Y22652D03*
X81475Y23652D03*
X82475Y25152D03*
X79475Y26652D03*
X83975Y26152D03*
X86975Y25152D03*
X87975Y24152D03*
X88975Y23152D03*
X86475Y14652D03*
X90725Y12902D03*
X38725Y13152D03*
X39725D03*
X41725Y12902D03*
X43725Y13152D03*
X20975Y52652D03*
X20475Y53402D03*
X21975Y55652D03*
X22975Y56152D03*
X24475Y57152D03*
X25975Y57652D03*
X25225Y58652D03*
X23725D03*
X22475Y58152D03*
X21975Y57652D03*
X21475Y60652D03*
X26225Y60402D03*
X24975Y61152D03*
X25975Y61652D03*
X19975Y59902D03*
X18725Y61152D03*
X18225Y58652D03*
X18975Y57152D03*
X16725Y62152D03*
X14725Y62902D03*
X18975Y63152D03*
X13225Y63902D03*
X12475Y64652D03*
X15725Y68902D03*
X16225Y68152D03*
X16725Y68652D03*
X17225Y69652D03*
X19475Y68902D03*
X14725Y70652D03*
X25975Y65902D03*
X27225Y67152D03*
Y68152D03*
X35475D03*
X36225Y65652D03*
X40975D03*
X56975Y53902D03*
X55475Y52652D03*
Y51652D03*
X54475Y56902D03*
X51975Y56402D03*
X50975D03*
Y60652D03*
X55475D03*
X58475Y57402D03*
X59975Y56902D03*
X63725Y55152D03*
Y59402D03*
X60475Y60152D03*
X64725Y62402D03*
X63975Y63652D03*
X62975Y64402D03*
X60475Y65652D03*
X61225Y69152D03*
X59475Y69652D03*
X65975D03*
X56475Y68652D03*
X54725Y67902D03*
X55475Y65652D03*
X52475D03*
X54475Y63652D03*
X46725Y65652D03*
X42975Y60402D03*
X44975D03*
Y59402D03*
X45725Y58652D03*
X43475Y62152D03*
X31475Y60152D03*
X73725Y65402D03*
X74475Y69402D03*
X88225Y66902D03*
X92225Y68152D03*
X97475Y63652D03*
X98475Y64152D03*
X97975Y56652D03*
X92975Y31152D03*
X17725Y32652D03*
X17225Y31652D03*
X16725Y30652D03*
X16225Y30152D03*
X15725Y31902D03*
X22475Y25152D03*
X13225Y19652D03*
X39475Y37402D03*
X38725Y38652D03*
X40475Y39652D03*
X38475Y43402D03*
X36975Y43902D03*
X35225Y44402D03*
X36475Y47402D03*
X84475Y63152D03*
X89225Y58652D03*
X51475Y62152D03*
X37225Y19652D03*
X38225Y20652D03*
X45225Y69652D03*
X14725Y42152D03*
X13975Y43402D03*
Y48152D03*
X58475Y42152D03*
X30225Y69652D03*
X29225Y70652D03*
X86475Y61152D03*
X66725Y16152D03*
X61975D03*
X68725Y21652D03*
X65975Y34902D03*
X42975Y24652D03*
X52975Y57652D03*
X59512Y39126D03*
X33225Y14902D03*
G54D15*
X66475Y35652D03*
Y40652D03*
X67475Y35652D03*
Y40652D03*
X25975Y48652D03*
X26975D03*
X27975D03*
X28975D03*
X29975D03*
X30975D03*
X31975D03*
X32975D03*
X33975D03*
X34975D03*
X35975D03*
X36975D03*
X37975D03*
X38975D03*
X39975D03*
X40975D03*
X41975D03*
X42975D03*
X43975D03*
X44975D03*
Y54652D03*
X43975D03*
X42975D03*
X41975D03*
X40975D03*
X39975D03*
X38975D03*
X37975D03*
X36975D03*
X35975D03*
X34975D03*
X33975D03*
X32975D03*
X31975D03*
X30975D03*
X29975D03*
X28975D03*
X27975D03*
X26975D03*
X25975D03*
X59475Y13652D03*
Y14652D03*
Y15652D03*
Y16652D03*
Y17652D03*
Y18652D03*
Y19652D03*
Y20652D03*
Y21652D03*
Y22652D03*
Y23652D03*
Y24652D03*
Y25652D03*
Y26652D03*
X53475D03*
Y25652D03*
Y24652D03*
Y23652D03*
Y22652D03*
Y21652D03*
Y20652D03*
Y19652D03*
Y18652D03*
Y17652D03*
Y16652D03*
Y15652D03*
Y14652D03*
Y13652D03*
X67475D03*
Y14652D03*
Y15652D03*
Y16652D03*
Y17652D03*
Y18652D03*
Y19652D03*
Y20652D03*
Y21652D03*
Y22652D03*
Y23652D03*
Y24652D03*
Y25652D03*
Y26652D03*
X61475D03*
Y25652D03*
Y24652D03*
Y23652D03*
Y22652D03*
Y21652D03*
Y20652D03*
Y19652D03*
Y18652D03*
Y17652D03*
Y16652D03*
Y15652D03*
Y14652D03*
Y13652D03*
X75475D03*
Y14652D03*
Y15652D03*
Y16652D03*
Y17652D03*
Y18652D03*
Y19652D03*
Y20652D03*
Y21652D03*
Y22652D03*
Y23652D03*
Y24652D03*
Y25652D03*
Y26652D03*
X69475D03*
Y25652D03*
Y24652D03*
Y23652D03*
Y22652D03*
Y21652D03*
Y20652D03*
Y19652D03*
Y18652D03*
Y17652D03*
Y16652D03*
Y15652D03*
Y14652D03*
Y13652D03*
X83475D03*
Y14652D03*
Y15652D03*
Y16652D03*
Y17652D03*
Y18652D03*
Y19652D03*
Y20652D03*
Y21652D03*
Y22652D03*
Y23652D03*
Y24652D03*
Y25652D03*
Y26652D03*
X77475D03*
Y25652D03*
Y24652D03*
Y23652D03*
Y22652D03*
Y21652D03*
Y20652D03*
Y19652D03*
Y18652D03*
Y17652D03*
Y16652D03*
Y15652D03*
Y14652D03*
Y13652D03*
X91475D03*
Y14652D03*
Y15652D03*
Y16652D03*
Y17652D03*
Y18652D03*
Y19652D03*
Y20652D03*
Y21652D03*
Y22652D03*
Y23652D03*
Y24652D03*
Y25652D03*
Y26652D03*
X85475D03*
Y25652D03*
Y24652D03*
Y23652D03*
Y22652D03*
Y21652D03*
Y20652D03*
Y19652D03*
Y18652D03*
Y17652D03*
Y16652D03*
Y15652D03*
Y14652D03*
Y13652D03*
X99475D03*
Y14652D03*
Y15652D03*
Y16652D03*
Y17652D03*
Y18652D03*
Y19652D03*
Y20652D03*
Y21652D03*
Y22652D03*
Y23652D03*
Y24652D03*
Y25652D03*
Y26652D03*
X93475D03*
Y25652D03*
Y24652D03*
Y23652D03*
Y22652D03*
Y21652D03*
Y20652D03*
Y19652D03*
Y18652D03*
Y17652D03*
Y16652D03*
Y15652D03*
Y14652D03*
Y13652D03*
X40975Y24652D03*
Y25652D03*
Y26652D03*
Y27652D03*
Y28652D03*
Y29652D03*
Y30652D03*
Y31652D03*
Y32652D03*
Y33652D03*
X37975D03*
Y32652D03*
Y31652D03*
Y30652D03*
Y29652D03*
Y28652D03*
Y27652D03*
Y26652D03*
Y25652D03*
Y24652D03*
X35975D03*
Y25652D03*
Y26652D03*
Y27652D03*
Y28652D03*
Y29652D03*
Y30652D03*
Y31652D03*
Y32652D03*
Y33652D03*
X32975D03*
Y32652D03*
Y31652D03*
Y30652D03*
Y29652D03*
Y28652D03*
Y27652D03*
Y26652D03*
Y25652D03*
Y24652D03*
X30975D03*
Y25652D03*
Y26652D03*
Y27652D03*
Y28652D03*
Y29652D03*
Y30652D03*
Y31652D03*
Y32652D03*
Y33652D03*
X27975D03*
Y32652D03*
Y31652D03*
Y30652D03*
Y29652D03*
Y28652D03*
Y27652D03*
Y26652D03*
Y25652D03*
Y24652D03*
X25975D03*
Y25652D03*
Y26652D03*
Y27652D03*
Y28652D03*
Y29652D03*
Y30652D03*
Y31652D03*
Y32652D03*
Y33652D03*
X22975D03*
Y32652D03*
Y31652D03*
Y30652D03*
Y29652D03*
Y28652D03*
Y27652D03*
Y26652D03*
Y25652D03*
Y24652D03*
X45975Y25652D03*
Y26652D03*
Y27652D03*
Y28652D03*
Y29652D03*
Y30652D03*
Y31652D03*
X42975D03*
Y30652D03*
Y29652D03*
Y28652D03*
Y27652D03*
Y26652D03*
Y25652D03*
X56975Y30652D03*
X57975D03*
X58975D03*
X59975D03*
X60975D03*
X61975D03*
X62975D03*
X63975D03*
X64975D03*
X65975D03*
Y33652D03*
X64975D03*
X63975D03*
X62975D03*
X61975D03*
X60975D03*
X59975D03*
X58975D03*
X57975D03*
X56975D03*
Y35652D03*
X57975D03*
X58975D03*
X59975D03*
X60975D03*
X61975D03*
X62975D03*
Y38652D03*
X61975D03*
X60975D03*
X59975D03*
X58975D03*
X57975D03*
X56975D03*
X69975Y35652D03*
X70975D03*
X71975D03*
X72975D03*
X73975D03*
X74975D03*
X75975D03*
X76975D03*
Y38652D03*
X75975D03*
X74975D03*
X73975D03*
X72975D03*
X71975D03*
X70975D03*
X69975D03*
X68975Y30652D03*
X69975D03*
X70975D03*
X71975D03*
X72975D03*
X73975D03*
X74975D03*
X75975D03*
X76975D03*
X77975D03*
Y33652D03*
X76975D03*
X75975D03*
X74975D03*
X73975D03*
X72975D03*
X71975D03*
X70975D03*
X69975D03*
X68975D03*
X80475Y30652D03*
X81475D03*
X82475D03*
X83475D03*
X84475D03*
X85475D03*
X86475D03*
X87475D03*
X88475D03*
X89475D03*
X90475D03*
X91475D03*
X92475D03*
X93475D03*
X94475D03*
X95475D03*
X96475D03*
X97475D03*
X98475D03*
X99475D03*
Y36652D03*
X98475D03*
X97475D03*
X96475D03*
X95475D03*
X94475D03*
X93475D03*
X92475D03*
X91475D03*
X90475D03*
X89475D03*
X88475D03*
X87475D03*
X86475D03*
X85475D03*
X84475D03*
X83475D03*
X82475D03*
X81475D03*
X80475D03*
X73975Y41652D03*
X74975D03*
X75975D03*
X76975D03*
X77975D03*
X78975D03*
X79975D03*
Y44652D03*
X78975D03*
X77975D03*
X76975D03*
X75975D03*
X74975D03*
X73975D03*
X65475Y41652D03*
X66475D03*
X67475D03*
X68475D03*
X69475D03*
X70475D03*
X71475D03*
Y44652D03*
X70475D03*
X69475D03*
X68475D03*
X67475D03*
X66475D03*
X65475D03*
X56975Y41652D03*
X57975D03*
X58975D03*
X59975D03*
X60975D03*
X61975D03*
X62975D03*
Y44652D03*
X61975D03*
X60975D03*
X59975D03*
X58975D03*
X57975D03*
X56975D03*
X38975Y41652D03*
X39975D03*
X40975D03*
X41975D03*
X42975D03*
X43975D03*
X44975D03*
Y44652D03*
X43975D03*
X42975D03*
X41975D03*
X40975D03*
X39975D03*
X38975D03*
X65975Y46652D03*
X66975D03*
X67975D03*
X68975D03*
X69975D03*
X70975D03*
X71975D03*
X72975D03*
X73975D03*
X74975D03*
X75975D03*
X76975D03*
X77975D03*
X78975D03*
X79975D03*
X80975D03*
X81975D03*
X82975D03*
X83975D03*
X84975D03*
Y52652D03*
X83975D03*
X82975D03*
X81975D03*
X80975D03*
X79975D03*
X78975D03*
X77975D03*
X76975D03*
X75975D03*
X74975D03*
X73975D03*
X72975D03*
X71975D03*
X70975D03*
X69975D03*
X68975D03*
X67975D03*
X66975D03*
X65975D03*
X93475Y39652D03*
Y40652D03*
Y41652D03*
Y42652D03*
Y43652D03*
Y44652D03*
Y45652D03*
Y46652D03*
Y47652D03*
Y48652D03*
Y49652D03*
Y50652D03*
X87475D03*
Y49652D03*
Y48652D03*
Y47652D03*
Y46652D03*
Y45652D03*
Y44652D03*
Y43652D03*
Y42652D03*
Y41652D03*
Y40652D03*
Y39652D03*
X25475Y37652D03*
X30475D03*
X25475Y38652D03*
X30475D03*
X25475Y39652D03*
X30475D03*
X25475Y40652D03*
X30475D03*
X25475Y41652D03*
X30475D03*
X25475Y42652D03*
X30475D03*
X25475Y43652D03*
X30475D03*
X25475Y44652D03*
X30475D03*
X25475Y45652D03*
X30475D03*
X23975Y39652D03*
Y40652D03*
Y41652D03*
Y42652D03*
Y43652D03*
Y44652D03*
Y45652D03*
X20975D03*
Y44652D03*
Y43652D03*
Y42652D03*
Y41652D03*
Y40652D03*
Y39652D03*
X23975Y48652D03*
Y49652D03*
Y50652D03*
Y51652D03*
X20975D03*
Y50652D03*
Y49652D03*
Y48652D03*
X28975Y58652D03*
X29975D03*
X30975D03*
X31975D03*
X32975D03*
X33975D03*
X34975D03*
Y61652D03*
X33975D03*
X32975D03*
X31975D03*
X30975D03*
X29975D03*
X28975D03*
X37975Y58652D03*
X38975D03*
X39975D03*
X40975D03*
X41975D03*
X42975D03*
X43975D03*
Y61652D03*
X42975D03*
X41975D03*
X40975D03*
X39975D03*
X38975D03*
X37975D03*
Y64152D03*
X38975D03*
X39975D03*
X40975D03*
X41975D03*
X42975D03*
X43975D03*
Y67152D03*
X42975D03*
X41975D03*
X40975D03*
X39975D03*
X38975D03*
X37975D03*
X28975Y64152D03*
X29975D03*
X30975D03*
X31975D03*
X32975D03*
X33975D03*
X34975D03*
Y67152D03*
X33975D03*
X32975D03*
X31975D03*
X30975D03*
X29975D03*
X28975D03*
X48475Y46652D03*
X49475D03*
X50475D03*
X51475D03*
X52475D03*
X53475D03*
X54475D03*
Y49652D03*
X53475D03*
X52475D03*
X51475D03*
X50475D03*
X49475D03*
X48475D03*
X56975Y46652D03*
X57975D03*
X58975D03*
X59975D03*
X60975D03*
X61975D03*
X62975D03*
Y49652D03*
X61975D03*
X60975D03*
X59975D03*
X58975D03*
X57975D03*
X56975D03*
Y51652D03*
X57975D03*
X58975D03*
X59975D03*
X60975D03*
X61975D03*
X62975D03*
Y54652D03*
X61975D03*
X60975D03*
X59975D03*
X58975D03*
X57975D03*
X56975D03*
X48475Y51652D03*
X49475D03*
X50475D03*
X51475D03*
X52475D03*
X53475D03*
X54475D03*
Y54652D03*
X53475D03*
X52475D03*
X51475D03*
X50475D03*
X49475D03*
X48475D03*
X47475Y41652D03*
X48475D03*
X49475D03*
X50475D03*
X51475D03*
X52475D03*
X53475D03*
X54475D03*
Y44652D03*
X53475D03*
X52475D03*
X51475D03*
X50475D03*
X49475D03*
X48475D03*
X47475D03*
X79975Y55652D03*
Y56652D03*
Y57652D03*
Y58652D03*
Y59652D03*
Y60652D03*
Y61652D03*
X76975D03*
Y60652D03*
Y59652D03*
Y58652D03*
Y57652D03*
Y56652D03*
Y55652D03*
X85975D03*
Y56652D03*
Y57652D03*
Y58652D03*
Y59652D03*
Y60652D03*
Y61652D03*
X82975D03*
Y60652D03*
Y59652D03*
Y58652D03*
Y57652D03*
Y56652D03*
Y55652D03*
X90475D03*
Y56652D03*
Y57652D03*
Y58652D03*
Y59652D03*
Y60652D03*
Y61652D03*
X87475D03*
Y60652D03*
Y59652D03*
Y58652D03*
Y57652D03*
Y56652D03*
Y55652D03*
X94975D03*
Y56652D03*
Y57652D03*
Y58652D03*
Y59652D03*
Y60652D03*
Y61652D03*
X91975D03*
Y60652D03*
Y59652D03*
Y58652D03*
Y57652D03*
Y56652D03*
Y55652D03*
X99475D03*
Y56652D03*
Y57652D03*
Y58652D03*
Y59652D03*
Y60652D03*
Y61652D03*
X96475D03*
Y60652D03*
Y59652D03*
Y58652D03*
Y57652D03*
Y56652D03*
Y55652D03*
X50975Y64152D03*
X51975D03*
X52975D03*
X53975D03*
X54975D03*
X55975D03*
X56975D03*
Y67152D03*
X55975D03*
X54975D03*
X53975D03*
X52975D03*
X51975D03*
X50975D03*
X88475Y28652D03*
X89475D03*
X90475D03*
X91475D03*
X92475D03*
X93475D03*
X94475D03*
X95475D03*
X96475D03*
X36975Y46652D03*
X37975D03*
X38975D03*
X39975D03*
X40975D03*
X41975D03*
X42975D03*
X43975D03*
X44975D03*
X38975Y40152D03*
X43975D03*
X49475D03*
X54475D03*
X59975Y58652D03*
X60975D03*
X61975D03*
X62975D03*
Y61652D03*
X61975D03*
X60975D03*
X59975D03*
X50975Y58652D03*
X51975D03*
X52975D03*
X53975D03*
X54975D03*
X55975D03*
X56975D03*
Y61652D03*
X55975D03*
X54975D03*
X53975D03*
X52975D03*
X51975D03*
X50975D03*
X66975Y58652D03*
X67975D03*
X68975D03*
X69975D03*
X70975D03*
X71975D03*
X72975D03*
X73975D03*
X74975D03*
X64975D03*
Y63652D03*
X65975Y65152D03*
X63975Y66152D03*
X65975Y67652D03*
X63975Y68652D03*
X81475Y55652D03*
Y56652D03*
Y57652D03*
Y58652D03*
Y59652D03*
X96975Y42152D03*
X98975D03*
X47475Y40152D03*
X48475D03*
X46475D03*
X31725Y43652D03*
Y44652D03*
Y42652D03*
X28975Y57652D03*
X29975D03*
X27975D03*
X31975D03*
X32975D03*
X30975D03*
X37975D03*
X38975D03*
X36975D03*
X29975Y62652D03*
X30975D03*
X28975D03*
X32975D03*
X33975D03*
X31975D03*
X40975Y57652D03*
X41975D03*
X39975D03*
X38975Y62652D03*
X39975D03*
X37975D03*
X41975D03*
X42975D03*
X40975D03*
X50975Y57652D03*
X51975D03*
X49975D03*
X51975Y62652D03*
X52975D03*
X50975D03*
X54975D03*
X55975D03*
X53975D03*
X96975Y39652D03*
Y40652D03*
Y38652D03*
X98975Y39652D03*
Y40652D03*
Y38652D03*
X22975Y51652D03*
X21975Y50652D03*
X22975Y49652D03*
X32975Y39652D03*
X31975Y38652D03*
X32975Y37652D03*
X74412Y63626D03*
X69412D03*
G54D16*
X22725Y69152D03*
X23725D03*
X24725D03*
X25725D03*
X26725D03*
X27725D03*
X28725D03*
X29725D03*
X30725D03*
X31725D03*
X32725D03*
X33725D03*
X34725D03*
X35725D03*
X36725D03*
X37725D03*
X38725D03*
X39725D03*
X40725D03*
X41725D03*
X42725D03*
X43725D03*
X44725D03*
X45725D03*
X46725D03*
X47725D03*
X48725D03*
X49725D03*
X50725D03*
X51725D03*
X52725D03*
X53725D03*
X22725Y70152D03*
X23725D03*
X24725D03*
X25725D03*
X26725D03*
X27725D03*
X28725D03*
X29725D03*
X30725D03*
X31725D03*
X32725D03*
X33725D03*
X34725D03*
X35725D03*
X36725D03*
X37725D03*
X38725D03*
X39725D03*
X40725D03*
X41725D03*
X42725D03*
X43725D03*
X44725D03*
X45725D03*
X46725D03*
X47725D03*
X48725D03*
X49725D03*
X50725D03*
X51725D03*
X52725D03*
X53725D03*
X22725Y71152D03*
X23725D03*
X24725D03*
X25725D03*
X26725D03*
X27725D03*
X28725D03*
X29725D03*
X30725D03*
X31725D03*
X32725D03*
X33725D03*
X34725D03*
X35725D03*
X36725D03*
X37725D03*
X38725D03*
X39725D03*
X40725D03*
X41725D03*
X42725D03*
X43725D03*
X44725D03*
X45725D03*
X46725D03*
X47725D03*
X48725D03*
X49725D03*
X50725D03*
X51725D03*
X52725D03*
X53725D03*
X17725Y44152D03*
Y45152D03*
Y46152D03*
Y47152D03*
Y48152D03*
Y49152D03*
Y50152D03*
Y51152D03*
Y52152D03*
Y53152D03*
Y54152D03*
Y55152D03*
Y56152D03*
Y57152D03*
Y58152D03*
Y59152D03*
Y60152D03*
Y61152D03*
X16725Y44152D03*
Y45152D03*
Y46152D03*
Y47152D03*
Y48152D03*
Y49152D03*
Y50152D03*
Y51152D03*
Y52152D03*
Y53152D03*
Y54152D03*
Y55152D03*
Y56152D03*
Y57152D03*
Y58152D03*
Y59152D03*
Y60152D03*
Y61152D03*
X21725Y20152D03*
X22725D03*
X23725D03*
X24725D03*
X25725D03*
X26725D03*
X27725D03*
X28725D03*
X29725D03*
X30725D03*
X31725D03*
X32725D03*
X33725D03*
X34725D03*
X35725D03*
X36725D03*
X37725D03*
X38725D03*
X21725Y21152D03*
X22725D03*
X23725D03*
X24725D03*
X25725D03*
X26725D03*
X27725D03*
X28725D03*
X29725D03*
X30725D03*
X31725D03*
X32725D03*
X33725D03*
X34725D03*
X35725D03*
X36725D03*
X37725D03*
X38725D03*
X67725Y67152D03*
X68725D03*
X69725D03*
X70725D03*
X71725D03*
X72725D03*
X73725D03*
Y70152D03*
X72725D03*
X71725D03*
X70725D03*
X69725D03*
X68725D03*
X67725D03*
X27225Y61652D03*
Y60652D03*
Y58652D03*
X76725Y64652D03*
X77725D03*
X78725D03*
X79725D03*
X80725D03*
X81725D03*
X82725D03*
X83725D03*
X84725D03*
X85725D03*
X86725D03*
X87725D03*
X88725D03*
X89725D03*
X90725D03*
X76225Y66902D03*
X77225D03*
X78225D03*
X76225Y67902D03*
X77225D03*
X78225D03*
X75225Y70902D03*
X79225Y68902D03*
X84225Y66902D03*
X85225D03*
X86225D03*
X84225Y67902D03*
X85225D03*
X86225D03*
X83225Y70902D03*
X87225Y68902D03*
X96475Y11902D03*
X95475D03*
X93475D03*
X88475D03*
X87475D03*
X85475D03*
X80475D03*
X79475D03*
X77475D03*
X72475D03*
X71475D03*
X69475D03*
X56475D03*
X55475D03*
X53475D03*
X64475D03*
X63475D03*
X61475D03*
X15225Y29652D03*
Y28652D03*
Y19652D03*
X18725D03*
Y20652D03*
Y29652D03*
X81975Y44902D03*
X82975D03*
X84975D03*
X81975Y39652D03*
X82975D03*
X84975D03*
X99475Y63652D03*
Y64652D03*
Y66652D03*
X67725Y65402D03*
X68725D03*
X70725D03*
X74975Y55652D03*
X73975D03*
X71975D03*
X45975Y23652D03*
X44975D03*
X42975D03*
X58975Y64152D03*
X61975D03*
X58975Y66152D03*
X61975D03*
Y71152D03*
X58975D03*
X90475Y53902D03*
X89475D03*
X87475D03*
X62975Y29152D03*
X63975D03*
X65975D03*
X74975D03*
X75975D03*
X77975D03*
X65225Y38402D03*
Y37402D03*
Y35402D03*
X59975Y40152D03*
X60975D03*
X62975D03*
X40975Y38652D03*
X41975D03*
X43975D03*
X37475Y44652D03*
X36475D03*
X34475D03*
X46725Y51652D03*
Y50652D03*
Y48652D03*
X40975Y35402D03*
X39975D03*
X37975D03*
X21475Y27652D03*
Y26652D03*
Y24652D03*
X100225Y41152D03*
Y40152D03*
Y38152D03*
X20975Y37652D03*
X21975D03*
X23975D03*
X66725Y61152D03*
X68725D03*
X70725D03*
X72725D03*
X74725D03*
X95475Y45402D03*
X97975Y49152D03*
X100475Y45402D03*
X13975Y31652D03*
X20975D03*
X14225Y12152D03*
X15225D03*
X16225D03*
X17225D03*
X18225D03*
X19225D03*
X20225D03*
X21225D03*
X22225D03*
X23225D03*
X24225D03*
X25225D03*
X26225D03*
X27225D03*
X28225D03*
X29225D03*
X30225D03*
X31225D03*
X32225D03*
X33225D03*
X34225D03*
X35225D03*
X36225D03*
X37225D03*
X38225D03*
X39225D03*
X40225D03*
X41225D03*
X42225D03*
X43225D03*
X44225D03*
X45225D03*
X14225Y14152D03*
X15225D03*
X16225D03*
X17225D03*
X18225D03*
X19225D03*
X20225D03*
X21225D03*
X22225D03*
X23225D03*
X24225D03*
X25225D03*
X26225D03*
X27225D03*
X28225D03*
X29225D03*
X30225D03*
X31225D03*
X32225D03*
X33225D03*
X34225D03*
X35225D03*
X36225D03*
X37225D03*
X38225D03*
X39225D03*
X40225D03*
X41225D03*
X42225D03*
X43225D03*
X44225D03*
X45225D03*
X12225Y11152D03*
X47225D03*
G54D17*
X14725Y35152D03*
X19725D03*
G54D18*
X41225Y19652D03*
X35725Y40652D03*
X16725Y39152D03*
X47725Y61152D03*
G54D19*
X55725Y72152D03*
X20725D03*
X64725Y71652D03*
X94225Y71902D03*
X99725Y71652D03*
G54D22*
X18225Y14152D02*
Y15855D01*
X18225D02*
X17884Y16196D01*
X17225Y14152D02*
X16225D01*
Y14850*
X15863Y15212*
X18225Y12152D02*
Y14152D01*
X16225Y12152D02*
Y14152D01*
X21225D02*
Y17218D01*
X21225D02*
X21031Y17412D01*
X21031D02*
Y20458D01*
X20225Y14152D02*
Y16902D01*
X18725Y18402*
Y19652*
X21225Y12152D02*
Y14152D01*
X20225Y12152D02*
Y14152D01*
X27225Y12152D02*
X26225Y13152D01*
Y14152*
X36225Y12152D02*
Y12613D01*
X35225Y13613*
Y14152*
X45225Y12152D02*
X45975Y12902D01*
Y23652*
X53475Y13652D02*
X49890D01*
X47475Y16066*
X47475D02*
Y31652D01*
X53475Y11902D02*
Y13652D01*
X54776*
X55405Y13022D02*
X59985D01*
X59985D02*
X60615Y13652D01*
X60615D02*
X61475D01*
X55405Y13022D02*
X54776Y13652D01*
X61475Y11902D02*
Y13652D01*
X64334*
X64964Y13022D02*
X67985D01*
X67985D02*
X68615Y13652D01*
X68615D02*
X69475D01*
X64964Y13022D02*
X64334Y13652D01*
X69475Y11902D02*
Y13652D01*
X70471*
X71100Y13022D02*
X75985D01*
X75985D02*
X76615Y13652D01*
X76615D02*
X77475D01*
X71100Y13022D02*
X70471Y13652D01*
X74725D02*
Y26652D01*
X77475Y11902D02*
Y13652D01*
X78105Y14281*
X78105D02*
Y27642D01*
X79475Y11902D02*
Y13448D01*
X79546Y13519*
Y20449*
X85475Y11902D02*
Y13652D01*
X90725Y12902D02*
Y25902D01*
X91475Y26652*
X93475Y11902D02*
Y13652D01*
X96475Y11902D02*
X98016D01*
X98488Y12374*
X98488D02*
Y26251D01*
X98488D02*
X98889Y26652D01*
X99475*
Y13652D02*
X100225Y14402D01*
Y30652*
X15863Y15212D02*
X14133D01*
X14133D02*
X13975Y15370D01*
X13975D02*
Y24652D01*
X17884Y16196D02*
X15642D01*
X15225Y16613*
Y19652*
X21975Y17152D02*
Y18043D01*
X21975D02*
X21725Y18293D01*
X21725D02*
Y20152D01*
X30712Y18794D02*
Y19426D01*
X30712D02*
X30725D01*
Y20152*
Y16652D02*
Y17226D01*
X30712*
X30712D02*
Y18794D01*
X34725Y16652D02*
X37433D01*
X38426Y17644*
X38426D02*
Y18794D01*
X38426D02*
Y19450D01*
X38426D02*
X37725Y20152D01*
X13225Y19652D02*
Y63902D01*
X18725Y23152D02*
Y20652D01*
Y19652*
X21031Y20458D02*
X21725Y21152D01*
X20225Y20152D02*
Y21238D01*
X20225D02*
X20912Y21926D01*
X20912D02*
Y24089D01*
X20912D02*
X21475Y24652D01*
X30725Y21152D02*
Y24402D01*
X30975Y24652*
X37725Y21152D02*
Y22402D01*
X38725Y23402*
Y24902*
X79546Y20449D02*
X79475Y20520D01*
Y26652*
X13975Y24652D02*
Y31652D01*
X12475Y23152D02*
Y64652D01*
X21475Y26652D02*
Y27652D01*
X38725Y24902D02*
X37975Y25652D01*
Y24652D02*
X37225Y25402D01*
Y29402*
X36975Y29652*
Y34402*
X43668Y26345D02*
Y32654D01*
X43668D02*
X41921Y34402D01*
X42975Y24652D02*
Y25652D01*
Y23652D02*
X44475Y25152D01*
Y31902*
X42975Y25652D02*
X43668Y26345D01*
X59475Y26652D02*
Y29152D01*
X67475Y26652D02*
X68225Y27402D01*
Y29152*
X74725Y26652D02*
Y27521D01*
X74725D02*
X74975Y27771D01*
X74975D02*
Y29152D01*
X79475Y26652D02*
Y32419D01*
X80475Y33419*
Y36652*
X15225Y28652D02*
Y29652D01*
X21475Y27652D02*
Y31152D01*
X20975Y31652*
X55725Y29652D02*
Y32402D01*
X56975Y33652*
X65975Y29152D02*
Y30652D01*
X68225Y29152D02*
Y31672D01*
X68225D02*
X68975Y32422D01*
X68975D02*
Y33652D01*
X78105Y27642D02*
X77975Y27772D01*
X77975D02*
Y29152D01*
Y30652*
Y31603*
X78225Y31853*
Y32676*
X78725Y33176*
Y35652*
X90475Y28652D02*
Y29652D01*
X89475Y30652*
X100225Y38152D02*
Y30652D01*
X99475*
X13975Y31652D02*
Y34402D01*
X14725Y35152*
X20975Y31652D02*
X21475Y32152D01*
Y34402*
Y35757*
X20975Y36257*
Y37652*
X30975Y33652D02*
X31203Y33880D01*
X31203D02*
Y39623D01*
X36975Y34402D02*
X37975Y35402D01*
X41921Y34402D02*
X40975D01*
Y35402*
Y33652D02*
Y34402D01*
X44475Y31902D02*
Y38152D01*
X43975Y38652*
X56975Y33652D02*
X56305Y34321D01*
X56305D02*
Y37982D01*
X68975Y33652D02*
Y35152D01*
X68475Y35652*
X14725Y35152D02*
X13975Y35902D01*
Y43402*
X21975Y37652D02*
Y40652D01*
X20975Y41652*
X23975Y37652D02*
X24725Y38402D01*
Y41630*
X40975Y35402D02*
Y38652D01*
X43975D02*
Y40152D01*
X56305Y37982D02*
X56975Y38652D01*
X56225Y39402*
Y40152*
X62975Y35652D02*
Y37732D01*
X62975D02*
X63644Y38402D01*
Y39482*
X68475Y35652D02*
Y38652D01*
X76975Y35652D02*
X77725Y36402D01*
Y38652*
X80475Y36652D02*
Y39402D01*
X96975Y38652D02*
Y39652D01*
X98975Y38652D02*
Y39652D01*
X14725Y42152D02*
X18635D01*
X18964Y42481*
X18964D02*
Y44953D01*
X14725Y42152D02*
Y62902D01*
X20975Y41652D02*
X21975Y42652D01*
Y50652*
X24725Y41630D02*
Y46652D01*
X30475Y42652D02*
Y42659D01*
X29781Y43353*
Y44652*
X30475Y42652D02*
Y41652D01*
Y40652*
Y39652D02*
X31174D01*
X31203Y39623D02*
Y40167D01*
X31203D02*
X31725Y40689D01*
Y42652*
X31203Y39623D02*
X31174Y39652D01*
X43975Y40152D02*
X44975Y41152D01*
Y41652*
X45725Y42402*
Y46652*
X47475Y41652D02*
Y44652D01*
X54475Y40152D02*
Y41652D01*
X55144Y42321*
Y45982*
X56225Y40152D02*
X56112D01*
X56112D02*
Y43433D01*
X63644Y39482D02*
X62975Y40152D01*
Y41652*
Y42902*
X63225Y43152*
X81975Y39652D02*
Y44902D01*
X84975D02*
Y41652D01*
Y39652*
X100225Y40152D02*
Y41152D01*
Y45135*
X100225D02*
X100515Y45426D01*
X18964Y44953D02*
X18766Y45152D01*
X17725*
X24725Y46652D02*
Y51882D01*
X25225Y52382*
Y58652*
X30475Y44652D02*
X29781D01*
Y45958*
X30475Y46652*
X35225Y44402D02*
Y45652D01*
X33975Y46902*
Y48652*
X45725D02*
Y46652D01*
X44975*
X54475D02*
X55097Y47273D01*
X55097D02*
Y50174D01*
X56975Y44652D02*
X56225D01*
Y45652*
X55144Y45982D02*
X54475Y46652D01*
X56112Y43433D02*
X56225Y43546D01*
Y44652*
Y45652D02*
Y49652D01*
X63644Y44307D02*
Y45160D01*
X63644D02*
X62975Y45830D01*
Y46652*
X63225Y43152D02*
Y43888D01*
X63644Y44307*
X62975Y46652D02*
Y48124D01*
X63597Y48745*
X63597D02*
Y49909D01*
X65475Y44652D02*
Y45652D01*
X84975Y44902D02*
Y46652D01*
X100515Y45426D02*
Y60645D01*
X100515D02*
X99509Y61652D01*
X21975Y50652D02*
X20975D01*
X45725Y48652D02*
Y58652D01*
X46725Y50652D02*
Y51652D01*
X44975Y48652D02*
X45725D01*
X48475Y49652D02*
X47725D01*
Y50652*
Y53902*
X48475Y54652*
X51475Y49652D02*
Y50652D01*
X50475Y51652*
X56975Y49652D02*
X56225D01*
Y54098*
X56778Y54652*
X56778D02*
X56975D01*
X55097Y50174D02*
X54475Y50796D01*
Y51652*
X63597Y49909D02*
X62975Y50531D01*
Y51652*
X88225Y49652D02*
Y53902D01*
X87475Y47652D02*
X88225Y48402D01*
Y49652*
X87475D02*
X88225D01*
X91225Y50652D02*
Y52157D01*
X90475Y52907*
Y53902*
X25975Y54652D02*
Y57652D01*
X48475Y54652D02*
Y56152D01*
X49975Y57652*
X62975Y51652D02*
Y52902D01*
X63725Y53652*
Y55152*
X65975Y52652D02*
Y61383D01*
X66994Y62402*
X67725*
X88225Y55652D02*
Y53902D01*
X87475*
X36975Y57652D02*
Y61652D01*
X49975Y57652D02*
Y61652D01*
X63725Y55152D02*
Y59402D01*
X74975Y55652D02*
Y58652D01*
Y59626*
X73975Y60626*
Y62402*
X88225Y55652D02*
Y56652D01*
Y59152*
X87725Y59652*
X87475Y55652D02*
X88225D01*
X87475Y56652D02*
X88225D01*
X96475Y55652D02*
X95805Y56321D01*
X95805D02*
Y62982D01*
X14725Y62902D02*
Y70652D01*
X28975Y62652D02*
X28178Y63448D01*
X28178D02*
Y65596D01*
X27225Y60652D02*
Y61652D01*
X28975D02*
Y62652D01*
X37305D02*
Y66482D01*
X37305D02*
X37975Y67152D01*
X50975Y61652D02*
X49975D01*
Y62652*
X50975D02*
X49975D01*
Y66152*
X50975Y67152*
X63725Y59402D02*
Y62402D01*
X62975Y63152*
X67725Y62402D02*
Y65402D01*
X87475Y59652D02*
X87725D01*
X95805Y62982D02*
X99475Y66652D01*
Y63652D02*
Y61652D01*
X99509*
X28178Y65596D02*
X28975Y66392D01*
X28975D02*
Y67152D01*
X62975Y63152D02*
Y64402D01*
Y65152*
X61975Y66152*
X67725Y65402D02*
Y67152D01*
X73725Y65402D02*
Y67152D01*
X99475Y63652D02*
Y64652D01*
X54725Y67902D02*
Y71070D01*
X54725D02*
X53994Y71801D01*
X67725Y67152D02*
Y70152D01*
X73725Y67152D02*
Y70152D01*
X50725Y71152D02*
X51374Y71801D01*
X51374D02*
X53994D01*
G54D23*
X20707Y11669D02*
X36425D01*
X36425D02*
X36725Y11969D01*
X36725D02*
Y14920D01*
X38849Y17044*
Y18794*
X20707Y11669D02*
X20225Y12152D01*
X25225Y14152D02*
Y21919D01*
X25437Y22131*
X30725Y13652D02*
X30026D01*
X30026D02*
X29725Y13953D01*
X29725D02*
Y16902D01*
X29225Y17402*
Y14152D02*
Y16402D01*
X28725Y16902*
Y19134*
X28725D02*
X28238Y19621D01*
X27225Y14152D02*
Y16415D01*
X26238Y17402*
X33725Y13534D02*
Y18158D01*
X33725D02*
X34212Y18645D01*
X34225Y14152D02*
Y14708D01*
X33975Y14958*
Y17902*
X32225Y14152D02*
Y21701D01*
X31742Y22183*
X31742D02*
Y28774D01*
X31742D02*
X31453Y29063D01*
X31453D02*
Y30173D01*
X31453D02*
X30975Y30652D01*
X31225Y14152D02*
Y22020D01*
X31428Y22222*
X34225Y12152D02*
Y13034D01*
X33725Y13534*
X33225Y12152D02*
Y12915D01*
X32738Y13402*
Y18154*
X32225Y12152D02*
Y13152D01*
X31225Y12152D02*
Y13152D01*
X30725Y13652*
X38725Y13152D02*
Y15652D01*
X38975Y15902*
X42735*
X43038Y16205*
Y21338*
X40225Y14152D02*
Y15066D01*
X40560Y15402*
X40560D02*
X42903D01*
X43510Y16009*
X43510D02*
Y21534D01*
X39725Y13152D02*
Y15052D01*
X39725D02*
X40324Y15652D01*
X40324D02*
X42819D01*
X43274Y16107*
X43274D02*
Y21436D01*
X55975Y14652D02*
Y18152D01*
X17725Y17402D02*
Y32652D01*
X17225Y17902D02*
Y31652D01*
X16725Y17402D02*
Y30652D01*
X16225Y17902D02*
Y30152D01*
X19725Y18652D02*
X19475Y18902D01*
Y26152*
X26238Y17402D02*
Y23186D01*
X26238D02*
X26677Y23626D01*
X25725Y16402D02*
Y19152D01*
X24725Y16152D02*
Y19152D01*
X23725Y15902D02*
Y19152D01*
X22975Y15152D02*
Y18152D01*
X29225Y17402D02*
Y19889D01*
X29238Y19902*
Y29321*
X29238D02*
X29475Y29558D01*
X29475D02*
Y30652D01*
X27975Y18902D02*
X27725Y19152D01*
Y20152*
X26975Y18152D02*
X26725Y18402D01*
Y20152*
X34212Y18645D02*
Y21470D01*
X34212D02*
X33725Y21957D01*
X33725D02*
Y26544D01*
X33725D02*
X33117Y27152D01*
X33975Y17902D02*
X35212Y19139D01*
Y21595*
X32738Y18154D02*
Y19359D01*
X33225Y19846*
Y24228*
X33225D02*
X33475Y24478D01*
X38849Y18794D02*
Y20027D01*
X38849D02*
X38725Y20152D01*
X49225Y15152D02*
Y23152D01*
X48225Y18652D02*
Y32152D01*
X50475Y15902D02*
Y25152D01*
X53475Y17652D02*
X51975D01*
X51725Y17902*
Y21152*
X53475Y16652D02*
X51725D01*
X51475Y16902*
Y20402*
X51225Y20652*
X52225Y18902D02*
X52725Y19402D01*
Y22902*
X53475Y23652*
X54725Y17152D02*
Y25152D01*
X54225Y25652*
X55225Y16152D02*
Y18902D01*
X54975Y19152*
Y26152*
X54475Y26652*
X57975Y18652D02*
Y30652D01*
X15725Y21652D02*
Y25241D01*
X15751Y25267*
X15751D02*
Y30661D01*
X20225Y22652D02*
X19975Y22902D01*
Y26902*
X25437Y22131D02*
Y24187D01*
X25437D02*
X24473Y25152D01*
X23975Y22902D02*
X24975D01*
X28238Y19621D02*
Y22638D01*
X28238D02*
X28501Y22902D01*
X28501D02*
Y26125D01*
X28501D02*
X27975Y26652D01*
X28725Y22402D02*
X28975Y22652D01*
Y30917*
X29225Y31167*
Y34027*
X29390Y34192*
Y35902*
X29725Y21152D02*
Y28777D01*
X29937Y28989*
X29937D02*
Y32939D01*
X27725Y21152D02*
Y21904D01*
X27725D02*
X27475Y22154D01*
X27475D02*
Y30152D01*
X31428Y22222D02*
Y28199D01*
X30975Y28652*
X32725Y21902D02*
X32225Y22402D01*
Y26152*
X34725Y21152D02*
Y22377D01*
X34725D02*
X34232Y22870D01*
X34232D02*
Y27394D01*
X34232D02*
X33975Y27652D01*
X35496Y22173D02*
X35225Y22444D01*
X35225D02*
Y22904D01*
X35225D02*
X35201Y22929D01*
Y36152*
X35212Y21595D02*
X34975Y21832D01*
X34975D02*
Y22684D01*
X34725Y22934*
Y26902*
X36225Y22152D02*
Y22375D01*
X36225D02*
X35448Y23152D01*
X35475Y22152D02*
X35496Y22173D01*
X35725Y21152D02*
Y21652D01*
X36225Y22152*
X43038Y21338D02*
X42725Y21652D01*
X42271*
X42271D02*
X39725Y24198D01*
Y26033*
X39725D02*
X39225Y26533D01*
X39225D02*
Y27902D01*
X43274Y21436D02*
X42815Y21895D01*
X42815D02*
X42362D01*
X42362D02*
X40077Y24180D01*
X40077D02*
Y26033D01*
X40077D02*
X39725Y26386D01*
Y27152*
X43510Y21534D02*
X42900Y22145D01*
X42447*
X40532Y24060*
Y25209*
X48725Y21402D02*
Y35652D01*
X48475Y35902*
X49975Y19652D02*
Y22652D01*
X51975Y22152D02*
Y26152D01*
X56475Y21652D02*
Y27402D01*
X55725Y20652D02*
Y27902D01*
X55475Y19652D02*
X55262Y19864D01*
X55262D02*
Y28189D01*
X60418Y21594D02*
Y32209D01*
X59975Y32652*
X59475Y20652D02*
X60418Y21594D01*
X19975Y26902D02*
Y30902D01*
X18725Y32152*
Y36402*
X19475Y26152D02*
Y30902D01*
X18475Y31902*
Y36652*
X24975Y26975D02*
Y27402D01*
X25225Y27652*
Y31152*
X25475Y31402*
Y35652*
X24473Y25152D02*
Y28543D01*
X24475Y28545*
Y31152*
X26677Y23626D02*
Y28949D01*
X26677D02*
X26475Y29152D01*
X25975Y24652D02*
X25475Y25152D01*
Y26475*
X25475D02*
X24975Y26975D01*
X33475Y24478D02*
Y26152D01*
X32975Y26652*
X33978Y26619D02*
Y26869D01*
X33978D02*
X33475Y27373D01*
Y29652*
X32225Y26152D02*
Y28860D01*
X32225D02*
X31725Y29360D01*
X35448Y23152D02*
Y27125D01*
X35448D02*
X35975Y27652D01*
X40532Y25209D02*
X40975Y25652D01*
X49225Y25402D02*
Y32402D01*
X49725Y24652D02*
Y25902D01*
X50725Y26902*
Y32152*
X51475Y24152D02*
Y35402D01*
X50975Y35902*
X53475Y25652D02*
X54225D01*
X53475Y26652D02*
X54475D01*
X59475Y25652D02*
X59918Y26094D01*
X59918D02*
Y29681D01*
X15751Y30661D02*
X15725Y30687D01*
X15725D02*
Y31902D01*
X22038Y28527D02*
X22341D01*
X22465Y28652*
X22465D02*
X22975D01*
X26475Y29152D02*
X25832D01*
X25475Y29509*
Y30794*
X25475D02*
X25832Y31152D01*
X26475Y30152D02*
Y30652D01*
X27225Y31402*
Y38652*
X28475Y39902*
Y51152*
X28975Y51652*
Y53152*
X30225Y27152D02*
Y33746D01*
X30225D02*
X29728Y34243D01*
X29728D02*
Y38773D01*
X28975Y39526*
Y48652*
X27975Y27652D02*
X28398D01*
X28398D02*
X28725Y27978D01*
Y31195*
X28975Y31445*
Y35152*
X27975Y29652D02*
X28462Y30139D01*
X28462D02*
Y31402D01*
X28462D02*
X28718Y31657D01*
X28718D02*
Y34659D01*
X33117Y27152D02*
X32832D01*
X32520Y27463*
X33475Y29652D02*
X34225Y30402D01*
X32520Y27463D02*
Y28197D01*
X32520D02*
X32975Y28652D01*
X31725Y29360D02*
Y31044D01*
X31725D02*
X32225Y31544D01*
X32225D02*
Y35033D01*
X32225D02*
X32475Y35283D01*
X30975Y27652D02*
X30484Y28142D01*
X30484D02*
Y35142D01*
X30484D02*
X30225Y35402D01*
X39725Y30902D02*
X39475Y31152D01*
X39225Y27902D02*
X39725Y28402D01*
Y30902*
X55262Y28189D02*
X55975Y28902D01*
X58475Y27152D02*
Y33152D01*
X58975Y33652*
X55975Y28902D02*
X56391Y29318D01*
Y32146*
X57475Y33229*
X57475D02*
Y34152D01*
X58975Y35652*
X59918Y29681D02*
X59532Y30067D01*
Y33209*
X25832Y31152D02*
X26225D01*
X26725Y31652*
X29937Y32939D02*
X29725Y33152D01*
X28718Y34659D02*
X28225Y35152D01*
X28462Y33922D02*
X27762Y34622D01*
X27762D02*
Y35439D01*
X27975Y31652D02*
X28462Y32139D01*
Y33922*
X27975Y33652D02*
X27923D01*
Y34099*
X27923D02*
X27506Y34516D01*
X27506D02*
Y36183D01*
X33975Y31652D02*
Y32307D01*
X34725Y33057*
Y38402*
X45448Y33411D02*
X45475Y33437D01*
X45475D02*
Y35402D01*
Y31152D02*
X45448D01*
X45448D02*
Y33411D01*
X54975Y31402D02*
Y35527D01*
X55628Y36180*
X55628D02*
Y50668D01*
X61212Y34326D02*
X60275D01*
X59975Y34626*
Y35652*
X59532Y33209D02*
X59975Y33652D01*
X71975D02*
Y34563D01*
X71512Y35026*
X71512D02*
Y39826D01*
X71512D02*
X71012Y40326D01*
X71012D02*
Y45426D01*
X71012D02*
X70975Y45463D01*
Y46652*
X18725Y36402D02*
X20225Y37902D01*
Y52402*
X20475Y52652*
X20975*
X18475Y36652D02*
X19975Y38152D01*
Y52902*
X20475Y53402*
X25475Y38652D02*
Y39652D01*
X29390Y35902D02*
X29225Y36067D01*
Y37902*
X27762Y35439D02*
X28225Y35902D01*
X27506Y36183D02*
X27975Y36652D01*
X32475Y35283D02*
Y36645D01*
X32225Y36895*
Y38130*
X32225D02*
X32475Y38380D01*
X32475D02*
Y38923D01*
X32225Y39173*
Y47139*
X31969Y47394*
X35201Y36152D02*
X37725Y38676D01*
Y42402*
X46475Y36652D02*
Y39402D01*
X48475Y35902D02*
Y36902D01*
X70975Y36402D02*
Y38652D01*
X73975Y35652D02*
Y36652D01*
X81475Y38902D02*
Y39384D01*
X81475D02*
X81433Y39426D01*
X81433D02*
Y42152D01*
X82475Y36652D02*
Y40152D01*
X82725Y40402*
X86475Y36652D02*
X86225Y36902D01*
Y43712*
X86225D02*
X85975Y43962D01*
X85975D02*
Y50402D01*
X85725Y50652*
X24725Y41630D02*
X24703Y41652D01*
X26512Y40939D02*
X26725Y41152D01*
X23975Y41652D02*
X24703D01*
X25475Y39652D02*
X25975Y40152D01*
Y40419*
X37725Y42402D02*
X35975Y44152D01*
Y45152*
X45725Y40402D02*
X46475Y41152D01*
Y46652*
X50975Y39152D02*
X50475Y39652D01*
Y41652*
X59512Y39126D02*
Y39731D01*
X59512D02*
X58975Y40268D01*
Y41652*
X61975D02*
Y43652D01*
X62225Y43902*
X81433Y42152D02*
X81437Y42156D01*
X81437D02*
Y44772D01*
X82725Y40402D02*
X82475Y40652D01*
Y49293*
X82142Y49626*
X35975Y45152D02*
X36475Y45652D01*
Y47402*
X37975Y46652D02*
Y48652D01*
X62419Y44322D02*
X62305D01*
X61975Y44652*
X62640Y44101D02*
X62419Y44322D01*
X61975Y44652D02*
X62475Y45152D01*
Y45755*
X65204Y46645D02*
Y48598D01*
X65204D02*
X65711Y49105D01*
X65975Y44152D02*
Y45874D01*
X65204Y46645*
X81433Y45778D02*
X81475Y45819D01*
X81475D02*
Y49152D01*
X81437Y44772D02*
X81433Y44776D01*
X81433D02*
Y45778D01*
X86475Y45152D02*
Y50652D01*
X86225Y50902*
X85725Y43152D02*
Y43918D01*
X85725D02*
X85475Y44168D01*
X85475D02*
Y50152D01*
X85225Y50402*
X86975Y46152D02*
Y50902D01*
X86725Y51152*
X92475Y46152D02*
Y50991D01*
X92501Y51017*
X13975Y48152D02*
Y64647D01*
X15976Y49652D02*
X17225D01*
X17725Y50152*
X15976Y49652D02*
X15725Y49903D01*
Y68902*
X17207Y48669D02*
X18664D01*
X18664D02*
X18959Y48963D01*
X18959D02*
Y54980D01*
X19475Y55496*
Y68902*
X17207Y48669D02*
X16725Y49152D01*
X17725D02*
X18411D01*
X18712Y49452*
X18712D02*
Y56888D01*
X18712D02*
X18975Y57152D01*
X17725Y47152D02*
X17225Y47652D01*
X15532*
X15262Y47921*
X15262D02*
Y61562D01*
X31969Y47394D02*
X30224D01*
X30224D02*
X29975Y47644D01*
Y48652*
X27725Y50402D02*
X27475Y50652D01*
Y56215*
X27475D02*
X26662Y57028D01*
X26662D02*
Y62439D01*
X25975Y63126*
Y65902*
X54475Y49652D02*
X53023Y51103D01*
X55628Y50668D02*
X55475Y50821D01*
X55475D02*
Y51652D01*
X65711Y49105D02*
Y50915D01*
X65711D02*
X64975Y51652D01*
X85225Y50402D02*
X82549D01*
X82549D02*
X81975Y50976D01*
Y52652*
X82142Y49626D02*
X79375D01*
X78975Y50026*
Y52652*
X86225Y50902D02*
X84225D01*
X83975Y51152*
Y52652*
X85725Y50652D02*
X83475D01*
X82975Y51152*
Y52652*
X92501Y51017D02*
Y61125D01*
X92501D02*
X91975Y61652D01*
X16254Y51669D02*
X17242D01*
X17242D02*
X17725Y52152D01*
X16254Y51669D02*
X16006Y51917D01*
X16525Y52669D02*
X17226D01*
X17226D02*
X17717Y53160D01*
X16525Y52669D02*
X16242Y52952D01*
X16006Y51917D02*
Y67933D01*
X16006D02*
X16225Y68152D01*
X16242Y52952D02*
Y66415D01*
X16242D02*
X16725Y66898D01*
Y68652*
Y53152D02*
X17225Y53652D01*
X17907*
X18225Y53969*
X18225D02*
Y58652D01*
X16725Y52152D02*
Y52197D01*
X16961Y52433*
X17324*
X17324D02*
X17543Y52652D01*
X18208*
X18465Y52908*
X18465D02*
Y57766D01*
X18465D02*
X18725Y58027D01*
Y61152*
X17725Y53152D02*
X17717Y53160D01*
X53023Y51103D02*
X52023D01*
X52023D02*
X51475Y51652D01*
X55475Y52652D02*
Y59830D01*
X54975Y60330*
Y61652*
X78725Y54652D02*
X79725Y55652D01*
X79975*
X77975Y54652D02*
X79475Y56152D01*
Y57152*
X79975Y57652*
X86725Y51152D02*
X85225D01*
X84975Y51402*
Y52652*
Y53652D02*
Y57402D01*
X85225Y57652*
X85975*
X51975D02*
Y58652D01*
X70975D02*
Y60402D01*
X85975Y58652D02*
X84225D01*
X83975Y58902*
Y64402*
X83725Y64652*
X97975Y56652D02*
X97475Y57152D01*
Y63652*
X15262Y61562D02*
Y69938D01*
X15262D02*
X15504Y70179D01*
X15504D02*
X21752D01*
X21752D02*
X22725Y71152D01*
X21475Y60652D02*
Y65902D01*
X52975Y61652D02*
Y62652D01*
X55975Y61652D02*
Y62652D01*
X60475Y60152D02*
Y65652D01*
X74725Y61152D02*
Y63313D01*
X74412Y63626*
X78725Y61652D02*
Y62652D01*
X79725Y63652*
Y64652*
X78975Y59652D02*
X79225Y59902D01*
Y62402*
X80725Y63902*
Y64652*
X79975Y60652D02*
X80448Y61125D01*
X80448D02*
Y62857D01*
X80448D02*
X81217Y63626D01*
X85975Y60652D02*
X85225D01*
X84975Y60902*
Y63630*
X84725Y63880*
Y64652*
X85975Y59652D02*
X84700D01*
X84700D02*
X84475Y59877D01*
X84475D02*
Y63152D01*
X13975Y64647D02*
Y66363D01*
X12212Y68126*
X12212D02*
Y71626D01*
X58483Y65659D02*
X58975Y66152D01*
Y63152D02*
X58483Y63644D01*
Y65659*
X61975Y64152D02*
X61225Y64902D01*
Y69152*
X63975Y66152D02*
Y68652D01*
X75725Y63726D02*
Y63876D01*
X74475Y65126*
Y69402*
X76183Y66026D02*
X77012D01*
X77012D02*
X77225Y66238D01*
X77225D02*
Y66902D01*
X76531Y65626D02*
X77912D01*
X77912D02*
X78225Y65938D01*
X78225D02*
Y66902D01*
X78725Y64652D02*
X79217Y65144D01*
X80929*
X81217Y63626D02*
Y64855D01*
X81217D02*
X80929Y65144D01*
X23242Y70652D02*
Y70669D01*
X23242D02*
X23725Y71152D01*
X42217Y68474D02*
Y70659D01*
X42217D02*
X41725Y71152D01*
X41975Y67152D02*
Y67874D01*
X41975D02*
X42217Y68117D01*
Y68474*
X42725Y70152D02*
X43217Y70644D01*
Y71647*
X63975Y68652D02*
X62254D01*
X62254D02*
X61975Y68931D01*
Y71152*
X65975Y67652D02*
Y69652D01*
X73225Y68013D02*
Y68826D01*
X72725Y69326*
Y70152*
X22144Y71556D02*
X22222Y71634D01*
X26954*
X27212Y71376D02*
X26954Y71634D01*
X43217Y71647D02*
X43212Y71652D01*
G54D25*
X16725Y46152D02*
X17199Y46626D01*
X18913*
X18913D02*
X19206Y46919D01*
X19206D02*
Y54677D01*
X19206D02*
X19446Y54918D01*
X19446D02*
X23239D01*
X23239D02*
X23412Y55090D01*
X23412D02*
Y57707D01*
X23412D02*
X23242Y57877D01*
X23242D02*
Y70652D01*
G54D32*
X18943Y11433D02*
X37188D01*
X37188D02*
X37725Y11969D01*
X37725D02*
Y15160D01*
X37725D02*
X39207Y16643D01*
Y20669*
X18943Y11433D02*
X18225Y12152D01*
X22225Y14152D02*
Y14652D01*
X22475Y14902*
Y18794*
X24225Y14152D02*
Y21421D01*
X24225D02*
X23674Y21972D01*
X23674D02*
Y22452D01*
X23674D02*
X23475Y22652D01*
X23225Y14152D02*
X23475Y14402D01*
Y15402*
X30225Y14152D02*
Y26402D01*
X30475Y26652*
X30975*
X27725Y13152D02*
Y18277D01*
X27225Y18777*
Y29658*
X27225D02*
X26975Y29908D01*
X26975D02*
Y30395D01*
X33225Y14902D02*
Y19152D01*
X33475Y19402*
X35225Y12152D02*
Y12902D01*
X34725Y13402*
Y14652*
X34225Y15152*
Y17652*
X41217Y14160D02*
X42208Y15151D01*
X42225Y14152D02*
X42722Y14649D01*
X41225Y14152D02*
X41217Y14160D01*
X41725Y12902D02*
Y14334D01*
X42291Y14900*
X42291D02*
X43070D01*
X43983Y15813*
X43983D02*
Y21730D01*
X42722Y14649D02*
X43152D01*
X43152D02*
X44219Y15715D01*
X45225Y14152D02*
X45475Y14402D01*
Y27794*
X45475D02*
X45832Y28152D01*
X46117*
X46117D02*
X46475Y28509D01*
Y29152*
X44225Y14152D02*
Y14621D01*
X44725Y15121*
Y22025*
X43725Y13152D02*
Y14879D01*
X43725D02*
X44475Y15629D01*
X46725Y13652D02*
Y27412D01*
X46485Y27652*
X50225Y14152D02*
X72578D01*
X72578D02*
X72975Y14548D01*
X72975D02*
Y15652D01*
X50225Y14152D02*
X49725Y14652D01*
Y17152*
X47225Y14652D02*
X46975Y14902D01*
Y47402*
X46725Y47652*
X69475Y14652D02*
X69975Y15152D01*
Y27652*
X75475Y14652D02*
X76475Y15652D01*
Y32402*
X76975Y32902*
Y33652*
X78975Y14652D02*
Y32676D01*
X79975Y33676*
Y39926*
X80475Y40426*
Y47152*
X86475Y14652D02*
Y30652D01*
X83475Y14652D02*
X84475Y15652D01*
Y30652*
X22475Y18794D02*
Y19652D01*
X22225Y19902*
Y21652*
X23225Y16152D02*
X23475Y16402D01*
Y18011*
Y15402D02*
X23225Y15652D01*
Y16152*
X23475Y18011D02*
Y18402D01*
X23225Y18652*
Y21402*
X22725Y21902*
Y23652*
X34225Y17652D02*
X36225Y19652D01*
Y21457*
X36225D02*
X36640Y21872D01*
X36640D02*
Y23828D01*
X37725Y18652D02*
X37225Y19152D01*
Y19652*
X42208Y15151D02*
X42986D01*
X42986D02*
X43747Y15911D01*
X44219Y15715D02*
Y21828D01*
X44219D02*
X43147Y22899D01*
X43747Y15911D02*
Y21632D01*
X42983Y22396*
X44475Y15629D02*
Y21919D01*
X43242Y23152*
X50975Y17402D02*
X50725Y17652D01*
Y24402*
X58725Y15652D02*
Y23902D01*
X59475Y24652*
X61975Y16152D02*
Y30652D01*
X59475Y17652D02*
X60437D01*
X60437D02*
X60712Y17926D01*
X60712D02*
Y30389D01*
X60712D02*
X60975Y30652D01*
X67475Y15652D02*
X65412D01*
X65412D02*
X65036Y16028D01*
X65036D02*
Y30086D01*
X65036D02*
X64975Y30147D01*
X64975D02*
Y30652D01*
X66725Y16152D02*
Y22050D01*
X66475Y22300*
Y31261*
X66475D02*
X65475Y32261D01*
X65475D02*
Y33794D01*
X65475D02*
X64743Y34526D01*
X75975Y16152D02*
Y27652D01*
X75475Y28152*
Y31902*
X77475Y18652D02*
X76975Y19152D01*
Y27652*
X81225Y17652D02*
Y23027D01*
X80975Y23277*
Y28317*
X80225Y16652D02*
X79975Y16902D01*
Y28402*
X85475Y15652D02*
X85020Y16106D01*
X85020D02*
Y25840D01*
X22225Y21652D02*
X22475Y21902D01*
Y25152*
X23475Y22652D02*
Y23489D01*
X24138Y24152*
X23225Y22152D02*
Y23736D01*
X23225D02*
X23890Y24402D01*
Y27784*
X26725Y21152D02*
Y23226D01*
X26725D02*
X26925Y23426D01*
X25725Y21152D02*
Y23221D01*
X26429Y23926*
X34225Y22152D02*
X34216D01*
X34216D02*
X33978Y22389D01*
X33978D02*
Y26619D01*
X37225Y20652D02*
Y24152D01*
X36725Y24652*
Y28895*
X36475Y29145*
Y31152*
X35975Y31652*
X38225Y20652D02*
Y21832D01*
X38225D02*
X39225Y22832D01*
X39225D02*
Y25586D01*
X36725Y20152D02*
X37225Y20652D01*
X42983Y22396D02*
X42530D01*
X41446Y23479*
X41446D02*
Y25806D01*
X41446D02*
X41101Y26152D01*
X43147Y22899D02*
X42694D01*
X42694D02*
X41975Y23619D01*
Y26652*
X39207Y20669D02*
X38725Y21152D01*
X43983Y21730D02*
X43065Y22647D01*
X43065D02*
X42613D01*
X42613D02*
X41711Y23548D01*
X41711D02*
Y26110D01*
X41711D02*
X41571Y26250D01*
X41571D02*
Y27022D01*
X44725Y22025D02*
X44475Y22275D01*
X44475D02*
Y24207D01*
X44475D02*
X45225Y24957D01*
X45225D02*
Y27902D01*
X45975Y28652*
X52225Y19652D02*
X52475Y19902D01*
Y37374*
X52929Y37828*
X52929D02*
Y47447D01*
X57475Y19652D02*
Y25238D01*
X57475D02*
X57498Y25262D01*
X57498D02*
Y31785D01*
X57498D02*
X57975Y32261D01*
X57975D02*
Y33652D01*
X62475Y21152D02*
X62225Y21402D01*
Y29902*
X65475Y22152D02*
Y25711D01*
X65431Y25754*
X65431D02*
Y31805D01*
X65431D02*
X64975Y32261D01*
X64975D02*
Y33652D01*
X63975Y22652D02*
Y23402D01*
X64516Y23943*
X64516D02*
Y29531D01*
X68725Y21652D02*
Y26152D01*
X73725Y21652D02*
Y28902D01*
X74975Y30152*
Y30652*
X72725Y21652D02*
Y22420D01*
X73475Y23170*
Y29402*
X73975Y29902*
Y30652*
X80725Y22652D02*
X80475Y22902D01*
Y28402*
X81975Y20652D02*
Y28402D01*
X82475Y28902*
Y30652*
X82975Y19152D02*
Y22418D01*
X82975D02*
X83007Y22451D01*
X83007D02*
Y28402D01*
X83007D02*
X83475Y28869D01*
X83475D02*
Y30652D01*
X85475Y21652D02*
X85975D01*
X86177Y21854*
Y30152*
X93929Y22106D02*
Y30840D01*
X93929D02*
X93617Y31152D01*
X93475Y19652D02*
X92975Y20152D01*
Y29152*
X91475Y30652*
X93475Y21652D02*
X93929Y22106D01*
X22725Y23652D02*
X23475Y24402D01*
Y27152*
X21975Y23652D02*
Y24211D01*
X22038Y24274*
Y28527*
X24138Y24152D02*
Y28347D01*
X23975Y28510*
Y29152*
X24725Y26402D02*
Y27736D01*
X24725D02*
X24914Y27926D01*
X26429Y23926D02*
Y26840D01*
X26429D02*
X26117Y27152D01*
X24975Y26152D02*
X24725Y26402D01*
X26925Y23426D02*
Y29201D01*
X26925D02*
X26475Y29652D01*
Y30152*
X36640Y23828D02*
X36475Y23993D01*
Y28152*
X35975Y28652*
X37975Y26652D02*
X38429Y27106D01*
X38429D02*
Y31197D01*
X41101Y26152D02*
X40848D01*
X40848D02*
X40330Y26670D01*
X40330D02*
Y28790D01*
X40330D02*
X39975Y29145D01*
Y32023*
X39245Y32753*
X43242Y23152D02*
X42776D01*
X42776D02*
X42475Y23453D01*
X42475D02*
Y32902D01*
X42225Y33152*
X41571Y27022D02*
X41975Y27426D01*
Y28402*
X39225Y25586D02*
X38725Y26086D01*
Y37402*
X40975Y26652D02*
Y26963D01*
X41429Y27417*
X50725Y24402D02*
X50975Y24652D01*
X53975Y24152D02*
X53332D01*
X53020Y24463*
X52725Y24402D02*
Y33402D01*
X52975Y33652*
X53020Y24463D02*
Y29447D01*
X53020D02*
X53475Y29902D01*
Y35902*
Y23652D02*
X52725Y24402D01*
X58975Y26152D02*
X58973D01*
Y28543*
X61475Y24652D02*
X60975Y25152D01*
Y27652*
X64764Y23441D02*
Y29927D01*
X64475Y30216*
Y31805*
X63975Y32305*
Y33652*
X63475Y24152D02*
Y31152D01*
X62975Y31652*
Y33652*
Y23652D02*
Y27626D01*
X62475Y28126*
Y29652*
X64475Y23152D02*
X64764Y23441D01*
X72975Y26152D02*
Y30652D01*
X82475Y25152D02*
Y28327D01*
X82975Y28827*
Y33152*
X83475Y33652*
Y36652*
X81475Y23652D02*
Y28402D01*
X81975Y28902*
Y33152*
X82475Y33652*
Y36652*
X85020Y25840D02*
X85332Y26152D01*
X85617*
X85617D02*
X85929Y26463D01*
X85929D02*
Y29652D01*
X83975Y26152D02*
Y32902D01*
X84475Y33402*
Y36652*
X85475Y26652D02*
Y29652D01*
X85020Y30106*
X85020D02*
Y33152D01*
X88975Y23152D02*
Y26988D01*
X88975D02*
X88951Y27012D01*
X88951D02*
Y33175D01*
X88951D02*
X88475Y33652D01*
Y36652*
X87975Y24152D02*
Y33152D01*
X87475Y33652*
Y36652*
X86975Y25152D02*
Y33152D01*
X86475Y33652*
Y36652*
X22038Y28527D02*
Y36226D01*
X22538Y36726*
X26012*
X26012D02*
X26243Y36957D01*
X26243D02*
Y44767D01*
X26243D02*
X26475Y44999D01*
Y51652*
X24914Y27926D02*
Y34926D01*
X24914D02*
X24725Y35115D01*
Y35652*
X23890Y27784D02*
X23475Y28199D01*
Y36002*
X23975Y29902D02*
X23725Y30152D01*
Y35902*
X25475Y27152D02*
X26117D01*
X26975Y30395D02*
X27475Y30895D01*
Y32152*
X27975Y32652*
X32225Y30402D02*
Y30990D01*
X32475Y31240*
Y34652*
X32725Y34902*
X34725Y27652D02*
Y32152D01*
X37975Y30652D02*
X37520Y31106D01*
X37520D02*
Y34044D01*
X40975Y30652D02*
X40475D01*
X40225Y30902*
Y32908*
X39481Y33652*
X41429Y27417D02*
Y32840D01*
X41429D02*
X41117Y33152D01*
X39225Y29152D02*
X38975Y29402D01*
Y36902*
X46475Y29152D02*
X45975Y29652D01*
Y27652D02*
X46485D01*
X53975Y28402D02*
Y40652D01*
X53725Y40902*
X56975Y28402D02*
Y30652D01*
X58973Y28543D02*
X58975Y28545D01*
Y30652*
X62475Y29652D02*
X62975Y30152D01*
Y30652*
X62225Y29902D02*
X62475Y30152D01*
Y32402*
X60975Y27652D02*
X61475Y28152D01*
Y30152*
X60975Y30652D02*
Y32652D01*
X64516Y29531D02*
X63975Y30073D01*
Y30652*
X64975D02*
Y31805D01*
X64475Y32305*
Y33152*
X66975Y27902D02*
Y37761D01*
X66975D02*
X67475Y38261D01*
X67475D02*
Y40652D01*
X69975Y30652D02*
Y32042D01*
X69498Y32518*
X69498D02*
Y36128D01*
X69498D02*
X69473Y36153D01*
X69473D02*
Y39400D01*
X71975Y27152D02*
Y30652D01*
X70975D02*
Y32042D01*
X70498Y32518*
X70498D02*
Y40475D01*
X70498D02*
X69975Y40999D01*
Y43652*
X76975Y27652D02*
X77475Y28152D01*
Y31871*
X77725Y32121*
Y32871*
X77975Y33121*
Y33652*
X80475Y28402D02*
X80975Y28902D01*
Y31798*
X81225Y32048*
Y34615*
X81225D02*
X81475Y34865D01*
X81475D02*
Y36652D01*
X80975Y28317D02*
X81475Y28817D01*
Y30652*
X79975Y28402D02*
X80475Y28902D01*
Y30652*
X81475D02*
Y33152D01*
X81975Y33652*
Y35652*
X80475Y30652D02*
Y32652D01*
X80977Y33153*
X80977D02*
Y40563D01*
X86177Y30152D02*
X85975Y30354D01*
Y31652*
X85929Y29652D02*
X85475Y30106D01*
Y30652*
X86475D02*
Y32652D01*
X90225Y27902D02*
X91367D01*
X91367D02*
X91929Y28463D01*
X91929D02*
Y29551D01*
X90225Y27902D02*
X89475Y28652D01*
X90475Y30652D02*
Y33542D01*
X89975Y34042*
Y40652*
X88475Y30652D02*
Y33152D01*
X87975Y33652*
Y35652*
X87475Y30652D02*
Y33152D01*
X86975Y33652*
Y34152*
X91929Y29551D02*
X90975Y30505D01*
X90975D02*
Y33542D01*
X90475Y34042*
Y36652*
X94475Y28652D02*
Y30652D01*
X93475Y28652D02*
Y30652D01*
X91475Y28652D02*
Y29652D01*
X90475Y30652*
X94475D02*
Y34152D01*
X92475Y30652D02*
Y35402D01*
X91475Y30652D02*
Y33542D01*
X90975Y34042*
Y42152*
X95475Y28652D02*
Y30652D01*
X96475D02*
Y35402D01*
X95475Y30652D02*
Y34652D01*
X94975Y35152*
Y37902*
X33477Y34400D02*
X33475Y34402D01*
Y37152*
X32725Y34902D02*
Y37002D01*
X32475Y37252*
X33475Y31152D02*
X33477D01*
Y34400*
X33975Y33152D02*
Y42402D01*
X35725Y44152*
Y47874*
X30975Y31652D02*
X31475D01*
X31725Y31902*
Y36152*
X31975Y36402*
X37520Y34044D02*
X38475Y34999D01*
Y38402*
X38725Y38652*
X38429Y31197D02*
X37975Y31652D01*
X35975D02*
X36475Y32152D01*
Y36902*
X37975Y38402*
Y45402*
X38475Y45902*
Y49902*
X41117Y33152D02*
X40832D01*
X40475Y33509*
Y39652*
X39245Y32753D02*
Y36303D01*
X39245D02*
X39878Y36937D01*
X39481Y33652D02*
Y35908D01*
X40225Y36652*
X45975Y33902D02*
Y37152D01*
X50225Y31652D02*
Y36652D01*
X49973Y36903*
X63151Y34226D02*
X61775D01*
X61475Y34526*
Y35876*
X60725Y36626*
X64743Y34526D02*
X62781D01*
X62481Y34826*
Y43367*
X62640Y43526*
Y44101*
X59975Y32652D02*
X60975Y33652D01*
X61725Y32902D02*
X61453Y33173D01*
X61453D02*
Y34084D01*
X61453D02*
X61212Y34326D01*
X62475Y32402D02*
Y33152D01*
X61975Y33652*
X66429Y34152D02*
X66179Y34402D01*
X66179D02*
X65526D01*
X65526D02*
X64731Y35197D01*
Y35908*
X65975Y34902D02*
Y36152D01*
X66475Y36652*
Y40652*
X63475Y32402D02*
Y33902D01*
X63151Y34226*
X65975Y32652D02*
X66429Y33106D01*
X66429D02*
Y34152D01*
X67475Y32402D02*
Y33897D01*
X67475D02*
X67975Y34397D01*
X67975D02*
Y42261D01*
X67975D02*
X68975Y43261D01*
X68975D02*
Y46652D01*
X72975Y32152D02*
Y33652D01*
Y34542*
X72475Y35042*
Y36652*
X71975Y37152*
Y38652*
X73975Y33652D02*
Y34652D01*
X73475Y35152*
Y36626*
X72975Y37126*
Y38652*
X75475Y31902D02*
X75975Y32402D01*
Y33652*
X76975Y31902D02*
X77475Y32402D01*
Y34679*
X77475D02*
X78225Y35429D01*
X78225D02*
Y39402D01*
X74975Y33652D02*
Y34542D01*
X74520Y34996*
X74520D02*
Y36626D01*
X75975Y33652D02*
Y34402D01*
X75475Y34902*
Y36652*
X76975Y33652D02*
Y34508D01*
X76975D02*
X76473Y35010D01*
X76473D02*
Y36524D01*
X85020Y33152D02*
X85475Y33606D01*
Y36652*
X88975Y34902D02*
Y37844D01*
X88167Y38652*
Y42459*
X88167D02*
X87975Y42652D01*
X92975Y31152D02*
X93617D01*
X23475Y36002D02*
X23898Y36426D01*
X23898D02*
X26286D01*
X26286D02*
X26512Y36652D01*
X26512D02*
Y40939D01*
X23725Y35902D02*
X23949Y36126D01*
X26512*
X26512D02*
X26812Y36426D01*
X26812D02*
Y39621D01*
X26812D02*
X27429Y40238D01*
X27429D02*
Y49152D01*
X22975Y38652D02*
X22725Y38902D01*
Y43652*
X30475Y37652D02*
Y38652D01*
X33725Y37402D02*
Y41976D01*
X33475Y42226*
Y50902*
X32975Y51402*
Y54652*
X32475Y37252D02*
Y37912D01*
X32475D02*
X32725Y38162D01*
X32725D02*
Y39141D01*
X32475Y39391*
Y50926*
X31975Y51426*
Y54652*
X32975Y37652D02*
X33225Y37902D01*
Y38902*
X33475Y37152D02*
X33725Y37402D01*
X38725D02*
X39225Y37902D01*
Y38847*
X38975Y36902D02*
X39475Y37402D01*
X39878Y36937D02*
Y38666D01*
X39878D02*
X38975Y39570D01*
Y40152*
X40225Y36652D02*
Y39152D01*
X39475Y39902*
X39225Y38847D02*
X38225Y39847D01*
Y43152*
X49973Y36903D02*
Y47152D01*
X49475Y36902D02*
X48975Y37402D01*
Y43652*
X54475Y36902D02*
Y38902D01*
X55225Y39652*
X53475Y35902D02*
Y36902D01*
X57012Y37911D02*
X57475Y38374D01*
Y39826*
Y37652D02*
X57975Y38152D01*
Y38652*
X58725Y37402D02*
X58475Y37652D01*
Y39626*
X56975Y41126*
Y41652*
X57975Y35652D02*
X57012Y36614D01*
X57012D02*
Y37911D01*
X60225Y38152D02*
X59475D01*
X58975Y38652*
X60225Y38152D02*
X60475Y38402D01*
Y42380*
X59429Y43426*
X59429D02*
Y45399D01*
X59429D02*
X58475Y46353D01*
X58475D02*
Y50331D01*
X58475D02*
X57975Y50831D01*
X57975D02*
Y51652D01*
X60725Y36626D02*
Y37652D01*
X61475Y38402*
Y42132*
X61494Y42152*
X61975Y37652D02*
Y38652D01*
Y35652D02*
Y35976D01*
X61225Y36726*
Y37402*
X60975Y35652D02*
X60475Y36152D01*
X58975Y35652D02*
X59475Y36152D01*
X60475*
X64731Y35908D02*
X65725Y36902D01*
Y39560*
X65725D02*
X65975Y39810D01*
X65975D02*
Y42652D01*
X66929Y43606*
X66929D02*
Y45447D01*
X64225Y37652D02*
X64626Y38053D01*
X64626D02*
Y38609D01*
X64626D02*
X64964Y38947D01*
X64964D02*
Y48815D01*
X64964D02*
X65475Y49326D01*
Y50402*
X74520Y36626D02*
X74975Y37080D01*
Y38652*
X72975Y36402D02*
Y36652D01*
X72475Y37152*
Y40652*
X71475Y41652*
X75475Y36652D02*
X75975Y37152D01*
Y38652*
X76429Y37152D02*
Y45508D01*
X76429D02*
X76112Y45826D01*
X76473Y36524D02*
X76975Y37026D01*
X76975D02*
Y38652D01*
X78725Y36652D02*
Y40152D01*
X78475Y40402*
X75975Y35652D02*
Y36697D01*
X76429Y37152*
X74975Y35652D02*
Y36652D01*
X75475Y37152*
Y42652*
X79475Y35152D02*
Y37652D01*
X79225Y37902*
Y40402*
X81475Y36652D02*
Y38902D01*
X83975Y35652D02*
Y41329D01*
X83735Y41569*
Y43412*
X84475Y36652D02*
Y39402D01*
X84225Y39652*
Y42402*
X85475Y36652D02*
Y38230D01*
X85475D02*
X85725Y38480D01*
X85725D02*
Y43152D01*
X86973Y38652D02*
Y42813D01*
X86975Y42815*
Y46152*
X87475Y36652D02*
Y37402D01*
X86475Y38402*
Y45152*
X88475Y36652D02*
Y37150D01*
X86973Y38652*
X89475Y36652D02*
Y46902D01*
X89725Y47152*
X90475Y36652D02*
Y38402D01*
X93975Y35402D02*
Y47152D01*
X93475Y47652*
X91975Y36152D02*
Y37679D01*
X91975D02*
X91475Y38179D01*
X91475D02*
Y44652D01*
X94475Y36652D02*
X94225Y36902D01*
Y51152*
X95475Y36652D02*
Y39402D01*
X94475Y40402*
Y50402*
X96475Y36652D02*
X95975Y37152D01*
Y39255*
X95975D02*
X94725Y40505D01*
X94725D02*
Y49902D01*
X98475Y36652D02*
X97725Y37402D01*
Y39902*
X96975Y40652*
X99477Y37760D02*
Y40150D01*
X98975Y40652*
X99475Y36652D02*
Y37758D01*
X99475D02*
X99477Y37760D01*
X25975Y40419D02*
Y41152D01*
X25475Y41652*
X23975Y42652D02*
X23407D01*
X23200Y42858*
X23200D02*
Y48436D01*
X27975Y42152D02*
Y48652D01*
X39475Y39902D02*
Y47152D01*
X40475Y48152*
Y52152*
X38975Y40152D02*
Y41652D01*
X47975Y40652D02*
Y44152D01*
X48475Y44652*
Y40152D02*
X47975Y40652D01*
X49475Y41652D02*
Y43874D01*
X49020Y44328*
X57475Y39826D02*
X56520Y40780D01*
X56520D02*
Y43203D01*
X58475Y42152D02*
Y45261D01*
X58475D02*
X57975Y45761D01*
X57975D02*
Y46652D01*
X61494Y42152D02*
Y42382D01*
X61494D02*
X60475Y43402D01*
Y45340*
X59475Y46340*
X64225Y39902D02*
X63975D01*
X63725Y40152*
X63975Y42326D02*
X64475Y42826D01*
Y49652*
X64725Y49902*
X63725Y40152D02*
Y42626D01*
X64225Y43126*
X64475Y41652D02*
X64725Y41902D01*
Y49126*
X65225Y49626*
X64225Y40402D02*
X63975Y40652D01*
Y42326*
X64475Y39152D02*
Y39652D01*
X64225Y39902*
X66475Y40652D02*
Y41652D01*
X69473Y39400D02*
X69975Y39902D01*
X68975Y39652D02*
Y42761D01*
X68975D02*
X69475Y43261D01*
X69475D02*
Y44652D01*
X67475Y40652D02*
Y41652D01*
X73975Y42652D02*
Y43426D01*
X74975Y44426*
Y44652*
X73725Y39902D02*
X73975Y40152D01*
Y41652*
X74475Y40152D02*
Y40988D01*
X74475D02*
X74498Y41012D01*
X74498D02*
Y43175D01*
X74498D02*
X75975Y44652D01*
X78475Y40402D02*
Y41926D01*
X78975Y42426*
Y44652*
X77475Y40652D02*
Y41926D01*
X77725Y42176*
Y43652*
X78475Y44402*
Y47826*
X76975Y42402D02*
X77429Y42856D01*
X77429D02*
Y50326D01*
X75975Y39402D02*
Y41652D01*
X74975Y39402D02*
Y41652D01*
X77975D02*
Y43152D01*
X78475Y43652*
X79473Y42826D02*
X79975Y43328D01*
Y44652*
X79496Y41130D02*
X79473Y41153D01*
X79473D02*
Y42826D01*
X80977Y40563D02*
X80975Y40565D01*
Y44652*
X79225Y40402D02*
X79496Y40673D01*
X79496D02*
Y41130D01*
X84225Y42402D02*
Y43152D01*
X84475Y43402*
X83475Y40902D02*
Y49539D01*
X83112Y49902*
X89975Y40652D02*
Y43152D01*
X90725Y43902*
Y51402*
X88975Y41652D02*
X89225Y41902D01*
Y51152*
X87475Y42652D02*
X87975D01*
X91975Y39152D02*
Y52152D01*
X96975Y40652D02*
Y42152D01*
X98975Y40652D02*
Y42152D01*
X16725Y45152D02*
X17225Y45652D01*
X19460*
X19725Y45916*
X19725D02*
Y54126D01*
X20025Y54426*
X23736*
X23736D02*
X23975Y54664D01*
X23975D02*
Y57416D01*
X24475Y57916*
Y67926*
X25225Y68676*
Y70652*
X25725Y71152*
X17725Y46152D02*
X19153D01*
X19153D02*
X19489Y46487D01*
Y54409*
X19771Y54691*
X19771D02*
X23511D01*
X23511D02*
X23689Y54868D01*
X23689D02*
Y57637D01*
X23689D02*
X24223Y58172D01*
Y70650*
X24725Y71152*
X25475Y45652D02*
Y44652D01*
Y43652*
X38225Y43152D02*
X38475Y43402D01*
X36975Y43902D02*
Y45429D01*
X36975D02*
X37475Y45929D01*
X37475D02*
Y58152D01*
X37975Y58652*
X43475Y45652D02*
X41246D01*
X40975Y45923*
Y46652*
X41975D02*
Y47144D01*
X41766Y47353*
X39975Y44652D02*
Y45542D01*
X40475Y46042*
Y47090*
X40738Y47353*
X41766*
X43475Y44152D02*
X44117D01*
X44117D02*
X44429Y44463D01*
X44429D02*
Y45411D01*
X43475Y44152D02*
X42975Y44652D01*
X44429Y45411D02*
X43975Y45865D01*
X43975D02*
Y46652D01*
Y47542*
X43975D02*
X43475Y48042D01*
X43475D02*
Y53402D01*
X43975Y44652D02*
Y45152D01*
X43475Y45652*
X49020Y44328D02*
Y51197D01*
X49020D02*
X49475Y51652D01*
X50475Y44652D02*
Y45508D01*
X50475D02*
X50977Y46010D01*
X50977D02*
Y47400D01*
X49975Y48402*
X53975Y45402D02*
Y48152D01*
X53475Y46652D02*
Y48652D01*
X54475Y49652*
X51475Y46652D02*
Y48806D01*
X51782Y49113*
X51782D02*
X53298D01*
X53298D02*
X53475Y49290D01*
Y49652*
X56520Y43203D02*
X57475Y44157D01*
X57475D02*
Y47761D01*
X57475D02*
X57975Y48261D01*
X57975D02*
Y49652D01*
X56975Y46652D02*
Y48652D01*
X61475Y43652D02*
Y45589D01*
X61475D02*
X60975Y46089D01*
X60975D02*
Y46652D01*
X59475Y46340D02*
Y46902D01*
X60475Y47902*
X62475Y45755D02*
Y48626D01*
X61975Y49126*
Y49652*
X61225Y43402D02*
X61475Y43652D01*
X61975Y46652D02*
Y47902D01*
X58975Y46652D02*
Y47896D01*
X58975D02*
X59429Y48351D01*
X59429D02*
Y52197D01*
X64225Y43126D02*
Y46152D01*
X63725Y46652*
X65975D02*
Y51277D01*
X64810Y52442*
X66929Y45447D02*
X66475Y45902D01*
Y47254*
X66475D02*
X66212Y47517D01*
X66212D02*
Y48626D01*
X69975Y43652D02*
Y45402D01*
X69475Y45902*
Y48402*
X68475Y43652D02*
Y44652D01*
X67475Y43402D02*
Y44652D01*
Y46926*
X68412Y47863*
X68412D02*
Y49714D01*
X68475Y44652D02*
Y47185D01*
X68712Y47422*
X76112Y45826D02*
X73775D01*
X73475Y46126*
Y49402*
X72975Y49902*
Y52652*
X72429Y45477D02*
Y48447D01*
X72429D02*
X71975Y48902D01*
Y52652*
X72225Y43902D02*
Y45272D01*
X72225D02*
X72429Y45477D01*
X73975Y46652D02*
Y49402D01*
X73475Y49902*
Y63082*
X73475D02*
X72725Y63832D01*
X72725D02*
Y67152D01*
X72975Y46652D02*
Y49195D01*
X72518Y49652*
X72518D02*
Y59705D01*
X72518D02*
X72212Y60011D01*
X72212D02*
Y65038D01*
X72212D02*
X71725Y65526D01*
Y67152*
X71475Y44652D02*
Y47054D01*
X71475D02*
X70975Y47554D01*
X70975D02*
Y52652D01*
X76975Y43402D02*
Y44652D01*
X75975Y46652D02*
Y49326D01*
X76475Y49826*
X74975Y46652D02*
Y49326D01*
X75475Y49826*
X79475Y43652D02*
Y48313D01*
X79475D02*
X78688Y49100D01*
X78688D02*
Y51689D01*
X78475Y51902*
X84475Y43402D02*
Y49689D01*
X84012Y50152*
X83735Y43412D02*
X83975Y43652D01*
X87475Y46652D02*
X88410D01*
X88410D02*
X88725Y46966D01*
Y52402*
X88975Y52652*
X23200Y48436D02*
X23416Y48652D01*
X23975*
X22975Y49652D02*
Y51652D01*
X27429Y49152D02*
X26975Y49606D01*
Y52152*
X30975Y48652D02*
Y49902D01*
X29520Y51356*
X29520D02*
Y64926D01*
X35725Y47874D02*
X35475Y48124D01*
Y49902*
X33975Y51402*
Y54652*
X38475Y50902D02*
Y63011D01*
X38475D02*
X38975Y63511D01*
X38975D02*
Y64152D01*
X35975Y48652D02*
Y51152D01*
X41975Y48652D02*
Y52902D01*
X42475Y53402*
X40975Y48652D02*
Y51152D01*
X39975Y48652D02*
Y50152D01*
X38975Y48652D02*
Y49902D01*
X39975Y50902*
Y53152*
X44475Y50152D02*
Y53152D01*
X43975Y53652*
Y54652*
Y48652D02*
Y51652D01*
X42975Y48652D02*
Y50652D01*
X49975Y47152D02*
X49973D01*
X52929Y47447D02*
X52475Y47902D01*
X60475D02*
Y50123D01*
X59975Y50623*
Y51652*
X58975Y48652D02*
Y49652D01*
X59975Y48152D02*
Y49652D01*
X60975D02*
Y50652D01*
X60475Y51152*
X66771Y47626D02*
X67712D01*
X67712D02*
X68128Y48042D01*
X68128D02*
Y49105D01*
X66771Y47626D02*
X66512Y47885D01*
X64012Y50406D02*
X63560Y50858D01*
Y52611*
X66512Y47885D02*
Y48459D01*
X66512D02*
X66878Y48826D01*
X65225Y49626D02*
Y50152D01*
X63975Y51402*
Y52152*
X65475Y50402D02*
X64532Y51344D01*
X64532D02*
Y60320D01*
X66212Y48626D02*
X66475Y48888D01*
X66475D02*
Y50902D01*
X63975Y47652D02*
Y48286D01*
X64012Y48323*
Y50406*
X62975Y49652D02*
X62475Y50152D01*
Y51794*
X62475D02*
X62117Y52152D01*
X68412Y49714D02*
X68225Y49902D01*
X67138Y48314D02*
Y51511D01*
X66520Y52128*
X68712Y47422D02*
Y50026D01*
X68712D02*
X68412Y50326D01*
X67712Y50026D02*
X68012Y50326D01*
X68012D02*
X68412D01*
X68128Y49105D02*
X67712Y49521D01*
X67712D02*
Y50026D01*
X66878Y48826D02*
Y51069D01*
X66878D02*
X66111Y51836D01*
X70475Y48402D02*
Y56126D01*
X70975Y56626*
Y58652*
X69975Y48902D02*
Y49326D01*
X69520Y49780*
X69520D02*
Y56126D01*
X69225Y49152D02*
Y51521D01*
X68520Y52226*
X67725Y48902D02*
X67476Y49223D01*
X67476D02*
Y56126D01*
X66975Y48152D02*
X67138Y48314D01*
X74475Y48152D02*
Y56126D01*
X73975Y56626*
Y58652*
X71725Y47652D02*
X71433Y47943D01*
X71433D02*
Y56026D01*
X76475Y49826D02*
Y53086D01*
X75725Y53836*
Y63726*
X75475Y49826D02*
Y63663D01*
X74812Y64326*
X78475Y47826D02*
X77725Y48576D01*
Y50826*
X77475Y51076*
Y52902*
X77429Y50326D02*
X76975Y50780D01*
Y52652*
X78225Y49152D02*
X77975Y49402D01*
Y52652*
X84012Y50152D02*
X81225D01*
X80975Y50402*
Y52652*
X83112Y49902D02*
X80299D01*
X79975Y50226*
Y52652*
X89975Y48652D02*
Y52238D01*
X89975D02*
X89973Y52240D01*
X89973D02*
Y57150D01*
X94725Y49902D02*
X94975Y50152D01*
X98475*
X98975Y50652*
Y57152*
X99475Y57652*
X94475Y50402D02*
X94725Y50652D01*
X96725*
X97475Y51402*
X17725Y54152D02*
X17242Y54634D01*
X17242D02*
Y61945D01*
X30475Y52152D02*
Y59826D01*
X29975Y60326*
Y61652*
X28475Y52652D02*
Y58152D01*
X28975Y58652*
X32475Y54152D02*
Y60124D01*
X31475Y61124*
Y63652*
X30975Y64152*
X34475Y53652D02*
Y62902D01*
X33975Y63402*
Y64152*
X33475Y51902D02*
Y57363D01*
X33475D02*
X33498Y57387D01*
X33498D02*
Y65126D01*
X33498D02*
X33975Y65602D01*
Y67152*
X36975Y54652D02*
Y56402D01*
X36225Y57152*
X37975Y54652D02*
Y56902D01*
X41477Y54740D02*
Y58150D01*
X40975Y58652*
X38975Y51902D02*
Y54652D01*
X39475Y51152D02*
Y54488D01*
X39475D02*
X39473Y54490D01*
X39473D02*
Y65259D01*
X41475Y51652D02*
Y54738D01*
X41475D02*
X41477Y54740D01*
X42475Y53402D02*
Y62874D01*
X41975Y63374*
Y64152*
X44975Y51152D02*
Y53152D01*
X44475Y53652*
Y64826*
X42975Y66326*
Y67152*
Y54652D02*
Y56926D01*
X43475Y57426*
Y62152*
X44975Y54652D02*
Y59402D01*
X49475Y54652D02*
Y55427D01*
X49475D02*
X50475Y56427D01*
X50475D02*
Y60152D01*
X50975Y60652*
X51475Y54652D02*
X51975Y55152D01*
Y56402*
X54475Y54652D02*
Y56902D01*
X57975Y51652D02*
Y54652D01*
X56975Y51652D02*
Y53902D01*
X62117Y52152D02*
X61648D01*
X60398Y53402*
X59429Y52197D02*
X58975Y52652D01*
X61975D02*
Y54652D01*
X59975Y53402D02*
X60398D01*
X58975Y52652D02*
X59403Y53080D01*
Y53783*
X59403D02*
X59704Y54084D01*
X59704D02*
X60737D01*
X60737D02*
X60975Y54322D01*
X60975D02*
Y54652D01*
X59975D02*
Y56902D01*
X58975Y51652D02*
X58475Y52152D01*
Y57402*
X66111Y51836D02*
X66041D01*
X65225Y52652*
X64810Y52442D02*
Y57236D01*
X64810D02*
X65225Y57652D01*
X66520Y52128D02*
Y58951D01*
X66520D02*
X66725Y59156D01*
Y59652*
X63560Y52611D02*
X64140Y53192D01*
Y62838*
X68520Y52226D02*
Y56071D01*
X68520D02*
X68975Y56526D01*
Y58652*
X66975Y52652D02*
Y57902D01*
X68975Y52652D02*
Y56026D01*
X69475Y56526*
Y60152*
X73975Y51652D02*
Y52652D01*
X70975D02*
Y55902D01*
X77475Y52902D02*
X77725Y53152D01*
X81712*
X81712D02*
X82225Y53664D01*
X82225D02*
Y55902D01*
X82975Y56652*
X75975Y51152D02*
Y52652D01*
X74975Y51402D02*
Y52652D01*
X80475Y53902D02*
Y59152D01*
X79975Y59652*
X85975Y54152D02*
Y55652D01*
X83475Y52152D02*
Y60152D01*
X82975Y60652*
X90725Y51402D02*
X90475Y51652D01*
X94225Y51152D02*
X94475Y51402D01*
X96475*
X97475Y52402D02*
X93725Y56152D01*
Y66652*
X92225Y68152*
X96475Y51402D02*
Y52402D01*
X22475Y58152D02*
X22788D01*
X21975Y55652D02*
Y57652D01*
X23725Y58652D02*
Y69152D01*
X24475Y57152D02*
X24725Y57402D01*
Y59156*
X24725D02*
X25456Y59888D01*
X25456D02*
Y61398D01*
X22975Y56152D02*
Y57964D01*
X22975D02*
X22788Y58152D01*
X29975Y57652D02*
Y58652D01*
X32975Y57652D02*
Y58652D01*
X31475Y55152D02*
Y60152D01*
X30975Y58652D02*
Y59826D01*
X30520Y60280*
X30520D02*
Y64726D01*
X35475Y57902D02*
Y58363D01*
X35475D02*
X35477Y58365D01*
X35477D02*
Y63313D01*
X41975Y57652D02*
Y58652D01*
X38975Y57652D02*
Y58652D01*
X39975D02*
Y60042D01*
X40475Y60542*
Y68126*
X40725Y68376*
Y69152*
X42975Y58652D02*
Y60402D01*
X52975Y57652D02*
X52475Y58152D01*
Y60042*
X51975Y60542*
Y61652*
X50975Y56402D02*
Y56798D01*
X51477Y57300*
Y62152*
X52975Y58652D02*
Y60042D01*
X52498Y60518*
X52498D02*
Y64041D01*
X52498D02*
X52475Y64065D01*
Y65652*
X67476Y56126D02*
X67975Y56624D01*
X67975D02*
Y58652D01*
X69520Y56126D02*
X69975Y56580D01*
Y58652*
Y60926*
X70201Y61152*
X70725*
X68975Y58652D02*
Y59757D01*
X68725Y60007*
Y61152*
X67975Y58652D02*
Y59902D01*
X66725Y61152*
X71433Y56026D02*
X71975Y56567D01*
Y58652*
X76225Y57902D02*
X75983Y58143D01*
X75983D02*
Y65826D01*
X77975Y58652D02*
X77725Y58902D01*
Y64652*
X78725Y57652D02*
X79455Y58382D01*
X79455D02*
Y59772D01*
X79455D02*
X79834Y60152D01*
X79834D02*
X80115D01*
X80715Y60751*
X80715D02*
Y62626D01*
X81725Y63635*
X81725D02*
Y64652D01*
X77725Y56652D02*
X77475Y56902D01*
Y62402*
X76725Y63152*
Y64652*
X81475Y57652D02*
X80975Y58152D01*
Y61902*
X86225Y58152D02*
X84225D01*
X83725Y58652*
Y62026*
X82725Y63026*
Y64652*
X86475Y57152D02*
Y57902D01*
X86225Y58152*
X86727Y57916D02*
Y60357D01*
X86890Y60520*
X82975Y58652D02*
X82225Y59402D01*
Y61152*
X85975Y56652D02*
X86475Y57152D01*
X88725Y57902D02*
Y58986D01*
X88725D02*
X88975Y59236D01*
X89973Y57150D02*
X90475Y57652D01*
X89225Y58652D02*
Y65902D01*
X88225Y66902*
X88975Y57652D02*
X88725Y57902D01*
X86975Y57152D02*
Y57668D01*
X86975D02*
X86727Y57916D01*
X87475Y57652D02*
X86975Y58152D01*
Y59794*
X99475Y58652D02*
X98475Y59652D01*
Y64152*
X17242Y61945D02*
X17479Y62181D01*
Y68918*
X17479D02*
X17984Y69424D01*
X17984D02*
X22452D01*
X16725Y62152D02*
X17225Y62652D01*
Y69652*
X19975Y59902D02*
Y65902D01*
X26378Y62103D02*
X25571Y62910D01*
X25571D02*
Y66069D01*
X25456Y61398D02*
X24976Y61878D01*
X24976D02*
Y67338D01*
X25975Y61652D02*
X25221Y62405D01*
X25221D02*
Y66379D01*
X24975Y61152D02*
X24730Y61397D01*
Y67639*
X26225Y60402D02*
Y61068D01*
X26378Y61221*
X26378D02*
Y62103D01*
X30975Y61652D02*
Y62652D01*
X31975Y61652D02*
X32475Y62152D01*
Y65126*
X33475Y66126*
Y68139*
X33725Y68389*
Y69152*
X33975Y61652D02*
Y62652D01*
X34975Y61652D02*
Y63152D01*
X34475Y63652*
X39975Y61652D02*
Y62652D01*
X40975Y61652D02*
X41475Y62152D01*
Y67867*
X41725Y68117*
Y69152*
X44975Y60402D02*
X45225Y60652D01*
Y69652*
X42975Y61652D02*
Y62652D01*
X43975Y61652D02*
Y63126D01*
X43475Y63626*
Y65152*
X42520Y66106*
X51477Y62152D02*
X51475D01*
X53975Y61652D02*
X53451Y62175D01*
X53451D02*
Y67318D01*
X52124Y68645*
X55475Y60652D02*
Y61738D01*
X55475D02*
X55477Y61740D01*
X55477D02*
Y64063D01*
X56975Y61652D02*
Y63060D01*
X56975D02*
X56473Y63562D01*
X64140Y62838D02*
X63975Y63003D01*
X63975D02*
Y63652D01*
X64532Y60320D02*
X64725Y60513D01*
Y62402*
X76475Y59152D02*
Y61869D01*
X76475D02*
X76231Y62113D01*
X76231D02*
Y65326D01*
X80975Y61902D02*
X82225Y63152D01*
Y67026*
X82601Y67402*
X85725*
X86475Y61152D02*
Y63076D01*
X85725Y63826*
Y64652*
X88975Y59236D02*
Y62152D01*
X87725Y63402*
Y64652*
X87929Y61197D02*
X87475Y61652D01*
X86975Y59794D02*
X87332Y60152D01*
X87617*
X87617D02*
X87929Y60463D01*
X87929D02*
Y61197D01*
X86890Y60520D02*
Y63152D01*
X86225Y63817*
Y65402*
X85225Y66402*
Y66902*
X88475Y60152D02*
Y62152D01*
X86725Y63902*
Y64652*
X18975Y63152D02*
Y65902D01*
X22475D02*
Y66902D01*
X19975Y65902D02*
Y66902D01*
X25571Y66069D02*
X25850Y66348D01*
X25850D02*
X28180D01*
X28180D02*
X28496Y66664D01*
X28496D02*
Y68375D01*
X28496D02*
X28725Y68603D01*
Y69152*
X25221Y66379D02*
X25469Y66627D01*
X27977*
X28225Y66875*
X28225D02*
Y70652D01*
X28725Y71152*
X30520Y64726D02*
X31475Y65680D01*
Y67867*
X31725Y68117*
Y69152*
X29520Y64926D02*
X30975Y66380D01*
Y67152*
X28975Y64152D02*
Y65634D01*
X29477Y66136*
Y68376*
X34475Y63652D02*
Y68902D01*
X34725Y69152*
X32429Y65996D02*
Y68044D01*
X32429D02*
X32225Y68249D01*
Y70350*
X31923Y70652*
X31975Y64152D02*
Y65542D01*
X32429Y65996*
X35477Y63313D02*
X35475Y63315D01*
Y68152*
X36225Y65652D02*
Y66626D01*
X38225Y68626*
Y70652*
X38725Y71152*
X37975Y64152D02*
Y65508D01*
X37975D02*
X38498Y66032D01*
X38498D02*
Y67772D01*
X38498D02*
X39225Y68499D01*
Y70652*
X39725Y71152*
X42520Y66106D02*
Y67912D01*
X42520D02*
X42725Y68117D01*
Y69152*
X39473Y65259D02*
X39975Y65761D01*
X39975D02*
Y67152D01*
X41975Y64152D02*
X42975D01*
X40975D02*
Y65652D01*
X46725D02*
Y69152D01*
X54475Y63652D02*
Y65093D01*
X53975Y65593*
Y67152*
X56473Y63562D02*
Y67813D01*
X56475Y67815*
Y68652*
X55477Y64063D02*
X55475Y64065D01*
Y65652*
X58975Y64152D02*
X59475Y64652D01*
Y69652*
X74812Y64326D02*
X73725D01*
X73225Y64826*
Y68013*
X75983Y65826D02*
X76183Y66026D01*
X76231Y65326D02*
X76531Y65626D01*
X86225Y66902D02*
X85725Y67402D01*
X19220Y70941D02*
X17615D01*
X16930Y71626*
X19220Y70941D02*
X21529D01*
X21529D02*
X22144Y71556D01*
X22725Y69152D02*
X22452Y69424D01*
X26219Y69658D02*
X25725Y70152D01*
X24976Y67338D02*
X26219Y68580D01*
X26219D02*
Y69658D01*
X24730Y67639D02*
X25725Y68634D01*
X25725D02*
Y69152D01*
X26725Y70152D02*
X27212Y70639D01*
X27212D02*
Y71376D01*
X29477Y68376D02*
X29225Y68628D01*
Y70652*
X27225Y67152D02*
Y68152D01*
X29975Y67152D02*
X30225Y67402D01*
Y69652*
X31923Y70652D02*
X31225D01*
X30725Y71152*
X32975Y67152D02*
Y68139D01*
X33225Y68389*
Y70652*
X33725Y71152*
X34725Y70152D02*
X34212Y70664D01*
X34212D02*
Y71346D01*
X38975Y67152D02*
Y67326D01*
X40225Y68576*
Y70652*
X40725Y71152*
X52124Y68645D02*
X48231D01*
X48231D02*
X47725Y69152D01*
X51633Y68152D02*
X47681D01*
X47681D02*
X47225Y68608D01*
Y70652*
X46725Y71152*
X50725Y70152D02*
X50225Y70652D01*
Y71402*
X49975Y71652*
X51975Y67152D02*
Y67809D01*
X51975D02*
X51633Y68152D01*
X12212Y71626D02*
X16930D01*
X27212Y71376D02*
X27470Y71634D01*
X27470D02*
X33925D01*
X34212Y71346D02*
Y71389D01*
X34212D02*
X34475Y71652D01*
X43212*
X34212Y71346D02*
X33925Y71634D01*
X43212Y71652D02*
X49975D01*
G54D33*
X27225Y12152D02*
X28225D01*
X74725Y26652D02*
X75475D01*
X65225Y37402D02*
Y38402D01*
X31725Y42652D02*
Y43652D01*
X47475Y40152D02*
Y41652D01*
X90475Y53902D02*
Y54652D01*
X91225Y55402*
Y57652*
X27975D02*
Y59902D01*
X27225Y60652*
X91975Y57652D02*
X91225D01*
Y60902*
X90475Y61652*
X36975D02*
X37975D01*
X37305Y62652D02*
X37975D01*
Y61652*
G54D34*
X83475Y36652D02*
Y40902D01*
G54D40*
X58975Y63152D03*
X62975D03*
G54D44*
X11975Y17152D03*
G54D52*
X12212Y71626D03*
X0Y0D02*
M02*
