%
T1C.02362F197S55
X016725Y017402
X016225Y017902
X013225Y019652
X015725Y021652
X012475Y023152
X013975Y024652
X016225Y030152
X016725Y030652
X015725Y031902
X014725Y042152
X013975Y043402
X013975Y048152
X016725Y062152
X014725Y062902
X013225Y063902
X012475Y064652
X016225Y068152
X016725Y068652
X015725Y068902
X014725Y070652
X017225Y069652
X019475Y068902
X018975Y063152
X018725Y061152
X021475Y060652
X019975Y059902
X018225Y058652
X018975Y057152
X020475Y053402
X020975Y052652
X021475Y034402
X017725Y032652
X017225Y031652
X019975Y026902
X019475Y026152
X018725Y023152
X020225Y022652
X020225Y020152
X019725Y018652
X017225Y017902
X017725Y017402
X022975Y015152
X023725Y015902
X024725Y016152
X025725Y016402
X021975Y017152
X022975Y018152
X023725Y019152
X024725Y019152
X025725Y019152
X023225Y022152
X023975Y022902
X024975Y022902
X021975Y023652
X022475Y025152
X024975Y026152
X023475Y027152
X025475Y027152
X023975Y029152
X023975Y029902
X026475Y030152
X024475Y031152
X026725Y031652
X024725Y035652
X025475Y035652
X022975Y038652
X026725Y041152
X022725Y043652
X024725Y046652
X026475Y051652
X021975Y055652
X022975Y056152
X024475Y057152
X021975Y057652
X025975Y057652
X022475Y058152
X023725Y058652
X025225Y058652
X026225Y060402
X024975Y061152
X025975Y061652
X025975Y065902
X029225Y070652
X030225Y069652
X027225Y068152
X027225Y067152
X031475Y060152
X031475Y055152
X028975Y053152
X028475Y052652
X026975Y052152
X030475Y052152
X027725Y050402
X030475Y046652
X027975Y042152
X029225Y037902
X027975Y036652
X028225Y035902
X030225Y035402
X028975Y035152
X028225Y035152
X029725Y033152
X029475Y030652
X027475Y030152
X030225Y027152
X028725Y022402
X027975Y018902
X026975Y018152
X030725Y016652
X027725Y013152
X032225Y013152
X033225Y014902
X034725Y016652
X033475Y019402
X032725Y021902
X034225Y022152
X035475Y022152
X036225Y022152
X032225Y026152
X034725Y026902
X033975Y027652
X034725Y027652
X032225Y030402
X034225Y030402
X033475Y031152
X033975Y031652
X034725Y032152
X033975Y033152
X031975Y036402
X033475Y037152
X034725Y038402
X033225Y038902
X035225Y044402
X036475Y047402
X035975Y051152
X033475Y051902
X034475Y053652
X032475Y054152
X036225Y057152
X035475Y057902
X036225Y065652
X035475Y068152
X040975Y065652
X037975Y056902
X039975Y053152
X040475Y052152
X038975Y051902
X041475Y051652
X040975Y051152
X039475Y051152
X038475Y050902
X039975Y050152
X038475Y049902
X036975Y043902
X038475Y043402
X040475Y039652
X038725Y038652
X039475Y037402
X039475Y031152
X039225Y029152
X039725Y027152
X038225Y020652
X037225Y019652
X037725Y018652
X039725Y013152
X038725Y013152
X041725Y012902
X043725Y013152
X046725Y013652
X042975Y024652
X041975Y026652
X041975Y028402
X045475Y031152
X044475Y031902
X042225Y033152
X045975Y033902
X045475Y035402
X046475Y036652
X045975Y037152
X046475Y039402
X045725Y040402
X046475Y046652
X046725Y047652
X044475Y050152
X042975Y050652
X044975Y051152
X043975Y051652
X043475Y053402
X042475Y053402
X045725Y058652
X044975Y059402
X044975Y060402
X042975Y060402
X043475Y062152
X046725Y065652
X045225Y069652
X051475Y062152
X050975Y060652
X050975Y056402
X047725Y050652
X049975Y048402
X049975Y047152
X048975Y043652
X050975Y039152
X049225Y032402
X048225Y032152
X050725Y032152
X047475Y031652
X050225Y031652
X049225Y025402
X050475Y025152
X050975Y024652
X049725Y024652
X051475Y024152
X049225Y023152
X049975Y022652
X048725Y021402
X051725Y021152
X051225Y020652
X049975Y019652
X048225Y018652
X050975Y017402
X049725Y017152
X050475Y015902
X049225Y015152
X047225Y014652
X055975Y014652
X055225Y016152
X054725Y017152
X055975Y018152
X052225Y018902
X052225Y019652
X055475Y019652
X055725Y020652
X056475Y021652
X051975Y022152
X053975Y024152
X051975Y026152
X056475Y027402
X055725Y027902
X053975Y028402
X055975Y028902
X055725Y029652
X054975Y031402
X052975Y033652
X055225Y039652
X056225Y040152
X053725Y040902
X053975Y045402
X056225Y045652
X052475Y047902
X053975Y048152
X055475Y051652
X055475Y052652
X051975Y056402
X054475Y056902
X052975Y057652
X055475Y060652
X054475Y063652
X052475Y065652
X055475Y065652
X054725Y067902
X056475Y068652
X059475Y069652
X061225Y069152
X060475Y065652
X060475Y060152
X058475Y057402
X059975Y056902
X056975Y053902
X059975Y053402
X058975Y052652
X060475Y051152
X058975Y048652
X056975Y048652
X059975Y048152
X061225Y043402
X058475Y042152
X059513Y039126
X057475Y037652
X058725Y037402
X061225Y037402
X061725Y032902
X059975Y032652
X060975Y032652
X061475Y030152
X059475Y029152
X056975Y028402
X058475Y027152
X058975Y026152
X057475Y019652
X057975Y018652
X058725Y015652
X061975Y016152
X066725Y016152
X062475Y021152
X065475Y022152
X063975Y022652
X064475Y023152
X062975Y023652
X063475Y024152
X063475Y032402
X062475Y032402
X065975Y032652
X064475Y033152
X065975Y034902
X061975Y037652
X064225Y037652
X064475Y039152
X064225Y040402
X064475Y041652
X063225Y043152
X062225Y043902
X065975Y044152
X065475Y045652
X063725Y046652
X063975Y047652
X061975Y047902
X064725Y049902
X066475Y050902
X064975Y051652
X063975Y052152
X065225Y052652
X061975Y052652
X063725Y055152
X065225Y057652
X063725Y059402
X066725Y059652
X064725Y062402
X063975Y063652
X062975Y064402
X065975Y069652
X067725Y062402
X070975Y060402
X069475Y060152
X066975Y057902
X070975Y055902
X068225Y049902
X069225Y049152
X067725Y048902
X069975Y048902
X070475Y048402
X069475Y048402
X066975Y048152
X071725Y047652
X069975Y043652
X068475Y043652
X067475Y043402
X069975Y039902
X068975Y039652
X068475Y038652
X070975Y036402
X068475Y035652
X067475Y032402
X068225Y029152
X066975Y027902
X069975Y027652
X068725Y026152
X068725Y021652
X074725Y013652
X072975Y015652
X075975Y016152
X072725Y021652
X073725Y021652
X072975Y026152
X071975Y027152
X072975Y032152
X072975Y036402
X073975Y036652
X074975Y039402
X075975Y039402
X073725Y039902
X074475Y040152
X075475Y042652
X073975Y042652
X072225Y043902
X074475Y048152
X075975Y051152
X074975Y051402
X073975Y051652
X076225Y057902
X076475Y059152
X073975Y062402
X073725Y065402
X074475Y069402
X078725Y061652
X078975Y059652
X077975Y058652
X078725Y057652
X077725Y056652
X078725Y054652
X077975Y054652
X080475Y053902
X078475Y051902
X078225Y049152
X081475Y049152
X080475Y047152
X080975Y044652
X078475Y043652
X079475Y043652
X076975Y043402
X076975Y042402
X077475Y040652
X078475Y040402
X079225Y040402
X078225Y039402
X080475Y039402
X081475Y038902
X077725Y038652
X078725Y036652
X078725Y035652
X079475Y035152
X076975Y031902
X079475Y026652
X081475Y023652
X080725Y022652
X081225Y017652
X080225Y016652
X078975Y014652
X086475Y014652
X082975Y019152
X081975Y020652
X082475Y025152
X083975Y026152
X085975Y031652
X086475Y032652
X083975Y035652
X081975Y035652
X082725Y040402
X083475Y040902
X084975Y041652
X084225Y042402
X085725Y043152
X083975Y043652
X086475Y045152
X083475Y052152
X084975Y053652
X085975Y054152
X086475Y061152
X082225Y061152
X084475Y063152
X088225Y066902
X088475Y060152
X089225Y058652
X088975Y057652
X086975Y057152
X088975Y052652
X090475Y051652
X089225Y051152
X091225Y050652
X089975Y048652
X089725Y047152
X086975Y046152
X091475Y044652
X090975Y042152
X088975Y041652
X089975Y040652
X090475Y038402
X087975Y035652
X088975Y034902
X086975Y034152
X086975Y025152
X087975Y024152
X088975Y023152
X090725Y012902
X092975Y031152
X094475Y034152
X093975Y035402
X092475Y035402
X096475Y035402
X091975Y036152
X094975Y037902
X091975Y039152
X092475Y046152
X091975Y052152
X097975Y056652
X097475Y063652
X098475Y064152
X092225Y068152
T2C.0315F197S55
X021475Y024652
X021475Y026652
X021475Y027652
X020975Y037652
X020975Y039652
X020975Y040652
X020975Y041652
X020975Y042652
X020975Y043652
X020975Y044652
X020975Y045652
X020975Y048652
X020975Y049652
X020975Y050652
X020975Y051652
X023975Y051652
X022975Y051652
X023975Y050652
X021975Y050652
X023975Y049652
X022975Y049652
X023975Y048652
X023975Y045652
X023975Y044652
X023975Y043652
X023975Y042652
X023975Y041652
X023975Y040652
X023975Y039652
X021975Y037652
X023975Y037652
X022975Y033652
X022975Y032652
X022975Y031652
X022975Y030652
X022975Y029652
X022975Y028652
X022975Y027652
X022975Y026652
X022975Y025652
X022975Y024652
X025975Y024652
X027975Y024652
X025975Y025652
X027975Y025652
X027975Y026652
X025975Y026652
X027975Y027652
X025975Y027652
X027975Y028652
X025975Y028652
X027975Y029652
X025975Y029652
X027975Y030652
X025975Y030652
X027975Y031652
X025975Y031652
X027975Y032652
X025975Y032652
X027975Y033652
X025975Y033652
X025475Y037652
X025475Y038652
X025475Y039652
X025475Y040652
X025475Y041652
X025475Y042652
X025475Y043652
X025475Y044652
X025475Y045652
X025975Y048652
X026975Y048652
X027975Y048652
X028975Y048652
X025975Y054652
X026975Y054652
X027975Y054652
X028975Y054652
X028975Y057652
X027975Y057652
X027225Y058652
X028975Y058652
X027225Y060652
X028975Y061652
X027225Y061652
X028975Y062652
X028975Y064152
X028975Y067152
X030975Y067152
X029975Y067152
X029975Y064152
X030975Y064152
X029975Y062652
X030975Y062652
X030975Y061652
X029975Y061652
X029975Y058652
X030975Y058652
X029975Y057652
X030975Y057652
X030975Y054652
X029975Y054652
X029975Y048652
X030975Y048652
X030475Y045652
X030475Y044652
X031725Y044652
X031725Y043652
X030475Y043652
X030475Y042652
X031725Y042652
X030475Y041652
X030475Y040652
X030475Y039652
X030475Y038652
X030475Y037652
X030975Y033652
X030975Y032652
X030975Y031652
X030975Y030652
X030975Y029652
X030975Y028652
X030975Y027652
X030975Y026652
X030975Y025652
X030975Y024652
X032975Y024652
X032975Y025652
X032975Y026652
X032975Y027652
X032975Y028652
X032975Y029652
X032975Y030652
X032975Y031652
X032975Y032652
X032975Y033652
X032975Y037652
X031975Y038652
X032975Y039652
X032975Y048652
X033975Y048652
X031975Y048652
X032975Y054652
X031975Y054652
X033975Y054652
X031975Y057652
X032975Y057652
X032975Y058652
X033975Y058652
X031975Y058652
X032975Y061652
X031975Y061652
X033975Y061652
X032975Y062652
X033975Y062652
X031975Y062652
X032975Y064152
X033975Y064152
X031975Y064152
X031975Y067152
X033975Y067152
X032975Y067152
X034975Y067152
X038975Y067152
X037975Y067152
X034975Y064152
X037975Y064152
X038975Y064152
X038975Y062652
X037975Y062652
X034975Y061652
X038975Y061652
X037975Y061652
X034975Y058652
X037975Y058652
X038975Y058652
X037975Y057652
X038975Y057652
X036975Y057652
X038975Y054652
X037975Y054652
X036975Y054652
X034975Y054652
X035975Y054652
X036975Y048652
X037975Y048652
X038975Y048652
X034975Y048652
X035975Y048652
X036975Y046652
X037975Y046652
X038975Y046652
X038975Y044652
X034475Y044652
X037475Y044652
X036475Y044652
X038975Y041652
X038975Y040152
X037975Y035402
X037975Y033652
X035975Y033652
X035975Y032652
X037975Y032652
X037975Y031652
X035975Y031652
X037975Y030652
X035975Y030652
X035975Y029652
X037975Y029652
X037975Y028652
X035975Y028652
X035975Y027652
X037975Y027652
X035975Y026652
X037975Y026652
X037975Y025652
X035975Y025652
X035975Y024652
X037975Y024652
X040975Y024652
X040975Y025652
X040975Y026652
X040975Y027652
X040975Y028652
X040975Y029652
X040975Y030652
X040975Y031652
X040975Y032652
X040975Y033652
X040975Y035402
X039975Y035402
X040975Y038652
X039975Y041652
X040975Y041652
X040975Y044652
X039975Y044652
X039975Y046652
X040975Y046652
X039975Y048652
X040975Y048652
X039975Y054652
X040975Y054652
X040975Y057652
X039975Y057652
X040975Y058652
X039975Y058652
X040975Y061652
X039975Y061652
X039975Y062652
X040975Y062652
X040975Y064152
X039975Y064152
X039975Y067152
X040975Y067152
X043975Y067152
X042975Y067152
X041975Y067152
X041975Y064152
X042975Y064152
X043975Y064152
X041975Y062652
X042975Y062652
X043975Y061652
X042975Y061652
X041975Y061652
X041975Y058652
X042975Y058652
X043975Y058652
X041975Y057652
X043975Y054652
X042975Y054652
X041975Y054652
X041975Y048652
X042975Y048652
X043975Y048652
X041975Y046652
X042975Y046652
X043975Y046652
X041975Y044652
X043975Y044652
X042975Y044652
X041975Y041652
X042975Y041652
X043975Y041652
X043975Y040152
X041975Y038652
X043975Y038652
X042975Y031652
X042975Y030652
X042975Y029652
X042975Y028652
X042975Y027652
X042975Y026652
X042975Y025652
X042975Y023652
X045975Y023652
X044975Y023652
X045975Y025652
X045975Y026652
X045975Y027652
X045975Y028652
X045975Y029652
X045975Y030652
X045975Y031652
X046475Y040152
X047475Y040152
X048475Y040152
X044975Y041652
X047475Y041652
X048475Y041652
X044975Y044652
X048475Y044652
X047475Y044652
X048475Y046652
X044975Y046652
X046725Y048652
X044975Y048652
X048475Y049652
X046725Y050652
X048475Y051652
X046725Y051652
X044975Y054652
X048475Y054652
X050975Y067152
X050975Y064152
X050975Y062652
X050975Y061652
X050975Y058652
X050975Y057652
X049975Y057652
X051475Y054652
X050475Y054652
X049475Y054652
X051475Y051652
X050475Y051652
X049475Y051652
X050475Y049652
X051475Y049652
X049475Y049652
X050475Y046652
X049475Y046652
X051475Y046652
X049475Y044652
X051475Y044652
X050475Y044652
X051475Y041652
X049475Y041652
X050475Y041652
X049475Y040152
X053475Y011902
X053475Y013652
X053475Y014652
X053475Y015652
X053475Y016652
X053475Y017652
X053475Y018652
X053475Y019652
X053475Y020652
X053475Y021652
X053475Y022652
X053475Y023652
X053475Y024652
X053475Y025652
X053475Y026652
X052475Y041652
X053475Y041652
X053475Y044652
X052475Y044652
X052475Y046652
X053475Y046652
X052475Y049652
X053475Y049652
X052475Y051652
X053475Y051652
X052475Y054652
X053475Y054652
X051975Y057652
X051975Y058652
X052975Y058652
X053975Y058652
X053975Y061652
X052975Y061652
X051975Y061652
X051975Y062652
X052975Y062652
X053975Y062652
X053975Y064152
X051975Y064152
X052975Y064152
X052975Y067152
X051975Y067152
X053975Y067152
X055975Y067152
X054975Y067152
X056975Y067152
X054975Y064152
X055975Y064152
X056975Y064152
X058975Y063152
X054975Y062652
X055975Y062652
X055975Y061652
X054975Y061652
X056975Y061652
X055975Y058652
X056975Y058652
X054975Y058652
X058975Y054652
X057975Y054652
X056975Y054652
X054475Y054652
X056975Y051652
X057975Y051652
X058975Y051652
X054475Y051652
X058975Y049652
X057975Y049652
X056975Y049652
X054475Y049652
X056975Y046652
X057975Y046652
X058975Y046652
X054475Y046652
X057975Y044652
X056975Y044652
X054475Y044652
X058975Y044652
X056975Y041652
X057975Y041652
X058975Y041652
X054475Y041652
X054475Y040152
X058975Y038652
X057975Y038652
X056975Y038652
X057975Y035652
X056975Y035652
X058975Y035652
X056975Y033652
X057975Y033652
X058975Y033652
X056975Y030652
X057975Y030652
X058975Y030652
X055475Y011902
X056475Y011902
X061475Y011902
X061475Y013652
X059475Y013652
X061475Y014652
X059475Y014652
X059475Y015652
X061475Y015652
X059475Y016652
X061475Y016652
X059475Y017652
X061475Y017652
X061475Y018652
X059475Y018652
X061475Y019652
X059475Y019652
X059475Y020652
X061475Y020652
X061475Y021652
X059475Y021652
X061475Y022652
X059475Y022652
X059475Y023652
X061475Y023652
X059475Y024652
X061475Y024652
X059475Y025652
X061475Y025652
X059475Y026652
X061475Y026652
X059975Y030652
X060975Y030652
X060975Y033652
X059975Y033652
X060975Y035652
X059975Y035652
X059975Y038652
X060975Y038652
X059975Y040152
X060975Y040152
X059975Y041652
X060975Y041652
X060975Y044652
X059975Y044652
X060975Y046652
X059975Y046652
X059975Y049652
X060975Y049652
X060975Y051652
X059975Y051652
X059975Y054652
X060975Y054652
X059975Y058652
X060975Y058652
X059975Y061652
X060975Y061652
X063975Y068652
X063975Y066152
X062975Y063152
X062975Y061652
X061975Y061652
X061975Y058652
X062975Y058652
X062975Y054652
X061975Y054652
X061975Y051652
X062975Y051652
X062975Y049652
X061975Y049652
X061975Y046652
X062975Y046652
X062975Y044652
X061975Y044652
X061975Y041652
X062975Y041652
X062975Y040152
X062975Y038652
X061975Y038652
X061975Y035652
X062975Y035652
X063975Y033652
X061975Y033652
X062975Y033652
X061975Y030652
X062975Y030652
X063975Y030652
X062975Y029152
X063975Y029152
X063475Y011902
X064475Y011902
X067475Y013652
X067475Y014652
X067475Y015652
X067475Y016652
X067475Y017652
X067475Y018652
X067475Y019652
X067475Y020652
X067475Y021652
X067475Y022652
X067475Y023652
X067475Y024652
X067475Y025652
X067475Y026652
X065975Y029152
X065975Y030652
X064975Y030652
X068975Y030652
X065975Y033652
X064975Y033652
X068975Y033652
X065225Y035402
X066475Y035652
X067475Y035652
X065225Y037402
X065225Y038402
X066475Y040652
X067475Y040652
X066475Y041652
X067475Y041652
X068475Y041652
X065475Y041652
X066475Y044652
X065475Y044652
X068475Y044652
X067475Y044652
X068975Y046652
X066975Y046652
X067975Y046652
X065975Y046652
X066975Y052652
X067975Y052652
X065975Y052652
X068975Y052652
X066975Y058652
X067975Y058652
X068975Y058652
X064975Y058652
X069413Y063626
X064975Y063652
X065975Y065152
X068725Y065402
X067725Y065402
X065975Y067652
X070725Y065402
X069975Y058652
X070975Y058652
X070975Y052652
X069975Y052652
X069975Y046652
X070975Y046652
X071475Y044652
X070475Y044652
X069475Y044652
X071475Y041652
X069475Y041652
X070475Y041652
X070975Y038652
X069975Y038652
X070975Y035652
X069975Y035652
X069975Y033652
X070975Y033652
X069975Y030652
X070975Y030652
X069475Y026652
X069475Y025652
X069475Y024652
X069475Y023652
X069475Y022652
X069475Y021652
X069475Y020652
X069475Y019652
X069475Y018652
X069475Y017652
X069475Y016652
X069475Y015652
X069475Y014652
X069475Y013652
X071475Y011902
X069475Y011902
X072475Y011902
X073975Y030652
X071975Y030652
X072975Y030652
X073975Y033652
X072975Y033652
X071975Y033652
X071975Y035652
X072975Y035652
X073975Y035652
X073975Y038652
X072975Y038652
X071975Y038652
X073975Y041652
X073975Y044652
X072975Y046652
X073975Y046652
X071975Y046652
X071975Y052652
X072975Y052652
X073975Y052652
X073975Y055652
X071975Y055652
X073975Y058652
X071975Y058652
X072975Y058652
X074413Y063626
X074975Y058652
X074975Y055652
X074975Y052652
X075975Y052652
X074975Y046652
X075975Y046652
X075975Y044652
X074975Y044652
X074975Y041652
X075975Y041652
X075975Y038652
X074975Y038652
X074975Y035652
X075975Y035652
X074975Y033652
X075975Y033652
X074975Y030652
X075975Y030652
X074975Y029152
X075975Y029152
X075475Y026652
X075475Y025652
X075475Y024652
X075475Y023652
X075475Y022652
X075475Y021652
X075475Y020652
X075475Y019652
X075475Y018652
X075475Y017652
X075475Y016652
X075475Y015652
X075475Y014652
X075475Y013652
X077475Y011902
X077475Y013652
X077475Y014652
X077475Y015652
X077475Y016652
X077475Y017652
X077475Y018652
X077475Y019652
X077475Y020652
X077475Y021652
X077475Y022652
X077475Y023652
X077475Y024652
X077475Y025652
X077475Y026652
X077975Y029152
X077975Y030652
X076975Y030652
X077975Y033652
X076975Y033652
X076975Y035652
X076975Y038652
X077975Y041652
X076975Y041652
X078975Y041652
X078975Y044652
X076975Y044652
X077975Y044652
X077975Y046652
X076975Y046652
X078975Y046652
X078975Y052652
X077975Y052652
X076975Y052652
X076975Y055652
X076975Y056652
X076975Y057652
X076975Y058652
X076975Y059652
X076975Y060652
X076975Y061652
X079975Y061652
X082975Y061652
X079975Y060652
X082975Y060652
X079975Y059652
X081475Y059652
X082975Y059652
X079975Y058652
X081475Y058652
X082975Y058652
X079975Y057652
X081475Y057652
X082975Y057652
X081475Y056652
X079975Y056652
X082975Y056652
X081475Y055652
X082975Y055652
X079975Y055652
X080975Y052652
X079975Y052652
X083975Y052652
X082975Y052652
X081975Y052652
X080975Y046652
X081975Y046652
X082975Y046652
X083975Y046652
X079975Y046652
X081975Y044902
X082975Y044902
X079975Y044652
X079975Y041652
X081975Y039652
X082975Y039652
X080475Y036652
X082475Y036652
X081475Y036652
X083475Y036652
X081475Y030652
X083475Y030652
X082475Y030652
X080475Y030652
X083475Y026652
X083475Y025652
X083475Y024652
X083475Y023652
X083475Y022652
X083475Y021652
X083475Y020652
X083475Y019652
X083475Y018652
X083475Y017652
X083475Y016652
X083475Y015652
X083475Y014652
X083475Y013652
X079475Y011902
X080475Y011902
X085475Y011902
X085475Y013652
X085475Y014652
X085475Y015652
X085475Y016652
X085475Y017652
X085475Y018652
X085475Y019652
X085475Y020652
X085475Y021652
X085475Y022652
X085475Y023652
X085475Y024652
X085475Y025652
X085475Y026652
X086475Y030652
X085475Y030652
X084475Y030652
X084475Y036652
X086475Y036652
X085475Y036652
X084975Y039652
X084975Y044902
X084975Y046652
X084975Y052652
X085975Y055652
X085975Y056652
X085975Y057652
X085975Y058652
X085975Y059652
X085975Y060652
X085975Y061652
X087475Y061652
X087475Y060652
X087475Y059652
X087475Y058652
X087475Y057652
X087475Y056652
X087475Y055652
X087475Y053902
X087475Y050652
X087475Y049652
X087475Y048652
X087475Y047652
X087475Y046652
X087475Y045652
X087475Y044652
X087475Y043652
X087475Y042652
X087475Y041652
X087475Y040652
X087475Y039652
X087475Y036652
X088475Y036652
X088475Y030652
X087475Y030652
X088475Y028652
X088475Y011902
X087475Y011902
X091475Y013652
X091475Y014652
X091475Y015652
X091475Y016652
X091475Y017652
X091475Y018652
X091475Y019652
X091475Y020652
X091475Y021652
X091475Y022652
X091475Y023652
X091475Y024652
X091475Y025652
X091475Y026652
X089475Y028652
X090475Y028652
X091475Y028652
X090475Y030652
X091475Y030652
X089475Y030652
X091475Y036652
X089475Y036652
X090475Y036652
X089475Y053902
X090475Y053902
X090475Y055652
X090475Y056652
X090475Y057652
X090475Y058652
X090475Y059652
X090475Y060652
X090475Y061652
X091975Y061652
X091975Y060652
X091975Y059652
X091975Y058652
X091975Y057652
X091975Y056652
X091975Y055652
X093475Y050652
X093475Y049652
X093475Y048652
X093475Y047652
X093475Y046652
X093475Y045652
X093475Y044652
X093475Y043652
X093475Y042652
X093475Y041652
X093475Y040652
X093475Y039652
X093475Y036652
X092475Y036652
X092475Y030652
X093475Y030652
X093475Y028652
X092475Y028652
X093475Y026652
X093475Y025652
X093475Y024652
X093475Y023652
X093475Y022652
X093475Y021652
X093475Y020652
X093475Y019652
X093475Y018652
X093475Y017652
X093475Y016652
X093475Y015652
X093475Y014652
X093475Y013652
X093475Y011902
X096475Y011902
X095475Y011902
X096475Y028652
X094475Y028652
X095475Y028652
X096475Y030652
X094475Y030652
X095475Y030652
X096475Y036652
X095475Y036652
X094475Y036652
X096475Y055652
X094975Y055652
X096475Y056652
X094975Y056652
X096475Y057652
X094975Y057652
X094975Y058652
X096475Y058652
X096475Y059652
X094975Y059652
X094975Y060652
X096475Y060652
X094975Y061652
X096475Y061652
X099475Y066652
X099475Y064652
X099475Y063652
X099475Y061652
X099475Y060652
X099475Y059652
X099475Y058652
X099475Y057652
X099475Y056652
X099475Y055652
X096975Y042152
X098975Y042152
X100225Y041152
X096975Y040652
X098975Y040652
X100225Y040152
X098975Y039652
X096975Y039652
X096975Y038652
X098975Y038652
X100225Y038152
X099475Y036652
X097475Y036652
X098475Y036652
X098475Y030652
X097475Y030652
X099475Y030652
X099475Y026652
X099475Y025652
X099475Y024652
X099475Y023652
X099475Y022652
X099475Y021652
X099475Y020652
X099475Y019652
X099475Y018652
X099475Y017652
X099475Y016652
X099475Y015652
X099475Y014652
X099475Y013652
T3C.0374F197S55
X011975Y017152
X018975Y065902
X019975Y065902
X021475Y065902
X019975Y066902
X018975Y066902
X021475Y066902
X022475Y066902
X022475Y065902
X048475Y036902
X048475Y035902
X049475Y035902
X050975Y035902
X051975Y035902
X053475Y035902
X054475Y035902
X053475Y036902
X049475Y036902
X054475Y036902
X096475Y052402
X096475Y051402
X097475Y051402
X097475Y052402
T4C.03937F197S55
X014225Y012152
X015225Y012152
X016225Y012152
X014225Y014152
X015225Y014152
X016225Y014152
X015225Y019652
X015225Y028652
X015225Y029652
X013975Y031652
X016725Y044152
X016725Y045152
X016725Y046152
X016725Y047152
X016725Y048152
X016725Y049152
X016725Y050152
X016725Y051152
X016725Y052152
X016725Y053152
X016725Y054152
X016725Y055152
X016725Y056152
X016725Y057152
X016725Y058152
X016725Y059152
X016725Y060152
X016725Y061152
X017725Y061152
X017725Y060152
X017725Y059152
X017725Y058152
X017725Y057152
X017725Y056152
X017725Y055152
X017725Y054152
X017725Y053152
X017725Y052152
X017725Y051152
X017725Y050152
X017725Y049152
X017725Y048152
X017725Y047152
X017725Y046152
X017725Y045152
X017725Y044152
X018725Y029652
X018725Y020652
X018725Y019652
X017225Y014152
X018225Y014152
X019225Y014152
X017225Y012152
X018225Y012152
X019225Y012152
X020225Y012152
X021225Y012152
X022225Y012152
X023225Y012152
X024225Y012152
X020225Y014152
X021225Y014152
X022225Y014152
X023225Y014152
X024225Y014152
X022725Y020152
X023725Y020152
X021725Y020152
X022725Y021152
X023725Y021152
X021725Y021152
X020975Y031652
X023725Y069152
X022725Y069152
X023725Y070152
X022725Y070152
X023725Y071152
X022725Y071152
X024725Y071152
X025725Y071152
X026725Y071152
X027725Y071152
X028725Y071152
X024725Y070152
X025725Y070152
X026725Y070152
X027725Y070152
X028725Y070152
X024725Y069152
X027725Y069152
X028725Y069152
X025725Y069152
X026725Y069152
X024725Y021152
X025725Y021152
X026725Y021152
X027725Y021152
X028725Y021152
X026725Y020152
X024725Y020152
X027725Y020152
X028725Y020152
X025725Y020152
X025225Y014152
X026225Y014152
X027225Y014152
X028225Y014152
X029225Y014152
X028225Y012152
X029225Y012152
X026225Y012152
X025225Y012152
X027225Y012152
X030225Y012152
X031225Y012152
X032225Y012152
X033225Y012152
X034225Y012152
X030225Y014152
X031225Y014152
X032225Y014152
X033225Y014152
X034225Y014152
X031725Y020152
X032725Y020152
X033725Y020152
X029725Y020152
X030725Y020152
X029725Y021152
X032725Y021152
X033725Y021152
X030725Y021152
X031725Y021152
X032725Y069152
X030725Y069152
X033725Y069152
X031725Y069152
X029725Y069152
X030725Y070152
X031725Y070152
X032725Y070152
X033725Y070152
X029725Y070152
X032725Y071152
X030725Y071152
X033725Y071152
X031725Y071152
X029725Y071152
X036725Y071152
X034725Y071152
X035725Y071152
X037725Y071152
X038725Y071152
X035725Y070152
X034725Y070152
X037725Y070152
X038725Y070152
X036725Y070152
X035725Y069152
X036725Y069152
X037725Y069152
X038725Y069152
X034725Y069152
X038725Y021152
X034725Y021152
X036725Y021152
X035725Y021152
X037725Y021152
X036725Y020152
X034725Y020152
X037725Y020152
X038725Y020152
X035725Y020152
X035225Y014152
X036225Y014152
X037225Y014152
X038225Y014152
X039225Y014152
X035225Y012152
X037225Y012152
X038225Y012152
X039225Y012152
X036225Y012152
X040225Y012152
X041225Y012152
X042225Y012152
X043225Y012152
X044225Y012152
X040225Y014152
X041225Y014152
X042225Y014152
X043225Y014152
X044225Y014152
X041725Y069152
X043725Y069152
X039725Y069152
X040725Y069152
X042725Y069152
X040725Y070152
X039725Y070152
X042725Y070152
X043725Y070152
X041725Y070152
X043725Y071152
X042725Y071152
X039725Y071152
X040725Y071152
X041725Y071152
X046725Y071152
X045725Y071152
X044725Y071152
X047725Y071152
X048725Y071152
X044725Y070152
X045725Y070152
X046725Y070152
X047725Y070152
X048725Y070152
X044725Y069152
X047725Y069152
X045725Y069152
X046725Y069152
X048725Y069152
X045225Y014152
X045225Y012152
X051725Y069152
X049725Y069152
X050725Y069152
X053725Y069152
X052725Y069152
X050725Y070152
X051725Y070152
X053725Y070152
X052725Y070152
X049725Y070152
X049725Y071152
X051725Y071152
X052725Y071152
X053725Y071152
X050725Y071152
X058975Y071152
X061975Y071152
X058975Y066152
X061975Y066152
X058975Y064152
X061975Y064152
X066725Y061152
X068725Y061152
X070725Y061152
X072725Y061152
X068725Y067152
X067725Y067152
X069725Y067152
X070725Y067152
X071725Y067152
X072725Y067152
X073725Y067152
X071725Y070152
X070725Y070152
X073725Y070152
X072725Y070152
X068725Y070152
X067725Y070152
X069725Y070152
X075225Y070902
X079225Y068902
X077225Y067902
X078225Y067902
X076225Y067902
X077225Y066902
X076225Y066902
X078225Y066902
X077725Y064652
X078725Y064652
X076725Y064652
X079725Y064652
X081725Y064652
X080725Y064652
X074725Y061152
X082725Y064652
X083725Y064652
X084725Y064652
X086725Y064652
X085725Y064652
X088725Y064652
X087725Y064652
X084225Y066902
X085225Y066902
X086225Y066902
X085225Y067902
X084225Y067902
X086225Y067902
X087225Y068902
X083225Y070902
X089725Y064652
X090725Y064652
X097975Y049152
X095475Y045402
X100475Y045402
T5C.04724F139S55
X076225Y070902
X084225Y070902
X078225Y068902
X086225Y068902
T6C.05118F107S55
X014725Y035152
X019725Y035152
T7C.11024F069S658
X012225Y011152
X020725Y072152
X055725Y072152
X064725Y071652
X047225Y011152
X099725Y071652
X094225Y071902
T8C.11024F069S658
X012213Y071626
T9C.11811F069S658
X041225Y019652
X016725Y039152
X035725Y040652
X047725Y061152
M30
