*
*
G04 PADS Layout (Build Number 2007.42.1) generated Gerber (RS-274-X) file*
G04 PC Version=2.1*
*
%IN "755045-518e_v23.pcb"*%
*
%MOIN*%
*
%FSLAX35Y35*%
*
*
*
*
G04 PC Standard Apertures*
*
*
G04 Thermal Relief Aperture macro.*
%AMTER*
1,1,$1,0,0*
1,0,$1-$2,0,0*
21,0,$3,$4,0,0,45*
21,0,$3,$4,0,0,135*
%
*
*
G04 Annular Aperture macro.*
%AMANN*
1,1,$1,0,0*
1,0,$2,0,0*
%
*
*
G04 Odd Aperture macro.*
%AMODD*
1,1,$1,0,0*
1,0,$1-0.005,0,0*
%
*
*
G04 PC Custom Aperture Macros*
*
*
*
*
*
*
G04 PC Aperture Table*
*
%ADD016C,0.06299*%
%ADD037C,0.06496*%
%ADD039C,0.06693*%
%ADD040C,0.05906*%
%ADD043C,0.05118*%
%ADD044C,0.07874*%
%ADD045C,0.12205*%
%ADD046C,0.11417*%
%ADD060C,0.08268*%
%ADD061R,0.24016X0.24016*%
*
*
*
*
G04 PC Copper Outlines (0)*
G04 Layer Name 755045-518e_v23.pcb - dark (0)*
%LPD*%
*
*
G04 PC Area=Custom_Thermal*
*
G04 PC Custom Flashes*
G04 Layer Name 755045-518e_v23.pcb - flashes*
%LPD*%
*
*
G04 PC Circuitry*
G04 Layer Name 755045-518e_v23.pcb - circuitry*
%LPD*%
*
G54D16*
G01X589752Y631520D03*
X629752D03*
G54D37*
X509752Y359020D03*
X519752D03*
X189752Y659020D03*
X199752D03*
X189752Y669020D03*
X199752D03*
X214752Y659020D03*
X224752D03*
X214752Y669020D03*
X224752D03*
X964752Y514020D03*
X974752D03*
X964752Y524020D03*
X974752D03*
X484752Y359020D03*
X494752D03*
X484752Y369020D03*
X494752D03*
X534752Y359020D03*
X544752D03*
X534752Y369020D03*
X544752D03*
G54D39*
X227252Y691520D03*
X237252D03*
X247252D03*
X257252D03*
X267252D03*
X277252D03*
X287252D03*
X297252D03*
X307252D03*
X317252D03*
X327252D03*
X337252D03*
X347252D03*
X357252D03*
X367252D03*
X377252D03*
X387252D03*
X397252D03*
X407252D03*
X417252D03*
X427252D03*
X437252D03*
X447252D03*
X457252D03*
X467252D03*
X477252D03*
X487252D03*
X497252D03*
X507252D03*
X517252D03*
X527252D03*
X537252D03*
X227252Y701520D03*
X237252D03*
X247252D03*
X257252D03*
X267252D03*
X277252D03*
X287252D03*
X297252D03*
X307252D03*
X317252D03*
X327252D03*
X337252D03*
X347252D03*
X357252D03*
X367252D03*
X377252D03*
X387252D03*
X397252D03*
X407252D03*
X417252D03*
X427252D03*
X437252D03*
X447252D03*
X457252D03*
X467252D03*
X477252D03*
X487252D03*
X497252D03*
X507252D03*
X517252D03*
X527252D03*
X537252D03*
X227252Y711520D03*
X237252D03*
X247252D03*
X257252D03*
X267252D03*
X277252D03*
X287252D03*
X297252D03*
X307252D03*
X317252D03*
X327252D03*
X337252D03*
X347252D03*
X357252D03*
X367252D03*
X377252D03*
X387252D03*
X397252D03*
X407252D03*
X417252D03*
X427252D03*
X437252D03*
X447252D03*
X457252D03*
X467252D03*
X477252D03*
X487252D03*
X497252D03*
X507252D03*
X517252D03*
X527252D03*
X537252D03*
X177252Y441520D03*
Y451520D03*
Y461520D03*
Y471520D03*
Y481520D03*
Y491520D03*
Y501520D03*
Y511520D03*
Y521520D03*
Y531520D03*
Y541520D03*
Y551520D03*
Y561520D03*
Y571520D03*
Y581520D03*
Y591520D03*
Y601520D03*
Y611520D03*
X167252Y441520D03*
Y451520D03*
Y461520D03*
Y471520D03*
Y481520D03*
Y491520D03*
Y501520D03*
Y511520D03*
Y521520D03*
Y531520D03*
Y541520D03*
Y551520D03*
Y561520D03*
Y571520D03*
Y581520D03*
Y591520D03*
Y601520D03*
Y611520D03*
X217252Y201520D03*
X227252D03*
X237252D03*
X247252D03*
X257252D03*
X267252D03*
X277252D03*
X287252D03*
X297252D03*
X307252D03*
X317252D03*
X327252D03*
X337252D03*
X347252D03*
X357252D03*
X367252D03*
X377252D03*
X387252D03*
X217252Y211520D03*
X227252D03*
X237252D03*
X247252D03*
X257252D03*
X267252D03*
X277252D03*
X287252D03*
X297252D03*
X307252D03*
X317252D03*
X327252D03*
X337252D03*
X347252D03*
X357252D03*
X367252D03*
X377252D03*
X387252D03*
X677252Y671520D03*
X687252D03*
X697252D03*
X707252D03*
X717252D03*
X727252D03*
X737252D03*
Y701520D03*
X727252D03*
X717252D03*
X707252D03*
X697252D03*
X687252D03*
X677252D03*
X272252Y616520D03*
Y606520D03*
Y586520D03*
X767252Y646520D03*
X777252D03*
X787252D03*
X797252D03*
X807252D03*
X817252D03*
X827252D03*
X837252D03*
X847252D03*
X857252D03*
X867252D03*
X877252D03*
X887252D03*
X897252D03*
X907252D03*
X762252Y669020D03*
X772252D03*
X782252D03*
X762252Y679020D03*
X772252D03*
X782252D03*
X752252Y709020D03*
X792252Y689020D03*
X842252Y669020D03*
X852252D03*
X862252D03*
X842252Y679020D03*
X852252D03*
X862252D03*
X832252Y709020D03*
X872252Y689020D03*
X964752Y119020D03*
X954752D03*
X934752D03*
X884752D03*
X874752D03*
X854752D03*
X804752D03*
X794752D03*
X774752D03*
X724752D03*
X714752D03*
X694752D03*
X564752D03*
X554752D03*
X534752D03*
X644752D03*
X634752D03*
X614752D03*
X152252Y296520D03*
Y286520D03*
Y196520D03*
X187252D03*
Y206520D03*
Y296520D03*
X819752Y449020D03*
X829752D03*
X849752D03*
X819752Y396520D03*
X829752D03*
X849752D03*
X994752Y636520D03*
Y646520D03*
Y666520D03*
X677252Y654020D03*
X687252D03*
X707252D03*
X749752Y556520D03*
X739752D03*
X719752D03*
X459752Y236520D03*
X449752D03*
X429752D03*
X589752Y641520D03*
X619752D03*
X589752Y661520D03*
X619752D03*
Y711520D03*
X589752D03*
X904752Y539020D03*
X894752D03*
X874752D03*
X629752Y291520D03*
X639752D03*
X659752D03*
X749752D03*
X759752D03*
X779752D03*
X652252Y384020D03*
Y374020D03*
Y354020D03*
X599752Y401520D03*
X609752D03*
X629752D03*
X409752Y386520D03*
X419752D03*
X439752D03*
X374752Y446520D03*
X364752D03*
X344752D03*
X467252Y516520D03*
Y506520D03*
Y486520D03*
X409752Y354020D03*
X399752D03*
X379752D03*
X214752Y276520D03*
Y266520D03*
Y246520D03*
X1002252Y411520D03*
Y401520D03*
Y381520D03*
X209752Y376520D03*
X219752D03*
X239752D03*
X667252Y611520D03*
X687252D03*
X707252D03*
X727252D03*
X747252D03*
X954752Y454020D03*
X979752Y491520D03*
X1004752Y454020D03*
X139752Y316520D03*
X209752D03*
X142252Y121520D03*
X152252D03*
X162252D03*
X172252D03*
X182252D03*
X192252D03*
X202252D03*
X212252D03*
X222252D03*
X232252D03*
X242252D03*
X252252D03*
X262252D03*
X272252D03*
X282252D03*
X292252D03*
X302252D03*
X312252D03*
X322252D03*
X332252D03*
X342252D03*
X352252D03*
X362252D03*
X372252D03*
X382252D03*
X392252D03*
X402252D03*
X412252D03*
X422252D03*
X432252D03*
X442252D03*
X452252D03*
X142252Y141520D03*
X152252D03*
X162252D03*
X172252D03*
X182252D03*
X192252D03*
X202252D03*
X212252D03*
X222252D03*
X232252D03*
X242252D03*
X252252D03*
X262252D03*
X272252D03*
X282252D03*
X292252D03*
X302252D03*
X312252D03*
X322252D03*
X332252D03*
X342252D03*
X352252D03*
X362252D03*
X372252D03*
X382252D03*
X392252D03*
X402252D03*
X412252D03*
X422252D03*
X432252D03*
X442252D03*
X452252D03*
X122252Y111520D03*
X472252D03*
G54D40*
X664752Y356520D03*
Y406520D03*
X674752Y356520D03*
Y406520D03*
X259752Y486520D03*
X269752D03*
X279752D03*
X289752D03*
X299752D03*
X309752D03*
X319752D03*
X329752D03*
X339752D03*
X349752D03*
X359752D03*
X369752D03*
X379752D03*
X389752D03*
X399752D03*
X409752D03*
X419752D03*
X429752D03*
X439752D03*
X449752D03*
Y546520D03*
X439752D03*
X429752D03*
X419752D03*
X409752D03*
X399752D03*
X389752D03*
X379752D03*
X369752D03*
X359752D03*
X349752D03*
X339752D03*
X329752D03*
X319752D03*
X309752D03*
X299752D03*
X289752D03*
X279752D03*
X269752D03*
X259752D03*
X594752Y136520D03*
Y146520D03*
Y156520D03*
Y166520D03*
Y176520D03*
Y186520D03*
Y196520D03*
Y206520D03*
Y216520D03*
Y226520D03*
Y236520D03*
Y246520D03*
Y256520D03*
Y266520D03*
X534752D03*
Y256520D03*
Y246520D03*
Y236520D03*
Y226520D03*
Y216520D03*
Y206520D03*
Y196520D03*
Y186520D03*
Y176520D03*
Y166520D03*
Y156520D03*
Y146520D03*
Y136520D03*
X674752D03*
Y146520D03*
Y156520D03*
Y166520D03*
Y176520D03*
Y186520D03*
Y196520D03*
Y206520D03*
Y216520D03*
Y226520D03*
Y236520D03*
Y246520D03*
Y256520D03*
Y266520D03*
X614752D03*
Y256520D03*
Y246520D03*
Y236520D03*
Y226520D03*
Y216520D03*
Y206520D03*
Y196520D03*
Y186520D03*
Y176520D03*
Y166520D03*
Y156520D03*
Y146520D03*
Y136520D03*
X754752D03*
Y146520D03*
Y156520D03*
Y166520D03*
Y176520D03*
Y186520D03*
Y196520D03*
Y206520D03*
Y216520D03*
Y226520D03*
Y236520D03*
Y246520D03*
Y256520D03*
Y266520D03*
X694752D03*
Y256520D03*
Y246520D03*
Y236520D03*
Y226520D03*
Y216520D03*
Y206520D03*
Y196520D03*
Y186520D03*
Y176520D03*
Y166520D03*
Y156520D03*
Y146520D03*
Y136520D03*
X834752D03*
Y146520D03*
Y156520D03*
Y166520D03*
Y176520D03*
Y186520D03*
Y196520D03*
Y206520D03*
Y216520D03*
Y226520D03*
Y236520D03*
Y246520D03*
Y256520D03*
Y266520D03*
X774752D03*
Y256520D03*
Y246520D03*
Y236520D03*
Y226520D03*
Y216520D03*
Y206520D03*
Y196520D03*
Y186520D03*
Y176520D03*
Y166520D03*
Y156520D03*
Y146520D03*
Y136520D03*
X914752D03*
Y146520D03*
Y156520D03*
Y166520D03*
Y176520D03*
Y186520D03*
Y196520D03*
Y206520D03*
Y216520D03*
Y226520D03*
Y236520D03*
Y246520D03*
Y256520D03*
Y266520D03*
X854752D03*
Y256520D03*
Y246520D03*
Y236520D03*
Y226520D03*
Y216520D03*
Y206520D03*
Y196520D03*
Y186520D03*
Y176520D03*
Y166520D03*
Y156520D03*
Y146520D03*
Y136520D03*
X994752D03*
Y146520D03*
Y156520D03*
Y166520D03*
Y176520D03*
Y186520D03*
Y196520D03*
Y206520D03*
Y216520D03*
Y226520D03*
Y236520D03*
Y246520D03*
Y256520D03*
Y266520D03*
X934752D03*
Y256520D03*
Y246520D03*
Y236520D03*
Y226520D03*
Y216520D03*
Y206520D03*
Y196520D03*
Y186520D03*
Y176520D03*
Y166520D03*
Y156520D03*
Y146520D03*
Y136520D03*
X409752Y246520D03*
Y256520D03*
Y266520D03*
Y276520D03*
Y286520D03*
Y296520D03*
Y306520D03*
Y316520D03*
Y326520D03*
Y336520D03*
X379752D03*
Y326520D03*
Y316520D03*
Y306520D03*
Y296520D03*
Y286520D03*
Y276520D03*
Y266520D03*
Y256520D03*
Y246520D03*
X359752D03*
Y256520D03*
Y266520D03*
Y276520D03*
Y286520D03*
Y296520D03*
Y306520D03*
Y316520D03*
Y326520D03*
Y336520D03*
X329752D03*
Y326520D03*
Y316520D03*
Y306520D03*
Y296520D03*
Y286520D03*
Y276520D03*
Y266520D03*
Y256520D03*
Y246520D03*
X309752D03*
Y256520D03*
Y266520D03*
Y276520D03*
Y286520D03*
Y296520D03*
Y306520D03*
Y316520D03*
Y326520D03*
Y336520D03*
X279752D03*
Y326520D03*
Y316520D03*
Y306520D03*
Y296520D03*
Y286520D03*
Y276520D03*
Y266520D03*
Y256520D03*
Y246520D03*
X259752D03*
Y256520D03*
Y266520D03*
Y276520D03*
Y286520D03*
Y296520D03*
Y306520D03*
Y316520D03*
Y326520D03*
Y336520D03*
X229752D03*
Y326520D03*
Y316520D03*
Y306520D03*
Y296520D03*
Y286520D03*
Y276520D03*
Y266520D03*
Y256520D03*
Y246520D03*
X459752Y256520D03*
Y266520D03*
Y276520D03*
Y286520D03*
Y296520D03*
Y306520D03*
Y316520D03*
X429752D03*
Y306520D03*
Y296520D03*
Y286520D03*
Y276520D03*
Y266520D03*
Y256520D03*
X569752Y306520D03*
X579752D03*
X589752D03*
X599752D03*
X609752D03*
X619752D03*
X629752D03*
X639752D03*
X649752D03*
X659752D03*
Y336520D03*
X649752D03*
X639752D03*
X629752D03*
X619752D03*
X609752D03*
X599752D03*
X589752D03*
X579752D03*
X569752D03*
Y356520D03*
X579752D03*
X589752D03*
X599752D03*
X609752D03*
X619752D03*
X629752D03*
Y386520D03*
X619752D03*
X609752D03*
X599752D03*
X589752D03*
X579752D03*
X569752D03*
X699752Y356520D03*
X709752D03*
X719752D03*
X729752D03*
X739752D03*
X749752D03*
X759752D03*
X769752D03*
Y386520D03*
X759752D03*
X749752D03*
X739752D03*
X729752D03*
X719752D03*
X709752D03*
X699752D03*
X689752Y306520D03*
X699752D03*
X709752D03*
X719752D03*
X729752D03*
X739752D03*
X749752D03*
X759752D03*
X769752D03*
X779752D03*
Y336520D03*
X769752D03*
X759752D03*
X749752D03*
X739752D03*
X729752D03*
X719752D03*
X709752D03*
X699752D03*
X689752D03*
X804752Y306520D03*
X814752D03*
X824752D03*
X834752D03*
X844752D03*
X854752D03*
X864752D03*
X874752D03*
X884752D03*
X894752D03*
X904752D03*
X914752D03*
X924752D03*
X934752D03*
X944752D03*
X954752D03*
X964752D03*
X974752D03*
X984752D03*
X994752D03*
Y366520D03*
X984752D03*
X974752D03*
X964752D03*
X954752D03*
X944752D03*
X934752D03*
X924752D03*
X914752D03*
X904752D03*
X894752D03*
X884752D03*
X874752D03*
X864752D03*
X854752D03*
X844752D03*
X834752D03*
X824752D03*
X814752D03*
X804752D03*
X739752Y416520D03*
X749752D03*
X759752D03*
X769752D03*
X779752D03*
X789752D03*
X799752D03*
Y446520D03*
X789752D03*
X779752D03*
X769752D03*
X759752D03*
X749752D03*
X739752D03*
X654752Y416520D03*
X664752D03*
X674752D03*
X684752D03*
X694752D03*
X704752D03*
X714752D03*
Y446520D03*
X704752D03*
X694752D03*
X684752D03*
X674752D03*
X664752D03*
X654752D03*
X569752Y416520D03*
X579752D03*
X589752D03*
X599752D03*
X609752D03*
X619752D03*
X629752D03*
Y446520D03*
X619752D03*
X609752D03*
X599752D03*
X589752D03*
X579752D03*
X569752D03*
X389752Y416520D03*
X399752D03*
X409752D03*
X419752D03*
X429752D03*
X439752D03*
X449752D03*
Y446520D03*
X439752D03*
X429752D03*
X419752D03*
X409752D03*
X399752D03*
X389752D03*
X659752Y466520D03*
X669752D03*
X679752D03*
X689752D03*
X699752D03*
X709752D03*
X719752D03*
X729752D03*
X739752D03*
X749752D03*
X759752D03*
X769752D03*
X779752D03*
X789752D03*
X799752D03*
X809752D03*
X819752D03*
X829752D03*
X839752D03*
X849752D03*
Y526520D03*
X839752D03*
X829752D03*
X819752D03*
X809752D03*
X799752D03*
X789752D03*
X779752D03*
X769752D03*
X759752D03*
X749752D03*
X739752D03*
X729752D03*
X719752D03*
X709752D03*
X699752D03*
X689752D03*
X679752D03*
X669752D03*
X659752D03*
X934752Y396520D03*
Y406520D03*
Y416520D03*
Y426520D03*
Y436520D03*
Y446520D03*
Y456520D03*
Y466520D03*
Y476520D03*
Y486520D03*
Y496520D03*
Y506520D03*
X874752D03*
Y496520D03*
Y486520D03*
Y476520D03*
Y466520D03*
Y456520D03*
Y446520D03*
Y436520D03*
Y426520D03*
Y416520D03*
Y406520D03*
Y396520D03*
X254752Y376520D03*
X304752D03*
X254752Y386520D03*
X304752D03*
X254752Y396520D03*
X304752D03*
X254752Y406520D03*
X304752D03*
X254752Y416520D03*
X304752D03*
X254752Y426520D03*
X304752D03*
X254752Y436520D03*
X304752D03*
X254752Y446520D03*
X304752D03*
X254752Y456520D03*
X304752D03*
X239752Y396520D03*
Y406520D03*
Y416520D03*
Y426520D03*
Y436520D03*
Y446520D03*
Y456520D03*
X209752D03*
Y446520D03*
Y436520D03*
Y426520D03*
Y416520D03*
Y406520D03*
Y396520D03*
X239752Y486520D03*
Y496520D03*
Y506520D03*
Y516520D03*
X209752D03*
Y506520D03*
Y496520D03*
Y486520D03*
X289752Y586520D03*
X299752D03*
X309752D03*
X319752D03*
X329752D03*
X339752D03*
X349752D03*
Y616520D03*
X339752D03*
X329752D03*
X319752D03*
X309752D03*
X299752D03*
X289752D03*
X379752Y586520D03*
X389752D03*
X399752D03*
X409752D03*
X419752D03*
X429752D03*
X439752D03*
Y616520D03*
X429752D03*
X419752D03*
X409752D03*
X399752D03*
X389752D03*
X379752D03*
Y641520D03*
X389752D03*
X399752D03*
X409752D03*
X419752D03*
X429752D03*
X439752D03*
Y671520D03*
X429752D03*
X419752D03*
X409752D03*
X399752D03*
X389752D03*
X379752D03*
X289752Y641520D03*
X299752D03*
X309752D03*
X319752D03*
X329752D03*
X339752D03*
X349752D03*
Y671520D03*
X339752D03*
X329752D03*
X319752D03*
X309752D03*
X299752D03*
X289752D03*
X484752Y466520D03*
X494752D03*
X504752D03*
X514752D03*
X524752D03*
X534752D03*
X544752D03*
Y496520D03*
X534752D03*
X524752D03*
X514752D03*
X504752D03*
X494752D03*
X484752D03*
X569752Y466520D03*
X579752D03*
X589752D03*
X599752D03*
X609752D03*
X619752D03*
X629752D03*
Y496520D03*
X619752D03*
X609752D03*
X599752D03*
X589752D03*
X579752D03*
X569752D03*
Y516520D03*
X579752D03*
X589752D03*
X599752D03*
X609752D03*
X619752D03*
X629752D03*
Y546520D03*
X619752D03*
X609752D03*
X599752D03*
X589752D03*
X579752D03*
X569752D03*
X484752Y516520D03*
X494752D03*
X504752D03*
X514752D03*
X524752D03*
X534752D03*
X544752D03*
Y546520D03*
X534752D03*
X524752D03*
X514752D03*
X504752D03*
X494752D03*
X484752D03*
X474752Y416520D03*
X484752D03*
X494752D03*
X504752D03*
X514752D03*
X524752D03*
X534752D03*
X544752D03*
Y446520D03*
X534752D03*
X524752D03*
X514752D03*
X504752D03*
X494752D03*
X484752D03*
X474752D03*
X799752Y556520D03*
Y566520D03*
Y576520D03*
Y586520D03*
Y596520D03*
Y606520D03*
Y616520D03*
X769752D03*
Y606520D03*
Y596520D03*
Y586520D03*
Y576520D03*
Y566520D03*
Y556520D03*
X859752D03*
Y566520D03*
Y576520D03*
Y586520D03*
Y596520D03*
Y606520D03*
Y616520D03*
X829752D03*
Y606520D03*
Y596520D03*
Y586520D03*
Y576520D03*
Y566520D03*
Y556520D03*
X904752D03*
Y566520D03*
Y576520D03*
Y586520D03*
Y596520D03*
Y606520D03*
Y616520D03*
X874752D03*
Y606520D03*
Y596520D03*
Y586520D03*
Y576520D03*
Y566520D03*
Y556520D03*
X949752D03*
Y566520D03*
Y576520D03*
Y586520D03*
Y596520D03*
Y606520D03*
Y616520D03*
X919752D03*
Y606520D03*
Y596520D03*
Y586520D03*
Y576520D03*
Y566520D03*
Y556520D03*
X994752D03*
Y566520D03*
Y576520D03*
Y586520D03*
Y596520D03*
Y606520D03*
Y616520D03*
X964752D03*
Y606520D03*
Y596520D03*
Y586520D03*
Y576520D03*
Y566520D03*
Y556520D03*
X509752Y641520D03*
X519752D03*
X529752D03*
X539752D03*
X549752D03*
X559752D03*
X569752D03*
Y671520D03*
X559752D03*
X549752D03*
X539752D03*
X529752D03*
X519752D03*
X509752D03*
X884752Y286520D03*
X894752D03*
X904752D03*
X914752D03*
X924752D03*
X934752D03*
X944752D03*
X954752D03*
X964752D03*
X369752Y466520D03*
X379752D03*
X389752D03*
X399752D03*
X409752D03*
X419752D03*
X429752D03*
X439752D03*
X449752D03*
X389752Y401520D03*
X439752D03*
X494752D03*
X544752D03*
X599752Y586520D03*
X609752D03*
X619752D03*
X629752D03*
Y616520D03*
X619752D03*
X609752D03*
X599752D03*
X509752Y586520D03*
X519752D03*
X529752D03*
X539752D03*
X549752D03*
X559752D03*
X569752D03*
Y616520D03*
X559752D03*
X549752D03*
X539752D03*
X529752D03*
X519752D03*
X509752D03*
X669752Y586520D03*
X679752D03*
X689752D03*
X699752D03*
X709752D03*
X719752D03*
X729752D03*
X739752D03*
X749752D03*
X649752D03*
Y636520D03*
X659752Y651520D03*
X639752Y661520D03*
X659752Y676520D03*
X639752Y686520D03*
X814752Y556520D03*
Y566520D03*
Y576520D03*
Y586520D03*
Y596520D03*
X969752Y421520D03*
X989752D03*
X474752Y401520D03*
X484752D03*
X464752D03*
X317252Y436520D03*
Y446520D03*
Y426520D03*
X289752Y576520D03*
X299752D03*
X279752D03*
X319752D03*
X329752D03*
X309752D03*
X379752D03*
X389752D03*
X369752D03*
X299752Y626520D03*
X309752D03*
X289752D03*
X329752D03*
X339752D03*
X319752D03*
X409752Y576520D03*
X419752D03*
X399752D03*
X389752Y626520D03*
X399752D03*
X379752D03*
X419752D03*
X429752D03*
X409752D03*
X509752Y576520D03*
X519752D03*
X499752D03*
X519752Y626520D03*
X529752D03*
X509752D03*
X549752D03*
X559752D03*
X539752D03*
X969752Y396520D03*
Y406520D03*
Y386520D03*
X989752Y396520D03*
Y406520D03*
Y386520D03*
X229752Y516520D03*
X219752Y506520D03*
X229752Y496520D03*
X329752Y396520D03*
X319752Y386520D03*
X329752Y376520D03*
X744126Y636260D03*
X694126D03*
G54D43*
X762252Y709020D03*
X782252Y689020D03*
X842252Y709020D03*
X862252Y689020D03*
X162252Y179020D03*
X167252Y174020D03*
X172252Y179020D03*
X177252Y174020D03*
X197252Y186520D03*
X202252Y201520D03*
X219752Y171520D03*
X229752Y181520D03*
Y151520D03*
X237252Y159020D03*
X247252Y161520D03*
X257252Y164020D03*
X237252Y191520D03*
X247252D03*
X257252D03*
X579752Y186520D03*
X559752Y181520D03*
X552252Y161520D03*
X547252Y171520D03*
X554752Y196520D03*
X557252Y206520D03*
X564752Y216520D03*
X574752Y196520D03*
X522252Y189020D03*
Y196520D03*
X517252Y211520D03*
X512252Y206520D03*
X519752Y221520D03*
X499752Y196520D03*
X509752Y174020D03*
X504752Y159020D03*
X497252Y171520D03*
X482252Y186520D03*
X487252Y214020D03*
X499752Y226520D03*
X492252Y231520D03*
Y151520D03*
X472252Y146520D03*
X467252Y136520D03*
X559752Y146520D03*
X587252Y156520D03*
X729752D03*
X759752Y161520D03*
X747252Y136520D03*
X727252Y216520D03*
X737252D03*
X624752Y211520D03*
X639752Y226520D03*
X644752Y231520D03*
X654752Y221520D03*
X629752Y236520D03*
X634752Y241520D03*
X307252Y166520D03*
X347252D03*
X377252Y186520D03*
X269752Y181520D03*
X124752Y231520D03*
X219752Y236520D03*
X249752Y229020D03*
X239752D03*
X194752Y261520D03*
X187252Y231520D03*
X202252Y226520D03*
X199752Y269020D03*
X157252Y216520D03*
X139752Y246520D03*
X232252Y221520D03*
X249752Y261520D03*
X254752Y271520D03*
X234752D03*
X239752Y291520D03*
Y299020D03*
X244752Y311520D03*
X264752Y301520D03*
X274752D03*
X267252Y316520D03*
X247252Y356520D03*
X254752D03*
X214752Y344020D03*
X279752Y366520D03*
X282252Y359020D03*
Y351520D03*
X289752D03*
X302252Y354020D03*
X297252Y331520D03*
X292252Y379020D03*
X294752Y306520D03*
X339752Y331520D03*
Y316520D03*
X334752Y311520D03*
X342252Y304020D03*
X347252Y321520D03*
X339752Y276520D03*
X347252D03*
Y269020D03*
X322252Y261520D03*
X302252Y271520D03*
X397252D03*
X392252Y291520D03*
X394752Y311520D03*
X342252Y221520D03*
X354752D03*
X362252D03*
X327252Y219020D03*
X287252Y224020D03*
X279752Y189020D03*
X334752Y194020D03*
X277252Y131520D03*
X322252D03*
X729752Y321520D03*
X674752Y324020D03*
X684752Y356520D03*
X769752Y319020D03*
X709752Y364020D03*
X729752D03*
X739752Y366520D03*
X749752Y394020D03*
X759752D03*
X744752Y401520D03*
X737252Y399020D03*
X699752D03*
X689752Y396520D03*
X684752Y386520D03*
X642252Y376520D03*
X644752Y391520D03*
X642252Y404020D03*
X644752Y416520D03*
X632252Y431520D03*
X612252Y434020D03*
X622252Y439020D03*
X659752Y441520D03*
X674752Y434020D03*
X684752Y436520D03*
X699752D03*
X654752Y456520D03*
X637252Y466520D03*
X739752Y426520D03*
X722252Y439020D03*
X754752Y426520D03*
X769752Y424020D03*
Y434020D03*
X784752Y436520D03*
X794752D03*
X809752Y446520D03*
X774752Y406520D03*
X784752Y404020D03*
X782252Y394020D03*
X792252Y404020D03*
X777252Y386520D03*
X804752Y394020D03*
X814752Y389020D03*
X827252Y404020D03*
X834752Y409020D03*
X842252Y424020D03*
X839752Y436520D03*
X857252Y431520D03*
X849752Y416520D03*
X864752Y451520D03*
X869752Y461520D03*
X889752Y416520D03*
X899752Y406520D03*
X909752Y421520D03*
X914752Y446520D03*
X924752Y461520D03*
X897252Y471520D03*
X899752Y486520D03*
X892252Y511520D03*
X904752Y516520D03*
X912252Y506520D03*
X919752Y521520D03*
X787252Y366520D03*
X794752Y351520D03*
X787252Y356520D03*
X819752D03*
X839752D03*
X859752Y316520D03*
X864752Y326520D03*
X869752Y341520D03*
X879752Y356520D03*
X889752Y349020D03*
X919752Y361520D03*
X924752Y354020D03*
X939752D03*
X964752D03*
X944752Y341520D03*
X949752Y379020D03*
X919752Y391520D03*
X904752Y384020D03*
X669752Y481520D03*
X639752Y476520D03*
X619752Y479020D03*
X599752Y481520D03*
X677252Y489020D03*
X682252Y499020D03*
X692252Y491520D03*
X694752Y484020D03*
X699752Y489020D03*
X704752Y484020D03*
X717252Y476520D03*
X744752Y481520D03*
X739752Y516520D03*
X749752Y514020D03*
X759752Y511520D03*
X782252Y491520D03*
X784752Y519020D03*
X779752Y546520D03*
X787252D03*
X804752Y539020D03*
X814752Y491520D03*
X804752Y471520D03*
X834752Y521520D03*
X849752Y536520D03*
X859752Y541520D03*
X889752Y526520D03*
X869752Y571520D03*
X889752Y576520D03*
X884752Y601520D03*
X659752Y326520D03*
X644752Y331520D03*
X634752Y324020D03*
X624752D03*
X617252Y329020D03*
X609752Y326520D03*
X599752D03*
X594752Y291520D03*
X557252Y296520D03*
X559752Y289020D03*
X569752Y284020D03*
X584752Y271520D03*
X589752Y261520D03*
X564752Y274020D03*
X557252Y279020D03*
X539752Y284020D03*
X549752Y314020D03*
X514752Y241520D03*
X539752D03*
X519752Y261520D03*
X509752Y246520D03*
X504752Y251520D03*
X497252Y246520D03*
X492252Y254020D03*
X619752Y376520D03*
X612252Y374020D03*
X587252D03*
X574752Y376520D03*
X569752Y486520D03*
X589752D03*
X604752Y511520D03*
X589752Y526520D03*
X599752Y534020D03*
X619752Y526520D03*
X639752Y521520D03*
X649752Y516520D03*
X652252Y526520D03*
X664752Y509020D03*
X647252Y499020D03*
X539752Y481520D03*
X524752Y479020D03*
X499752Y484020D03*
Y471520D03*
X539752Y454020D03*
X562252Y456520D03*
X449752Y511520D03*
X444752Y501520D03*
X429752Y506520D03*
X439752Y516520D03*
X434752Y534020D03*
X424752D03*
X414752Y516520D03*
X409752Y511520D03*
X404752Y521520D03*
X399752Y531520D03*
Y501520D03*
X394752Y511520D03*
X389752Y519020D03*
X384752Y509020D03*
Y499020D03*
X777252Y566520D03*
X787252Y576520D03*
X779752Y586520D03*
X789752Y596520D03*
X764752Y591520D03*
X762252Y579020D03*
X787252Y616520D03*
X822252Y611520D03*
X694752Y601520D03*
X709752Y604020D03*
X739752Y624020D03*
X677252D03*
X667252Y596520D03*
X669752Y579020D03*
X652252Y576520D03*
X709752Y559020D03*
X319752Y364020D03*
X334752Y371520D03*
X347252Y384020D03*
X332252Y389020D03*
X267252Y411520D03*
X279752Y421520D03*
X227252Y436520D03*
X229752Y386520D03*
X247252Y466520D03*
X304752D03*
X277252Y504020D03*
X264752Y516520D03*
X269752Y521520D03*
X284752Y526520D03*
X289752Y531520D03*
X304752Y521520D03*
X334752Y519020D03*
X344752Y536520D03*
X324752Y541520D03*
X314752Y551520D03*
X359752Y511520D03*
X362252Y571520D03*
X354752Y579020D03*
X379752Y569020D03*
X477252Y506520D03*
X467252Y476520D03*
X464752Y466520D03*
X489752Y436520D03*
X457252Y404020D03*
X464752Y394020D03*
X509752Y391520D03*
X537252Y409020D03*
X552252Y396520D03*
X562252Y401520D03*
X529752Y336520D03*
X507252Y321520D03*
X502252Y316520D03*
X492252Y324020D03*
X482252Y321520D03*
X474752Y316520D03*
X454752Y311520D03*
X444752Y319020D03*
X459752Y339020D03*
X454752Y354020D03*
X464752Y366520D03*
X459752Y371520D03*
X422252Y331520D03*
X419752Y266520D03*
Y284020D03*
X322252Y304020D03*
X614752Y301520D03*
X669752Y279020D03*
X682252Y291520D03*
X699752Y276520D03*
X687252Y261520D03*
X719752Y271520D03*
X729752Y261520D03*
X789752Y146520D03*
X802252Y166520D03*
X812252Y176520D03*
X829752Y191520D03*
X819752Y206520D03*
X807252Y226520D03*
X814752Y236520D03*
X824752Y251520D03*
X794752Y266520D03*
X839752Y261520D03*
X869752Y251520D03*
X879752Y241520D03*
X889752Y231520D03*
X864752Y146520D03*
X907252Y129020D03*
X387252Y131520D03*
X397252D03*
X417252Y129020D03*
X437252Y131520D03*
X209752Y526520D03*
X204752Y534020D03*
X219752Y556520D03*
X229752Y561520D03*
X244752Y571520D03*
X259752Y576520D03*
X252252Y586520D03*
X237252D03*
X224752Y581520D03*
X219752Y576520D03*
X214752Y606520D03*
X262252Y604020D03*
X249752Y611520D03*
X259752Y616520D03*
X199752Y599020D03*
X187252Y611520D03*
X182252Y586520D03*
X189752Y571520D03*
X167252Y621520D03*
X147252Y629020D03*
X189752Y631520D03*
X132252Y639020D03*
X124752Y646520D03*
X157252Y689020D03*
X162252Y681520D03*
X167252Y686520D03*
X172252Y696520D03*
X194752Y689020D03*
X147252Y706520D03*
X259752Y659020D03*
X272252Y671520D03*
Y681520D03*
X354752D03*
X362252Y656520D03*
X409752D03*
X569752Y539020D03*
X554752Y526520D03*
Y516520D03*
X544752Y569020D03*
X519752Y564020D03*
X509752D03*
Y606520D03*
X554752D03*
X584752Y574020D03*
X599752Y569020D03*
X637252Y551520D03*
Y594020D03*
X604752Y601520D03*
X647252Y624020D03*
X639752Y636520D03*
X629752Y644020D03*
X604752Y656520D03*
X612252Y691520D03*
X594752Y696520D03*
X659752D03*
X564752Y686520D03*
X547252Y679020D03*
X554752Y656520D03*
X524752D03*
X544752Y636520D03*
X467252Y656520D03*
X429752Y604020D03*
X449752D03*
Y594020D03*
X457252Y586520D03*
X434752Y621520D03*
X314752Y601520D03*
X737252Y654020D03*
X744752Y694020D03*
X882252Y669020D03*
X922252Y681520D03*
X974752Y636520D03*
X984752Y641520D03*
X979752Y566520D03*
X929752Y311520D03*
X177252Y326520D03*
X172252Y316520D03*
X167252Y306520D03*
X162252Y301520D03*
X157252Y319020D03*
X224752Y251520D03*
X132252Y196520D03*
X394752Y374020D03*
X387252Y386520D03*
X404752Y396520D03*
X384752Y434020D03*
X369752Y439020D03*
X352252Y444020D03*
X364752Y474020D03*
X844752Y631520D03*
X892252Y586520D03*
X514752Y621520D03*
X372252Y196520D03*
X382252Y206520D03*
X452252Y696520D03*
X147252Y421520D03*
X139752Y434020D03*
Y481520D03*
X584752Y421520D03*
X302252Y696520D03*
X292252Y706520D03*
X864752Y611520D03*
X667252Y161520D03*
X619752D03*
X687252Y216520D03*
X659752Y349020D03*
X429752Y246520D03*
X529752Y576520D03*
X595126Y391260D03*
X332252Y149020D03*
G54D44*
X147252Y351520D03*
X197252D03*
G54D45*
X412252Y196520D03*
X357252Y406520D03*
X167252Y391520D03*
X477252Y611520D03*
G54D46*
X557252Y721520D03*
X207252D03*
X647252Y716520D03*
X942252Y719020D03*
X997252Y716520D03*
G54D60*
X119752Y171520D03*
G54D61*
X122126Y716260D03*
X0Y0D02*
M02*
